<?xml version="1.0" encoding="utf-8"?>
<!-- Generator: Adobe Illustrator 19.1.0, SVG Export Plug-In . SVG Version: 6.00 Build 0)  -->
<!DOCTYPE svg PUBLIC "-//W3C//DTD SVG 1.1//EN" "http://www.w3.org/Graphics/SVG/1.1/DTD/svg11.dtd">
<svg version="1.1" xmlns="http://www.w3.org/2000/svg" xmlns:xlink="http://www.w3.org/1999/xlink" x="0px" y="0px" width="58px"
	 height="16px" viewBox="0 0 58 16" enable-background="new 0 0 58 16" xml:space="preserve">
<g id="Move_Down">
</g>
<g id="Move_Up">
</g>
<g id="Move_Right">
</g>
<g id="Move_Left">
</g>
<g id="Last">
</g>
<g id="First">
</g>
<g id="Play">
</g>
<g id="Pause">
</g>
<g id="Rewind">
</g>
<g id="Forward">
</g>
<g id="More">
</g>
<g id="Collapse">
</g>
<g id="Expand">
</g>
<g id="Arrow_Right">
</g>
<g id="Arrow_Left">
	<g>
		<g>
			<path fill-rule="evenodd" clip-rule="evenodd" fill="#0089D9" d="M9,4C8.8,3.8,8.5,3.8,8.3,4L5.1,7.2c0,0,0,0,0,0
				C5,7.3,4.9,7.4,4.9,7.6c0,0.1,0,0.3,0.1,0.4c0,0,0,0,0,0l3.2,3.2c0.2,0.2,0.5,0.2,0.7,0c0.2-0.2,0.2-0.5,0-0.7L6.1,7.6L9,4.7
				C9.2,4.5,9.2,4.2,9,4z M7.4,0C3.3,0-0.1,3.4-0.1,7.5c0,4.1,3.4,7.5,7.5,7.5c4.1,0,7.5-3.4,7.5-7.5C14.9,3.4,11.6,0,7.4,0z
				 M7.4,14c-3.6,0-6.5-2.9-6.5-6.5C0.9,3.9,3.8,1,7.4,1c3.6,0,6.5,2.9,6.5,6.5C13.9,11.1,11,14,7.4,14z"/>
		</g>
	</g>
	<g>
		<g>
			<path fill-rule="evenodd" clip-rule="evenodd" fill="#C8C8C8" d="M30.1,4c-0.2-0.2-0.5-0.2-0.7,0l-3.2,3.2c0,0,0,0,0,0
				C26,7.3,26,7.4,26,7.6c0,0.1,0,0.3,0.1,0.4c0,0,0,0,0,0l3.2,3.2c0.2,0.2,0.5,0.2,0.7,0c0.2-0.2,0.2-0.5,0-0.7l-2.9-2.9l2.9-2.9
				C30.3,4.5,30.3,4.2,30.1,4z M28.5,0C24.4,0,21,3.4,21,7.5c0,4.1,3.4,7.5,7.5,7.5c4.1,0,7.5-3.4,7.5-7.5C36,3.4,32.7,0,28.5,0z
				 M28.5,14c-3.6,0-6.5-2.9-6.5-6.5C22,3.9,24.9,1,28.5,1C32.1,1,35,3.9,35,7.5C35,11.1,32.1,14,28.5,14z"/>
		</g>
	</g>
	<g>
		<g>
			<path fill-rule="evenodd" clip-rule="evenodd" fill="#39A6E6" d="M51.1,4c-0.2-0.2-0.5-0.2-0.7,0l-3.2,3.2c0,0,0,0,0,0
				C47,7.3,47,7.4,47,7.6c0,0.1,0,0.3,0.1,0.4c0,0,0,0,0,0l3.2,3.2c0.2,0.2,0.5,0.2,0.7,0c0.2-0.2,0.2-0.5,0-0.7l-2.9-2.9l2.9-2.9
				C51.3,4.5,51.3,4.2,51.1,4z M49.5,0C45.3,0,42,3.4,42,7.5c0,4.1,3.4,7.5,7.5,7.5c4.1,0,7.5-3.4,7.5-7.5C57,3.4,53.6,0,49.5,0z
				 M49.5,14c-3.6,0-6.5-2.9-6.5-6.5C43,3.9,45.9,1,49.5,1C53.1,1,56,3.9,56,7.5C56,11.1,53.1,14,49.5,14z"/>
		</g>
	</g>
</g>
<g id="Arrow_Down">
</g>
<g id="Arrow_Up">
</g>
<g id="Cancel">
</g>
<g id="OK">
</g>
<g id="Remove">
</g>
<g id="Add_Blue">
</g>
<g id="Add_Green">
</g>
<g id="Burger">
</g>
<g id="Guides" display="none" opacity="0.2">
	<rect display="inline" fill="#0089D9" width="16" height="16"/>
	<rect x="21" display="inline" fill="#0089D9" width="16" height="16"/>
	<rect x="42" display="inline" fill="#0089D9" width="16" height="16"/>
</g>
</svg>
