<?xml version="1.0" encoding="utf-8"?>
<!-- Generator: Adobe Illustrator 19.1.0, SVG Export Plug-In . SVG Version: 6.00 Build 0)  -->
<!DOCTYPE svg PUBLIC "-//W3C//DTD SVG 1.1//EN" "http://www.w3.org/Graphics/SVG/1.1/DTD/svg11.dtd">
<svg version="1.1" xmlns="http://www.w3.org/2000/svg" xmlns:xlink="http://www.w3.org/1999/xlink" x="0px" y="0px" width="58px"
	 height="16px" viewBox="0 0 58 16" enable-background="new 0 0 58 16" xml:space="preserve">
<g id="Move_Down">
	<g>
		<g>
			<path fill-rule="evenodd" clip-rule="evenodd" fill="#0089D9" d="M11.1,7.7c0.2-0.2,0.2-0.5,0-0.7c-0.2-0.2-0.5-0.2-0.7,0L8,9.4
				V4.3C8,4,7.8,3.8,7.5,3.8C7.2,3.8,7,4,7,4.3v5.1L4.6,7C4.4,6.8,4.1,6.8,3.9,7c-0.2,0.2-0.2,0.5,0,0.7L7.2,11c0,0,0,0,0,0
				c0.1,0.1,0.1,0.1,0.2,0.1c0,0,0.1,0,0.2,0c0.1,0,0.3,0,0.4-0.1L11.1,7.7z M15,7.5C15,3.4,11.6,0,7.5,0C3.4,0,0,3.4,0,7.5
				C0,11.7,3.4,15,7.5,15C11.6,15,15,11.7,15,7.5z M14,7.5c0,3.6-2.9,6.5-6.5,6.5C3.9,14,1,11.1,1,7.5C1,3.9,3.9,1,7.5,1
				C11.1,1,14,3.9,14,7.5z"/>
		</g>
	</g>
	<g>
		<g>
			<path fill-rule="evenodd" clip-rule="evenodd" fill="#C8C8C8" d="M31.4,7L29,9.4V4.3c0-0.3-0.2-0.5-0.5-0.5S28,4,28,4.3v5.1
				L25.6,7c-0.2-0.2-0.5-0.2-0.7,0c-0.2,0.2-0.2,0.5,0,0.7l3.2,3.2c0,0,0,0,0,0c0,0,0.1,0.1,0.2,0.1c0.1,0,0.1,0,0.2,0
				c0.1,0,0.3,0,0.4-0.1l3.2-3.2c0.2-0.2,0.2-0.5,0-0.7C31.9,6.8,31.6,6.8,31.4,7z M28.5,0C24.4,0,21,3.4,21,7.5
				c0,4.1,3.4,7.5,7.5,7.5c4.1,0,7.5-3.4,7.5-7.5C36,3.4,32.6,0,28.5,0z M28.5,14c-3.6,0-6.5-2.9-6.5-6.5C22,3.9,24.9,1,28.5,1
				C32.1,1,35,3.9,35,7.5C35,11.1,32.1,14,28.5,14z"/>
		</g>
	</g>
	<g>
		<g>
			<path fill-rule="evenodd" clip-rule="evenodd" fill="#39A6E6" d="M49.5,0C45.4,0,42,3.4,42,7.5c0,4.1,3.4,7.5,7.5,7.5
				c4.1,0,7.5-3.4,7.5-7.5C57,3.4,53.6,0,49.5,0z M49.5,14c-3.6,0-6.5-2.9-6.5-6.5C43,3.9,45.9,1,49.5,1C53.1,1,56,3.9,56,7.5
				C56,11.1,53.1,14,49.5,14z M52.4,7L50,9.4V4.3c0-0.3-0.2-0.5-0.5-0.5S49,4,49,4.3v5.1L46.6,7c-0.2-0.2-0.5-0.2-0.7,0
				c-0.2,0.2-0.2,0.5,0,0.7l3.2,3.2c0,0,0,0,0,0c0,0,0.1,0.1,0.2,0.1c0.1,0,0.1,0,0.2,0c0.1,0,0.3,0,0.4-0.1l3.2-3.2
				c0.2-0.2,0.2-0.5,0-0.7C52.9,6.8,52.6,6.8,52.4,7z"/>
		</g>
	</g>
</g>
<g id="Move_Up">
</g>
<g id="Move_Right">
</g>
<g id="Move_Left">
</g>
<g id="Last">
</g>
<g id="First">
</g>
<g id="Play">
</g>
<g id="Pause">
</g>
<g id="Rewind">
</g>
<g id="Forward">
</g>
<g id="More">
</g>
<g id="Collapse">
</g>
<g id="Expand">
</g>
<g id="Arrow_Right">
</g>
<g id="Arrow_Left">
</g>
<g id="Arrow_Down">
</g>
<g id="Arrow_Up">
</g>
<g id="Cancel">
</g>
<g id="OK">
</g>
<g id="Remove">
</g>
<g id="Add_Blue">
</g>
<g id="Add_Green">
</g>
<g id="Burger">
</g>
<g id="Guides" display="none" opacity="0.2">
	<rect display="inline" fill="#0089D9" width="16" height="16"/>
	<rect x="21" display="inline" fill="#0089D9" width="16" height="16"/>
	<rect x="42" display="inline" fill="#0089D9" width="16" height="16"/>
</g>
</svg>
