<?xml version="1.0" encoding="utf-8"?>
<!-- Generator: Adobe Illustrator 19.1.0, SVG Export Plug-In . SVG Version: 6.00 Build 0)  -->
<!DOCTYPE svg PUBLIC "-//W3C//DTD SVG 1.1//EN" "http://www.w3.org/Graphics/SVG/1.1/DTD/svg11.dtd">
<svg version="1.1" xmlns="http://www.w3.org/2000/svg" xmlns:xlink="http://www.w3.org/1999/xlink" x="0px" y="0px" width="58px"
	 height="16px" viewBox="0 0 58 16" enable-background="new 0 0 58 16" xml:space="preserve">
<g id="Move_Down">
</g>
<g id="Move_Up">
</g>
<g id="Move_Right">
</g>
<g id="Move_Left">
</g>
<g id="Last">
</g>
<g id="First">
</g>
<g id="Play">
</g>
<g id="Pause">
</g>
<g id="Rewind">
</g>
<g id="Forward">
	<g>
		<g>
			<path fill-rule="evenodd" clip-rule="evenodd" fill="#0089D9" d="M7.2,4.5C7,4.3,6.7,4.3,6.5,4.5C6.3,4.7,6.3,5,6.5,5.2l2.3,2.3
				L6.5,9.8c-0.2,0.2-0.2,0.5,0,0.7c0.2,0.2,0.5,0.2,0.7,0l2.7-2.7C10,7.8,10,7.6,10,7.5c0-0.1,0-0.3-0.1-0.4L7.2,4.5z M11.5,5
				C11.2,5,11,5.2,11,5.5v4c0,0.3,0.2,0.5,0.5,0.5S12,9.8,12,9.5v-4C12,5.2,11.8,5,11.5,5z M7.5,0C3.4,0,0,3.4,0,7.5
				C0,11.6,3.4,15,7.5,15c4.1,0,7.5-3.4,7.5-7.5C15,3.4,11.7,0,7.5,0z M7.5,14C3.9,14,1,11.1,1,7.5C1,3.9,3.9,1,7.5,1
				C11.1,1,14,3.9,14,7.5C14,11.1,11.1,14,7.5,14z M7,7.5c0-0.1,0-0.3-0.1-0.4L4.2,4.5C4,4.3,3.7,4.3,3.5,4.5C3.3,4.7,3.3,5,3.5,5.2
				l2.3,2.3L3.5,9.8c-0.2,0.2-0.2,0.5,0,0.7c0.2,0.2,0.5,0.2,0.7,0l2.7-2.7C7,7.8,7,7.6,7,7.5z"/>
		</g>
	</g>
	<g>
		<g>
			<path fill-rule="evenodd" clip-rule="evenodd" fill="#C8C8C8" d="M32.5,5C32.2,5,32,5.2,32,5.5v4c0,0.3,0.2,0.5,0.5,0.5
				c0.3,0,0.5-0.2,0.5-0.5v-4C33,5.2,32.8,5,32.5,5z M28.2,4.5c-0.2-0.2-0.5-0.2-0.7,0c-0.2,0.2-0.2,0.5,0,0.7l2.3,2.3l-2.3,2.3
				c-0.2,0.2-0.2,0.5,0,0.7c0.2,0.2,0.5,0.2,0.7,0l2.7-2.7C30.9,7.8,31,7.6,31,7.5c0-0.1,0-0.3-0.1-0.4L28.2,4.5z M28.5,0
				C24.3,0,21,3.4,21,7.5c0,4.1,3.4,7.5,7.5,7.5c4.1,0,7.5-3.4,7.5-7.5C36,3.4,32.6,0,28.5,0z M28.5,14c-3.6,0-6.5-2.9-6.5-6.5
				C22,3.9,24.9,1,28.5,1C32.1,1,35,3.9,35,7.5C35,11.1,32.1,14,28.5,14z M28,7.5c0-0.1,0-0.3-0.1-0.4l-2.7-2.7
				c-0.2-0.2-0.5-0.2-0.7,0c-0.2,0.2-0.2,0.5,0,0.7l2.3,2.3l-2.3,2.3c-0.2,0.2-0.2,0.5,0,0.7c0.2,0.2,0.5,0.2,0.7,0l2.7-2.7
				C27.9,7.8,28,7.6,28,7.5z"/>
		</g>
	</g>
	<g>
		<g>
			<path fill-rule="evenodd" clip-rule="evenodd" fill="#39A6E6" d="M49.5,0C45.4,0,42,3.4,42,7.5c0,4.1,3.4,7.5,7.5,7.5
				c4.1,0,7.5-3.4,7.5-7.5C57,3.4,53.7,0,49.5,0z M49.5,14c-3.6,0-6.5-2.9-6.5-6.5C43,3.9,45.9,1,49.5,1C53.1,1,56,3.9,56,7.5
				C56,11.1,53.1,14,49.5,14z M49.2,4.5c-0.2-0.2-0.5-0.2-0.7,0c-0.2,0.2-0.2,0.5,0,0.7l2.3,2.3l-2.3,2.3c-0.2,0.2-0.2,0.5,0,0.7
				c0.2,0.2,0.5,0.2,0.7,0l2.7-2.7C52,7.8,52,7.6,52,7.5c0-0.1,0-0.3-0.1-0.4L49.2,4.5z M53.5,5C53.2,5,53,5.2,53,5.5v4
				c0,0.3,0.2,0.5,0.5,0.5S54,9.8,54,9.5v-4C54,5.2,53.8,5,53.5,5z M49,7.5c0-0.1,0-0.3-0.1-0.4l-2.7-2.7c-0.2-0.2-0.5-0.2-0.7,0
				c-0.2,0.2-0.2,0.5,0,0.7l2.3,2.3l-2.3,2.3c-0.2,0.2-0.2,0.5,0,0.7c0.2,0.2,0.5,0.2,0.7,0l2.7-2.7C49,7.8,49,7.6,49,7.5z"/>
		</g>
	</g>
</g>
<g id="More">
</g>
<g id="Collapse">
</g>
<g id="Expand">
</g>
<g id="Arrow_Right">
</g>
<g id="Arrow_Left">
</g>
<g id="Arrow_Down">
</g>
<g id="Arrow_Up">
</g>
<g id="Cancel">
</g>
<g id="OK">
</g>
<g id="Remove">
</g>
<g id="Add_Blue">
</g>
<g id="Add_Green">
</g>
<g id="Burger">
</g>
<g id="Guides" display="none" opacity="0.2">
	<rect display="inline" fill="#0089D9" width="16" height="16"/>
	<rect x="21" display="inline" fill="#0089D9" width="16" height="16"/>
	<rect x="42" display="inline" fill="#0089D9" width="16" height="16"/>
</g>
</svg>
