<?xml version="1.0" encoding="utf-8"?>
<!-- Generator: Adobe Illustrator 19.1.0, SVG Export Plug-In . SVG Version: 6.00 Build 0)  -->
<!DOCTYPE svg PUBLIC "-//W3C//DTD SVG 1.1//EN" "http://www.w3.org/Graphics/SVG/1.1/DTD/svg11.dtd">
<svg version="1.1" xmlns="http://www.w3.org/2000/svg" xmlns:xlink="http://www.w3.org/1999/xlink" x="0px" y="0px" width="58px"
	 height="16px" viewBox="0 0 58 16" enable-background="new 0 0 58 16" xml:space="preserve">
<g id="Move_Down">
</g>
<g id="Move_Up">
</g>
<g id="Move_Right">
</g>
<g id="Move_Left">
</g>
<g id="Last">
	<g>
		<g>
			<path fill-rule="evenodd" clip-rule="evenodd" fill="#39A6E6" d="M51.5,4C51.2,4,51,4.2,51,4.5v6c0,0.3,0.2,0.5,0.5,0.5
				c0.3,0,0.5-0.2,0.5-0.5v-6C52,4.2,51.8,4,51.5,4z M49.5,0C45.4,0,42,3.4,42,7.5c0,4.1,3.4,7.5,7.5,7.5c4.1,0,7.5-3.4,7.5-7.5
				C57,3.4,53.7,0,49.5,0z M49.5,14c-3.6,0-6.5-2.9-6.5-6.5C43,3.9,45.9,1,49.5,1C53.1,1,56,3.9,56,7.5C56,11.1,53.1,14,49.5,14z
				 M50,7.1l-3-3l-1-0.3l0.3,1l2.6,2.6l-2.6,2.6l-0.3,1l1-0.3l3-3C50.2,7.6,50.2,7.3,50,7.1C50,7.1,50,7.1,50,7.1z"/>
		</g>
	</g>
	<g>
		<g>
			<path fill-rule="evenodd" clip-rule="evenodd" fill="#C8C8C8" d="M28.5,0C24.4,0,21,3.4,21,7.5c0,4.1,3.4,7.5,7.5,7.5
				c4.1,0,7.5-3.4,7.5-7.5C36,3.4,32.7,0,28.5,0z M28.5,14c-3.6,0-6.5-2.9-6.5-6.5C22,3.9,24.9,1,28.5,1C32.1,1,35,3.9,35,7.5
				C35,11.1,32.1,14,28.5,14z M30.5,4C30.3,4,30,4.2,30,4.5v6c0,0.3,0.2,0.5,0.5,0.5c0.3,0,0.5-0.2,0.5-0.5v-6C31,4.2,30.8,4,30.5,4
				z M29,7.1l-3-3l-1-0.3l0.3,1l2.6,2.6l-2.6,2.6l-0.3,1l1-0.3l3-3C29.2,7.6,29.2,7.3,29,7.1C29,7.1,29,7.1,29,7.1z"/>
		</g>
	</g>
	<g>
		<g>
			<path fill-rule="evenodd" clip-rule="evenodd" fill="#0089D9" d="M4.3,4.9l2.6,2.6l-2.6,2.6l-0.3,1l1-0.3l3-3
				c0.2-0.2,0.2-0.5,0-0.7c0,0,0,0,0,0l-3-3L4,3.9L4.3,4.9z M9,4.5v6C9,10.8,9.2,11,9.5,11c0.3,0,0.5-0.2,0.5-0.5v-6
				C10,4.2,9.8,4,9.5,4C9.2,4,9,4.2,9,4.5z M0,7.5C0,11.6,3.4,15,7.5,15c4.1,0,7.5-3.4,7.5-7.5C15,3.4,11.7,0,7.5,0
				C3.4,0,0,3.4,0,7.5z M1,7.5C1,3.9,3.9,1,7.5,1C11.1,1,14,3.9,14,7.5c0,3.6-2.9,6.5-6.5,6.5C3.9,14,1,11.1,1,7.5z"/>
		</g>
	</g>
</g>
<g id="First">
</g>
<g id="Play">
</g>
<g id="Pause">
</g>
<g id="Rewind">
</g>
<g id="Forward">
</g>
<g id="More">
</g>
<g id="Collapse">
</g>
<g id="Expand">
</g>
<g id="Arrow_Right">
</g>
<g id="Arrow_Left">
</g>
<g id="Arrow_Down">
</g>
<g id="Arrow_Up">
</g>
<g id="Cancel">
</g>
<g id="OK">
</g>
<g id="Remove">
</g>
<g id="Add_Blue">
</g>
<g id="Add_Green">
</g>
<g id="Burger">
</g>
<g id="Guides" display="none" opacity="0.2">
	<rect display="inline" fill="#0089D9" width="16" height="16"/>
	<rect x="21" display="inline" fill="#0089D9" width="16" height="16"/>
	<rect x="42" display="inline" fill="#0089D9" width="16" height="16"/>
</g>
</svg>
