<?xml version="1.0" encoding="utf-8"?>
<!-- Generator: Adobe Illustrator 19.1.0, SVG Export Plug-In . SVG Version: 6.00 Build 0)  -->
<!DOCTYPE svg PUBLIC "-//W3C//DTD SVG 1.1//EN" "http://www.w3.org/Graphics/SVG/1.1/DTD/svg11.dtd">
<svg version="1.1" xmlns="http://www.w3.org/2000/svg" xmlns:xlink="http://www.w3.org/1999/xlink" x="0px" y="0px" width="58px"
	 height="16px" viewBox="0 0 58 16" enable-background="new 0 0 58 16" xml:space="preserve">
<g id="Move_Down">
</g>
<g id="Move_Up">
</g>
<g id="Move_Right">
</g>
<g id="Move_Left">
</g>
<g id="Last">
</g>
<g id="First">
</g>
<g id="Play">
</g>
<g id="Pause">
</g>
<g id="Rewind">
</g>
<g id="Forward">
</g>
<g id="More">
</g>
<g id="Collapse">
</g>
<g id="Expand">
</g>
<g id="Arrow_Right">
</g>
<g id="Arrow_Left">
</g>
<g id="Arrow_Down">
</g>
<g id="Arrow_Up">
</g>
<g id="Cancel">
</g>
<g id="OK">
	<g>
		<g>
			<path fill-rule="evenodd" clip-rule="evenodd" fill="#68A611" d="M10.3,5L6.5,8.8L4.7,7.1C4.5,6.9,4.2,6.9,4,7.1
				C3.8,7.3,3.8,7.6,4,7.8l2.1,2.1C6.3,10,6.5,10,6.7,10c0.1,0,0.1-0.1,0.2-0.1L11,5.7c0.2-0.2,0.2-0.5,0-0.7
				C10.8,4.8,10.5,4.8,10.3,5z M7.5,0C3.4,0,0,3.3,0,7.5C0,11.6,3.4,15,7.5,15c4.1,0,7.5-3.4,7.5-7.5C15,3.3,11.6,0,7.5,0z M7.5,14
				C3.9,14,1,11.1,1,7.5C1,3.9,3.9,1,7.5,1C11.1,1,14,3.9,14,7.5C14,11.1,11.1,14,7.5,14z"/>
		</g>
	</g>
	<g>
		<g>
			<path fill-rule="evenodd" clip-rule="evenodd" fill="#C8C8C8" d="M31.3,5l-3.8,3.8l-1.8-1.8c-0.2-0.2-0.5-0.2-0.7,0
				c-0.2,0.2-0.2,0.5,0,0.7l2.1,2.1c0.1,0.1,0.4,0.2,0.5,0.1c0.1,0,0.1-0.1,0.2-0.1L32,5.7c0.2-0.2,0.2-0.5,0-0.7
				C31.8,4.8,31.5,4.8,31.3,5z M28.5,0C24.4,0,21,3.3,21,7.5c0,4.1,3.4,7.5,7.5,7.5c4.1,0,7.5-3.4,7.5-7.5C36,3.3,32.6,0,28.5,0z
				 M28.5,14c-3.6,0-6.5-2.9-6.5-6.5C22,3.9,24.9,1,28.5,1C32.1,1,35,3.9,35,7.5C35,11.1,32.1,14,28.5,14z"/>
		</g>
	</g>
	<g>
		<g>
			<path fill-rule="evenodd" clip-rule="evenodd" fill="#8EC928" d="M52.3,5l-3.8,3.8l-1.8-1.8c-0.2-0.2-0.5-0.2-0.7,0
				c-0.2,0.2-0.2,0.5,0,0.7l2.1,2.1c0.1,0.1,0.4,0.2,0.5,0.1c0.1,0,0.1-0.1,0.2-0.1L53,5.7c0.2-0.2,0.2-0.5,0-0.7
				C52.8,4.8,52.5,4.8,52.3,5z M49.5,0C45.4,0,42,3.3,42,7.5c0,4.1,3.4,7.5,7.5,7.5c4.1,0,7.5-3.4,7.5-7.5C57,3.3,53.6,0,49.5,0z
				 M49.5,14c-3.6,0-6.5-2.9-6.5-6.5C43,3.9,45.9,1,49.5,1C53.1,1,56,3.9,56,7.5C56,11.1,53.1,14,49.5,14z"/>
		</g>
	</g>
</g>
<g id="Remove">
</g>
<g id="Add_Blue">
</g>
<g id="Add_Green">
</g>
<g id="Burger">
</g>
<g id="Guides" display="none" opacity="0.2">
	<rect x="0" display="inline" fill="#0089D9" width="16" height="16"/>
	<rect x="21" display="inline" fill="#0089D9" width="16" height="16"/>
	<rect x="42" display="inline" fill="#0089D9" width="16" height="16"/>
</g>
</svg>
