<?xml version="1.0" encoding="utf-8"?>
<!-- Generator: Adobe Illustrator 19.1.0, SVG Export Plug-In . SVG Version: 6.00 Build 0)  -->
<!DOCTYPE svg PUBLIC "-//W3C//DTD SVG 1.1//EN" "http://www.w3.org/Graphics/SVG/1.1/DTD/svg11.dtd">
<svg version="1.1" xmlns="http://www.w3.org/2000/svg" xmlns:xlink="http://www.w3.org/1999/xlink" x="0px" y="0px" width="58px"
	 height="16px" viewBox="0 0 58 16" enable-background="new 0 0 58 16" xml:space="preserve">
<g id="Move_Down">
</g>
<g id="Move_Up">
</g>
<g id="Move_Right">
</g>
<g id="Move_Left">
</g>
<g id="Last">
</g>
<g id="First">
</g>
<g id="Play">
</g>
<g id="Pause">
</g>
<g id="Rewind">
	<g>
		<g>
			<path fill-rule="evenodd" clip-rule="evenodd" fill="#39A6E6" d="M45.5,5C45.2,5,45,5.2,45,5.5v4c0,0.3,0.2,0.5,0.5,0.5
				c0.3,0,0.5-0.2,0.5-0.5v-4C46,5.2,45.8,5,45.5,5z M48.2,7.5l2.3-2.3c0.2-0.2,0.2-0.5,0-0.7c-0.2-0.2-0.5-0.2-0.7,0l-2.7,2.7
				C47.1,7.3,47,7.4,47,7.5c0,0.1,0,0.3,0.1,0.4l2.7,2.7c0.2,0.2,0.5,0.2,0.7,0c0.2-0.2,0.2-0.5,0-0.7L48.2,7.5z M53.6,4.5
				c-0.2-0.2-0.5-0.2-0.7,0l-2.7,2.7C50.1,7.3,50,7.4,50,7.5c0,0.1,0,0.3,0.1,0.4l2.7,2.7c0.2,0.2,0.5,0.2,0.7,0
				c0.2-0.2,0.2-0.5,0-0.7l-2.3-2.3l2.3-2.3C53.7,5,53.7,4.7,53.6,4.5z M49.5,0C45.4,0,42,3.4,42,7.5c0,4.1,3.4,7.5,7.5,7.5
				c4.1,0,7.5-3.4,7.5-7.5C57,3.4,53.7,0,49.5,0z M49.5,14c-3.6,0-6.5-2.9-6.5-6.5C43,3.9,45.9,1,49.5,1C53.1,1,56,3.9,56,7.5
				C56,11.1,53.1,14,49.5,14z"/>
		</g>
	</g>
	<g>
		<g>
			<path fill-rule="evenodd" clip-rule="evenodd" fill="#C8C8C8" d="M27.2,7.5l2.3-2.3c0.2-0.2,0.2-0.5,0-0.7
				c-0.2-0.2-0.5-0.2-0.7,0l-2.7,2.7C26.1,7.3,26,7.4,26,7.5c0,0.1,0,0.3,0.1,0.4l2.7,2.7c0.2,0.2,0.5,0.2,0.7,0
				c0.2-0.2,0.2-0.5,0-0.7L27.2,7.5z M24.5,5C24.2,5,24,5.2,24,5.5v4c0,0.3,0.2,0.5,0.5,0.5c0.3,0,0.5-0.2,0.5-0.5v-4
				C25,5.2,24.8,5,24.5,5z M28.5,0C24.4,0,21,3.4,21,7.5c0,4.1,3.4,7.5,7.5,7.5c4.1,0,7.5-3.4,7.5-7.5C36,3.4,32.7,0,28.5,0z
				 M28.5,14c-3.6,0-6.5-2.9-6.5-6.5C22,3.9,24.9,1,28.5,1C32.1,1,35,3.9,35,7.5C35,11.1,32.1,14,28.5,14z M32.6,4.5
				c-0.2-0.2-0.5-0.2-0.7,0l-2.7,2.7C29.1,7.3,29,7.4,29,7.5c0,0.1,0,0.3,0.1,0.4l2.7,2.7c0.2,0.2,0.5,0.2,0.7,0
				c0.2-0.2,0.2-0.5,0-0.7l-2.3-2.3l2.3-2.3C32.8,5,32.8,4.7,32.6,4.5z"/>
		</g>
	</g>
	<g>
		<g>
			<path fill-rule="evenodd" clip-rule="evenodd" fill="#0089D9" d="M5.2,7.2C5.1,7.3,5,7.4,5,7.5c0,0.1,0,0.3,0.1,0.4l2.7,2.7
				c0.2,0.2,0.5,0.2,0.7,0c0.2-0.2,0.2-0.5,0-0.7L6.2,7.5l2.3-2.3c0.2-0.2,0.2-0.5,0-0.7C8.4,4.3,8,4.3,7.8,4.5L5.2,7.2z M3,5.5v4
				C3,9.8,3.2,10,3.5,10S4,9.8,4,9.5v-4C4,5.2,3.8,5,3.5,5S3,5.2,3,5.5z M0,7.5C0,11.6,3.4,15,7.5,15c4.1,0,7.5-3.4,7.5-7.5
				C15,3.4,11.7,0,7.5,0C3.4,0,0,3.4,0,7.5z M1,7.5C1,3.9,3.9,1,7.5,1C11.1,1,14,3.9,14,7.5c0,3.6-2.9,6.5-6.5,6.5
				C3.9,14,1,11.1,1,7.5z M8.2,7.9l2.7,2.7c0.2,0.2,0.5,0.2,0.7,0c0.2-0.2,0.2-0.5,0-0.7L9.2,7.5l2.3-2.3c0.2-0.2,0.2-0.5,0-0.7
				c-0.2-0.2-0.5-0.2-0.7,0L8.2,7.2C8.1,7.3,8,7.4,8,7.5C8,7.6,8.1,7.8,8.2,7.9z"/>
		</g>
	</g>
</g>
<g id="Forward">
</g>
<g id="More">
</g>
<g id="Collapse">
</g>
<g id="Expand">
</g>
<g id="Arrow_Right">
</g>
<g id="Arrow_Left">
</g>
<g id="Arrow_Down">
</g>
<g id="Arrow_Up">
</g>
<g id="Cancel">
</g>
<g id="OK">
</g>
<g id="Remove">
</g>
<g id="Add_Blue">
</g>
<g id="Add_Green">
</g>
<g id="Burger">
</g>
<g id="Guides" display="none" opacity="0.2">
	<rect display="inline" fill="#0089D9" width="16" height="16"/>
	<rect x="21" display="inline" fill="#0089D9" width="16" height="16"/>
	<rect x="42" display="inline" fill="#0089D9" width="16" height="16"/>
</g>
</svg>
