<?xml version="1.0" encoding="utf-8"?>
<!-- Generator: Adobe Illustrator 19.1.0, SVG Export Plug-In . SVG Version: 6.00 Build 0)  -->
<!DOCTYPE svg PUBLIC "-//W3C//DTD SVG 1.1//EN" "http://www.w3.org/Graphics/SVG/1.1/DTD/svg11.dtd">
<svg version="1.1" xmlns="http://www.w3.org/2000/svg" xmlns:xlink="http://www.w3.org/1999/xlink" x="0px" y="0px" width="58px"
	 height="16px" viewBox="0 0 58 16" enable-background="new 0 0 58 16" xml:space="preserve">
<g id="Move_Down">
</g>
<g id="Move_Up">
</g>
<g id="Move_Right">
</g>
<g id="Move_Left">
</g>
<g id="Last">
</g>
<g id="First">
</g>
<g id="Play">
</g>
<g id="Pause">
</g>
<g id="Rewind">
</g>
<g id="Forward">
</g>
<g id="More">
</g>
<g id="Collapse">
</g>
<g id="Expand">
</g>
<g id="Arrow_Right">
</g>
<g id="Arrow_Left">
</g>
<g id="Arrow_Down">
</g>
<g id="Arrow_Up">
</g>
<g id="Cancel">
</g>
<g id="OK">
</g>
<g id="Remove">
	<g>
		<g>
			<path fill-rule="evenodd" clip-rule="evenodd" fill="#D6565A" d="M7.5,0C3.4,0,0,3.3,0,7.5C0,11.6,3.4,15,7.5,15
				c4.1,0,7.5-3.4,7.5-7.5C15,3.3,11.6,0,7.5,0z M7.5,14C3.9,14,1,11.1,1,7.5C1,3.9,3.9,1,7.5,1C11.1,1,14,3.9,14,7.5
				C14,11.1,11.1,14,7.5,14z M10.5,7h-6C4.2,7,4,7.2,4,7.5C4,7.8,4.2,8,4.5,8h6C10.8,8,11,7.8,11,7.5C11,7.2,10.8,7,10.5,7z"/>
		</g>
	</g>
	<g>
		<g>
			<path fill-rule="evenodd" clip-rule="evenodd" fill="#C8C8C8" d="M28.5,0C24.4,0,21,3.3,21,7.5c0,4.1,3.4,7.5,7.5,7.5
				c4.1,0,7.5-3.4,7.5-7.5C36,3.3,32.6,0,28.5,0z M28.5,14c-3.6,0-6.5-2.9-6.5-6.5C22,3.9,24.9,1,28.5,1C32.1,1,35,3.9,35,7.5
				C35,11.1,32.1,14,28.5,14z M31.5,7h-6C25.2,7,25,7.2,25,7.5C25,7.8,25.2,8,25.5,8h6C31.8,8,32,7.8,32,7.5C32,7.2,31.8,7,31.5,7z"
				/>
		</g>
	</g>
	<g>
		<g>
			<path fill-rule="evenodd" clip-rule="evenodd" fill="#E57377" d="M49.5,0C45.4,0,42,3.3,42,7.5c0,4.1,3.4,7.5,7.5,7.5
				c4.1,0,7.5-3.4,7.5-7.5C57,3.3,53.6,0,49.5,0z M49.5,14c-3.6,0-6.5-2.9-6.5-6.5C43,3.9,45.9,1,49.5,1C53.1,1,56,3.9,56,7.5
				C56,11.1,53.1,14,49.5,14z M52.5,7h-6C46.2,7,46,7.2,46,7.5C46,7.8,46.2,8,46.5,8h6C52.8,8,53,7.8,53,7.5C53,7.2,52.8,7,52.5,7z"
				/>
		</g>
	</g>
</g>
<g id="Add_Blue">
</g>
<g id="Add_Green">
</g>
<g id="Burger">
</g>
<g id="Guides" display="none" opacity="0.2">
	<rect x="0" display="inline" fill="#0089D9" width="16" height="16"/>
	<rect x="21" display="inline" fill="#0089D9" width="16" height="16"/>
	<rect x="42" display="inline" fill="#0089D9" width="16" height="16"/>
</g>
</svg>
