<?xml version="1.0" encoding="utf-8"?>
<!-- Generator: Adobe Illustrator 19.1.0, SVG Export Plug-In . SVG Version: 6.00 Build 0)  -->
<!DOCTYPE svg PUBLIC "-//W3C//DTD SVG 1.1//EN" "http://www.w3.org/Graphics/SVG/1.1/DTD/svg11.dtd">
<svg version="1.1" xmlns="http://www.w3.org/2000/svg" xmlns:xlink="http://www.w3.org/1999/xlink" x="0px" y="0px" width="111px"
	 height="24px" viewBox="0 0 111 24" enable-background="new 0 0 111 24" xml:space="preserve">
<g id="Move_Down">
</g>
<g id="Move_Up">
</g>
<g id="Move_Right">
</g>
<g id="Move_Left">
</g>
<g id="Last">
</g>
<g id="First">
</g>
<g id="Play">
</g>
<g id="Pause">
</g>
<g id="Rewind">
</g>
<g id="Forward">
</g>
<g id="More">
</g>
<g id="Collapse">
</g>
<g id="Expand">
</g>
<g id="Arrow_Right">
</g>
<g id="Arrow_Left">
</g>
<g id="Arrow_Down">
	<g>
		<g>
			<path fill-rule="evenodd" clip-rule="evenodd" fill="#0089D9" d="M12,0C5.4,0,0,5.4,0,12c0,6.6,5.4,12,12,12c6.6,0,12-5.4,12-12
				C24,5.4,18.6,0,12,0z M12,22C6.5,22,2,17.5,2,12C2,6.5,6.5,2,12,2c5.5,0,10,4.5,10,10C22,17.5,17.5,22,12,22z M15.6,10L12,13.5
				L8.5,10c-0.4-0.4-1-0.4-1.4,0c-0.4,0.4-0.4,1,0,1.4l4,4c0,0.1,0.1,0.2,0.2,0.2c0.2,0.2,0.5,0.3,0.7,0.3c0.3,0,0.5-0.1,0.7-0.3
				c0.1-0.1,0.1-0.1,0.2-0.2l4.1-4.1c0.4-0.4,0.4-1,0-1.4C16.6,9.6,16,9.6,15.6,10z"/>
		</g>
	</g>
	<g>
		<g>
			<path fill-rule="evenodd" clip-rule="evenodd" fill="#C8C8C8" d="M44.6,10L41,13.5L37.5,10c-0.4-0.4-1-0.4-1.4,0
				c-0.4,0.4-0.4,1,0,1.4l4,4c0,0.1,0.1,0.2,0.2,0.2c0.2,0.2,0.5,0.3,0.7,0.3c0.3,0,0.5-0.1,0.7-0.3c0.1-0.1,0.1-0.1,0.2-0.2
				l4.1-4.1c0.4-0.4,0.4-1,0-1.4C45.6,9.6,45,9.6,44.6,10z M41,0c-6.6,0-12,5.4-12,12c0,6.6,5.4,12,12,12c6.6,0,12-5.4,12-12
				C53,5.4,47.6,0,41,0z M41,22c-5.5,0-10-4.5-10-10c0-5.5,4.5-10,10-10c5.5,0,10,4.5,10,10C51,17.5,46.5,22,41,22z"/>
		</g>
	</g>
	<g>
		<g>
			<path fill-rule="evenodd" clip-rule="evenodd" fill="#39A6E6" d="M73.6,10L70,13.5L66.5,10c-0.4-0.4-1-0.4-1.4,0
				c-0.4,0.4-0.4,1,0,1.4l4,4c0,0.1,0.1,0.2,0.2,0.2c0.2,0.2,0.5,0.3,0.7,0.3c0.3,0,0.5-0.1,0.7-0.3c0.1-0.1,0.1-0.1,0.2-0.2
				l4.1-4.1c0.4-0.4,0.4-1,0-1.4C74.6,9.6,74,9.6,73.6,10z M70,0c-6.6,0-12,5.4-12,12c0,6.6,5.4,12,12,12c6.6,0,12-5.4,12-12
				C82,5.4,76.6,0,70,0z M70,22c-5.5,0-10-4.5-10-10c0-5.5,4.5-10,10-10c5.5,0,10,4.5,10,10C80,17.5,75.5,22,70,22z"/>
		</g>
	</g>
	<path fill-rule="evenodd" clip-rule="evenodd" fill="#0089D9" d="M99,0c-6.6,0-12,5.4-12,12c0,6.6,5.4,12,12,12c6.6,0,12-5.4,12-12
		C111,5.4,105.6,0,99,0z M104,11.4l-4.1,4.1c0,0.1-0.1,0.2-0.2,0.2C99.5,15.9,99.3,16,99,16c-0.3,0-0.5-0.1-0.7-0.3
		c-0.1-0.1-0.1-0.2-0.2-0.2l-4-4c-0.4-0.4-0.4-1,0-1.4c0.4-0.4,1-0.4,1.4,0l3.5,3.5l3.6-3.6c0.4-0.4,1-0.4,1.4,0
		C104.4,10.4,104.4,11,104,11.4z"/>
</g>
<g id="Arrow_Up">
</g>
<g id="Cancel">
</g>
<g id="OK">
</g>
<g id="Remove">
</g>
<g id="Add_1_">
</g>
<g id="Add">
</g>
<g id="Burger">
</g>
<g id="Guides" display="none" opacity="0.2">
	<rect display="inline" fill-rule="evenodd" clip-rule="evenodd" fill="#0089D9" width="24" height="24"/>
	<rect x="29" display="inline" fill-rule="evenodd" clip-rule="evenodd" fill="#0089D9" width="24" height="24"/>
	<rect x="58" display="inline" fill-rule="evenodd" clip-rule="evenodd" fill="#0089D9" width="24" height="24"/>
</g>
</svg>
