<?xml version="1.0" encoding="utf-8"?>
<!-- Generator: Adobe Illustrator 19.1.0, SVG Export Plug-In . SVG Version: 6.00 Build 0)  -->
<!DOCTYPE svg PUBLIC "-//W3C//DTD SVG 1.1//EN" "http://www.w3.org/Graphics/SVG/1.1/DTD/svg11.dtd">
<svg version="1.1" xmlns="http://www.w3.org/2000/svg" xmlns:xlink="http://www.w3.org/1999/xlink" x="0px" y="0px" width="82px"
	 height="24px" viewBox="0 0 82 24" enable-background="new 0 0 82 24" xml:space="preserve">
<g id="Move_Down">
</g>
<g id="Move_Up">
</g>
<g id="Move_Right">
</g>
<g id="Move_Left">
</g>
<g id="Last">
</g>
<g id="First">
</g>
<g id="Play">
</g>
<g id="Pause">
</g>
<g id="Rewind">
</g>
<g id="Forward">
</g>
<g id="More">
</g>
<g id="Collapse">
	<g>
		<g>
			<path fill-rule="evenodd" clip-rule="evenodd" fill="#39A6E6" d="M65.8,12l3.6-3.6c0.4-0.4,0.4-1,0-1.4c-0.4-0.4-1-0.4-1.4,0
				l-4.1,4.1c-0.1,0-0.2,0.1-0.2,0.2c-0.2,0.2-0.3,0.5-0.3,0.7c0,0.3,0.1,0.5,0.3,0.7c0.1,0.1,0.2,0.1,0.2,0.2l4,4
				c0.4,0.4,1,0.4,1.4,0c0.4-0.4,0.4-1,0-1.4L65.8,12z M70,0c-6.6,0-12,5.4-12,12c0,6.6,5.4,12,12,12c6.6,0,12-5.4,12-12
				C82,5.4,76.6,0,70,0z M70,22c-5.5,0-10-4.5-10-10c0-5.5,4.5-10,10-10s10,4.5,10,10C80,17.5,75.5,22,70,22z M74.4,7
				c-0.4-0.4-1-0.4-1.4,0l-4.1,4.1c-0.1,0-0.2,0.1-0.2,0.2c-0.2,0.2-0.3,0.5-0.3,0.7c0,0.3,0.1,0.5,0.3,0.7c0.1,0.1,0.2,0.1,0.2,0.2
				l4,4c0.4,0.4,1,0.4,1.4,0c0.4-0.4,0.4-1,0-1.4L70.8,12l3.6-3.6C74.8,8,74.8,7.4,74.4,7z"/>
		</g>
	</g>
	<g>
		<g>
			<path fill-rule="evenodd" clip-rule="evenodd" fill="#C8C8C8" d="M36.8,12l3.6-3.6c0.4-0.4,0.4-1,0-1.4c-0.4-0.4-1-0.4-1.4,0
				l-4.1,4.1c-0.1,0-0.2,0.1-0.2,0.2c-0.2,0.2-0.3,0.5-0.3,0.7c0,0.3,0.1,0.5,0.3,0.7c0.1,0.1,0.2,0.1,0.2,0.2l4,4
				c0.4,0.4,1,0.4,1.4,0c0.4-0.4,0.4-1,0-1.4L36.8,12z M45.4,7c-0.4-0.4-1-0.4-1.4,0l-4.1,4.1c-0.1,0-0.2,0.1-0.2,0.2
				c-0.2,0.2-0.3,0.5-0.3,0.7c0,0.3,0.1,0.5,0.3,0.7c0.1,0.1,0.2,0.1,0.2,0.2l4,4c0.4,0.4,1,0.4,1.4,0c0.4-0.4,0.4-1,0-1.4L41.8,12
				l3.6-3.6C45.8,8,45.8,7.4,45.4,7z M41,0c-6.6,0-12,5.4-12,12c0,6.6,5.4,12,12,12c6.6,0,12-5.4,12-12C53,5.4,47.6,0,41,0z M41,22
				c-5.5,0-10-4.5-10-10c0-5.5,4.5-10,10-10s10,4.5,10,10C51,17.5,46.5,22,41,22z"/>
		</g>
	</g>
	<g>
		<g>
			<path fill-rule="evenodd" clip-rule="evenodd" fill="#0089D9" d="M0,12c0,6.6,5.4,12,12,12c6.6,0,12-5.4,12-12
				c0-6.6-5.4-12-12-12C5.4,0,0,5.4,0,12z M2,12C2,6.5,6.5,2,12,2c5.5,0,10,4.5,10,10c0,5.5-4.5,10-10,10C6.5,22,2,17.5,2,12z
				 M10.9,12.9l4,4c0.4,0.4,1,0.4,1.4,0c0.4-0.4,0.4-1,0-1.4L12.8,12l3.6-3.6c0.4-0.4,0.4-1,0-1.4c-0.4-0.4-1-0.4-1.4,0l-4.1,4.1
				c-0.1,0-0.2,0.1-0.2,0.2c-0.2,0.2-0.3,0.5-0.3,0.7c0,0.3,0.1,0.5,0.3,0.7C10.8,12.8,10.8,12.9,10.9,12.9z M5.7,11.3
				c-0.2,0.2-0.3,0.5-0.3,0.7c0,0.3,0.1,0.5,0.3,0.7c0.1,0.1,0.2,0.1,0.2,0.2l4,4c0.4,0.4,1,0.4,1.4,0c0.4-0.4,0.4-1,0-1.4L7.8,12
				l3.6-3.6c0.4-0.4,0.4-1,0-1.4c-0.4-0.4-1-0.4-1.4,0l-4.1,4.1C5.8,11.1,5.8,11.2,5.7,11.3z"/>
		</g>
	</g>
</g>
<g id="Expand">
</g>
<g id="Arrow_Right">
</g>
<g id="Arrow_Left">
</g>
<g id="Arrow_Down">
</g>
<g id="Arrow_Up">
</g>
<g id="Cancel">
</g>
<g id="OK">
</g>
<g id="Remove">
</g>
<g id="Add_1_">
</g>
<g id="Add">
</g>
<g id="Burger">
</g>
<g id="Guides" display="none" opacity="0.2">
	<rect display="inline" fill-rule="evenodd" clip-rule="evenodd" fill="#0089D9" width="24" height="24"/>
	<rect x="29" display="inline" fill-rule="evenodd" clip-rule="evenodd" fill="#0089D9" width="24" height="24"/>
	<rect x="58" display="inline" fill-rule="evenodd" clip-rule="evenodd" fill="#0089D9" width="24" height="24"/>
</g>
</svg>
