<?xml version="1.0" encoding="utf-8"?>
<!-- Generator: Adobe Illustrator 19.1.0, SVG Export Plug-In . SVG Version: 6.00 Build 0)  -->
<!DOCTYPE svg PUBLIC "-//W3C//DTD SVG 1.1//EN" "http://www.w3.org/Graphics/SVG/1.1/DTD/svg11.dtd">
<svg version="1.1" xmlns="http://www.w3.org/2000/svg" xmlns:xlink="http://www.w3.org/1999/xlink" x="0px" y="0px" width="82px"
	 height="24px" viewBox="0 0 82 24" enable-background="new 0 0 82 24" xml:space="preserve">
<g id="Move_Down">
	<g>
		<g>
			<path fill-rule="evenodd" clip-rule="evenodd" fill="#0089D9" d="M16.9,13.4c0.4-0.4,0.4-1,0-1.4c-0.4-0.4-1-0.4-1.4,0L13,14.5V7
				c0-0.6-0.4-1-1-1c-0.6,0-1,0.4-1,1v7.5l-2.6-2.5c-0.4-0.4-1-0.4-1.4,0c-0.4,0.4-0.4,1,0,1.4l4,4c0,0.1,0.1,0.3,0.2,0.4
				c0.3,0.3,0.7,0.4,1.1,0.2c0.2,0,0.3-0.1,0.4-0.2c0.1-0.1,0.1-0.2,0.2-0.2L16.9,13.4z M24,12c0-6.6-5.4-12-12-12C5.4,0,0,5.4,0,12
				c0,6.6,5.4,12,12,12C18.6,24,24,18.6,24,12z M22,12c0,5.5-4.5,10-10,10S2,17.5,2,12C2,6.5,6.5,2,12,2S22,6.5,22,12z"/>
		</g>
	</g>
	<g>
		<g>
			<path fill-rule="evenodd" clip-rule="evenodd" fill="#C8C8C8" d="M41,0c-6.6,0-12,5.4-12,12c0,6.6,5.4,12,12,12
				c6.6,0,12-5.4,12-12C53,5.4,47.6,0,41,0z M41,22c-5.5,0-10-4.5-10-10c0-5.5,4.5-10,10-10s10,4.5,10,10C51,17.5,46.5,22,41,22z
				 M44.5,12L42,14.5V7c0-0.6-0.4-1-1-1c-0.6,0-1,0.4-1,1v7.5l-2.6-2.5c-0.4-0.4-1-0.4-1.4,0c-0.4,0.4-0.4,1,0,1.4l4,4
				c0,0.1,0.1,0.3,0.2,0.4c0.3,0.3,0.7,0.4,1.1,0.2c0.2,0,0.3-0.1,0.4-0.2c0.1-0.1,0.1-0.2,0.2-0.2l4-4c0.4-0.4,0.4-1,0-1.4
				C45.5,11.6,44.9,11.6,44.5,12z"/>
		</g>
	</g>
	<g>
		<g>
			<path fill-rule="evenodd" clip-rule="evenodd" fill="#39A6E6" d="M70,0c-6.6,0-12,5.4-12,12c0,6.6,5.4,12,12,12
				c6.6,0,12-5.4,12-12C82,5.4,76.6,0,70,0z M70,22c-5.5,0-10-4.5-10-10c0-5.5,4.5-10,10-10c5.5,0,10,4.5,10,10
				C80,17.5,75.5,22,70,22z M73.5,12L71,14.5V7c0-0.6-0.4-1-1-1c-0.6,0-1,0.4-1,1v7.5l-2.6-2.5c-0.4-0.4-1-0.4-1.4,0
				c-0.4,0.4-0.4,1,0,1.4l4,4c0,0.1,0.1,0.3,0.2,0.4c0.3,0.3,0.7,0.4,1.1,0.2c0.2,0,0.3-0.1,0.4-0.2c0.1-0.1,0.1-0.2,0.2-0.2l4-4
				c0.4-0.4,0.4-1,0-1.4C74.5,11.6,73.9,11.6,73.5,12z"/>
		</g>
	</g>
</g>
<g id="Move_Up">
</g>
<g id="Move_Right">
</g>
<g id="Move_Left">
</g>
<g id="Last">
</g>
<g id="First">
</g>
<g id="Play">
</g>
<g id="Pause">
</g>
<g id="Rewind">
</g>
<g id="Forward">
</g>
<g id="More">
</g>
<g id="Collapse">
</g>
<g id="Expand">
</g>
<g id="Arrow_Right">
</g>
<g id="Arrow_Left">
</g>
<g id="Arrow_Down">
</g>
<g id="Arrow_Up">
</g>
<g id="Cancel">
</g>
<g id="OK">
</g>
<g id="Remove">
</g>
<g id="Add_1_">
</g>
<g id="Add">
</g>
<g id="Burger">
</g>
<g id="Guides" display="none" opacity="0.2">
	<rect display="inline" fill-rule="evenodd" clip-rule="evenodd" fill="#0089D9" width="24" height="24"/>
	<rect x="29" display="inline" fill-rule="evenodd" clip-rule="evenodd" fill="#0089D9" width="24" height="24"/>
	<rect x="58" display="inline" fill-rule="evenodd" clip-rule="evenodd" fill="#0089D9" width="24" height="24"/>
</g>
</svg>
