<?xml version="1.0" encoding="utf-8"?>
<!-- Generator: Adobe Illustrator 19.1.0, SVG Export Plug-In . SVG Version: 6.00 Build 0)  -->
<!DOCTYPE svg PUBLIC "-//W3C//DTD SVG 1.1//EN" "http://www.w3.org/Graphics/SVG/1.1/DTD/svg11.dtd">
<svg version="1.1" xmlns="http://www.w3.org/2000/svg" xmlns:xlink="http://www.w3.org/1999/xlink" x="0px" y="0px" width="82px"
	 height="24px" viewBox="0 0 82 24" enable-background="new 0 0 82 24" xml:space="preserve">
<g id="Move_Down">
</g>
<g id="Move_Up">
</g>
<g id="Move_Right">
</g>
<g id="Move_Left">
</g>
<g id="Last">
</g>
<g id="First">
</g>
<g id="Play">
</g>
<g id="Pause">
</g>
<g id="Rewind">
</g>
<g id="Forward">
</g>
<g id="More">
</g>
<g id="Collapse">
</g>
<g id="Expand">
	<g>
		<g>
			<path fill-rule="evenodd" clip-rule="evenodd" fill="#0089D9" d="M12,0C5.4,0,0,5.4,0,12c0,6.6,5.4,12,12,12c6.6,0,12-5.4,12-12
				C24,5.4,18.6,0,12,0z M12,22C6.5,22,2,17.5,2,12C2,6.5,6.5,2,12,2c5.5,0,10,4.5,10,10C22,17.5,17.5,22,12,22z M13.3,12.7
				c0.2-0.2,0.3-0.5,0.3-0.7c0-0.3-0.1-0.5-0.3-0.7c-0.1-0.1-0.1-0.1-0.2-0.2L9,7C8.6,6.6,8,6.6,7.6,7c-0.4,0.4-0.4,1,0,1.4l3.6,3.6
				l-3.5,3.5c-0.4,0.4-0.4,1,0,1.4c0.4,0.4,1,0.4,1.4,0l4-4C13.2,12.9,13.2,12.8,13.3,12.7z M18.1,11.1L14,7c-0.4-0.4-1-0.4-1.4,0
				c-0.4,0.4-0.4,1,0,1.4l3.6,3.6l-3.5,3.5c-0.4,0.4-0.4,1,0,1.4c0.4,0.4,1,0.4,1.4,0l4-4c0.1,0,0.2-0.1,0.2-0.2
				c0.2-0.2,0.3-0.5,0.3-0.7c0-0.3-0.1-0.5-0.3-0.7C18.2,11.2,18.2,11.1,18.1,11.1z"/>
		</g>
	</g>
	<g>
		<g>
			<path fill-rule="evenodd" clip-rule="evenodd" fill="#C8C8C8" d="M42.3,12.7c0.2-0.2,0.3-0.5,0.3-0.7c0-0.3-0.1-0.5-0.3-0.7
				c-0.1-0.1-0.1-0.1-0.2-0.2L38,7c-0.4-0.4-1-0.4-1.4,0c-0.4,0.4-0.4,1,0,1.4l3.6,3.6l-3.5,3.5c-0.4,0.4-0.4,1,0,1.4
				c0.4,0.4,1,0.4,1.4,0l4-4C42.2,12.9,42.2,12.8,42.3,12.7z M41,0c-6.6,0-12,5.4-12,12c0,6.6,5.4,12,12,12c6.6,0,12-5.4,12-12
				C53,5.4,47.6,0,41,0z M41,22c-5.5,0-10-4.5-10-10c0-5.5,4.5-10,10-10s10,4.5,10,10C51,17.5,46.5,22,41,22z M47.1,11.1L43,7
				c-0.4-0.4-1-0.4-1.4,0c-0.4,0.4-0.4,1,0,1.4l3.6,3.6l-3.5,3.5c-0.4,0.4-0.4,1,0,1.4c0.4,0.4,1,0.4,1.4,0l4-4
				c0.1,0,0.2-0.1,0.2-0.2c0.2-0.2,0.3-0.5,0.3-0.7c0-0.3-0.1-0.5-0.3-0.7C47.2,11.2,47.2,11.1,47.1,11.1z"/>
		</g>
	</g>
	<g>
		<g>
			<path fill-rule="evenodd" clip-rule="evenodd" fill="#39A6E6" d="M71.3,12.7c0.2-0.2,0.3-0.5,0.3-0.7c0-0.3-0.1-0.5-0.3-0.7
				c-0.1-0.1-0.1-0.1-0.2-0.2L67,7c-0.4-0.4-1-0.4-1.4,0c-0.4,0.4-0.4,1,0,1.4l3.6,3.6l-3.5,3.5c-0.4,0.4-0.4,1,0,1.4
				c0.4,0.4,1,0.4,1.4,0l4-4C71.2,12.9,71.2,12.8,71.3,12.7z M70,0c-6.6,0-12,5.4-12,12c0,6.6,5.4,12,12,12c6.6,0,12-5.4,12-12
				C82,5.4,76.6,0,70,0z M70,22c-5.5,0-10-4.5-10-10c0-5.5,4.5-10,10-10s10,4.5,10,10C80,17.5,75.5,22,70,22z M76.1,11.1L72,7
				c-0.4-0.4-1-0.4-1.4,0c-0.4,0.4-0.4,1,0,1.4l3.6,3.6l-3.5,3.5c-0.4,0.4-0.4,1,0,1.4c0.4,0.4,1,0.4,1.4,0l4-4
				c0.1,0,0.2-0.1,0.2-0.2c0.2-0.2,0.3-0.5,0.3-0.7c0-0.3-0.1-0.5-0.3-0.7C76.2,11.2,76.2,11.1,76.1,11.1z"/>
		</g>
	</g>
</g>
<g id="Arrow_Right">
</g>
<g id="Arrow_Left">
</g>
<g id="Arrow_Down">
</g>
<g id="Arrow_Up">
</g>
<g id="Cancel">
</g>
<g id="OK">
</g>
<g id="Remove">
</g>
<g id="Add_1_">
</g>
<g id="Add">
</g>
<g id="Burger">
</g>
<g id="Guides" display="none" opacity="0.2">
	<rect display="inline" fill-rule="evenodd" clip-rule="evenodd" fill="#0089D9" width="24" height="24"/>
	<rect x="29" display="inline" fill-rule="evenodd" clip-rule="evenodd" fill="#0089D9" width="24" height="24"/>
	<rect x="58" display="inline" fill-rule="evenodd" clip-rule="evenodd" fill="#0089D9" width="24" height="24"/>
</g>
</svg>
