<?xml version="1.0" encoding="utf-8"?>
<!-- Generator: Adobe Illustrator 19.1.0, SVG Export Plug-In . SVG Version: 6.00 Build 0)  -->
<!DOCTYPE svg PUBLIC "-//W3C//DTD SVG 1.1//EN" "http://www.w3.org/Graphics/SVG/1.1/DTD/svg11.dtd">
<svg version="1.1" xmlns="http://www.w3.org/2000/svg" xmlns:xlink="http://www.w3.org/1999/xlink" x="0px" y="0px" width="82px"
	 height="24px" viewBox="0 0 82 24" enable-background="new 0 0 82 24" xml:space="preserve">
<g id="Move_Down">
</g>
<g id="Move_Up">
</g>
<g id="Move_Right">
</g>
<g id="Move_Left">
</g>
<g id="Last">
</g>
<g id="First">
</g>
<g id="Play">
</g>
<g id="Pause">
</g>
<g id="Rewind">
</g>
<g id="Forward">
	<g>
		<g>
			<path fill-rule="evenodd" clip-rule="evenodd" fill="#0089D9" d="M10.7,11.3c-0.1-0.1-0.1-0.1-0.2-0.2L7.4,8C7,7.6,6.4,7.6,6,8
				C5.6,8.4,5.6,9,6,9.4L8.5,12L6,14.5c-0.4,0.4-0.4,1,0,1.4c0.4,0.4,1,0.4,1.4,0l3-3c0.1,0,0.2-0.1,0.2-0.2
				c0.2-0.2,0.3-0.5,0.3-0.7C11,11.7,10.9,11.5,10.7,11.3z M15.5,11.1L12.4,8c-0.4-0.4-1-0.4-1.4,0c-0.4,0.4-0.4,1,0,1.4l2.6,2.6
				L11,14.5c-0.4,0.4-0.4,1,0,1.4c0.4,0.4,1,0.4,1.4,0l3-3c0.1,0,0.2-0.1,0.2-0.2c0.2-0.2,0.3-0.5,0.3-0.7c0-0.3-0.1-0.5-0.3-0.7
				C15.6,11.2,15.5,11.1,15.5,11.1z M12,0C5.4,0,0,5.4,0,12c0,6.6,5.4,12,12,12c6.6,0,12-5.4,12-12C24,5.4,18.6,0,12,0z M12,22
				C6.5,22,2,17.5,2,12C2,6.5,6.5,2,12,2c5.5,0,10,4.5,10,10C22,17.5,17.5,22,12,22z M18,8c-0.6,0-1,0.4-1,1v6c0,0.6,0.4,1,1,1
				c0.6,0,1-0.4,1-1V9C19,8.5,18.6,8,18,8z"/>
		</g>
	</g>
	<g>
		<g>
			<path fill-rule="evenodd" clip-rule="evenodd" fill="#C8C8C8" d="M44.5,11.1L41.4,8c-0.4-0.4-1-0.4-1.4,0c-0.4,0.4-0.4,1,0,1.4
				l2.6,2.6L40,14.5c-0.4,0.4-0.4,1,0,1.4c0.4,0.4,1,0.4,1.4,0l3-3c0.1,0,0.2-0.1,0.2-0.2c0.2-0.2,0.3-0.5,0.3-0.7
				c0-0.3-0.1-0.5-0.3-0.7C44.6,11.2,44.5,11.1,44.5,11.1z M39.7,11.3c-0.1-0.1-0.1-0.1-0.2-0.2L36.4,8c-0.4-0.4-1-0.4-1.4,0
				c-0.4,0.4-0.4,1,0,1.4l2.6,2.6L35,14.5c-0.4,0.4-0.4,1,0,1.4c0.4,0.4,1,0.4,1.4,0l3-3c0.1,0,0.2-0.1,0.2-0.2
				c0.2-0.2,0.3-0.5,0.3-0.7C40,11.7,39.9,11.5,39.7,11.3z M41,0c-6.6,0-12,5.4-12,12c0,6.6,5.4,12,12,12c6.6,0,12-5.4,12-12
				C53,5.4,47.6,0,41,0z M41,22c-5.5,0-10-4.5-10-10c0-5.5,4.5-10,10-10c5.5,0,10,4.5,10,10C51,17.5,46.5,22,41,22z M47,8
				c-0.6,0-1,0.4-1,1v6c0,0.6,0.4,1,1,1s1-0.4,1-1V9C48,8.5,47.6,8,47,8z"/>
		</g>
	</g>
	<g>
		<g>
			<path fill-rule="evenodd" clip-rule="evenodd" fill="#39A6E6" d="M73.5,11.1L70.4,8c-0.4-0.4-1-0.4-1.4,0c-0.4,0.4-0.4,1,0,1.4
				l2.6,2.6L69,14.5c-0.4,0.4-0.4,1,0,1.4c0.4,0.4,1,0.4,1.4,0l3-3c0.1,0,0.2-0.1,0.2-0.2c0.2-0.2,0.3-0.5,0.3-0.7
				c0-0.3-0.1-0.5-0.3-0.7C73.6,11.2,73.5,11.1,73.5,11.1z M68.7,11.3c-0.1-0.1-0.1-0.1-0.2-0.2L65.4,8c-0.4-0.4-1-0.4-1.4,0
				c-0.4,0.4-0.4,1,0,1.4l2.6,2.6L64,14.5c-0.4,0.4-0.4,1,0,1.4c0.4,0.4,1,0.4,1.4,0l3-3c0.1,0,0.2-0.1,0.2-0.2
				c0.2-0.2,0.3-0.5,0.3-0.7C69,11.7,68.9,11.5,68.7,11.3z M76,8c-0.6,0-1,0.4-1,1v6c0,0.6,0.4,1,1,1c0.6,0,1-0.4,1-1V9
				C77,8.5,76.6,8,76,8z M70,0c-6.6,0-12,5.4-12,12c0,6.6,5.4,12,12,12c6.6,0,12-5.4,12-12C82,5.4,76.6,0,70,0z M70,22
				c-5.5,0-10-4.5-10-10c0-5.5,4.5-10,10-10c5.5,0,10,4.5,10,10C80,17.5,75.5,22,70,22z"/>
		</g>
	</g>
</g>
<g id="More">
</g>
<g id="Collapse">
</g>
<g id="Expand">
</g>
<g id="Arrow_Right">
</g>
<g id="Arrow_Left">
</g>
<g id="Arrow_Down">
</g>
<g id="Arrow_Up">
</g>
<g id="Cancel">
</g>
<g id="OK">
</g>
<g id="Remove">
</g>
<g id="Add_1_">
</g>
<g id="Add">
</g>
<g id="Burger">
</g>
<g id="Guides" display="none" opacity="0.2">
	<rect display="inline" fill-rule="evenodd" clip-rule="evenodd" fill="#0089D9" width="24" height="24"/>
	<rect x="29" display="inline" fill-rule="evenodd" clip-rule="evenodd" fill="#0089D9" width="24" height="24"/>
	<rect x="58" display="inline" fill-rule="evenodd" clip-rule="evenodd" fill="#0089D9" width="24" height="24"/>
</g>
</svg>
