<?xml version="1.0" encoding="utf-8"?>
<!-- Generator: Adobe Illustrator 19.1.0, SVG Export Plug-In . SVG Version: 6.00 Build 0)  -->
<!DOCTYPE svg PUBLIC "-//W3C//DTD SVG 1.1//EN" "http://www.w3.org/Graphics/SVG/1.1/DTD/svg11.dtd">
<svg version="1.1" xmlns="http://www.w3.org/2000/svg" xmlns:xlink="http://www.w3.org/1999/xlink" x="0px" y="0px" width="82px"
	 height="24px" viewBox="0 0 82 24" enable-background="new 0 0 82 24" xml:space="preserve">
<g id="Move_Down">
</g>
<g id="Move_Up">
</g>
<g id="Move_Right">
</g>
<g id="Move_Left">
</g>
<g id="Last">
</g>
<g id="First">
</g>
<g id="Play">
</g>
<g id="Pause">
</g>
<g id="Rewind">
</g>
<g id="Forward">
</g>
<g id="More">
</g>
<g id="Collapse">
</g>
<g id="Expand">
</g>
<g id="Arrow_Right">
</g>
<g id="Arrow_Left">
</g>
<g id="Arrow_Down">
</g>
<g id="Arrow_Up">
</g>
<g id="Cancel">
</g>
<g id="OK">
	<g>
		<g>
			<path fill-rule="evenodd" clip-rule="evenodd" fill="#68A611" d="M12,0C5.4,0,0,5.4,0,12c0,6.6,5.4,12,12,12c6.6,0,12-5.4,12-12
				C24,5.4,18.6,0,12,0z M12,22C6.5,22,2,17.5,2,12C2,6.5,6.5,2,12,2c5.5,0,10,4.5,10,10C22,17.5,17.5,22,12,22z M15.8,8.3l-5.2,5.2
				l-2.1-2.1c-0.4-0.4-1-0.4-1.4,0c-0.4,0.4-0.4,1,0,1.4l2.6,2.6c0,0.1,0.1,0.2,0.1,0.2c0.3,0.3,0.8,0.4,1.1,0.2
				c0.1,0,0.2-0.1,0.3-0.2c0,0,0,0,0,0l5.9-5.9c0.4-0.4,0.4-1,0-1.4C16.8,7.9,16.2,7.9,15.8,8.3z"/>
		</g>
	</g>
	<g>
		<g>
			<path fill-rule="evenodd" clip-rule="evenodd" fill="#C8C8C8" d="M41,0c-6.6,0-12,5.4-12,12c0,6.6,5.4,12,12,12
				c6.6,0,12-5.4,12-12C53,5.4,47.6,0,41,0z M41,22c-5.5,0-10-4.5-10-10c0-5.5,4.5-10,10-10c5.5,0,10,4.5,10,10
				C51,17.5,46.5,22,41,22z M44.8,8.3l-5.2,5.2l-2.1-2.1c-0.4-0.4-1-0.4-1.4,0c-0.4,0.4-0.4,1,0,1.4l2.6,2.6c0,0.1,0.1,0.2,0.1,0.2
				c0.3,0.3,0.8,0.4,1.1,0.2c0.1,0,0.2-0.1,0.3-0.2c0,0,0,0,0,0l5.9-5.9c0.4-0.4,0.4-1,0-1.4C45.8,7.9,45.2,7.9,44.8,8.3z"/>
		</g>
	</g>
	<g>
		<g>
			<path fill-rule="evenodd" clip-rule="evenodd" fill="#8EC928" d="M73.8,8.3l-5.2,5.2l-2.1-2.1c-0.4-0.4-1-0.4-1.4,0
				c-0.4,0.4-0.4,1,0,1.4l2.6,2.6c0,0.1,0.1,0.2,0.1,0.2c0.3,0.3,0.8,0.4,1.1,0.2c0.1,0,0.2-0.1,0.3-0.2c0,0,0,0,0,0l5.9-5.9
				c0.4-0.4,0.4-1,0-1.4C74.8,7.9,74.2,7.9,73.8,8.3z M70,0c-6.6,0-12,5.4-12,12c0,6.6,5.4,12,12,12c6.6,0,12-5.4,12-12
				C82,5.4,76.6,0,70,0z M70,22c-5.5,0-10-4.5-10-10c0-5.5,4.5-10,10-10c5.5,0,10,4.5,10,10C80,17.5,75.5,22,70,22z"/>
		</g>
	</g>
</g>
<g id="Remove">
</g>
<g id="Add_1_">
</g>
<g id="Add">
</g>
<g id="Burger">
</g>
<g id="Guides" display="none" opacity="0.2">
	<rect display="inline" fill-rule="evenodd" clip-rule="evenodd" fill="#0089D9" width="24" height="24"/>
	<rect x="29" display="inline" fill-rule="evenodd" clip-rule="evenodd" fill="#0089D9" width="24" height="24"/>
	<rect x="58" display="inline" fill-rule="evenodd" clip-rule="evenodd" fill="#0089D9" width="24" height="24"/>
</g>
</svg>
