<?xml version="1.0" encoding="utf-8"?>
<!-- Generator: Adobe Illustrator 19.1.0, SVG Export Plug-In . SVG Version: 6.00 Build 0)  -->
<!DOCTYPE svg PUBLIC "-//W3C//DTD SVG 1.1//EN" "http://www.w3.org/Graphics/SVG/1.1/DTD/svg11.dtd">
<svg version="1.1" xmlns="http://www.w3.org/2000/svg" xmlns:xlink="http://www.w3.org/1999/xlink" x="0px" y="0px" width="82px"
	 height="24px" viewBox="0 0 82 24" enable-background="new 0 0 82 24" xml:space="preserve">
<g id="Move_Down">
</g>
<g id="Move_Up">
</g>
<g id="Move_Right">
</g>
<g id="Move_Left">
</g>
<g id="Last">
</g>
<g id="First">
</g>
<g id="Play">
</g>
<g id="Pause">
</g>
<g id="Rewind">
	<g>
		<g>
			<path fill-rule="evenodd" clip-rule="evenodd" fill="#39A6E6" d="M64,8c-0.6,0-1,0.4-1,1v6c0,0.6,0.4,1,1,1c0.6,0,1-0.4,1-1V9
				C65,8.5,64.6,8,64,8z M68.5,12L71,9.4c0.4-0.4,0.4-1,0-1.4c-0.4-0.4-1-0.4-1.4,0l-3.1,3.1c-0.1,0-0.2,0.1-0.2,0.2
				C66.1,11.5,66,11.7,66,12c0,0.3,0.1,0.5,0.3,0.7c0.1,0.1,0.2,0.1,0.2,0.2l3,3c0.4,0.4,1,0.4,1.4,0c0.4-0.4,0.4-1,0-1.4L68.5,12z
				 M76,8c-0.4-0.4-1-0.4-1.4,0l-3.1,3.1c-0.1,0-0.2,0.1-0.2,0.2C71.1,11.5,71,11.7,71,12c0,0.3,0.1,0.5,0.3,0.7
				c0.1,0.1,0.2,0.1,0.2,0.2l3,3c0.4,0.4,1,0.4,1.4,0c0.4-0.4,0.4-1,0-1.4L73.5,12L76,9.4C76.4,9,76.4,8.4,76,8z M70,0
				c-6.6,0-12,5.4-12,12c0,6.6,5.4,12,12,12c6.6,0,12-5.4,12-12C82,5.4,76.6,0,70,0z M70,22c-5.5,0-10-4.5-10-10c0-5.5,4.5-10,10-10
				c5.5,0,10,4.5,10,10C80,17.5,75.5,22,70,22z"/>
		</g>
	</g>
	<g>
		<g>
			<path fill-rule="evenodd" clip-rule="evenodd" fill="#C8C8C8" d="M35,8c-0.6,0-1,0.4-1,1v6c0,0.6,0.4,1,1,1c0.6,0,1-0.4,1-1V9
				C36,8.5,35.6,8,35,8z M39.5,12L42,9.4c0.4-0.4,0.4-1,0-1.4c-0.4-0.4-1-0.4-1.4,0l-3.1,3.1c-0.1,0-0.2,0.1-0.2,0.2
				C37.1,11.5,37,11.7,37,12c0,0.3,0.1,0.5,0.3,0.7c0.1,0.1,0.2,0.1,0.2,0.2l3,3c0.4,0.4,1,0.4,1.4,0c0.4-0.4,0.4-1,0-1.4L39.5,12z
				 M47,8c-0.4-0.4-1-0.4-1.4,0l-3.1,3.1c-0.1,0-0.2,0.1-0.2,0.2C42.1,11.5,42,11.7,42,12c0,0.3,0.1,0.5,0.3,0.7
				c0.1,0.1,0.2,0.1,0.2,0.2l3,3c0.4,0.4,1,0.4,1.4,0c0.4-0.4,0.4-1,0-1.4L44.5,12L47,9.4C47.4,9,47.4,8.4,47,8z M41,0
				c-6.6,0-12,5.4-12,12c0,6.6,5.4,12,12,12c6.6,0,12-5.4,12-12C53,5.4,47.6,0,41,0z M41,22c-5.5,0-10-4.5-10-10c0-5.5,4.5-10,10-10
				c5.5,0,10,4.5,10,10C51,17.5,46.5,22,41,22z"/>
		</g>
	</g>
	<g>
		<g>
			<path fill-rule="evenodd" clip-rule="evenodd" fill="#0089D9" d="M13,12c0,0.3,0.1,0.5,0.3,0.7c0.1,0.1,0.2,0.1,0.2,0.2l3,3
				c0.4,0.4,1,0.4,1.4,0c0.4-0.4,0.4-1,0-1.4L15.5,12L18,9.4c0.4-0.4,0.4-1,0-1.4c-0.4-0.4-1-0.4-1.4,0l-3.1,3.1
				c-0.1,0-0.2,0.1-0.2,0.2C13.1,11.5,13,11.7,13,12z M8.3,11.3C8.1,11.5,8,11.7,8,12c0,0.3,0.1,0.5,0.3,0.7
				c0.1,0.1,0.2,0.1,0.2,0.2l3,3c0.4,0.4,1,0.4,1.4,0c0.4-0.4,0.4-1,0-1.4L10.5,12L13,9.4c0.4-0.4,0.4-1,0-1.4c-0.4-0.4-1-0.4-1.4,0
				l-3.1,3.1C8.5,11.1,8.4,11.2,8.3,11.3z M0,12c0,6.6,5.4,12,12,12c6.6,0,12-5.4,12-12c0-6.6-5.4-12-12-12C5.4,0,0,5.4,0,12z M2,12
				C2,6.5,6.5,2,12,2c5.5,0,10,4.5,10,10c0,5.5-4.5,10-10,10C6.5,22,2,17.5,2,12z M5,9v6c0,0.6,0.4,1,1,1c0.6,0,1-0.4,1-1V9
				c0-0.6-0.4-1-1-1C5.4,8,5,8.5,5,9z"/>
		</g>
	</g>
</g>
<g id="Forward">
</g>
<g id="More">
</g>
<g id="Collapse">
</g>
<g id="Expand">
</g>
<g id="Arrow_Right">
</g>
<g id="Arrow_Left">
</g>
<g id="Arrow_Down">
</g>
<g id="Arrow_Up">
</g>
<g id="Cancel">
</g>
<g id="OK">
</g>
<g id="Remove">
</g>
<g id="Add_1_">
</g>
<g id="Add">
</g>
<g id="Burger">
</g>
<g id="Guides" display="none" opacity="0.2">
	<rect display="inline" fill-rule="evenodd" clip-rule="evenodd" fill="#0089D9" width="24" height="24"/>
	<rect x="29" display="inline" fill-rule="evenodd" clip-rule="evenodd" fill="#0089D9" width="24" height="24"/>
	<rect x="58" display="inline" fill-rule="evenodd" clip-rule="evenodd" fill="#0089D9" width="24" height="24"/>
</g>
</svg>
