<?xml version="1.0" encoding="utf-8"?>
<!-- Generator: Adobe Illustrator 19.1.0, SVG Export Plug-In . SVG Version: 6.00 Build 0)  -->
<!DOCTYPE svg PUBLIC "-//W3C//DTD SVG 1.1//EN" "http://www.w3.org/Graphics/SVG/1.1/DTD/svg11.dtd">
<svg version="1.1" xmlns="http://www.w3.org/2000/svg" xmlns:xlink="http://www.w3.org/1999/xlink" x="0px" y="0px" width="82px"
	 height="24px" viewBox="0 0 82 24" enable-background="new 0 0 82 24" xml:space="preserve">
<g id="Move_Down">
</g>
<g id="Move_Up">
</g>
<g id="Move_Right">
	<g>
		<g>
			<path fill-rule="evenodd" clip-rule="evenodd" fill="#39A6E6" d="M75.7,11.2c-0.1-0.1-0.2-0.1-0.2-0.2l-4-4c-0.4-0.4-1-0.4-1.4,0
				c-0.4,0.4-0.4,1,0,1.4l2.5,2.5H65c-0.6,0-1,0.4-1,1c0,0.6,0.4,1,1,1h7.5l-2.5,2.6c-0.4,0.4-0.4,1,0,1.4c0.4,0.4,1,0.4,1.4,0l4-4
				c0.1,0,0.3-0.1,0.4-0.2c0.3-0.3,0.4-0.7,0.2-1.1C75.8,11.5,75.8,11.3,75.7,11.2z M70,0c-6.6,0-12,5.4-12,12c0,6.6,5.4,12,12,12
				c6.6,0,12-5.4,12-12C82,5.4,76.6,0,70,0z M70,22c-5.5,0-10-4.5-10-10c0-5.5,4.5-10,10-10c5.5,0,10,4.5,10,10
				C80,17.5,75.5,22,70,22z"/>
		</g>
	</g>
	<g>
		<g>
			<path fill-rule="evenodd" clip-rule="evenodd" fill="#C8C8C8" d="M46.7,11.2c-0.1-0.1-0.2-0.1-0.2-0.2l-4-4c-0.4-0.4-1-0.4-1.4,0
				c-0.4,0.4-0.4,1,0,1.4l2.5,2.5H36c-0.6,0-1,0.4-1,1c0,0.6,0.4,1,1,1h7.5l-2.5,2.6c-0.4,0.4-0.4,1,0,1.4c0.4,0.4,1,0.4,1.4,0l4-4
				c0.1,0,0.3-0.1,0.4-0.2c0.3-0.3,0.4-0.7,0.2-1.1C46.8,11.5,46.8,11.3,46.7,11.2z M41,0c-6.6,0-12,5.4-12,12c0,6.6,5.4,12,12,12
				s12-5.4,12-12C53,5.4,47.6,0,41,0z M41,22c-5.5,0-10-4.5-10-10c0-5.5,4.5-10,10-10c5.5,0,10,4.5,10,10C51,17.5,46.5,22,41,22z"/>
		</g>
	</g>
	<g>
		<g>
			<path fill-rule="evenodd" clip-rule="evenodd" fill="#0089D9" d="M0,12c0,6.6,5.4,12,12,12s12-5.4,12-12c0-6.6-5.4-12-12-12
				C5.4,0,0,5.4,0,12z M2,12C2,6.5,6.5,2,12,2c5.5,0,10,4.5,10,10c0,5.5-4.5,10-10,10C6.5,22,2,17.5,2,12z M6,12c0,0.6,0.4,1,1,1
				h7.5l-2.5,2.6c-0.4,0.4-0.4,1,0,1.4c0.4,0.4,1,0.4,1.4,0l4-4c0.1,0,0.3-0.1,0.4-0.2c0.3-0.3,0.4-0.7,0.2-1.1
				c0-0.2-0.1-0.3-0.2-0.4c-0.1-0.1-0.2-0.1-0.2-0.2l-4-4c-0.4-0.4-1-0.4-1.4,0c-0.4,0.4-0.4,1,0,1.4l2.5,2.5H7C6.4,11,6,11.4,6,12z
				"/>
		</g>
	</g>
</g>
<g id="Move_Left">
</g>
<g id="Last">
</g>
<g id="First">
</g>
<g id="Play">
</g>
<g id="Pause">
</g>
<g id="Rewind">
</g>
<g id="Forward">
</g>
<g id="More">
</g>
<g id="Collapse">
</g>
<g id="Expand">
</g>
<g id="Arrow_Right">
</g>
<g id="Arrow_Left">
</g>
<g id="Arrow_Down">
</g>
<g id="Arrow_Up">
</g>
<g id="Cancel">
</g>
<g id="OK">
</g>
<g id="Remove">
</g>
<g id="Add_1_">
</g>
<g id="Add">
</g>
<g id="Burger">
</g>
<g id="Guides" display="none" opacity="0.2">
	<rect display="inline" fill-rule="evenodd" clip-rule="evenodd" fill="#0089D9" width="24" height="24"/>
	<rect x="29" display="inline" fill-rule="evenodd" clip-rule="evenodd" fill="#0089D9" width="24" height="24"/>
	<rect x="58" display="inline" fill-rule="evenodd" clip-rule="evenodd" fill="#0089D9" width="24" height="24"/>
</g>
</svg>
