<?xml version="1.0" encoding="utf-8"?>
<!-- Generator: Adobe Illustrator 19.1.0, SVG Export Plug-In . SVG Version: 6.00 Build 0)  -->
<!DOCTYPE svg PUBLIC "-//W3C//DTD SVG 1.1//EN" "http://www.w3.org/Graphics/SVG/1.1/DTD/svg11.dtd">
<svg version="1.1" xmlns="http://www.w3.org/2000/svg" xmlns:xlink="http://www.w3.org/1999/xlink" x="0px" y="0px" width="292px"
	 height="175px" viewBox="0 0 292 175" enable-background="new 0 0 292 175" xml:space="preserve">
<g id="Left_Arrows_Ends_-_Pressed__x28_Green_x29_">
	<linearGradient id="Body_38_" gradientUnits="userSpaceOnUse" x1="145" y1="173.9996" x2="145" y2="144">
		<stop  offset="0.1" style="stop-color:#497D00"/>
		<stop  offset="0.9" style="stop-color:#406E00"/>
	</linearGradient>
	<path id="Body_35_" fill-rule="evenodd" clip-rule="evenodd" fill="url(#Body_38_)" d="M286,144H0v30h286c2,0,4-2,4-4v-22
		C290,146,288,144,286,144z"/>
	<path id="Stroke_47_" fill-rule="evenodd" clip-rule="evenodd" fill-opacity="0.1" d="M286,144H0v1h285c2.5,0,4,1.5,4,4v20
		c0,2.6-1.5,4-4,4L0,173v1h286c2,0,4-2,4-4v-22C290,146,288,144,286,144z"/>
	<path fill-rule="evenodd" clip-rule="evenodd" fill-opacity="0.15" d="M0,145c0,0,288.2,0,288.5,0c-0.4-0.4-1.5-1-2.4-1
		C285.8,144,0,144,0,144L0,145z"/>
	<path fill-rule="evenodd" clip-rule="evenodd" fill-opacity="0.1" d="M0,146c0,0,289.1,0,289.3,0c-0.2-0.3-0.6-0.8-0.9-1
		C288.3,145,0,145,0,145L0,146z"/>
	<path fill-rule="evenodd" clip-rule="evenodd" fill-opacity="5.000000e-002" d="M0,147c0,0,289.2,0,289.8,0c-0.1-0.3-0.3-0.8-0.5-1
		C289,146,0,146,0,146L0,147z"/>
</g>
<g id="Left_Arrows_Ends_-_Focused__x28_Green_x29_">
	<linearGradient id="Shadow_6_" gradientUnits="userSpaceOnUse" x1="145" y1="140.9996" x2="145" y2="109">
		<stop  offset="0.25" style="stop-color:#F0F0F0"/>
		<stop  offset="0.9" style="stop-color:#FFFFFF"/>
	</linearGradient>
	<path id="Shadow_45_" fill-rule="evenodd" clip-rule="evenodd" fill="url(#Shadow_6_)" d="M286,109H0v32h286c2,0,4-2,4-4v-24
		C290,111,288,109,286,109z"/>
	<linearGradient id="Body_39_" gradientUnits="userSpaceOnUse" x1="145" y1="139.9996" x2="145" y2="108">
		<stop  offset="0" style="stop-color:#477A00"/>
		<stop  offset="0.45" style="stop-color:#487C00"/>
		<stop  offset="1" style="stop-color:#569400"/>
	</linearGradient>
	<path id="Body_43_" fill-rule="evenodd" clip-rule="evenodd" fill="url(#Body_39_)" d="M286,108H0v32h286c2,0,4-2,4-4v-24
		C290,110,288,108,286,108z"/>
	<path id="Outer_Glow_3_" fill-rule="evenodd" clip-rule="evenodd" fill-opacity="0.1" d="M287,107H0v4h283c2.5,0,4,1.5,4,4v18
		c0,2.6-1.5,4-4,4L0,137v4h287c2,0,4-2,4-4v-26C291,109,289,107,287,107z"/>
	<path id="Stroke_55_" fill-rule="evenodd" clip-rule="evenodd" fill="#FFFFFF" d="M286,108H0v2h284c2.5,0,4,1.5,4,4v20
		c0,2.6-1.5,4-4,4L0,138v2h286c2,0,4-2,4-4v-24C290,110,288,108,286,108z"/>
</g>
<g id="Left_Arrows_Ends_-_Hover__x28_Green_x29_">
	<path id="Shadow_36_" fill-rule="evenodd" clip-rule="evenodd" fill-opacity="8.000000e-002" d="M286,73H0v30h286c2,0,4-2,4-4V77
		C290,75,288,73,286,73z"/>
	<linearGradient id="Body_40_" gradientUnits="userSpaceOnUse" x1="145" y1="101.9996" x2="145" y2="72">
		<stop  offset="0" style="stop-color:#4F8700"/>
		<stop  offset="0.45" style="stop-color:#508A00"/>
		<stop  offset="1" style="stop-color:#5EA100"/>
	</linearGradient>
	<path id="Body_37_" fill-rule="evenodd" clip-rule="evenodd" fill="url(#Body_40_)" d="M286,72H0v30h286c2,0,4-2,4-4V76
		C290,74,288,72,286,72z"/>
	<path id="Stroke_49_" fill-rule="evenodd" clip-rule="evenodd" fill-opacity="0.1" d="M286,72H0v1h285c2.5,0,4,1.5,4,4v20
		c0,2.6-1.5,4-4,4L0,101v1h286c2,0,4-2,4-4V76C290,74,288,72,286,72z"/>
	<path id="Inner_21_" fill-rule="evenodd" clip-rule="evenodd" fill="#1A4C00" fill-opacity="0.5" d="M289.5,76l0.5,22c0,2-2,4-4,4
		H0v-1h285c2.5,0,4-1.4,4-4L289.5,76z"/>
</g>
<g id="Left_Arrows_Ends_-_Disabled__x28_Green_x29_">
	<path id="Body_31_" fill-rule="evenodd" clip-rule="evenodd" fill="#95B26B" d="M286,36H0v30h286c2,0,4-2,4-4V40
		C290,38,288,36,286,36z"/>
	<path id="Stroke_43_" fill-rule="evenodd" clip-rule="evenodd" fill-opacity="0.1" d="M286,36H0v1h285c2.5,0,4,1.5,4,4v20
		c0,2.6-1.5,4-4,4L0,65v1h286c2,0,4-2,4-4V40C290,38,288,36,286,36z"/>
</g>
<g id="Left_Arrows_Ends_-_Normal__x28_Green_x29_">
	<linearGradient id="Shadow_39_" gradientUnits="userSpaceOnUse" x1="145" y1="30.9996" x2="145" y2="1">
		<stop  offset="0.25" style="stop-color:#F0F0F0"/>
		<stop  offset="0.9" style="stop-color:#FFFFFF"/>
	</linearGradient>
	<path id="Shadow_33_" fill-rule="evenodd" clip-rule="evenodd" fill="url(#Shadow_39_)" d="M286,1H0v30h286c2,0,4-2,4-4V5
		C290,3,288,1,286,1z"/>
	<linearGradient id="Body_41_" gradientUnits="userSpaceOnUse" x1="145" y1="29.9996" x2="145" y2="7.210474e-009">
		<stop  offset="0" style="stop-color:#477A00"/>
		<stop  offset="0.45" style="stop-color:#487C00"/>
		<stop  offset="1" style="stop-color:#569400"/>
	</linearGradient>
	<path id="Body_33_" fill-rule="evenodd" clip-rule="evenodd" fill="url(#Body_41_)" d="M286,0H0v30h286c2,0,4-2,4-4V4
		C290,2,288,0,286,0z"/>
	<path id="Stroke_41_" fill-rule="evenodd" clip-rule="evenodd" fill-opacity="0.1" d="M286,0H0v1h285c2.5,0,4,1.5,4,4v20
		c0,2.6-1.5,4-4,4L0,29v1h286c2,0,4-2,4-4V4C290,2,288,0,286,0z"/>
	<path id="Inner_17_" fill-rule="evenodd" clip-rule="evenodd" fill="#1A4C00" fill-opacity="0.5" d="M289.5,4l0.5,22c0,2-2,4-4,4H0
		v-1h285c2.5,0,4-1.4,4-4L289.5,4z"/>
</g>
<g id="Left_Arrows_Tips_-_Pressed__x28_Green_x29_">
</g>
<g id="Left_Arrows_Tips_-_Focused__x28_Green_x29_">
</g>
<g id="Left_Arrows_Tips_-_Hover__x28_Green_x29_">
</g>
<g id="Left_Arrows_Tips_-_Disabled__x28_Green_x29_">
</g>
<g id="Left_Arrows_Tips_-_Normal__x28_Green_x29_">
</g>
<g id="Left_Arrows_Ends_-_Pressed__x28_Silver_x29_">
</g>
<g id="Left_Arrows_Ends_-_Focused__x28_Silver_x29_">
</g>
<g id="Left_Arrows_Ends_-_Hover__x28_Silver_x29_">
</g>
<g id="Left_Arrows_Ends_-_Disabled__x28_Silver_x29_">
</g>
<g id="Left_Arrows_Ends_-_Normal__x28_Silver_x29_">
</g>
<g id="Left_Arrows_Tips_-_Pressed__x28_Silver_x29_">
</g>
<g id="Left_Arrows_Tips_-_Focused__x28_Silver_x29_">
</g>
<g id="Left_Arrows_Tips_-_Hover__x28_Silver_x29_">
</g>
<g id="Left_Arrows_Tips_-_Disabled__x28_Silver_x29_">
</g>
<g id="Left_Arrows_Tips_-_Normal__x28_Silver_x29_">
</g>
<g id="Guides">
</g>
</svg>
