<?xml version="1.0" encoding="utf-8"?>
<!-- Generator: Adobe Illustrator 19.1.0, SVG Export Plug-In . SVG Version: 6.00 Build 0)  -->
<!DOCTYPE svg PUBLIC "-//W3C//DTD SVG 1.1//EN" "http://www.w3.org/Graphics/SVG/1.1/DTD/svg11.dtd">
<svg version="1.1" xmlns="http://www.w3.org/2000/svg" xmlns:xlink="http://www.w3.org/1999/xlink" x="0px" y="0px" width="14px"
	 height="175px" viewBox="0 0 14 175" enable-background="new 0 0 14 175" xml:space="preserve">
<g id="Left_Arrows_Ends_-_Pressed__x28_Green_x29_">
</g>
<g id="Left_Arrows_Ends_-_Focused__x28_Green_x29_">
</g>
<g id="Left_Arrows_Ends_-_Hover__x28_Green_x29_">
</g>
<g id="Left_Arrows_Ends_-_Disabled__x28_Green_x29_">
</g>
<g id="Left_Arrows_Ends_-_Normal__x28_Green_x29_">
</g>
<g id="Left_Arrows_Tips_-_Pressed__x28_Green_x29_">
	<linearGradient id="Body_38_" gradientUnits="userSpaceOnUse" x1="9.5766" y1="174" x2="9.5766" y2="144.0004">
		<stop  offset="0.1" style="stop-color:#497D00"/>
		<stop  offset="0.9" style="stop-color:#406E00"/>
	</linearGradient>
	<path id="Body_29_" fill-rule="evenodd" clip-rule="evenodd" fill="url(#Body_38_)" d="M18,144h-6.8l-10,15l10,15H18V144z"/>
	<path id="Stroke_35_" fill-rule="evenodd" clip-rule="evenodd" fill-opacity="0.1" d="M11.2,144l-10,15l10,15H18v-30H11.2z M17,173
		h-5l-9.5-14l9.5-14h5V173z"/>
	<polygon fill-rule="evenodd" clip-rule="evenodd" fill-opacity="0.15" points="18,145 10.5,145 11.2,144 18,144 	"/>
	<polygon fill-rule="evenodd" clip-rule="evenodd" fill-opacity="0.1" points="18,146 9.8,146 10.5,145 18,145 	"/>
	<polygon fill-rule="evenodd" clip-rule="evenodd" fill-opacity="5.000000e-002" points="18,147 9.2,147 9.8,146 18,146 	"/>
</g>
<g id="Left_Arrows_Tips_-_Focused__x28_Green_x29_">
	<path id="Shadow_26_" fill-rule="evenodd" clip-rule="evenodd" fill-opacity="8.000000e-002" d="M18,111h-6.8l-10,15l10,15H18V111z
		"/>
	<linearGradient id="Body_39_" gradientUnits="userSpaceOnUse" x1="9.5766" y1="139" x2="9.5766" y2="109.0004">
		<stop  offset="0" style="stop-color:#477A00"/>
		<stop  offset="0.45" style="stop-color:#487C00"/>
		<stop  offset="1" style="stop-color:#569400"/>
	</linearGradient>
	<path id="Body_23_" fill-rule="evenodd" clip-rule="evenodd" fill="url(#Body_39_)" d="M18,109h-6.8l-10,15l10,15H18V109z"/>
	<path id="Outer_Glow" fill-rule="evenodd" clip-rule="evenodd" fill-opacity="0.1" d="M10.5,107L0,123v2l10.5,16H18v-34H10.5z
		 M16,137h-3l-9-13l9-13h3V137z"/>
	<path id="Stroke_27_" fill-rule="evenodd" clip-rule="evenodd" fill="#FFFFFF" d="M11.2,108L0.6,124l10.6,16H18v-32H11.2z M17,138
		h-5l-9.5-14l9.5-14h5V138z"/>
</g>
<g id="Left_Arrows_Tips_-_Hover__x28_Green_x29_">
	<path id="Shadow_30_" fill-rule="evenodd" clip-rule="evenodd" fill-opacity="8.000000e-002" d="M18,73h-6.8l-10,15l10,15H18V73z"
		/>
	<linearGradient id="Body_40_" gradientUnits="userSpaceOnUse" x1="9.5766" y1="102" x2="9.5766" y2="72.0004">
		<stop  offset="0" style="stop-color:#4F8700"/>
		<stop  offset="0.45" style="stop-color:#508A00"/>
		<stop  offset="1" style="stop-color:#5EA100"/>
	</linearGradient>
	<path id="Body_27_" fill-rule="evenodd" clip-rule="evenodd" fill="url(#Body_40_)" d="M18,72h-6.8l-10,15l10,15H18V72z"/>
	<path id="Stroke_31_" fill-rule="evenodd" clip-rule="evenodd" fill-opacity="0.1" d="M11.2,72l-10,15l10,15H18V72H11.2z M17,101
		h-5L2.5,87L12,73h5V101z"/>
	<path id="Inner_13_" fill-rule="evenodd" clip-rule="evenodd" fill="#1A4C00" fill-opacity="0.5" d="M17,87v14h-5L2.5,87H1.2l10,15
		H18V87H17z"/>
</g>
<g id="Left_Arrows_Tips_-_Disabled__x28_Green_x29_">
	<path id="Body_2_" fill-rule="evenodd" clip-rule="evenodd" fill="#95B26B" d="M18,36h-6.8l-10,15l10,15H18V36z"/>
	<path id="Stroke_1_" fill-rule="evenodd" clip-rule="evenodd" fill-opacity="0.1" d="M11.2,36l-10,15l10,15H18V36H11.2z M17,65h-5
		L2.5,51L12,37h5V65z"/>
</g>
<g id="Left_Arrows_Tips_-_Normal__x28_Green_x29_">
	<path id="Shadow_22_" fill-rule="evenodd" clip-rule="evenodd" fill-opacity="8.000000e-002" d="M18,1h-6.8l-10,15l10,15H18V1z"/>
	<linearGradient id="Body_41_" gradientUnits="userSpaceOnUse" x1="9.5766" y1="30" x2="9.5766" y2="4.000064e-004">
		<stop  offset="0" style="stop-color:#477A00"/>
		<stop  offset="0.45" style="stop-color:#487C00"/>
		<stop  offset="1" style="stop-color:#569400"/>
	</linearGradient>
	<path id="Body_21_" fill-rule="evenodd" clip-rule="evenodd" fill="url(#Body_41_)" d="M18,0h-6.8l-10,15l10,15H18V0z"/>
	<path id="Stroke_21_" fill-rule="evenodd" clip-rule="evenodd" fill-opacity="0.1" d="M11.2,0l-10,15l10,15H18V0H11.2z M17,29h-5
		L2.5,15L12,1h5V29z"/>
	<path id="Inner_9_" fill-rule="evenodd" clip-rule="evenodd" fill="#1A4C00" fill-opacity="0.5" d="M17,15v14h-5L2.5,15H1.2l10,15
		H18V15H17z"/>
</g>
<g id="Left_Arrows_Ends_-_Pressed__x28_Silver_x29_">
</g>
<g id="Left_Arrows_Ends_-_Focused__x28_Silver_x29_">
</g>
<g id="Left_Arrows_Ends_-_Hover__x28_Silver_x29_">
</g>
<g id="Left_Arrows_Ends_-_Disabled__x28_Silver_x29_">
</g>
<g id="Left_Arrows_Ends_-_Normal__x28_Silver_x29_">
</g>
<g id="Left_Arrows_Tips_-_Pressed__x28_Silver_x29_">
</g>
<g id="Left_Arrows_Tips_-_Focused__x28_Silver_x29_">
</g>
<g id="Left_Arrows_Tips_-_Hover__x28_Silver_x29_">
</g>
<g id="Left_Arrows_Tips_-_Disabled__x28_Silver_x29_">
</g>
<g id="Left_Arrows_Tips_-_Normal__x28_Silver_x29_">
</g>
<g id="Guides">
</g>
</svg>
