<?xml version="1.0" encoding="utf-8"?>
<!-- Generator: Adobe Illustrator 19.1.0, SVG Export Plug-In . SVG Version: 6.00 Build 0)  -->
<!DOCTYPE svg PUBLIC "-//W3C//DTD SVG 1.1//EN" "http://www.w3.org/Graphics/SVG/1.1/DTD/svg11.dtd">
<svg version="1.1" xmlns="http://www.w3.org/2000/svg" xmlns:xlink="http://www.w3.org/1999/xlink" x="0px" y="0px" width="14px"
	 height="175px" viewBox="0 0 14 175" enable-background="new 0 0 14 175" xml:space="preserve">
<g id="Left_Arrows_Ends_-_Pressed__x28_Green_x29_">
</g>
<g id="Left_Arrows_Ends_-_Focused__x28_Green_x29_">
</g>
<g id="Left_Arrows_Ends_-_Hover__x28_Green_x29_">
</g>
<g id="Left_Arrows_Ends_-_Disabled__x28_Green_x29_">
</g>
<g id="Left_Arrows_Ends_-_Normal__x28_Green_x29_">
</g>
<g id="Left_Arrows_Tips_-_Pressed__x28_Green_x29_">
</g>
<g id="Left_Arrows_Tips_-_Focused__x28_Green_x29_">
</g>
<g id="Left_Arrows_Tips_-_Hover__x28_Green_x29_">
</g>
<g id="Left_Arrows_Tips_-_Disabled__x28_Green_x29_">
</g>
<g id="Left_Arrows_Tips_-_Normal__x28_Green_x29_">
</g>
<g id="Left_Arrows_Ends_-_Pressed__x28_Silver_x29_">
</g>
<g id="Left_Arrows_Ends_-_Focused__x28_Silver_x29_">
</g>
<g id="Left_Arrows_Ends_-_Hover__x28_Silver_x29_">
</g>
<g id="Left_Arrows_Ends_-_Disabled__x28_Silver_x29_">
</g>
<g id="Left_Arrows_Ends_-_Normal__x28_Silver_x29_">
</g>
<g id="Left_Arrows_Tips_-_Pressed__x28_Silver_x29_">
	<linearGradient id="Body_38_" gradientUnits="userSpaceOnUse" x1="9.5671" y1="174" x2="9.5671" y2="144.0004">
		<stop  offset="0" style="stop-color:#E5E5E5"/>
		<stop  offset="1" style="stop-color:#E0E0E0"/>
	</linearGradient>
	<path id="Body_5_" fill-rule="evenodd" clip-rule="evenodd" fill="url(#Body_38_)" d="M18,144h-6.8l-10,15l10,15H18V144z"/>
	<path id="Stroke_4_" fill-rule="evenodd" clip-rule="evenodd" fill="#C9C9C9" d="M11.1,144l-10,15l10,15H18v-30H11.1z M17,173h-5
		l-9.5-14l9.5-14h5V173z"/>
	<polygon fill-rule="evenodd" clip-rule="evenodd" fill-opacity="0.15" points="18,145 10.5,145 11.1,144 18,144 	"/>
	<polygon fill-rule="evenodd" clip-rule="evenodd" fill-opacity="0.1" points="18,146 9.8,146 10.5,145 18,145 	"/>
	<polygon fill-rule="evenodd" clip-rule="evenodd" fill-opacity="5.000000e-002" points="18,147 9.1,147 9.8,146 18,146 	"/>
</g>
<g id="Left_Arrows_Tips_-_Focused__x28_Silver_x29_">
	<path id="Shadow_2_" fill-rule="evenodd" clip-rule="evenodd" fill-opacity="8.000000e-002" d="M18,110h-6.8l-10,15l10,15H18V110z"
		/>
	<linearGradient id="Body_39_" gradientUnits="userSpaceOnUse" x1="9.5671" y1="137.9996" x2="9.5671" y2="108">
		<stop  offset="0.25" style="stop-color:#F0F0F0"/>
		<stop  offset="0.9" style="stop-color:#FFFFFF"/>
	</linearGradient>
	<path id="Body_6_" fill-rule="evenodd" clip-rule="evenodd" fill="url(#Body_39_)" d="M18,108h-6.8l-10,15l10,15H18V108z"/>
	<path id="Stroke_3_" fill-rule="evenodd" clip-rule="evenodd" fill="#0089D9" d="M11.1,107L0.6,123l10.6,16H18v-32H11.1z M17,137
		h-5l-9.5-14l9.5-14h5V137z"/>
</g>
<g id="Left_Arrows_Tips_-_Hover__x28_Silver_x29_">
	<path id="Shadow_1_" fill-rule="evenodd" clip-rule="evenodd" fill-opacity="8.000000e-002" d="M18,73h-6.8l-10,15l10,15H18V73z"/>
	<linearGradient id="Body_40_" gradientUnits="userSpaceOnUse" x1="9.5671" y1="102" x2="9.5671" y2="72.0004">
		<stop  offset="0.25" style="stop-color:#DAE7EF"/>
		<stop  offset="0.9" style="stop-color:#E8F6FF"/>
	</linearGradient>
	<path id="Body_3_" fill-rule="evenodd" clip-rule="evenodd" fill="url(#Body_40_)" d="M18,72h-6.8l-10,15l10,15H18V72z"/>
	<path id="Stroke_2_" fill-rule="evenodd" clip-rule="evenodd" fill="#BECAD1" d="M11.1,72l-10,15l10,15H18V72H11.1z M17,101h-5
		L2.5,87L12,73h5V101z"/>
	<path id="Inner_1_" fill-rule="evenodd" clip-rule="evenodd" fill="#969FA4" d="M17,87v14h-5L2.5,87H1.1l10,15H18V87H17z"/>
</g>
<g id="Left_Arrows_Tips_-_Disabled__x28_Silver_x29_">
	<path id="Body_25_" fill-rule="evenodd" clip-rule="evenodd" fill="#F5F5F5" d="M18,36h-6.8l-10,15l10,15H18V36z"/>
	<path id="Stroke_30_" fill-rule="evenodd" clip-rule="evenodd" fill="#D7D7D7" d="M11.1,36l-10,15l10,15H18V36H11.1z M17,65h-5
		L2.5,51L12,37h5V65z"/>
</g>
<g id="Left_Arrows_Tips_-_Normal__x28_Silver_x29_">
	<path id="Shadow" fill-rule="evenodd" clip-rule="evenodd" fill-opacity="8.000000e-002" d="M18,1h-6.8l-10,15l10,15H18V1z"/>
	<linearGradient id="Body_41_" gradientUnits="userSpaceOnUse" x1="9.5671" y1="29.9996" x2="9.5671" y2="-3.774403e-010">
		<stop  offset="0.25" style="stop-color:#F0F0F0"/>
		<stop  offset="0.9" style="stop-color:#FFFFFF"/>
	</linearGradient>
	<path id="Body_1_" fill-rule="evenodd" clip-rule="evenodd" fill="url(#Body_41_)" d="M18,0h-6.8l-10,15l10,15H18V0z"/>
	<path id="Stroke" fill-rule="evenodd" clip-rule="evenodd" fill="#D1D1D1" d="M11.1,0l-10,15l10,15H18V0H11.1z M17,29h-5L2.5,15
		L12,1h5V29z"/>
	<path id="Inner" fill-rule="evenodd" clip-rule="evenodd" fill="#A5A5A5" d="M17,15v14h-5L2.5,15l-1.4,0l10,15H18V15H17z"/>
</g>
<g id="Guides">
</g>
</svg>
