<?xml version="1.0" encoding="utf-8"?>
<!-- Generator: Adobe Illustrator 19.1.0, SVG Export Plug-In . SVG Version: 6.00 Build 0)  -->
<!DOCTYPE svg PUBLIC "-//W3C//DTD SVG 1.1//EN" "http://www.w3.org/Graphics/SVG/1.1/DTD/svg11.dtd">
<svg version="1.1" xmlns="http://www.w3.org/2000/svg" xmlns:xlink="http://www.w3.org/1999/xlink" x="0px" y="0px" width="292px"
	 height="175px" viewBox="0 0 292 175" enable-background="new 0 0 292 175" xml:space="preserve">
<g id="Left_Arrows_Ends_-_Pressed__x28_Green_x29_">
</g>
<g id="Left_Arrows_Ends_-_Focused__x28_Green_x29_">
</g>
<g id="Left_Arrows_Ends_-_Hover__x28_Green_x29_">
</g>
<g id="Left_Arrows_Ends_-_Disabled__x28_Green_x29_">
</g>
<g id="Left_Arrows_Ends_-_Normal__x28_Green_x29_">
</g>
<g id="Left_Arrows_Tips_-_Pressed__x28_Green_x29_">
</g>
<g id="Left_Arrows_Tips_-_Focused__x28_Green_x29_">
</g>
<g id="Left_Arrows_Tips_-_Hover__x28_Green_x29_">
</g>
<g id="Left_Arrows_Tips_-_Disabled__x28_Green_x29_">
</g>
<g id="Left_Arrows_Tips_-_Normal__x28_Green_x29_">
</g>
<g id="Left_Arrows_Ends_-_Pressed__x28_Silver_x29_">
	<linearGradient id="Body_38_" gradientUnits="userSpaceOnUse" x1="145" y1="173.9996" x2="145" y2="144">
		<stop  offset="0" style="stop-color:#E5E5E5"/>
		<stop  offset="1" style="stop-color:#E0E0E0"/>
	</linearGradient>
	<path id="Body_9_" fill-rule="evenodd" clip-rule="evenodd" fill="url(#Body_38_)" d="M286,144H0v30h286c2,0,4-2,4-4v-22
		C290,146,288,144,286,144z"/>
	<path id="Stroke_9_" fill-rule="evenodd" clip-rule="evenodd" fill="#C9C9C9" d="M286,144H0v1h285c2.5,0,4,1.5,4,4v20
		c0,2.6-1.5,4-4,4L0,173v1h286c2,0,4-2,4-4v-22C290,146,288,144,286,144z"/>
	<path fill-rule="evenodd" clip-rule="evenodd" fill-opacity="0.15" d="M0,145c0,0,288.2,0,288.5,0c-0.4-0.4-1.5-1-2.4-1
		C285.8,144,0,144,0,144L0,145z"/>
	<path fill-rule="evenodd" clip-rule="evenodd" fill-opacity="0.1" d="M0,146c0,0,289.1,0,289.3,0c-0.2-0.3-0.6-0.8-0.9-1
		C288.3,145,0,145,0,145L0,146z"/>
	<path fill-rule="evenodd" clip-rule="evenodd" fill-opacity="5.000000e-002" d="M0,147c0,0,289.2,0,289.8,0c-0.1-0.3-0.3-0.8-0.5-1
		C289,146,0,146,0,146L0,147z"/>
</g>
<g id="Left_Arrows_Ends_-_Focused__x28_Silver_x29_">
	<linearGradient id="Shadow_38_" gradientUnits="userSpaceOnUse" x1="145" y1="139.9996" x2="145" y2="108">
		<stop  offset="0.25" style="stop-color:#F0F0F0"/>
		<stop  offset="0.9" style="stop-color:#FFFFFF"/>
	</linearGradient>
	<path id="Shadow_5_" fill-rule="evenodd" clip-rule="evenodd" fill="url(#Shadow_38_)" d="M286,108H0v32h286c2,0,4-2,4-4v-24
		C290,110,288,108,286,108z"/>
	<linearGradient id="Body_39_" gradientUnits="userSpaceOnUse" x1="145" y1="138.9996" x2="145" y2="107">
		<stop  offset="0.25" style="stop-color:#F0F0F0"/>
		<stop  offset="0.9" style="stop-color:#FFFFFF"/>
	</linearGradient>
	<path id="Body_8_" fill-rule="evenodd" clip-rule="evenodd" fill="url(#Body_39_)" d="M286,107H0v32h286c2,0,4-2,4-4v-24
		C290,109,288,107,286,107z"/>
	<path id="Stroke_12_" fill-rule="evenodd" clip-rule="evenodd" fill="#0089D9" d="M286,107H0v2h284c2.5,0,4,1.5,4,4v20
		c0,2.6-1.5,4-4,4L0,137v2h286c2,0,4-2,4-4v-24C290,109,288,107,286,107z"/>
</g>
<g id="Left_Arrows_Ends_-_Hover__x28_Silver_x29_">
	<path id="Shadow_3_" fill-rule="evenodd" clip-rule="evenodd" fill-opacity="8.000000e-002" d="M286,73H0v30h286c2,0,4-2,4-4V77
		C290,75,288,73,286,73z"/>
	<linearGradient id="Body_40_" gradientUnits="userSpaceOnUse" x1="145" y1="101.9996" x2="145" y2="72">
		<stop  offset="0.25" style="stop-color:#DAE7EF"/>
		<stop  offset="0.9" style="stop-color:#E8F6FF"/>
	</linearGradient>
	<path id="Body_7_" fill-rule="evenodd" clip-rule="evenodd" fill="url(#Body_40_)" d="M286,72H0v30h286c2,0,4-2,4-4V76
		C290,74,288,72,286,72z"/>
	<path id="Stroke_7_" fill-rule="evenodd" clip-rule="evenodd" fill="#BECAD1" d="M286,72H0v1h285c2.5,0,4,1.5,4,4v20
		c0,2.6-1.5,4-4,4L0,101v1h286c2,0,4-2,4-4V76C290,74,288,72,286,72z"/>
	<path id="Inner_3_" fill-rule="evenodd" clip-rule="evenodd" fill="#969FA4" d="M289.5,76l0.5,22c0,2-2,4-4,4H0v-1h285
		c2.5,0,4-1.4,4-4L289.5,76z"/>
</g>
<g id="Left_Arrows_Ends_-_Disabled__x28_Silver_x29_">
	<path id="Body_4_" fill-rule="evenodd" clip-rule="evenodd" fill="#F5F5F5" d="M286,36H0v30h286c2,0,4-2,4-4V40
		C290,38,288,36,286,36z"/>
	<path id="Stroke_8_" fill-rule="evenodd" clip-rule="evenodd" fill="#D7D7D7" d="M286,36H0v1h285c2.5,0,4,1.5,4,4v20
		c0,2.6-1.5,4-4,4L0,65v1h286c2,0,4-2,4-4V40C290,38,288,36,286,36z"/>
</g>
<g id="Left_Arrows_Ends_-_Normal__x28_Silver_x29_">
	<linearGradient id="Shadow_39_" gradientUnits="userSpaceOnUse" x1="145" y1="30.9996" x2="145" y2="1">
		<stop  offset="0.25" style="stop-color:#F0F0F0"/>
		<stop  offset="0.9" style="stop-color:#FFFFFF"/>
	</linearGradient>
	<path id="Shadow_7_" fill-rule="evenodd" clip-rule="evenodd" fill="url(#Shadow_39_)" d="M286,1H0v30h286c2,0,4-2,4-4V5
		C290,3,288,1,286,1z"/>
	<linearGradient id="Body_41_" gradientUnits="userSpaceOnUse" x1="145" y1="29.9996" x2="145" y2="7.212293e-009">
		<stop  offset="0.25" style="stop-color:#F0F0F0"/>
		<stop  offset="0.9" style="stop-color:#FFFFFF"/>
	</linearGradient>
	<path id="Body" fill-rule="evenodd" clip-rule="evenodd" fill="url(#Body_41_)" d="M286,0H0v30h286c2,0,4-2,4-4V4
		C290,2,288,0,286,0z"/>
	<path id="Stroke_6_" fill-rule="evenodd" clip-rule="evenodd" fill="#D1D1D1" d="M286,0H0v1h285c2.5,0,4,1.5,4,4v20
		c0,2.6-1.5,4-4,4L0,29v1h286c2,0,4-2,4-4V4C290,2,288,0,286,0z"/>
	<path id="Inner_2_" fill-rule="evenodd" clip-rule="evenodd" fill="#A5A5A5" d="M289.5,4l0.5,22c0,2-2,4-4,4H0v-1h285
		c2.5,0,4-1.4,4-4L289.5,4z"/>
</g>
<g id="Left_Arrows_Tips_-_Pressed__x28_Silver_x29_">
</g>
<g id="Left_Arrows_Tips_-_Focused__x28_Silver_x29_">
</g>
<g id="Left_Arrows_Tips_-_Hover__x28_Silver_x29_">
</g>
<g id="Left_Arrows_Tips_-_Disabled__x28_Silver_x29_">
</g>
<g id="Left_Arrows_Tips_-_Normal__x28_Silver_x29_">
</g>
<g id="Guides">
</g>
</svg>
