<?xml version="1.0" encoding="utf-8"?>
<!-- Generator: Adobe Illustrator 19.1.0, SVG Export Plug-In . SVG Version: 6.00 Build 0)  -->
<!DOCTYPE svg PUBLIC "-//W3C//DTD SVG 1.1//EN" "http://www.w3.org/Graphics/SVG/1.1/DTD/svg11.dtd">
<svg version="1.1" xmlns="http://www.w3.org/2000/svg" xmlns:xlink="http://www.w3.org/1999/xlink" x="0px" y="0px" width="14px"
	 height="175px" viewBox="0 0 14 175" enable-background="new 0 0 14 175" xml:space="preserve">
<g id="Left_Arrows_Ends_-_Pressed__x28_Green_x29_">
</g>
<g id="Left_Arrows_Ends_-_Focused__x28_Green_x29_">
</g>
<g id="Left_Arrows_Ends_-_Hover__x28_Green_x29_">
</g>
<g id="Left_Arrows_Ends_-_Disabled__x28_Green_x29_">
</g>
<g id="Left_Arrows_Ends_-_Normal__x28_Green_x29_">
</g>
<g id="Left_Arrows_Tips_-_Pressed__x28_Green_x29_">
</g>
<g id="Left_Arrows_Tips_-_Focused__x28_Green_x29_">
</g>
<g id="Left_Arrows_Tips_-_Hover__x28_Green_x29_">
</g>
<g id="Left_Arrows_Tips_-_Disabled__x28_Green_x29_">
</g>
<g id="Left_Arrows_Tips_-_Normal__x28_Green_x29_">
</g>
<g id="Left_Arrows_Ends_-_Pressed__x28_Silver_x29_">
</g>
<g id="Left_Arrows_Ends_-_Focused__x28_Silver_x29_">
</g>
<g id="Left_Arrows_Ends_-_Hover__x28_Silver_x29_">
</g>
<g id="Left_Arrows_Ends_-_Disabled__x28_Silver_x29_">
</g>
<g id="Left_Arrows_Ends_-_Normal__x28_Silver_x29_">
</g>
<g id="Left_Arrows_Tips_-_Pressed__x28_Silver_x29_">
	
		<linearGradient id="Body_38_" gradientUnits="userSpaceOnUse" x1="2.4234" y1="174" x2="2.4234" y2="144.0004" gradientTransform="matrix(-1 0 0 1 7 0)">
		<stop  offset="0" style="stop-color:#E5E5E5"/>
		<stop  offset="1" style="stop-color:#E0E0E0"/>
	</linearGradient>
	<path id="Body_14_" fill-rule="evenodd" clip-rule="evenodd" fill="url(#Body_38_)" d="M-3.8,174H3l10-15L3,144h-6.8V174z"/>
	<path id="Stroke_14_" fill-rule="evenodd" clip-rule="evenodd" fill="#C9C9C9" d="M-4,144v30h7l10-15L3,144H-4z M-3,145h5.2l9.5,14
		l-9.5,14H-3V145z"/>
	<polygon fill-rule="evenodd" clip-rule="evenodd" fill-opacity="0.15" points="-3.8,145 3.6,145 3,144 -3.8,144 	"/>
	<polygon fill-rule="evenodd" clip-rule="evenodd" fill-opacity="0.1" points="-3.8,146 4.3,146 3.7,145 -3.8,145 	"/>
	<polygon fill-rule="evenodd" clip-rule="evenodd" fill-opacity="5.000000e-002" points="-3.8,147 5,147 4.3,146 -3.8,146 	"/>
</g>
<g id="Left_Arrows_Tips_-_Focused__x28_Silver_x29_">
	<path id="Shadow_13_" fill-rule="evenodd" clip-rule="evenodd" fill-opacity="8.000000e-002" d="M-4,140h6.8l10-15l-10-15H-4V140z"
		/>
	
		<linearGradient id="Body_39_" gradientUnits="userSpaceOnUse" x1="2.1678" y1="137.9996" x2="2.1678" y2="108" gradientTransform="matrix(-1 0 0 1 6.5912 0)">
		<stop  offset="0.25" style="stop-color:#F0F0F0"/>
		<stop  offset="0.9" style="stop-color:#FFFFFF"/>
	</linearGradient>
	<path id="Body_13_" fill-rule="evenodd" clip-rule="evenodd" fill="url(#Body_39_)" d="M-4,138h6.8l10-15l-10-15H-4V138z"/>
	<path id="Stroke_13_" fill-rule="evenodd" clip-rule="evenodd" fill="#0089D9" d="M-4,107v32h6.8l10.6-16L2.8,107H-4z M-3,109h5
		l9.5,14L2,137h-5V109z"/>
</g>
<g id="Left_Arrows_Tips_-_Hover__x28_Silver_x29_">
	<path id="Shadow_11_" fill-rule="evenodd" clip-rule="evenodd" fill-opacity="8.000000e-002" d="M-3.8,103H3l10-15L3,73h-6.8V103z"
		/>
	
		<linearGradient id="Body_40_" gradientUnits="userSpaceOnUse" x1="2.5766" y1="102" x2="2.5766" y2="72.0004" gradientTransform="matrix(-1 0 0 1 7.1532 0)">
		<stop  offset="0.25" style="stop-color:#DAE7EF"/>
		<stop  offset="0.9" style="stop-color:#E8F6FF"/>
	</linearGradient>
	<path id="Body_12_" fill-rule="evenodd" clip-rule="evenodd" fill="url(#Body_40_)" d="M-3.8,102H3l10-15L3,72h-6.8V102z"/>
	<path id="Stroke_11_" fill-rule="evenodd" clip-rule="evenodd" fill="#BECAD1" d="M-4,72v30h7l10-15L3,72H-4z M-3,73h5.2l9.5,14
		l-9.5,14H-3V73z"/>
	<path id="Inner_5_" fill-rule="evenodd" clip-rule="evenodd" fill="#969FA4" d="M-4,87v15h7l10-15h-1.4l-9.5,14H-3V87H-4z"/>
</g>
<g id="Left_Arrows_Tips_-_Disabled__x28_Silver_x29_">
	<path id="Body_24_" fill-rule="evenodd" clip-rule="evenodd" fill="#F5F5F5" d="M-3.8,66H3l10-15L3,36h-6.8V66z"/>
	<path id="Stroke_28_" fill-rule="evenodd" clip-rule="evenodd" fill="#D7D7D7" d="M-4,36v30h7l10-15L3,36H-4z M-3,37h5.2l9.5,14
		L2.2,65H-3V37z"/>
</g>
<g id="Left_Arrows_Tips_-_Normal__x28_Silver_x29_">
	<path id="Shadow_9_" fill-rule="evenodd" clip-rule="evenodd" fill-opacity="8.000000e-002" d="M-3.8,31H3l10-15L3,1h-6.8V31z"/>
	
		<linearGradient id="Body_41_" gradientUnits="userSpaceOnUse" x1="14.4233" y1="29.9996" x2="14.4233" y2="3.824807e-007" gradientTransform="matrix(-1 0 0 1 19 0)">
		<stop  offset="0.25" style="stop-color:#F0F0F0"/>
		<stop  offset="0.9" style="stop-color:#FFFFFF"/>
	</linearGradient>
	<path id="Body_10_" fill-rule="evenodd" clip-rule="evenodd" fill="url(#Body_41_)" d="M-3.8,30H3l10-15L3,0l-6.8,0V30z"/>
	<path id="Stroke_5_" fill-rule="evenodd" clip-rule="evenodd" fill="#D1D1D1" d="M-4,0v30h7l10-15L3,0H-4z M-3,1h5.2l9.5,14L2.2,29
		H-3V1z"/>
	<path id="Inner_4_" fill-rule="evenodd" clip-rule="evenodd" fill="#A5A5A5" d="M-4,15v15h7l10-15h-1.4L2.2,29H-3V15H-4z"/>
</g>
<g id="Guides">
</g>
</svg>
