<?xml version="1.0" encoding="utf-8"?>
<!-- Generator: Adobe Illustrator 19.1.0, SVG Export Plug-In . SVG Version: 6.00 Build 0)  -->
<!DOCTYPE svg PUBLIC "-//W3C//DTD SVG 1.1//EN" "http://www.w3.org/Graphics/SVG/1.1/DTD/svg11.dtd">
<svg version="1.1" xmlns="http://www.w3.org/2000/svg" xmlns:xlink="http://www.w3.org/1999/xlink" x="0px" y="0px" width="14px"
	 height="175px" viewBox="0 0 14 175" enable-background="new 0 0 14 175" xml:space="preserve">
<g id="Left_Arrows_Ends_-_Pressed__x28_Green_x29_">
</g>
<g id="Left_Arrows_Ends_-_Focused__x28_Green_x29_">
</g>
<g id="Left_Arrows_Ends_-_Hover__x28_Green_x29_">
</g>
<g id="Left_Arrows_Ends_-_Disabled__x28_Green_x29_">
</g>
<g id="Left_Arrows_Ends_-_Normal__x28_Green_x29_">
</g>
<g id="Left_Arrows_Tips_-_Pressed__x28_Green_x29_">
	
		<linearGradient id="Body_38_" gradientUnits="userSpaceOnUse" x1="2.4234" y1="174" x2="2.4234" y2="144.0004" gradientTransform="matrix(-1 0 0 1 7 0)">
		<stop  offset="0.1" style="stop-color:#497D00"/>
		<stop  offset="0.9" style="stop-color:#406E00"/>
	</linearGradient>
	<path id="Body_28_" fill-rule="evenodd" clip-rule="evenodd" fill="url(#Body_38_)" d="M-3.8,174H3l10-15L3,144h-6.8V174z"/>
	<path id="Stroke_32_" fill-rule="evenodd" clip-rule="evenodd" fill-opacity="0.1" d="M-4,144v30h7l10-15L3,144H-4z M-3,145h5.2
		l9.5,14l-9.5,14H-3V145z"/>
	<polygon fill-rule="evenodd" clip-rule="evenodd" fill-opacity="0.15" points="-3.8,145 3.6,145 3,144 -3.8,144 	"/>
	<polygon fill-rule="evenodd" clip-rule="evenodd" fill-opacity="0.1" points="-3.8,146 4.3,146 3.7,145 -3.8,145 	"/>
	<polygon fill-rule="evenodd" clip-rule="evenodd" fill-opacity="5.000000e-002" points="-3.8,147 5,147 4.3,146 -3.8,146 	"/>
</g>
<g id="Left_Arrows_Tips_-_Focused__x28_Green_x29_">
	<path id="Shadow_24_" fill-rule="evenodd" clip-rule="evenodd" fill-opacity="8.000000e-002" d="M-4,141h6.8l10-15l-10-15H-4V141z"
		/>
	
		<linearGradient id="Body_39_" gradientUnits="userSpaceOnUse" x1="2.1678" y1="139" x2="2.1678" y2="109.0004" gradientTransform="matrix(-1 0 0 1 6.5912 0)">
		<stop  offset="0" style="stop-color:#477A00"/>
		<stop  offset="0.45" style="stop-color:#487C00"/>
		<stop  offset="1" style="stop-color:#569400"/>
	</linearGradient>
	<path id="Body_22_" fill-rule="evenodd" clip-rule="evenodd" fill="url(#Body_39_)" d="M-4,139h6.8l10-15l-10-15H-4V139z"/>
	<path id="Outer_Glow_1_" fill-rule="evenodd" clip-rule="evenodd" fill-opacity="0.1" d="M-4,107v34h7.5L14,125v-2L3.5,107H-4z
		 M-2,111h3l9,13l-9,13h-3V111z"/>
	<path id="Stroke_22_" fill-rule="evenodd" clip-rule="evenodd" fill="#FFFFFF" d="M-4,108v32h6.8l10.6-16L2.8,108H-4z M-3,110h5
		l9.5,14L2,138h-5V110z"/>
</g>
<g id="Left_Arrows_Tips_-_Hover__x28_Green_x29_">
	<path id="Shadow_25_" fill-rule="evenodd" clip-rule="evenodd" fill-opacity="8.000000e-002" d="M-3.8,103H3l10-15L3,73h-6.8V103z"
		/>
	
		<linearGradient id="Body_40_" gradientUnits="userSpaceOnUse" x1="2.5766" y1="102" x2="2.5766" y2="72.0004" gradientTransform="matrix(-1 0 0 1 7.1532 0)">
		<stop  offset="0" style="stop-color:#4F8700"/>
		<stop  offset="0.45" style="stop-color:#508A00"/>
		<stop  offset="1" style="stop-color:#5EA100"/>
	</linearGradient>
	<path id="Body_26_" fill-rule="evenodd" clip-rule="evenodd" fill="url(#Body_40_)" d="M-3.8,102H3l10-15L3,72h-6.8V102z"/>
	<path id="Stroke_29_" fill-rule="evenodd" clip-rule="evenodd" fill-opacity="0.1" d="M-4,72v30h7l10-15L3,72H-4z M-3,73h5.2
		l9.5,14l-9.5,14H-3V73z"/>
	<path id="Inner_10_" fill-rule="evenodd" clip-rule="evenodd" fill="#1A4C00" fill-opacity="0.5" d="M-4,87v15h7l10-15h-1.4
		l-9.5,14H-3V87H-4z"/>
</g>
<g id="Left_Arrows_Tips_-_Disabled__x28_Green_x29_">
	<path id="Body_11_" fill-rule="evenodd" clip-rule="evenodd" fill="#95B26B" d="M-3.8,66H3l10-15L3,36h-6.8V66z"/>
	<path id="Stroke_10_" fill-rule="evenodd" clip-rule="evenodd" fill-opacity="0.1" d="M-4,36v30h7l10-15L3,36H-4z M-3,37h5.2
		l9.5,14L2.2,65H-3V37z"/>
</g>
<g id="Left_Arrows_Tips_-_Normal__x28_Green_x29_">
	<path id="Shadow_4_" fill-rule="evenodd" clip-rule="evenodd" fill-opacity="8.000000e-002" d="M-3.8,31H3l10-15L3,1h-6.8V31z"/>
	
		<linearGradient id="Body_41_" gradientUnits="userSpaceOnUse" x1="14.4233" y1="30" x2="14.4233" y2="4.003893e-004" gradientTransform="matrix(-1 0 0 1 19 0)">
		<stop  offset="0" style="stop-color:#477A00"/>
		<stop  offset="0.45" style="stop-color:#487C00"/>
		<stop  offset="1" style="stop-color:#569400"/>
	</linearGradient>
	<path id="Body_20_" fill-rule="evenodd" clip-rule="evenodd" fill="url(#Body_41_)" d="M-3.8,30H3l10-15L3,0l-6.8,0V30z"/>
	<path id="Stroke_20_" fill-rule="evenodd" clip-rule="evenodd" fill-opacity="0.1" d="M-4,0v30h7l10-15L3,0H-4z M-3,1h5.2l9.5,14
		L2.2,29H-3V1z"/>
	<path id="Inner_8_" fill-rule="evenodd" clip-rule="evenodd" fill="#1A4C00" fill-opacity="0.5" d="M-4,15v15h7l10-15h-1.4L2.2,29
		H-3V15H-4z"/>
</g>
<g id="Left_Arrows_Ends_-_Pressed__x28_Silver_x29_">
</g>
<g id="Left_Arrows_Ends_-_Focused__x28_Silver_x29_">
</g>
<g id="Left_Arrows_Ends_-_Hover__x28_Silver_x29_">
</g>
<g id="Left_Arrows_Ends_-_Disabled__x28_Silver_x29_">
</g>
<g id="Left_Arrows_Ends_-_Normal__x28_Silver_x29_">
</g>
<g id="Left_Arrows_Tips_-_Pressed__x28_Silver_x29_">
</g>
<g id="Left_Arrows_Tips_-_Focused__x28_Silver_x29_">
</g>
<g id="Left_Arrows_Tips_-_Hover__x28_Silver_x29_">
</g>
<g id="Left_Arrows_Tips_-_Disabled__x28_Silver_x29_">
</g>
<g id="Left_Arrows_Tips_-_Normal__x28_Silver_x29_">
</g>
<g id="Guides">
</g>
</svg>
