<?xml version="1.0" encoding="utf-8"?>
<!-- Generator: Adobe Illustrator 19.1.0, SVG Export Plug-In . SVG Version: 6.00 Build 0)  -->
<!DOCTYPE svg PUBLIC "-//W3C//DTD SVG 1.1//EN" "http://www.w3.org/Graphics/SVG/1.1/DTD/svg11.dtd">
<svg version="1.1" xmlns="http://www.w3.org/2000/svg" xmlns:xlink="http://www.w3.org/1999/xlink" x="0px" y="0px" width="112px"
	 height="24px" viewBox="0 0 112 24" enable-background="new 0 0 112 24" xml:space="preserve">
<g id="Tool">
</g>
<g id="Document_Production">
</g>
<g id="Location">
</g>
<g id="Calendar">
</g>
<g id="Library">
</g>
<g id="Home">
</g>
<g id="Message">
</g>
<g id="Shopping_Cart">
	<g>
		<g>
			<path fill-rule="evenodd" clip-rule="evenodd" fill="#FFFFFF" d="M14,18c-1.1,0-2,0.9-2,2c0,1.1,0.9,2,2,2c1.1,0,2-0.9,2-2
				C16,18.9,15.1,18,14,18z M14,20.9c-0.5,0-0.9-0.4-0.9-0.9c0-0.5,0.4-0.9,0.9-0.9c0.5,0,0.9,0.4,0.9,0.9
				C14.9,20.5,14.5,20.9,14,20.9z M9,18c-1.1,0-2,0.9-2,2c0,1.1,0.9,2,2,2c1.1,0,2-0.9,2-2C11,18.9,10.1,18,9,18z M9,20.9
				c-0.5,0-0.9-0.4-0.9-0.9c0-0.5,0.4-0.9,0.9-0.9c0.5,0,0.9,0.4,0.9,0.9C9.9,20.5,9.5,20.9,9,20.9z M22.2,3.8
				C21.4,3.9,10.7,4.4,6.6,3.6C5.5,1.6,4.5,1,1.9,1c-2.9,0-2,2.9-0.7,3c1,0.1,1.7-0.3,1.9-0.9c1.1,0.1,2.9,1.5,3.4,12
				C6.6,16.2,7.7,17,8.9,17c2-0.1,7.1-0.2,9.5-0.9c2.2-0.7,4.9-2.3,5.5-9.8C24.1,4.3,23.7,3.7,22.2,3.8z M22.1,7.3
				c-0.1,1.5-0.6,3.1-1.4,4.7c-1.1,2.2-3.5,3-10.9,3.1c-1.1,0-1.6-1.1-1.7-2.2C8.1,10.5,7.6,7.6,7,5.7C10.1,6,18,6.2,20.9,5.9
				C22,5.7,22.2,5.8,22.1,7.3z M12.5,10c-0.8,0-1.5,0.7-1.5,1.5c0,0.8,0.7,1.5,1.5,1.5c0.8,0,1.5-0.7,1.5-1.5
				C14,10.7,13.4,10,12.5,10z M13,12h-1v-1h1V12z M12,8.5C12,7.7,11.4,7,10.5,7S9,7.7,9,8.5C9,9.3,9.7,10,10.5,10S12,9.3,12,8.5z
				 M11,9h-1V8h1V9z M16,8.5C16,7.7,15.4,7,14.5,7S13,7.7,13,8.5c0,0.8,0.7,1.5,1.5,1.5S16,9.3,16,8.5z M15,9h-1V8h1V9z M18.5,7
				C17.7,7,17,7.7,17,8.5c0,0.8,0.7,1.5,1.5,1.5c0.8,0,1.5-0.7,1.5-1.5C20,7.7,19.4,7,18.5,7z M19,9h-1V8h1V9z M16.5,10
				c-0.8,0-1.5,0.7-1.5,1.5c0,0.8,0.7,1.5,1.5,1.5c0.8,0,1.5-0.7,1.5-1.5C18,10.7,17.4,10,16.5,10z M17,12h-1v-1h1V12z"/>
		</g>
	</g>
	<path opacity="0.65" fill-rule="evenodd" clip-rule="evenodd" fill="#FFFFFF" d="M57.9,18.3c0.9,0,1.7,0.8,1.7,1.7
		c0,0.9-0.8,1.7-1.7,1.7c-0.9,0-1.7-0.8-1.7-1.7C56.2,19.1,57,18.3,57.9,18.3z"/>
	<path opacity="0.65" fill-rule="evenodd" clip-rule="evenodd" fill="#FFFFFF" d="M52.9,18.3c0.9,0,1.7,0.8,1.7,1.7
		c0,0.9-0.8,1.7-1.7,1.7c-0.9,0-1.7-0.8-1.7-1.7C51.3,19.1,52,18.3,52.9,18.3z"/>
	<path opacity="0.65" fill-rule="evenodd" clip-rule="evenodd" fill="#FFFFFF" d="M50.1,5.2c3.4,0.3,12.2,0.5,15.5,0.1
		c1.2-0.1,1.4-0.1,1.3,1.6c-0.2,1.6-0.7,3.5-1.5,5.2c-1.2,2.5-3.9,3.3-12.1,3.4c-1.2,0-1.8-1.3-1.8-2.4C51.3,10.5,50.8,7.3,50.1,5.2
		z"/>
	<g>
		<g>
			<path fill-rule="evenodd" clip-rule="evenodd" fill="#646464" d="M66.1,3.8c-0.8,0.1-11.5,0.5-15.6-0.2c-1.1-2-2.1-2.6-4.7-2.6
				c-2.9,0-2,2.9-0.7,3c1,0.1,1.7-0.3,1.9-0.9c1.1,0.1,2.9,1.5,3.4,12c0.1,1.1,1.2,1.9,2.4,1.9c2-0.1,7.1-0.2,9.5-0.9
				c2.2-0.7,4.9-2.3,5.5-9.8C68,4.3,67.6,3.7,66.1,3.8z M66,7.3c-0.1,1.5-0.6,3.1-1.4,4.7c-1.1,2.2-3.5,3-10.9,3.1
				c-1.1,0-1.6-1.1-1.7-2.2c-0.1-2.3-0.6-5.3-1.2-7.1C54,6,61.9,6.2,64.9,5.9C65.9,5.7,66.2,5.8,66,7.3z M57.9,18c-1.1,0-2,0.9-2,2
				c0,1.1,0.9,2,2,2s2-0.9,2-2C59.9,18.9,59.1,18,57.9,18z M57.9,20.9c-0.5,0-0.9-0.4-0.9-0.9c0-0.5,0.4-0.9,0.9-0.9
				c0.5,0,0.9,0.4,0.9,0.9C58.8,20.5,58.4,20.9,57.9,20.9z M52.9,18c-1.1,0-2,0.9-2,2c0,1.1,0.9,2,2,2s2-0.9,2-2
				C54.9,18.9,54.1,18,52.9,18z M52.9,20.9c-0.5,0-0.9-0.4-0.9-0.9c0-0.5,0.4-0.9,0.9-0.9c0.5,0,0.9,0.4,0.9,0.9
				C53.8,20.5,53.4,20.9,52.9,20.9z M59.9,8.5c0-0.8-0.7-1.5-1.5-1.5s-1.5,0.7-1.5,1.5c0,0.8,0.7,1.5,1.5,1.5S59.9,9.3,59.9,8.5z
				 M58.9,9h-1V8h1V9z M62.4,7c-0.8,0-1.5,0.7-1.5,1.5c0,0.8,0.7,1.5,1.5,1.5c0.8,0,1.5-0.7,1.5-1.5C63.9,7.7,63.3,7,62.4,7z
				 M62.9,9h-1V8h1V9z M56.4,10c-0.8,0-1.5,0.7-1.5,1.5c0,0.8,0.7,1.5,1.5,1.5c0.8,0,1.5-0.7,1.5-1.5C57.9,10.7,57.3,10,56.4,10z
				 M56.9,12h-1v-1h1V12z M55.9,8.5c0-0.8-0.7-1.5-1.5-1.5s-1.5,0.7-1.5,1.5c0,0.8,0.7,1.5,1.5,1.5S55.9,9.3,55.9,8.5z M54.9,9h-1V8
				h1V9z M60.4,10c-0.8,0-1.5,0.7-1.5,1.5c0,0.8,0.7,1.5,1.5,1.5c0.8,0,1.5-0.7,1.5-1.5C61.9,10.7,61.3,10,60.4,10z M60.9,12h-1v-1
				h1V12z"/>
		</g>
	</g>
	<path opacity="0.65" fill-rule="evenodd" clip-rule="evenodd" fill="#FFFFFF" d="M102,18.3c0.9,0,1.7,0.8,1.7,1.7
		c0,0.9-0.8,1.7-1.7,1.7c-0.9,0-1.7-0.8-1.7-1.7C100.3,19.1,101.1,18.3,102,18.3z"/>
	<path opacity="0.65" fill-rule="evenodd" clip-rule="evenodd" fill="#FFFFFF" d="M97,18.3c0.9,0,1.7,0.8,1.7,1.7
		c0,0.9-0.8,1.7-1.7,1.7c-0.9,0-1.7-0.8-1.7-1.7C95.3,19.1,96.1,18.3,97,18.3z"/>
	<path opacity="0.65" fill-rule="evenodd" clip-rule="evenodd" fill="#FFFFFF" d="M94.1,5.2c3.4,0.3,12.2,0.5,15.5,0.1
		c1.2-0.1,1.4-0.1,1.3,1.6c-0.2,1.6-0.7,3.5-1.5,5.2c-1.2,2.5-3.9,3.3-12.1,3.4c-1.2,0-1.8-1.3-1.8-2.4C95.4,10.5,94.8,7.3,94.1,5.2
		z"/>
	<g>
		<g>
			<path fill-rule="evenodd" clip-rule="evenodd" fill="#0089D9" d="M100,8.5c0-0.8-0.7-1.5-1.5-1.5S97,7.7,97,8.5
				c0,0.8,0.7,1.5,1.5,1.5S100,9.3,100,8.5z M99,9h-1V8h1V9z M102,18c-1.1,0-2,0.9-2,2c0,1.1,0.9,2,2,2c1.1,0,2-0.9,2-2
				C104,18.9,103.1,18,102,18z M102,20.9c-0.5,0-0.9-0.4-0.9-0.9c0-0.5,0.4-0.9,0.9-0.9c0.5,0,0.9,0.4,0.9,0.9
				C102.9,20.5,102.5,20.9,102,20.9z M97,18c-1.1,0-2,0.9-2,2c0,1.1,0.9,2,2,2c1.1,0,2-0.9,2-2C99,18.9,98.1,18,97,18z M97,20.9
				c-0.5,0-0.9-0.4-0.9-0.9c0-0.5,0.4-0.9,0.9-0.9c0.5,0,0.9,0.4,0.9,0.9C97.9,20.5,97.5,20.9,97,20.9z M106.5,7
				c-0.8,0-1.5,0.7-1.5,1.5c0,0.8,0.7,1.5,1.5,1.5c0.8,0,1.5-0.7,1.5-1.5C108,7.7,107.3,7,106.5,7z M107,9h-1V8h1V9z M110.2,3.8
				c-0.8,0.1-11.5,0.5-15.6-0.2c-1.1-2-2.1-2.6-4.7-2.6c-2.9,0-2,2.9-0.7,3c1,0.1,1.7-0.3,1.9-0.9c1.1,0.1,2.9,1.5,3.4,12
				c0.1,1.1,1.2,1.9,2.4,1.9c2-0.1,7.1-0.2,9.5-0.9c2.2-0.7,4.9-2.3,5.5-9.8C112.1,4.3,111.6,3.7,110.2,3.8z M110.1,7.3
				c-0.1,1.5-0.6,3.1-1.4,4.7c-1.1,2.2-3.5,3-10.9,3.1c-1.1,0-1.6-1.1-1.7-2.2c-0.1-2.3-0.6-5.3-1.2-7.1c3.1,0.3,11,0.4,13.9,0.1
				C110,5.7,110.2,5.8,110.1,7.3z M104.5,10c-0.8,0-1.5,0.7-1.5,1.5c0,0.8,0.7,1.5,1.5,1.5c0.8,0,1.5-0.7,1.5-1.5
				C106,10.7,105.3,10,104.5,10z M105,12h-1v-1h1V12z M100.5,10c-0.8,0-1.5,0.7-1.5,1.5c0,0.8,0.7,1.5,1.5,1.5
				c0.8,0,1.5-0.7,1.5-1.5C102,10.7,101.3,10,100.5,10z M101,12h-1v-1h1V12z M104,8.5c0-0.8-0.7-1.5-1.5-1.5S101,7.7,101,8.5
				c0,0.8,0.7,1.5,1.5,1.5S104,9.3,104,8.5z M103,9h-1V8h1V9z"/>
		</g>
	</g>
</g>
<g id="Logout">
</g>
<g id="Search">
</g>
<g id="Information">
</g>
<g id="Help">
</g>
<g id="Settings">
</g>
<g id="User_Setting">
</g>
<g id="User">
</g>
<g id="Guides" display="none" opacity="0.2">
	<rect display="inline" fill-rule="evenodd" clip-rule="evenodd" fill="#0089D9" width="24" height="24"/>
	<rect x="44" display="inline" fill-rule="evenodd" clip-rule="evenodd" fill="#0089D9" width="24" height="24"/>
	<rect x="88" display="inline" fill-rule="evenodd" clip-rule="evenodd" fill="#0089D9" width="24" height="24"/>
</g>
</svg>
