<?xml version="1.0" encoding="utf-8"?>
<!-- Generator: Adobe Illustrator 19.1.0, SVG Export Plug-In . SVG Version: 6.00 Build 0)  -->
<!DOCTYPE svg PUBLIC "-//W3C//DTD SVG 1.1//EN" "http://www.w3.org/Graphics/SVG/1.1/DTD/svg11.dtd">
<svg version="1.1" xmlns="http://www.w3.org/2000/svg" xmlns:xlink="http://www.w3.org/1999/xlink" x="0px" y="0px" width="112px"
	 height="24px" viewBox="0 0 112 24" enable-background="new 0 0 112 24" xml:space="preserve">
<g id="Tool">
</g>
<g id="Document_Production">
</g>
<g id="Location">
	<g>
		<g>
			<path fill-rule="evenodd" clip-rule="evenodd" fill="#FFFFFF" d="M22.9,7.3c-0.8-0.8-5.3-5.3-6.1-6.1c-0.8-0.8-2.3-0.8-3,0
				c2.7,7.5-8,7.3-8,7.2c-0.8,0.8-0.8,2.3,0,3C6,11.8,7,12.7,8.1,13.9L1,23l9.2-7.1c1.1,1.1,2.1,2.1,2.4,2.4c0.7,0.7,2.3,0.7,3,0
				c0,0-0.3-10.8,7.2-8C23.7,9.5,23.6,8.1,22.9,7.3z M15.3,10.7c-0.8,1.3-1.4,3-1.7,5.1c0,0.2,0,0.4-0.1,0.5l-5.8-5.8
				c0.2,0,0.3,0,0.5-0.1c2-0.3,3.7-0.8,5-1.7c1.9-1.2,2.9-2.9,3-5l4,4C18.2,7.8,16.5,8.8,15.3,10.7z"/>
		</g>
	</g>
	<path opacity="0.65" fill-rule="evenodd" clip-rule="evenodd" fill="#FFFFFF" d="M65.9,9c0.7-0.7,0.9-0.8,0.2-1.5
		c-0.7-0.7-5-5-5.7-5.7c-0.7-0.7-0.8-0.5-1.6,0.2c2.5,7-8.7,6.6-8.6,6.5c-0.7,0.7-0.7,2.1,0,2.8c0.7,0.7,5.7,5.7,6.3,6.3
		c0.7,0.7,2.1,0.7,2.8,0C59.5,17.7,58.9,6.4,65.9,9z"/>
	<g>
		<g>
			<path fill-rule="evenodd" clip-rule="evenodd" fill="#646464" d="M66.8,7.3C66,6.5,61.4,2,60.7,1.2c-0.8-0.8-2.3-0.8-3,0
				c2.7,7.5-8,7.3-8,7.2c-0.8,0.8-0.8,2.3,0,3c0.3,0.3,1.3,1.3,2.4,2.4L44.9,23l9.2-7.1c1.1,1.1,2.1,2.1,2.4,2.4
				c0.7,0.7,2.3,0.7,3,0c0,0-0.3-10.8,7.2-8C67.6,9.5,67.5,8.1,66.8,7.3z M59.2,10.7c-0.8,1.3-1.4,3-1.7,5.1c0,0.2,0,0.4-0.1,0.5
				l-5.8-5.8c0.2,0,0.3,0,0.5-0.1c2-0.3,3.7-0.8,5-1.7c1.9-1.2,2.9-2.9,3-5l4,4C62.1,7.8,60.4,8.8,59.2,10.7z"/>
		</g>
	</g>
	<path opacity="0.65" fill-rule="evenodd" clip-rule="evenodd" fill="#FFFFFF" d="M109.6,9c0.7-0.7,0.9-0.8,0.2-1.5
		c-0.7-0.7-5-5-5.7-5.7c-0.7-0.7-0.8-0.5-1.6,0.2c2.5,7-8.7,6.6-8.6,6.5c-0.7,0.7-0.7,2.1,0,2.8c0.7,0.7,5.7,5.7,6.3,6.3
		c0.7,0.7,2.1,0.7,2.8,0C103.1,17.7,102.6,6.4,109.6,9z"/>
	<g>
		<g>
			<path fill-rule="evenodd" clip-rule="evenodd" fill="#0089D9" d="M110.4,7.3c-0.8-0.8-5.3-5.3-6.1-6.1c-0.8-0.8-2.3-0.8-3,0
				c2.7,7.5-8,7.3-8,7.2c-0.8,0.8-0.8,2.3,0,3c0.3,0.3,1.3,1.3,2.4,2.4L88.6,23l9.2-7.1c1.1,1.1,2.1,2.1,2.4,2.4
				c0.7,0.7,2.3,0.7,3,0c0,0-0.3-10.8,7.2-8C111.2,9.5,111.2,8.1,110.4,7.3z M102.9,10.7c-0.8,1.3-1.4,3-1.7,5.1
				c0,0.2,0,0.4-0.1,0.5l-5.8-5.8c0.2,0,0.3,0,0.5-0.1c2-0.3,3.7-0.8,5-1.7c1.9-1.2,2.9-2.9,3-5l4,4C105.8,7.8,104,8.8,102.9,10.7z"
				/>
		</g>
	</g>
</g>
<g id="Calendar">
</g>
<g id="Library">
</g>
<g id="Home">
</g>
<g id="Message">
</g>
<g id="Shopping_Cart">
</g>
<g id="Logout">
</g>
<g id="Search">
</g>
<g id="Information">
</g>
<g id="Help">
</g>
<g id="Settings">
</g>
<g id="User_Setting">
</g>
<g id="User">
</g>
<g id="Guides" display="none" opacity="0.2">
	<rect display="inline" fill-rule="evenodd" clip-rule="evenodd" fill="#0089D9" width="24" height="24"/>
	<rect x="44" display="inline" fill-rule="evenodd" clip-rule="evenodd" fill="#0089D9" width="24" height="24"/>
	<rect x="88" display="inline" fill-rule="evenodd" clip-rule="evenodd" fill="#0089D9" width="24" height="24"/>
</g>
</svg>
