<?xml version="1.0" encoding="utf-8"?>
<!-- Generator: Adobe Illustrator 19.1.0, SVG Export Plug-In . SVG Version: 6.00 Build 0)  -->
<!DOCTYPE svg PUBLIC "-//W3C//DTD SVG 1.1//EN" "http://www.w3.org/Graphics/SVG/1.1/DTD/svg11.dtd">
<svg version="1.1" xmlns="http://www.w3.org/2000/svg" xmlns:xlink="http://www.w3.org/1999/xlink" x="0px" y="0px" width="112px"
	 height="24px" viewBox="0 0 112 24" enable-background="new 0 0 112 24" xml:space="preserve">
<g id="Tool">
</g>
<g id="Document_Production">
</g>
<g id="Location">
</g>
<g id="Calendar">
</g>
<g id="Library">
</g>
<g id="Home">
</g>
<g id="Message">
</g>
<g id="Shopping_Cart">
</g>
<g id="Logout">
</g>
<g id="Search">
</g>
<g id="Information">
</g>
<g id="Help">
</g>
<g id="Settings">
</g>
<g id="User_Setting">
	<g>
		<g>
			<path fill="#FFFFFF" d="M4,18.6c1.4-0.9,3-2,3.8-2.6c0,0,0.8-1.5,0-3c-0.2-0.4-0.7-0.9-0.7-1.9c0-0.6-0.6-1.3-1.1-1.4
				C5.7,9.5,5.4,8.9,5.5,8.4c0.9,0.1,1.2-0.9,1-1.5C4,1.6,10.4,0.4,11.6,3.6c1.4-0.6,2.3,1.8,0.9,3c-0.5,1,1,1.5,1,1.5
				c0.1,0.5-0.4,1.6-0.7,1.8c-0.6,0.1-1.1,0.8-1.1,1.4c0,0.4,0,0.7-0.1,1c0.9-1,2-1.7,3.3-2.1c0.4-0.7,0.6-1.4,0.5-2
				c-0.1-0.6-0.6-1.2-1.1-1.4c0.4-0.9,0.6-0.8,0.6-2.3c0-1.1-0.7-2.8-2.4-2.9C11.9,0.6,10.6,0,9.1,0C6.6,0,4,1.7,4,4.7
				C4,5.9,4.3,6,4.6,7C4.1,7.1,3.5,7.7,3.5,8.3c-0.1,1,0.8,2.9,1.9,3.1c0,1,0.4,1.7,1,2.4c0.1,0.2,0.1,0.7,0,0.9
				c-0.3,0-0.6,0-0.8,0.2c-0.8,0.7-3.7,2.4-5.1,3.4c-0.1,0.1-0.1,0.1,0,0.2C0.2,18.8,0,19,0,19.2c0,1.3,5.9,1.9,11.1,1.7
				c-0.4-0.6-0.7-1.2-0.9-1.8C8,19.2,5.7,19,4,18.6z M11.2,3.7C9.7,4.8,7.8,3.7,6.8,6.1c1.3-1.4,3.7,0.3,4.1-1.3
				c0.3,0.8,1.1,0.7,1.7,1.2C12.3,4.5,11.3,4.4,11.2,3.7z M16.4,16.5c-0.6,0.6-0.6,1.6,0,2.1c0.6,0.6,1.5,0.6,2.1,0
				c0.6-0.6,0.6-1.6,0-2.1C17.9,15.8,17,15.9,16.4,16.5z M18,18h-1v-1h1V18z M24,19v-3h-2.3c-0.1-0.1-0.1-0.3-0.2-0.4l1.6-1.6
				L21,11.8l-1.6,1.6c-0.1-0.1-0.3-0.1-0.4-0.2V11h-3v2.3c-0.1,0.1-0.3,0.1-0.4,0.2L14,11.8L11.9,14l1.6,1.6
				c-0.1,0.1-0.1,0.3-0.2,0.4H11v3h2.3c0.1,0.1,0.1,0.3,0.2,0.4L11.9,21l2.1,2.1l1.6-1.6c0.1,0.1,0.3,0.1,0.4,0.2V24h3v-2.3
				c0.1-0.1,0.3-0.1,0.4-0.2l1.6,1.6l2.1-2.1l-1.6-1.6c0.1-0.1,0.1-0.3,0.2-0.4H24z M21.4,20.7l-0.7,0.7l-1.7-1.7
				c-0.3,0.2-0.6,0.3-0.9,0.4v2.5h-1V20h0.1c-0.4-0.1-0.9-0.3-1.2-0.6l0.2,0.2l-1.7,1.7l-0.7-0.7l1.7-1.7l0.3,0.3
				c-0.4-0.5-0.7-1.1-0.7-1.6V18h-2.5v-1H15v0.5c0-0.6,0.2-1.3,0.7-1.8l-0.3,0.3l-1.7-1.7l0.7-0.7l1.7,1.7l-0.3,0.3
				c0.4-0.4,0.9-0.6,1.5-0.7H17v-2.5h1V15h-0.2c0.4,0,0.8,0.2,1.1,0.4l0,0l1.7-1.7l0.7,0.7l-1.7,1.7l0,0c0.2,0.3,0.4,0.6,0.4,1h2.4
				v1H20c-0.1,0.3-0.2,0.6-0.4,0.9L21.4,20.7z"/>
		</g>
	</g>
	<path opacity="0.65" fill="#FFFFFF" d="M52.9,0.7l-2.4,0.8l-1.9,1.9l0.2,3.3l-0.7,1.7l0.6,2.2l1.4,1.9l0.6,2.2l-2.5,2.1L45.1,19
		l7.9,1l4.9-1.2l-1.3,1.9l1,1.5l2.1-1.9l0.5,0.9l0,2l1.9,0l0.2-2.7l2.4,1.6l1.1-1.4l-1.7-2.2l2.8-0.2l0.2-1.6L64,16.1l1.6-2.2
		l-1.3-1.1l-2.1,1.5l-0.3-2.6l-1.7,0.1l-0.5,2.7l-2.1-1.8l-0.7,0.8l-0.4-2.7l1.4-1.7l0.1-1.3l-1-0.9l0.5-2.2l-0.6-1.6l-1.5-0.6
		L52.9,0.7"/>
	<g>
		<g>
			<path fill="#646464" d="M55.2,3.7c-1.5,1.1-3.5,0.1-4.4,2.4c1.3-1.4,3.7,0.3,4.1-1.3C55.2,5.7,56,5.5,56.6,6
				C56.3,4.5,55.3,4.4,55.2,3.7z M48,18.6c1.4-0.9,3-2,3.8-2.6c0,0,0.8-1.5,0-3c-0.2-0.4-0.7-0.9-0.7-1.9c0-0.6-0.6-1.3-1.1-1.4
				c-0.3-0.2-0.5-0.8-0.4-1.2c0.9,0.1,1.2-0.9,1-1.5c-2.5-5.3,3.9-6.5,5.2-3.3c1.4-0.6,2.3,1.8,0.9,3c-0.5,1,1,1.5,1,1.5
				c0.1,0.5-0.4,1.6-0.7,1.8c-0.6,0.1-1.1,0.8-1.1,1.4c0,0.4,0,0.7-0.1,1c0.9-1,2-1.7,3.3-2.1c0.4-0.7,0.6-1.4,0.5-2
				c-0.1-0.6-0.6-1.2-1.1-1.4c0.4-0.9,0.6-0.8,0.6-2.3c0-1.1-0.7-2.8-2.4-2.9C55.9,0.6,54.6,0,53,0c-2.5,0-5,1.8-5,4.7
				C48,5.9,48.2,6,48.6,7c-0.6,0.2-1.1,0.8-1.2,1.4c-0.1,1,0.8,2.9,1.9,3.1c0,1,0.4,1.7,1,2.4c0.1,0.2,0.1,0.7,0,0.9
				c-0.3,0-0.6,0-0.8,0.2c-0.8,0.7-3.7,2.4-5.1,3.4c-0.1,0.1-0.1,0.1,0,0.2c-0.3,0.2-0.4,0.5-0.4,0.7c0,1.3,5.9,1.9,11.1,1.7
				c-0.4-0.6-0.7-1.2-0.9-1.8C51.9,19.2,49.6,19,48,18.6z M60.4,16.5c-0.6,0.6-0.6,1.6,0,2.1c0.6,0.6,1.5,0.6,2.1,0
				c0.6-0.6,0.6-1.6,0-2.1C61.9,15.8,60.9,15.9,60.4,16.5z M61.9,18h-1v-1h1V18z M67.9,19v-3h-2.3c-0.1-0.1-0.1-0.3-0.2-0.4l1.6-1.6
				L65,11.8l-1.6,1.6c-0.1-0.1-0.3-0.1-0.4-0.2V11h-3v2.3c-0.1,0.1-0.3,0.1-0.4,0.2l-1.6-1.6L55.8,14l1.6,1.6
				c-0.1,0.1-0.1,0.3-0.2,0.4h-2.3v3h2.3c0.1,0.1,0.1,0.3,0.2,0.4L55.8,21l2.1,2.1l1.6-1.6c0.1,0.1,0.3,0.1,0.4,0.2V24h3v-2.3
				c0.1-0.1,0.3-0.1,0.4-0.2l1.6,1.6l2.1-2.1l-1.6-1.6c0.1-0.1,0.1-0.3,0.2-0.4H67.9z M65.3,20.7l-0.7,0.7l-1.7-1.7
				c-0.3,0.2-0.6,0.3-0.9,0.4v2.5h-1V20H61c-0.4-0.1-0.9-0.3-1.2-0.6l0.2,0.2l-1.7,1.7l-0.7-0.7l1.7-1.7l0.3,0.3
				c-0.4-0.5-0.7-1.1-0.7-1.6V18h-2.5v-1h2.5v0.5c0-0.6,0.2-1.3,0.7-1.8l-0.3,0.3l-1.7-1.7l0.7-0.7l1.7,1.7l-0.3,0.3
				c0.4-0.4,0.9-0.6,1.5-0.7h-0.3v-2.5h1V15h-0.2c0.4,0,0.8,0.2,1.1,0.4l0,0l1.7-1.7l0.7,0.7l-1.7,1.7l0,0c0.2,0.3,0.4,0.6,0.4,1
				h2.4v1H64c-0.1,0.3-0.2,0.6-0.4,0.9L65.3,20.7z"/>
		</g>
	</g>
	<path opacity="0.65" fill="#FFFFFF" d="M96.9,0.7l-2.4,0.8l-1.9,1.9l0.2,3.3l-0.7,1.7l0.6,2.2l1.4,1.9l0.6,2.2l-2.5,2.1L89.1,19
		l7.9,1l4.9-1.2l-1.3,1.9l1,1.5l2.1-1.9l0.5,0.9l0,2l1.9,0l0.2-2.7l2.4,1.6l1.1-1.4l-1.7-2.2l2.8-0.2l0.2-1.6l-2.9-0.6l1.6-2.2
		l-1.3-1.1l-2.1,1.5l-0.3-2.6l-1.7,0.1l-0.5,2.7l-2.1-1.8l-0.7,0.8l-0.4-2.7l1.4-1.7l0.1-1.3l-1-0.9l0.5-2.2l-0.6-1.6l-1.5-0.6
		L96.9,0.7"/>
	<g>
		<g>
			<path fill="#0089D9" d="M99.2,3.7c-1.5,1.1-3.5,0.1-4.4,2.4c1.3-1.4,3.7,0.3,4.1-1.3c0.3,0.8,1.1,0.7,1.7,1.2
				C100.3,4.5,99.3,4.4,99.2,3.7z M92,18.6c1.4-0.9,3-2,3.8-2.6c0,0,0.8-1.5,0-3c-0.2-0.4-0.7-0.9-0.7-1.9c0-0.6-0.6-1.3-1.1-1.4
				c-0.3-0.2-0.5-0.8-0.4-1.2c0.9,0.1,1.2-0.9,1-1.5c-2.5-5.3,3.9-6.5,5.2-3.3c1.4-0.6,2.3,1.8,0.9,3c-0.5,1,1,1.5,1,1.5
				c0.1,0.5-0.4,1.6-0.7,1.8c-0.6,0.1-1.1,0.8-1.1,1.4c0,0.4,0,0.7-0.1,1c0.9-1,2-1.7,3.3-2.1c0.4-0.7,0.6-1.4,0.5-2
				c-0.1-0.6-0.6-1.2-1.1-1.4c0.4-0.9,0.6-0.8,0.6-2.3c0-1.1-0.7-2.8-2.4-2.9C99.9,0.6,98.6,0,97.1,0c-2.5,0-5,1.8-5,4.7
				C92,5.9,92.3,6,92.6,7c-0.6,0.2-1.1,0.8-1.2,1.4c-0.1,1,0.8,2.9,1.9,3.1c0,1,0.4,1.7,1,2.4c0.1,0.2,0.1,0.7,0,0.9
				c-0.3,0-0.6,0-0.8,0.2c-0.8,0.7-3.7,2.4-5.1,3.4c-0.1,0.1-0.1,0.1,0,0.2C88.2,18.8,88,19,88,19.2c0,1.3,5.9,1.9,11.1,1.7
				c-0.4-0.6-0.7-1.2-0.9-1.8C96,19.2,93.7,19,92,18.6z M112,19v-3h-2.3c-0.1-0.1-0.1-0.3-0.2-0.4l1.6-1.6l-2.1-2.1l-1.6,1.6
				c-0.1-0.1-0.3-0.1-0.4-0.2V11h-3v2.3c-0.1,0.1-0.3,0.1-0.4,0.2l-1.6-1.6L99.8,14l1.6,1.6c-0.1,0.1-0.1,0.3-0.2,0.4H99v3h2.3
				c0.1,0.1,0.1,0.3,0.2,0.4L99.8,21l2.1,2.1l1.6-1.6c0.1,0.1,0.3,0.1,0.4,0.2V24h3v-2.3c0.1-0.1,0.3-0.1,0.4-0.2l1.6,1.6l2.1-2.1
				l-1.6-1.6c0.1-0.1,0.1-0.3,0.2-0.4H112z M109.4,20.7l-0.7,0.7l-1.7-1.7c-0.3,0.2-0.6,0.3-0.9,0.4v2.5h-1V20h0.1
				c-0.4-0.1-0.9-0.3-1.2-0.6l0.2,0.2l-1.7,1.7l-0.7-0.7l1.7-1.7l0.3,0.3c-0.4-0.5-0.7-1.1-0.7-1.6V18h-2.5v-1h2.5v0.5
				c0-0.6,0.2-1.3,0.7-1.8l-0.3,0.3l-1.7-1.7l0.7-0.7l1.7,1.7l-0.3,0.3c0.4-0.4,0.9-0.6,1.5-0.7H105v-2.5h1V15h-0.2
				c0.4,0,0.8,0.2,1.1,0.4l0,0l1.7-1.7l0.7,0.7l-1.7,1.7l0,0c0.2,0.3,0.4,0.6,0.4,1h2.4v1H108c-0.1,0.3-0.2,0.6-0.4,0.9L109.4,20.7z
				 M104.4,16.5c-0.6,0.6-0.6,1.6,0,2.1c0.6,0.6,1.5,0.6,2.1,0c0.6-0.6,0.6-1.6,0-2.1C105.9,15.8,105,15.9,104.4,16.5z M106,18h-1
				v-1h1V18z"/>
		</g>
	</g>
</g>
<g id="User">
</g>
<g id="Guides" display="none" opacity="0.2">
	<rect display="inline" fill-rule="evenodd" clip-rule="evenodd" fill="#0089D9" width="24" height="24"/>
	<rect x="44" display="inline" fill-rule="evenodd" clip-rule="evenodd" fill="#0089D9" width="24" height="24"/>
	<rect x="88" display="inline" fill-rule="evenodd" clip-rule="evenodd" fill="#0089D9" width="24" height="24"/>
</g>
</svg>
