<?xml version="1.0" encoding="utf-8"?>
<!-- Generator: Adobe Illustrator 19.1.0, SVG Export Plug-In . SVG Version: 6.00 Build 0)  -->
<!DOCTYPE svg PUBLIC "-//W3C//DTD SVG 1.1//EN" "http://www.w3.org/Graphics/SVG/1.1/DTD/svg11.dtd">
<svg version="1.1" xmlns="http://www.w3.org/2000/svg" xmlns:xlink="http://www.w3.org/1999/xlink" x="0px" y="0px" width="112px"
	 height="24px" viewBox="0 0 112 24" enable-background="new 0 0 112 24" xml:space="preserve">
<g id="Tool">
</g>
<g id="Document_Production">
</g>
<g id="Location">
</g>
<g id="Calendar">
</g>
<g id="Library">
</g>
<g id="Home">
</g>
<g id="Message">
</g>
<g id="Shopping_Cart">
</g>
<g id="Logout">
</g>
<g id="Search">
	<g>
		<g>
			<path fill-rule="evenodd" clip-rule="evenodd" fill="#FFFFFF" d="M23.7,22.2l-3.1-3.1c-0.3-0.3-0.7-0.3-1-0.2l-0.5-0.5
				c1.8-2,2.9-4.5,2.9-7.4c0-6.1-4.9-11-11-11S0,4.9,0,11c0,6.1,4.9,11,11,11c2.9,0,5.4-1.1,7.4-2.9l0.6,0.6c-0.1,0.4,0,0.7,0.2,1
				l3.1,3.1c0.4,0.4,1.1,0.3,1.4-0.1C24.1,23.3,24.1,22.6,23.7,22.2z M11,20c-5,0-9-4-9-9c0-5,4-9,9-9c5,0,9,4,9,9
				C20,16,16,20,11,20z M5,15C4.4,10.9,6,6.1,7.9,4.5C4,5.9,2.9,12,5,15z"/>
		</g>
	</g>
	<path opacity="0.65" fill-rule="evenodd" clip-rule="evenodd" fill="#FFFFFF" d="M65.3,11c0,5.7-4.6,10.3-10.3,10.3
		S44.6,16.7,44.6,11c0-5.7,4.6-10.3,10.3-10.3S65.3,5.3,65.3,11z"/>
	<g>
		<g>
			<path fill-rule="evenodd" clip-rule="evenodd" fill="#646464" d="M67.7,22.2l-3.1-3.1c-0.3-0.3-0.7-0.3-1-0.2L63,18.4
				c1.8-2,2.9-4.5,2.9-7.4c0-6.1-4.9-11-11-11s-11,4.9-11,11c0,6.1,4.9,11,11,11c2.9,0,5.4-1.1,7.4-2.9l0.6,0.6
				c-0.1,0.4,0,0.7,0.2,1l3.1,3.1c0.4,0.4,1.1,0.3,1.4-0.1C68,23.3,68.1,22.6,67.7,22.2z M54.9,20c-5,0-9-4-9-9c0-5,4-9,9-9
				c5,0,9,4,9,9C63.9,16,59.9,20,54.9,20z M49,15c-0.7-4.1,0.9-8.8,2.8-10.5C48,5.9,46.9,12,49,15z"/>
		</g>
	</g>
	<path opacity="0.65" fill-rule="evenodd" clip-rule="evenodd" fill="#FFFFFF" d="M109.3,11c0,5.7-4.6,10.3-10.3,10.3
		S88.6,16.7,88.6,11c0-5.7,4.6-10.3,10.3-10.3S109.3,5.3,109.3,11z"/>
	<g>
		<g>
			<path fill-rule="evenodd" clip-rule="evenodd" fill="#0089D9" d="M111.7,22.2l-3.1-3.1c-0.3-0.3-0.7-0.3-1-0.2l-0.5-0.5
				c1.8-2,2.9-4.5,2.9-7.4c0-6.1-4.9-11-11-11S88,4.9,88,11c0,6.1,4.9,11,11,11c2.9,0,5.4-1.1,7.4-2.9l0.6,0.6c-0.1,0.4,0,0.7,0.2,1
				l3.1,3.1c0.4,0.4,1.1,0.3,1.4-0.1C112.1,23.3,112.1,22.6,111.7,22.2z M99,20c-5,0-9-4-9-9c0-5,4-9,9-9c5,0,9,4,9,9
				C108,16,103.9,20,99,20z M93,15c-0.7-4.1,0.9-8.8,2.8-10.5C92,5.9,90.9,12,93,15z"/>
		</g>
	</g>
</g>
<g id="Information">
</g>
<g id="Help">
</g>
<g id="Settings">
</g>
<g id="User_Setting">
</g>
<g id="User">
</g>
<g id="Guides" display="none" opacity="0.2">
	<rect display="inline" fill-rule="evenodd" clip-rule="evenodd" fill="#0089D9" width="24" height="24"/>
	<rect x="44" display="inline" fill-rule="evenodd" clip-rule="evenodd" fill="#0089D9" width="24" height="24"/>
	<rect x="88" display="inline" fill-rule="evenodd" clip-rule="evenodd" fill="#0089D9" width="24" height="24"/>
</g>
</svg>
