<?xml version="1.0" encoding="utf-8"?>
<!-- Generator: Adobe Illustrator 19.1.0, SVG Export Plug-In . SVG Version: 6.00 Build 0)  -->
<!DOCTYPE svg PUBLIC "-//W3C//DTD SVG 1.1//EN" "http://www.w3.org/Graphics/SVG/1.1/DTD/svg11.dtd">
<svg version="1.1" xmlns="http://www.w3.org/2000/svg" xmlns:xlink="http://www.w3.org/1999/xlink" x="0px" y="0px" width="112px"
	 height="24px" viewBox="0 0 112 24" enable-background="new 0 0 112 24" xml:space="preserve">
<g id="Tool">
</g>
<g id="Document_Production">
</g>
<g id="Location">
</g>
<g id="Calendar">
	<g>
		<g>
			<path fill-rule="evenodd" clip-rule="evenodd" fill="#FFFFFF" d="M9,19h2v-2H9V19z M9,15h2v-2H9V15z M5,19h2v-2H5V19z M9,11h2V9
				H9V11z M5,15h2v-2H5V15z M17,11h2V9h-2V11z M13,19h2v-2h-2V19z M21,3h-2V2c0-0.6-0.4-1-1-1c-0.6,0-1,0.4-1,1v1H7V2
				c0-0.6-0.4-1-1-1C5.5,1,5,1.4,5,2v1H3C1.9,3,1,3.9,1,5v16c0,1.1,0.9,2,2,2h18c1.1,0,2-0.9,2-2V5C23,3.9,22.1,3,21,3z M21,20
				c0,0.6-0.4,1-1,1H4c-0.6,0-1-0.4-1-1V6c0-0.6,0.4-1,1-1h1v1c0,0.6,0.4,1,1,1c0.6,0,1-0.4,1-1V5h10v1c0,0.6,0.4,1,1,1
				c0.6,0,1-0.4,1-1V5h1c0.6,0,1,0.4,1,1V20z M13,11h2V9h-2V11z M13,15h2v-2h-2V15z M17,15h2v-2h-2V15z"/>
		</g>
	</g>
	<path opacity="0.65" fill-rule="evenodd" clip-rule="evenodd" fill="#FFFFFF" d="M47.3,3.4h17.4c1.1,0,1.9,0.9,1.9,1.9v15.4
		c0,1.1-0.9,1.9-1.9,1.9H47.3c-1.1,0-1.9-0.9-1.9-1.9V5.3C45.3,4.2,46.2,3.4,47.3,3.4z"/>
	<g>
		<g>
			<path fill-rule="evenodd" clip-rule="evenodd" fill="#646464" d="M52.9,15h2v-2h-2V15z M52.9,11h2V9h-2V11z M56.9,19h2v-2h-2V19z
				 M48.9,15h2v-2h-2V15z M48.9,19h2v-2h-2V19z M52.9,19h2v-2h-2V19z M60.9,11h2V9h-2V11z M56.9,15h2v-2h-2V15z M64.9,3h-2V2
				c0-0.6-0.4-1-1-1c-0.6,0-1,0.4-1,1v1h-10V2c0-0.6-0.4-1-1-1c-0.6,0-1,0.4-1,1v1h-2c-1.1,0-2,0.9-2,2v16c0,1.1,0.9,2,2,2h18
				c1.1,0,2-0.9,2-2V5C66.9,3.9,66.1,3,64.9,3z M64.9,20c0,0.6-0.4,1-1,1h-16c-0.6,0-1-0.4-1-1V6c0-0.6,0.4-1,1-1h1v1
				c0,0.6,0.4,1,1,1c0.6,0,1-0.4,1-1V5h10v1c0,0.6,0.4,1,1,1c0.6,0,1-0.4,1-1V5h1c0.6,0,1,0.4,1,1V20z M56.9,11h2V9h-2V11z M60.9,15
				h2v-2h-2V15z"/>
		</g>
	</g>
	<path opacity="0.65" fill-rule="evenodd" clip-rule="evenodd" fill="#FFFFFF" d="M91.3,3.4h17.4c1.1,0,1.9,0.9,1.9,1.9v15.4
		c0,1.1-0.9,1.9-1.9,1.9H91.3c-1.1,0-1.9-0.9-1.9-1.9V5.3C89.4,4.2,90.3,3.4,91.3,3.4z"/>
	<g>
		<g>
			<path fill-rule="evenodd" clip-rule="evenodd" fill="#0089D9" d="M97,15h2v-2h-2V15z M97,11h2V9h-2V11z M97,19h2v-2h-2V19z
				 M93,19h2v-2h-2V19z M93,15h2v-2h-2V15z M101,11h2V9h-2V11z M101,19h2v-2h-2V19z M105,11h2V9h-2V11z M101,15h2v-2h-2V15z M109,3
				h-2V2c0-0.6-0.4-1-1-1c-0.6,0-1,0.4-1,1v1H95V2c0-0.6-0.4-1-1-1c-0.6,0-1,0.4-1,1v1h-2c-1.1,0-2,0.9-2,2v16c0,1.1,0.9,2,2,2h18
				c1.1,0,2-0.9,2-2V5C111,3.9,110.1,3,109,3z M109,20c0,0.6-0.4,1-1,1H92c-0.6,0-1-0.4-1-1V6c0-0.6,0.4-1,1-1h1v1c0,0.6,0.4,1,1,1
				c0.6,0,1-0.4,1-1V5h10v1c0,0.6,0.4,1,1,1c0.6,0,1-0.4,1-1V5h1c0.6,0,1,0.4,1,1V20z M105,15h2v-2h-2V15z"/>
		</g>
	</g>
</g>
<g id="Library">
</g>
<g id="Home">
</g>
<g id="Message">
</g>
<g id="Shopping_Cart">
</g>
<g id="Logout">
</g>
<g id="Search">
</g>
<g id="Information">
</g>
<g id="Help">
</g>
<g id="Settings">
</g>
<g id="User_Setting">
</g>
<g id="User">
</g>
<g id="Guides" display="none" opacity="0.2">
	<rect display="inline" fill-rule="evenodd" clip-rule="evenodd" fill="#0089D9" width="24" height="24"/>
	<rect x="44" display="inline" fill-rule="evenodd" clip-rule="evenodd" fill="#0089D9" width="24" height="24"/>
	<rect x="88" display="inline" fill-rule="evenodd" clip-rule="evenodd" fill="#0089D9" width="24" height="24"/>
</g>
</svg>
