<?xml version="1.0" encoding="utf-8"?>
<!-- Generator: Adobe Illustrator 19.1.0, SVG Export Plug-In . SVG Version: 6.00 Build 0)  -->
<!DOCTYPE svg PUBLIC "-//W3C//DTD SVG 1.1//EN" "http://www.w3.org/Graphics/SVG/1.1/DTD/svg11.dtd">
<svg version="1.1" xmlns="http://www.w3.org/2000/svg" xmlns:xlink="http://www.w3.org/1999/xlink" x="0px" y="0px" width="112px"
	 height="24px" viewBox="0 0 112 24" enable-background="new 0 0 112 24" xml:space="preserve">
<g id="Tool">
</g>
<g id="Document_Production">
	<g>
		<g>
			<path fill="#FFFFFF" d="M22,11v-1c0-1.1-0.9-2-2-2h-1.5v2H20v1h-2V4l-3-3H6v10H4V7c0,0,0.1,0,1.5,0V5H4C2.9,5,2,5.9,2,7v4H0l2,12
				h20l2-12H22z M7,2h7v3h3v6H7V2z M20.3,21H3.7l-1.4-8h19.5L20.3,21z"/>
		</g>
	</g>
	<path opacity="0.65" fill="#FFFFFF" d="M58,1.5h-7v4h-3.5l-0.5,1l0,5h-2l2,10l18,0l1.9-10l-1.9,0l0-2.8l-1-0.3h-3v-4h-3V1.5"/>
	<g>
		<g>
			<path fill="#646464" d="M65.9,11v-1c0-1.1-0.9-2-2-2h-1.5v2h1.5v1h-2V4l-3-3h-9v10h-2V7c0,0,0.1,0,1.5,0V5H48c-1.1,0-2,0.9-2,2v4
				h-2l2,12h20l2-12H65.9z M50.9,2h7v3h3v6h-10V2z M64.3,21H47.6l-1.4-8h19.5L64.3,21z"/>
		</g>
	</g>
	<path opacity="0.65" fill="#FFFFFF" d="M102,1.5h-7v4h-3.5l-0.5,1l0,5h-2l2,10l18,0l1.9-10l-1.9,0l0-2.8l-1-0.3h-3v-4h-3V1.5"/>
	<g>
		<g>
			<path fill="#0089D9" d="M110,11v-1c0-1.1-0.9-2-2-2h-1.5v2h1.5v1h-2V4l-3-3h-9v10h-2V7h1.5V5H92c-1.1,0-2,0.9-2,2v4h-2l2,12h20
				l2-12H110z M95,2h7v3h3v6H95V2z M108.3,21H91.7l-1.4-8h19.5L108.3,21z"/>
		</g>
	</g>
</g>
<g id="Location">
</g>
<g id="Calendar">
</g>
<g id="Library">
</g>
<g id="Home">
</g>
<g id="Message">
</g>
<g id="Shopping_Cart">
</g>
<g id="Logout">
</g>
<g id="Search">
</g>
<g id="Information">
</g>
<g id="Help">
</g>
<g id="Settings">
</g>
<g id="User_Setting">
</g>
<g id="User">
</g>
<g id="Guides" display="none" opacity="0.2">
	<rect display="inline" fill-rule="evenodd" clip-rule="evenodd" fill="#0089D9" width="24" height="24"/>
	<rect x="44" display="inline" fill-rule="evenodd" clip-rule="evenodd" fill="#0089D9" width="24" height="24"/>
	<rect x="88" display="inline" fill-rule="evenodd" clip-rule="evenodd" fill="#0089D9" width="24" height="24"/>
</g>
</svg>
