<?xml version="1.0" encoding="utf-8"?>
<!-- Generator: Adobe Illustrator 19.1.0, SVG Export Plug-In . SVG Version: 6.00 Build 0)  -->
<!DOCTYPE svg PUBLIC "-//W3C//DTD SVG 1.1//EN" "http://www.w3.org/Graphics/SVG/1.1/DTD/svg11.dtd">
<svg version="1.1" xmlns="http://www.w3.org/2000/svg" xmlns:xlink="http://www.w3.org/1999/xlink" x="0px" y="0px" width="112px"
	 height="24px" viewBox="0 0 112 24" enable-background="new 0 0 112 24" xml:space="preserve">
<g id="Tool">
	<path fill-rule="evenodd" clip-rule="evenodd" fill="#FFFFFF" d="M11,3h2c0.6,0,1,0.4,1,1v2c0,0.6-0.4,1-1,1h-2c-0.6,0-1-0.4-1-1V4
		C10,3.4,10.5,3,11,3z M18,3h2c0.6,0,1,0.4,1,1v2c0,0.6-0.4,1-1,1h-2c-0.6,0-1-0.4-1-1V4C17,3.4,17.5,3,18,3z M4,10h2
		c0.6,0,1,0.4,1,1v2c0,0.6-0.4,1-1,1H4c-0.6,0-1-0.4-1-1v-2C3,10.4,3.5,10,4,10z M11,10h2c0.6,0,1,0.4,1,1v2c0,0.6-0.4,1-1,1h-2
		c-0.6,0-1-0.4-1-1v-2C10,10.4,10.5,10,11,10z M18,10h2c0.6,0,1,0.4,1,1v2c0,0.6-0.4,1-1,1h-2c-0.6,0-1-0.4-1-1v-2
		C17,10.4,17.5,10,18,10z M4,17h2c0.6,0,1,0.4,1,1v2c0,0.6-0.4,1-1,1H4c-0.6,0-1-0.4-1-1v-2C3,17.4,3.5,17,4,17z M11,17h2
		c0.6,0,1,0.4,1,1v2c0,0.6-0.4,1-1,1h-2c-0.6,0-1-0.4-1-1v-2C10,17.4,10.5,17,11,17z M18,17h2c0.6,0,1,0.4,1,1v2c0,0.6-0.4,1-1,1h-2
		c-0.6,0-1-0.4-1-1v-2C17,17.4,17.5,17,18,17z M4,3h2c0.6,0,1,0.4,1,1v2c0,0.6-0.4,1-1,1H4C3.5,7,3,6.6,3,6V4C3,3.4,3.5,3,4,3z"/>
	<path fill-rule="evenodd" clip-rule="evenodd" fill="#646464" d="M54.9,3h2c0.6,0,1,0.4,1,1v2c0,0.6-0.4,1-1,1h-2c-0.6,0-1-0.4-1-1
		V4C53.9,3.4,54.4,3,54.9,3z M61.9,3h2c0.6,0,1,0.4,1,1v2c0,0.6-0.4,1-1,1h-2c-0.6,0-1-0.4-1-1V4C60.9,3.4,61.4,3,61.9,3z M47.9,10
		h2c0.6,0,1,0.4,1,1v2c0,0.6-0.4,1-1,1h-2c-0.6,0-1-0.4-1-1v-2C46.9,10.4,47.4,10,47.9,10z M54.9,10h2c0.6,0,1,0.4,1,1v2
		c0,0.6-0.4,1-1,1h-2c-0.6,0-1-0.4-1-1v-2C53.9,10.4,54.4,10,54.9,10z M61.9,10h2c0.6,0,1,0.4,1,1v2c0,0.6-0.4,1-1,1h-2
		c-0.6,0-1-0.4-1-1v-2C60.9,10.4,61.4,10,61.9,10z M47.9,17h2c0.6,0,1,0.4,1,1v2c0,0.6-0.4,1-1,1h-2c-0.6,0-1-0.4-1-1v-2
		C46.9,17.4,47.4,17,47.9,17z M54.9,17h2c0.6,0,1,0.4,1,1v2c0,0.6-0.4,1-1,1h-2c-0.6,0-1-0.4-1-1v-2C53.9,17.4,54.4,17,54.9,17z
		 M61.9,17h2c0.6,0,1,0.4,1,1v2c0,0.6-0.4,1-1,1h-2c-0.6,0-1-0.4-1-1v-2C60.9,17.4,61.4,17,61.9,17z M47.9,3h2c0.6,0,1,0.4,1,1v2
		c0,0.6-0.4,1-1,1h-2c-0.6,0-1-0.4-1-1V4C46.9,3.4,47.4,3,47.9,3z"/>
	<path fill-rule="evenodd" clip-rule="evenodd" fill="#0089D9" d="M99,3h2c0.6,0,1,0.4,1,1v2c0,0.6-0.4,1-1,1h-2c-0.6,0-1-0.4-1-1V4
		C98,3.4,98.4,3,99,3z M106,3h2c0.6,0,1,0.4,1,1v2c0,0.6-0.4,1-1,1h-2c-0.6,0-1-0.4-1-1V4C105,3.4,105.4,3,106,3z M92,10h2
		c0.6,0,1,0.4,1,1v2c0,0.6-0.4,1-1,1h-2c-0.6,0-1-0.4-1-1v-2C91,10.4,91.4,10,92,10z M99,10h2c0.6,0,1,0.4,1,1v2c0,0.6-0.4,1-1,1h-2
		c-0.6,0-1-0.4-1-1v-2C98,10.4,98.4,10,99,10z M106,10h2c0.6,0,1,0.4,1,1v2c0,0.6-0.4,1-1,1h-2c-0.6,0-1-0.4-1-1v-2
		C105,10.4,105.4,10,106,10z M92,17h2c0.6,0,1,0.4,1,1v2c0,0.6-0.4,1-1,1h-2c-0.6,0-1-0.4-1-1v-2C91,17.4,91.4,17,92,17z M99,17h2
		c0.6,0,1,0.4,1,1v2c0,0.6-0.4,1-1,1h-2c-0.6,0-1-0.4-1-1v-2C98,17.4,98.4,17,99,17z M106,17h2c0.6,0,1,0.4,1,1v2c0,0.6-0.4,1-1,1
		h-2c-0.6,0-1-0.4-1-1v-2C105,17.4,105.4,17,106,17z M92,3h2c0.6,0,1,0.4,1,1v2c0,0.6-0.4,1-1,1h-2c-0.6,0-1-0.4-1-1V4
		C91,3.4,91.4,3,92,3z"/>
</g>
<g id="Document_Production">
</g>
<g id="Location">
</g>
<g id="Calendar">
</g>
<g id="Library">
</g>
<g id="Home">
</g>
<g id="Message">
</g>
<g id="Shopping_Cart">
</g>
<g id="Logout">
</g>
<g id="Search">
</g>
<g id="Information">
</g>
<g id="Help">
</g>
<g id="Settings">
</g>
<g id="User_Setting">
</g>
<g id="User">
</g>
<g id="Guides" display="none" opacity="0.2">
	<rect display="inline" fill-rule="evenodd" clip-rule="evenodd" fill="#0089D9" width="24" height="24"/>
	<rect x="44" display="inline" fill-rule="evenodd" clip-rule="evenodd" fill="#0089D9" width="24" height="24"/>
	<rect x="88" display="inline" fill-rule="evenodd" clip-rule="evenodd" fill="#0089D9" width="24" height="24"/>
</g>
</svg>
