<?xml version="1.0" encoding="utf-8"?>
<!-- Generator: Adobe Illustrator 19.1.0, SVG Export Plug-In . SVG Version: 6.00 Build 0)  -->
<!DOCTYPE svg PUBLIC "-//W3C//DTD SVG 1.1//EN" "http://www.w3.org/Graphics/SVG/1.1/DTD/svg11.dtd">
<svg version="1.1" xmlns="http://www.w3.org/2000/svg" xmlns:xlink="http://www.w3.org/1999/xlink" x="0px" y="0px" width="112px"
	 height="24px" viewBox="0 0 112 24" enable-background="new 0 0 112 24" xml:space="preserve">
<g id="Tool">
</g>
<g id="Document_Production">
</g>
<g id="Location">
</g>
<g id="Calendar">
</g>
<g id="Library">
</g>
<g id="Home">
</g>
<g id="Message">
</g>
<g id="Shopping_Cart">
</g>
<g id="Logout">
</g>
<g id="Search">
</g>
<g id="Information">
</g>
<g id="Help">
</g>
<g id="Settings">
</g>
<g id="User_Setting">
</g>
<g id="User">
	<g>
		<g>
			<path fill-rule="evenodd" clip-rule="evenodd" fill="#FFFFFF" d="M15.6,6.9c-0.3-1.8-1.5-1.8-1.6-2.6C12.3,5.4,10,4.3,8.9,7
				c1.5-1.7,4.2,0.3,4.8-1.5C14,6.5,15,6.3,15.6,6.9z M21.7,20.5c-1.5-1-4.2-2.7-5.2-3.4c-0.2-0.2-0.3-0.4-0.7-0.3
				c-0.1-0.3-0.1-0.8-0.1-0.9c0.8-0.8,1-1.6,1.1-2.7c1.3-0.3,2.3-2.4,2.1-3.6c-0.1-0.7-0.6-1.4-1.3-1.5c0.4-1.1,0.7-0.9,0.7-2.6
				c0-1.3-0.8-3.2-2.8-3.3c-0.7-1.3-2.2-2.1-4-2.1C8.7,0,5.7,2,5.7,5.4c0,1.4,0.3,1.5,0.7,2.6C5.7,8.1,5,8.8,5,9.5
				c-0.1,1.2,0.8,3.3,2.1,3.6c0.1,1.1,0.3,2,1.1,2.8c0.1,0.2,0.1,0.6,0,1c-0.3,0-0.5,0.1-0.7,0.3c-0.9,0.8-4.2,2.7-5.9,3.8
				c0,0,0,0.1-0.1,0.1C1.2,21.3,1,21.7,1,22c0,2.7,22,2.6,22,0C23,21.4,22.7,20.8,21.7,20.5z M4.1,21.6c1.8-1.1,4.4-2.5,5.5-3.3
				c0,0,1.1-1.5,0.1-3.2c-0.3-0.5-0.8-1-0.8-2.1c0-0.7-0.5-1.2-1.1-1.4C7.4,11.4,6.9,9.8,7,9.4c1,0.1,1.8-1.1,1.4-1.8
				C5.5,1.5,13.2,0,14.6,3.7C16.3,3,17,6.5,15.4,7.8c-0.6,1.2,1.4,1.4,1.4,1.4c0.1,0.6-0.3,1.9-0.7,2.2c-0.7,0.1-1.3,0.7-1.3,1.5
				c0,1.5-0.3,1.8-0.7,2.3c-0.7,1.6,0.4,2.9,0.4,2.9c1.1,0.8,3.8,2.5,5.4,3.5C16.6,22.8,7.5,22.7,4.1,21.6z"/>
		</g>
	</g>
	<path fill-rule="evenodd" clip-rule="evenodd" fill="#FFFFFF" fill-opacity="0.65" d="M60.2,17.2c1,0.7,3.5,2.3,5,3.3
		c1,0.3,1.3,0.8,1.3,1.4c0,2.5-21.1,2.6-21.1,0c0-0.3,0.1-0.6,0.5-0.9c0,0,0-0.1,0.1-0.1c1.6-1,4.8-2.9,5.7-3.7
		c0.3-0.2,0.4-0.4,0.7-0.3c0.1-0.3,0.1-1,0-1.2c-0.7-0.7-1-1.6-1-2.6c-1.2-0.3-2.1-2.3-2-3.5c0-0.6,0.7-1.3,1.3-1.5
		c-0.4-1-0.6-1.1-0.6-2.5c0-3.2,2.9-5.2,5.6-5.2c1.7,0,3.1,0.7,3.8,2c1.9,0.1,2.7,2,2.7,3.2c0,1.6-0.3,1.4-0.7,2.5
		c0.6,0.2,1.2,0.8,1.3,1.5c0.1,1.1-0.8,3.2-2,3.5c-0.1,1.1-0.3,1.9-1.1,2.6c-0.1,0.1,0,0.9,0.1,1.2C59.9,16.8,60,17,60.2,17.2z"/>
	<g>
		<g>
			<path fill-rule="evenodd" clip-rule="evenodd" fill="#646464" d="M59.6,6.9c-0.3-1.8-1.5-1.8-1.6-2.6c-1.7,1.2-4,0.1-5.1,2.7
				c1.5-1.7,4.2,0.3,4.8-1.5C58,6.5,58.9,6.3,59.6,6.9z M65.6,20.5c-1.5-1-4.2-2.7-5.2-3.4c-0.2-0.2-0.3-0.4-0.7-0.3
				c-0.1-0.3-0.1-0.8-0.1-0.9c0.8-0.8,1-1.6,1.1-2.7c1.3-0.3,2.3-2.4,2.1-3.6c-0.1-0.7-0.6-1.4-1.3-1.5c0.4-1.1,0.7-0.9,0.7-2.6
				c0-1.3-0.8-3.2-2.8-3.3c-0.7-1.3-2.2-2.1-4-2.1c-2.9,0-5.8,2-5.8,5.4c0,1.4,0.3,1.5,0.7,2.6C49.6,8.1,49,8.8,49,9.5
				c-0.1,1.2,0.8,3.3,2.1,3.6c0.1,1.1,0.3,2,1.1,2.8c0.1,0.2,0.1,0.6,0,1c-0.3,0-0.5,0.1-0.7,0.3c-0.9,0.8-4.2,2.7-5.9,3.8
				c0,0,0,0.1-0.1,0.1c-0.3,0.3-0.5,0.6-0.5,0.9c0,2.7,22,2.6,22,0C66.9,21.4,66.6,20.8,65.6,20.5z M48.1,21.6
				c1.8-1.1,4.4-2.5,5.5-3.3c0,0,1.1-1.5,0.1-3.2c-0.3-0.5-0.8-1-0.8-2.1c0-0.7-0.5-1.2-1.1-1.4c-0.3-0.2-0.8-1.8-0.7-2.3
				c1,0.1,1.8-1.1,1.4-1.8c-2.9-6.1,4.7-7.5,6.2-3.9C60.2,3,61,6.5,59.4,7.8c-0.6,1.2,1.4,1.4,1.4,1.4c0.1,0.6-0.3,1.9-0.7,2.2
				c-0.7,0.1-1.3,0.7-1.3,1.5c0,1.5-0.3,1.8-0.7,2.3c-0.7,1.6,0.4,2.9,0.4,2.9c1.1,0.8,3.8,2.5,5.4,3.5
				C60.6,22.8,51.4,22.7,48.1,21.6z"/>
		</g>
	</g>
	<path opacity="0.65" fill-rule="evenodd" clip-rule="evenodd" fill="#FFFFFF" d="M104.3,17.2c1,0.7,3.5,2.3,5,3.3
		c1,0.3,1.3,0.8,1.3,1.4c0,2.5-21.1,2.6-21.1,0c0-0.3,0.1-0.6,0.5-0.9c0,0,0-0.1,0.1-0.1c1.6-1,4.8-2.9,5.7-3.7
		c0.3-0.2,0.4-0.4,0.7-0.3c0.1-0.3,0.1-1,0-1.2c-0.7-0.7-1-1.6-1-2.6c-1.2-0.3-2.1-2.3-2-3.5c0-0.6,0.7-1.3,1.3-1.5
		c-0.4-1-0.6-1.1-0.6-2.5c0-3.2,2.9-5.2,5.6-5.2c1.7,0,3.1,0.7,3.8,2c1.9,0.1,2.7,2,2.7,3.2c0,1.6-0.3,1.4-0.7,2.5
		c0.6,0.2,1.2,0.8,1.3,1.5c0.1,1.1-0.8,3.2-2,3.5c-0.1,1.1-0.3,1.9-1.1,2.6c-0.1,0.1,0,0.9,0.1,1.2C103.9,16.8,104.1,17,104.3,17.2z
		"/>
	<g>
		<g>
			<path fill-rule="evenodd" clip-rule="evenodd" fill="#0089D9" d="M103.6,6.9c-0.3-1.8-1.5-1.8-1.6-2.6c-1.7,1.2-4,0.1-5.1,2.7
				c1.5-1.7,4.2,0.3,4.8-1.5C102,6.5,103,6.3,103.6,6.9z M109.7,20.5c-1.5-1-4.2-2.7-5.2-3.4c-0.2-0.2-0.3-0.4-0.7-0.3
				c-0.1-0.3-0.1-0.8-0.1-0.9c0.8-0.8,1-1.6,1.1-2.7c1.3-0.3,2.3-2.4,2.1-3.6c-0.1-0.7-0.6-1.4-1.3-1.5c0.4-1.1,0.7-0.9,0.7-2.6
				c0-1.3-0.8-3.2-2.8-3.3c-0.7-1.3-2.2-2.1-4-2.1c-2.9,0-5.8,2-5.8,5.4c0,1.4,0.3,1.5,0.7,2.6C93.7,8.1,93,8.8,93,9.5
				c-0.1,1.2,0.8,3.3,2.1,3.6c0.1,1.1,0.3,2,1.1,2.8c0.1,0.2,0.1,0.6,0,1c-0.3,0-0.5,0.1-0.7,0.3c-0.9,0.8-4.2,2.7-5.9,3.8
				c0,0,0,0.1-0.1,0.1C89.2,21.3,89,21.7,89,22c0,2.7,22,2.6,22,0C111,21.4,110.7,20.8,109.7,20.5z M92.1,21.6
				c1.8-1.1,4.4-2.5,5.5-3.3c0,0,1.1-1.5,0.1-3.2c-0.3-0.5-0.8-1-0.8-2.1c0-0.7-0.5-1.2-1.1-1.4c-0.3-0.2-0.8-1.8-0.7-2.3
				c1,0.1,1.8-1.1,1.4-1.8c-2.9-6.1,4.7-7.5,6.2-3.9c1.7-0.7,2.4,2.8,0.8,4.2c-0.6,1.2,1.4,1.4,1.4,1.4c0.1,0.6-0.3,1.9-0.7,2.2
				c-0.7,0.1-1.3,0.7-1.3,1.5c0,1.5-0.3,1.8-0.7,2.3c-0.7,1.6,0.4,2.9,0.4,2.9c1.1,0.8,3.8,2.5,5.4,3.5
				C104.6,22.8,95.5,22.7,92.1,21.6z"/>
		</g>
	</g>
</g>
<g id="Guides" display="none" opacity="0.2">
	<rect display="inline" fill-rule="evenodd" clip-rule="evenodd" fill="#0089D9" width="24" height="24"/>
	<rect x="44" display="inline" fill-rule="evenodd" clip-rule="evenodd" fill="#0089D9" width="24" height="24"/>
	<rect x="88" display="inline" fill-rule="evenodd" clip-rule="evenodd" fill="#0089D9" width="24" height="24"/>
</g>
</svg>
