<?xml version="1.0" encoding="utf-8"?>
<!-- Generator: Adobe Illustrator 19.1.0, SVG Export Plug-In . SVG Version: 6.00 Build 0)  -->
<!DOCTYPE svg PUBLIC "-//W3C//DTD SVG 1.1//EN" "http://www.w3.org/Graphics/SVG/1.1/DTD/svg11.dtd">
<svg version="1.1" xmlns="http://www.w3.org/2000/svg" xmlns:xlink="http://www.w3.org/1999/xlink" x="0px" y="0px" width="112px"
	 height="24px" viewBox="0 0 112 24" enable-background="new 0 0 112 24" xml:space="preserve">
<g id="Tool">
</g>
<g id="Document_Production">
</g>
<g id="Location">
</g>
<g id="Calendar">
</g>
<g id="Library">
</g>
<g id="Home">
	<g>
		<g>
			<path fill-rule="evenodd" clip-rule="evenodd" fill="#FFFFFF" d="M12,2L0,13h3c0,0,0,6.8,0,7.5C3,21.3,3.7,22,4.5,22
				c0.8,0,5.5,0,5.5,0v-6h4v6c0,0,4.7,0,5.5,0c0.8,0,1.5-0.7,1.5-1.5c0-0.7,0-7.5,0-7.5h3L12,2z M19,19.9C19,19.9,18.9,20,19,19.9
				L16,20v-6H8v6H5.1c0,0-0.1-0.1-0.1-0.1v-8.8l7-6.4l7,6.4V19.9z"/>
		</g>
	</g>
	<path opacity="0.65" fill-rule="evenodd" clip-rule="evenodd" fill="#FFFFFF" d="M55.9,2.8l-11,10.1h2.8c0,0,0,6.2,0,6.9
		c0,0.7,0.6,1.4,1.4,1.4c0.7,0,4.5,0,4.5,0v-5.5h4.9v5.5c0,0,3.7,0,4.4,0c0.7,0,1.4-0.7,1.4-1.4c0-0.7,0-6.9,0-6.9H67L55.9,2.8z"/>
	<g>
		<g>
			<path fill-rule="evenodd" clip-rule="evenodd" fill="#646464" d="M55.9,2l-12,11h3c0,0,0,6.8,0,7.5c0,0.8,0.7,1.5,1.5,1.5
				c0.8,0,5.5,0,5.5,0v-6h4v6c0,0,4.7,0,5.5,0c0.8,0,1.5-0.7,1.5-1.5c0-0.7,0-7.5,0-7.5h3L55.9,2z M62.9,19.9
				C62.9,19.9,62.9,20,62.9,19.9l-3,0.1v-6h-8v6H49c0,0-0.1-0.1-0.1-0.1v-8.8l7-6.4l7,6.4V19.9z"/>
		</g>
	</g>
	<path opacity="0.65" fill-rule="evenodd" clip-rule="evenodd" fill="#FFFFFF" d="M100,2.8L89,12.9h2.8c0,0,0,6.2,0,6.9
		c0,0.7,0.6,1.4,1.4,1.4c0.7,0,4.5,0,4.5,0v-5.5h4.9v5.5c0,0,3.7,0,4.4,0c0.7,0,1.4-0.7,1.4-1.4c0-0.7,0-6.9,0-6.9h2.8L100,2.8z"/>
	<g>
		<g>
			<path fill-rule="evenodd" clip-rule="evenodd" fill="#0089D9" d="M100,2L88,13h3c0,0,0,6.8,0,7.5c0,0.8,0.7,1.5,1.5,1.5
				c0.8,0,5.5,0,5.5,0v-6h4v6c0,0,4.7,0,5.5,0c0.8,0,1.5-0.7,1.5-1.5c0-0.7,0-7.5,0-7.5h3L100,2z M107,19.9
				C107,19.9,106.9,20,107,19.9l-3,0.1v-6h-8v6h-2.9c0,0-0.1-0.1-0.1-0.1v-8.8l7-6.4l7,6.4V19.9z"/>
		</g>
	</g>
</g>
<g id="Message">
</g>
<g id="Shopping_Cart">
</g>
<g id="Logout">
</g>
<g id="Search">
</g>
<g id="Information">
</g>
<g id="Help">
</g>
<g id="Settings">
</g>
<g id="User_Setting">
</g>
<g id="User">
</g>
<g id="Guides" display="none" opacity="0.2">
	<rect display="inline" fill-rule="evenodd" clip-rule="evenodd" fill="#0089D9" width="24" height="24"/>
	<rect x="44" display="inline" fill-rule="evenodd" clip-rule="evenodd" fill="#0089D9" width="24" height="24"/>
	<rect x="88" display="inline" fill-rule="evenodd" clip-rule="evenodd" fill="#0089D9" width="24" height="24"/>
</g>
</svg>
