<?xml version="1.0" encoding="utf-8"?>
<!-- Generator: Adobe Illustrator 19.1.0, SVG Export Plug-In . SVG Version: 6.00 Build 0)  -->
<!DOCTYPE svg PUBLIC "-//W3C//DTD SVG 1.1//EN" "http://www.w3.org/Graphics/SVG/1.1/DTD/svg11.dtd">
<svg version="1.1" xmlns="http://www.w3.org/2000/svg" xmlns:xlink="http://www.w3.org/1999/xlink" x="0px" y="0px" width="112px"
	 height="24px" viewBox="0 0 112 24" enable-background="new 0 0 112 24" xml:space="preserve">
<g id="Tool">
</g>
<g id="Document_Production">
</g>
<g id="Location">
</g>
<g id="Calendar">
</g>
<g id="Library">
</g>
<g id="Home">
</g>
<g id="Message">
	<g>
		<g>
			<path fill-rule="evenodd" clip-rule="evenodd" fill="#FFFFFF" d="M22,3H2C0.9,3,0,3.9,0,5v14c0,1.1,0.9,2,2,2h20c1.1,0,2-0.9,2-2
				V5C24,3.9,23.1,3,22,3z M22,19H2V6.1c1.3,1.5,3.7,4.1,5.7,6.3L3,18l5.6-4.6c1.2,1.3,2.1,2.3,2.4,2.6c1,1,1,1,2,0
				c0.3-0.3,1.2-1.3,2.4-2.6L21,18l-4.7-5.6c2-2.2,4.4-4.8,5.7-6.3V19z M22,5.1L12,14L2,5v0L22,5.1L22,5.1z"/>
		</g>
	</g>
	<path opacity="0.65" fill-rule="evenodd" clip-rule="evenodd" fill="#FFFFFF" d="M46.4,3.4h19c1.1,0,2,0.9,2,2v13.3
		c0,1.1-0.9,2-2,2h-19c-1.1,0-2-0.9-2-2V5.4C44.4,4.3,45.3,3.4,46.4,3.4z"/>
	<g>
		<g>
			<path fill-rule="evenodd" clip-rule="evenodd" fill="#646464" d="M65.9,3h-20c-1.1,0-2,0.9-2,2v14c0,1.1,0.9,2,2,2h20
				c1.1,0,2-0.9,2-2V5C67.9,3.9,67.1,3,65.9,3z M65.9,19h-20V6.1c1.3,1.5,3.7,4.1,5.7,6.3L46.9,18l5.6-4.6c1.2,1.3,2.1,2.3,2.4,2.6
				c1,1,1,1,2,0c0.3-0.3,1.2-1.3,2.4-2.6l5.6,4.6l-4.7-5.6c2-2.2,4.4-4.8,5.7-6.3V19z M65.9,5.1l-10,8.9l-10-9v0L65.9,5.1L65.9,5.1z
				"/>
		</g>
	</g>
	<path opacity="0.65" fill-rule="evenodd" clip-rule="evenodd" fill="#FFFFFF" d="M90.5,3.4h19c1.1,0,2,0.9,2,2v13.3
		c0,1.1-0.9,2-2,2h-19c-1.1,0-2-0.9-2-2V5.4C88.5,4.3,89.4,3.4,90.5,3.4z"/>
	<g>
		<g>
			<path fill-rule="evenodd" clip-rule="evenodd" fill="#0089D9" d="M110,3H90c-1.1,0-2,0.9-2,2v14c0,1.1,0.9,2,2,2h20
				c1.1,0,2-0.9,2-2V5C112,3.9,111.1,3,110,3z M110,19H90V6.1c1.3,1.5,3.7,4.1,5.7,6.3L91,18l5.6-4.6c1.2,1.3,2.1,2.3,2.4,2.6
				c1,1,1,1,2,0c0.3-0.3,1.2-1.3,2.4-2.6L109,18l-4.7-5.6c2-2.2,4.4-4.8,5.7-6.3V19z M110,5.1L100,14L90,5v0L110,5.1L110,5.1z"/>
		</g>
	</g>
</g>
<g id="Shopping_Cart">
</g>
<g id="Logout">
</g>
<g id="Search">
</g>
<g id="Information">
</g>
<g id="Help">
</g>
<g id="Settings">
</g>
<g id="User_Setting">
</g>
<g id="User">
</g>
<g id="Guides" display="none" opacity="0.2">
	<rect display="inline" fill-rule="evenodd" clip-rule="evenodd" fill="#0089D9" width="24" height="24"/>
	<rect x="44" display="inline" fill-rule="evenodd" clip-rule="evenodd" fill="#0089D9" width="24" height="24"/>
	<rect x="88" display="inline" fill-rule="evenodd" clip-rule="evenodd" fill="#0089D9" width="24" height="24"/>
</g>
</svg>
