<svg width="112" height="24" xmlns="http://www.w3.org/2000/svg" data-name="Layer 1">

 <title>advantages</title>
 <g>
  <title>Layer 1</title>
  <path fill="#ffffff" id="svg_1" fill-rule="evenodd" d="m25.86273,14.28301a5.41214,4.48985 0 1 1 -5.41214,4.48985a5.41469,4.49196 0 0 1 5.41214,-4.48985zm-17.96322,-3.84542l2.33805,0a0.48646,0.40356 0 0 1 0.48646,0.40145l0,5.31598a0.489,0.40567 0 0 1 -0.48646,0.40356l-2.33805,0a0.489,0.40567 0 0 1 -0.48646,-0.40356l0,-5.31809a0.48646,0.40356 0 0 1 0.48646,-0.40145l0,0.00211zm6.13801,-3.9891c0.25469,-1.05643 2.35333,-0.08451 2.50105,1.63747a8.86318,7.35279 0 0 1 -0.17828,1.82552l3.01297,0c1.25052,0.04014 2.34569,0.78599 1.57398,2.01357c0.17574,0.53244 0.2012,1.15574 -0.27761,1.40928c0.06113,0.84515 -0.21903,1.35858 -0.74369,1.77059a2.54689,2.11287 0 0 1 -0.38203,1.07334c-0.41005,0.47962 -0.72586,0.35919 -1.37532,0.35919l-5.09378,0c-0.80736,0 -1.24798,-0.18382 -1.78282,-0.73317l0,-4.69902c1.52813,-0.34017 2.32531,-2.06216 2.73027,-3.19255l0,-1.46422l0.01528,0zm0.27761,-6.44848a14.33899,11.89546 0 0 1 14.34154,11.89123q0,0.62118 -0.07386,1.22335a7.29175,6.04915 0 0 0 -2.2922,-0.42257c0.02547,-0.26622 0.04075,-0.53456 0.04075,-0.80289a12.01878,9.97063 0 1 0 -7.27647,9.16774a7.30703,6.06182 0 0 0 1.21741,1.66283a14.34154,11.89757 0 0 1 -16.0938,-19.22712a14.27787,11.84475 0 0 1 10.13662,-3.49257zm10.87777,16.2036l1.33202,0a0.3311,0.27467 0 0 1 0.3311,0.27467l0,1.47901l1.77009,0a0.3311,0.27467 0 0 1 0.3311,0.27467l0,1.10503a0.3311,0.27467 0 0 1 -0.3311,0.27467l-1.77009,0l0,1.46633a0.33364,0.27679 0 0 1 -0.3311,0.27679l-1.33202,0a0.33364,0.27679 0 0 1 -0.3311,-0.27679l0,-1.4769l-1.76499,0a0.3311,0.27467 0 0 1 -0.3311,-0.27467l0,-1.10503a0.3311,0.27467 0 0 1 0.3311,-0.27467l1.76754,0l0,-1.46633a0.33619,0.2789 0 0 1 0.3311,-0.27467l-0.00255,-0.00211z" class="cls-1"/>
  <path stroke="null" fill="#646464" id="svg_2" fill-rule="evenodd" d="m69.88665,14.42144a5.41715,4.52008 0 1 1 -5.41714,4.52008a5.41969,4.5222 0 0 1 5.41714,-4.52008zm-17.97983,-3.87131l2.3402,0a0.4869,0.40627 0 0 1 0.48691,0.40414l0,5.35177a0.48946,0.40841 0 0 1 -0.48691,0.40627l-2.3402,0a0.48946,0.40841 0 0 1 -0.4869,-0.40627l0,-5.3539a0.4869,0.40627 0 0 1 0.4869,-0.40414l0,0.00212zm6.14368,-4.01596c0.25492,-1.06355 2.3555,-0.08508 2.50336,1.6485a8.87138,7.40229 0 0 1 -0.17846,1.83781l3.01576,0c1.25168,0.04041 2.34785,0.79128 1.57544,2.02712c0.17589,0.53602 0.20139,1.16352 -0.27787,1.41877c0.06117,0.85084 -0.21924,1.36772 -0.74439,1.7825a2.54924,2.1271 0 0 1 -0.38238,1.08057c-0.41042,0.48285 -0.72653,0.36161 -1.37659,0.36161l-5.09849,0c-0.80811,0 -1.24913,-0.18505 -1.78447,-0.7381l0,-4.73066c1.52955,-0.34246 2.32746,-2.07605 2.73279,-3.21404l0,-1.47408l0.0153,0zm0.27787,-6.49189a14.35225,11.97554 0 0 1 14.35481,11.97128q0,0.62538 -0.07393,1.23159a7.29849,6.08987 0 0 0 -2.29433,-0.42541c0.0255,-0.26802 0.04079,-0.53816 0.04079,-0.8083a12.02988,10.03776 0 1 0 -7.2832,9.22947a7.31379,6.10263 0 0 0 1.21854,1.67403a14.35481,11.97767 0 0 1 -16.10867,-19.35656a14.29107,11.92449 0 0 1 10.14599,-3.51609zm10.88783,16.31269l1.33326,0a0.3314,0.27653 0 0 1 0.3314,0.27652l0,1.48896l1.77173,0a0.3314,0.27653 0 0 1 0.3314,0.27653l0,1.11247a0.3314,0.27653 0 0 1 -0.3314,0.27652l-1.77173,0l0,1.4762a0.33396,0.27865 0 0 1 -0.3314,0.27865l-1.33326,0a0.33396,0.27865 0 0 1 -0.3314,-0.27865l0,-1.48684l-1.76662,0a0.3314,0.27653 0 0 1 -0.3314,-0.27653l0,-1.11246a0.3314,0.27653 0 0 1 0.3314,-0.27653l1.76918,0l0,-1.4762a0.3365,0.28078 0 0 1 0.3314,-0.27652l-0.00255,-0.00212z" class="cls-1"/>
  <path stroke="null" fill="#4f80ff" id="svg_3" fill-rule="evenodd" d="m106.38556,14.36871a5.52156,4.50496 0 1 1 -5.52154,4.50496a5.52415,4.50708 0 0 1 5.52154,-4.50496zm-18.32635,-3.85836l2.38531,0a0.49629,0.40491 0 0 1 0.4963,0.40279l0,5.33388a0.49889,0.40704 0 0 1 -0.4963,0.40491l-2.38531,0a0.49889,0.40704 0 0 1 -0.49629,-0.40491l0,-5.336a0.49629,0.40491 0 0 1 0.49629,-0.40279l0,0.00212zm6.26209,-4.00253c0.25984,-1.05999 2.4009,-0.08479 2.55161,1.64299a9.04235,7.37754 0 0 1 -0.1819,1.83167l3.07389,0c1.27581,0.04028 2.3931,0.78864 1.6058,2.02035c0.17928,0.53423 0.20527,1.15963 -0.28322,1.41403c0.06235,0.848 -0.22346,1.36315 -0.75874,1.77654a2.59837,2.11999 0 0 1 -0.38975,1.07696c-0.41833,0.48124 -0.74053,0.3604 -1.40312,0.3604l-5.19675,0c-0.82369,0 -1.2732,-0.18443 -1.81886,-0.73563l0,-4.71484c1.55903,-0.34132 2.37232,-2.06911 2.78546,-3.20329l0,-1.46915l0.01559,0zm0.28322,-6.47018a14.62886,11.9355 0 0 1 14.63146,11.93125q0,0.62328 -0.07535,1.22748a7.43916,6.06951 0 0 0 -2.33855,-0.42399c0.02599,-0.26712 0.04158,-0.53636 0.04158,-0.8056a12.26173,10.00419 0 1 0 -7.42357,9.19861a7.45475,6.08222 0 0 0 1.24202,1.66843a14.63146,11.93762 0 0 1 -16.41913,-19.29184a14.5665,11.88462 0 0 1 10.34153,-3.50433zm11.09767,16.25815l1.35895,0a0.33779,0.2756 0 0 1 0.33779,0.27559l0,1.48398l1.80588,0a0.33779,0.2756 0 0 1 0.33779,0.2756l0,1.10875a0.33779,0.2756 0 0 1 -0.33779,0.27559l-1.80588,0l0,1.47127a0.34039,0.27772 0 0 1 -0.33779,0.27772l-1.35895,0a0.34039,0.27772 0 0 1 -0.33779,-0.27772l0,-1.48187l-1.80067,0a0.33779,0.2756 0 0 1 -0.33779,-0.2756l0,-1.10874a0.33779,0.2756 0 0 1 0.33779,-0.2756l1.80327,0l0,-1.47127a0.34298,0.27984 0 0 1 0.33779,-0.27559l-0.0026,-0.00212z" class="cls-1"/>
 </g>
</svg>