<?xml version="1.0" encoding="utf-8"?>
<!-- Generator: Adobe Illustrator 19.1.0, SVG Export Plug-In . SVG Version: 6.00 Build 0)  -->
<!DOCTYPE svg PUBLIC "-//W3C//DTD SVG 1.1//EN" "http://www.w3.org/Graphics/SVG/1.1/DTD/svg11.dtd">
<svg version="1.1" xmlns="http://www.w3.org/2000/svg" xmlns:xlink="http://www.w3.org/1999/xlink" x="0px" y="0px" width="112px"
	 height="24px" viewBox="0 0 112 24" enable-background="new 0 0 112 24" xml:space="preserve">
<g id="Tool">
</g>
<g id="Document_Production">
</g>
<g id="Location">
</g>
<g id="Calendar">
</g>
<g id="Library">
</g>
<g id="Home">
</g>
<g id="Message">
</g>
<g id="Shopping_Cart">
</g>
<g id="Logout">
</g>
<g id="Search">
</g>
<g id="Information">
</g>
<g id="Help">
	<g>
		<g>
			<path fill-rule="evenodd" clip-rule="evenodd" fill="#FFFFFF" d="M12,0C5.4,0,0,5.4,0,12c0,6.6,5.4,12,12,12c6.6,0,12-5.4,12-12
				C24,5.4,18.6,0,12,0z M12,22C6.5,22,2,17.5,2,12C2,6.5,6.5,2,12,2c5.5,0,10,4.5,10,10C22,17.5,17.5,22,12,22z M12,6
				c-2.3,0.1-3.5,1.7-3.7,4H10c0,0,0.2-2.3,2-2.4c1.3,0,2.1,1.1,2.1,2.2c0,0.7-0.4,1.2-0.9,1.6c-1,0.8-2,2-2,3.5l1.7,0
				c0-1.2,0.6-1.8,1.2-2.3c1-0.8,1.7-1.5,1.7-3.1C15.7,7.5,14,5.9,12,6z M11.1,18h1.8v-2h-1.8V18z"/>
		</g>
	</g>
	<path opacity="0.65" fill-rule="evenodd" clip-rule="evenodd" fill="#FFFFFF" d="M55.9,0.6c6.3,0,11.4,5.1,11.4,11.4
		c0,6.3-5.1,11.4-11.4,11.4c-6.3,0-11.4-5.1-11.4-11.4C44.5,5.7,49.6,0.6,55.9,0.6z"/>
	<g>
		<g>
			<path fill-rule="evenodd" clip-rule="evenodd" fill="#646464" d="M55.9,0c-6.6,0-12,5.4-12,12c0,6.6,5.4,12,12,12
				c6.6,0,12-5.4,12-12C67.9,5.4,62.6,0,55.9,0z M55.9,22c-5.5,0-10-4.5-10-10c0-5.5,4.5-10,10-10c5.5,0,10,4.5,10,10
				C65.9,17.5,61.5,22,55.9,22z M55,18h1.8v-2H55V18z M55.9,6c-2.3,0.1-3.5,1.7-3.7,4h1.6c0,0,0.2-2.3,2-2.4c1.3,0,2.1,1.1,2.1,2.2
				c0,0.7-0.4,1.2-0.9,1.6c-1,0.8-2,2-2,3.5l1.7,0c0-1.2,0.6-1.8,1.2-2.3c1-0.8,1.7-1.5,1.7-3.1C59.6,7.5,57.9,5.9,55.9,6z"/>
		</g>
	</g>
	<path opacity="0.65" fill-rule="evenodd" clip-rule="evenodd" fill="#FFFFFF" d="M100,0.6c6.3,0,11.4,5.1,11.4,11.4
		c0,6.3-5.1,11.4-11.4,11.4c-6.3,0-11.4-5.1-11.4-11.4C88.6,5.7,93.7,0.6,100,0.6z"/>
	<g>
		<g>
			<path fill-rule="evenodd" clip-rule="evenodd" fill="#0089D9" d="M100,0c-6.6,0-12,5.4-12,12c0,6.6,5.4,12,12,12
				c6.6,0,12-5.4,12-12C112,5.4,106.6,0,100,0z M100,22c-5.5,0-10-4.5-10-10c0-5.5,4.5-10,10-10c5.5,0,10,4.5,10,10
				C110,17.5,105.5,22,100,22z M99.1,18h1.8v-2h-1.8V18z M100,6c-2.3,0.1-3.5,1.7-3.7,4h1.6c0,0,0.2-2.3,2-2.4
				c1.3,0,2.1,1.1,2.1,2.2c0,0.7-0.4,1.2-0.9,1.6c-1,0.8-2,2-2,3.5l1.7,0c0-1.2,0.6-1.8,1.2-2.3c1-0.8,1.7-1.5,1.7-3.1
				C103.7,7.5,102,5.9,100,6z"/>
		</g>
	</g>
</g>
<g id="Settings">
</g>
<g id="User_Setting">
</g>
<g id="User">
</g>
<g id="Guides" display="none" opacity="0.2">
	<rect display="inline" fill-rule="evenodd" clip-rule="evenodd" fill="#0089D9" width="24" height="24"/>
	<rect x="44" display="inline" fill-rule="evenodd" clip-rule="evenodd" fill="#0089D9" width="24" height="24"/>
	<rect x="88" display="inline" fill-rule="evenodd" clip-rule="evenodd" fill="#0089D9" width="24" height="24"/>
</g>
</svg>
