<?xml version="1.0" encoding="utf-8"?>
<!-- Generator: Adobe Illustrator 19.1.0, SVG Export Plug-In . SVG Version: 6.00 Build 0)  -->
<!DOCTYPE svg PUBLIC "-//W3C//DTD SVG 1.1//EN" "http://www.w3.org/Graphics/SVG/1.1/DTD/svg11.dtd">
<svg version="1.1" xmlns="http://www.w3.org/2000/svg" xmlns:xlink="http://www.w3.org/1999/xlink" x="0px" y="0px" width="112px"
	 height="24px" viewBox="0 0 112 24" enable-background="new 0 0 112 24" xml:space="preserve">
<g id="Tool">
</g>
<g id="Document_Production">
</g>
<g id="Location">
</g>
<g id="Calendar">
</g>
<g id="Library">
</g>
<g id="Home">
</g>
<g id="Message">
</g>
<g id="Shopping_Cart">
</g>
<g id="Logout">
</g>
<g id="Search">
</g>
<g id="Information">
	<g>
		<g>
			<path fill-rule="evenodd" clip-rule="evenodd" fill="#FFFFFF" d="M12.4,16.9c-0.5,0-0.5,0-0.5-0.5l1.2-4.7c0.1-0.7,0-1.5-0.7-1.6
				c-1.1-0.1-2.7,0.9-3.4,2c0,0.1,0,0.1,0,0.3c0,0,0.9-0.6,1.8-0.7c0.1,0,0.2,0.2,0.1,0.3l-1.4,4.4C9.5,17,10.4,18,11.3,18
				c1.2,0,2-0.5,2.7-1.6c0-0.1,0-0.6,0-0.8C14,15.5,12.9,16.9,12.4,16.9z M12,0C5.4,0,0,5.4,0,12c0,6.6,5.4,12,12,12
				c6.6,0,12-5.4,12-12C24,5.4,18.6,0,12,0z M12,22C6.5,22,2,17.5,2,12C2,6.5,6.5,2,12,2c5.5,0,10,4.5,10,10C22,17.5,17.5,22,12,22z
				 M12.4,9c0.8,0,1.5-0.7,1.5-1.5c0-0.8-0.7-1.5-1.5-1.5c-0.8,0-1.5,0.7-1.5,1.5C10.9,8.4,11.6,9,12.4,9z"/>
		</g>
	</g>
	<path opacity="0.65" fill-rule="evenodd" clip-rule="evenodd" fill="#FFFFFF" d="M55.9,0.8c6.2,0,11.2,5,11.2,11.2
		c0,6.2-5,11.2-11.2,11.2s-11.2-5-11.2-11.2C44.7,5.8,49.8,0.8,55.9,0.8z"/>
	<g>
		<g>
			<path fill-rule="evenodd" clip-rule="evenodd" fill="#646464" d="M56.4,16.9c-0.5,0-0.5,0-0.5-0.5l1.2-4.7c0.1-0.7,0-1.5-0.7-1.6
				c-1.1-0.1-2.7,0.9-3.4,2c0,0.1,0,0.1,0,0.3c0,0,0.9-0.6,1.8-0.7c0.1,0,0.2,0.2,0.1,0.3l-1.4,4.4C53.4,17,54.3,18,55.3,18
				c1.2,0,2-0.5,2.7-1.6c0-0.1,0-0.6,0-0.8C58,15.5,56.8,16.9,56.4,16.9z M55.9,0c-6.6,0-12,5.4-12,12c0,6.6,5.4,12,12,12
				c6.6,0,12-5.4,12-12C67.9,5.4,62.6,0,55.9,0z M55.9,22c-5.5,0-10-4.5-10-10c0-5.5,4.5-10,10-10c5.5,0,10,4.5,10,10
				C65.9,17.5,61.5,22,55.9,22z M56.3,9c0.8,0,1.5-0.7,1.5-1.5c0-0.8-0.7-1.5-1.5-1.5c-0.8,0-1.5,0.7-1.5,1.5
				C54.8,8.4,55.5,9,56.3,9z"/>
		</g>
	</g>
	<path opacity="0.65" fill-rule="evenodd" clip-rule="evenodd" fill="#FFFFFF" d="M100,0.8c6.2,0,11.2,5,11.2,11.2
		c0,6.2-5,11.2-11.2,11.2c-6.2,0-11.2-5-11.2-11.2C88.8,5.8,93.8,0.8,100,0.8z"/>
	<g>
		<g>
			<path fill-rule="evenodd" clip-rule="evenodd" fill="#0089D9" d="M100.4,16.9c-0.5,0-0.5,0-0.5-0.5l1.2-4.7
				c0.1-0.7,0-1.5-0.7-1.6c-1.1-0.1-2.7,0.9-3.4,2c0,0.1,0,0.1,0,0.3c0,0,0.9-0.6,1.8-0.7c0.1,0,0.2,0.2,0.1,0.3l-1.4,4.4
				C97.5,17,98.4,18,99.3,18c1.2,0,2-0.5,2.7-1.6c0-0.1,0-0.6,0-0.8C102,15.5,100.9,16.9,100.4,16.9z M100,0c-6.6,0-12,5.4-12,12
				c0,6.6,5.4,12,12,12c6.6,0,12-5.4,12-12C112,5.4,106.6,0,100,0z M100,22c-5.5,0-10-4.5-10-10c0-5.5,4.5-10,10-10
				c5.5,0,10,4.5,10,10C110,17.5,105.5,22,100,22z M100.4,9c0.8,0,1.5-0.7,1.5-1.5c0-0.8-0.7-1.5-1.5-1.5c-0.8,0-1.5,0.7-1.5,1.5
				C98.9,8.4,99.5,9,100.4,9z"/>
		</g>
	</g>
</g>
<g id="Help">
</g>
<g id="Settings">
</g>
<g id="User_Setting">
</g>
<g id="User">
</g>
<g id="Guides" display="none" opacity="0.2">
	<rect display="inline" fill-rule="evenodd" clip-rule="evenodd" fill="#0089D9" width="24" height="24"/>
	<rect x="44" display="inline" fill-rule="evenodd" clip-rule="evenodd" fill="#0089D9" width="24" height="24"/>
	<rect x="88" display="inline" fill-rule="evenodd" clip-rule="evenodd" fill="#0089D9" width="24" height="24"/>
</g>
</svg>
