<?xml version="1.0" encoding="utf-8"?>
<!-- Generator: Adobe Illustrator 19.1.0, SVG Export Plug-In . SVG Version: 6.00 Build 0)  -->
<!DOCTYPE svg PUBLIC "-//W3C//DTD SVG 1.1//EN" "http://www.w3.org/Graphics/SVG/1.1/DTD/svg11.dtd">
<svg version="1.1" xmlns="http://www.w3.org/2000/svg" xmlns:xlink="http://www.w3.org/1999/xlink" x="0px" y="0px" width="112px"
	 height="24px" viewBox="0 0 112 24" enable-background="new 0 0 112 24" xml:space="preserve">
<g id="Tool">
</g>
<g id="Document_Production">
</g>
<g id="Location">
</g>
<g id="Calendar">
</g>
<g id="Library">
</g>
<g id="Home">
</g>
<g id="Message">
</g>
<g id="Shopping_Cart">
</g>
<g id="Logout">
</g>
<g id="Search">
</g>
<g id="Information">
</g>
<g id="Help">
</g>
<g id="Settings">
	<g>
		<g>
			<path fill="#FFFFFF" d="M9.2,9.4c-1.5,1.6-1.5,4.1,0.1,5.6c1.6,1.5,4.2,1.5,5.7-0.1c1.5-1.6,1.5-4.1-0.1-5.6
				C13.3,7.7,10.8,7.8,9.2,9.4z M14,14c-1,1.1-2.7,1.1-3.8,0.1c-1.1-1-1.1-2.7-0.1-3.8c1-1.1,2.7-1.1,3.8-0.1C15,11.2,15,12.9,14,14
				z M22.6,9.6l-2-0.4c-0.1-0.3-0.3-0.7-0.4-1l1.1-1.7c0.6-0.6,0.6-1.5,0-2.1l-1.5-1.5c-0.6-0.6-1.5-0.6-2.1,0L16,4
				c-0.3-0.1-0.6-0.3-0.9-0.4l-0.4-2.1c0-0.8-0.7-1.5-1.5-1.5H11c-0.8,0-1.5,0.7-1.5,1.5L9.1,3.7C8.8,3.8,8.5,3.9,8.2,4L6.5,2.9
				c-0.6-0.6-1.5-0.6-2.1,0L2.9,4.4c-0.6,0.6-0.6,1.5,0,2.1L4,8.2c-0.2,0.3-0.3,0.6-0.4,1l-2,0.4c-0.8,0-1.5,0.7-1.5,1.5v2.1
				c0,0.8,0.7,1.5,1.5,1.5l2,0.4c0.1,0.3,0.2,0.6,0.4,1l-1.1,1.7c-0.6,0.6-0.6,1.5,0,2.1l1.5,1.5c0.6,0.6,1.5,0.6,2.1,0l1.7-1.1
				c0.3,0.1,0.6,0.3,1,0.4l0.4,2c0,0.8,0.7,1.5,1.5,1.5h2.1c0.8,0,1.5-0.7,1.5-1.5l0.4-2c0.3-0.1,0.7-0.3,1-0.4l1.7,1.1
				c0.6,0.6,1.5,0.6,2.1,0l1.5-1.5c0.6-0.6,0.6-1.5,0-2.1L20.2,16c0.2-0.3,0.3-0.6,0.4-1l2-0.4c0.8,0,1.5-0.7,1.5-1.5v-2.1
				C24.1,10.2,23.4,9.6,22.6,9.6z M22.1,12.5c0,0.4-0.3,0.7-0.7,0.7l-2.2,0.4c-0.1,0-0.2,0-0.3-0.1c-0.2,0.9-0.5,1.7-1.1,2.5
				c0.1,0,0.2,0.1,0.3,0.2l1.3,1.8c0.3,0.3,0.3,0.7,0,1L19,19.5c-0.3,0.3-0.7,0.3-1,0l-1.8-1.3C16.1,18.1,16,18,16,17.9
				c-0.8,0.5-1.7,0.9-2.6,1c0.1,0.1,0.1,0.2,0.1,0.3l-0.4,2.2c0,0.4-0.3,0.7-0.7,0.7h-0.7c-0.4,0-0.7-0.3-0.7-0.7l-0.3-2.2
				c0-0.1,0-0.2,0.1-0.4c-0.9-0.2-1.8-0.5-2.6-1.1c0,0.1-0.1,0.2-0.2,0.3l-1.8,1.3c-0.3,0.3-0.7,0.3-1,0L4.7,19
				c-0.3-0.3-0.3-0.7,0-1L6,16.2C6.1,16.1,6.2,16,6.3,16c-0.5-0.8-0.9-1.6-1.1-2.5c-0.1,0.1-0.2,0.1-0.3,0.1l-2.2-0.4
				c-0.4,0-0.7-0.3-0.7-0.7v-0.7C2,11.3,2.4,11,2.8,11l2.2-0.3c0.1,0,0.2,0,0.3,0.1c0.2-0.9,0.5-1.8,1-2.5C6.2,8.2,6.1,8.1,6,8.1
				L4.7,6.3c-0.3-0.3-0.3-0.7,0-1l0.5-0.5c0.3-0.3,0.7-0.3,1,0L8,6c0.1,0.1,0.1,0.1,0.1,0.2c0.8-0.5,1.6-0.9,2.5-1
				c0-0.1-0.1-0.2-0.1-0.3L11,2.8c0-0.4,0.3-0.7,0.7-0.7h0.7c0.4,0,0.7,0.3,0.7,0.7l0.4,2.2c0,0.1,0,0.2-0.1,0.3
				c0.9,0.2,1.7,0.5,2.5,1c0-0.1,0.1-0.2,0.1-0.2l1.8-1.3c0.3-0.3,0.7-0.3,1,0l0.5,0.5c0.3,0.3,0.3,0.7,0,1l-1.3,1.8
				C18.1,8.1,18,8.2,18,8.2c0.5,0.8,0.9,1.6,1,2.5c0.1,0,0.2-0.1,0.3-0.1l2.2,0.3c0.4,0,0.7,0.3,0.7,0.7V12.5z"/>
		</g>
	</g>
	<path opacity="0.65" fill="#FFFFFF" d="M55.9,15c-1.7,0-3-1.3-3-3s1.3-3,3-3c1.7,0,3,1.3,3,3S57.5,15,55.9,15 M57.4,1l-2.5,0.2
		l-1.3,3.2l-1.7,0.5l-2.4-1.5l-2.3,1.9l1.5,2.9l-0.8,1.7l-3.3,1.1l0.3,2.7l3.6,0.8l0.4,1.6l-1.6,2.5l1.8,2.3l3.4-1.5l1.1,0.5
		l0.9,3.3l2.8,0l1-3.4l1.4-0.5l2.6,1.6l2.3-1.8L63,15.8l0.6-1.6l3.4-1l-0.2-2.1l-3.3-1.5l-0.6-1.4l1.9-2.9l-2.1-2l-3,1.4L58,4.4
		L57.4,1"/>
	<g>
		<g>
			<path fill="#646464" d="M53.1,9.4c-1.5,1.6-1.5,4.1,0.1,5.6c1.6,1.5,4.2,1.5,5.7-0.1c1.5-1.6,1.5-4.1-0.1-5.6
				C57.2,7.7,54.7,7.8,53.1,9.4z M57.9,14c-1,1.1-2.7,1.1-3.8,0.1c-1.1-1-1.1-2.7-0.1-3.8c1-1.1,2.7-1.1,3.8-0.1
				C58.9,11.2,58.9,12.9,57.9,14z M66.5,9.6l-2-0.4c-0.1-0.3-0.3-0.7-0.4-1l1.1-1.7c0.6-0.6,0.6-1.5,0-2.1l-1.5-1.5
				c-0.6-0.6-1.5-0.6-2.1,0L59.9,4c-0.3-0.1-0.6-0.3-0.9-0.4l-0.4-2.1c0-0.8-0.7-1.5-1.5-1.5h-2.1c-0.8,0-1.5,0.7-1.5,1.5L53,3.7
				c-0.3,0.1-0.6,0.2-0.9,0.4l-1.7-1.2c-0.6-0.6-1.5-0.6-2.1,0l-1.5,1.5c-0.6,0.6-0.6,1.5,0,2.1l1.1,1.7c-0.2,0.3-0.3,0.6-0.4,1
				l-2,0.4c-0.8,0-1.5,0.7-1.5,1.5v2.1c0,0.8,0.7,1.5,1.5,1.5l2,0.4c0.1,0.3,0.2,0.6,0.4,1l-1.1,1.7c-0.6,0.6-0.6,1.5,0,2.1l1.5,1.5
				c0.6,0.6,1.5,0.6,2.1,0l1.7-1.1c0.3,0.1,0.6,0.3,1,0.4l0.4,2c0,0.8,0.7,1.5,1.5,1.5H57c0.8,0,1.5-0.7,1.5-1.5l0.4-2
				c0.3-0.1,0.7-0.3,1-0.4l1.7,1.1c0.6,0.6,1.5,0.6,2.1,0l1.5-1.5c0.6-0.6,0.6-1.5,0-2.1L64.1,16c0.2-0.3,0.3-0.6,0.4-1l2-0.4
				c0.8,0,1.5-0.7,1.5-1.5v-2.1C68,10.2,67.3,9.6,66.5,9.6z M66,12.5c0,0.4-0.3,0.7-0.7,0.7l-2.2,0.4c-0.1,0-0.2,0-0.3-0.1
				c-0.2,0.9-0.5,1.7-1.1,2.5c0.1,0,0.2,0.1,0.3,0.2l1.3,1.8c0.3,0.3,0.3,0.7,0,1l-0.5,0.5c-0.3,0.3-0.7,0.3-1,0l-1.8-1.3
				c-0.1-0.1-0.1-0.2-0.2-0.3c-0.8,0.5-1.7,0.9-2.6,1c0.1,0.1,0.1,0.2,0.1,0.3l-0.4,2.2c0,0.4-0.3,0.7-0.7,0.7h-0.7
				c-0.4,0-0.7-0.3-0.7-0.7l-0.3-2.2c0-0.1,0-0.2,0.1-0.4c-0.9-0.2-1.8-0.5-2.6-1.1c0,0.1-0.1,0.2-0.2,0.3l-1.8,1.3
				c-0.3,0.3-0.7,0.3-1,0L48.6,19c-0.3-0.3-0.3-0.7,0-1l1.3-1.8c0.1-0.1,0.2-0.1,0.3-0.2c-0.5-0.8-0.9-1.6-1.1-2.5
				c-0.1,0.1-0.2,0.1-0.3,0.1l-2.2-0.4c-0.4,0-0.7-0.3-0.7-0.7v-0.7c0-0.4,0.3-0.7,0.7-0.7l2.2-0.3c0.1,0,0.2,0,0.3,0.1
				c0.2-0.9,0.5-1.8,1-2.5c-0.1,0-0.2-0.1-0.2-0.1l-1.3-1.8c-0.3-0.3-0.3-0.7,0-1l0.5-0.5c0.3-0.3,0.7-0.3,1,0L51.9,6
				C52,6.1,52,6.2,52.1,6.2c0.8-0.5,1.6-0.9,2.5-1c0-0.1-0.1-0.2-0.1-0.3l0.3-2.2c0-0.4,0.3-0.7,0.7-0.7h0.7c0.4,0,0.7,0.3,0.7,0.7
				l0.4,2.2c0,0.1,0,0.2-0.1,0.3c0.9,0.2,1.7,0.5,2.5,1C59.9,6.2,60,6.1,60,6l1.8-1.3c0.3-0.3,0.7-0.3,1,0l0.5,0.5
				c0.3,0.3,0.3,0.7,0,1l-1.3,1.8c-0.1,0.1-0.1,0.1-0.2,0.1c0.5,0.8,0.9,1.6,1,2.5c0.1,0,0.2-0.1,0.3-0.1l2.2,0.3
				c0.4,0,0.7,0.3,0.7,0.7V12.5z"/>
		</g>
	</g>
	<path opacity="0.65" fill="#FFFFFF" d="M99.9,15c-1.7,0-3-1.3-3-3s1.3-3,3-3c1.7,0,3,1.3,3,3S101.5,15,99.9,15 M101.4,1l-2.5,0.2
		l-1.3,3.2l-1.7,0.5l-2.4-1.5l-2.3,1.9l1.5,2.9l-0.8,1.7l-3.3,1.1l0.3,2.7l3.6,0.8l0.4,1.6l-1.6,2.5l1.8,2.3l3.4-1.5l1.1,0.5
		l0.9,3.3l2.8,0l1-3.4l1.4-0.5l2.6,1.6l2.3-1.8l-1.6-3.1l0.6-1.6l3.4-1l-0.2-2.1l-3.3-1.5l-0.6-1.4l1.9-2.9l-2.1-2l-3,1.4L102,4.4
		L101.4,1"/>
	<g>
		<g>
			<path fill="#0089D9" d="M97.1,9.4c-1.5,1.6-1.5,4.1,0.1,5.6c1.6,1.5,4.2,1.5,5.7-0.1c1.5-1.6,1.5-4.1-0.1-5.6
				C101.2,7.7,98.7,7.8,97.1,9.4z M101.9,14c-1,1.1-2.7,1.1-3.8,0.1c-1.1-1-1.1-2.7-0.1-3.8c1-1.1,2.7-1.1,3.8-0.1
				C102.9,11.2,102.9,12.9,101.9,14z M110.5,9.6l-2-0.4c-0.1-0.3-0.3-0.7-0.4-1l1.1-1.7c0.6-0.6,0.6-1.5,0-2.1l-1.5-1.5
				c-0.6-0.6-1.5-0.6-2.1,0L103.9,4c-0.3-0.1-0.6-0.3-0.9-0.4l-0.4-2.1c0-0.8-0.7-1.5-1.5-1.5h-2.1c-0.8,0-1.5,0.7-1.5,1.5L97,3.7
				c-0.3,0.1-0.6,0.2-0.9,0.4l-1.7-1.2c-0.6-0.6-1.5-0.6-2.1,0l-1.5,1.5c-0.6,0.6-0.6,1.5,0,2.1l1.1,1.7c-0.2,0.3-0.3,0.6-0.4,1
				l-2,0.4c-0.8,0-1.5,0.7-1.5,1.5v2.1c0,0.8,0.7,1.5,1.5,1.5l2,0.4c0.1,0.3,0.2,0.6,0.4,1l-1.1,1.7c-0.6,0.6-0.6,1.5,0,2.1l1.5,1.5
				c0.6,0.6,1.5,0.6,2.1,0l1.7-1.1c0.3,0.1,0.6,0.3,1,0.4l0.4,2c0,0.8,0.7,1.5,1.5,1.5h2.1c0.8,0,1.5-0.7,1.5-1.5l0.4-2
				c0.3-0.1,0.7-0.3,1-0.4l1.7,1.1c0.6,0.6,1.5,0.6,2.1,0l1.5-1.5c0.6-0.6,0.6-1.5,0-2.1l-1.1-1.7c0.2-0.3,0.3-0.6,0.4-1l2-0.4
				c0.8,0,1.5-0.7,1.5-1.5v-2.1C112,10.2,111.3,9.6,110.5,9.6z M110,12.5c0,0.4-0.3,0.7-0.7,0.7l-2.2,0.4c-0.1,0-0.2,0-0.3-0.1
				c-0.2,0.9-0.5,1.7-1.1,2.5c0.1,0,0.2,0.1,0.3,0.2l1.3,1.8c0.3,0.3,0.3,0.7,0,1l-0.5,0.5c-0.3,0.3-0.7,0.3-1,0l-1.8-1.3
				c-0.1-0.1-0.1-0.2-0.2-0.3c-0.8,0.5-1.7,0.9-2.6,1c0.1,0.1,0.1,0.2,0.1,0.3l-0.4,2.2c0,0.4-0.3,0.7-0.7,0.7h-0.7
				c-0.4,0-0.7-0.3-0.7-0.7l-0.3-2.2c0-0.1,0-0.2,0.1-0.4c-0.9-0.2-1.8-0.5-2.6-1.1c0,0.1-0.1,0.2-0.2,0.3l-1.8,1.3
				c-0.3,0.3-0.7,0.3-1,0L92.6,19c-0.3-0.3-0.3-0.7,0-1l1.3-1.8c0.1-0.1,0.2-0.1,0.3-0.2c-0.5-0.8-0.9-1.6-1.1-2.5
				c-0.1,0.1-0.2,0.1-0.3,0.1l-2.2-0.4c-0.4,0-0.7-0.3-0.7-0.7v-0.7c0-0.4,0.3-0.7,0.7-0.7l2.2-0.3c0.1,0,0.2,0,0.3,0.1
				c0.2-0.9,0.5-1.8,1-2.5c-0.1,0-0.2-0.1-0.2-0.1l-1.3-1.8c-0.3-0.3-0.3-0.7,0-1l0.5-0.5c0.3-0.3,0.7-0.3,1,0L95.9,6
				C96,6.1,96,6.2,96.1,6.2c0.8-0.5,1.6-0.9,2.5-1c0-0.1-0.1-0.2-0.1-0.3l0.3-2.2c0-0.4,0.3-0.7,0.7-0.7h0.7c0.4,0,0.7,0.3,0.7,0.7
				l0.4,2.2c0,0.1,0,0.2-0.1,0.3c0.9,0.2,1.7,0.5,2.5,1c0-0.1,0.1-0.2,0.1-0.2l1.8-1.3c0.3-0.3,0.7-0.3,1,0l0.5,0.5
				c0.3,0.3,0.3,0.7,0,1l-1.3,1.8c-0.1,0.1-0.1,0.1-0.2,0.1c0.5,0.8,0.9,1.6,1,2.5c0.1,0,0.2-0.1,0.3-0.1l2.2,0.3
				c0.4,0,0.7,0.3,0.7,0.7V12.5z"/>
		</g>
	</g>
</g>
<g id="User_Setting">
</g>
<g id="User">
</g>
<g id="Guides" display="none" opacity="0.2">
	<rect display="inline" fill-rule="evenodd" clip-rule="evenodd" fill="#0089D9" width="24" height="24"/>
	<rect x="44" display="inline" fill-rule="evenodd" clip-rule="evenodd" fill="#0089D9" width="24" height="24"/>
	<rect x="88" display="inline" fill-rule="evenodd" clip-rule="evenodd" fill="#0089D9" width="24" height="24"/>
</g>
</svg>
