<?xml version="1.0" encoding="utf-8"?>
<!-- Generator: Adobe Illustrator 19.1.0, SVG Export Plug-In . SVG Version: 6.00 Build 0)  -->
<!DOCTYPE svg PUBLIC "-//W3C//DTD SVG 1.1//EN" "http://www.w3.org/Graphics/SVG/1.1/DTD/svg11.dtd">
<svg version="1.1" xmlns="http://www.w3.org/2000/svg" xmlns:xlink="http://www.w3.org/1999/xlink" x="0px" y="0px" width="112px"
	 height="24px" viewBox="0 0 112 24" enable-background="new 0 0 112 24" xml:space="preserve">
<g id="Tool">
</g>
<g id="Document_Production">
</g>
<g id="Location">
</g>
<g id="Calendar">
</g>
<g id="Library">
	<g>
		<g>
			<path fill-rule="evenodd" clip-rule="evenodd" fill="#FFFFFF" d="M22.5,2C21.7,2,17,2,17,2c-2.4,0-4,1.1-5,1.9C11,3.1,9.4,2,7,2
				c0,0-4.8,0-5.5,0C0.7,2,0,2.7,0,3.5c0,0.8,0,14.2,0,15C0,19.3,0.7,20,1.5,20C2.3,20,3,20,7,20c4,0,5,2,5,2s1-2,5-2
				c4,0,4.7,0,5.5,0c0.8,0,1.5-0.8,1.5-1.5c0-0.7,0-14.2,0-15C24,2.7,23.2,2,22.5,2z M11,19.1C9.9,18.5,8.6,18,7,18
				c-3.5,0-4.9,0-4.9,0c0,0-0.1-0.1-0.1-0.1V4.1C2,4.1,2.1,4,2.1,4H7c2.1,0,3.4,1.1,4,1.7V19.1z M22,17.9C22,17.9,22,18,22,17.9
				C21.9,18,20.5,18,17,18c-1.6,0-2.9,0.5-4,1.1V5.7C13.6,5.1,14.9,4,17,4h4.9c0,0,0.1,0.1,0.1,0.1V17.9z"/>
		</g>
	</g>
	<path opacity="0.65" fill-rule="evenodd" clip-rule="evenodd" fill="#FFFFFF" d="M65.6,2.7c-0.7,0-5.1,0-5.1,0
		c-2.2,0-3.7,1-4.6,1.8c-0.9-0.8-2.4-1.8-4.6-1.8c0,0-4.4,0-5.1,0c-0.7,0-1.4,0.6-1.4,1.4c0,0.8,0,13.2,0,13.9
		c0,0.7,0.6,1.4,1.4,1.4s1.4,0,5.1,0c3.7,0,4.6,1.8,4.6,1.8s0.9-1.8,4.6-1.8c3.7,0,4.3,0,5.1,0c0.7,0,1.4-0.7,1.4-1.4
		c0-0.7,0-13.1,0-13.9C67,3.4,66.3,2.7,65.6,2.7z"/>
	<g>
		<g>
			<path fill-rule="evenodd" clip-rule="evenodd" fill="#646464" d="M66.4,2c-0.8,0-5.5,0-5.5,0c-2.4,0-4,1.1-5,1.9
				c-1-0.9-2.6-1.9-5-1.9c0,0-4.8,0-5.5,0c-0.8,0-1.5,0.7-1.5,1.5c0,0.8,0,14.2,0,15c0,0.7,0.7,1.5,1.5,1.5c0.8,0,1.5,0,5.5,0
				c4,0,5,2,5,2s1-2,5-2c4,0,4.7,0,5.5,0c0.8,0,1.5-0.8,1.5-1.5c0-0.7,0-14.2,0-15C67.9,2.7,67.2,2,66.4,2z M54.9,19.1
				c-1.1-0.6-2.4-1.1-4-1.1c-3.5,0-4.9,0-4.9,0c0,0-0.1-0.1-0.1-0.1V4.1C46,4.1,46,4,46,4h4.9c2.1,0,3.4,1.1,4,1.7V19.1z M65.9,17.9
				C65.9,17.9,65.9,18,65.9,17.9c-0.1,0.1-1.5,0.1-5,0.1c-1.6,0-2.9,0.5-4,1.1V5.7c0.6-0.6,1.9-1.7,4-1.7h4.9c0,0,0.1,0.1,0.1,0.1
				V17.9z"/>
		</g>
	</g>
	<path opacity="0.65" fill-rule="evenodd" clip-rule="evenodd" fill="#FFFFFF" d="M109.7,2.7c-0.7,0-5.1,0-5.1,0
		c-2.2,0-3.7,1-4.6,1.8c-0.9-0.8-2.4-1.8-4.6-1.8c0,0-4.4,0-5.1,0c-0.7,0-1.4,0.6-1.4,1.4c0,0.8,0,13.2,0,13.9
		c0,0.7,0.6,1.4,1.4,1.4s1.4,0,5.1,0c3.7,0,4.6,1.8,4.6,1.8s0.9-1.8,4.6-1.8c3.7,0,4.3,0,5.1,0c0.7,0,1.4-0.7,1.4-1.4
		c0-0.7,0-13.1,0-13.9C111.1,3.4,110.4,2.7,109.7,2.7z"/>
	<g>
		<g>
			<path fill-rule="evenodd" clip-rule="evenodd" fill="#0089D9" d="M110.5,2c-0.8,0-5.5,0-5.5,0c-2.4,0-4,1.1-5,1.9
				C99,3.1,97.4,2,95,2c0,0-4.8,0-5.5,0C88.7,2,88,2.7,88,3.5v15c0,0.7,0.7,1.5,1.5,1.5c0.8,0,1.5,0,5.5,0c4,0,5,2,5,2s1-2,5-2
				c4,0,4.7,0,5.5,0c0.8,0,1.5-0.8,1.5-1.5v-15C112,2.7,111.2,2,110.5,2z M99,19.1c-1.1-0.6-2.4-1.1-4-1.1c-3.5,0-4.9,0-4.9,0
				c0,0-0.1-0.1-0.1-0.1V4.1c0,0,0.1-0.1,0.1-0.1H95c2.1,0,3.4,1.1,4,1.7V19.1z M110,17.9C110,17.9,109.9,18,110,17.9
				c-0.1,0.1-1.5,0.1-5,0.1c-1.6,0-2.9,0.5-4,1.1V5.7c0.6-0.6,1.9-1.7,4-1.7h4.9c0,0,0.1,0.1,0.1,0.1V17.9z"/>
		</g>
	</g>
</g>
<g id="Home">
</g>
<g id="Message">
</g>
<g id="Shopping_Cart">
</g>
<g id="Logout">
</g>
<g id="Search">
</g>
<g id="Information">
</g>
<g id="Help">
</g>
<g id="Settings">
</g>
<g id="User_Setting">
</g>
<g id="User">
</g>
<g id="Guides" display="none" opacity="0.2">
	<rect display="inline" fill-rule="evenodd" clip-rule="evenodd" fill="#0089D9" width="24" height="24"/>
	<rect x="44" display="inline" fill-rule="evenodd" clip-rule="evenodd" fill="#0089D9" width="24" height="24"/>
	<rect x="88" display="inline" fill-rule="evenodd" clip-rule="evenodd" fill="#0089D9" width="24" height="24"/>
</g>
</svg>
