<?xml version="1.0" encoding="utf-8"?>
<!-- Generator: Adobe Illustrator 19.1.0, SVG Export Plug-In . SVG Version: 6.00 Build 0)  -->
<!DOCTYPE svg PUBLIC "-//W3C//DTD SVG 1.1//EN" "http://www.w3.org/Graphics/SVG/1.1/DTD/svg11.dtd">
<svg version="1.1" xmlns="http://www.w3.org/2000/svg" xmlns:xlink="http://www.w3.org/1999/xlink" x="0px" y="0px" width="112px"
	 height="24px" viewBox="0 0 112 24" enable-background="new 0 0 112 24" xml:space="preserve">
<g id="Tool">
</g>
<g id="Document_Production">
</g>
<g id="Location">
</g>
<g id="Calendar">
</g>
<g id="Library">
</g>
<g id="Home">
</g>
<g id="Message">
</g>
<g id="Shopping_Cart">
</g>
<g id="Logout">
	<g>
		<g>
			<path fill-rule="evenodd" clip-rule="evenodd" fill="#FFFFFF" d="M16.7,2.1c-1.5-0.5-2.1,0.7-1.3,1.6C18.7,5,21,8.2,21,12
				c0,5-4,9-9,9c-5,0-9-4-9-9c0-3.7,2.3-6.9,5.5-8.3c0.8-0.9,0.3-2-1.1-1.7C3.6,3.8,1,7.6,1,12c0,6.1,4.9,11,11,11
				c6.1,0,11-4.9,11-11C23.1,7.6,20.5,3.8,16.7,2.1z M12,13c0.6,0,1-0.4,1-1V1c0-0.6-0.4-1-1-1c-0.6,0-1,0.4-1,1v11
				C11,12.6,11.5,13,12,13z"/>
		</g>
	</g>
	<path opacity="0.65" fill-rule="evenodd" clip-rule="evenodd" fill="#FFFFFF" d="M55.9,1.7c5.7,0,10.4,4.6,10.4,10.3
		c0,5.7-4.6,10.3-10.4,10.3c-5.7,0-10.4-4.6-10.4-10.3C45.5,6.3,50.2,1.7,55.9,1.7z"/>
	<g>
		<g>
			<path fill-rule="evenodd" clip-rule="evenodd" fill="#646464" d="M60.6,2.1c-1.5-0.5-2.1,0.7-1.3,1.6c3.3,1.3,5.6,4.6,5.6,8.3
				c0,5-4,9-9,9c-5,0-9-4-9-9c0-3.7,2.3-6.9,5.5-8.3c0.8-0.9,0.3-2-1.1-1.7c-3.8,1.7-6.4,5.6-6.4,10c0,6.1,4.9,11,11,11
				c6.1,0,11-4.9,11-11C66.9,7.6,64.4,3.8,60.6,2.1z M55.9,13c0.6,0,1-0.4,1-1V1c0-0.6-0.4-1-1-1c-0.6,0-1,0.4-1,1v11
				C54.9,12.6,55.3,13,55.9,13z"/>
		</g>
	</g>
	<path opacity="0.65" fill-rule="evenodd" clip-rule="evenodd" fill="#FFFFFF" d="M100,1.7c5.7,0,10.4,4.6,10.4,10.3
		c0,5.7-4.6,10.3-10.4,10.3c-5.7,0-10.4-4.6-10.4-10.3C89.7,6.3,94.3,1.7,100,1.7z"/>
	<g>
		<g>
			<path fill-rule="evenodd" clip-rule="evenodd" fill="#0089D9" d="M104.7,2.1c-1.5-0.5-2.1,0.7-1.3,1.6C106.7,5,109,8.2,109,12
				c0,5-4,9-9,9c-5,0-9-4-9-9c0-3.7,2.3-6.9,5.5-8.3c0.8-0.9,0.3-2-1.1-1.7C91.6,3.8,89,7.6,89,12c0,6.1,4.9,11,11,11
				c6.1,0,11-4.9,11-11C111.1,7.6,108.5,3.8,104.7,2.1z M100,13c0.6,0,1-0.4,1-1V1c0-0.6-0.4-1-1-1c-0.6,0-1,0.4-1,1v11
				C99,12.6,99.4,13,100,13z"/>
		</g>
	</g>
</g>
<g id="Search">
</g>
<g id="Information">
</g>
<g id="Help">
</g>
<g id="Settings">
</g>
<g id="User_Setting">
</g>
<g id="User">
</g>
<g id="Guides" display="none" opacity="0.2">
	<rect display="inline" fill-rule="evenodd" clip-rule="evenodd" fill="#0089D9" width="24" height="24"/>
	<rect x="44" display="inline" fill-rule="evenodd" clip-rule="evenodd" fill="#0089D9" width="24" height="24"/>
	<rect x="88" display="inline" fill-rule="evenodd" clip-rule="evenodd" fill="#0089D9" width="24" height="24"/>
</g>
</svg>
