<?xml version="1.0" encoding="utf-8"?>
<!-- Generator: Adobe Illustrator 19.1.0, SVG Export Plug-In . SVG Version: 6.00 Build 0)  -->
<!DOCTYPE svg PUBLIC "-//W3C//DTD SVG 1.1//EN" "http://www.w3.org/Graphics/SVG/1.1/DTD/svg11.dtd">
<svg version="1.1" xmlns="http://www.w3.org/2000/svg" xmlns:xlink="http://www.w3.org/1999/xlink" x="0px" y="0px" width="39px"
	 height="7px" viewBox="0 0 39 7" enable-background="new 0 0 39 7" xml:space="preserve">
<g id="Green">
</g>
<g id="Blue_1_">
	<g>
		<g opacity="0.15">
			<polygon fill-rule="evenodd" clip-rule="evenodd" points="39,1.7 38.3,1 34.5,4.8 30.8,1 30,1.7 34.5,6.2 35.2,5.5 35.2,5.5 			
				"/>
		</g>
		<g>
			<g>
				<polygon fill-rule="evenodd" clip-rule="evenodd" fill="#0089D9" points="39,0.7 38.3,0 34.5,3.8 30.8,0 30,0.7 34.5,5.2 
					35.2,4.5 35.2,4.5 				"/>
			</g>
		</g>
	</g>
</g>
<g id="Grey_1_">
	<g>
		<g opacity="0.15">
			<polygon fill-rule="evenodd" clip-rule="evenodd" points="24,1.7 23.3,1 19.5,4.8 15.8,1 15.1,1.7 19.5,6.2 20.2,5.5 20.2,5.5 
							"/>
		</g>
		<g>
			<g>
				<polygon fill-rule="evenodd" clip-rule="evenodd" fill="#282828" points="24,0.7 23.3,0 19.5,3.8 15.8,0 15.1,0.7 19.5,5.2 
					20.2,4.5 20.2,4.5 				"/>
			</g>
		</g>
	</g>
</g>
<g id="White">
	<g>
		<g opacity="0.15">
			<polygon fill-rule="evenodd" clip-rule="evenodd" points="9,1.7 8.2,1 4.5,4.8 0.7,1 0,1.7 4.5,6.2 5.2,5.5 5.2,5.5 			"/>
		</g>
		<g>
			<g>
				<polygon fill-rule="evenodd" clip-rule="evenodd" fill="#FFFFFF" points="9,0.7 8.2,0 4.5,3.8 0.7,0 0,0.7 4.5,5.2 5.2,4.5 
					5.2,4.5 				"/>
			</g>
		</g>
	</g>
</g>
</svg>
