<?xml version="1.0" encoding="utf-8"?>
<!-- Generator: Adobe Illustrator 19.1.0, SVG Export Plug-In . SVG Version: 6.00 Build 0)  -->
<!DOCTYPE svg PUBLIC "-//W3C//DTD SVG 1.1//EN" "http://www.w3.org/Graphics/SVG/1.1/DTD/svg11.dtd">
<svg version="1.1" xmlns="http://www.w3.org/2000/svg" xmlns:xlink="http://www.w3.org/1999/xlink" x="0px" y="0px" width="33px"
	 height="6px" viewBox="0 0 33 6" enable-background="new 0 0 33 6" xml:space="preserve">
<g id="Blue">
	<g>
		<g opacity="0.15">
			<polygon fill-rule="evenodd" clip-rule="evenodd" points="33,1.7 32.3,1 29.5,3.8 26.8,1 26.1,1.7 29.5,5.2 30.2,4.5 30.2,4.5 
							"/>
		</g>
		<g>
			<g>
				<polygon fill-rule="evenodd" clip-rule="evenodd" fill="#0089D9" points="33,0.7 32.3,0 29.5,2.8 26.8,0 26.1,0.7 29.5,4.2 
					30.2,3.5 30.2,3.5 				"/>
			</g>
		</g>
	</g>
</g>
<g id="Grey_1_">
	<g>
		<g opacity="0.15">
			<polygon fill-rule="evenodd" clip-rule="evenodd" points="20.1,1.7 19.3,1 16.6,3.8 13.8,1 13.1,1.7 16.6,5.2 17.3,4.5 17.3,4.5 
							"/>
		</g>
		<g>
			<g>
				<polygon fill-rule="evenodd" clip-rule="evenodd" fill="#282828" points="20.1,0.7 19.3,0 16.6,2.8 13.8,0 13.1,0.7 16.6,4.2 
					17.3,3.5 17.3,3.5 				"/>
			</g>
		</g>
	</g>
</g>
<g id="White">
	<g>
		<g opacity="0.15">
			<polygon fill-rule="evenodd" clip-rule="evenodd" points="7,1.7 6.3,1 3.5,3.8 0.8,1 0.1,1.7 3.5,5.2 4.2,4.5 4.2,4.5 			"/>
		</g>
		<g>
			<g>
				<polygon fill-rule="evenodd" clip-rule="evenodd" fill="#FFFFFF" points="7,0.7 6.3,0 3.5,2.8 0.8,0 0.1,0.7 3.5,4.2 4.2,3.5 
					4.2,3.5 				"/>
			</g>
		</g>
	</g>
</g>
</svg>
