<?xml version="1.0" encoding="utf-8"?>
<!-- Generator: Adobe Illustrator 19.1.0, SVG Export Plug-In . SVG Version: 6.00 Build 0)  -->
<!DOCTYPE svg PUBLIC "-//W3C//DTD SVG 1.1//EN" "http://www.w3.org/Graphics/SVG/1.1/DTD/svg11.dtd">
<svg version="1.1" xmlns="http://www.w3.org/2000/svg" xmlns:xlink="http://www.w3.org/1999/xlink" x="0px" y="0px" width="62px"
	 height="8px" viewBox="0 0 62 8" enable-background="new 0 0 62 8" xml:space="preserve">
<g id="Green">
	<g>
		<g opacity="0.15">
			<polygon fill-rule="evenodd" clip-rule="evenodd" points="62,1.7 61.3,1 56.5,5.8 51.7,1 51,1.7 56.5,7.2 56.5,7.2 56.5,7.2 			
				"/>
		</g>
		<g>
			<g>
				<polygon fill-rule="evenodd" clip-rule="evenodd" fill="#68A611" points="62,0.7 61.3,0 56.5,4.8 51.7,0 51,0.7 56.5,6.2 
					56.5,6.2 56.5,6.2 				"/>
			</g>
		</g>
	</g>
</g>
<g id="Blue">
	<g>
		<g opacity="0.15">
			<polygon fill-rule="evenodd" clip-rule="evenodd" points="45,1.7 44.3,1 39.5,5.8 34.7,1 34,1.7 39.5,7.2 39.5,7.2 39.5,7.2 			
				"/>
		</g>
		<g>
			<g>
				<polygon fill-rule="evenodd" clip-rule="evenodd" fill="#0089D9" points="45,0.7 44.3,0 39.5,4.8 34.7,0 34,0.7 39.5,6.2 
					39.5,6.2 39.5,6.2 				"/>
			</g>
		</g>
	</g>
</g>
<g id="Grey_1_">
	<g>
		<g opacity="0.15">
			<polygon fill-rule="evenodd" clip-rule="evenodd" points="28,1.7 27.3,1 22.5,5.8 17.7,1 17,1.7 21.8,6.5 21.8,6.5 22.5,7.2 
				22.5,7.2 22.5,7.2 23.2,6.5 23.2,6.5 			"/>
		</g>
		<g>
			<g>
				<polygon fill-rule="evenodd" clip-rule="evenodd" fill="#282828" points="28,0.7 27.3,0 22.5,4.8 17.7,0 17,0.7 21.8,5.5 
					21.8,5.5 22.5,6.2 22.5,6.2 22.5,6.2 23.2,5.5 23.2,5.5 				"/>
			</g>
		</g>
	</g>
</g>
<g id="White">
	<g>
		<g opacity="0.15">
			<polygon fill-rule="evenodd" clip-rule="evenodd" points="11,1.7 10.3,1 5.5,5.8 0.7,1 0,1.7 4.8,6.5 4.8,6.5 5.5,7.2 5.5,7.2 
				5.5,7.2 6.2,6.5 6.2,6.5 			"/>
		</g>
		<g>
			<g>
				<polygon fill-rule="evenodd" clip-rule="evenodd" fill="#FFFFFF" points="11,0.7 10.3,0 5.5,4.8 0.7,0 0,0.7 4.8,5.5 4.8,5.5 
					5.5,6.2 5.5,6.2 5.5,6.2 6.2,5.5 6.2,5.5 				"/>
			</g>
		</g>
	</g>
</g>
</svg>
