<?xml version="1.0" encoding="utf-8"?>
<!-- Generator: Adobe Illustrator 19.1.0, SVG Export Plug-In . SVG Version: 6.00 Build 0)  -->
<!DOCTYPE svg PUBLIC "-//W3C//DTD SVG 1.1//EN" "http://www.w3.org/Graphics/SVG/1.1/DTD/svg11.dtd">
<svg version="1.1" xmlns="http://www.w3.org/2000/svg" xmlns:xlink="http://www.w3.org/1999/xlink" x="0px" y="0px" width="11px"
	 height="30px" viewBox="0 0 11 30" enable-background="new 0 0 11 30" xml:space="preserve">
<g id="Grey_1_">
	<g>
		<g opacity="0.15">
			<path fill-rule="evenodd" clip-rule="evenodd" d="M6.3,24.6l3.7-3.7c0.2-0.2,0.2-0.5,0-0.7c-0.2-0.2-0.5-0.2-0.7,0l-3.7,3.7
				l-3.7-3.7c-0.2-0.2-0.5-0.2-0.7,0c-0.2,0.2-0.2,0.5,0,0.7l3.7,3.7l-3.7,3.7c-0.2,0.2-0.2,0.5,0,0.7c0.2,0.2,0.5,0.2,0.7,0
				l3.7-3.7l3.7,3.7c0.2,0.2,0.5,0.2,0.7,0c0.2-0.2,0.2-0.5,0-0.7L6.3,24.6z"/>
		</g>
		<g>
			<g>
				<path fill-rule="evenodd" clip-rule="evenodd" fill="#646464" d="M6.3,23.6l3.7-3.7c0.2-0.2,0.2-0.5,0-0.7
					c-0.2-0.2-0.5-0.2-0.7,0l-3.7,3.7l-3.7-3.7c-0.2-0.2-0.5-0.2-0.7,0c-0.2,0.2-0.2,0.5,0,0.7l3.7,3.7l-3.7,3.7
					c-0.2,0.2-0.2,0.5,0,0.7c0.2,0.2,0.5,0.2,0.7,0l3.7-3.7l3.7,3.7c0.2,0.2,0.5,0.2,0.7,0c0.2-0.2,0.2-0.5,0-0.7L6.3,23.6z"/>
			</g>
		</g>
	</g>
</g>
<g id="White">
	<g>
		<g opacity="0.15">
			<path fill-rule="evenodd" clip-rule="evenodd" d="M6.3,5.6L10,1.9c0.2-0.2,0.2-0.5,0-0.7C9.8,1,9.4,1,9.2,1.1L5.6,4.8L1.9,1.1
				C1.7,1,1.3,1,1.1,1.1C1,1.3,1,1.7,1.1,1.9l3.7,3.7L1.2,9.2C1,9.4,1,9.7,1.2,9.9c0.2,0.2,0.5,0.2,0.7,0l3.7-3.7l3.7,3.7
				c0.2,0.2,0.5,0.2,0.7,0c0.2-0.2,0.2-0.5,0-0.7L6.3,5.6z"/>
		</g>
		<g>
			<g>
				<path fill-rule="evenodd" clip-rule="evenodd" fill="#FFFFFF" d="M6.3,4.6L10,0.9c0.2-0.2,0.2-0.5,0-0.7C9.8,0,9.4,0,9.2,0.1
					L5.6,3.8L1.9,0.1C1.7,0,1.3,0,1.1,0.1C1,0.3,1,0.7,1.1,0.9l3.7,3.7L1.2,8.2C1,8.4,1,8.7,1.2,8.9c0.2,0.2,0.5,0.2,0.7,0l3.7-3.7
					l3.7,3.7c0.2,0.2,0.5,0.2,0.7,0c0.2-0.2,0.2-0.5,0-0.7L6.3,4.6z"/>
			</g>
		</g>
	</g>
</g>
</svg>
