<?xml version="1.0" encoding="utf-8"?>
<!-- Generator: Adobe Illustrator 19.1.0, SVG Export Plug-In . SVG Version: 6.00 Build 0)  -->
<!DOCTYPE svg PUBLIC "-//W3C//DTD SVG 1.1//EN" "http://www.w3.org/Graphics/SVG/1.1/DTD/svg11.dtd">
<svg version="1.1" xmlns="http://www.w3.org/2000/svg" xmlns:xlink="http://www.w3.org/1999/xlink" x="0px" y="0px" width="44px"
	 height="120px" viewBox="0 0 44 120" enable-background="new 0 0 44 120" xml:space="preserve">
<g id="Pressed">
	<g>
		<g>
			<polygon fill-rule="evenodd" clip-rule="evenodd" fill="#282828" points="11.5,97.5 10,96 0,107 10,118 11.5,116.5 2.9,107 			
				"/>
		</g>
	</g>
	<g>
		<g>
			<polygon fill-rule="evenodd" clip-rule="evenodd" fill="#282828" points="33.5,96 32,97.5 40.6,107 32,116.5 33.5,118 43.5,107 
							"/>
		</g>
	</g>
</g>
<g id="Hover">
	<g>
		<g opacity="0.15">
			<polygon fill-rule="evenodd" clip-rule="evenodd" points="11.5,67.5 10,66 0,77 10,88 11.5,86.5 2.9,77 			"/>
		</g>
		<g>
			<g opacity="0.8">
				<polygon fill-rule="evenodd" clip-rule="evenodd" fill="#737373" points="11.5,65.5 10,64 0,75 10,86 11.5,84.5 2.9,75 				"/>
			</g>
		</g>
	</g>
	<g>
		<g opacity="0.15">
			<polygon fill-rule="evenodd" clip-rule="evenodd" points="33.5,66 32,67.5 40.6,77 32,86.5 33.5,88 43.5,77 			"/>
		</g>
		<g>
			<g opacity="0.8">
				<polygon fill-rule="evenodd" clip-rule="evenodd" fill="#737373" points="33.5,64 32,65.5 40.6,75 32,84.5 33.5,86 43.5,75 				
					"/>
			</g>
		</g>
	</g>
</g>
<g id="Disabled">
	<g>
		<g opacity="0.5">
			<polygon fill-rule="evenodd" clip-rule="evenodd" fill="#A0A0A0" points="11.5,33.5 10,32 0,43 10,54 11.5,52.5 2.9,43 			"/>
		</g>
	</g>
	<g>
		<g opacity="0.5">
			<polygon fill-rule="evenodd" clip-rule="evenodd" fill="#A0A0A0" points="33.5,32 32,33.5 40.6,43 32,52.5 33.5,54 43.5,43 			
				"/>
		</g>
	</g>
</g>
<g id="Normal">
	<g>
		<g opacity="0.15">
			<polygon fill-rule="evenodd" clip-rule="evenodd" points="11.5,3.5 10,2 0,13 10,24 11.5,22.5 2.9,13 			"/>
		</g>
		<g>
			<g>
				<polygon fill-rule="evenodd" clip-rule="evenodd" fill="#5A5A5A" points="11.5,1.5 10,0 0,11 10,22 11.5,20.5 2.9,11 				"/>
			</g>
		</g>
	</g>
	<g>
		<g opacity="0.15">
			<polygon fill-rule="evenodd" clip-rule="evenodd" points="33.5,2 32,3.5 40.6,13 32,22.5 33.5,24 43.5,13 			"/>
		</g>
		<g>
			<g>
				<polygon fill-rule="evenodd" clip-rule="evenodd" fill="#5A5A5A" points="33.5,0 32,1.5 40.6,11 32,20.5 33.5,22 43.5,11 				
					"/>
			</g>
		</g>
	</g>
</g>
<g id="Guides" display="none">
	<rect display="inline" fill-rule="evenodd" clip-rule="evenodd" fill="#0089D9" fill-opacity="0.2" width="12" height="24"/>
	
		<rect y="32" display="inline" fill-rule="evenodd" clip-rule="evenodd" fill="#0089D9" fill-opacity="0.2" width="12" height="24"/>
	
		<rect y="64" display="inline" fill-rule="evenodd" clip-rule="evenodd" fill="#0089D9" fill-opacity="0.2" width="12" height="24"/>
	
		<rect y="96" display="inline" fill-rule="evenodd" clip-rule="evenodd" fill="#0089D9" fill-opacity="0.2" width="12" height="24"/>
	
		<rect x="32" display="inline" fill-rule="evenodd" clip-rule="evenodd" fill="#0089D9" fill-opacity="0.2" width="12" height="24"/>
	
		<rect x="32" y="32" display="inline" fill-rule="evenodd" clip-rule="evenodd" fill="#0089D9" fill-opacity="0.2" width="12" height="24"/>
	
		<rect x="32" y="64" display="inline" fill-rule="evenodd" clip-rule="evenodd" fill="#0089D9" fill-opacity="0.2" width="12" height="24"/>
	
		<rect x="32" y="96" display="inline" fill-rule="evenodd" clip-rule="evenodd" fill="#0089D9" fill-opacity="0.2" width="12" height="24"/>
</g>
</svg>
