<?xml version="1.0" encoding="utf-8"?>
<!-- Generator: Adobe Illustrator 19.1.0, SVG Export Plug-In . SVG Version: 6.00 Build 0)  -->
<!DOCTYPE svg PUBLIC "-//W3C//DTD SVG 1.1//EN" "http://www.w3.org/Graphics/SVG/1.1/DTD/svg11.dtd">
<svg version="1.1" xmlns="http://www.w3.org/2000/svg" xmlns:xlink="http://www.w3.org/1999/xlink" x="0px" y="0px" width="26px"
	 height="66px" viewBox="0 0 26 66" enable-background="new 0 0 26 66" xml:space="preserve">
<g id="Hover">
	<g>
		<g>
			<polygon fill-rule="evenodd" clip-rule="evenodd" fill="#787878" points="7,55.2 6.3,54.5 1.1,59.7 1.1,59.7 1.1,59.8 6.3,65 
				7,64.3 2.4,59.7 			"/>
		</g>
	</g>
	<g>
		<g>
			<polygon fill-rule="evenodd" clip-rule="evenodd" fill="#787878" points="25,59.7 19.8,54.5 19.1,55.2 23.6,59.7 19.1,64.3 
				19.8,65 25,59.8 25,59.7 			"/>
		</g>
	</g>
</g>
<g id="Normal_1_">
	<g>
		<g>
			<polygon fill-rule="evenodd" clip-rule="evenodd" fill="#282828" points="7,37.2 6.3,36.5 1.1,41.7 1.1,41.7 1.1,41.8 6.3,47 
				7,46.3 2.4,41.7 			"/>
		</g>
	</g>
	<g>
		<g>
			<polygon fill-rule="evenodd" clip-rule="evenodd" fill="#282828" points="19.1,37.2 19.8,36.5 25,41.7 25,41.7 25,41.8 19.8,47 
				19.1,46.3 23.6,41.7 			"/>
		</g>
	</g>
</g>
<g id="Hover_1_">
	<g>
		<g>
			<path fill-rule="evenodd" clip-rule="evenodd" fill="#787878" d="M7.5,19.4l-0.7-0.7L1.5,24l0,0l0,0l5.2,5.2l0.7-0.7L2.9,24
				L7.5,19.4z M0.5,18C0.2,18,0,18.2,0,18.5v11C0,29.8,0.2,30,0.5,30C0.8,30,1,29.8,1,29.5v-11C1,18.2,0.8,18,0.5,18z"/>
		</g>
	</g>
	<g>
		<g>
			<path fill-rule="evenodd" clip-rule="evenodd" fill="#787878" d="M19.2,18.7l-0.7,0.7l4.6,4.6l-4.6,4.6l0.7,0.7l5.2-5.2l0,0l0,0
				L19.2,18.7z M25.5,18c-0.3,0-0.5,0.2-0.5,0.5v11c0,0.3,0.2,0.5,0.5,0.5c0.3,0,0.5-0.2,0.5-0.5v-11C26,18.2,25.8,18,25.5,18z"/>
		</g>
	</g>
</g>
<g id="Normal">
	<g>
		<g>
			<path fill-rule="evenodd" clip-rule="evenodd" fill="#282828" d="M7.5,1.4L6.8,0.7L1.5,6l0,0l0,0l5.2,5.2l0.7-0.7L2.9,6L7.5,1.4z
				 M0.5,0C0.2,0,0,0.2,0,0.5v11C0,11.8,0.2,12,0.5,12C0.8,12,1,11.8,1,11.5v-11C1,0.2,0.8,0,0.5,0z"/>
		</g>
	</g>
	<g>
		<g>
			<path fill-rule="evenodd" clip-rule="evenodd" fill="#282828" d="M19.2,0.7l-0.7,0.7L23.1,6l-4.6,4.6l0.7,0.7L24.5,6l0,0l0,0
				L19.2,0.7z M25.5,0C25.2,0,25,0.2,25,0.5v11c0,0.3,0.2,0.5,0.5,0.5c0.3,0,0.5-0.2,0.5-0.5v-11C26,0.2,25.8,0,25.5,0z"/>
		</g>
	</g>
</g>
<g id="Guides" display="none">
	<rect display="inline" fill-rule="evenodd" clip-rule="evenodd" fill="#0089D9" fill-opacity="0.2" width="8" height="12"/>
	
		<rect x="18" y="0" display="inline" fill-rule="evenodd" clip-rule="evenodd" fill="#0089D9" fill-opacity="0.2" width="8" height="12"/>
	<rect x="18" display="inline" fill-rule="evenodd" clip-rule="evenodd" fill="#0089D9" fill-opacity="0.2" width="8" height="12"/>
	<rect y="18" display="inline" fill-rule="evenodd" clip-rule="evenodd" fill="#0089D9" fill-opacity="0.2" width="8" height="12"/>
	
		<rect x="18" y="18" display="inline" fill-rule="evenodd" clip-rule="evenodd" fill="#0089D9" fill-opacity="0.2" width="8" height="12"/>
	<rect y="36" display="inline" fill-rule="evenodd" clip-rule="evenodd" fill="#0089D9" fill-opacity="0.2" width="8" height="12"/>
	
		<rect x="18" y="36" display="inline" fill-rule="evenodd" clip-rule="evenodd" fill="#0089D9" fill-opacity="0.2" width="8" height="12"/>
	<rect y="54" display="inline" fill-rule="evenodd" clip-rule="evenodd" fill="#0089D9" fill-opacity="0.2" width="8" height="12"/>
	
		<rect x="18" y="54" display="inline" fill-rule="evenodd" clip-rule="evenodd" fill="#0089D9" fill-opacity="0.2" width="8" height="12"/>
</g>
</svg>
