<?xml version="1.0" encoding="utf-8"?>
<!-- Generator: Adobe Illustrator 19.1.0, SVG Export Plug-In . SVG Version: 6.00 Build 0)  -->
<!DOCTYPE svg PUBLIC "-//W3C//DTD SVG 1.1//EN" "http://www.w3.org/Graphics/SVG/1.1/DTD/svg11.dtd">
<svg version="1.1" id="Search_Large" xmlns="http://www.w3.org/2000/svg" xmlns:xlink="http://www.w3.org/1999/xlink" x="0px"
	 y="0px" width="36px" height="11px" viewBox="0 0 36 11" enable-background="new 0 0 36 11" xml:space="preserve">
<g>
	<g>
		<path fill-rule="evenodd" clip-rule="evenodd" fill="#FFFFFF" d="M2.4,6.5l0.8-0.2c-0.3-1.1,0-2.9,1.4-3.2L4.2,2.3
			C1.9,2.8,1.9,5.5,2.4,6.5z M9,8L8.9,8.1C9.6,7.3,10,6.2,10,5c0-2.8-2.2-5-5-5C2.2,0,0,2.2,0,5s2.2,5,5,5c1.2,0,2.3-0.4,3.1-1.1
			L8,9l2,2h1v-1L9,8z M5,9C2.8,9,1,7.2,1,5c0-2.2,1.8-4,4-4c2.2,0,4,1.8,4,4C9,7.2,7.2,9,5,9z"/>
	</g>
</g>
<g>
	<g>
		<path fill-rule="evenodd" clip-rule="evenodd" fill="#737373" d="M27.4,6.5l0.8-0.2c-0.3-1.1,0-2.9,1.4-3.2l-0.3-0.8
			C26.9,2.8,26.9,5.5,27.4,6.5z M34,8l-0.1,0.1C34.6,7.3,35,6.2,35,5c0-2.8-2.2-5-5-5c-2.8,0-5,2.2-5,5s2.2,5,5,5
			c1.2,0,2.3-0.4,3.1-1.1L33,9l2,2h1v-1L34,8z M30,9c-2.2,0-4-1.8-4-4c0-2.2,1.8-4,4-4c2.2,0,4,1.8,4,4C34,7.2,32.2,9,30,9z"/>
	</g>
</g>
</svg>
