<?xml version="1.0" encoding="utf-8"?>
<!-- Generator: Adobe Illustrator 19.1.0, SVG Export Plug-In . SVG Version: 6.00 Build 0)  -->
<!DOCTYPE svg PUBLIC "-//W3C//DTD SVG 1.1//EN" "http://www.w3.org/Graphics/SVG/1.1/DTD/svg11.dtd">
<svg version="1.1" id="Search_Large" xmlns="http://www.w3.org/2000/svg" xmlns:xlink="http://www.w3.org/1999/xlink" x="0px"
	 y="0px" width="20px" height="20px" viewBox="0 0 20 20" enable-background="new 0 0 20 20" xml:space="preserve">
<g>
	<g>
		<path fill-rule="evenodd" clip-rule="evenodd" fill="#FFFFFF" d="M4.6,12.9C3.2,9.3,4.9,5.5,6.9,4.3C2.7,4.6,1.8,11,4.6,12.9z
			 M19.7,18.2L17,15.4c1.3-1.6,2-3.7,2-5.9C19,4.3,14.7,0,9.5,0C4.3,0,0,4.3,0,9.5C0,14.7,4.3,19,9.5,19c2.2,0,4.3-0.8,5.9-2.1
			l2.8,2.8c0.4,0.4,1.1,0.3,1.4-0.1C20.1,19.3,20.1,18.6,19.7,18.2z M9.5,17C5.3,17,2,13.7,2,9.5C2,5.3,5.3,2,9.5,2
			C13.7,2,17,5.3,17,9.5C17,13.7,13.7,17,9.5,17z"/>
	</g>
</g>
</svg>
