<?xml version="1.0" encoding="utf-8"?>
<!-- Generator: Adobe Illustrator 19.1.0, SVG Export Plug-In . SVG Version: 6.00 Build 0)  -->
<!DOCTYPE svg PUBLIC "-//W3C//DTD SVG 1.1//EN" "http://www.w3.org/Graphics/SVG/1.1/DTD/svg11.dtd">
<svg version="1.1" id="Layer_1" xmlns="http://www.w3.org/2000/svg" xmlns:xlink="http://www.w3.org/1999/xlink" x="0px" y="0px"
	 viewBox="0 0 90 20" enable-background="new 0 0 90 20" xml:space="preserve">
<g>
	<path d="M84.6,19l-1.9-7.8C82.2,9.2,82.2,9,82.2,9s-0.2,1.4-0.4,2.1l-2,7.8h-3.7l4.5-16.3h2.9L88.3,19H84.6z"/>
	<path d="M33.3,2.6l1.9,7.8c0.4,2,0.4,2.1,0.4,2.1s0-0.1,0.4-2.2l2-7.8h3.7L37.2,19h-2.9L29.6,2.6H33.3z"/>
	<path d="M47.4,2.6V19h-3.5V2.6H47.4z"/>
	<path d="M65.6,2.6l1.4,8.8l1.2-8.8h4.6L74.6,19H71L70.3,8.5l-0.4,2.8L68.5,19h-2.8l-1.6-7.8l-0.4-2.4L63.4,19h-3.7l1.4-16.3H65.6z"
		/>
	<path d="M55.4,2.6c-0.6,0.4-1,1.1-1.3,1.8c-0.8,2,0.1,3.6,0.9,5c0.1,0.2,0.2,0.4,0.3,0.6c1.7,3,2.4,5.2,1.1,8.3
		c-0.1,0.2-0.3,0.6-0.3,0.6H52c0.4-0.3,0.9-0.9,1.2-1.5c0.9-2.2-0.2-4.1-1.2-6c-1.2-2.3-2.5-4.7-1.1-7.9c0.1-0.3,0.4-0.8,0.4-0.8
		H55.4z"/>
	<path d="M88.1,3.7c-0.9,0-1.6-0.7-1.6-1.6c0-0.9,0.7-1.6,1.6-1.6c0.9,0,1.6,0.7,1.6,1.6C89.6,3,88.9,3.7,88.1,3.7z M88.1,0.2
		c-1.1,0-2,0.9-2,2c0,1.1,0.9,2,2,2c1.1,0,1.9-0.9,1.9-2C90,1.1,89.1,0.2,88.1,0.2z M87.8,2.3h0.1c0.4,0,0.4,0.2,0.4,0.5
		c0,0.2,0,0.3,0.1,0.4h0.5c0-0.1-0.1-0.5-0.1-0.7c0-0.4-0.3-0.4-0.5-0.4v0c0.3-0.1,0.5-0.3,0.5-0.6c0-0.4-0.2-0.6-0.6-0.6h-1v2.3
		h0.5V2.3z M87.8,1.4H88c0.2,0,0.3,0.1,0.3,0.3C88.3,1.8,88.2,2,88,2h-0.2V1.4z"/>
	<linearGradient id="SVGID_1_" gradientUnits="userSpaceOnUse" x1="12.1703" y1="2.6685" x2="12.1703" y2="19.0634">
		<stop  offset="0" style="stop-color:#950000"/>
		<stop  offset="1" style="stop-color:#C30609"/>
	</linearGradient>
	<path fill="url(#SVGID_1_)" d="M9,2.7C13.8,3.1,19.1,5.5,22.1,9c3.9,4.4,2.5,8.8-3,9.9c-5.5,1-13.1-1.7-17-6.1
		c-3-3.4-2.9-6.8-0.2-8.6l15.3,11.3L9,2.7z"/>
	<g>
		<defs>
			<path id="SVGID_2_" d="M9,2.7C13.8,3.1,19.1,5.5,22.1,9c3.9,4.4,2.5,8.8-3,9.9c-5.5,1-13.1-1.7-17-6.1c-3-3.4-2.9-6.8-0.2-8.6
				l15.3,11.3L9,2.7z"/>
		</defs>
		<clipPath id="SVGID_3_">
			<use xlink:href="#SVGID_2_"  overflow="visible"/>
		</clipPath>
		<path opacity="5.000000e-002" clip-path="url(#SVGID_3_)" fill="#FFFFFF" d="M37.7,23.2H-1.7c0,0,3.3-8.1,4.1-9.3
			c10.9-0.1,18.6-4,20.1-6.4C24.2,9,37.7,23.2,37.7,23.2z"/>
	</g>
	<g>
		<defs>
			<path id="SVGID_4_" d="M84.6,19l-1.9-7.8C82.2,9.2,82.2,9,82.2,9s-0.2,1.4-0.4,2.1l-2,7.8h-3.7l4.5-16.3h2.9L88.3,19H84.6z"/>
		</defs>
		<clipPath id="SVGID_5_">
			<use xlink:href="#SVGID_4_"  overflow="visible"/>
		</clipPath>
		<rect x="75.9" y="10.2" opacity="0.1" clip-path="url(#SVGID_5_)" fill="#FFFFFF" width="12.6" height="9.8"/>
	</g>
	<g>
		<defs>
			<path id="SVGID_6_" d="M33.3,2.6l1.9,7.8c0.4,2,0.4,2.1,0.4,2.1s0-0.1,0.4-2.2l2-7.8h3.7L37.2,19h-2.9L29.6,2.6H33.3z"/>
		</defs>
		<clipPath id="SVGID_7_">
			<use xlink:href="#SVGID_6_"  overflow="visible"/>
		</clipPath>
		<rect x="31.2" y="10.2" opacity="0.1" clip-path="url(#SVGID_7_)" fill="#FFFFFF" width="9.1" height="9.8"/>
	</g>
	<g>
		<defs>
			<path id="SVGID_8_" d="M47.4,2.6V19h-3.5V2.6H47.4z"/>
		</defs>
		<clipPath id="SVGID_9_">
			<use xlink:href="#SVGID_8_"  overflow="visible"/>
		</clipPath>
		<rect x="43.5" y="10.2" opacity="0.1" clip-path="url(#SVGID_9_)" fill="#FFFFFF" width="4.4" height="9.8"/>
	</g>
	<g>
		<defs>
			<path id="SVGID_10_" d="M65.6,2.6l1.4,8.8l1.2-8.8h4.6L74.6,19H71L70.3,8.5l-0.4,2.8L68.5,19h-2.8l-1.6-7.8l-0.4-2.4L63.4,19
				h-3.7l1.4-16.3H65.6z"/>
		</defs>
		<clipPath id="SVGID_11_">
			<use xlink:href="#SVGID_10_"  overflow="visible"/>
		</clipPath>
		<rect x="59.5" y="10.2" opacity="0.1" clip-path="url(#SVGID_11_)" fill="#FFFFFF" width="15.3" height="9.8"/>
	</g>
	<g>
		<defs>
			<path id="SVGID_12_" d="M55.4,2.6c-0.6,0.4-1,1.1-1.3,1.8c-0.8,2,0.1,3.6,0.9,5c0.1,0.2,0.2,0.4,0.3,0.6c1.7,3,2.4,5.2,1.1,8.3
				c-0.1,0.2-0.3,0.6-0.3,0.6H52c0.4-0.3,0.9-0.9,1.2-1.5c0.9-2.2-0.2-4.1-1.2-6c-1.2-2.3-2.5-4.7-1.1-7.9c0.1-0.3,0.4-0.8,0.4-0.8
				H55.4z"/>
		</defs>
		<clipPath id="SVGID_13_">
			<use xlink:href="#SVGID_12_"  overflow="visible"/>
		</clipPath>
		<rect x="49.8" y="10.2" opacity="0.1" clip-path="url(#SVGID_13_)" fill="#FFFFFF" width="8.7" height="9.8"/>
	</g>
</g>
</svg>
