<?xml version="1.0" encoding="utf-8"?>
<!-- Generator: Adobe Illustrator 19.1.0, SVG Export Plug-In . SVG Version: 6.00 Build 0)  -->
<!DOCTYPE svg PUBLIC "-//W3C//DTD SVG 1.1//EN" "http://www.w3.org/Graphics/SVG/1.1/DTD/svg11.dtd">
<svg version="1.1" xmlns="http://www.w3.org/2000/svg" xmlns:xlink="http://www.w3.org/1999/xlink" x="0px" y="0px" width="58px"
	 height="16px" viewBox="0 0 58 16" enable-background="new 0 0 58 16" xml:space="preserve">
<g id="Changelog">
</g>
<g id="Export">
</g>
<g id="PDF">
</g>
<g id="Office_Excel">
</g>
<g id="PowerPoint">
</g>
<g id="Office_Word">
</g>
<g id="Filter">
</g>
<g id="Dislike">
</g>
<g id="Like">
</g>
<g id="Favourite">
</g>
<g id="Preview">
</g>
<g id="Download">
</g>
<g id="Upload">
</g>
<g id="Open">
</g>
<g id="Web">
</g>
<g id="Unlock">
</g>
<g id="Lock">
</g>
<g id="Phone">
</g>
<g id="Email">
</g>
<g id="Graph">
</g>
<g id="Note">
</g>
<g id="Search">
</g>
<g id="Alarm">
</g>
<g id="Time">
</g>
<g id="Users">
</g>
<g id="User">
</g>
<g id="Refresh">
</g>
<g id="Home">
</g>
<g id="Report">
</g>
<g id="Paste">
</g>
<g id="Copy">
</g>
<g id="Cut">
</g>
<g id="Flag">
</g>
<g id="Redo">
</g>
<g id="Undo">
</g>
<g id="Zoom_Out">
</g>
<g id="Zoom_In">
</g>
<g id="Add_Comment">
	<g>
		<g>
			<path fill-rule="evenodd" clip-rule="evenodd" fill="#0089D9" d="M6,7V6c0,0,0,0,0,0s0,0,0,0V5H4v0.9C4,5.9,4,6,4,6s0,0.1,0,0.1
				V7H6z M12,5h-2v0.9c0,0,0,0.1,0,0.1s0,0.1,0,0.1V7h2V6c0,0,0,0,0,0s0,0,0,0V5z M12,0H4C1.8,0,0,1.8,0,4v4c0,2.2,1.8,4,4,4
				c0.7,0,1,2.7,1,4c0.7,0,0.3,0,1,0c0-1.9,2.1-3.7,3.1-3.9c0.1-0.4,0.2-0.7,0.4-1.1H9c-1.3,0-2.4,0.7-3,2c0-1.3-0.8-2-2-2
				c-1.7,0-3-1.3-3-3V4c0-1.7,1.3-3,3-3h8c1.7,0,3,1.3,3,3v4c0,0.5-0.1,0.9-0.3,1.4c0.3,0.1,0.6,0.3,0.8,0.5C15.8,9.3,16,8.7,16,8V4
				C16,1.8,14.2,0,12,0z M9,7V6c0,0,0,0,0,0s0,0,0,0V5H7v0.9C7,5.9,7,6,7,6s0,0.1,0,0.1V7H9z"/>
		</g>
	</g>
	<path fill-rule="evenodd" clip-rule="evenodd" fill="#68A611" d="M12,10h2v6h-2V10z"/>
	<path fill-rule="evenodd" clip-rule="evenodd" fill="#68A611" d="M10,12h6v2h-6V12z"/>
	<g>
		<g>
			<path fill-rule="evenodd" clip-rule="evenodd" fill="#C8C8C8" d="M33,5h-2v0.9c0,0,0,0.1,0,0.1c0,0,0,0.1,0,0.1V7h2V6
				c0,0,0,0,0,0s0,0,0,0V5z M33,0h-8c-2.2,0-4,1.8-4,4v4c0,2.2,1.8,4,4,4c0.7,0,1,2.7,1,4c0.7,0,0.3,0,1,0c0-1.9,2.1-3.7,3.1-3.9
				c0.1-0.4,0.2-0.7,0.4-1.1H30c-1.3,0-2.4,0.7-3,2c0-1.3-0.8-2-2-2c-1.7,0-3-1.3-3-3V4c0-1.7,1.3-3,3-3h8c1.7,0,3,1.3,3,3v4
				c0,0.5-0.1,0.9-0.3,1.4c0.3,0.1,0.6,0.3,0.8,0.5C36.8,9.3,37,8.7,37,8V4C37,1.8,35.2,0,33,0z M27,7V6c0,0,0,0,0,0s0,0,0,0V5h-2
				v0.9c0,0,0,0.1,0,0.1s0,0.1,0,0.1V7H27z M30,7V6c0,0,0,0,0,0s0,0,0,0V5h-2v0.9c0,0,0,0.1,0,0.1s0,0.1,0,0.1V7H30z"/>
		</g>
	</g>
	<path fill-rule="evenodd" clip-rule="evenodd" fill="#C8C8C8" d="M33,10h2v6h-2V10z"/>
	<path fill-rule="evenodd" clip-rule="evenodd" fill="#C8C8C8" d="M31,12h6v2h-6V12z"/>
	<g>
		<g>
			<path fill-rule="evenodd" clip-rule="evenodd" fill="#39A6E6" d="M54,5h-2v0.9c0,0,0,0.1,0,0.1s0,0.1,0,0.1V7h2V6c0,0,0,0,0,0
				s0,0,0,0V5z M54,0h-8c-2.2,0-4,1.8-4,4v4c0,2.2,1.8,4,4,4c0.7,0,1,2.7,1,4c0.7,0,0.3,0,1,0c0-1.9,2.1-3.7,3.1-3.9
				c0.1-0.4,0.2-0.7,0.4-1.1H51c-1.3,0-2.4,0.7-3,2c0-1.3-0.8-2-2-2c-1.7,0-3-1.3-3-3V4c0-1.7,1.3-3,3-3h8c1.7,0,3,1.3,3,3v4
				c0,0.5-0.1,0.9-0.3,1.4c0.3,0.1,0.6,0.3,0.8,0.5C57.8,9.3,58,8.7,58,8V4C58,1.8,56.2,0,54,0z M51,7V6c0,0,0,0,0,0s0,0,0,0V5h-2
				v0.9c0,0,0,0.1,0,0.1s0,0.1,0,0.1V7H51z M48,7V6c0,0,0,0,0,0s0,0,0,0V5h-2v0.9c0,0,0,0.1,0,0.1s0,0.1,0,0.1V7H48z"/>
		</g>
	</g>
	<path fill-rule="evenodd" clip-rule="evenodd" fill="#8EC928" d="M54,10h2v6h-2V10z"/>
	<path fill-rule="evenodd" clip-rule="evenodd" fill="#8EC928" d="M52,12h6v2h-6V12z"/>
</g>
<g id="Unread_Comment">
</g>
<g id="Comment">
</g>
<g id="New">
</g>
<g id="Attach">
</g>
<g id="Delete">
</g>
<g id="Save">
</g>
<g id="Edit">
</g>
<g id="Print">
</g>
<g id="Guides" display="none" opacity="0.2">
	<rect x="0" display="inline" fill="#0089D9" width="16" height="16"/>
	<rect x="21" display="inline" fill="#0089D9" width="16" height="16"/>
	<rect x="42" display="inline" fill="#0089D9" width="16" height="16"/>
</g>
</svg>
