<?xml version="1.0" encoding="utf-8"?>
<!-- Generator: Adobe Illustrator 19.1.0, SVG Export Plug-In . SVG Version: 6.00 Build 0)  -->
<!DOCTYPE svg PUBLIC "-//W3C//DTD SVG 1.1//EN" "http://www.w3.org/Graphics/SVG/1.1/DTD/svg11.dtd">
<svg version="1.1" xmlns="http://www.w3.org/2000/svg" xmlns:xlink="http://www.w3.org/1999/xlink" x="0px" y="0px" width="58px"
	 height="16px" viewBox="0 0 58 16" enable-background="new 0 0 58 16" xml:space="preserve">
<g id="Changelog">
</g>
<g id="Export">
</g>
<g id="PDF">
</g>
<g id="Office_Excel">
</g>
<g id="PowerPoint">
</g>
<g id="Office_Word">
</g>
<g id="Filter">
</g>
<g id="Dislike">
</g>
<g id="Like">
</g>
<g id="Favourite">
</g>
<g id="Preview">
</g>
<g id="Download">
</g>
<g id="Upload">
</g>
<g id="Open">
</g>
<g id="Web">
</g>
<g id="Unlock">
</g>
<g id="Lock">
</g>
<g id="Phone">
</g>
<g id="Email">
</g>
<g id="Graph">
</g>
<g id="Note">
</g>
<g id="Search">
</g>
<g id="Alarm">
</g>
<g id="Time">
</g>
<g id="Users">
</g>
<g id="User">
</g>
<g id="Refresh">
</g>
<g id="Home">
</g>
<g id="Report">
</g>
<g id="Paste">
</g>
<g id="Copy">
</g>
<g id="Cut">
</g>
<g id="Flag">
</g>
<g id="Redo">
</g>
<g id="Undo">
</g>
<g id="Zoom_Out">
</g>
<g id="Zoom_In">
</g>
<g id="Add_Comment">
</g>
<g id="Unread_Comment">
</g>
<g id="Comment">
</g>
<g id="New">
</g>
<g id="Attach">
	<path fill-rule="evenodd" clip-rule="evenodd" fill="#0089D9" d="M14.4,1.1c-1.6-1.6-2.8-1.2-4.4,0.4C9.2,2.2,3.6,7.8,2.8,8.6
		c-2.4,2.4-2.4,4-0.4,5.9c2,2,3.6,2,6-0.4c1.6-1.6,6.4-6.4,6.4-6.4L14,7c0,0-5.6,5.6-6.4,6.4c-2.4,2.4-2.4,2.4-4.4,0.3
		C1.3,11.8,2.1,11,3.6,9.4C5.2,7.8,10,3,10.8,2.2c0.8-0.8,1.6-1.6,2.8-0.3C14.8,3,14,3.8,13.2,4.6c-0.8,0.8-5.8,5.8-6.4,6.4
		C6,11.8,5.2,11,6,10.2c0.8-0.8,6.4-6.4,6.4-6.4L11.6,3c0,0-5.6,5.6-6.4,6.4c-0.8,0.8-1.2,2-0.4,2.8c0.8,0.8,2,0.4,2.8-0.4
		C8.4,11,13.2,6.2,14,5.4C15.6,3.8,16,2.7,14.4,1.1z"/>
	<path fill-rule="evenodd" clip-rule="evenodd" fill="#C8C8C8" d="M35.4,1.1c-1.6-1.6-2.8-1.2-4.4,0.4c-0.8,0.8-6.4,6.4-7.2,7.2
		c-2.4,2.4-2.4,4-0.4,5.9c2,2,3.6,2,6-0.4c1.6-1.6,6.4-6.4,6.4-6.4L35,7c0,0-5.6,5.6-6.4,6.4c-2.4,2.4-2.4,2.4-4.4,0.3
		c-1.9-1.9-1.1-2.7,0.4-4.3C26.2,7.8,31,3,31.8,2.2c0.8-0.8,1.6-1.6,2.8-0.3C35.8,3,35,3.8,34.2,4.6c-0.8,0.8-5.8,5.8-6.4,6.4
		c-0.8,0.8-1.6,0-0.8-0.8c0.8-0.8,6.4-6.4,6.4-6.4L32.6,3c0,0-5.6,5.6-6.4,6.4c-0.8,0.8-1.2,2-0.4,2.8c0.8,0.8,2,0.4,2.8-0.4
		c0.8-0.8,5.6-5.6,6.4-6.4C36.6,3.8,37,2.7,35.4,1.1z"/>
	<path fill-rule="evenodd" clip-rule="evenodd" fill="#39A6E6" d="M56.4,1.1c-1.6-1.6-2.8-1.2-4.4,0.4c-0.8,0.8-6.4,6.4-7.2,7.2
		c-2.4,2.4-2.4,4-0.4,5.9c2,2,3.6,2,6-0.4c1.6-1.6,6.4-6.4,6.4-6.4L56,7c0,0-5.6,5.6-6.4,6.4c-2.4,2.4-2.4,2.4-4.4,0.3
		c-1.9-1.9-1.1-2.7,0.4-4.3C47.2,7.8,52,3,52.8,2.2c0.8-0.8,1.6-1.6,2.8-0.3C56.8,3,56,3.8,55.2,4.6c-0.8,0.8-5.8,5.8-6.4,6.4
		c-0.8,0.8-1.6,0-0.8-0.8c0.8-0.8,6.4-6.4,6.4-6.4L53.6,3c0,0-5.6,5.6-6.4,6.4c-0.8,0.8-1.2,2-0.4,2.8c0.8,0.8,2,0.4,2.8-0.4
		c0.8-0.8,5.6-5.6,6.4-6.4C57.6,3.8,58,2.7,56.4,1.1z"/>
</g>
<g id="Delete">
</g>
<g id="Save">
</g>
<g id="Edit">
</g>
<g id="Print">
</g>
<g id="Guides" display="none" opacity="0.2">
	<rect x="0" display="inline" fill="#0089D9" width="16" height="16"/>
	<rect x="21" display="inline" fill="#0089D9" width="16" height="16"/>
	<rect x="42" display="inline" fill="#0089D9" width="16" height="16"/>
</g>
</svg>
