<?xml version="1.0" encoding="utf-8"?>
<!-- Generator: Adobe Illustrator 19.1.0, SVG Export Plug-In . SVG Version: 6.00 Build 0)  -->
<!DOCTYPE svg PUBLIC "-//W3C//DTD SVG 1.1//EN" "http://www.w3.org/Graphics/SVG/1.1/DTD/svg11.dtd">
<svg version="1.1" xmlns="http://www.w3.org/2000/svg" xmlns:xlink="http://www.w3.org/1999/xlink" x="0px" y="0px" width="58px"
	 height="16px" viewBox="0 0 58 16" enable-background="new 0 0 58 16" xml:space="preserve">
<g id="Changelog">
</g>
<g id="Export">
</g>
<g id="PDF">
</g>
<g id="Office_Excel">
</g>
<g id="PowerPoint">
</g>
<g id="Office_Word">
</g>
<g id="Filter">
</g>
<g id="Dislike">
</g>
<g id="Like">
</g>
<g id="Favourite">
</g>
<g id="Preview">
</g>
<g id="Download">
</g>
<g id="Upload">
</g>
<g id="Open">
</g>
<g id="Web">
</g>
<g id="Unlock">
</g>
<g id="Lock">
</g>
<g id="Phone">
</g>
<g id="Email">
</g>
<g id="Graph">
</g>
<g id="Note">
</g>
<g id="Search">
</g>
<g id="Alarm">
</g>
<g id="Time">
</g>
<g id="Users">
</g>
<g id="User">
</g>
<g id="Refresh">
</g>
<g id="Home">
</g>
<g id="Report">
</g>
<g id="Paste">
</g>
<g id="Copy">
</g>
<g id="Cut">
	<g>
		<g>
			<path fill-rule="evenodd" clip-rule="evenodd" fill="#0089D9" d="M13.6,12.2c-0.6-1.2-1.8-1.8-2.8-1.5L9.4,9.3h0.3
				C13,6.7,13.3,0,13.3,0h-0.6c0,0-1.1,5.8-4.4,8.7L8.1,8.7L8,8.9c0,0,0,0,0,0c0,0,0,0,0,0L7.8,8.7L7.7,8.7C4.4,5.8,3.2,0,3.2,0H2.6
				c0,0,0.3,6.7,3.5,9.3c0.1,0,0.3,0,0.4,0l0,0l-1.4,1.4c-1-0.2-2.1,0.4-2.8,1.5c-0.8,1.3-0.5,2.9,0.5,3.5c1,0.6,2.4,0,3.2-1.3
				c0.5-1,0.6-2,0.2-2.8l0.9-0.9L8,10.3l0.9,0.5l0.9,0.9c-0.4,0.8-0.4,1.8,0.2,2.8c0.8,1.3,2.2,1.9,3.2,1.3
				C14.1,15.2,14.3,13.6,13.6,12.2z M4.9,13.9c-0.3,0.6-0.9,0.9-1.3,0.6c-0.4-0.3-0.5-1-0.2-1.7c0.3-0.6,1-1.1,1.4-0.8
				C5.3,12.4,5.3,13.3,4.9,13.9z M12.3,14.6c-0.4,0.3-1,0-1.3-0.6s-0.3-1.6,0.1-1.9c0.4-0.3,1.1,0.2,1.4,0.8
				C12.8,13.5,12.7,14.3,12.3,14.6z"/>
		</g>
	</g>
	<g>
		<g>
			<path fill-rule="evenodd" clip-rule="evenodd" fill="#C8C8C8" d="M34.6,12.2c-0.6-1.2-1.8-1.8-2.8-1.5l-1.4-1.4
				c0.1,0,0.2,0,0.3,0C34,6.7,34.3,0,34.3,0h-0.6c0,0-1.1,5.8-4.4,8.7l-0.1-0.1L29,8.9c0,0,0,0,0,0c0,0,0,0,0,0l-0.1-0.3l-0.1,0.1
				C25.4,5.8,24.2,0,24.2,0h-0.6c0,0,0.3,6.7,3.5,9.3c0.1,0,0.3,0,0.4,0l0,0l-1.4,1.4c-1-0.2-2.1,0.4-2.8,1.5
				c-0.8,1.3-0.5,2.9,0.5,3.5c1,0.6,2.4,0,3.2-1.3c0.5-1,0.6-2,0.2-2.8l0.9-0.9l0.9-0.5l0.9,0.5l0.9,0.9c-0.4,0.8-0.4,1.8,0.2,2.8
				c0.8,1.3,2.2,1.9,3.2,1.3C35.1,15.2,35.3,13.6,34.6,12.2z M25.9,13.9c-0.3,0.6-0.9,0.9-1.3,0.6c-0.4-0.3-0.5-1-0.2-1.7
				c0.3-0.6,1-1.1,1.4-0.8C26.3,12.4,26.3,13.3,25.9,13.9z M33.3,14.6c-0.4,0.3-1,0-1.3-0.6s-0.3-1.6,0.1-1.9
				c0.4-0.3,1.1,0.2,1.4,0.8C33.8,13.5,33.7,14.3,33.3,14.6z"/>
		</g>
	</g>
	<g>
		<g>
			<path fill-rule="evenodd" clip-rule="evenodd" fill="#39A6E6" d="M55.6,12.2c-0.6-1.2-1.8-1.8-2.8-1.5l-1.4-1.4h0.3
				C55.1,6.7,55.4,0,55.4,0h-0.6c0,0-1.1,5.8-4.4,8.7l-0.1-0.1l-0.1,0.3c0,0,0,0,0,0c0,0,0,0,0,0l-0.1-0.3l-0.1,0.1
				C46.4,5.8,45.3,0,45.3,0h-0.6c0,0,0.3,6.7,3.5,9.3c0.1,0,0.3,0,0.4,0l0,0l-1.4,1.4c-1-0.2-2.1,0.4-2.8,1.5
				c-0.8,1.3-0.5,2.9,0.5,3.5c1,0.6,2.4,0,3.2-1.3c0.5-1,0.6-2,0.2-2.8l0.9-0.9l0.9-0.5l0.9,0.5l0.9,0.9c-0.4,0.8-0.4,1.8,0.2,2.8
				c0.8,1.3,2.2,1.9,3.2,1.3C56.2,15.2,56.4,13.6,55.6,12.2z M47,13.9c-0.3,0.6-0.9,0.9-1.3,0.6c-0.4-0.3-0.5-1-0.2-1.7
				c0.3-0.6,1-1.1,1.4-0.8C47.3,12.4,47.3,13.3,47,13.9z M54.4,14.6c-0.4,0.3-1,0-1.3-0.6s-0.3-1.6,0.1-1.9c0.4-0.3,1.1,0.2,1.4,0.8
				C54.9,13.5,54.8,14.3,54.4,14.6z"/>
		</g>
	</g>
</g>
<g id="Flag">
</g>
<g id="Redo">
</g>
<g id="Undo">
</g>
<g id="Zoom_Out">
</g>
<g id="Zoom_In">
</g>
<g id="Add_Comment">
</g>
<g id="Unread_Comment">
</g>
<g id="Comment">
</g>
<g id="New">
</g>
<g id="Attach">
</g>
<g id="Delete">
</g>
<g id="Save">
</g>
<g id="Edit">
</g>
<g id="Print">
</g>
<g id="Guides" display="none" opacity="0.2">
	<rect x="0" display="inline" fill="#0089D9" width="16" height="16"/>
	<rect x="21" display="inline" fill="#0089D9" width="16" height="16"/>
	<rect x="42" display="inline" fill="#0089D9" width="16" height="16"/>
</g>
</svg>
