<?xml version="1.0" encoding="utf-8"?>
<!-- Generator: Adobe Illustrator 19.1.0, SVG Export Plug-In . SVG Version: 6.00 Build 0)  -->
<!DOCTYPE svg PUBLIC "-//W3C//DTD SVG 1.1//EN" "http://www.w3.org/Graphics/SVG/1.1/DTD/svg11.dtd">
<svg version="1.1" xmlns="http://www.w3.org/2000/svg" xmlns:xlink="http://www.w3.org/1999/xlink" x="0px" y="0px" width="58px"
	 height="16px" viewBox="0 0 58 16" enable-background="new 0 0 58 16" xml:space="preserve">
<g id="Changelog">
	<g>
		<g>
			<path fill-rule="evenodd" clip-rule="evenodd" fill="#0089D9" d="M14.2,2.9C11.4-0.5,6.3-1,2.9,1.8C1,3.4,0,5.7,0,8l1,0
				c0-2,0.9-4,2.6-5.4c3-2.5,7.4-2,9.9,1c2.5,3,2,7.4-1,9.9c-3,2.5-7.4,2-9.9-1c-0.2-0.2-0.3-0.4-0.4-0.6L4,10H0v4l1.5-1.5
				c0.1,0.2,0.2,0.4,0.4,0.5c2.8,3.4,7.9,3.9,11.3,1.1C16.5,11.4,17,6.3,14.2,2.9z M7.5,2C7.2,2,7,2.2,7,2.5v6C7,8.8,7.2,9,7.5,9h4
				C11.8,9,12,8.8,12,8.5C12,8.2,11.8,8,11.5,8H8V2.5C8,2.2,7.8,2,7.5,2z"/>
		</g>
	</g>
	<g>
		<g>
			<path fill-rule="evenodd" clip-rule="evenodd" fill="#C8C8C8" d="M28.5,2C28.2,2,28,2.2,28,2.5v6C28,8.8,28.2,9,28.5,9h4
				C32.8,9,33,8.8,33,8.5C33,8.2,32.8,8,32.5,8H29V2.5C29,2.2,28.8,2,28.5,2z M35.2,2.9C32.4-0.5,27.3-1,23.9,1.8
				C22,3.4,21,5.7,21,8l1,0c0-2,0.9-4,2.6-5.4c3-2.5,7.4-2,9.9,1c2.5,3,2,7.4-1,9.9c-3,2.5-7.4,2-9.9-1c-0.2-0.2-0.3-0.4-0.4-0.6
				L25,10h-4v4l1.5-1.5c0.1,0.2,0.2,0.4,0.4,0.5c2.8,3.4,7.9,3.9,11.3,1.1C37.5,11.4,38,6.3,35.2,2.9z"/>
		</g>
	</g>
	<g>
		<g>
			<path fill-rule="evenodd" clip-rule="evenodd" fill="#39A6E6" d="M56.2,2.9C53.4-0.5,48.3-1,44.9,1.8C43,3.4,42,5.7,42,8l1,0
				c0-2,0.9-4,2.6-5.4c3-2.5,7.4-2,9.9,1c2.5,3,2,7.4-1,9.9c-3,2.5-7.4,2-9.9-1c-0.2-0.2-0.3-0.4-0.4-0.6L46,10h-4v4l1.5-1.5
				c0.1,0.2,0.2,0.4,0.4,0.5c2.8,3.4,7.9,3.9,11.3,1.1C58.5,11.4,59,6.3,56.2,2.9z M49.5,2C49.2,2,49,2.2,49,2.5v6
				C49,8.8,49.2,9,49.5,9h4C53.8,9,54,8.8,54,8.5C54,8.2,53.8,8,53.5,8H50V2.5C50,2.2,49.8,2,49.5,2z"/>
		</g>
	</g>
</g>
<g id="Export">
</g>
<g id="PDF">
</g>
<g id="Office_Excel">
</g>
<g id="PowerPoint">
</g>
<g id="Office_Word">
</g>
<g id="Filter">
</g>
<g id="Dislike">
</g>
<g id="Like">
</g>
<g id="Favourite">
</g>
<g id="Preview">
</g>
<g id="Download">
</g>
<g id="Upload">
</g>
<g id="Open">
</g>
<g id="Web">
</g>
<g id="Unlock">
</g>
<g id="Lock">
</g>
<g id="Phone">
</g>
<g id="Email">
</g>
<g id="Graph">
</g>
<g id="Note">
</g>
<g id="Search">
</g>
<g id="Alarm">
</g>
<g id="Time">
</g>
<g id="Users">
</g>
<g id="User">
</g>
<g id="Refresh">
</g>
<g id="Home">
</g>
<g id="Report">
</g>
<g id="Paste">
</g>
<g id="Copy">
</g>
<g id="Cut">
</g>
<g id="Flag">
</g>
<g id="Redo">
</g>
<g id="Undo">
</g>
<g id="Zoom_Out">
</g>
<g id="Zoom_In">
</g>
<g id="Add_Comment">
</g>
<g id="Unread_Comment">
</g>
<g id="Comment">
</g>
<g id="New">
</g>
<g id="Attach">
</g>
<g id="Delete">
</g>
<g id="Save">
</g>
<g id="Edit">
</g>
<g id="Print">
</g>
<g id="Guides" display="none" opacity="0.2">
	<rect x="0" display="inline" fill="#0089D9" width="16" height="16"/>
	<rect x="21" display="inline" fill="#0089D9" width="16" height="16"/>
	<rect x="42" display="inline" fill="#0089D9" width="16" height="16"/>
</g>
</svg>
