<?xml version="1.0" encoding="utf-8"?>
<!-- Generator: Adobe Illustrator 19.1.0, SVG Export Plug-In . SVG Version: 6.00 Build 0)  -->
<!DOCTYPE svg PUBLIC "-//W3C//DTD SVG 1.1//EN" "http://www.w3.org/Graphics/SVG/1.1/DTD/svg11.dtd">
<svg version="1.1" xmlns="http://www.w3.org/2000/svg" xmlns:xlink="http://www.w3.org/1999/xlink" x="0px" y="0px" width="58px"
	 height="16px" viewBox="0 0 58 16" enable-background="new 0 0 58 16" xml:space="preserve">
<g id="Changelog">
</g>
<g id="Export">
</g>
<g id="PDF">
</g>
<g id="Office_Excel">
</g>
<g id="PowerPoint">
</g>
<g id="Office_Word">
</g>
<g id="Filter">
</g>
<g id="Dislike">
</g>
<g id="Like">
</g>
<g id="Favourite">
</g>
<g id="Preview">
</g>
<g id="Download">
	<g>
		<g>
			<path fill-rule="evenodd" clip-rule="evenodd" fill="#0089D9" d="M14,10v3c0,0.6-0.4,1-1,1H2c-0.6,0-1-0.4-1-1v-3H0v4
				c0,0.6,0.4,1,1,1h13c0.6,0,1-0.4,1-1v-4H14z M6.9,11.6c0,0,0.1,0.1,0.1,0.1C7.1,11.9,7.3,12,7.5,12s0.4-0.1,0.4-0.3
				c0,0,0.1,0,0.1-0.1l2.8-2.8c0.2-0.2,0.2-0.5,0-0.7c-0.2-0.2-0.5-0.2-0.7,0L8,10.3V1.5C8,1.2,7.8,1,7.5,1C7.2,1,7,1.2,7,1.5v8.8
				L4.8,8.1c-0.2-0.2-0.5-0.2-0.7,0c-0.2,0.2-0.2,0.5,0,0.7L6.9,11.6z"/>
		</g>
	</g>
	<g>
		<g>
			<path fill-rule="evenodd" clip-rule="evenodd" fill="#C8C8C8" d="M27.9,11.6c0,0,0.1,0.1,0.1,0.1c0.1,0.2,0.2,0.3,0.4,0.3
				s0.4-0.1,0.4-0.3c0,0,0.1,0,0.1-0.1l2.8-2.8c0.2-0.2,0.2-0.5,0-0.7c-0.2-0.2-0.5-0.2-0.7,0L29,10.3V1.5C29,1.2,28.8,1,28.5,1
				C28.2,1,28,1.2,28,1.5v8.8l-2.2-2.2c-0.2-0.2-0.5-0.2-0.7,0c-0.2,0.2-0.2,0.5,0,0.7L27.9,11.6z M35,10v3c0,0.6-0.4,1-1,1H23
				c-0.6,0-1-0.4-1-1v-3h-1v4c0,0.6,0.4,1,1,1h13c0.6,0,1-0.4,1-1v-4H35z"/>
		</g>
	</g>
	<g>
		<g>
			<path fill-rule="evenodd" clip-rule="evenodd" fill="#39A6E6" d="M48.9,11.6c0,0,0.1,0.1,0.1,0.1c0.1,0.2,0.2,0.3,0.4,0.3
				s0.4-0.1,0.4-0.3c0,0,0.1,0,0.1-0.1l2.8-2.8c0.2-0.2,0.2-0.5,0-0.7c-0.2-0.2-0.5-0.2-0.7,0L50,10.3V1.5C50,1.2,49.8,1,49.5,1
				C49.2,1,49,1.2,49,1.5v8.8l-2.2-2.2c-0.2-0.2-0.5-0.2-0.7,0c-0.2,0.2-0.2,0.5,0,0.7L48.9,11.6z M56,10v3c0,0.6-0.4,1-1,1H44
				c-0.6,0-1-0.4-1-1v-3h-1v4c0,0.6,0.4,1,1,1h13c0.6,0,1-0.4,1-1v-4H56z"/>
		</g>
	</g>
</g>
<g id="Upload">
</g>
<g id="Open">
</g>
<g id="Web">
</g>
<g id="Unlock">
</g>
<g id="Lock">
</g>
<g id="Phone">
</g>
<g id="Email">
</g>
<g id="Graph">
</g>
<g id="Note">
</g>
<g id="Search">
</g>
<g id="Alarm">
</g>
<g id="Time">
</g>
<g id="Users">
</g>
<g id="User">
</g>
<g id="Refresh">
</g>
<g id="Home">
</g>
<g id="Report">
</g>
<g id="Paste">
</g>
<g id="Copy">
</g>
<g id="Cut">
</g>
<g id="Flag">
</g>
<g id="Redo">
</g>
<g id="Undo">
</g>
<g id="Zoom_Out">
</g>
<g id="Zoom_In">
</g>
<g id="Add_Comment">
</g>
<g id="Unread_Comment">
</g>
<g id="Comment">
</g>
<g id="New">
</g>
<g id="Attach">
</g>
<g id="Delete">
</g>
<g id="Save">
</g>
<g id="Edit">
</g>
<g id="Print">
</g>
<g id="Guides" display="none" opacity="0.2">
	<rect x="0" display="inline" fill="#0089D9" width="16" height="16"/>
	<rect x="21" display="inline" fill="#0089D9" width="16" height="16"/>
	<rect x="42" display="inline" fill="#0089D9" width="16" height="16"/>
</g>
</svg>
