<?xml version="1.0" encoding="utf-8"?>
<!-- Generator: Adobe Illustrator 19.1.0, SVG Export Plug-In . SVG Version: 6.00 Build 0)  -->
<!DOCTYPE svg PUBLIC "-//W3C//DTD SVG 1.1//EN" "http://www.w3.org/Graphics/SVG/1.1/DTD/svg11.dtd">
<svg version="1.1" xmlns="http://www.w3.org/2000/svg" xmlns:xlink="http://www.w3.org/1999/xlink" x="0px" y="0px" width="58px"
	 height="16px" viewBox="0 0 58 16" enable-background="new 0 0 58 16" xml:space="preserve">
<g id="Changelog">
</g>
<g id="Export">
</g>
<g id="PDF">
</g>
<g id="Office_Excel">
</g>
<g id="PowerPoint">
</g>
<g id="Office_Word">
</g>
<g id="Filter">
</g>
<g id="Dislike">
</g>
<g id="Like">
</g>
<g id="Favourite">
</g>
<g id="Preview">
</g>
<g id="Download">
</g>
<g id="Upload">
</g>
<g id="Open">
</g>
<g id="Web">
</g>
<g id="Unlock">
</g>
<g id="Lock">
</g>
<g id="Phone">
</g>
<g id="Email">
</g>
<g id="Graph">
</g>
<g id="Note">
</g>
<g id="Search">
</g>
<g id="Alarm">
</g>
<g id="Time">
</g>
<g id="Users">
</g>
<g id="User">
</g>
<g id="Refresh">
</g>
<g id="Home">
</g>
<g id="Report">
</g>
<g id="Paste">
</g>
<g id="Copy">
</g>
<g id="Cut">
</g>
<g id="Flag">
</g>
<g id="Redo">
</g>
<g id="Undo">
</g>
<g id="Zoom_Out">
</g>
<g id="Zoom_In">
</g>
<g id="Add_Comment">
</g>
<g id="Unread_Comment">
</g>
<g id="Comment">
</g>
<g id="New">
</g>
<g id="Attach">
</g>
<g id="Delete">
	<g>
		<g>
			<path fill-rule="evenodd" clip-rule="evenodd" fill="#0089D9" d="M15,3h-4c0-1.6-1.4-3-3-3C6.4,0,5,1.4,5,3H1C0.3,3,0,3.3,0,4
				c0,0.9,0,1,0,1h1V4l7,0l7,0v1h1c0,0,0-0.1,0-1C16,3.3,15.7,3,15,3z M6,3c0-1,1-2,2-2c1,0,2,1,2,2H6z M9,12V7c0-0.6-0.4-1-1-1
				C7.4,6,7,6.4,7,7v5c0,0.6,0.4,1,1,1C8.6,13,9,12.6,9,12z M11,12.5v-6C11,6.2,10.8,6,10.5,6S10,6.2,10,6.5v6
				c0,0.3,0.2,0.5,0.5,0.5S11,12.8,11,12.5z M6,12.5v-6C6,6.2,5.8,6,5.5,6S5,6.2,5,6.5v6C5,12.8,5.2,13,5.5,13S6,12.8,6,12.5z
				 M13,5.5c0,0,0,5.5-0.3,8.6c-0.1,0.5-0.2,0.9-1.2,0.9H4.4c-1,0-1.1-0.5-1.2-0.9C2.9,11,3,5.5,3,5.5C2.9,4.7,1.9,4.9,2,5.6l0,9.1
				C2.1,15.3,2.8,16,3.4,16C4.7,16,8,16,8,16s3.2,0,4.5,0c0.7,0,1.3-0.7,1.4-1.3l0-9.1C14.1,4.9,13.1,4.7,13,5.5z"/>
		</g>
	</g>
	<g>
		<g>
			<path fill-rule="evenodd" clip-rule="evenodd" fill="#C8C8C8" d="M36,3h-4c0-1.6-1.4-3-3-3c-1.6,0-3,1.4-3,3h-4c-0.7,0-1,0.3-1,1
				c0,0.9,0,1,0,1h1V4l7,0l7,0v1h1c0,0,0-0.1,0-1C37,3.3,36.7,3,36,3z M27,3c0-1,1-2,2-2c1,0,2,1,2,2H27z M30,12V7c0-0.6-0.4-1-1-1
				c-0.6,0-1,0.4-1,1v5c0,0.6,0.4,1,1,1C29.6,13,30,12.6,30,12z M32,12.5v-6C32,6.2,31.8,6,31.5,6S31,6.2,31,6.5v6
				c0,0.3,0.2,0.5,0.5,0.5S32,12.8,32,12.5z M27,12.5v-6C27,6.2,26.8,6,26.5,6S26,6.2,26,6.5v6c0,0.3,0.2,0.5,0.5,0.5
				S27,12.8,27,12.5z M34,5.5c0,0,0,5.5-0.3,8.6c-0.1,0.5-0.2,0.9-1.2,0.9h-7.1c-1,0-1.1-0.5-1.2-0.9C23.9,11,24,5.5,24,5.5
				c-0.1-0.8-1.1-0.6-1,0.1l0,9.1c0.1,0.6,0.8,1.3,1.4,1.3c1.3,0,4.6,0,4.6,0s3.2,0,4.5,0c0.7,0,1.3-0.7,1.4-1.3l0-9.1
				C35.1,4.9,34.1,4.7,34,5.5z"/>
		</g>
	</g>
	<g>
		<g>
			<path fill-rule="evenodd" clip-rule="evenodd" fill="#39A6E6" d="M57,3h-4c0-1.6-1.4-3-3-3c-1.6,0-3,1.4-3,3h-4c-0.7,0-1,0.3-1,1
				c0,0.9,0,1,0,1h1V4l7,0l7,0v1h1c0,0,0-0.1,0-1C58,3.3,57.7,3,57,3z M48,3c0-1,1-2,2-2c1,0,2,1,2,2H48z M51,12V7c0-0.6-0.4-1-1-1
				c-0.6,0-1,0.4-1,1v5c0,0.6,0.4,1,1,1C50.6,13,51,12.6,51,12z M53,12.5v-6C53,6.2,52.8,6,52.5,6S52,6.2,52,6.5v6
				c0,0.3,0.2,0.5,0.5,0.5S53,12.8,53,12.5z M48,12.5v-6C48,6.2,47.8,6,47.5,6S47,6.2,47,6.5v6c0,0.3,0.2,0.5,0.5,0.5
				S48,12.8,48,12.5z M55,5.5c0,0,0,5.5-0.3,8.6c-0.1,0.5-0.2,0.9-1.2,0.9h-7.1c-1,0-1.1-0.5-1.2-0.9C44.9,11,45,5.5,45,5.5
				c-0.1-0.8-1.1-0.6-1,0.1l0,9.1c0.1,0.6,0.8,1.3,1.4,1.3c1.3,0,4.6,0,4.6,0s3.2,0,4.5,0c0.7,0,1.3-0.7,1.4-1.3l0-9.1
				C56.1,4.9,55.1,4.7,55,5.5z"/>
		</g>
	</g>
</g>
<g id="Save">
</g>
<g id="Edit">
</g>
<g id="Print">
</g>
<g id="Guides" display="none" opacity="0.2">
	<rect x="0" display="inline" fill="#0089D9" width="16" height="16"/>
	<rect x="21" display="inline" fill="#0089D9" width="16" height="16"/>
	<rect x="42" display="inline" fill="#0089D9" width="16" height="16"/>
</g>
</svg>
