<?xml version="1.0" encoding="utf-8"?>
<!-- Generator: Adobe Illustrator 19.1.0, SVG Export Plug-In . SVG Version: 6.00 Build 0)  -->
<!DOCTYPE svg PUBLIC "-//W3C//DTD SVG 1.1//EN" "http://www.w3.org/Graphics/SVG/1.1/DTD/svg11.dtd">
<svg version="1.1" xmlns="http://www.w3.org/2000/svg" xmlns:xlink="http://www.w3.org/1999/xlink" x="0px" y="0px" width="58px"
	 height="16px" viewBox="0 0 58 16" enable-background="new 0 0 58 16" xml:space="preserve">
<g id="Changelog">
</g>
<g id="Export">
</g>
<g id="PDF">
</g>
<g id="Office_Excel">
</g>
<g id="PowerPoint">
</g>
<g id="Office_Word">
</g>
<g id="Filter">
</g>
<g id="Dislike">
	<g>
		<g>
			<path fill-rule="evenodd" clip-rule="evenodd" fill="#39A6E6" d="M57.3,0C56.6,0,56,0,56,0v9c0,0,0.6,0,1.3,0
				C58.4,8.4,58,0.7,57.3,0z M44.5,0.6c-1.2,0.3-0.8,1.1-1.1,1.6c-0.3,0.4-0.8,0.4-1,1c-0.2,0.6,0.3,0.7,0.3,1.2
				c0,0.6-0.7,0.6-0.7,1.4c0,0.8,0.6,0.8,0.7,1.2c0.1,0.6-0.5,0.8-0.3,1.6c0.1,0.4,0.6,0.6,1.1,0.7c0.6,0.1,3.1-0.1,3.8,0.5
				c0.9,0.8-0.3,1.6-0.3,3.4c0,2.1,1.5,3.5,3.4,2.3c-0.4-1-0.2-2,0.5-3.2c0.9-3,2.7-3.4,4.2-4.3c0-1.3,0-5.7,0-7
				c-2.6,0-4-0.8-5.8-0.9C46.9-0.1,44.9,0.5,44.5,0.6z M54,7c-1.4,0.6-3.8,2-4.1,4.8c-0.6,0.7-1,1.9-0.8,2.9
				c-0.9-0.2-1.2-1.6-0.7-2.7c0.6-1.3,0.9-2.3,0.2-2.9c-0.6-0.5-3-0.7-3.5-0.8c-0.4,0-1.1-0.1-1.1-0.3c-0.2-0.4,0.1-1,0-1.3
				c-0.1-0.3-0.7-0.6-0.7-1c0-0.4,0.7-0.5,0.8-1c0-0.5-0.5-0.8-0.4-1.2c0.1-0.4,0.9-0.3,1.2-0.7c0.2-0.4-0.3-1.3,0.7-1.5
				C45.6,1.4,47.2,0.9,49,1c1.4,0.1,3,1,5,1C54,3.1,54,5.9,54,7z"/>
		</g>
	</g>
	<g>
		<g>
			<path fill-rule="evenodd" clip-rule="evenodd" fill="#C8C8C8" d="M23.5,0.6c-1.2,0.3-0.8,1.1-1.1,1.6c-0.3,0.4-0.8,0.4-1,1
				c-0.2,0.6,0.3,0.7,0.3,1.2c0,0.6-0.7,0.6-0.7,1.4c0,0.8,0.6,0.8,0.7,1.2c0.1,0.6-0.5,0.8-0.3,1.6c0.1,0.4,0.6,0.6,1.1,0.7
				c0.6,0.1,3.1-0.1,3.8,0.5c0.9,0.8-0.3,1.6-0.3,3.4c0,2.1,1.5,3.5,3.4,2.3c-0.4-1-0.2-2,0.5-3.2c0.9-3,2.7-3.4,4.2-4.3V1
				c-2.6,0-4-0.8-5.8-0.9C25.9-0.1,23.9,0.5,23.5,0.6z M33,7c-1.4,0.6-3.8,2-4.1,4.8c-0.6,0.7-1,1.9-0.8,2.9
				c-0.9-0.2-1.2-1.6-0.7-2.7c0.6-1.3,0.9-2.3,0.2-2.9c-0.6-0.5-3-0.7-3.5-0.8c-0.4,0-1.1-0.1-1.1-0.3c-0.2-0.4,0.1-1,0-1.3
				c-0.1-0.3-0.7-0.6-0.7-1c0-0.4,0.7-0.5,0.8-1c0-0.5-0.5-0.8-0.4-1.2c0.1-0.4,0.9-0.3,1.2-0.7c0.2-0.4-0.3-1.3,0.7-1.5
				C24.6,1.4,26.2,0.9,28,1c1.4,0.1,3,1,5,1V7z M36.3,0C35.6,0,35,0,35,0v9c0,0,0.6,0,1.3,0C37.4,8.4,37,0.7,36.3,0z"/>
		</g>
	</g>
	<g>
		<g>
			<path fill-rule="evenodd" clip-rule="evenodd" fill="#0089D9" d="M15.3,0C14.6,0,14,0,14,0v9c0,0,0.6,0,1.3,0
				C16.4,8.4,16,0.7,15.3,0z M0.1,5.8c0,0.8,0.6,0.8,0.7,1.2c0.1,0.6-0.5,0.8-0.3,1.6C0.5,9.1,1,9.3,1.5,9.4
				c0.6,0.1,3.1-0.1,3.8,0.5c0.9,0.8-0.3,1.6-0.3,3.4c0,2.1,1.5,3.5,3.4,2.3c-0.4-1-0.2-2,0.5-3.2c0.9-3,2.7-3.4,4.2-4.3V1
				c-2.6,0-4-0.8-5.8-0.9C4.9-0.1,2.9,0.5,2.5,0.6C1.4,0.8,1.7,1.7,1.4,2.2c-0.3,0.4-0.8,0.4-1,1C0.2,3.8,0.7,3.9,0.7,4.4
				C0.7,5,0.1,5,0.1,5.8z M1.9,4.8C2,4.3,1.4,4,1.6,3.6c0.1-0.4,0.9-0.3,1.2-0.7c0.2-0.4-0.3-1.3,0.7-1.5C3.6,1.4,5.2,0.9,7,1
				c1.4,0.1,3,1,5,1v5c-1.4,0.6-3.8,2-4.1,4.8c-0.6,0.7-1,1.9-0.8,2.9c-0.9-0.2-1.2-1.6-0.7-2.7c0.6-1.3,0.9-2.3,0.2-2.9
				C5.9,8.7,3.5,8.5,3,8.4c-0.4,0-1.1-0.1-1.1-0.3c-0.2-0.4,0.1-1,0-1.3c-0.1-0.3-0.7-0.6-0.7-1C1.1,5.4,1.9,5.3,1.9,4.8z"/>
		</g>
	</g>
</g>
<g id="Like">
</g>
<g id="Favourite">
</g>
<g id="Preview">
</g>
<g id="Download">
</g>
<g id="Upload">
</g>
<g id="Open">
</g>
<g id="Web">
</g>
<g id="Unlock">
</g>
<g id="Lock">
</g>
<g id="Phone">
</g>
<g id="Email">
</g>
<g id="Graph">
</g>
<g id="Note">
</g>
<g id="Search">
</g>
<g id="Alarm">
</g>
<g id="Time">
</g>
<g id="Users">
</g>
<g id="User">
</g>
<g id="Refresh">
</g>
<g id="Home">
</g>
<g id="Report">
</g>
<g id="Paste">
</g>
<g id="Copy">
</g>
<g id="Cut">
</g>
<g id="Flag">
</g>
<g id="Redo">
</g>
<g id="Undo">
</g>
<g id="Zoom_Out">
</g>
<g id="Zoom_In">
</g>
<g id="Add_Comment">
</g>
<g id="Unread_Comment">
</g>
<g id="Comment">
</g>
<g id="New">
</g>
<g id="Attach">
</g>
<g id="Delete">
</g>
<g id="Save">
</g>
<g id="Edit">
</g>
<g id="Print">
</g>
<g id="Guides" display="none" opacity="0.2">
	<rect x="0" display="inline" fill="#0089D9" width="16" height="16"/>
	<rect x="21" display="inline" fill="#0089D9" width="16" height="16"/>
	<rect x="42" display="inline" fill="#0089D9" width="16" height="16"/>
</g>
</svg>
