<?xml version="1.0" encoding="utf-8"?>
<!-- Generator: Adobe Illustrator 19.1.0, SVG Export Plug-In . SVG Version: 6.00 Build 0)  -->
<!DOCTYPE svg PUBLIC "-//W3C//DTD SVG 1.1//EN" "http://www.w3.org/Graphics/SVG/1.1/DTD/svg11.dtd">
<svg version="1.1" xmlns="http://www.w3.org/2000/svg" xmlns:xlink="http://www.w3.org/1999/xlink" x="0px" y="0px" width="58px"
	 height="16px" viewBox="0 0 58 16" enable-background="new 0 0 58 16" xml:space="preserve">
<g id="Changelog">
</g>
<g id="Export">
</g>
<g id="PDF">
</g>
<g id="Office_Excel">
</g>
<g id="PowerPoint">
</g>
<g id="Office_Word">
</g>
<g id="Filter">
</g>
<g id="Dislike">
</g>
<g id="Like">
</g>
<g id="Favourite">
</g>
<g id="Preview">
</g>
<g id="Download">
</g>
<g id="Upload">
</g>
<g id="Open">
</g>
<g id="Web">
</g>
<g id="Unlock">
</g>
<g id="Lock">
</g>
<g id="Phone">
</g>
<g id="Email">
</g>
<g id="Graph">
</g>
<g id="Note">
</g>
<g id="Search">
</g>
<g id="Alarm">
</g>
<g id="Time">
</g>
<g id="Users">
</g>
<g id="User">
</g>
<g id="Refresh">
</g>
<g id="Home">
</g>
<g id="Report">
</g>
<g id="Paste">
</g>
<g id="Copy">
</g>
<g id="Cut">
</g>
<g id="Flag">
</g>
<g id="Redo">
</g>
<g id="Undo">
</g>
<g id="Zoom_Out">
</g>
<g id="Zoom_In">
</g>
<g id="Add_Comment">
</g>
<g id="Unread_Comment">
</g>
<g id="Comment">
</g>
<g id="New">
</g>
<g id="Attach">
</g>
<g id="Delete">
</g>
<g id="Save">
</g>
<g id="Edit">
	<g>
		<g>
			<path fill-rule="evenodd" clip-rule="evenodd" fill="#0089D9" d="M2,11.3L0,16l4.7-1.9l9.9-10l-2.8-2.8L2,11.3z M1.7,14.3
				l0.8-2.5c0.3,0.3,0.3,1.4,0.3,1.4s1.1,0,1.4,0.3L1.7,14.3z M15.7,1.3c-0.8-0.8-0.2-0.2-1.1-1.1c-0.9-0.9-2.2,0.5-2.2,0.5l2.8,2.8
				C15.2,3.6,16.6,2.2,15.7,1.3z"/>
		</g>
	</g>
	<g>
		<g>
			<path fill-rule="evenodd" clip-rule="evenodd" fill="#C8C8C8" d="M23,11.3L21,16l4.7-1.9l9.9-10l-2.8-2.8L23,11.3z M22.7,14.3
				l0.8-2.5c0.3,0.3,0.3,1.4,0.3,1.4s1.1,0,1.4,0.3L22.7,14.3z M36.7,1.3c-0.8-0.8-0.2-0.2-1.1-1.1c-0.9-0.9-2.2,0.5-2.2,0.5
				l2.8,2.8C36.2,3.6,37.6,2.2,36.7,1.3z"/>
		</g>
	</g>
	<g>
		<g>
			<path fill-rule="evenodd" clip-rule="evenodd" fill="#39A6E6" d="M44,11.3L42,16l4.7-1.9l9.9-10l-2.8-2.8L44,11.3z M43.7,14.3
				l0.8-2.5c0.3,0.3,0.3,1.4,0.3,1.4s1.1,0,1.4,0.3L43.7,14.3z M57.7,1.3c-0.8-0.8-0.2-0.2-1.1-1.1c-0.9-0.9-2.2,0.5-2.2,0.5
				l2.8,2.8C57.2,3.6,58.6,2.2,57.7,1.3z"/>
		</g>
	</g>
</g>
<g id="Print">
</g>
<g id="Guides" display="none" opacity="0.2">
	<rect x="0" display="inline" fill="#0089D9" width="16" height="16"/>
	<rect x="21" display="inline" fill="#0089D9" width="16" height="16"/>
	<rect x="42" display="inline" fill="#0089D9" width="16" height="16"/>
</g>
</svg>
