<?xml version="1.0" encoding="utf-8"?>
<!-- Generator: Adobe Illustrator 19.1.0, SVG Export Plug-In . SVG Version: 6.00 Build 0)  -->
<!DOCTYPE svg PUBLIC "-//W3C//DTD SVG 1.1//EN" "http://www.w3.org/Graphics/SVG/1.1/DTD/svg11.dtd">
<svg version="1.1" xmlns="http://www.w3.org/2000/svg" xmlns:xlink="http://www.w3.org/1999/xlink" x="0px" y="0px" width="58px"
	 height="16px" viewBox="0 0 58 16" enable-background="new 0 0 58 16" xml:space="preserve">
<g id="Changelog">
</g>
<g id="Export">
	<g>
		<g>
			<path fill-rule="evenodd" clip-rule="evenodd" fill="#0089D9" d="M15.9,0.1C15.8,0,15.6,0,15.5,0h-4C11.2,0,11,0.2,11,0.5
				C11,0.8,11.2,1,11.5,1h2.8L6,9.3C5.8,9.5,5.8,9.8,6,10c0.2,0.2,0.5,0.2,0.7,0L15,1.7v2.8C15,4.8,15.2,5,15.5,5S16,4.8,16,4.5v-4
				C16,0.4,16,0.2,15.9,0.1z M13.5,7C13.2,7,13,7.2,13,7.5V15H1V3h7.5C8.8,3,9,2.8,9,2.5C9,2.2,8.8,2,8.5,2h-8C0.2,2,0,2.2,0,2.5v13
				C0,15.8,0.2,16,0.5,16h13c0.3,0,0.5-0.2,0.5-0.5v-8C14,7.2,13.8,7,13.5,7z"/>
		</g>
	</g>
	<g>
		<g>
			<path fill-rule="evenodd" clip-rule="evenodd" fill="#C8C8C8" d="M36.9,0.1C36.8,0,36.6,0,36.5,0h-4C32.2,0,32,0.2,32,0.5
				C32,0.8,32.2,1,32.5,1h2.8L27,9.3c-0.2,0.2-0.2,0.5,0,0.7c0.2,0.2,0.5,0.2,0.7,0L36,1.7v2.8C36,4.8,36.2,5,36.5,5
				C36.8,5,37,4.8,37,4.5v-4C37,0.4,37,0.2,36.9,0.1z M34.5,7C34.2,7,34,7.2,34,7.5V15H22V3h7.5C29.8,3,30,2.8,30,2.5
				C30,2.2,29.8,2,29.5,2h-8C21.2,2,21,2.2,21,2.5v13c0,0.3,0.2,0.5,0.5,0.5h13c0.3,0,0.5-0.2,0.5-0.5v-8C35,7.2,34.8,7,34.5,7z"/>
		</g>
	</g>
	<g>
		<g>
			<path fill-rule="evenodd" clip-rule="evenodd" fill="#39A6E6" d="M57.9,0.1C57.8,0,57.6,0,57.5,0h-4C53.2,0,53,0.2,53,0.5
				C53,0.8,53.2,1,53.5,1h2.8L48,9.3c-0.2,0.2-0.2,0.5,0,0.7c0.2,0.2,0.5,0.2,0.7,0L57,1.7v2.8C57,4.8,57.2,5,57.5,5
				C57.8,5,58,4.8,58,4.5v-4C58,0.4,58,0.2,57.9,0.1z M55.5,7C55.2,7,55,7.2,55,7.5V15H43V3h7.5C50.8,3,51,2.8,51,2.5
				C51,2.2,50.8,2,50.5,2h-8C42.2,2,42,2.2,42,2.5v13c0,0.3,0.2,0.5,0.5,0.5h13c0.3,0,0.5-0.2,0.5-0.5v-8C56,7.2,55.8,7,55.5,7z"/>
		</g>
	</g>
</g>
<g id="PDF">
</g>
<g id="Office_Excel">
</g>
<g id="PowerPoint">
</g>
<g id="Office_Word">
</g>
<g id="Filter">
</g>
<g id="Dislike">
</g>
<g id="Like">
</g>
<g id="Favourite">
</g>
<g id="Preview">
</g>
<g id="Download">
</g>
<g id="Upload">
</g>
<g id="Open">
</g>
<g id="Web">
</g>
<g id="Unlock">
</g>
<g id="Lock">
</g>
<g id="Phone">
</g>
<g id="Email">
</g>
<g id="Graph">
</g>
<g id="Note">
</g>
<g id="Search">
</g>
<g id="Alarm">
</g>
<g id="Time">
</g>
<g id="Users">
</g>
<g id="User">
</g>
<g id="Refresh">
</g>
<g id="Home">
</g>
<g id="Report">
</g>
<g id="Paste">
</g>
<g id="Copy">
</g>
<g id="Cut">
</g>
<g id="Flag">
</g>
<g id="Redo">
</g>
<g id="Undo">
</g>
<g id="Zoom_Out">
</g>
<g id="Zoom_In">
</g>
<g id="Add_Comment">
</g>
<g id="Unread_Comment">
</g>
<g id="Comment">
</g>
<g id="New">
</g>
<g id="Attach">
</g>
<g id="Delete">
</g>
<g id="Save">
</g>
<g id="Edit">
</g>
<g id="Print">
</g>
<g id="Guides" display="none" opacity="0.2">
	<rect x="0" display="inline" fill="#0089D9" width="16" height="16"/>
	<rect x="21" display="inline" fill="#0089D9" width="16" height="16"/>
	<rect x="42" display="inline" fill="#0089D9" width="16" height="16"/>
</g>
</svg>
