<?xml version="1.0" encoding="utf-8"?>
<!-- Generator: Adobe Illustrator 19.1.0, SVG Export Plug-In . SVG Version: 6.00 Build 0)  -->
<!DOCTYPE svg PUBLIC "-//W3C//DTD SVG 1.1//EN" "http://www.w3.org/Graphics/SVG/1.1/DTD/svg11.dtd">
<svg version="1.1" xmlns="http://www.w3.org/2000/svg" xmlns:xlink="http://www.w3.org/1999/xlink" x="0px" y="0px" width="58px"
	 height="16px" viewBox="0 0 58 16" enable-background="new 0 0 58 16" xml:space="preserve">
<g id="Changelog">
</g>
<g id="Export">
</g>
<g id="PDF">
</g>
<g id="Office_Excel">
</g>
<g id="PowerPoint">
</g>
<g id="Office_Word">
</g>
<g id="Filter">
</g>
<g id="Dislike">
</g>
<g id="Like">
</g>
<g id="Favourite">
</g>
<g id="Preview">
</g>
<g id="Download">
</g>
<g id="Upload">
</g>
<g id="Open">
</g>
<g id="Web">
</g>
<g id="Unlock">
</g>
<g id="Lock">
</g>
<g id="Phone">
</g>
<g id="Email">
	<g>
		<g>
			<path fill-rule="evenodd" clip-rule="evenodd" fill="#0089D9" d="M14,2H2C0.9,2,0,2.9,0,4v8c0,1.1,0.9,2,2,2h12c1.1,0,2-0.9,2-2
				V4C16,2.9,15.1,2,14,2z M14.2,3L8,8L1.8,3H14.2z M5.6,7.5L1,12.9V3.7L5.6,7.5z M1.1,13l5.6-4.7L8,9.4l1.3-1.1l5.6,4.7H1.1z
				 M15,12.9l-4.6-5.5L15,3.7V12.9z"/>
		</g>
	</g>
	<g>
		<g>
			<path fill-rule="evenodd" clip-rule="evenodd" fill="#C8C8C8" d="M35,2H23c-1.1,0-2,0.9-2,2v8c0,1.1,0.9,2,2,2h12
				c1.1,0,2-0.9,2-2V4C37,2.9,36.1,2,35,2z M35.2,3L29,8l-6.2-5H35.2z M26.6,7.5L22,12.9V3.7L26.6,7.5z M22.1,13l5.6-4.7L29,9.4
				l1.3-1.1l5.6,4.7H22.1z M36,12.9l-4.6-5.5L36,3.7V12.9z"/>
		</g>
	</g>
	<g>
		<g>
			<path fill-rule="evenodd" clip-rule="evenodd" fill="#39A6E6" d="M56,2H44c-1.1,0-2,0.9-2,2v8c0,1.1,0.9,2,2,2h12
				c1.1,0,2-0.9,2-2V4C58,2.9,57.1,2,56,2z M56.2,3L50,8l-6.2-5H56.2z M47.6,7.5L43,12.9V3.7L47.6,7.5z M43.1,13l5.6-4.7L50,9.4
				l1.3-1.1l5.6,4.7H43.1z M57,12.9l-4.6-5.5L57,3.7V12.9z"/>
		</g>
	</g>
</g>
<g id="Graph">
</g>
<g id="Note">
</g>
<g id="Search">
</g>
<g id="Alarm">
</g>
<g id="Time">
</g>
<g id="Users">
</g>
<g id="User">
</g>
<g id="Refresh">
</g>
<g id="Home">
</g>
<g id="Report">
</g>
<g id="Paste">
</g>
<g id="Copy">
</g>
<g id="Cut">
</g>
<g id="Flag">
</g>
<g id="Redo">
</g>
<g id="Undo">
</g>
<g id="Zoom_Out">
</g>
<g id="Zoom_In">
</g>
<g id="Add_Comment">
</g>
<g id="Unread_Comment">
</g>
<g id="Comment">
</g>
<g id="New">
</g>
<g id="Attach">
</g>
<g id="Delete">
</g>
<g id="Save">
</g>
<g id="Edit">
</g>
<g id="Print">
</g>
<g id="Guides" display="none" opacity="0.2">
	<rect x="0" display="inline" fill="#0089D9" width="16" height="16"/>
	<rect x="21" display="inline" fill="#0089D9" width="16" height="16"/>
	<rect x="42" display="inline" fill="#0089D9" width="16" height="16"/>
</g>
</svg>
