<?xml version="1.0" encoding="utf-8"?>
<!-- Generator: Adobe Illustrator 19.1.0, SVG Export Plug-In . SVG Version: 6.00 Build 0)  -->
<!DOCTYPE svg PUBLIC "-//W3C//DTD SVG 1.1//EN" "http://www.w3.org/Graphics/SVG/1.1/DTD/svg11.dtd">
<svg version="1.1" xmlns="http://www.w3.org/2000/svg" xmlns:xlink="http://www.w3.org/1999/xlink" x="0px" y="0px" width="58px"
	 height="16px" viewBox="0 0 58 16" enable-background="new 0 0 58 16" xml:space="preserve">
<g id="Changelog">
</g>
<g id="Export">
</g>
<g id="PDF">
</g>
<g id="Office_Excel">
</g>
<g id="PowerPoint">
</g>
<g id="Office_Word">
</g>
<g id="Filter">
</g>
<g id="Dislike">
</g>
<g id="Like">
</g>
<g id="Favourite">
</g>
<g id="Preview">
</g>
<g id="Download">
</g>
<g id="Upload">
</g>
<g id="Open">
</g>
<g id="Web">
</g>
<g id="Unlock">
</g>
<g id="Lock">
</g>
<g id="Phone">
</g>
<g id="Email">
</g>
<g id="Graph">
</g>
<g id="Note">
</g>
<g id="Search">
</g>
<g id="Alarm">
</g>
<g id="Time">
</g>
<g id="Users">
</g>
<g id="User">
</g>
<g id="Refresh">
</g>
<g id="Home">
</g>
<g id="Report">
</g>
<g id="Paste">
</g>
<g id="Copy">
</g>
<g id="Cut">
</g>
<g id="Flag">
	<g>
		<g>
			<path fill-rule="evenodd" clip-rule="evenodd" fill="#0089D9" d="M9.3,0.9C7.6-0.5,4.3-0.2,3,1.4v10c1.9-1.4,4-1.9,6-0.5
				c2.3,1.6,4.4,1.6,6-0.2v-10C12.8,2,11.4,2.7,9.3,0.9z M14,10.3c-1.6,1.5-2.7,0.7-4.6-0.5c-1.6-1-3.9-1-5.4-0.5V1.6
				c1.5-1,3.5-0.8,5,0.3c1.8,1.3,3.7,1.2,5,0.7V10.3z M1.5,0C1.2,0,1,0.3,1,0.5v15C1,15.8,1.2,16,1.5,16S2,15.8,2,15.5v-15
				C2,0.3,1.8,0,1.5,0z"/>
		</g>
	</g>
	<g>
		<g>
			<path fill-rule="evenodd" clip-rule="evenodd" fill="#C8C8C8" d="M30.3,0.9c-1.7-1.4-5-1.2-6.3,0.4c0,1.3,0,8.7,0,10
				c1.9-1.4,4-1.9,6-0.5c2.3,1.6,4.4,1.6,6-0.2c0-0.7,0-9.3,0-10C33.9,2,32.4,2.7,30.3,0.9z M35,10.3c-1.6,1.5-2.7,0.7-4.6-0.5
				c-1.6-1-3.9-1-5.4-0.5c0-1.3,0-6.3,0-7.6c1.5-1,3.5-0.8,5,0.3c1.8,1.3,3.7,1.2,5,0.7C35,3.3,35,9.6,35,10.3z M22.5,0
				C22.2,0,22,0.3,22,0.5v15c0,0.3,0.2,0.5,0.5,0.5s0.5-0.2,0.5-0.5v-15C23,0.3,22.8,0,22.5,0z"/>
		</g>
	</g>
	<g>
		<g>
			<path fill-rule="evenodd" clip-rule="evenodd" fill="#39A6E6" d="M51.3,0.9c-1.7-1.4-5-1.2-6.3,0.4v10c1.9-1.4,4-1.9,6-0.5
				c2.3,1.6,4.4,1.6,6-0.2v-10C54.9,2,53.4,2.7,51.3,0.9z M56,10.3c-1.6,1.5-2.7,0.7-4.6-0.5c-1.6-1-3.9-1-5.4-0.5V1.6
				c1.5-1,3.5-0.8,5,0.3c1.8,1.3,3.7,1.2,5,0.7V10.3z M43.5,0C43.2,0,43,0.3,43,0.5v15c0,0.3,0.2,0.5,0.5,0.5s0.5-0.2,0.5-0.5v-15
				C44,0.3,43.8,0,43.5,0z"/>
		</g>
	</g>
</g>
<g id="Redo">
</g>
<g id="Undo">
</g>
<g id="Zoom_Out">
</g>
<g id="Zoom_In">
</g>
<g id="Add_Comment">
</g>
<g id="Unread_Comment">
</g>
<g id="Comment">
</g>
<g id="New">
</g>
<g id="Attach">
</g>
<g id="Delete">
</g>
<g id="Save">
</g>
<g id="Edit">
</g>
<g id="Print">
</g>
<g id="Guides" display="none" opacity="0.2">
	<rect x="0" display="inline" fill="#0089D9" width="16" height="16"/>
	<rect x="21" display="inline" fill="#0089D9" width="16" height="16"/>
	<rect x="42" display="inline" fill="#0089D9" width="16" height="16"/>
</g>
</svg>
