<?xml version="1.0" encoding="utf-8"?>
<!-- Generator: Adobe Illustrator 19.1.0, SVG Export Plug-In . SVG Version: 6.00 Build 0)  -->
<!DOCTYPE svg PUBLIC "-//W3C//DTD SVG 1.1//EN" "http://www.w3.org/Graphics/SVG/1.1/DTD/svg11.dtd">
<svg version="1.1" xmlns="http://www.w3.org/2000/svg" xmlns:xlink="http://www.w3.org/1999/xlink" x="0px" y="0px" width="58px"
	 height="16px" viewBox="0 0 58 16" enable-background="new 0 0 58 16" xml:space="preserve">
<g id="Changelog">
</g>
<g id="Export">
</g>
<g id="PDF">
</g>
<g id="Office_Excel">
</g>
<g id="PowerPoint">
</g>
<g id="Office_Word">
</g>
<g id="Filter">
</g>
<g id="Dislike">
</g>
<g id="Like">
</g>
<g id="Favourite">
	<g>
		<g>
			<path fill-rule="evenodd" clip-rule="evenodd" fill="#0089D9" d="M15.7,6.6c0.5-0.5,0.2-1.4-0.5-1.4c-0.1,0-4.6-0.4-4.6-0.4
				c-0.1,0-1.8-4.2-1.8-4.2C8.6,0.2,8.3,0,8,0S7.4,0.2,7.2,0.5c0,0.1-1.8,4.2-1.8,4.2c-0.1,0-4.5,0.4-4.6,0.4c-0.7,0.1-1,1-0.5,1.4
				c0.1,0,3.5,3,3.5,3c0,0.1-1,4.4-1,4.5C2.6,14.8,3.4,15.4,4,15c0.1,0,3.9-2.3,4-2.3c0.1,0,3.9,2.3,4,2.3c0.6,0.4,1.4-0.2,1.2-0.9
				c0-0.1-1-4.4-1-4.5C12.2,9.6,15.6,6.6,15.7,6.6z M12,13.8c-3.7-2.2-3.8-2.2-4-2.2c-0.3,0-0.4,0-4,2.2c1-4.2,1-4.2,0.9-4.5
				C4.7,9,4.7,8.9,1.4,6.2C5.7,5.8,5.8,5.7,6,5.6c0.1-0.1,0.3-0.3,2-4.3v0.2c1.7,3.9,1.7,4,2,4.2c0.2,0.1,0.3,0.2,4.6,0.6
				c-3.2,2.8-3.3,2.9-3.4,3.1C11.1,9.6,11.1,9.6,12,13.8z M5.1,7.2C5,7.1,4.8,7.1,4.6,7.2c-0.1,0.1-0.1,0.3,0,0.5l0.9,0.9
				c0.1,0.1,0.3,0.1,0.5,0c0.1-0.1,0.1-0.3,0-0.5L5.1,7.2z"/>
		</g>
	</g>
	<g>
		<g>
			<path fill-rule="evenodd" clip-rule="evenodd" fill="#C8C8C8" d="M36.7,6.6c0.5-0.5,0.2-1.4-0.5-1.4c-0.1,0-4.6-0.4-4.6-0.4
				c-0.1,0-1.8-4.2-1.8-4.2C29.6,0.2,29.3,0,29,0s-0.6,0.2-0.8,0.5c0,0.1-1.8,4.2-1.8,4.2c-0.1,0-4.5,0.4-4.6,0.4
				c-0.7,0.1-1,1-0.5,1.4c0.1,0,3.5,3,3.5,3c0,0.1-1,4.4-1,4.5c-0.2,0.7,0.6,1.3,1.2,0.9c0.1,0,3.9-2.3,4-2.3c0.1,0,3.9,2.3,4,2.3
				c0.6,0.4,1.4-0.2,1.2-0.9c0-0.1-1-4.4-1-4.5C33.2,9.6,36.6,6.6,36.7,6.6z M33,13.8c-3.7-2.2-3.8-2.2-4-2.2c-0.3,0-0.4,0-4,2.2
				c1-4.2,1-4.2,0.9-4.5c-0.1-0.3-0.1-0.4-3.4-3.1c4.2-0.3,4.4-0.4,4.6-0.6c0.1-0.1,0.3-0.3,2-4.3v0.2c1.7,3.9,1.7,4,2,4.2
				c0.2,0.1,0.3,0.2,4.6,0.6c-3.2,2.8-3.3,2.9-3.4,3.1C32.1,9.6,32.1,9.6,33,13.8z M26.1,7.2c-0.1-0.1-0.3-0.1-0.5,0
				c-0.1,0.1-0.1,0.3,0,0.5l0.9,0.9c0.1,0.1,0.3,0.1,0.5,0c0.1-0.1,0.1-0.3,0-0.5L26.1,7.2z"/>
		</g>
	</g>
	<g>
		<g>
			<path fill-rule="evenodd" clip-rule="evenodd" fill="#39A6E6" d="M57.7,6.6c0.5-0.5,0.2-1.4-0.5-1.4c-0.1,0-4.6-0.4-4.6-0.4
				c-0.1,0-1.8-4.2-1.8-4.2C50.6,0.2,50.3,0,50,0s-0.6,0.2-0.8,0.5c0,0.1-1.8,4.2-1.8,4.2c-0.1,0-4.5,0.4-4.6,0.4
				c-0.7,0.1-1,1-0.5,1.4c0.1,0,3.5,3,3.5,3c0,0.1-1,4.4-1,4.5c-0.2,0.7,0.6,1.3,1.2,0.9c0.1,0,3.9-2.3,4-2.3c0.1,0,3.9,2.3,4,2.3
				c0.6,0.4,1.4-0.2,1.2-0.9c0-0.1-1-4.4-1-4.5C54.3,9.6,57.7,6.6,57.7,6.6z M54.1,13.8c-3.7-2.2-3.8-2.2-4-2.2c-0.3,0-0.4,0-4,2.2
				c1-4.2,1-4.2,0.9-4.5c-0.1-0.3-0.1-0.4-3.4-3.1c4.2-0.3,4.4-0.4,4.6-0.6c0.1-0.1,0.3-0.3,2-4.3v0.2c1.7,3.9,1.7,4,2,4.2
				c0.2,0.1,0.3,0.2,4.6,0.6c-3.2,2.8-3.3,2.9-3.4,3.1C53.1,9.6,53.1,9.6,54.1,13.8z M47.1,7.2c-0.1-0.1-0.3-0.1-0.5,0
				c-0.1,0.1-0.1,0.3,0,0.5l0.9,0.9c0.1,0.1,0.3,0.1,0.5,0c0.1-0.1,0.1-0.3,0-0.5L47.1,7.2z"/>
		</g>
	</g>
</g>
<g id="Preview">
</g>
<g id="Download">
</g>
<g id="Upload">
</g>
<g id="Open">
</g>
<g id="Web">
</g>
<g id="Unlock">
</g>
<g id="Lock">
</g>
<g id="Phone">
</g>
<g id="Email">
</g>
<g id="Graph">
</g>
<g id="Note">
</g>
<g id="Search">
</g>
<g id="Alarm">
</g>
<g id="Time">
</g>
<g id="Users">
</g>
<g id="User">
</g>
<g id="Refresh">
</g>
<g id="Home">
</g>
<g id="Report">
</g>
<g id="Paste">
</g>
<g id="Copy">
</g>
<g id="Cut">
</g>
<g id="Flag">
</g>
<g id="Redo">
</g>
<g id="Undo">
</g>
<g id="Zoom_Out">
</g>
<g id="Zoom_In">
</g>
<g id="Add_Comment">
</g>
<g id="Unread_Comment">
</g>
<g id="Comment">
</g>
<g id="New">
</g>
<g id="Attach">
</g>
<g id="Delete">
</g>
<g id="Save">
</g>
<g id="Edit">
</g>
<g id="Print">
</g>
<g id="Guides" display="none" opacity="0.2">
	<rect x="0" display="inline" fill="#0089D9" width="16" height="16"/>
	<rect x="21" display="inline" fill="#0089D9" width="16" height="16"/>
	<rect x="42" display="inline" fill="#0089D9" width="16" height="16"/>
</g>
</svg>
