<?xml version="1.0" encoding="utf-8"?>
<!-- Generator: Adobe Illustrator 19.1.0, SVG Export Plug-In . SVG Version: 6.00 Build 0)  -->
<!DOCTYPE svg PUBLIC "-//W3C//DTD SVG 1.1//EN" "http://www.w3.org/Graphics/SVG/1.1/DTD/svg11.dtd">
<svg version="1.1" xmlns="http://www.w3.org/2000/svg" xmlns:xlink="http://www.w3.org/1999/xlink" x="0px" y="0px" width="58px"
	 height="16px" viewBox="0 0 58 16" enable-background="new 0 0 58 16" xml:space="preserve">
<g id="Changelog">
</g>
<g id="Export">
</g>
<g id="PDF">
</g>
<g id="Office_Excel">
</g>
<g id="PowerPoint">
</g>
<g id="Office_Word">
</g>
<g id="Filter">
</g>
<g id="Dislike">
</g>
<g id="Like">
</g>
<g id="Favourite">
</g>
<g id="Preview">
</g>
<g id="Download">
</g>
<g id="Upload">
</g>
<g id="Open">
</g>
<g id="Web">
</g>
<g id="Unlock">
</g>
<g id="Lock">
</g>
<g id="Phone">
</g>
<g id="Email">
</g>
<g id="Graph">
	<g>
		<g>
			<path fill-rule="evenodd" clip-rule="evenodd" fill="#0089D9" d="M16,7c0-4.1-2.9-7-7-7c0,1.3,0,7,0,7S14.8,7,16,7z M10,1.4
				c2,0,4.7,2.6,4.7,4.6c-0.9,0-3.2,0-4.7,0C10,4.7,10,2.1,10,1.4z"/>
		</g>
	</g>
	<path fill-rule="evenodd" clip-rule="evenodd" fill="#FF8B00" d="M0,9c0,4.1,3.5,7,7.5,7c4.1,0,7.5-2.9,7.5-7C13.8,9,1.2,9,0,9z
		 M7.5,15c-4,0-6.2-3.8-6.2-5c1.5,0,11.5,0,12.4,0C13.7,11.1,11.5,15,7.5,15z"/>
	<path fill-rule="evenodd" clip-rule="evenodd" fill="#68A611" d="M7,1C2.9,1,0,3.9,0,8c1.2,0,7,0,7,0S7,2.3,7,1z M6,7
		C4.5,7,2.2,7,1.3,7C1.3,5,4,2.3,6,2.3C6,3,6,6,6,7z"/>
	<g>
		<g>
			<path fill-rule="evenodd" clip-rule="evenodd" fill="#C8C8C8" d="M37,7c0-4.1-2.9-7-7-7c0,1.3,0,7,0,7S35.8,7,37,7z M31,1.4
				c2,0,4.7,2.6,4.7,4.6c-0.9,0-3.2,0-4.7,0C31,4.7,31,2.1,31,1.4z"/>
		</g>
	</g>
	<path fill-rule="evenodd" clip-rule="evenodd" fill="#C8C8C8" d="M21,9c0,4.1,3.5,7,7.5,7c4.1,0,7.5-2.9,7.5-7C34.8,9,22.2,9,21,9z
		 M28.5,15c-4,0-6.2-3.8-6.2-5c1.5,0,11.5,0,12.4,0C34.7,11.1,32.5,15,28.5,15z"/>
	<path fill-rule="evenodd" clip-rule="evenodd" fill="#C8C8C8" d="M28,1c-4.1,0-7,2.9-7,7c1.2,0,7,0,7,0S28,2.3,28,1z M27,7
		c-1,0-3.8,0-4.7,0c0-2,2.7-4.7,4.7-4.7C27,3,27,6,27,7z"/>
	<g>
		<g>
			<path fill-rule="evenodd" clip-rule="evenodd" fill="#39A6E6" d="M58,7c0-4.1-2.9-7-7-7c0,1.3,0,7,0,7S56.8,7,58,7z M52,1.4
				c2,0,4.7,2.6,4.7,4.6c-0.9,0-3.2,0-4.7,0C52,4.7,52,2.1,52,1.4z"/>
		</g>
	</g>
	<path fill-rule="evenodd" clip-rule="evenodd" fill="#FFA526" d="M42,9c0,4.1,3.5,7,7.5,7c4.1,0,7.5-2.9,7.5-7C55.8,9,43.2,9,42,9z
		 M49.5,15c-4,0-6.2-3.8-6.2-5c1.5,0,11.5,0,12.4,0C55.7,11.1,53.5,15,49.5,15z"/>
	<path fill-rule="evenodd" clip-rule="evenodd" fill="#8EC928" d="M49,1c-4.1,0-7,2.9-7,7c1.2,0,7,0,7,0S49,2.3,49,1z M48,7
		c-1,0-3.8,0-4.7,0c0-2,2.7-4.7,4.7-4.7C48,3,48,6,48,7z"/>
</g>
<g id="Note">
</g>
<g id="Search">
</g>
<g id="Alarm">
</g>
<g id="Time">
</g>
<g id="Users">
</g>
<g id="User">
</g>
<g id="Refresh">
</g>
<g id="Home">
</g>
<g id="Report">
</g>
<g id="Paste">
</g>
<g id="Copy">
</g>
<g id="Cut">
</g>
<g id="Flag">
</g>
<g id="Redo">
</g>
<g id="Undo">
</g>
<g id="Zoom_Out">
</g>
<g id="Zoom_In">
</g>
<g id="Add_Comment">
</g>
<g id="Unread_Comment">
</g>
<g id="Comment">
</g>
<g id="New">
</g>
<g id="Attach">
</g>
<g id="Delete">
</g>
<g id="Save">
</g>
<g id="Edit">
</g>
<g id="Print">
</g>
<g id="Guides" display="none" opacity="0.2">
	<rect x="0" display="inline" fill="#0089D9" width="16" height="16"/>
	<rect x="21" display="inline" fill="#0089D9" width="16" height="16"/>
	<rect x="42" display="inline" fill="#0089D9" width="16" height="16"/>
</g>
</svg>
