<?xml version="1.0" encoding="utf-8"?>
<!-- Generator: Adobe Illustrator 19.1.0, SVG Export Plug-In . SVG Version: 6.00 Build 0)  -->
<!DOCTYPE svg PUBLIC "-//W3C//DTD SVG 1.1//EN" "http://www.w3.org/Graphics/SVG/1.1/DTD/svg11.dtd">
<svg version="1.1" xmlns="http://www.w3.org/2000/svg" xmlns:xlink="http://www.w3.org/1999/xlink" x="0px" y="0px" width="58px"
	 height="16px" viewBox="0 0 58 16" enable-background="new 0 0 58 16" xml:space="preserve">
<g id="Changelog">
</g>
<g id="Export">
</g>
<g id="PDF">
</g>
<g id="Office_Excel">
</g>
<g id="PowerPoint">
</g>
<g id="Office_Word">
</g>
<g id="Filter">
</g>
<g id="Dislike">
</g>
<g id="Like">
</g>
<g id="Favourite">
</g>
<g id="Preview">
</g>
<g id="Download">
</g>
<g id="Upload">
</g>
<g id="Open">
</g>
<g id="Web">
</g>
<g id="Unlock">
</g>
<g id="Lock">
</g>
<g id="Phone">
</g>
<g id="Email">
</g>
<g id="Graph">
</g>
<g id="Note">
</g>
<g id="Search">
</g>
<g id="Alarm">
</g>
<g id="Time">
</g>
<g id="Users">
</g>
<g id="User">
</g>
<g id="Refresh">
</g>
<g id="Home">
	<g>
		<g>
			<path fill-rule="evenodd" clip-rule="evenodd" fill="#0089D9" d="M12,2h1v2l1,0l0-2h0V1h-1h-1h-1v1l1,1V2z M13.5,9
				C13.3,9,13,9.2,13,9.5V15h-3v-3.5c0-0.3-0.2-0.5-0.5-0.5h-3C6.3,11,6,11.2,6,11.5V15H3V9.5C3,9.2,2.8,9,2.5,9C2.3,9,2,9.2,2,9.5
				v6C2,15.8,2.3,16,2.5,16h4C6.8,16,7,15.8,7,15.5V12h2v3.5C9,15.8,9.3,16,9.5,16h4c0.3,0,0.5-0.2,0.5-0.5v-6C14,9.2,13.8,9,13.5,9
				z M15.9,8.2L8.9,1.1c-0.2-0.2-0.5-0.2-0.7,0C8.1,1.2,8.1,1.2,8,1.3C8,1.2,8,1.2,7.9,1.1c-0.2-0.2-0.5-0.2-0.7,0L0.1,8.2
				C0,8.4,0,8.7,0.1,8.9c0.2,0.2,0.5,0.2,0.7,0l7.1-7.1C8,1.8,8,1.7,8,1.6c0,0.1,0.1,0.1,0.1,0.2l7.1,7.1c0.2,0.2,0.5,0.2,0.7,0
				C16.1,8.7,16.1,8.4,15.9,8.2z"/>
		</g>
	</g>
	<g>
		<g>
			<path fill-rule="evenodd" clip-rule="evenodd" fill="#C8C8C8" d="M33,2h1v2l1,0l0-2h0V1h-1h-1h-1v1l1,1V2z M34.5,9
				C34.3,9,34,9.2,34,9.5V15h-3v-3.5c0-0.3-0.2-0.5-0.5-0.5h-3c-0.3,0-0.5,0.2-0.5,0.5V15h-3V9.5C24,9.2,23.8,9,23.5,9
				C23.3,9,23,9.2,23,9.5v6c0,0.3,0.2,0.5,0.5,0.5h4c0.3,0,0.5-0.2,0.5-0.5V12h2v3.5c0,0.3,0.2,0.5,0.5,0.5h4c0.3,0,0.5-0.2,0.5-0.5
				v-6C35,9.2,34.8,9,34.5,9z M36.9,8.2l-7.1-7.1c-0.2-0.2-0.5-0.2-0.7,0c-0.1,0.1-0.1,0.1-0.1,0.2c0-0.1-0.1-0.1-0.1-0.2
				c-0.2-0.2-0.5-0.2-0.7,0l-7.1,7.1c-0.2,0.2-0.2,0.5,0,0.7c0.2,0.2,0.5,0.2,0.7,0l7.1-7.1C29,1.8,29,1.7,29,1.6
				c0,0.1,0.1,0.1,0.1,0.2l7.1,7.1c0.2,0.2,0.5,0.2,0.7,0C37.1,8.7,37.1,8.4,36.9,8.2z"/>
		</g>
	</g>
	<g>
		<g>
			<path fill-rule="evenodd" clip-rule="evenodd" fill="#39A6E6" d="M54,2h1v2l1,0l0-2h0V1h-3v1l1,1V2z M55.5,9
				C55.3,9,55,9.2,55,9.5V15h-3v-3.5c0-0.3-0.2-0.5-0.5-0.5h-3c-0.3,0-0.5,0.2-0.5,0.5V15h-3V9.5C45,9.2,44.8,9,44.5,9
				C44.3,9,44,9.2,44,9.5v6c0,0.3,0.2,0.5,0.5,0.5h4c0.3,0,0.5-0.2,0.5-0.5V12h2v3.5c0,0.3,0.2,0.5,0.5,0.5h4c0.3,0,0.5-0.2,0.5-0.5
				v-6C56,9.2,55.8,9,55.5,9z M57.9,8.2l-7.1-7.1c-0.2-0.2-0.5-0.2-0.7,0c-0.1,0.1-0.1,0.1-0.1,0.2c0-0.1-0.1-0.1-0.1-0.2
				c-0.2-0.2-0.5-0.2-0.7,0l-7.1,7.1c-0.2,0.2-0.2,0.5,0,0.7c0.2,0.2,0.5,0.2,0.7,0l7.1-7.1C50,1.8,50,1.7,50,1.6
				c0,0.1,0.1,0.1,0.1,0.2l7.1,7.1c0.2,0.2,0.5,0.2,0.7,0C58.1,8.7,58.1,8.4,57.9,8.2z"/>
		</g>
	</g>
</g>
<g id="Report">
</g>
<g id="Paste">
</g>
<g id="Copy">
</g>
<g id="Cut">
</g>
<g id="Flag">
</g>
<g id="Redo">
</g>
<g id="Undo">
</g>
<g id="Zoom_Out">
</g>
<g id="Zoom_In">
</g>
<g id="Add_Comment">
</g>
<g id="Unread_Comment">
</g>
<g id="Comment">
</g>
<g id="New">
</g>
<g id="Attach">
</g>
<g id="Delete">
</g>
<g id="Save">
</g>
<g id="Edit">
</g>
<g id="Print">
</g>
<g id="Guides" display="none" opacity="0.2">
	<rect x="0" display="inline" fill="#0089D9" width="16" height="16"/>
	<rect x="21" display="inline" fill="#0089D9" width="16" height="16"/>
	<rect x="42" display="inline" fill="#0089D9" width="16" height="16"/>
</g>
</svg>
