<?xml version="1.0" encoding="utf-8"?>
<!-- Generator: Adobe Illustrator 19.1.1, SVG Export Plug-In . SVG Version: 6.00 Build 0)  -->
<svg version="1.1" xmlns="http://www.w3.org/2000/svg" xmlns:xlink="http://www.w3.org/1999/xlink" x="0px" y="0px" width="93.3px"
	 height="16px" viewBox="0 0 140 24" enable-background="new 0 0 140 24" xml:space="preserve">
<g id="Layer_62">
</g>
<g id="Layer_63">
</g>
<g id="Layer_64">
</g>
<g id="Layer_65">
</g>
<g id="Layer_66">
</g>
<g id="Layer_67">
</g>
<g id="Layer_68">
</g>
<g id="Layer_69">
</g>
<g id="Layer_70">
</g>
<g id="Layer_71">
</g>
<g id="Layer_72">
</g>
<g id="Layer_73">
</g>
<g id="Layer_74">
</g>
<g id="Layer_75">
</g>
<g id="Layer_76">
</g>
<g id="Layer_77">
</g>
<g id="Layer_78">
</g>
<g id="Layer_79">
</g>
<g id="Layer_80">
</g>
<g id="Layer_81">
</g>
<g id="Layer_82">
</g>
<g id="Layer_83">
</g>
<g id="Layer_84">
</g>
<g id="Layer_85">
</g>
<g id="Layer_86">
</g>
<g id="Layer_87">
</g>
<g id="Layer_88">
</g>
<g id="Layer_89">
</g>
<g id="Layer_90">
</g>
<g id="Layer_91">
</g>
<g id="Layer_92">
</g>
<g id="Layer_93">
</g>
<g id="Layer_94">
</g>
<g id="Layer_95">
</g>
<g id="Layer_96">
</g>
<g id="Layer_97">
</g>
<g id="Layer_98">
</g>
<g id="Layer_99">
</g>
<g id="Layer_100">
</g>
<g id="Layer_101">
</g>
<g id="Layer_102">
</g>
<g id="Special_Day">
</g>
<g id="Vacation_1_">
</g>
<g id="Parental_Leave_x2F_Toys">
</g>
<g id="Absence_1_">
</g>
<g id="Attendance">
</g>
<g id="Overtime">
</g>
<g id="Working_Day">
</g>
<g id="Adjust_Hours">
</g>
<g id="Roster">
</g>
<g id="Summary">
</g>
<g id="Lodging">
</g>
<g id="Daily_Allowance">
</g>
<g id="Mileage">
</g>
<g id="Birth">
</g>
<g id="Absence">
</g>
<g id="Holiday">
</g>
<g id="Bonus_x2F_Ghift">
</g>
<g id="Vacation">
</g>
<g id="Sickness">
</g>
<g id="Sick_Child">
</g>
<g id="Parental_Leave">
</g>
<g id="Order_Closed">
</g>
<g id="Create_an_Order_1_">
</g>
<g id="Order_Imported">
</g>
<g id="Delivery_Reception_1_">
</g>
<g id="Delivery_Notification_1_">
</g>
<g id="Delivery_Reception">
</g>
<g id="Events">
</g>
<g id="Comment_to_Order">
</g>
<g id="Special_Approved">
</g>
<g id="Narrow">
</g>
<g id="Wide">
</g>
<g id="Content_Edit">
</g>
<g id="Storage_x2F_In_Stock">
</g>
<g id="Environmental">
</g>
<g id="View_Time_Report">
</g>
<g id="Incoming">
</g>
<g id="Shared_User">
</g>
<g id="Add_to_Requisition_Template">
</g>
<g id="Future">
</g>
<g id="History">
</g>
<g id="Managers_Time_Registration">
</g>
<g id="Payroll_Calculations">
</g>
<g id="Comment_Chat">
</g>
<g id="Comment_Web_Reply">
</g>
<g id="Comment_Community">
</g>
<g id="Platform_Mobile">
</g>
<g id="Platform_Cloud">
</g>
<g id="Jira">
</g>
<g id="Change_Owner">
</g>
<g id="Change_Width">
</g>
<g id="Help">
</g>
<g id="Agreement">
</g>
<g id="Storage">
</g>
<g id="Tile_View">
</g>
<g id="List_View">
</g>
<g id="Sort_List">
</g>
<g id="User_List_2">
</g>
<g id="User_List_1">
</g>
<g id="Exclude">
</g>
<g id="Sending_Failed">
</g>
<g id="Send">
</g>
<g id="Logon_Failed">
</g>
<g id="Coffee_Break">
</g>
<g id="Lunch">
</g>
<g id="Add_User">
</g>
<g id="Alert">
</g>
<g id="Detach">
</g>
<g id="Office_Building">
</g>
<g id="User_Placeholder">
</g>
<g id="Education">
</g>
<g id="Folder_Building">
</g>
<g id="User_Folder">
</g>
<g id="Location">
</g>
<g id="Exit_Full_Screen">
</g>
<g id="Enter_Full_Screen">
</g>
<g id="Hourglass">
</g>
<g id="Undefined_Document">
</g>
<g id="Sound">
</g>
<g id="XML">
</g>
<g id="Database">
</g>
<g id="Video">
</g>
<g id="Archive_Document">
</g>
<g id="Text_Files">
</g>
<g id="Breadcrumbs_Folder">
</g>
<g id="Share_with_me">
</g>
<g id="Evaluate">
</g>
<g id="Contract">
</g>
<g id="Price">
</g>
<g id="Secret_Document">
</g>
<g id="Drag">
</g>
<g id="Document_Info">
</g>
<g id="Panel">
</g>
<g id="Rotate_CCW">
</g>
<g id="Rotate_CW">
</g>
<g id="Replace">
</g>
<g id="Link">
	<g>
		<g>
			<path fill-rule="evenodd" clip-rule="evenodd" fill="#0089D9" d="M10,17.5L10,17.5L7.5,20c-1,1-2.6,1-3.5,0c-1-1-1-2.6,0-3.5
				L6.5,14l0,0l3-3c-1.4-0.3-3,0.1-4.1,1.2L2.6,15c-1.8,1.8-1.8,4.6,0,6.4c1.8,1.8,4.6,1.8,6.4,0l2.8-2.8c1.1-1.1,1.5-2.6,1.2-4.1
				L10,17.5z M21.7,2.3c-1.8-1.8-4.6-1.8-6.4,0l-2.8,2.8c-1.1,1.1-1.5,2.6-1.2,4.1l2.3-2.3c0.1-0.1,0.1-0.1,0.2-0.2
				c0.1-0.1,0.1-0.1,0.2-0.2l2.8-2.8c1-1,2.6-1,3.5,0c1,1,1,2.6,0,3.5l-2.8,2.8c-0.1,0.1-0.1,0.1-0.2,0.2c-0.1,0.1-0.1,0.1-0.2,0.2
				l-2.3,2.3c1.4,0.3,3-0.1,4.1-1.2l2.8-2.8C23.4,6.9,23.4,4.1,21.7,2.3z M10,15.6l5.9-5.8C17,8.7,15.3,7,14.2,8.1L8.4,14
				C7.2,15.2,8.8,16.8,10,15.6z"/>
		</g>
	</g>
	<g>
		<g>
			<path fill-rule="evenodd" clip-rule="evenodd" fill="#D7D7D7" d="M39,17.5L39,17.5L36.5,20c-1,1-2.6,1-3.5,0c-1-1-1-2.6,0-3.5
				l2.5-2.5l0,0l3-3c-1.4-0.3-3,0.1-4.1,1.2L31.6,15c-1.8,1.8-1.8,4.6,0,6.4c1.8,1.8,4.6,1.8,6.4,0l2.8-2.8c1.1-1.1,1.5-2.6,1.2-4.1
				L39,17.5z M50.7,2.3c-1.8-1.8-4.6-1.8-6.4,0l-2.8,2.8c-1.1,1.1-1.5,2.6-1.2,4.1l2.3-2.3c0.1-0.1,0.1-0.1,0.2-0.2
				c0.1-0.1,0.1-0.1,0.2-0.2l2.8-2.8c1-1,2.6-1,3.5,0c1,1,1,2.6,0,3.5l-2.8,2.8c-0.1,0.1-0.1,0.1-0.2,0.2c-0.1,0.1-0.1,0.1-0.2,0.2
				l-2.3,2.3c1.4,0.3,3-0.1,4.1-1.2l2.8-2.8C52.4,6.9,52.4,4.1,50.7,2.3z M39,15.6l5.9-5.8C46,8.7,44.3,7,43.2,8.1L37.4,14
				C36.2,15.2,37.8,16.8,39,15.6z"/>
		</g>
	</g>
	<g>
		<g>
			<path fill-rule="evenodd" clip-rule="evenodd" fill="#39A6E6" d="M68,17.5L68,17.5L65.5,20c-1,1-2.6,1-3.5,0c-1-1-1-2.6,0-3.5
				l2.5-2.5l0,0l3-3c-1.4-0.3-3,0.1-4.1,1.2L60.6,15c-1.8,1.8-1.8,4.6,0,6.4c1.8,1.8,4.6,1.8,6.4,0l2.8-2.8c1.1-1.1,1.5-2.6,1.2-4.1
				L68,17.5z M79.7,2.3c-1.8-1.8-4.6-1.8-6.4,0l-2.8,2.8c-1.1,1.1-1.5,2.6-1.2,4.1l2.3-2.3c0.1-0.1,0.1-0.1,0.2-0.2
				c0.1-0.1,0.1-0.1,0.2-0.2l2.8-2.8c1-1,2.6-1,3.5,0c1,1,1,2.6,0,3.5l-2.8,2.8c-0.1,0.1-0.1,0.1-0.2,0.2c-0.1,0.1-0.1,0.1-0.2,0.2
				l-2.3,2.3c1.4,0.3,3-0.1,4.1-1.2l2.8-2.8C81.4,6.9,81.4,4.1,79.7,2.3z M68,15.6l5.9-5.8C75,8.7,73.3,7,72.2,8.1L66.4,14
				C65.2,15.2,66.8,16.8,68,15.6z"/>
		</g>
	</g>
	<g>
		<g>
			<path fill-rule="evenodd" clip-rule="evenodd" fill="#FFFFFF" d="M108.7,2.3c-1.8-1.8-4.6-1.8-6.4,0l-2.8,2.8
				c-1.1,1.1-1.5,2.6-1.2,4.1l2.3-2.3c0.1-0.1,0.1-0.1,0.2-0.2c0.1-0.1,0.1-0.1,0.2-0.2l2.8-2.8c1-1,2.6-1,3.5,0c1,1,1,2.6,0,3.5
				l-2.8,2.8c-0.1,0.1-0.1,0.1-0.2,0.2c-0.1,0.1-0.1,0.1-0.2,0.2l-2.3,2.3c1.4,0.3,3-0.1,4.1-1.2l2.8-2.8
				C110.4,6.9,110.4,4.1,108.7,2.3z M97,17.5L97,17.5L94.5,20c-1,1-2.6,1-3.5,0c-1-1-1-2.6,0-3.5l2.5-2.5l0,0l3-3
				c-1.4-0.3-3,0.1-4.1,1.2L89.6,15c-1.8,1.8-1.8,4.6,0,6.4c1.8,1.8,4.6,1.8,6.4,0l2.8-2.8c1.1-1.1,1.5-2.6,1.2-4.1L97,17.5z
				 M97,15.6l5.9-5.8c1.1-1.1-0.6-2.8-1.7-1.7L95.4,14C94.2,15.2,95.8,16.8,97,15.6z"/>
		</g>
	</g>
	<g>
		<g>
			<path fill-rule="evenodd" clip-rule="evenodd" fill="#737373" d="M126,17.5L126,17.5l-2.5,2.5c-1,1-2.6,1-3.5,0c-1-1-1-2.6,0-3.5
				l2.5-2.5l0,0l3-3c-1.4-0.3-3,0.1-4.1,1.2l-2.8,2.8c-1.8,1.8-1.8,4.6,0,6.4c1.8,1.8,4.6,1.8,6.4,0l2.8-2.8
				c1.1-1.1,1.5-2.6,1.2-4.1L126,17.5z M137.7,2.3c-1.8-1.8-4.6-1.8-6.4,0l-2.8,2.8c-1.1,1.1-1.5,2.6-1.2,4.1l2.3-2.3
				c0.1-0.1,0.1-0.1,0.2-0.2c0.1-0.1,0.1-0.1,0.2-0.2l2.8-2.8c1-1,2.6-1,3.5,0c1,1,1,2.6,0,3.5l-2.8,2.8c-0.1,0.1-0.1,0.1-0.2,0.2
				c-0.1,0.1-0.1,0.1-0.2,0.2l-2.3,2.3c1.4,0.3,3-0.1,4.1-1.2l2.8-2.8C139.4,6.9,139.4,4.1,137.7,2.3z M126,15.6l5.9-5.8
				c1.1-1.1-0.6-2.8-1.7-1.7l-5.8,5.9C123.2,15.2,124.8,16.8,126,15.6z"/>
		</g>
	</g>
</g>
<g id="Note_Filled">
</g>
<g id="Note_Blank">
</g>
<g id="Announcement">
</g>
<g id="Guides" display="none" opacity="0.2">
	<rect display="inline" fill-rule="evenodd" clip-rule="evenodd" fill="#0089D9" width="24" height="24"/>
	<rect x="29" display="inline" fill-rule="evenodd" clip-rule="evenodd" fill="#0089D9" width="24" height="24"/>
	<rect x="58" display="inline" fill-rule="evenodd" clip-rule="evenodd" fill="#0089D9" width="24" height="24"/>
	<rect x="87" display="inline" fill-rule="evenodd" clip-rule="evenodd" fill="#0089D9" width="24" height="24"/>
	<rect x="116" display="inline" fill-rule="evenodd" clip-rule="evenodd" fill="#0089D9" width="24" height="24"/>
</g>
</svg>
