<?xml version="1.0" encoding="utf-8"?>
<!-- Generator: Adobe Illustrator 19.1.0, SVG Export Plug-In . SVG Version: 6.00 Build 0)  -->
<!DOCTYPE svg PUBLIC "-//W3C//DTD SVG 1.1//EN" "http://www.w3.org/Graphics/SVG/1.1/DTD/svg11.dtd">
<svg version="1.1" xmlns="http://www.w3.org/2000/svg" xmlns:xlink="http://www.w3.org/1999/xlink" x="0px" y="0px" width="58px"
	 height="16px" viewBox="0 0 58 16" enable-background="new 0 0 58 16" xml:space="preserve">
<g id="Changelog">
</g>
<g id="Export">
</g>
<g id="PDF">
</g>
<g id="Office_Excel">
</g>
<g id="PowerPoint">
</g>
<g id="Office_Word">
</g>
<g id="Filter">
</g>
<g id="Dislike">
</g>
<g id="Like">
	<g>
		<g>
			<path fill-rule="evenodd" clip-rule="evenodd" fill="#0089D9" d="M0.7,16c0.7,0,1.3,0,1.3,0V7c0,0-0.6,0-1.3,0
				C-0.3,7.6,0,15.3,0.7,16z M16,10.2c0-0.8-0.6-0.8-0.7-1.2c-0.1-0.6,0.5-0.8,0.3-1.6c-0.1-0.4-0.6-0.6-1.1-0.7
				c-0.6-0.1-3.1,0.1-3.8-0.5c-0.9-0.8,0.3-1.6,0.3-3.4c0-2.1-1.5-3.5-3.4-2.3c0.4,1,0.2,2-0.5,3.2C6.3,6.7,4.5,7.1,3.1,8v7
				c2.6,0,4,0.8,5.8,0.9c2.3,0.1,4.4-0.4,4.7-0.5c1.2-0.3,0.8-1.1,1.1-1.6c0.3-0.4,0.8-0.4,1-1c0.2-0.6-0.3-0.7-0.3-1.2
				C15.3,11,16,11,16,10.2z M14.2,11.2c0,0.5,0.5,0.8,0.4,1.2c-0.1,0.4-0.9,0.3-1.2,0.7c-0.2,0.4,0.3,1.3-0.7,1.5
				c-0.3,0.1-1.8,0.5-3.6,0.4c-1.4-0.1-3-1-5-1V9c1.4-0.6,3.8-2,4.1-4.8c0.6-0.7,1-1.9,0.8-2.9c0.9,0.2,1.2,1.6,0.7,2.7
				C9.1,5.2,8.9,6.2,9.6,6.8c0.6,0.5,3,0.7,3.5,0.8c0.4,0,1.1,0.1,1.1,0.3c0.2,0.4-0.1,1,0,1.3c0.1,0.3,0.7,0.6,0.7,1
				C14.9,10.6,14.2,10.7,14.2,11.2z"/>
		</g>
	</g>
	<g>
		<g>
			<path fill-rule="evenodd" clip-rule="evenodd" fill="#C8C8C8" d="M21.7,16c0.7,0,1.3,0,1.3,0V7c0,0-0.6,0-1.3,0
				C20.7,7.6,21,15.3,21.7,16z M37,10.2c0-0.8-0.6-0.8-0.7-1.2c-0.1-0.6,0.5-0.8,0.3-1.6c-0.1-0.4-0.6-0.6-1.1-0.7
				c-0.6-0.1-3.1,0.1-3.8-0.5c-0.9-0.8,0.3-1.6,0.3-3.4c0-2.1-1.5-3.5-3.4-2.3c0.4,1,0.2,2-0.5,3.2c-0.9,3-2.7,3.4-4.2,4.3
				c0,1.3,0,5.7,0,7c2.6,0,4,0.8,5.8,0.9c2.3,0.1,4.4-0.4,4.7-0.5c1.2-0.3,0.8-1.1,1.1-1.6c0.3-0.4,0.8-0.4,1-1
				c0.2-0.6-0.3-0.7-0.3-1.2C36.3,11,37,11,37,10.2z M35.2,11.2c0,0.5,0.5,0.8,0.4,1.2c-0.1,0.4-0.9,0.3-1.2,0.7
				c-0.2,0.4,0.3,1.3-0.7,1.5c-0.3,0.1-1.8,0.5-3.6,0.4c-1.4-0.1-3-1-5-1c0-1.1,0-3.9,0-5c1.4-0.6,3.8-2,4.1-4.8
				c0.6-0.7,1-1.9,0.8-2.9c0.9,0.2,1.2,1.6,0.7,2.7c-0.6,1.3-0.9,2.3-0.2,2.9c0.6,0.5,3,0.7,3.5,0.8c0.4,0,1.1,0.1,1.1,0.3
				c0.2,0.4-0.1,1,0,1.3c0.1,0.3,0.7,0.6,0.7,1C35.9,10.6,35.2,10.7,35.2,11.2z"/>
		</g>
	</g>
	<g>
		<g>
			<path fill-rule="evenodd" clip-rule="evenodd" fill="#39A6E6" d="M58,10.2c0-0.8-0.6-0.8-0.7-1.2c-0.1-0.6,0.5-0.8,0.3-1.6
				c-0.1-0.4-0.6-0.6-1.1-0.7c-0.6-0.1-3.1,0.1-3.8-0.5c-0.9-0.8,0.3-1.6,0.3-3.4c0-2.1-1.5-3.5-3.4-2.3c0.4,1,0.2,2-0.5,3.2
				c-0.9,3-2.7,3.4-4.2,4.3c0,1.3,0,5.7,0,7c2.6,0,4,0.8,5.8,0.9c2.3,0.1,4.4-0.4,4.7-0.5c1.2-0.3,0.8-1.1,1.1-1.6
				c0.3-0.4,0.8-0.4,1-1c0.2-0.6-0.3-0.7-0.3-1.2C57.3,11,58,11,58,10.2z M56.2,11.2c0,0.5,0.5,0.8,0.4,1.2
				c-0.1,0.4-0.9,0.3-1.2,0.7c-0.2,0.4,0.3,1.3-0.7,1.5c-0.3,0.1-1.8,0.5-3.6,0.4c-1.4-0.1-3-1-5-1c0-1.1,0-3.9,0-5
				c1.4-0.6,3.8-2,4.1-4.8c0.6-0.7,1-1.9,0.8-2.9c0.9,0.2,1.2,1.6,0.7,2.7c-0.6,1.3-0.9,2.3-0.2,2.9c0.6,0.5,3,0.7,3.5,0.8
				c0.4,0,1.1,0.1,1.1,0.3c0.2,0.4-0.1,1,0,1.3c0.1,0.3,0.7,0.6,0.7,1C56.9,10.6,56.2,10.7,56.2,11.2z M42.7,16c0.7,0,1.3,0,1.3,0V7
				c0,0-0.6,0-1.3,0C41.7,7.6,42,15.3,42.7,16z"/>
		</g>
	</g>
</g>
<g id="Favourite">
</g>
<g id="Preview">
</g>
<g id="Download">
</g>
<g id="Upload">
</g>
<g id="Open">
</g>
<g id="Web">
</g>
<g id="Unlock">
</g>
<g id="Lock">
</g>
<g id="Phone">
</g>
<g id="Email">
</g>
<g id="Graph">
</g>
<g id="Note">
</g>
<g id="Search">
</g>
<g id="Alarm">
</g>
<g id="Time">
</g>
<g id="Users">
</g>
<g id="User">
</g>
<g id="Refresh">
</g>
<g id="Home">
</g>
<g id="Report">
</g>
<g id="Paste">
</g>
<g id="Copy">
</g>
<g id="Cut">
</g>
<g id="Flag">
</g>
<g id="Redo">
</g>
<g id="Undo">
</g>
<g id="Zoom_Out">
</g>
<g id="Zoom_In">
</g>
<g id="Add_Comment">
</g>
<g id="Unread_Comment">
</g>
<g id="Comment">
</g>
<g id="New">
</g>
<g id="Attach">
</g>
<g id="Delete">
</g>
<g id="Save">
</g>
<g id="Edit">
</g>
<g id="Print">
</g>
<g id="Guides" display="none" opacity="0.2">
	<rect x="0" display="inline" fill="#0089D9" width="16" height="16"/>
	<rect x="21" display="inline" fill="#0089D9" width="16" height="16"/>
	<rect x="42" display="inline" fill="#0089D9" width="16" height="16"/>
</g>
</svg>
