<?xml version="1.0" encoding="utf-8"?>
<!-- Generator: Adobe Illustrator 19.1.0, SVG Export Plug-In . SVG Version: 6.00 Build 0)  -->
<!DOCTYPE svg PUBLIC "-//W3C//DTD SVG 1.1//EN" "http://www.w3.org/Graphics/SVG/1.1/DTD/svg11.dtd">
<svg version="1.1" xmlns="http://www.w3.org/2000/svg" xmlns:xlink="http://www.w3.org/1999/xlink" x="0px" y="0px" width="58px"
	 height="16px" viewBox="0 0 58 16" enable-background="new 0 0 58 16" xml:space="preserve">
<g id="Changelog">
</g>
<g id="Export">
</g>
<g id="PDF">
</g>
<g id="Office_Excel">
</g>
<g id="PowerPoint">
</g>
<g id="Office_Word">
</g>
<g id="Filter">
</g>
<g id="Dislike">
</g>
<g id="Like">
</g>
<g id="Favourite">
</g>
<g id="Preview">
</g>
<g id="Download">
</g>
<g id="Upload">
</g>
<g id="Open">
</g>
<g id="Web">
</g>
<g id="Unlock">
</g>
<g id="Lock">
</g>
<g id="Phone">
</g>
<g id="Email">
</g>
<g id="Graph">
</g>
<g id="Note">
	<g>
		<g>
			<path fill-rule="evenodd" clip-rule="evenodd" fill="#0089D9" d="M12,3L9,6v1h1l2-2l0.3,0.3l-5,5l1.4,1.4l7.1-7.1l-1.4-1.4
				l-1.1,1.1L12,3z M6.7,10.9L5,14l3.1-1.7l0.1-0.1l-1.4-1.4L6.7,10.9z M13,15H2V5h4V1h7v2l1-1V0H6L5,0l0,0.5L1.5,4H1v12h13V8l-1,1
				V15z M5,1.5L5,4H2.5L5,1.5z"/>
		</g>
	</g>
	<g>
		<g>
			<path fill-rule="evenodd" clip-rule="evenodd" fill="#C8C8C8" d="M33,3l-1,1l-2,2v1h1l2-2l0.3,0.3l-5,5l1.4,1.4l7.1-7.1l-1.4-1.4
				l-1.1,1.1L33,3z M34,15H23V5h3h1V4V1h7v2l1-1V0h-8l-1,0l0,0.5L22.5,4H22v0.5V5v11h13V8l-1,1V15z M26,1.5L26,4h-2.5L26,1.5z
				 M27.7,10.9L26,14l3.1-1.7l0.1-0.1l-1.4-1.4L27.7,10.9z"/>
		</g>
	</g>
	<g>
		<g>
			<path fill-rule="evenodd" clip-rule="evenodd" fill="#39A6E6" d="M54,3l-3,3v1h1l2-2l0.3,0.3l-5,5l1.4,1.4l7.1-7.1l-1.4-1.4
				l-1.1,1.1L54,3z M55,15H44V5h3h1V4V1h7v2l1-1V0h-8l-1,0l0,0.5L43.5,4H43v0.5V5v11h13V8l-1,1V15z M47,1.5L47,4h-2.5L47,1.5z
				 M48.7,10.9L47,14l3.1-1.7l0.1-0.1l-1.4-1.4L48.7,10.9z"/>
		</g>
	</g>
</g>
<g id="Search">
</g>
<g id="Alarm">
</g>
<g id="Time">
</g>
<g id="Users">
</g>
<g id="User">
</g>
<g id="Refresh">
</g>
<g id="Home">
</g>
<g id="Report">
</g>
<g id="Paste">
</g>
<g id="Copy">
</g>
<g id="Cut">
</g>
<g id="Flag">
</g>
<g id="Redo">
</g>
<g id="Undo">
</g>
<g id="Zoom_Out">
</g>
<g id="Zoom_In">
</g>
<g id="Add_Comment">
</g>
<g id="Unread_Comment">
</g>
<g id="Comment">
</g>
<g id="New">
</g>
<g id="Attach">
</g>
<g id="Delete">
</g>
<g id="Save">
</g>
<g id="Edit">
</g>
<g id="Print">
</g>
<g id="Guides" display="none" opacity="0.2">
	<rect x="0" display="inline" fill="#0089D9" width="16" height="16"/>
	<rect x="21" display="inline" fill="#0089D9" width="16" height="16"/>
	<rect x="42" display="inline" fill="#0089D9" width="16" height="16"/>
</g>
</svg>
