<?xml version="1.0" encoding="utf-8"?>
<!-- Generator: Adobe Illustrator 19.1.0, SVG Export Plug-In . SVG Version: 6.00 Build 0)  -->
<!DOCTYPE svg PUBLIC "-//W3C//DTD SVG 1.1//EN" "http://www.w3.org/Graphics/SVG/1.1/DTD/svg11.dtd">
<svg version="1.1" xmlns="http://www.w3.org/2000/svg" xmlns:xlink="http://www.w3.org/1999/xlink" x="0px" y="0px" width="58px"
	 height="16px" viewBox="0 0 58 16" enable-background="new 0 0 58 16" xml:space="preserve">
<g id="Changelog">
</g>
<g id="Export">
</g>
<g id="PDF">
</g>
<g id="Office_Excel">
</g>
<g id="PowerPoint">
</g>
<g id="Office_Word">
</g>
<g id="Filter">
</g>
<g id="Dislike">
</g>
<g id="Like">
</g>
<g id="Favourite">
</g>
<g id="Preview">
</g>
<g id="Download">
</g>
<g id="Upload">
</g>
<g id="Open">
	<g>
		<g>
			<path fill-rule="evenodd" clip-rule="evenodd" fill="#0089D9" d="M15,6V4c0-0.7-0.3-1-1-1H8.3c0,0-1.7-2-2.3-2H3C1.9,1,1,1.9,1,3
				v3C0.6,6,0,6.6,0,7l0.7,6c0,1.1,0.9,2,2,2h10.7c1.1,0,2-0.9,2-2L16,7C16,6.6,15.4,6,15,6z M2,3c0-0.4,0.6-1,1-1h3c0.5,0,2,2,2,2
				h5c0.4,0,1,0.6,1,1v1H2V3z M14.7,8L14,13c0,0.7-0.3,1-1,1H3c-0.7,0-1-0.3-1-1L1.2,8C1.2,7.6,1,7,2,7h12C15,7,14.7,7.6,14.7,8z"/>
		</g>
	</g>
	<g>
		<g>
			<path fill-rule="evenodd" clip-rule="evenodd" fill="#C8C8C8" d="M36,6V4c0-0.7-0.3-1-1-1h-5.7c0,0-1.7-2-2.3-2h-3
				c-1.1,0-2,0.9-2,2v3c-0.4,0-1,0.6-1,1l0.7,6c0,1.1,0.9,2,2,2h10.7c1.1,0,2-0.9,2-2L37,7C37,6.6,36.4,6,36,6z M23,3
				c0-0.4,0.6-1,1-1h3c0.5,0,2,2,2,2h5c0.4,0,1,0.6,1,1v1H23V3z M35.7,8L35,13c0,0.7-0.3,1-1,1H24c-0.7,0-1-0.3-1-1l-0.8-5
				c0-0.4-0.2-1,0.8-1h12C36,7,35.7,7.6,35.7,8z"/>
		</g>
	</g>
	<g>
		<g>
			<path fill-rule="evenodd" clip-rule="evenodd" fill="#39A6E6" d="M57,6V4c0-0.7-0.3-1-1-1h-5.7c0,0-1.7-2-2.3-2h-3
				c-1.1,0-2,0.9-2,2v3c-0.4,0-1,0.6-1,1l0.7,6c0,1.1,0.9,2,2,2h10.7c1.1,0,2-0.9,2-2L58,7C58,6.6,57.4,6,57,6z M44,3
				c0-0.4,0.6-1,1-1h3c0.5,0,2,2,2,2h5c0.4,0,1,0.6,1,1v1H44V3z M56.7,8L56,13c0,0.7-0.3,1-1,1H45c-0.7,0-1-0.3-1-1l-0.8-5
				c0-0.4-0.2-1,0.8-1h12C57,7,56.7,7.6,56.7,8z"/>
		</g>
	</g>
</g>
<g id="Web">
</g>
<g id="Unlock">
</g>
<g id="Lock">
</g>
<g id="Phone">
</g>
<g id="Email">
</g>
<g id="Graph">
</g>
<g id="Note">
</g>
<g id="Search">
</g>
<g id="Alarm">
</g>
<g id="Time">
</g>
<g id="Users">
</g>
<g id="User">
</g>
<g id="Refresh">
</g>
<g id="Home">
</g>
<g id="Report">
</g>
<g id="Paste">
</g>
<g id="Copy">
</g>
<g id="Cut">
</g>
<g id="Flag">
</g>
<g id="Redo">
</g>
<g id="Undo">
</g>
<g id="Zoom_Out">
</g>
<g id="Zoom_In">
</g>
<g id="Add_Comment">
</g>
<g id="Unread_Comment">
</g>
<g id="Comment">
</g>
<g id="New">
</g>
<g id="Attach">
</g>
<g id="Delete">
</g>
<g id="Save">
</g>
<g id="Edit">
</g>
<g id="Print">
</g>
<g id="Guides" display="none" opacity="0.2">
	<rect x="0" display="inline" fill="#0089D9" width="16" height="16"/>
	<rect x="21" display="inline" fill="#0089D9" width="16" height="16"/>
	<rect x="42" display="inline" fill="#0089D9" width="16" height="16"/>
</g>
</svg>
