<?xml version="1.0" encoding="utf-8"?>
<!-- Generator: Adobe Illustrator 19.1.0, SVG Export Plug-In . SVG Version: 6.00 Build 0)  -->
<!DOCTYPE svg PUBLIC "-//W3C//DTD SVG 1.1//EN" "http://www.w3.org/Graphics/SVG/1.1/DTD/svg11.dtd">
<svg version="1.1" xmlns="http://www.w3.org/2000/svg" xmlns:xlink="http://www.w3.org/1999/xlink" x="0px" y="0px" width="58px"
	 height="16px" viewBox="0 0 58 16" enable-background="new 0 0 58 16" xml:space="preserve">
<g id="Changelog">
</g>
<g id="Export">
</g>
<g id="PDF">
</g>
<g id="Office_Excel">
</g>
<g id="PowerPoint">
</g>
<g id="Office_Word">
</g>
<g id="Filter">
</g>
<g id="Dislike">
</g>
<g id="Like">
</g>
<g id="Favourite">
</g>
<g id="Preview">
</g>
<g id="Download">
</g>
<g id="Upload">
</g>
<g id="Open">
</g>
<g id="Web">
</g>
<g id="Unlock">
</g>
<g id="Lock">
</g>
<g id="Phone">
	<g>
		<g>
			<path fill-rule="evenodd" clip-rule="evenodd" fill="#0089D9" d="M15.7,14.9c-0.2,0-0.4,0.1-0.6,0.1c0.6-0.2,1-0.8,1-1.4
				c0-0.8-0.7-1.5-1.5-1.5c-0.8,0-1.5,0.7-1.5,1.5c0,0.3,0.1,0.6,0.3,0.9c-0.5,0.6-1.1,0.8-1.5,0.5c0.2-0.1,0.3-0.3,0.5-0.4
				c-0.2-1.6-1.9-3.5-3.5-4.3c-0.7,0.4-1.4,1-2,1.8c-1-0.4-1.7-1.5-2.3-2.6C3.8,8.2,3.3,7,3.5,6c1-0.1,1.9-0.3,2.6-0.8
				C6.1,3.4,5.3,1,4,0c-3.2,0.8-5.9,4.7-2.4,11c3,5,6.7,5.7,9.2,4.5c0.8,0.7,1.9,0.7,2.6-0.2c0.4,0.8,1.9,0.9,2.5,0.2
				C16.1,15.4,16,15,15.7,14.9z M2.5,10.3C2.5,10.3,2.5,10.3,2.5,10.3c-2-3.6-2.3-7.3,1.1-9C4.3,1.9,5,3.6,5,4.4
				C4.6,4.9,3.3,5.1,2.4,5C2.2,6.3,2.6,8.4,3.6,9.8c0,0,0,0,0,0c0.7,1.6,2.3,3,3.6,3.5c0.4-0.8,1.1-1.8,1.8-2c0.7,0.4,1.8,1.8,2,2.7
				C7.8,16.2,4.6,14,2.5,10.3z M15.1,14h-1v-1h1V14z"/>
		</g>
	</g>
	<g>
		<g>
			<path fill-rule="evenodd" clip-rule="evenodd" fill="#C8C8C8" d="M36.7,14.9c-0.2,0-0.4,0.1-0.6,0.1c0.6-0.2,1-0.8,1-1.4
				c0-0.8-0.7-1.5-1.5-1.5c-0.8,0-1.5,0.7-1.5,1.5c0,0.3,0.1,0.6,0.3,0.9c-0.5,0.6-1.1,0.8-1.5,0.5c0.2-0.1,0.3-0.3,0.5-0.4
				c-0.2-1.6-1.9-3.5-3.5-4.3c-0.7,0.4-1.4,1-2,1.8c-1-0.4-1.7-1.5-2.3-2.6c-0.7-1.1-1.2-2.3-1-3.4c1-0.1,1.9-0.3,2.6-0.8
				C27.1,3.4,26.3,1,25,0c-3.2,0.8-5.9,4.7-2.4,11c3,5,6.7,5.7,9.2,4.5c0.8,0.7,1.9,0.7,2.6-0.2c0.4,0.8,1.9,0.9,2.5,0.2
				C37.1,15.4,37,15,36.7,14.9z M23.5,10.3C23.5,10.3,23.5,10.3,23.5,10.3c-2-3.6-2.3-7.3,1.1-9C25.3,1.9,26,3.6,26,4.4
				c-0.4,0.5-1.7,0.6-2.6,0.6c-0.2,1.3,0.2,3.4,1.2,4.8c0,0,0,0,0,0c0.7,1.6,2.3,3,3.6,3.5c0.4-0.8,1.1-1.8,1.8-2
				c0.7,0.4,1.8,1.8,2,2.7C28.8,16.2,25.6,14,23.5,10.3z M36.1,14h-1v-1h1V14z"/>
		</g>
	</g>
	<g>
		<g>
			<path fill-rule="evenodd" clip-rule="evenodd" fill="#39A6E6" d="M57.7,14.9c-0.2,0-0.4,0.1-0.6,0.1c0.6-0.2,1-0.8,1-1.4
				c0-0.8-0.7-1.5-1.5-1.5c-0.8,0-1.5,0.7-1.5,1.5c0,0.3,0.1,0.6,0.3,0.9c-0.5,0.6-1.1,0.8-1.5,0.5c0.2-0.1,0.3-0.3,0.5-0.4
				c-0.2-1.6-1.9-3.5-3.5-4.3c-0.7,0.4-1.4,1-2,1.8c-1-0.4-1.7-1.5-2.3-2.6c-0.7-1.1-1.2-2.3-1-3.4c1-0.1,1.9-0.3,2.6-0.8
				C48.1,3.4,47.3,1,46,0c-3.2,0.8-5.9,4.7-2.4,11c3,5,6.7,5.7,9.2,4.5c0.8,0.7,1.9,0.7,2.6-0.2c0.4,0.8,1.9,0.9,2.5,0.2
				C58.1,15.4,58,15,57.7,14.9z M44.5,10.3C44.5,10.3,44.5,10.3,44.5,10.3c-2-3.6-2.3-7.3,1.1-9C46.3,1.9,47,3.6,47,4.4
				c-0.4,0.5-1.7,0.6-2.6,0.6c-0.2,1.3,0.2,3.4,1.2,4.8c0,0,0,0,0,0c0.7,1.6,2.3,3,3.6,3.5c0.4-0.8,1.1-1.8,1.8-2
				c0.7,0.4,1.8,1.8,2,2.7C49.8,16.2,46.6,14,44.5,10.3z M57.1,14h-1v-1h1V14z"/>
		</g>
	</g>
</g>
<g id="Email">
</g>
<g id="Graph">
</g>
<g id="Note">
</g>
<g id="Search">
</g>
<g id="Alarm">
</g>
<g id="Time">
</g>
<g id="Users">
</g>
<g id="User">
</g>
<g id="Refresh">
</g>
<g id="Home">
</g>
<g id="Report">
</g>
<g id="Paste">
</g>
<g id="Copy">
</g>
<g id="Cut">
</g>
<g id="Flag">
</g>
<g id="Redo">
</g>
<g id="Undo">
</g>
<g id="Zoom_Out">
</g>
<g id="Zoom_In">
</g>
<g id="Add_Comment">
</g>
<g id="Unread_Comment">
</g>
<g id="Comment">
</g>
<g id="New">
</g>
<g id="Attach">
</g>
<g id="Delete">
</g>
<g id="Save">
</g>
<g id="Edit">
</g>
<g id="Print">
</g>
<g id="Guides" display="none" opacity="0.2">
	<rect x="0" display="inline" fill="#0089D9" width="16" height="16"/>
	<rect x="21" display="inline" fill="#0089D9" width="16" height="16"/>
	<rect x="42" display="inline" fill="#0089D9" width="16" height="16"/>
</g>
</svg>
