<?xml version="1.0" encoding="utf-8"?>
<!-- Generator: Adobe Illustrator 19.1.0, SVG Export Plug-In . SVG Version: 6.00 Build 0)  -->
<!DOCTYPE svg PUBLIC "-//W3C//DTD SVG 1.1//EN" "http://www.w3.org/Graphics/SVG/1.1/DTD/svg11.dtd">
<svg version="1.1" xmlns="http://www.w3.org/2000/svg" xmlns:xlink="http://www.w3.org/1999/xlink" x="0px" y="0px" width="58px"
	 height="16px" viewBox="0 0 58 16" enable-background="new 0 0 58 16" xml:space="preserve">
<g id="Changelog">
</g>
<g id="Export">
</g>
<g id="PDF">
</g>
<g id="Office_Excel">
</g>
<g id="PowerPoint">
</g>
<g id="Office_Word">
</g>
<g id="Filter">
</g>
<g id="Dislike">
</g>
<g id="Like">
</g>
<g id="Favourite">
</g>
<g id="Preview">
</g>
<g id="Download">
</g>
<g id="Upload">
</g>
<g id="Open">
</g>
<g id="Web">
</g>
<g id="Unlock">
</g>
<g id="Lock">
</g>
<g id="Phone">
</g>
<g id="Email">
</g>
<g id="Graph">
</g>
<g id="Note">
</g>
<g id="Search">
</g>
<g id="Alarm">
</g>
<g id="Time">
</g>
<g id="Users">
</g>
<g id="User">
</g>
<g id="Refresh">
</g>
<g id="Home">
</g>
<g id="Report">
</g>
<g id="Paste">
	<g>
		<g>
			<path fill-rule="evenodd" clip-rule="evenodd" fill="#0089D9" d="M3,10.5C3,10.8,3.2,11,3.5,11H6v-1H3.5C3.2,10,3,10.2,3,10.5z
				 M3,8.5C3,8.8,3.2,9,3.5,9H6V8H3.5C3.2,8,3,8.2,3,8.5z M12.6,5H12V2L9,2V1H7.9C7.8,0.4,7.3,0,6,0C4.7,0,4.3,0.4,4.1,1H3v1L0,2
				l0,13h6v-1H1V3h1V2h1v2h3l3,0V2h1v1h1v1l1,0l0,1H7v11h9V8.4L12.6,5z M13,6.4L14.5,8H13V6.4z M15,15H8V6h4v3h3V15z M3,6.5
				C3,6.8,3.2,7,3.5,7H6V6H3.5C3.2,6,3,6.2,3,6.5z"/>
		</g>
	</g>
	<g>
		<g>
			<path fill-rule="evenodd" clip-rule="evenodd" fill="#C8C8C8" d="M33.6,5H33V2l-3,0V1h-1.1c-0.2-0.6-0.6-1-1.9-1
				c-1.3,0-1.8,0.4-1.9,1H24v1l-3,0l0,13h6v-1h-5V3h1V2h1v2h3l3,0V2h1v1h1v1l1,0l0,1h-5v11h9V8.4L33.6,5z M34,6.4L35.5,8H34V6.4z
				 M36,15h-7V6h4v2v1h1h2V15z M24,10.5c0,0.3,0.2,0.5,0.5,0.5H27v-1h-2.5C24.2,10,24,10.2,24,10.5z M24,8.5C24,8.8,24.2,9,24.5,9
				H27V8h-2.5C24.2,8,24,8.2,24,8.5z M24,6.5C24,6.8,24.2,7,24.5,7H27V6h-2.5C24.2,6,24,6.2,24,6.5z"/>
		</g>
	</g>
	<g>
		<g>
			<path fill-rule="evenodd" clip-rule="evenodd" fill="#39A6E6" d="M45,8.5C45,8.8,45.2,9,45.5,9H48V8h-2.5C45.2,8,45,8.2,45,8.5z
				 M45,10.5c0,0.3,0.2,0.5,0.5,0.5H48v-1h-2.5C45.2,10,45,10.2,45,10.5z M45,6.5C45,6.8,45.2,7,45.5,7H48V6h-2.5
				C45.2,6,45,6.2,45,6.5z M54.6,5H54V2l-3,0V1h-1.1c-0.2-0.6-0.6-1-1.9-1c-1.3,0-1.8,0.4-1.9,1H45v1l-3,0l0,13h6v-1h-5V3h1V2h1v2h3
				l3,0V2h1v1h1v1l1,0l0,1h-5v11h9V8.4L54.6,5z M55,6.4L56.5,8H55V6.4z M57,15h-7V6h4v3h3V15z"/>
		</g>
	</g>
</g>
<g id="Copy">
</g>
<g id="Cut">
</g>
<g id="Flag">
</g>
<g id="Redo">
</g>
<g id="Undo">
</g>
<g id="Zoom_Out">
</g>
<g id="Zoom_In">
</g>
<g id="Add_Comment">
</g>
<g id="Unread_Comment">
</g>
<g id="Comment">
</g>
<g id="New">
</g>
<g id="Attach">
</g>
<g id="Delete">
</g>
<g id="Save">
</g>
<g id="Edit">
</g>
<g id="Print">
</g>
<g id="Guides" display="none" opacity="0.2">
	<rect x="0" display="inline" fill="#0089D9" width="16" height="16"/>
	<rect x="21" display="inline" fill="#0089D9" width="16" height="16"/>
	<rect x="42" display="inline" fill="#0089D9" width="16" height="16"/>
</g>
</svg>
