<?xml version="1.0" encoding="utf-8"?>
<!-- Generator: Adobe Illustrator 19.1.0, SVG Export Plug-In . SVG Version: 6.00 Build 0)  -->
<!DOCTYPE svg PUBLIC "-//W3C//DTD SVG 1.1//EN" "http://www.w3.org/Graphics/SVG/1.1/DTD/svg11.dtd">
<svg version="1.1" xmlns="http://www.w3.org/2000/svg" xmlns:xlink="http://www.w3.org/1999/xlink" x="0px" y="0px" width="58px"
	 height="16px" viewBox="0 0 58 16" enable-background="new 0 0 58 16" xml:space="preserve">
<g id="Changelog">
</g>
<g id="Export">
</g>
<g id="PDF">
</g>
<g id="Office_Excel">
</g>
<g id="PowerPoint">
	<g>
		<g>
			<path fill-rule="evenodd" clip-rule="evenodd" fill="#0089D9" d="M13.5,4L10,0.5L10,0L9,0H1v16h13V4H13.5z M12.5,4H10l0-2.5
				L12.5,4z M13,15H2V1h7v4h4V15z"/>
		</g>
	</g>
	<path fill="#FF8B00" d="M7,7c-1.9,0-3,1.6-3,3.5C4,12.5,5.6,14,7.5,14c1.9,0,3.5-1.1,3.5-3H7C7,11,7,7,7,7z"/>
	<path fill="#FF8B00" d="M8,10l4,0c0-2-2.2-4-4-4L8,10z"/>
	<g>
		<g>
			<path fill-rule="evenodd" clip-rule="evenodd" fill="#C8C8C8" d="M34.5,4L31,0.5L31,0l-1,0h-8v16h13V5V4.5V4H34.5z M33.5,4H31
				l0-2.5L33.5,4z M34,15H23V1h7v3v1h1h3V15z"/>
		</g>
	</g>
	<path fill="#C8C8C8" d="M28,7c-1.9,0-3,1.6-3,3.5c0,1.9,1.6,3.5,3.5,3.5c1.9,0,3.5-1.1,3.5-3h-4C28,11,28,7,28,7z"/>
	<path fill="#C8C8C8" d="M29,10l4,0c0-2-2.2-4-4-4L29,10z"/>
	<g>
		<g>
			<path fill-rule="evenodd" clip-rule="evenodd" fill="#39A6E6" d="M55.5,4L52,0.5L52,0l-1,0h-8v16h13V4H55.5z M54.5,4H52l0-2.5
				L54.5,4z M55,15H44V1h7v4h4V15z"/>
		</g>
	</g>
	<path fill="#FF8B00" d="M49,7c-1.9,0-3,1.6-3,3.5c0,1.9,1.6,3.5,3.5,3.5c1.9,0,3.5-1.1,3.5-3h-4C49,11,49,7,49,7z"/>
	<path fill="#FF8B00" d="M50,10l4,0c0-2-2.2-4-4-4L50,10z"/>
</g>
<g id="Office_Word">
</g>
<g id="Filter">
</g>
<g id="Dislike">
</g>
<g id="Like">
</g>
<g id="Favourite">
</g>
<g id="Preview">
</g>
<g id="Download">
</g>
<g id="Upload">
</g>
<g id="Open">
</g>
<g id="Web">
</g>
<g id="Unlock">
</g>
<g id="Lock">
</g>
<g id="Phone">
</g>
<g id="Email">
</g>
<g id="Graph">
</g>
<g id="Note">
</g>
<g id="Search">
</g>
<g id="Alarm">
</g>
<g id="Time">
</g>
<g id="Users">
</g>
<g id="User">
</g>
<g id="Refresh">
</g>
<g id="Home">
</g>
<g id="Report">
</g>
<g id="Paste">
</g>
<g id="Copy">
</g>
<g id="Cut">
</g>
<g id="Flag">
</g>
<g id="Redo">
</g>
<g id="Undo">
</g>
<g id="Zoom_Out">
</g>
<g id="Zoom_In">
</g>
<g id="Add_Comment">
</g>
<g id="Unread_Comment">
</g>
<g id="Comment">
</g>
<g id="New">
</g>
<g id="Attach">
</g>
<g id="Delete">
</g>
<g id="Save">
</g>
<g id="Edit">
</g>
<g id="Print">
</g>
<g id="Guides" display="none" opacity="0.2">
	<rect x="0" display="inline" fill="#0089D9" width="16" height="16"/>
	<rect x="21" display="inline" fill="#0089D9" width="16" height="16"/>
	<rect x="42" display="inline" fill="#0089D9" width="16" height="16"/>
</g>
</svg>
