<?xml version="1.0" encoding="utf-8"?>
<!-- Generator: Adobe Illustrator 19.1.0, SVG Export Plug-In . SVG Version: 6.00 Build 0)  -->
<!DOCTYPE svg PUBLIC "-//W3C//DTD SVG 1.1//EN" "http://www.w3.org/Graphics/SVG/1.1/DTD/svg11.dtd">
<svg version="1.1" xmlns="http://www.w3.org/2000/svg" xmlns:xlink="http://www.w3.org/1999/xlink" x="0px" y="0px" width="58px"
	 height="16px" viewBox="0 0 58 16" enable-background="new 0 0 58 16" xml:space="preserve">
<g id="Changelog">
</g>
<g id="Export">
</g>
<g id="PDF">
</g>
<g id="Office_Excel">
</g>
<g id="PowerPoint">
</g>
<g id="Office_Word">
</g>
<g id="Filter">
</g>
<g id="Dislike">
</g>
<g id="Like">
</g>
<g id="Favourite">
</g>
<g id="Preview">
	<g>
		<g>
			<path fill-rule="evenodd" clip-rule="evenodd" fill="#0089D9" d="M9.2,2.2C8.8,2.1,8.4,2,8,2C7.7,2,7.5,2,7.2,2.1
				c0,0-0.1,0-0.1,0c0,0-0.1,0-0.1,0C2.9,2.8,0,7.5,0,7.5c0.1,0.2,3,4.5,6.8,5.4C7.2,13,7.6,13.1,8,13.1c0.5,0,0.9-0.1,1.3-0.2
				C13,12,15.9,7.7,16,7.5C16,7.5,13.1,3,9.2,2.2z M3.5,9.8c-1-1-1.8-2-2.1-2.3c0.3-0.3,1-1.3,2.1-2.3C3.2,5.9,3,6.7,3,7.5
				C3,8.4,3.2,9.1,3.5,9.8z M8,12c-2.2,0-4-2-4-4.5C4,5,5.8,3,8,3c2.2,0,4,2,4,4.5C12,10,10.2,12,8,12z M12.6,9.8
				C12.9,9.1,13,8.3,13,7.5c0-0.8-0.2-1.6-0.5-2.3c1,1,1.7,2,2,2.3C14.3,7.8,13.6,8.8,12.6,9.8z M8,5C7.7,5,7.3,5.1,7,5.2
				C7.2,5.4,7.4,5.7,7.4,6c0,0.6-0.5,1-1,1C6.1,7,5.8,6.9,5.6,6.7C5.6,7,5.5,7.2,5.5,7.5C5.5,8.9,6.6,10,8,10c1.4,0,2.5-1.1,2.5-2.5
				C10.6,6.1,9.4,5,8,5z"/>
		</g>
	</g>
	<g>
		<g>
			<path fill-rule="evenodd" clip-rule="evenodd" fill="#C8C8C8" d="M29,5c-0.4,0-0.7,0.1-1.1,0.2c0.2,0.2,0.4,0.5,0.4,0.8
				c0,0.6-0.5,1-1,1c-0.3,0-0.5-0.1-0.7-0.3c-0.1,0.2-0.1,0.5-0.1,0.8c0,1.4,1.1,2.5,2.5,2.5c1.4,0,2.5-1.1,2.5-2.5
				C31.6,6.1,30.4,5,29,5z M30.2,2.2C29.8,2.1,29.4,2,29,2c-0.3,0-0.6,0-0.8,0.1c0,0-0.1,0-0.1,0c0,0-0.1,0-0.1,0
				c-4.1,0.7-7,5.4-7,5.4c0.1,0.2,3,4.5,6.8,5.4c0.4,0.1,0.8,0.2,1.2,0.2c0.5,0,0.9-0.1,1.3-0.2C34,12,36.9,7.7,37,7.5
				C37,7.5,34.1,3,30.2,2.2z M24.5,9.8c-1-1-1.8-2-2.1-2.3c0.3-0.3,1-1.3,2.1-2.3C24.2,5.9,24,6.7,24,7.5C24,8.4,24.2,9.1,24.5,9.8z
				 M29,12c-2.2,0-4-2-4-4.5C25,5,26.8,3,29,3c2.2,0,4,2,4,4.5C33,10,31.2,12,29,12z M33.6,9.8C33.9,9.1,34,8.3,34,7.5
				c0-0.8-0.2-1.6-0.5-2.3c1,1,1.7,2,2,2.3C35.3,7.8,34.6,8.8,33.6,9.8z"/>
		</g>
	</g>
	<g>
		<g>
			<path fill-rule="evenodd" clip-rule="evenodd" fill="#39A6E6" d="M50,5c-0.4,0-0.7,0.1-1.1,0.2c0.2,0.2,0.4,0.5,0.4,0.8
				c0,0.6-0.5,1-1,1c-0.3,0-0.5-0.1-0.7-0.3c-0.1,0.2-0.1,0.5-0.1,0.8c0,1.4,1.1,2.5,2.5,2.5c1.4,0,2.5-1.1,2.5-2.5
				C52.6,6.1,51.4,5,50,5z M51.2,2.2C50.8,2.1,50.4,2,50,2c-0.3,0-0.6,0-0.8,0.1c0,0-0.1,0-0.1,0c0,0-0.1,0-0.1,0
				c-4.1,0.7-7,5.4-7,5.4c0.1,0.2,3,4.5,6.8,5.4c0.4,0.1,0.8,0.2,1.2,0.2c0.5,0,0.9-0.1,1.3-0.2C55,12,57.9,7.7,58,7.5
				C58,7.5,55.1,3,51.2,2.2z M45.5,9.8c-1-1-1.8-2-2.1-2.3c0.3-0.3,1-1.3,2.1-2.3C45.2,5.9,45,6.7,45,7.5C45,8.4,45.2,9.1,45.5,9.8z
				 M50,12c-2.2,0-4-2-4-4.5C46,5,47.8,3,50,3c2.2,0,4,2,4,4.5C54,10,52.2,12,50,12z M54.6,9.8C54.9,9.1,55,8.3,55,7.5
				c0-0.8-0.2-1.6-0.5-2.3c1,1,1.7,2,2,2.3C56.3,7.8,55.6,8.8,54.6,9.8z"/>
		</g>
	</g>
</g>
<g id="Download">
</g>
<g id="Upload">
</g>
<g id="Open">
</g>
<g id="Web">
</g>
<g id="Unlock">
</g>
<g id="Lock">
</g>
<g id="Phone">
</g>
<g id="Email">
</g>
<g id="Graph">
</g>
<g id="Note">
</g>
<g id="Search">
</g>
<g id="Alarm">
</g>
<g id="Time">
</g>
<g id="Users">
</g>
<g id="User">
</g>
<g id="Refresh">
</g>
<g id="Home">
</g>
<g id="Report">
</g>
<g id="Paste">
</g>
<g id="Copy">
</g>
<g id="Cut">
</g>
<g id="Flag">
</g>
<g id="Redo">
</g>
<g id="Undo">
</g>
<g id="Zoom_Out">
</g>
<g id="Zoom_In">
</g>
<g id="Add_Comment">
</g>
<g id="Unread_Comment">
</g>
<g id="Comment">
</g>
<g id="New">
</g>
<g id="Attach">
</g>
<g id="Delete">
</g>
<g id="Save">
</g>
<g id="Edit">
</g>
<g id="Print">
</g>
<g id="Guides" display="none" opacity="0.2">
	<rect x="0" display="inline" fill="#0089D9" width="16" height="16"/>
	<rect x="21" display="inline" fill="#0089D9" width="16" height="16"/>
	<rect x="42" display="inline" fill="#0089D9" width="16" height="16"/>
</g>
</svg>
