<?xml version="1.0" encoding="utf-8"?>
<!-- Generator: Adobe Illustrator 19.1.0, SVG Export Plug-In . SVG Version: 6.00 Build 0)  -->
<!DOCTYPE svg PUBLIC "-//W3C//DTD SVG 1.1//EN" "http://www.w3.org/Graphics/SVG/1.1/DTD/svg11.dtd">
<svg version="1.1" xmlns="http://www.w3.org/2000/svg" xmlns:xlink="http://www.w3.org/1999/xlink" x="0px" y="0px" width="58px"
	 height="16px" viewBox="0 0 58 16" enable-background="new 0 0 58 16" xml:space="preserve">
<g id="Changelog">
</g>
<g id="Export">
</g>
<g id="PDF">
	<g>
		<g>
			<path fill-rule="evenodd" clip-rule="evenodd" fill="#0089D9" d="M13.5,4L10,0.5L10,0L9,0H1v16h13V4H13.5z M12.5,4H10l0-2.5
				L12.5,4z M13,15H2V1h7v4h4V15z"/>
		</g>
	</g>
	<path fill="#D6565A" d="M3.7,14c-0.1,0-0.2,0-0.3-0.1l-0.2-0.1C3,13.7,3,13.6,3,13.4c0.1-0.4,0.5-0.7,1.3-1.2
		c0.1-0.1,0.5-0.3,0.5-0.3l0.1,0.1c0.3-0.4,0.5-0.9,0.9-1.6l0-0.1c0.3-0.5,0.5-1.1,0.8-1.6l0.1-0.2C6.3,7.3,6.2,6.4,6.3,5.7
		c0.1-0.2,0.3-0.4,0.6-0.4l0.1,0c0.4,0,0.4,0.4,0.5,0.6c0,0.2-0.1,0.7-0.1,0.7L7.3,6.6c0-0.2,0-0.4-0.1-0.6C7.1,5.9,7,5.8,7,5.7
		c0,0,0,0,0,0.1c0,0.2,0,0.4,0,0.5c0,0.3,0,0.7,0.1,1.1c0.1-0.3,0.2-0.8,0.2-0.8l0.2,0c0,0,0,1.1,0,1.5c0,0.1,0,0.1,0,0.2
		C7.6,9.1,8,9.7,8.5,10.2c0.2,0.2,0.4,0.3,0.7,0.5c0.5,0.1,0.8,0.2,1.3,0.1l0.1,0c0.6,0,0.9,0.1,1.2,0.1c0.1,0,0.1,0.2,0.2,0.4
		c0,0.1,0,0.2,0,0.2l-0.2,0l0.2,0.1c0,0.1-0.1,0.3-0.1,0.3c-0.1,0.1-0.2,0.2-0.3,0.2c-0.1,0-0.2,0-0.3,0c-0.6,0-1.6-0.3-2.4-0.7
		c-1,0.2-2.2,0.5-3.2,0.8C4.8,13.5,4.3,14,3.7,14z M4.6,12.5c-0.5,0.5-0.8,0.7-1,1C3.9,13.4,4.1,13.2,4.6,12.5
		C4.6,12.5,4.6,12.5,4.6,12.5z M10.1,11.1c0.5,0.2,1,0.4,1.3,0.4c0.1,0,0.2,0,0.2,0c0,0,0.1-0.1,0.1-0.1l0,0c0,0,0,0,0,0
		c0,0-0.1-0.1-0.3-0.2c-0.2-0.1-0.4-0.1-0.7-0.1C10.4,11.1,10.3,11.1,10.1,11.1z M7,9.3c-0.2,0.4-0.4,0.9-0.7,1.4
		C6.2,11,6.1,11.2,6,11.4c0.7-0.3,1.4-0.6,2.3-0.6c0,0-0.1-0.1-0.1-0.1C7.7,10.3,7.3,9.9,7,9.3z"/>
	<path fill="#D6565A" d="M3.8,13.9c-0.1,0-0.2,0-0.3-0.1l-0.2-0.1c-0.2-0.1-0.2-0.3-0.1-0.4c0.1-0.4,0.5-0.7,1.3-1.2
		c0.1-0.1,0.5-0.3,0.5-0.3L5,12c0.3-0.4,0.5-0.9,0.9-1.6l0-0.1c0.3-0.5,0.5-1.1,0.8-1.6l0.1-0.2C6.4,7.2,6.2,6.3,6.4,5.6
		C6.5,5.4,6.7,5.3,7,5.3l0.1,0c0.4,0,0.4,0.4,0.5,0.6c0,0.2-0.1,0.7-0.1,0.7L7.3,6.5c0-0.2,0-0.4-0.1-0.6C7.2,5.8,7.1,5.7,7.1,5.6
		c0,0,0,0,0,0.1c0,0.2,0,0.4,0,0.5c0,0.3,0,0.7,0.1,1.1C7.2,7,7.4,6.5,7.4,6.5l0.2,0c0,0,0,1.1,0,1.5c0,0.1,0,0.1,0,0.2
		C7.7,9,8.1,9.6,8.6,10.1c0.2,0.2,0.4,0.3,0.7,0.5c0.5,0.1,0.8,0.2,1.3,0.1l0.1,0c0.6,0,0.9,0.1,1.2,0.1c0.1,0,0.1,0.2,0.2,0.4
		c0,0.1,0,0.2,0,0.2l-0.2,0l0.2,0.1c0,0.1-0.1,0.3-0.1,0.3c-0.1,0.1-0.2,0.2-0.3,0.2c-0.1,0-0.2,0-0.3,0c-0.6,0-1.6-0.3-2.4-0.7
		c-1,0.2-2.2,0.5-3.2,0.8C4.9,13.5,4.3,13.9,3.8,13.9z M4.7,12.4c-0.5,0.5-0.8,0.7-1,1C4,13.3,4.2,13.2,4.7,12.4
		C4.7,12.4,4.7,12.4,4.7,12.4z M10.2,11c0.5,0.2,1,0.4,1.3,0.4c0.1,0,0.2,0,0.2,0c0,0,0.1-0.1,0.1-0.1l0,0c0,0,0,0,0,0
		c0,0-0.1-0.1-0.3-0.2C11.3,11,11,11,10.7,11C10.5,11,10.4,11,10.2,11z M7.1,9.2c-0.2,0.4-0.4,0.9-0.7,1.4c-0.1,0.2-0.2,0.4-0.4,0.7
		c0.7-0.3,1.4-0.6,2.3-0.6c0,0-0.1-0.1-0.1-0.1C7.8,10.2,7.4,9.8,7.1,9.2z"/>
	<g>
		<g>
			<path fill-rule="evenodd" clip-rule="evenodd" fill="#C8C8C8" d="M34.5,4L31,0.5L31,0l-1,0h-8v16h13V4H34.5z M33.5,4H31l0-2.5
				L33.5,4z M34,15H23V1h7v4h4V15z"/>
		</g>
	</g>
	<path fill="#C8C8C8" d="M24.7,14c-0.1,0-0.2,0-0.3-0.1l-0.2-0.1C24,13.7,24,13.6,24,13.4c0.1-0.4,0.5-0.7,1.3-1.2
		c0.1-0.1,0.5-0.3,0.5-0.3l0.1,0.1c0.3-0.4,0.5-0.9,0.9-1.6l0-0.1c0.3-0.5,0.5-1.1,0.8-1.6l0.1-0.2c-0.3-1.2-0.5-2.2-0.3-2.8
		c0.1-0.2,0.3-0.4,0.6-0.4l0.1,0c0.4,0,0.4,0.4,0.5,0.6c0,0.2-0.1,0.7-0.1,0.7l-0.2-0.1c0-0.2,0-0.4-0.1-0.6C28.1,5.9,28,5.8,28,5.7
		c0,0,0,0,0,0.1c0,0.2,0,0.4,0,0.5c0,0.3,0,0.7,0.1,1.1c0.1-0.3,0.2-0.8,0.2-0.8l0.2,0c0,0,0,1.1,0,1.5c0,0.1,0,0.1,0,0.2
		c0.3,0.7,0.7,1.4,1.2,1.8c0.2,0.2,0.4,0.3,0.7,0.5c0.5,0.1,0.8,0.2,1.3,0.1l0.1,0c0.6,0,0.9,0.1,1.2,0.1c0.1,0,0.1,0.2,0.2,0.4
		c0,0.1,0,0.2,0,0.2l-0.2,0l0.2,0.1c0,0.1-0.1,0.3-0.1,0.3c-0.1,0.1-0.2,0.2-0.3,0.2c-0.1,0-0.2,0-0.3,0c-0.6,0-1.6-0.3-2.4-0.7
		c-1,0.2-2.2,0.5-3.2,0.8C25.8,13.5,25.3,14,24.7,14z M25.6,12.5c-0.5,0.5-0.8,0.7-1,1C24.9,13.4,25.1,13.2,25.6,12.5
		C25.6,12.5,25.6,12.5,25.6,12.5z M31.1,11.1c0.5,0.2,1,0.4,1.3,0.4c0.1,0,0.2,0,0.2,0c0,0,0.1-0.1,0.1-0.1l0,0c0,0,0,0,0,0
		c0,0-0.1-0.1-0.3-0.2c-0.2-0.1-0.4-0.1-0.7-0.1C31.4,11.1,31.3,11.1,31.1,11.1z M28,9.3c-0.2,0.4-0.4,0.9-0.7,1.4
		c-0.1,0.2-0.2,0.4-0.4,0.7c0.7-0.3,1.4-0.6,2.3-0.6c0,0-0.1-0.1-0.1-0.1C28.7,10.3,28.3,9.9,28,9.3z"/>
	<path fill="#C8C8C8" d="M24.8,13.9c-0.1,0-0.2,0-0.3-0.1l-0.2-0.1c-0.2-0.1-0.2-0.3-0.1-0.4c0.1-0.4,0.5-0.7,1.3-1.2
		c0.1-0.1,0.5-0.3,0.5-0.3L26,12c0.3-0.4,0.5-0.9,0.9-1.6l0-0.1c0.3-0.5,0.5-1.1,0.8-1.6l0.1-0.2c-0.3-1.2-0.5-2.2-0.3-2.8
		c0.1-0.2,0.3-0.4,0.6-0.4l0.1,0c0.4,0,0.4,0.4,0.5,0.6c0,0.2-0.1,0.7-0.1,0.7l-0.2-0.1c0-0.2,0-0.4-0.1-0.6
		c-0.1-0.2-0.1-0.3-0.2-0.3c0,0,0,0,0,0.1c0,0.2,0,0.4,0,0.5c0,0.3,0,0.7,0.1,1.1c0.1-0.3,0.2-0.8,0.2-0.8l0.2,0c0,0,0,1.1,0,1.5
		c0,0.1,0,0.1,0,0.2c0.3,0.7,0.7,1.4,1.2,1.8c0.2,0.2,0.4,0.3,0.7,0.5c0.5,0.1,0.8,0.2,1.3,0.1l0.1,0c0.6,0,0.9,0.1,1.2,0.1
		c0.1,0,0.1,0.2,0.2,0.4c0,0.1,0,0.2,0,0.2l-0.2,0l0.2,0.1c0,0.1-0.1,0.3-0.1,0.3c-0.1,0.1-0.2,0.2-0.3,0.2c-0.1,0-0.2,0-0.3,0
		c-0.6,0-1.6-0.3-2.4-0.7c-1,0.2-2.2,0.5-3.2,0.8C25.9,13.5,25.3,13.9,24.8,13.9z M25.7,12.4c-0.5,0.5-0.8,0.7-1,1
		C25,13.3,25.2,13.2,25.7,12.4C25.7,12.4,25.7,12.4,25.7,12.4z M31.2,11c0.5,0.2,1,0.4,1.3,0.4c0.1,0,0.2,0,0.2,0
		c0,0,0.1-0.1,0.1-0.1l0,0c0,0,0,0,0,0c0,0-0.1-0.1-0.3-0.2C32.3,11,32,11,31.7,11C31.5,11,31.4,11,31.2,11z M28.1,9.2
		c-0.2,0.4-0.4,0.9-0.7,1.4c-0.1,0.2-0.2,0.4-0.4,0.7c0.7-0.3,1.4-0.6,2.3-0.6c0,0-0.1-0.1-0.1-0.1C28.8,10.2,28.4,9.8,28.1,9.2z"/>
	<g>
		<g>
			<path fill-rule="evenodd" clip-rule="evenodd" fill="#39A6E6" d="M55.5,4L52,0.5L52,0l-1,0h-8v16h13V4H55.5z M54.5,4H52l0-2.5
				L54.5,4z M55,15H44V1h7v4h4V15z"/>
		</g>
	</g>
	<path fill="#D6565A" d="M45.7,14c-0.1,0-0.2,0-0.3-0.1l-0.2-0.1C45,13.7,45,13.6,45,13.4c0.1-0.4,0.5-0.7,1.3-1.2
		c0.1-0.1,0.5-0.3,0.5-0.3l0.1,0.1c0.3-0.4,0.5-0.9,0.9-1.6l0-0.1c0.3-0.5,0.5-1.1,0.8-1.6l0.1-0.2c-0.3-1.2-0.5-2.2-0.3-2.8
		c0.1-0.2,0.3-0.4,0.6-0.4l0.1,0c0.4,0,0.4,0.4,0.5,0.6c0,0.2-0.1,0.7-0.1,0.7l-0.2-0.1c0-0.2,0-0.4-0.1-0.6C49.1,5.9,49,5.8,49,5.7
		c0,0,0,0,0,0.1c0,0.2,0,0.4,0,0.5c0,0.3,0,0.7,0.1,1.1c0.1-0.3,0.2-0.8,0.2-0.8l0.2,0c0,0,0,1.1,0,1.5c0,0.1,0,0.1,0,0.2
		c0.3,0.7,0.7,1.4,1.2,1.8c0.2,0.2,0.4,0.3,0.7,0.5c0.5,0.1,0.8,0.2,1.3,0.1l0.1,0c0.6,0,0.9,0.1,1.2,0.1c0.1,0,0.1,0.2,0.2,0.4
		c0,0.1,0,0.2,0,0.2l-0.2,0l0.2,0.1c0,0.1-0.1,0.3-0.1,0.3c-0.1,0.1-0.2,0.2-0.3,0.2c-0.1,0-0.2,0-0.3,0c-0.6,0-1.6-0.3-2.4-0.7
		c-1,0.2-2.2,0.5-3.2,0.8C46.8,13.5,46.3,14,45.7,14z M46.6,12.5c-0.5,0.5-0.8,0.7-1,1C45.9,13.4,46.1,13.2,46.6,12.5
		C46.6,12.5,46.6,12.5,46.6,12.5z M52.1,11.1c0.5,0.2,1,0.4,1.3,0.4c0.1,0,0.2,0,0.2,0c0,0,0.1-0.1,0.1-0.1l0,0c0,0,0,0,0,0
		c0,0-0.1-0.1-0.3-0.2c-0.2-0.1-0.4-0.1-0.7-0.1C52.4,11.1,52.3,11.1,52.1,11.1z M49,9.3c-0.2,0.4-0.4,0.9-0.7,1.4
		c-0.1,0.2-0.2,0.4-0.4,0.7c0.7-0.3,1.4-0.6,2.3-0.6c0,0-0.1-0.1-0.1-0.1C49.7,10.3,49.3,9.9,49,9.3z"/>
	<path fill="#D6565A" d="M45.8,13.9c-0.1,0-0.2,0-0.3-0.1l-0.2-0.1c-0.2-0.1-0.2-0.3-0.1-0.4c0.1-0.4,0.5-0.7,1.3-1.2
		c0.1-0.1,0.5-0.3,0.5-0.3L47,12c0.3-0.4,0.5-0.9,0.9-1.6l0-0.1c0.3-0.5,0.5-1.1,0.8-1.6l0.1-0.2c-0.3-1.2-0.5-2.2-0.3-2.8
		c0.1-0.2,0.3-0.4,0.6-0.4l0.1,0c0.4,0,0.4,0.4,0.5,0.6c0,0.2-0.1,0.7-0.1,0.7l-0.2-0.1c0-0.2,0-0.4-0.1-0.6
		c-0.1-0.2-0.1-0.3-0.2-0.3c0,0,0,0,0,0.1c0,0.2,0,0.4,0,0.5c0,0.3,0,0.7,0.1,1.1c0.1-0.3,0.2-0.8,0.2-0.8l0.2,0c0,0,0,1.1,0,1.5
		c0,0.1,0,0.1,0,0.2c0.3,0.7,0.7,1.4,1.2,1.8c0.2,0.2,0.4,0.3,0.7,0.5c0.5,0.1,0.8,0.2,1.3,0.1l0.1,0c0.6,0,0.9,0.1,1.2,0.1
		c0.1,0,0.1,0.2,0.2,0.4c0,0.1,0,0.2,0,0.2l-0.2,0l0.2,0.1c0,0.1-0.1,0.3-0.1,0.3c-0.1,0.1-0.2,0.2-0.3,0.2c-0.1,0-0.2,0-0.3,0
		c-0.6,0-1.6-0.3-2.4-0.7c-1,0.2-2.2,0.5-3.2,0.8C46.9,13.5,46.3,13.9,45.8,13.9z M46.7,12.4c-0.5,0.5-0.8,0.7-1,1
		C46,13.3,46.2,13.2,46.7,12.4C46.7,12.4,46.7,12.4,46.7,12.4z M52.2,11c0.5,0.2,1,0.4,1.3,0.4c0.1,0,0.2,0,0.2,0
		c0,0,0.1-0.1,0.1-0.1l0,0c0,0,0,0,0,0c0,0-0.1-0.1-0.3-0.2C53.3,11,53,11,52.7,11C52.5,11,52.4,11,52.2,11z M49.1,9.2
		c-0.2,0.4-0.4,0.9-0.7,1.4c-0.1,0.2-0.2,0.4-0.4,0.7c0.7-0.3,1.4-0.6,2.3-0.6c0,0-0.1-0.1-0.1-0.1C49.8,10.2,49.4,9.8,49.1,9.2z"/>
</g>
<g id="Office_Excel">
</g>
<g id="PowerPoint">
</g>
<g id="Office_Word">
</g>
<g id="Filter">
</g>
<g id="Dislike">
</g>
<g id="Like">
</g>
<g id="Favourite">
</g>
<g id="Preview">
</g>
<g id="Download">
</g>
<g id="Upload">
</g>
<g id="Open">
</g>
<g id="Web">
</g>
<g id="Unlock">
</g>
<g id="Lock">
</g>
<g id="Phone">
</g>
<g id="Email">
</g>
<g id="Graph">
</g>
<g id="Note">
</g>
<g id="Search">
</g>
<g id="Alarm">
</g>
<g id="Time">
</g>
<g id="Users">
</g>
<g id="User">
</g>
<g id="Refresh">
</g>
<g id="Home">
</g>
<g id="Report">
</g>
<g id="Paste">
</g>
<g id="Copy">
</g>
<g id="Cut">
</g>
<g id="Flag">
</g>
<g id="Redo">
</g>
<g id="Undo">
</g>
<g id="Zoom_Out">
</g>
<g id="Zoom_In">
</g>
<g id="Add_Comment">
</g>
<g id="Unread_Comment">
</g>
<g id="Comment">
</g>
<g id="New">
</g>
<g id="Attach">
</g>
<g id="Delete">
</g>
<g id="Save">
</g>
<g id="Edit">
</g>
<g id="Print">
</g>
<g id="Guides" display="none" opacity="0.2">
	<rect x="0" display="inline" fill="#0089D9" width="16" height="16"/>
	<rect x="21" display="inline" fill="#0089D9" width="16" height="16"/>
	<rect x="42" display="inline" fill="#0089D9" width="16" height="16"/>
</g>
</svg>
