<?xml version="1.0" encoding="utf-8"?>
<!-- Generator: Adobe Illustrator 19.1.0, SVG Export Plug-In . SVG Version: 6.00 Build 0)  -->
<!DOCTYPE svg PUBLIC "-//W3C//DTD SVG 1.1//EN" "http://www.w3.org/Graphics/SVG/1.1/DTD/svg11.dtd">
<svg version="1.1" xmlns="http://www.w3.org/2000/svg" xmlns:xlink="http://www.w3.org/1999/xlink" x="0px" y="0px" width="58px"
	 height="16px" viewBox="0 0 58 16" enable-background="new 0 0 58 16" xml:space="preserve">
<g id="Changelog">
</g>
<g id="Export">
</g>
<g id="PDF">
</g>
<g id="Office_Excel">
</g>
<g id="PowerPoint">
</g>
<g id="Office_Word">
</g>
<g id="Filter">
</g>
<g id="Dislike">
</g>
<g id="Like">
</g>
<g id="Favourite">
</g>
<g id="Preview">
</g>
<g id="Download">
</g>
<g id="Upload">
</g>
<g id="Open">
</g>
<g id="Web">
</g>
<g id="Unlock">
</g>
<g id="Lock">
</g>
<g id="Phone">
</g>
<g id="Email">
</g>
<g id="Graph">
</g>
<g id="Note">
</g>
<g id="Search">
</g>
<g id="Alarm">
</g>
<g id="Time">
</g>
<g id="Users">
</g>
<g id="User">
</g>
<g id="Refresh">
</g>
<g id="Home">
</g>
<g id="Report">
</g>
<g id="Paste">
</g>
<g id="Copy">
</g>
<g id="Cut">
</g>
<g id="Flag">
</g>
<g id="Redo">
</g>
<g id="Undo">
</g>
<g id="Zoom_Out">
</g>
<g id="Zoom_In">
</g>
<g id="Add_Comment">
</g>
<g id="Unread_Comment">
</g>
<g id="Comment">
</g>
<g id="New">
</g>
<g id="Attach">
</g>
<g id="Delete">
</g>
<g id="Save">
</g>
<g id="Edit">
</g>
<g id="Print">
	<g>
		<g>
			<path fill-rule="evenodd" clip-rule="evenodd" fill="#0089D9" d="M14,3h-1V0H3v3H2C0.9,3,0,3.9,0,5v5c0,1.1,0.9,2,2,2h1v4h7l3-3
				v-1h1c1.1,0,2-0.9,2-2V5C16,3.9,15.1,3,14,3z M4,1h8v2H4V1z M12,13h-2v2H4V9h8V13z M15,10c0,0.6-0.4,1-1,1h-1V8H3v3H2
				c-0.6,0-1-0.4-1-1V5c0-0.6,0.4-1,1-1h12c0.6,0,1,0.4,1,1V10z M13,5c-0.6,0-1,0.4-1,1c0,0.5,0.5,1,1,1c0.6,0,1-0.4,1-1
				C14,5.5,13.6,5,13,5z"/>
		</g>
	</g>
	<g>
		<g>
			<path fill-rule="evenodd" clip-rule="evenodd" fill="#C8C8C8" d="M35,3h-1V0H24v3h-1c-1.1,0-2,0.9-2,2v5c0,1.1,0.9,2,2,2h1v4h7
				l3-3v-1h1c1.1,0,2-0.9,2-2V5C37,3.9,36.1,3,35,3z M25,1h8v2h-8V1z M33,13h-2v2h-6V9h8V13z M36,10c0,0.6-0.4,1-1,1h-1V8H24v3h-1
				c-0.6,0-1-0.4-1-1V5c0-0.6,0.4-1,1-1h12c0.6,0,1,0.4,1,1V10z M34,5c-0.6,0-1,0.4-1,1c0,0.5,0.5,1,1,1c0.6,0,1-0.4,1-1
				C35,5.5,34.6,5,34,5z"/>
		</g>
	</g>
	<g>
		<g>
			<path fill-rule="evenodd" clip-rule="evenodd" fill="#39A6E6" d="M56,3h-1V0H45v3h-1c-1.1,0-2,0.9-2,2v5c0,1.1,0.9,2,2,2h1v4h7
				l3-3v-1h1c1.1,0,2-0.9,2-2V5C58,3.9,57.1,3,56,3z M46,1h8v2h-8V1z M54,13h-2v2h-6V9h8V13z M57,10c0,0.6-0.4,1-1,1h-1V8H45v3h-1
				c-0.6,0-1-0.4-1-1V5c0-0.6,0.4-1,1-1h12c0.6,0,1,0.4,1,1V10z M55,5c-0.6,0-1,0.4-1,1c0,0.5,0.5,1,1,1c0.6,0,1-0.4,1-1
				C56,5.5,55.6,5,55,5z"/>
		</g>
	</g>
</g>
<g id="Guides" display="none" opacity="0.2">
	<rect x="0" display="inline" fill="#0089D9" width="16" height="16"/>
	<rect x="21" display="inline" fill="#0089D9" width="16" height="16"/>
	<rect x="42" display="inline" fill="#0089D9" width="16" height="16"/>
</g>
</svg>
