<?xml version="1.0" encoding="utf-8"?>
<!-- Generator: Adobe Illustrator 19.1.0, SVG Export Plug-In . SVG Version: 6.00 Build 0)  -->
<!DOCTYPE svg PUBLIC "-//W3C//DTD SVG 1.1//EN" "http://www.w3.org/Graphics/SVG/1.1/DTD/svg11.dtd">
<svg version="1.1" xmlns="http://www.w3.org/2000/svg" xmlns:xlink="http://www.w3.org/1999/xlink" x="0px" y="0px" width="58px"
	 height="16px" viewBox="0 0 58 16" enable-background="new 0 0 58 16" xml:space="preserve">
<g id="Changelog">
</g>
<g id="Export">
</g>
<g id="PDF">
</g>
<g id="Office_Excel">
</g>
<g id="PowerPoint">
</g>
<g id="Office_Word">
</g>
<g id="Filter">
</g>
<g id="Dislike">
</g>
<g id="Like">
</g>
<g id="Favourite">
</g>
<g id="Preview">
</g>
<g id="Download">
</g>
<g id="Upload">
</g>
<g id="Open">
</g>
<g id="Web">
</g>
<g id="Unlock">
</g>
<g id="Lock">
</g>
<g id="Phone">
</g>
<g id="Email">
</g>
<g id="Graph">
</g>
<g id="Note">
</g>
<g id="Search">
</g>
<g id="Alarm">
</g>
<g id="Time">
</g>
<g id="Users">
</g>
<g id="User">
</g>
<g id="Refresh">
</g>
<g id="Home">
</g>
<g id="Report">
</g>
<g id="Paste">
</g>
<g id="Copy">
</g>
<g id="Cut">
</g>
<g id="Flag">
</g>
<g id="Redo">
	<g>
		<g>
			<path fill-rule="evenodd" clip-rule="evenodd" fill="#39A6E6" d="M58,7.4L52,1c0,0,0,3.4,0,4c-5.8,0-9.3,1.3-10,9.3
				c2.6-4.1,4.7-4.3,10-4.3c0,1.3,0,4,0,4L58,7.4z M43.7,10.5C45.6,6.8,47.3,6,53,6c0-0.4,0-2,0-2l3.1,3.4L53,11c0,0,0-1.6,0-2
				C47.7,9,45.9,9.1,43.7,10.5z"/>
		</g>
	</g>
	<g>
		<g>
			<path fill-rule="evenodd" clip-rule="evenodd" fill="#C8C8C8" d="M37,7.4L31,1c0,0,0,3.4,0,4c-5.8,0-9.3,1.3-10,9.3
				c2.6-4.1,4.7-4.3,10-4.3c0,1.3,0,4,0,4L37,7.4z M22.8,10.5C24.6,6.8,26.3,6,32,6c0-0.4,0-2,0-2l3.1,3.4L32,11c0,0,0-1.6,0-2
				C26.7,9,24.9,9.1,22.8,10.5z"/>
		</g>
	</g>
	<g>
		<g>
			<path fill-rule="evenodd" clip-rule="evenodd" fill="#0089D9" d="M0,14.3C2.6,10.2,4.7,10,10,10c0,1.3,0,4,0,4l6-6.6L10,1
				c0,0,0,3.4,0,4C4.3,5,0.7,6.3,0,14.3z M1.8,10.5C3.6,6.8,5.3,6,11,6c0-0.4,0-2,0-2l3.1,3.4L11,11c0,0,0-1.6,0-2
				C5.7,9,3.9,9.1,1.8,10.5z"/>
		</g>
	</g>
</g>
<g id="Undo">
</g>
<g id="Zoom_Out">
</g>
<g id="Zoom_In">
</g>
<g id="Add_Comment">
</g>
<g id="Unread_Comment">
</g>
<g id="Comment">
</g>
<g id="New">
</g>
<g id="Attach">
</g>
<g id="Delete">
</g>
<g id="Save">
</g>
<g id="Edit">
</g>
<g id="Print">
</g>
<g id="Guides" display="none" opacity="0.2">
	<rect x="0" display="inline" fill="#0089D9" width="16" height="16"/>
	<rect x="21" display="inline" fill="#0089D9" width="16" height="16"/>
	<rect x="42" display="inline" fill="#0089D9" width="16" height="16"/>
</g>
</svg>
