<?xml version="1.0" encoding="utf-8"?>
<!-- Generator: Adobe Illustrator 19.1.0, SVG Export Plug-In . SVG Version: 6.00 Build 0)  -->
<!DOCTYPE svg PUBLIC "-//W3C//DTD SVG 1.1//EN" "http://www.w3.org/Graphics/SVG/1.1/DTD/svg11.dtd">
<svg version="1.1" xmlns="http://www.w3.org/2000/svg" xmlns:xlink="http://www.w3.org/1999/xlink" x="0px" y="0px" width="58px"
	 height="16px" viewBox="0 0 58 16" enable-background="new 0 0 58 16" xml:space="preserve">
<g id="Changelog">
</g>
<g id="Export">
</g>
<g id="PDF">
</g>
<g id="Office_Excel">
</g>
<g id="PowerPoint">
</g>
<g id="Office_Word">
</g>
<g id="Filter">
</g>
<g id="Dislike">
</g>
<g id="Like">
</g>
<g id="Favourite">
</g>
<g id="Preview">
</g>
<g id="Download">
</g>
<g id="Upload">
</g>
<g id="Open">
</g>
<g id="Web">
</g>
<g id="Unlock">
</g>
<g id="Lock">
</g>
<g id="Phone">
</g>
<g id="Email">
</g>
<g id="Graph">
</g>
<g id="Note">
</g>
<g id="Search">
</g>
<g id="Alarm">
	<g>
		<g>
			<path fill-rule="evenodd" clip-rule="evenodd" fill="#0089D9" d="M0.7,1.7c-1.2,1.2-0.5,2.7,0,3.3L4,1.7C3.3,1,1.8,0.5,0.7,1.7z
				 M8,2C4.1,2,1,5.1,1,9c0,3.9,3.2,7,7.1,7s7.1-3.1,7.1-7C15.1,5.1,11.9,2,8,2z M8,15c-3.3,0-6-2.7-6-6c0-3.3,2.7-6,6-6
				c3.3,0,6,2.7,6,6C14,12.3,11.3,15,8,15z M15.3,1.7c-1.2-1.2-2.7-0.7-3.3,0L15.3,5C15.9,4.3,16.5,2.9,15.3,1.7z M10.3,6l-2,2H7v2
				h2V8.7l2-2c0.2-0.2,0.2-0.5,0-0.7C10.8,5.9,10.5,5.9,10.3,6z"/>
		</g>
	</g>
	<g>
		<g>
			<path fill-rule="evenodd" clip-rule="evenodd" fill="#C8C8C8" d="M21.6,1.7c-1.2,1.2-0.5,2.7,0,3.3L25,1.7
				C24.3,1,22.8,0.5,21.6,1.7z M29,2c-3.9,0-7.1,3.1-7.1,7c0,3.9,3.2,7,7.1,7c3.9,0,7.1-3.1,7.1-7C36,5.1,32.9,2,29,2z M29,15
				c-3.3,0-6-2.7-6-6c0-3.3,2.7-6,6-6c3.3,0,6,2.7,6,6C35,12.3,32.3,15,29,15z M36.3,1.7c-1.2-1.2-2.7-0.7-3.3,0L36.3,5
				C36.8,4.3,37.5,2.9,36.3,1.7z M31.2,6l-2,2H28v2h2V8.7l2-2c0.2-0.2,0.2-0.5,0-0.7C31.8,5.9,31.4,5.9,31.2,6z"/>
		</g>
	</g>
	<g>
		<g>
			<path fill-rule="evenodd" clip-rule="evenodd" fill="#39A6E6" d="M57.3,1.7c-1.2-1.2-2.7-0.7-3.3,0L57.3,5
				C57.8,4.3,58.5,2.9,57.3,1.7z M50,2c-3.9,0-7.1,3.1-7.1,7c0,3.9,3.2,7,7.1,7c3.9,0,7.1-3.1,7.1-7C57,5.1,53.9,2,50,2z M50,15
				c-3.3,0-6-2.7-6-6c0-3.3,2.7-6,6-6c3.3,0,6,2.7,6,6C56,12.3,53.3,15,50,15z M42.6,1.7c-1.2,1.2-0.5,2.7,0,3.3L46,1.7
				C45.3,1,43.8,0.5,42.6,1.7z M52.2,6l-2,2H49v2h2V8.7l2-2c0.2-0.2,0.2-0.5,0-0.7C52.8,5.9,52.4,5.9,52.2,6z"/>
		</g>
	</g>
</g>
<g id="Time">
</g>
<g id="Users">
</g>
<g id="User">
</g>
<g id="Refresh">
</g>
<g id="Home">
</g>
<g id="Report">
</g>
<g id="Paste">
</g>
<g id="Copy">
</g>
<g id="Cut">
</g>
<g id="Flag">
</g>
<g id="Redo">
</g>
<g id="Undo">
</g>
<g id="Zoom_Out">
</g>
<g id="Zoom_In">
</g>
<g id="Add_Comment">
</g>
<g id="Unread_Comment">
</g>
<g id="Comment">
</g>
<g id="New">
</g>
<g id="Attach">
</g>
<g id="Delete">
</g>
<g id="Save">
</g>
<g id="Edit">
</g>
<g id="Print">
</g>
<g id="Guides" display="none" opacity="0.2">
	<rect x="0" display="inline" fill="#0089D9" width="16" height="16"/>
	<rect x="21" display="inline" fill="#0089D9" width="16" height="16"/>
	<rect x="42" display="inline" fill="#0089D9" width="16" height="16"/>
</g>
</svg>
