<?xml version="1.0" encoding="utf-8"?>
<!-- Generator: Adobe Illustrator 19.1.0, SVG Export Plug-In . SVG Version: 6.00 Build 0)  -->
<!DOCTYPE svg PUBLIC "-//W3C//DTD SVG 1.1//EN" "http://www.w3.org/Graphics/SVG/1.1/DTD/svg11.dtd">
<svg version="1.1" xmlns="http://www.w3.org/2000/svg" xmlns:xlink="http://www.w3.org/1999/xlink" x="0px" y="0px" width="58px"
	 height="16px" viewBox="0 0 58 16" enable-background="new 0 0 58 16" xml:space="preserve">
<g id="Changelog">
</g>
<g id="Export">
</g>
<g id="PDF">
</g>
<g id="Office_Excel">
</g>
<g id="PowerPoint">
</g>
<g id="Office_Word">
</g>
<g id="Filter">
</g>
<g id="Dislike">
</g>
<g id="Like">
</g>
<g id="Favourite">
</g>
<g id="Preview">
</g>
<g id="Download">
</g>
<g id="Upload">
</g>
<g id="Open">
</g>
<g id="Web">
</g>
<g id="Unlock">
</g>
<g id="Lock">
</g>
<g id="Phone">
</g>
<g id="Email">
</g>
<g id="Graph">
</g>
<g id="Note">
</g>
<g id="Search">
</g>
<g id="Alarm">
</g>
<g id="Time">
</g>
<g id="Users">
</g>
<g id="User">
</g>
<g id="Refresh">
	<g>
		<g>
			<path fill-rule="evenodd" clip-rule="evenodd" fill="#0089D9" d="M16,6V2l-1.5,1.5c-0.1-0.2-0.2-0.4-0.4-0.5
				C11.4-0.5,6.4-1,2.9,1.8C-0.5,4.6-1,9.6,1.8,13.1c2.8,3.4,7.9,3.9,11.3,1.1c0.9-0.7,1.6-1.6,2.1-2.6l-0.9-0.4
				c-0.4,0.9-1,1.6-1.8,2.3c-3,2.5-7.4,2-9.9-1c-2.5-3-2-7.4,1-9.9c3-2.5,7.4-2,9.9,1c0.2,0.2,0.3,0.4,0.4,0.6L12,6H16z"/>
		</g>
	</g>
	<g>
		<g>
			<path fill-rule="evenodd" clip-rule="evenodd" fill="#C8C8C8" d="M37,6V2l-1.5,1.5c-0.1-0.2-0.2-0.4-0.4-0.5
				C32.4-0.5,27.4-1,23.9,1.8c-3.4,2.8-3.9,7.8-1.1,11.2c2.8,3.4,7.9,3.9,11.3,1.1c0.9-0.7,1.6-1.6,2.1-2.6l-0.9-0.4
				c-0.4,0.9-1,1.6-1.8,2.3c-3,2.5-7.4,2-9.9-1c-2.5-3-2-7.4,1-9.9c3-2.5,7.4-2,9.9,1c0.2,0.2,0.3,0.4,0.4,0.6L33,6H37z"/>
		</g>
	</g>
	<g>
		<g>
			<path fill-rule="evenodd" clip-rule="evenodd" fill="#39A6E6" d="M58,6V2l-1.5,1.5c-0.1-0.2-0.2-0.4-0.4-0.5
				C53.4-0.5,48.3-1,44.9,1.8c-3.4,2.8-3.9,7.8-1.1,11.2c2.8,3.4,7.9,3.9,11.3,1.1c0.9-0.7,1.6-1.6,2.1-2.6l-0.9-0.4
				c-0.4,0.9-1,1.6-1.8,2.3c-3,2.5-7.4,2-9.9-1c-2.5-3-2-7.4,1-9.9c3-2.5,7.4-2,9.9,1c0.2,0.2,0.3,0.4,0.4,0.6L54,6H58z"/>
		</g>
	</g>
</g>
<g id="Home">
</g>
<g id="Report">
</g>
<g id="Paste">
</g>
<g id="Copy">
</g>
<g id="Cut">
</g>
<g id="Flag">
</g>
<g id="Redo">
</g>
<g id="Undo">
</g>
<g id="Zoom_Out">
</g>
<g id="Zoom_In">
</g>
<g id="Add_Comment">
</g>
<g id="Unread_Comment">
</g>
<g id="Comment">
</g>
<g id="New">
</g>
<g id="Attach">
</g>
<g id="Delete">
</g>
<g id="Save">
</g>
<g id="Edit">
</g>
<g id="Print">
</g>
<g id="Guides" display="none" opacity="0.2">
	<rect x="0" display="inline" fill="#0089D9" width="16" height="16"/>
	<rect x="21" display="inline" fill="#0089D9" width="16" height="16"/>
	<rect x="42" display="inline" fill="#0089D9" width="16" height="16"/>
</g>
</svg>
