<?xml version="1.0" encoding="utf-8"?>
<!-- Generator: Adobe Illustrator 19.1.0, SVG Export Plug-In . SVG Version: 6.00 Build 0)  -->
<!DOCTYPE svg PUBLIC "-//W3C//DTD SVG 1.1//EN" "http://www.w3.org/Graphics/SVG/1.1/DTD/svg11.dtd">
<svg version="1.1" xmlns="http://www.w3.org/2000/svg" xmlns:xlink="http://www.w3.org/1999/xlink" x="0px" y="0px" width="58px"
	 height="16px" viewBox="0 0 58 16" enable-background="new 0 0 58 16" xml:space="preserve">
<g id="Changelog">
</g>
<g id="Export">
</g>
<g id="PDF">
</g>
<g id="Office_Excel">
</g>
<g id="PowerPoint">
</g>
<g id="Office_Word">
</g>
<g id="Filter">
</g>
<g id="Dislike">
</g>
<g id="Like">
</g>
<g id="Favourite">
</g>
<g id="Preview">
</g>
<g id="Download">
</g>
<g id="Upload">
</g>
<g id="Open">
</g>
<g id="Web">
</g>
<g id="Unlock">
</g>
<g id="Lock">
</g>
<g id="Phone">
</g>
<g id="Email">
</g>
<g id="Graph">
</g>
<g id="Note">
</g>
<g id="Search">
</g>
<g id="Alarm">
</g>
<g id="Time">
</g>
<g id="Users">
</g>
<g id="User">
</g>
<g id="Refresh">
</g>
<g id="Home">
</g>
<g id="Report">
	<g>
		<g>
			<path fill-rule="evenodd" clip-rule="evenodd" fill="#0089D9" d="M15.5,15H1V0.5C1,0.2,0.8,0,0.5,0S0,0.2,0,0.5v15
				C0,15.8,0.2,16,0.5,16h15c0.3,0,0.5-0.2,0.5-0.5C16,15.2,15.8,15,15.5,15z"/>
		</g>
	</g>
	<path fill-rule="evenodd" clip-rule="evenodd" fill="#FF8B00" d="M3.5,6C3.8,6,4,6.2,4,6.5v6C4,12.8,3.8,13,3.5,13
		C3.2,13,3,12.8,3,12.5v-6C3,6.2,3.2,6,3.5,6z"/>
	<path fill-rule="evenodd" clip-rule="evenodd" fill="#FF8B00" d="M9.5,5C9.8,5,10,5.2,10,5.5v7c0,0.3-0.2,0.5-0.5,0.5
		C9.2,13,9,12.8,9,12.5v-7C9,5.2,9.2,5,9.5,5z"/>
	<path fill-rule="evenodd" clip-rule="evenodd" fill="#68A611" d="M6.5,3C6.8,3,7,3.2,7,3.5v9C7,12.8,6.8,13,6.5,13S6,12.8,6,12.5
		v-9C6,3.2,6.2,3,6.5,3z"/>
	<path fill-rule="evenodd" clip-rule="evenodd" fill="#68A611" d="M12.5,0C12.8,0,13,0.2,13,0.5v12c0,0.3-0.2,0.5-0.5,0.5
		c-0.3,0-0.5-0.2-0.5-0.5v-12C12,0.2,12.2,0,12.5,0z"/>
	<g>
		<g>
			<path fill-rule="evenodd" clip-rule="evenodd" fill="#C8C8C8" d="M36.5,15H22V0.5C22,0.2,21.8,0,21.5,0S21,0.2,21,0.5v15
				c0,0.3,0.2,0.5,0.5,0.5h15c0.3,0,0.5-0.2,0.5-0.5C37,15.2,36.8,15,36.5,15z"/>
		</g>
	</g>
	<path fill-rule="evenodd" clip-rule="evenodd" fill="#C8C8C8" d="M24.5,6C24.8,6,25,6.2,25,6.5v6c0,0.3-0.2,0.5-0.5,0.5
		c-0.3,0-0.5-0.2-0.5-0.5v-6C24,6.2,24.2,6,24.5,6z"/>
	<path fill-rule="evenodd" clip-rule="evenodd" fill="#C8C8C8" d="M30.5,5C30.8,5,31,5.2,31,5.5v7c0,0.3-0.2,0.5-0.5,0.5
		S30,12.8,30,12.5v-7C30,5.2,30.2,5,30.5,5z"/>
	<path fill-rule="evenodd" clip-rule="evenodd" fill="#C8C8C8" d="M27.5,3C27.8,3,28,3.2,28,3.5v9c0,0.3-0.2,0.5-0.5,0.5
		S27,12.8,27,12.5v-9C27,3.2,27.2,3,27.5,3z"/>
	<path fill-rule="evenodd" clip-rule="evenodd" fill="#C8C8C8" d="M33.5,0C33.8,0,34,0.2,34,0.5v12c0,0.3-0.2,0.5-0.5,0.5
		c-0.3,0-0.5-0.2-0.5-0.5v-12C33,0.2,33.2,0,33.5,0z"/>
	<g>
		<g>
			<path fill-rule="evenodd" clip-rule="evenodd" fill="#39A6E6" d="M57.5,15H43V0.5C43,0.2,42.8,0,42.5,0S42,0.2,42,0.5v15
				c0,0.3,0.2,0.5,0.5,0.5h15c0.3,0,0.5-0.2,0.5-0.5C58,15.2,57.8,15,57.5,15z"/>
		</g>
	</g>
	<path fill-rule="evenodd" clip-rule="evenodd" fill="#FFA526" d="M45.5,6C45.8,6,46,6.2,46,6.5v6c0,0.3-0.2,0.5-0.5,0.5
		c-0.3,0-0.5-0.2-0.5-0.5v-6C45,6.2,45.2,6,45.5,6z"/>
	<path fill-rule="evenodd" clip-rule="evenodd" fill="#FFA526" d="M51.5,5C51.8,5,52,5.2,52,5.5v7c0,0.3-0.2,0.5-0.5,0.5
		S51,12.8,51,12.5v-7C51,5.2,51.2,5,51.5,5z"/>
	<path fill-rule="evenodd" clip-rule="evenodd" fill="#8EC928" d="M48.5,3C48.8,3,49,3.2,49,3.5v9c0,0.3-0.2,0.5-0.5,0.5
		S48,12.8,48,12.5v-9C48,3.2,48.2,3,48.5,3z"/>
	<path fill-rule="evenodd" clip-rule="evenodd" fill="#8EC928" d="M54.5,0C54.8,0,55,0.2,55,0.5v12c0,0.3-0.2,0.5-0.5,0.5
		c-0.3,0-0.5-0.2-0.5-0.5v-12C54,0.2,54.2,0,54.5,0z"/>
</g>
<g id="Paste">
</g>
<g id="Copy">
</g>
<g id="Cut">
</g>
<g id="Flag">
</g>
<g id="Redo">
</g>
<g id="Undo">
</g>
<g id="Zoom_Out">
</g>
<g id="Zoom_In">
</g>
<g id="Add_Comment">
</g>
<g id="Unread_Comment">
</g>
<g id="Comment">
</g>
<g id="New">
</g>
<g id="Attach">
</g>
<g id="Delete">
</g>
<g id="Save">
</g>
<g id="Edit">
</g>
<g id="Print">
</g>
<g id="Guides" display="none" opacity="0.2">
	<rect x="0" display="inline" fill="#0089D9" width="16" height="16"/>
	<rect x="21" display="inline" fill="#0089D9" width="16" height="16"/>
	<rect x="42" display="inline" fill="#0089D9" width="16" height="16"/>
</g>
</svg>
