<?xml version="1.0" encoding="utf-8"?>
<!-- Generator: Adobe Illustrator 19.1.0, SVG Export Plug-In . SVG Version: 6.00 Build 0)  -->
<!DOCTYPE svg PUBLIC "-//W3C//DTD SVG 1.1//EN" "http://www.w3.org/Graphics/SVG/1.1/DTD/svg11.dtd">
<svg version="1.1" xmlns="http://www.w3.org/2000/svg" xmlns:xlink="http://www.w3.org/1999/xlink" x="0px" y="0px" width="58px"
	 height="16px" viewBox="0 0 58 16" enable-background="new 0 0 58 16" xml:space="preserve">
<g id="Changelog">
</g>
<g id="Export">
</g>
<g id="PDF">
</g>
<g id="Office_Excel">
</g>
<g id="PowerPoint">
</g>
<g id="Office_Word">
</g>
<g id="Filter">
</g>
<g id="Dislike">
</g>
<g id="Like">
</g>
<g id="Favourite">
</g>
<g id="Preview">
</g>
<g id="Download">
</g>
<g id="Upload">
</g>
<g id="Open">
</g>
<g id="Web">
</g>
<g id="Unlock">
</g>
<g id="Lock">
</g>
<g id="Phone">
</g>
<g id="Email">
</g>
<g id="Graph">
</g>
<g id="Note">
</g>
<g id="Search">
</g>
<g id="Alarm">
</g>
<g id="Time">
</g>
<g id="Users">
</g>
<g id="User">
</g>
<g id="Refresh">
</g>
<g id="Home">
</g>
<g id="Report">
</g>
<g id="Paste">
</g>
<g id="Copy">
</g>
<g id="Cut">
</g>
<g id="Flag">
</g>
<g id="Redo">
</g>
<g id="Undo">
</g>
<g id="Zoom_Out">
</g>
<g id="Zoom_In">
</g>
<g id="Add_Comment">
</g>
<g id="Unread_Comment">
</g>
<g id="Comment">
</g>
<g id="New">
</g>
<g id="Attach">
</g>
<g id="Delete">
</g>
<g id="Save">
	<g>
		<g>
			<path fill-rule="evenodd" clip-rule="evenodd" fill="#0089D9" d="M12.8,0H1.4C0.6,0,0,0.6,0,1.4v13.2C0,15.4,0.6,16,1.4,16h13.2
				c0.8,0,1.4-0.6,1.4-1.4V3.2L12.8,0z M4,1h7v5H4V1z M15,14c0,0-0.3,1-1,1H2c-0.7,0-1-1-1-1V2c0-0.4,0.6-1,1-1h1v6h9V1h1l2,2V14z
				 M8,5h2V2H8V5z"/>
		</g>
	</g>
	<g>
		<g>
			<path fill-rule="evenodd" clip-rule="evenodd" fill="#C8C8C8" d="M33.8,0H22.4C21.6,0,21,0.6,21,1.4v13.2c0,0.8,0.6,1.4,1.4,1.4
				h13.2c0.8,0,1.4-0.6,1.4-1.4V3.2L33.8,0z M25,1h7v5h-7V1z M36,14c0,0-0.3,1-1,1H23c-0.7,0-1-1-1-1V2c0-0.4,0.6-1,1-1h1v6h9V1h1
				l2,2V14z M29,5h2V2h-2V5z"/>
		</g>
	</g>
	<g>
		<g>
			<path fill-rule="evenodd" clip-rule="evenodd" fill="#39A6E6" d="M54.8,0H43.4C42.6,0,42,0.6,42,1.4v13.2c0,0.8,0.6,1.4,1.4,1.4
				h13.2c0.8,0,1.4-0.6,1.4-1.4V3.2L54.8,0z M46,1h7v5h-7V1z M57,14c0,0-0.3,1-1,1H44c-0.7,0-1-1-1-1V2c0-0.4,0.6-1,1-1h1v6h9V1h1
				l2,2V14z M50,5h2V2h-2V5z"/>
		</g>
	</g>
</g>
<g id="Edit">
</g>
<g id="Print">
</g>
<g id="Guides" display="none" opacity="0.2">
	<rect x="0" display="inline" fill="#0089D9" width="16" height="16"/>
	<rect x="21" display="inline" fill="#0089D9" width="16" height="16"/>
	<rect x="42" display="inline" fill="#0089D9" width="16" height="16"/>
</g>
</svg>
