<?xml version="1.0" encoding="utf-8"?>
<!-- Generator: Adobe Illustrator 19.1.0, SVG Export Plug-In . SVG Version: 6.00 Build 0)  -->
<!DOCTYPE svg PUBLIC "-//W3C//DTD SVG 1.1//EN" "http://www.w3.org/Graphics/SVG/1.1/DTD/svg11.dtd">
<svg version="1.1" xmlns="http://www.w3.org/2000/svg" xmlns:xlink="http://www.w3.org/1999/xlink" x="0px" y="0px" width="58px"
	 height="16px" viewBox="0 0 58 16" enable-background="new 0 0 58 16" xml:space="preserve">
<g id="Changelog">
</g>
<g id="Export">
</g>
<g id="PDF">
</g>
<g id="Office_Excel">
</g>
<g id="PowerPoint">
</g>
<g id="Office_Word">
</g>
<g id="Filter">
</g>
<g id="Dislike">
</g>
<g id="Like">
</g>
<g id="Favourite">
</g>
<g id="Preview">
</g>
<g id="Download">
</g>
<g id="Upload">
</g>
<g id="Open">
</g>
<g id="Web">
</g>
<g id="Unlock">
</g>
<g id="Lock">
</g>
<g id="Phone">
</g>
<g id="Email">
</g>
<g id="Graph">
</g>
<g id="Note">
</g>
<g id="Search">
</g>
<g id="Alarm">
</g>
<g id="Time">
</g>
<g id="Users">
</g>
<g id="User">
</g>
<g id="Refresh">
</g>
<g id="Home">
</g>
<g id="Report">
</g>
<g id="Paste">
</g>
<g id="Copy">
</g>
<g id="Cut">
</g>
<g id="Flag">
</g>
<g id="Redo">
</g>
<g id="Undo">
	<g>
		<g>
			<path fill-rule="evenodd" clip-rule="evenodd" fill="#0089D9" d="M6,5.2c0-0.6,0-4,0-4L0,7.6l6,6.6c0,0,0-2.7,0-4
				c5.3,0,7.5,0.2,10,4.3C15.3,6.5,11.8,5.2,6,5.2z M5,9.2c0,0.4,0,2,0,2L1.9,7.6L5,4.2c0,0,0,1.6,0,2c5.7,0,7.4,0.8,9.3,4.5
				C12.1,9.3,10.3,9.2,5,9.2z"/>
		</g>
	</g>
	<g>
		<g>
			<path fill-rule="evenodd" clip-rule="evenodd" fill="#C8C8C8" d="M27,5.2c0-0.6,0-4,0-4l-6,6.4l6,6.6c0,0,0-2.7,0-4
				c5.3,0,7.5,0.2,10,4.3C36.3,6.5,32.7,5.2,27,5.2z M26,9.2c0,0.4,0,2,0,2l-3.1-3.6L26,4.2c0,0,0,1.6,0,2c5.7,0,7.4,0.8,9.3,4.5
				C33.1,9.3,31.3,9.2,26,9.2z"/>
		</g>
	</g>
	<g>
		<g>
			<path fill-rule="evenodd" clip-rule="evenodd" fill="#39A6E6" d="M48,5.2c0-0.6,0-4,0-4l-6,6.4l6,6.6c0,0,0-2.7,0-4
				c5.3,0,7.5,0.2,10,4.3C57.3,6.5,53.7,5.2,48,5.2z M47,9.2c0,0.4,0,2,0,2l-3.1-3.6L47,4.2c0,0,0,1.6,0,2c5.7,0,7.4,0.8,9.3,4.5
				C54.1,9.3,52.3,9.2,47,9.2z"/>
		</g>
	</g>
</g>
<g id="Zoom_Out">
</g>
<g id="Zoom_In">
</g>
<g id="Add_Comment">
</g>
<g id="Unread_Comment">
</g>
<g id="Comment">
</g>
<g id="New">
</g>
<g id="Attach">
</g>
<g id="Delete">
</g>
<g id="Save">
</g>
<g id="Edit">
</g>
<g id="Print">
</g>
<g id="Guides" display="none" opacity="0.2">
	<rect x="0" display="inline" fill="#0089D9" width="16" height="16"/>
	<rect x="21" display="inline" fill="#0089D9" width="16" height="16"/>
	<rect x="42" display="inline" fill="#0089D9" width="16" height="16"/>
</g>
</svg>
