<?xml version="1.0" encoding="utf-8"?>
<!-- Generator: Adobe Illustrator 19.1.0, SVG Export Plug-In . SVG Version: 6.00 Build 0)  -->
<!DOCTYPE svg PUBLIC "-//W3C//DTD SVG 1.1//EN" "http://www.w3.org/Graphics/SVG/1.1/DTD/svg11.dtd">
<svg version="1.1" xmlns="http://www.w3.org/2000/svg" xmlns:xlink="http://www.w3.org/1999/xlink" x="0px" y="0px" width="58px"
	 height="16px" viewBox="0 0 58 16" enable-background="new 0 0 58 16" xml:space="preserve">
<g id="Changelog">
</g>
<g id="Export">
</g>
<g id="PDF">
</g>
<g id="Office_Excel">
</g>
<g id="PowerPoint">
</g>
<g id="Office_Word">
</g>
<g id="Filter">
</g>
<g id="Dislike">
</g>
<g id="Like">
</g>
<g id="Favourite">
</g>
<g id="Preview">
</g>
<g id="Download">
</g>
<g id="Upload">
</g>
<g id="Open">
</g>
<g id="Web">
</g>
<g id="Unlock">
</g>
<g id="Lock">
</g>
<g id="Phone">
</g>
<g id="Email">
</g>
<g id="Graph">
</g>
<g id="Note">
</g>
<g id="Search">
</g>
<g id="Alarm">
</g>
<g id="Time">
</g>
<g id="Users">
</g>
<g id="User">
	<g>
		<g>
			<path fill-rule="evenodd" clip-rule="evenodd" fill="#0089D9" d="M10.7,4.6c-0.2-1.2-1-1.2-1.1-1.8C8.5,3.6,7,2.8,6.3,4.6
				c1-1.1,2.8,0.2,3.2-1C9.7,4.3,10.3,4.2,10.7,4.6z M14.8,13.7c-1-0.7-2.8-1.8-3.5-2.3c-0.1-0.1-0.3-0.2-0.6-0.2
				c0-0.2-0.1-0.6,0-0.7c0.5-0.5,0.8-1.1,0.8-1.8c0.8-0.2,1.5-1.6,1.4-2.4c-0.1-0.4-0.4-0.9-0.9-1c0.3-0.7,0.5-0.6,0.5-1.7
				c0-0.8-0.5-2.1-1.8-2.2C10.2,0.5,9.2,0,8,0C6.1,0,4.1,1.3,4.1,3.6c0,0.9,0.2,1,0.4,1.7c-0.4,0.1-0.9,0.6-0.9,1
				c0,0.8,0.6,2.2,1.4,2.4c0,0.7,0.3,1.3,0.8,1.8C6,10.7,6,11,5.9,11.2c-0.2,0-0.4,0-0.6,0.2c-0.6,0.5-2.8,1.8-4,2.6
				c0,0,0,0.1,0,0.1C1.1,14.2,1,14.5,1,14.7c0,1.8,14.7,1.7,14.7,0C15.7,14.2,15.4,13.9,14.8,13.7z M3.1,14.4
				c1.2-0.7,2.9-1.7,3.6-2.2c0,0,0.7-1,0.1-2.1C6.6,9.7,6.3,9.4,6.2,8.7c0-0.4-0.3-0.8-0.8-0.9C5.3,7.6,4.9,6.6,4.9,6.2
				c0.7,0.1,1-0.7,0.8-1.1c-1.9-4,3.4-5.1,4.3-2.6C11.2,2,12,4.2,10.9,5.1c-0.4,0.8,0.8,1.1,0.8,1.1c0.1,0.4-0.3,1.3-0.5,1.4
				c-0.5,0.1-0.8,0.5-0.8,1c0,1-0.3,1.2-0.5,1.5C9.3,11.2,10,12,10,12c0.8,0.5,2.5,1.7,3.6,2.4C11.4,15.2,5.3,15.1,3.1,14.4z"/>
		</g>
	</g>
	<g>
		<g>
			<path fill-rule="evenodd" clip-rule="evenodd" fill="#C8C8C8" d="M31.7,4.6c-0.2-1.2-1-1.2-1.1-1.8c-1.2,0.8-2.7,0-3.4,1.8
				c1-1.1,2.8,0.2,3.2-1C30.7,4.3,31.3,4.2,31.7,4.6z M35.8,13.7c-1-0.7-2.8-1.8-3.5-2.3c-0.1-0.1-0.3-0.2-0.6-0.2
				c0-0.2-0.1-0.6,0-0.7c0.5-0.5,0.8-1.1,0.8-1.8c0.8-0.2,1.5-1.6,1.4-2.4c-0.1-0.4-0.4-0.9-0.9-1c0.3-0.7,0.5-0.6,0.5-1.7
				c0-0.8-0.5-2.1-1.8-2.2C31.2,0.5,30.2,0,29,0c-1.9,0-3.9,1.3-3.9,3.6c0,0.9,0.2,1,0.4,1.7c-0.4,0.1-0.9,0.6-0.9,1
				c0,0.8,0.6,2.2,1.4,2.4c0,0.7,0.3,1.3,0.8,1.8c0.1,0.1,0.1,0.5,0,0.7c-0.2,0-0.4,0-0.6,0.2c-0.6,0.5-2.8,1.8-4,2.6
				c0,0,0,0.1,0,0.1c-0.2,0.2-0.3,0.4-0.3,0.6c0,1.8,14.7,1.7,14.7,0C36.7,14.2,36.4,13.9,35.8,13.7z M24.1,14.4
				c1.2-0.7,2.9-1.7,3.6-2.2c0,0,0.7-1,0.1-2.1c-0.2-0.3-0.5-0.7-0.6-1.4c0-0.4-0.3-0.8-0.8-0.9c-0.2-0.1-0.6-1.2-0.5-1.5
				c0.7,0.1,1-0.7,0.8-1.1c-1.9-4,3.4-5.1,4.3-2.6C32.2,2,33,4.2,31.9,5.1c-0.4,0.8,0.8,1.1,0.8,1.1c0.1,0.4-0.3,1.3-0.5,1.4
				c-0.5,0.1-0.8,0.5-0.8,1c0,1-0.3,1.2-0.5,1.5C30.3,11.2,31,12,31,12c0.8,0.5,2.5,1.7,3.6,2.4C32.4,15.2,26.3,15.1,24.1,14.4z"/>
		</g>
	</g>
	<g>
		<g>
			<path fill-rule="evenodd" clip-rule="evenodd" fill="#39A6E6" d="M52.6,4.6c-0.2-1.2-1-1.2-1.1-1.8c-1.2,0.8-2.7,0-3.4,1.8
				c1-1.1,2.8,0.2,3.2-1C51.5,4.3,52.2,4.2,52.6,4.6z M56.7,13.7c-1-0.7-2.8-1.8-3.5-2.3c-0.1-0.1-0.3-0.2-0.6-0.2
				c0-0.2-0.1-0.6,0-0.7c0.5-0.5,0.8-1.1,0.8-1.8c0.8-0.2,1.5-1.6,1.4-2.4c-0.1-0.4-0.4-0.9-0.9-1c0.3-0.7,0.5-0.6,0.5-1.7
				c0-0.8-0.5-2.1-1.9-2.2C52.1,0.5,51.1,0,49.9,0C48,0,46,1.3,46,3.6c0,0.9,0.2,1,0.4,1.7c-0.4,0.1-0.9,0.6-0.9,1
				c0,0.8,0.6,2.2,1.4,2.4c0,0.7,0.3,1.3,0.8,1.8c0.1,0.1,0.1,0.5,0,0.7c-0.2,0-0.4,0-0.6,0.2c-0.6,0.5-2.8,1.8-4,2.6
				c0,0,0,0.1,0,0.1c-0.2,0.2-0.3,0.4-0.3,0.6c0,1.8,14.7,1.7,14.7,0C57.5,14.2,57.3,13.9,56.7,13.7z M45,14.4
				c1.2-0.7,2.9-1.7,3.6-2.2c0,0,0.7-1,0.1-2.1c-0.2-0.3-0.5-0.7-0.6-1.4c0-0.4-0.3-0.8-0.8-0.9c-0.2-0.1-0.6-1.2-0.5-1.5
				c0.7,0.1,1-0.7,0.8-1.1C45.7,1.1,51,0,52,2.4c1.1-0.5,1.9,1.7,0.8,2.7c-0.4,0.8,0.8,1.1,0.8,1.1c0.1,0.4-0.3,1.3-0.5,1.4
				c-0.5,0.1-0.8,0.5-0.8,1c0,1-0.3,1.2-0.5,1.5c-0.5,1.1,0.3,1.9,0.3,1.9c0.8,0.5,2.5,1.7,3.6,2.4C53.3,15.2,47.2,15.1,45,14.4z"/>
		</g>
	</g>
</g>
<g id="Refresh">
</g>
<g id="Home">
</g>
<g id="Report">
</g>
<g id="Paste">
</g>
<g id="Copy">
</g>
<g id="Cut">
</g>
<g id="Flag">
</g>
<g id="Redo">
</g>
<g id="Undo">
</g>
<g id="Zoom_Out">
</g>
<g id="Zoom_In">
</g>
<g id="Add_Comment">
</g>
<g id="Unread_Comment">
</g>
<g id="Comment">
</g>
<g id="New">
</g>
<g id="Attach">
</g>
<g id="Delete">
</g>
<g id="Save">
</g>
<g id="Edit">
</g>
<g id="Print">
</g>
<g id="Guides" display="none" opacity="0.2">
	<rect x="0" display="inline" fill="#0089D9" width="16" height="16"/>
	<rect x="21" display="inline" fill="#0089D9" width="16" height="16"/>
	<rect x="42" display="inline" fill="#0089D9" width="16" height="16"/>
</g>
</svg>
