<?xml version="1.0" encoding="utf-8"?>
<!-- Generator: Adobe Illustrator 19.1.0, SVG Export Plug-In . SVG Version: 6.00 Build 0)  -->
<!DOCTYPE svg PUBLIC "-//W3C//DTD SVG 1.1//EN" "http://www.w3.org/Graphics/SVG/1.1/DTD/svg11.dtd">
<svg version="1.1" xmlns="http://www.w3.org/2000/svg" xmlns:xlink="http://www.w3.org/1999/xlink" x="0px" y="0px" width="58px"
	 height="16px" viewBox="0 0 58 16" enable-background="new 0 0 58 16" xml:space="preserve">
<g id="Changelog">
</g>
<g id="Export">
</g>
<g id="PDF">
</g>
<g id="Office_Excel">
</g>
<g id="PowerPoint">
</g>
<g id="Office_Word">
</g>
<g id="Filter">
</g>
<g id="Dislike">
</g>
<g id="Like">
</g>
<g id="Favourite">
</g>
<g id="Preview">
</g>
<g id="Download">
</g>
<g id="Upload">
</g>
<g id="Open">
</g>
<g id="Web">
</g>
<g id="Unlock">
	<g>
		<g>
			<path fill-rule="evenodd" clip-rule="evenodd" fill="#0089D9" d="M12,7H5V4c0-1.7,1.3-3,3-3c1.7,0,3,1.3,3,3h1c0-2.2-1.8-4-4-4
				C5.8,0,4,1.8,4,4v3C2.9,7,2,7.9,2,9v5c0,1.1,0.9,2,2,2h8c1.1,0,2-0.9,2-2V9C14,7.9,13.1,7,12,7z M13,14c0,0.6-0.4,1-1,1H4
				c-0.6,0-1-0.4-1-1V9c0-0.6,0.4-1,1-1h8c0.6,0,1,0.4,1,1V14z M8,9c-0.6,0-1,0.4-1,1v1c0,0.6,0.4,1,1,1c0.6,0,1-0.4,1-1v-1
				C9,9.4,8.6,9,8,9z"/>
		</g>
	</g>
	<g>
		<g>
			<path fill-rule="evenodd" clip-rule="evenodd" fill="#C8C8C8" d="M29,9c-0.6,0-1,0.4-1,1v1c0,0.6,0.4,1,1,1c0.6,0,1-0.4,1-1v-1
				C30,9.4,29.6,9,29,9z M33,7h-1h-6V4c0-1.7,1.3-3,3-3c1.7,0,3,1.3,3,3h1c0-2.2-1.8-4-4-4c-2.2,0-4,1.8-4,4v3c-1.1,0-2,0.9-2,2v5
				c0,1.1,0.9,2,2,2h8c1.1,0,2-0.9,2-2V9C35,7.9,34.1,7,33,7z M34,14c0,0.6-0.4,1-1,1h-8c-0.6,0-1-0.4-1-1V9c0-0.6,0.4-1,1-1h8
				c0.6,0,1,0.4,1,1V14z"/>
		</g>
	</g>
	<g>
		<g>
			<path fill-rule="evenodd" clip-rule="evenodd" fill="#39A6E6" d="M50,9c-0.6,0-1,0.4-1,1v1c0,0.6,0.4,1,1,1c0.6,0,1-0.4,1-1v-1
				C51,9.4,50.6,9,50,9z M54,7h-7V4c0-1.7,1.3-3,3-3c1.7,0,3,1.3,3,3h1c0-2.2-1.8-4-4-4c-2.2,0-4,1.8-4,4v3c-1.1,0-2,0.9-2,2v5
				c0,1.1,0.9,2,2,2h8c1.1,0,2-0.9,2-2V9C56,7.9,55.1,7,54,7z M55,14c0,0.6-0.4,1-1,1h-8c-0.6,0-1-0.4-1-1V9c0-0.6,0.4-1,1-1h8
				c0.6,0,1,0.4,1,1V14z"/>
		</g>
	</g>
</g>
<g id="Lock">
</g>
<g id="Phone">
</g>
<g id="Email">
</g>
<g id="Graph">
</g>
<g id="Note">
</g>
<g id="Search">
</g>
<g id="Alarm">
</g>
<g id="Time">
</g>
<g id="Users">
</g>
<g id="User">
</g>
<g id="Refresh">
</g>
<g id="Home">
</g>
<g id="Report">
</g>
<g id="Paste">
</g>
<g id="Copy">
</g>
<g id="Cut">
</g>
<g id="Flag">
</g>
<g id="Redo">
</g>
<g id="Undo">
</g>
<g id="Zoom_Out">
</g>
<g id="Zoom_In">
</g>
<g id="Add_Comment">
</g>
<g id="Unread_Comment">
</g>
<g id="Comment">
</g>
<g id="New">
</g>
<g id="Attach">
</g>
<g id="Delete">
</g>
<g id="Save">
</g>
<g id="Edit">
</g>
<g id="Print">
</g>
<g id="Guides" display="none" opacity="0.2">
	<rect x="0" display="inline" fill="#0089D9" width="16" height="16"/>
	<rect x="21" display="inline" fill="#0089D9" width="16" height="16"/>
	<rect x="42" display="inline" fill="#0089D9" width="16" height="16"/>
</g>
</svg>
