<?xml version="1.0" encoding="utf-8"?>
<!-- Generator: Adobe Illustrator 19.1.0, SVG Export Plug-In . SVG Version: 6.00 Build 0)  -->
<!DOCTYPE svg PUBLIC "-//W3C//DTD SVG 1.1//EN" "http://www.w3.org/Graphics/SVG/1.1/DTD/svg11.dtd">
<svg version="1.1" xmlns="http://www.w3.org/2000/svg" xmlns:xlink="http://www.w3.org/1999/xlink" x="0px" y="0px" width="58px"
	 height="16px" viewBox="0 0 58 16" enable-background="new 0 0 58 16" xml:space="preserve">
<g id="Changelog">
</g>
<g id="Export">
</g>
<g id="PDF">
</g>
<g id="Office_Excel">
</g>
<g id="PowerPoint">
</g>
<g id="Office_Word">
</g>
<g id="Filter">
</g>
<g id="Dislike">
</g>
<g id="Like">
</g>
<g id="Favourite">
</g>
<g id="Preview">
</g>
<g id="Download">
</g>
<g id="Upload">
	<g>
		<g>
			<path fill-rule="evenodd" clip-rule="evenodd" fill="#0089D9" d="M14,1H1C0.4,1,0,1.4,0,2v8c0,0.6,0.4,1,1,1h4v-1H2
				c-0.6,0-1-0.4-1-1V3c0-0.6,0.4-1,1-1h11c0.6,0,1,0.4,1,1v6c0,0.6-0.4,1-1,1h-3v1h4c0.6,0,1-0.4,1-1V2C15,1.4,14.6,1,14,1z
				 M10.9,7.9c0.2-0.2,0.2-0.5,0-0.7L8.1,4.4c0,0-0.1-0.1-0.1-0.1C7.9,4.1,7.7,4,7.5,4C7.3,4,7.1,4.1,7.1,4.3c0,0-0.1,0-0.1,0.1
				L4.1,7.2c-0.2,0.2-0.2,0.5,0,0.7c0.2,0.2,0.5,0.2,0.7,0L7,5.7v8.8C7,14.8,7.2,15,7.5,15C7.8,15,8,14.8,8,14.5V5.7l2.2,2.2
				C10.4,8.1,10.7,8.1,10.9,7.9z"/>
		</g>
	</g>
	<g>
		<g>
			<path fill-rule="evenodd" clip-rule="evenodd" fill="#C8C8C8" d="M35,1H22c-0.6,0-1,0.4-1,1v8c0,0.6,0.4,1,1,1h4v-1h-3
				c-0.6,0-1-0.4-1-1V3c0-0.6,0.4-1,1-1h11c0.6,0,1,0.4,1,1v6c0,0.6-0.4,1-1,1h-3v1h4c0.6,0,1-0.4,1-1V2C36,1.4,35.6,1,35,1z
				 M31.9,7.9c0.2-0.2,0.2-0.5,0-0.7l-2.8-2.8c0,0-0.1-0.1-0.1-0.1C28.9,4.1,28.7,4,28.5,4s-0.4,0.1-0.4,0.3c0,0-0.1,0-0.1,0.1
				l-2.8,2.8c-0.2,0.2-0.2,0.5,0,0.7c0.2,0.2,0.5,0.2,0.7,0L28,5.7v8.8c0,0.3,0.2,0.5,0.5,0.5c0.3,0,0.5-0.2,0.5-0.5V5.7l2.2,2.2
				C31.4,8.1,31.7,8.1,31.9,7.9z"/>
		</g>
	</g>
	<g>
		<g>
			<path fill-rule="evenodd" clip-rule="evenodd" fill="#39A6E6" d="M56,1H43c-0.6,0-1,0.4-1,1v8c0,0.6,0.4,1,1,1h4v-1h-3
				c-0.6,0-1-0.4-1-1V3c0-0.6,0.4-1,1-1h11c0.6,0,1,0.4,1,1v6c0,0.6-0.4,1-1,1h-3v1h4c0.6,0,1-0.4,1-1V2C57,1.4,56.6,1,56,1z
				 M52.9,7.9c0.2-0.2,0.2-0.5,0-0.7l-2.8-2.8c0,0-0.1-0.1-0.1-0.1C49.9,4.1,49.7,4,49.5,4s-0.4,0.1-0.4,0.3c0,0-0.1,0-0.1,0.1
				l-2.8,2.8c-0.2,0.2-0.2,0.5,0,0.7c0.2,0.2,0.5,0.2,0.7,0L49,5.7v8.8c0,0.3,0.2,0.5,0.5,0.5c0.3,0,0.5-0.2,0.5-0.5V5.7l2.2,2.2
				C52.4,8.1,52.7,8.1,52.9,7.9z"/>
		</g>
	</g>
</g>
<g id="Open">
</g>
<g id="Web">
</g>
<g id="Unlock">
</g>
<g id="Lock">
</g>
<g id="Phone">
</g>
<g id="Email">
</g>
<g id="Graph">
</g>
<g id="Note">
</g>
<g id="Search">
</g>
<g id="Alarm">
</g>
<g id="Time">
</g>
<g id="Users">
</g>
<g id="User">
</g>
<g id="Refresh">
</g>
<g id="Home">
</g>
<g id="Report">
</g>
<g id="Paste">
</g>
<g id="Copy">
</g>
<g id="Cut">
</g>
<g id="Flag">
</g>
<g id="Redo">
</g>
<g id="Undo">
</g>
<g id="Zoom_Out">
</g>
<g id="Zoom_In">
</g>
<g id="Add_Comment">
</g>
<g id="Unread_Comment">
</g>
<g id="Comment">
</g>
<g id="New">
</g>
<g id="Attach">
</g>
<g id="Delete">
</g>
<g id="Save">
</g>
<g id="Edit">
</g>
<g id="Print">
</g>
<g id="Guides" display="none" opacity="0.2">
	<rect x="0" display="inline" fill="#0089D9" width="16" height="16"/>
	<rect x="21" display="inline" fill="#0089D9" width="16" height="16"/>
	<rect x="42" display="inline" fill="#0089D9" width="16" height="16"/>
</g>
</svg>
