<?xml version="1.0" encoding="utf-8"?>
<!-- Generator: Adobe Illustrator 19.1.0, SVG Export Plug-In . SVG Version: 6.00 Build 0)  -->
<!DOCTYPE svg PUBLIC "-//W3C//DTD SVG 1.1//EN" "http://www.w3.org/Graphics/SVG/1.1/DTD/svg11.dtd">
<svg version="1.1" xmlns="http://www.w3.org/2000/svg" xmlns:xlink="http://www.w3.org/1999/xlink" x="0px" y="0px" width="58px"
	 height="16px" viewBox="0 0 58 16" enable-background="new 0 0 58 16" xml:space="preserve">
<g id="Changelog">
</g>
<g id="Export">
</g>
<g id="PDF">
</g>
<g id="Office_Excel">
</g>
<g id="PowerPoint">
</g>
<g id="Office_Word">
</g>
<g id="Filter">
</g>
<g id="Dislike">
</g>
<g id="Like">
</g>
<g id="Favourite">
</g>
<g id="Preview">
</g>
<g id="Download">
</g>
<g id="Upload">
</g>
<g id="Open">
</g>
<g id="Web">
</g>
<g id="Unlock">
</g>
<g id="Lock">
</g>
<g id="Phone">
</g>
<g id="Email">
</g>
<g id="Graph">
</g>
<g id="Note">
</g>
<g id="Search">
</g>
<g id="Alarm">
</g>
<g id="Time">
</g>
<g id="Users">
</g>
<g id="User">
</g>
<g id="Refresh">
</g>
<g id="Home">
</g>
<g id="Report">
</g>
<g id="Paste">
</g>
<g id="Copy">
</g>
<g id="Cut">
</g>
<g id="Flag">
</g>
<g id="Redo">
</g>
<g id="Undo">
</g>
<g id="Zoom_Out">
</g>
<g id="Zoom_In">
</g>
<g id="Add_Comment">
</g>
<g id="Unread_Comment">
	<g>
		<g>
			<path fill-rule="evenodd" clip-rule="evenodd" fill="#0089D9" d="M16,3.9V5h-1v3c0,1.7-1.3,3-3,3H9c-1.3,0-2.4,0.7-3,2
				c0-1.3-0.8-2-2-2c-1.7,0-3-1.3-3-3V4c0-1.7,1.3-3,3-3h7V0h1c0,0,0,0,0,0H4C1.8,0,0,1.8,0,4v4c0,2.2,1.8,4,4,4c0.7,0,1,2.7,1,4
				c0.7,0,0.3,0,1,0c0-2,2.4-4,3.3-4c2.4,0,2.7,0,2.7,0c2.2,0,4-1.8,4-4L16,3.9C16,4,16,4,16,3.9z M12,7V6c0,0,0,0,0,0s0,0,0,0V5h-2
				v0.9c0,0,0,0.1,0,0.1s0,0.1,0,0.1V7H12z M6,7V6c0,0,0,0,0,0s0,0,0,0V5H4v0.9C4,5.9,4,6,4,6s0,0.1,0,0.1V7H6z M9,7V6c0,0,0,0,0,0
				s0,0,0,0V5H7v0.9C7,5.9,7,6,7,6s0,0.1,0,0.1V7H9z"/>
		</g>
	</g>
	<path fill-rule="evenodd" clip-rule="evenodd" fill="#D6565A" d="M14,0c1.1,0,2,0.9,2,2c0,1.1-0.9,2-2,2c-1.1,0-2-0.9-2-2
		C12,0.9,12.9,0,14,0z"/>
	<g>
		<g>
			<path fill-rule="evenodd" clip-rule="evenodd" fill="#C8C8C8" d="M37,3.9V5h-1v3c0,1.7-1.3,3-3,3h-3c-1.3,0-2.4,0.7-3,2
				c0-1.3-0.8-2-2-2c-1.7,0-3-1.3-3-3V4c0-1.7,1.3-3,3-3h7V0h1c0,0,0,0,0,0h-8c-2.2,0-4,1.8-4,4v4c0,2.2,1.8,4,4,4c0.7,0,1,2.7,1,4
				c0.7,0,0.3,0,1,0c0-2,2.4-4,3.3-4c2.4,0,2.7,0,2.7,0c2.2,0,4-1.8,4-4L37,3.9C37,4,37,4,37,3.9z M33,7V6c0,0,0,0,0,0s0,0,0,0V5h-1
				h-1v0.9c0,0,0,0.1,0,0.1c0,0,0,0.1,0,0.1V7H33z M30,7V6c0,0,0,0,0,0s0,0,0,0V5h-2v0.9c0,0,0,0.1,0,0.1s0,0.1,0,0.1V7H30z M27,7V6
				c0,0,0,0,0,0s0,0,0,0V5h-2v0.9c0,0,0,0.1,0,0.1s0,0.1,0,0.1V7H27z"/>
		</g>
	</g>
	<path fill-rule="evenodd" clip-rule="evenodd" fill="#C8C8C8" d="M35,0c1.1,0,2,0.9,2,2c0,1.1-0.9,2-2,2c-1.1,0-2-0.9-2-2
		C33,0.9,33.9,0,35,0z"/>
	<g>
		<g>
			<path fill-rule="evenodd" clip-rule="evenodd" fill="#39A6E6" d="M58,3.9V5h-1v3c0,1.7-1.3,3-3,3h-3c-1.3,0-2.4,0.7-3,2
				c0-1.3-0.8-2-2-2c-1.7,0-3-1.3-3-3V4c0-1.7,1.3-3,3-3h7V0h1c0,0,0,0,0,0h-8c-2.2,0-4,1.8-4,4v4c0,2.2,1.8,4,4,4c0.7,0,1,2.7,1,4
				c0.7,0,0.3,0,1,0c0-2,2.4-4,3.3-4c2.4,0,2.7,0,2.7,0c2.2,0,4-1.8,4-4L58,3.9C58,4,58,4,58,3.9z M54,7V6c0,0,0,0,0,0s0,0,0,0V5h-2
				v0.9c0,0,0,0.1,0,0.1c0,0,0,0.1,0,0.1V7H54z M48,7V6c0,0,0,0,0,0s0,0,0,0V5h-2v0.9c0,0,0,0.1,0,0.1s0,0.1,0,0.1V7H48z M51,7V6
				c0,0,0,0,0,0s0,0,0,0V5h-2v0.9c0,0,0,0.1,0,0.1s0,0.1,0,0.1V7H51z"/>
		</g>
	</g>
	<path fill-rule="evenodd" clip-rule="evenodd" fill="#E57377" d="M56,0c1.1,0,2,0.9,2,2c0,1.1-0.9,2-2,2c-1.1,0-2-0.9-2-2
		C54,0.9,54.9,0,56,0z"/>
</g>
<g id="Comment">
</g>
<g id="New">
</g>
<g id="Attach">
</g>
<g id="Delete">
</g>
<g id="Save">
</g>
<g id="Edit">
</g>
<g id="Print">
</g>
<g id="Guides" display="none" opacity="0.2">
	<rect x="0" display="inline" fill="#0089D9" width="16" height="16"/>
	<rect x="21" display="inline" fill="#0089D9" width="16" height="16"/>
	<rect x="42" display="inline" fill="#0089D9" width="16" height="16"/>
</g>
</svg>
