<?xml version="1.0" encoding="utf-8"?>
<!-- Generator: Adobe Illustrator 19.1.0, SVG Export Plug-In . SVG Version: 6.00 Build 0)  -->
<!DOCTYPE svg PUBLIC "-//W3C//DTD SVG 1.1//EN" "http://www.w3.org/Graphics/SVG/1.1/DTD/svg11.dtd">
<svg version="1.1" xmlns="http://www.w3.org/2000/svg" xmlns:xlink="http://www.w3.org/1999/xlink" x="0px" y="0px" width="58px"
	 height="16px" viewBox="0 0 58 16" enable-background="new 0 0 58 16" xml:space="preserve">
<g id="Changelog">
</g>
<g id="Export">
</g>
<g id="PDF">
</g>
<g id="Office_Excel">
</g>
<g id="PowerPoint">
</g>
<g id="Office_Word">
</g>
<g id="Filter">
</g>
<g id="Dislike">
</g>
<g id="Like">
</g>
<g id="Favourite">
</g>
<g id="Preview">
</g>
<g id="Download">
</g>
<g id="Upload">
</g>
<g id="Open">
</g>
<g id="Web">
</g>
<g id="Unlock">
</g>
<g id="Lock">
</g>
<g id="Phone">
</g>
<g id="Email">
</g>
<g id="Graph">
</g>
<g id="Note">
</g>
<g id="Search">
</g>
<g id="Alarm">
</g>
<g id="Time">
</g>
<g id="Users">
	<g>
		<g>
			<path fill-rule="evenodd" clip-rule="evenodd" fill="#0089D9" d="M16,9.7c-0.6-0.4-1.5-1-2-1.3c-0.1-0.1-0.5-0.1-0.6-0.1
				c0-0.1,0.1-0.4,0.1-0.5C13.9,7.6,14,7,14.1,6.6c0.5-0.1,0.9-1,0.9-1.5c0-0.3-0.3-0.6-0.5-0.7c0.2-0.5,0.4-0.5,0.4-1.3
				c0-0.5-0.3-1.3-1.2-1.2c-0.3-0.6-1-1-1.8-1c-1.2,0-2.6,0.7-2.6,2.2c0,0.6,0.2,0.8,0.4,1.2C9.3,4.5,9.1,4.8,9.1,5.1
				c0,0.5,0.3,1.4,0.8,1.5c0,0.5,0.1,0.9,0.6,1.1c0,0.1,0.1,0.3,0,0.5c-0.1,0-0.5,0.2-0.7,0.3C9.6,8.8,8.7,9.2,8,9.7
				C8,9.8,8,9.9,8,10c0,0.1,0,0.3,0,0.4c0.1,1.8,8.1,1.8,8,0c0-0.1,0-0.3,0-0.4C16,9.9,16,9.8,16,9.7z M9.1,10.2
				c0.6-0.4,1.3-0.8,1.7-1.1c0,0,0.5-0.2,0.5-0.6c0.1-0.4,0.1-1-0.1-1.3c-0.3-0.5-0.5-0.3-0.6-1c0-0.3-0.3-0.7-0.6-0.8
				c0,0-0.1-0.1,0-0.2c0.3-0.1,0.5-0.7,0.4-1c-1-2.3,1.9-2.8,2.5-1.5c0.7-0.4,0.8,1.4,0.4,1.5c-0.3,0.5,0,1.1,0.3,1
				c0,0,0.1,0.1,0,0.2c-0.3,0.1-0.5,0.4-0.5,0.7c0,0.3-0.4,0.6-0.6,1c-0.1,0.3,0,1,0.1,1.3C12.8,8.8,13.5,9,13.5,9
				c0.5,0.3,1.1,0.8,1.6,1.1C13.7,11,10.7,11,9.1,10.2z M5.9,4.6C5,5.3,4.1,4.4,3.6,5.7c0.8-0.5,1.8-0.2,2.5,0C6,5.5,6,5,5.9,4.6z
				 M9.8,13.3c-0.7-0.5-1.8-1.6-2.4-2.1c-0.1-0.1-0.3-0.2-0.5-0.1c0-0.2-0.1-0.5,0-0.6C7.3,10.1,7.5,9.6,7.6,9
				c0.7-0.2,1.2-1.3,1.1-2c0-0.4-0.3-0.8-0.7-0.9c0.2-0.6,0.4-0.5,0.4-1.4C8.4,4,8,2.9,6.9,2.8C6.5,2.1,5.7,1.7,4.8,1.7
				c-1.5,0-3.1,1.1-3.1,3c0,0.8,0.1,0.9,0.4,1.4C1.7,6.2,1.3,6.6,1.3,7c0,0.7,0.5,1.8,1.1,2c0,0.6,0.2,1.1,0.6,1.5
				c0.1,0.1,0,0.4,0,0.6c-0.2,0-0.3,0-0.5,0.2c-0.5,0.4-1.6,1.5-2.5,2.1c-0.1,0.1-0.1,0.1,0,0.2C0.1,13.7,0,13.8,0,13.9
				c0,2.3,10,2.4,10,0c0-0.2,0-0.3-0.1-0.4C9.9,13.5,9.9,13.4,9.8,13.3z M1.5,13.7c0.9-0.6,2.1-1.4,2.6-1.9c0,0,0.6-0.8,0.1-1.8
				C4.1,9.8,3.6,9.5,3.6,8.8c0-0.4-0.5-0.9-0.8-0.9C2.6,7.8,2.5,7.3,2.6,7c0.6-0.2,0.7-0.7,0.5-1.1C1.8,2.7,5.7,1.8,6.4,3.9
				C7.3,3.5,7.8,5.2,6.9,6C6.6,6.6,7.4,7,7.4,7c0.1,0.3-0.1,0.9-0.3,1.1C6.7,8.2,6.4,8.5,6.4,8.9c0,0.9-0.2,0.9-0.4,1.2
				c-0.4,0.9,0.3,1.8,0.3,1.8c0.6,0.4,1.4,1.4,2.1,2C6.8,15.1,3,14.9,1.5,13.7z"/>
		</g>
	</g>
	<g>
		<g>
			<path fill-rule="evenodd" clip-rule="evenodd" fill="#C8C8C8" d="M37,9.7c-0.6-0.4-1.5-1-2-1.3c-0.1-0.1-0.5-0.1-0.6-0.1
				c0-0.1,0.1-0.4,0.1-0.5C34.9,7.6,35,7,35,6.6c0.5-0.1,0.9-1,0.9-1.5c0-0.3-0.3-0.6-0.5-0.7c0.2-0.5,0.4-0.5,0.4-1.3
				c0-0.5-0.3-1.3-1.2-1.2c-0.3-0.6-1-1-1.8-1c-1.2,0-2.6,0.7-2.6,2.2c0,0.6,0.2,0.8,0.4,1.2c-0.3,0.1-0.5,0.4-0.5,0.7
				c0,0.5,0.3,1.4,0.8,1.5c0,0.5,0.1,0.9,0.6,1.1c0,0.1,0.1,0.3,0,0.5c-0.1,0-0.5,0.2-0.7,0.3c-0.4,0.3-1.2,0.8-1.9,1.2
				c-0.1,0.1,0,0.2,0,0.3c0,0.1,0,0.3,0,0.4c0.1,1.8,8.1,1.8,8,0c0-0.1,0-0.3,0-0.4C37,9.9,37,9.8,37,9.7z M30.1,10.2
				c0.6-0.4,1.3-0.8,1.7-1.1c0,0,0.5-0.2,0.5-0.6c0.1-0.4,0.1-1-0.1-1.3c-0.3-0.5-0.5-0.3-0.6-1c0-0.3-0.3-0.7-0.6-0.8
				c0,0-0.1-0.1,0-0.2c0.3-0.1,0.5-0.7,0.4-1c-1-2.3,1.9-2.8,2.5-1.5c0.7-0.4,0.8,1.4,0.4,1.5c-0.3,0.5,0,1.1,0.3,1
				c0,0,0.1,0.1,0,0.2c-0.3,0.1-0.5,0.4-0.5,0.7c0,0.3-0.4,0.6-0.6,1c-0.1,0.3,0,1,0.1,1.3C33.8,8.8,34.4,9,34.4,9
				c0.5,0.3,1.1,0.8,1.6,1.1C34.7,11,31.6,11,30.1,10.2z M26.9,4.6c-0.9,0.7-1.8-0.2-2.3,1.1c0.8-0.5,1.8-0.2,2.5,0
				C27,5.5,26.9,5,26.9,4.6z M30.7,13.3c-0.7-0.5-1.8-1.6-2.4-2.1c-0.1-0.1-0.3-0.2-0.5-0.1c0-0.2-0.1-0.5,0-0.6
				c0.4-0.4,0.6-0.9,0.7-1.5c0.7-0.2,1.2-1.3,1.1-2c0-0.4-0.3-0.8-0.7-0.9c0.2-0.6,0.4-0.5,0.4-1.4c0-0.7-0.4-1.8-1.5-1.9
				c-0.4-0.7-1.2-1.1-2.1-1.1c-1.5,0-3.1,1.1-3.1,3c0,0.8,0.1,0.9,0.4,1.4c-0.3,0.1-0.7,0.5-0.7,0.9c0,0.7,0.5,1.8,1.1,2
				c0,0.6,0.2,1.1,0.6,1.5c0.1,0.1,0,0.4,0,0.6c-0.2,0-0.3,0-0.5,0.2c-0.5,0.4-1.6,1.5-2.5,2.1c-0.1,0.1-0.1,0.1,0,0.2
				c-0.1,0.1-0.1,0.2-0.1,0.4c0,2.3,10,2.4,10,0c0-0.2,0-0.3-0.1-0.4C30.8,13.5,30.8,13.4,30.7,13.3z M22.4,13.7
				c0.9-0.6,2.1-1.4,2.6-1.9c0,0,0.6-0.8,0.1-1.8c-0.1-0.3-0.6-0.6-0.6-1.2c0-0.4-0.5-0.9-0.8-0.9c-0.2-0.1-0.3-0.6-0.2-0.9
				c0.6-0.2,0.7-0.7,0.5-1.1c-1.3-3.3,2.5-4.1,3.3-2.1c0.9-0.4,1.4,1.3,0.5,2.1c-0.3,0.7,0.5,1,0.5,1c0.1,0.3-0.1,0.9-0.3,1.1
				c-0.4,0.1-0.7,0.4-0.7,0.8c0,0.9-0.2,0.9-0.4,1.2c-0.4,0.9,0.3,1.8,0.3,1.8c0.6,0.4,1.4,1.4,2.1,2C27.7,15.1,23.9,14.9,22.4,13.7
				z"/>
		</g>
	</g>
	<g>
		<g>
			<path fill-rule="evenodd" clip-rule="evenodd" fill="#39A6E6" d="M58,9.7c-0.6-0.4-1.5-1-2-1.3c-0.1-0.1-0.5-0.1-0.6-0.1
				c0-0.1,0.1-0.4,0.1-0.5C55.9,7.6,56,7,56,6.6c0.5-0.1,0.9-1,0.9-1.5c0-0.3-0.3-0.6-0.5-0.7c0.2-0.5,0.4-0.5,0.4-1.3
				c0-0.5-0.3-1.3-1.2-1.2c-0.3-0.6-1-1-1.8-1c-1.2,0-2.6,0.7-2.6,2.2c0,0.6,0.2,0.8,0.4,1.2c-0.3,0.1-0.5,0.4-0.5,0.7
				c0,0.5,0.3,1.4,0.8,1.5c0,0.5,0.1,0.9,0.6,1.1c0,0.1,0.1,0.3,0,0.5c-0.1,0-0.5,0.2-0.7,0.3c-0.4,0.3-1.2,0.8-1.9,1.2
				c-0.1,0.1,0,0.2,0,0.3c0,0.1,0,0.3,0,0.4c0.1,1.8,8.1,1.8,8,0c0-0.1,0-0.3,0-0.4C58,9.9,58,9.8,58,9.7z M51.1,10.2
				c0.6-0.4,1.3-0.8,1.7-1.1c0,0,0.5-0.2,0.5-0.6c0.1-0.4,0.1-1-0.1-1.3c-0.3-0.5-0.5-0.3-0.6-1c0-0.3-0.3-0.7-0.6-0.8
				c0,0-0.1-0.1,0-0.2c0.3-0.1,0.5-0.7,0.4-1c-1-2.3,1.9-2.8,2.5-1.5c0.7-0.4,0.8,1.4,0.4,1.5c-0.3,0.5,0,1.1,0.3,1
				c0,0,0.1,0.1,0,0.2c-0.3,0.1-0.5,0.4-0.5,0.7c0,0.3-0.4,0.6-0.6,1c-0.1,0.3,0,1,0.1,1.3C54.8,8.8,55.4,9,55.4,9
				c0.5,0.3,1.1,0.8,1.6,1.1C55.7,11,52.6,11,51.1,10.2z M47.9,4.6c-0.9,0.7-1.8-0.2-2.3,1.1c0.8-0.5,1.8-0.2,2.5,0
				C48,5.5,48,5,47.9,4.6z M51.7,13.3c-0.7-0.5-1.8-1.6-2.4-2.1c-0.1-0.1-0.3-0.2-0.5-0.1c0-0.2-0.1-0.5,0-0.6
				c0.4-0.4,0.6-0.9,0.7-1.5c0.7-0.2,1.2-1.3,1.1-2c0-0.4-0.3-0.8-0.7-0.9c0.2-0.6,0.4-0.5,0.4-1.4c0-0.7-0.4-1.8-1.5-1.9
				c-0.4-0.7-1.2-1.1-2.1-1.1c-1.5,0-3.1,1.1-3.1,3c0,0.8,0.1,0.9,0.4,1.4c-0.3,0.1-0.7,0.5-0.7,0.9c0,0.7,0.5,1.8,1.1,2
				c0,0.6,0.2,1.1,0.6,1.5c0.1,0.1,0,0.4,0,0.6c-0.2,0-0.3,0-0.5,0.2c-0.5,0.4-1.6,1.5-2.5,2.1c-0.1,0.1-0.1,0.1,0,0.2
				C42,13.7,42,13.8,42,13.9c0,2.3,10,2.4,10,0c0-0.2,0-0.3-0.1-0.4C51.9,13.5,51.8,13.4,51.7,13.3z M43.4,13.7
				c0.9-0.6,2.1-1.4,2.6-1.9c0,0,0.6-0.8,0.1-1.8c-0.1-0.3-0.6-0.6-0.6-1.2c0-0.4-0.5-0.9-0.8-0.9c-0.2-0.1-0.3-0.6-0.2-0.9
				c0.6-0.2,0.7-0.7,0.5-1.1c-1.3-3.3,2.5-4.1,3.3-2.1c0.9-0.4,1.4,1.3,0.5,2.1c-0.3,0.7,0.5,1,0.5,1c0.1,0.3-0.1,0.9-0.3,1.1
				c-0.4,0.1-0.7,0.4-0.7,0.8c0,0.9-0.2,0.9-0.4,1.2c-0.4,0.9,0.3,1.8,0.3,1.8c0.6,0.4,1.4,1.4,2.1,2C48.8,15.1,44.9,14.9,43.4,13.7
				z"/>
		</g>
	</g>
</g>
<g id="User">
</g>
<g id="Refresh">
</g>
<g id="Home">
</g>
<g id="Report">
</g>
<g id="Paste">
</g>
<g id="Copy">
</g>
<g id="Cut">
</g>
<g id="Flag">
</g>
<g id="Redo">
</g>
<g id="Undo">
</g>
<g id="Zoom_Out">
</g>
<g id="Zoom_In">
</g>
<g id="Add_Comment">
</g>
<g id="Unread_Comment">
</g>
<g id="Comment">
</g>
<g id="New">
</g>
<g id="Attach">
</g>
<g id="Delete">
</g>
<g id="Save">
</g>
<g id="Edit">
</g>
<g id="Print">
</g>
<g id="Guides" display="none" opacity="0.2">
	<rect x="0" display="inline" fill="#0089D9" width="16" height="16"/>
	<rect x="21" display="inline" fill="#0089D9" width="16" height="16"/>
	<rect x="42" display="inline" fill="#0089D9" width="16" height="16"/>
</g>
</svg>
