<?xml version="1.0" encoding="utf-8"?>
<!-- Generator: Adobe Illustrator 19.1.0, SVG Export Plug-In . SVG Version: 6.00 Build 0)  -->
<!DOCTYPE svg PUBLIC "-//W3C//DTD SVG 1.1//EN" "http://www.w3.org/Graphics/SVG/1.1/DTD/svg11.dtd">
<svg version="1.1" xmlns="http://www.w3.org/2000/svg" xmlns:xlink="http://www.w3.org/1999/xlink" x="0px" y="0px" width="58px"
	 height="16px" viewBox="0 0 58 16" enable-background="new 0 0 58 16" xml:space="preserve">
<g id="Changelog">
</g>
<g id="Export">
</g>
<g id="PDF">
</g>
<g id="Office_Excel">
</g>
<g id="PowerPoint">
</g>
<g id="Office_Word">
</g>
<g id="Filter">
</g>
<g id="Dislike">
</g>
<g id="Like">
</g>
<g id="Favourite">
</g>
<g id="Preview">
</g>
<g id="Download">
</g>
<g id="Upload">
</g>
<g id="Open">
</g>
<g id="Web">
	<g>
		<g>
			<path fill="#0089D9" d="M3.3,3c-2.3,1.4-2.9,5-2,6.9c0.1,0.2,2.3,2.4,2.5,1.8c0.1-0.3-0.6-1.8-0.7-2C2.9,9.1,3.6,9.1,3.6,8.3
				C3.6,8.2,3,7.7,3,7.7C2.8,7.5,2,7.4,2.2,7.3c0.1-0.1,1-0.2,1-0.3c0.3-0.2,0.3-0.6,0.5-0.7C4.1,6.1,4.4,5.4,4.4,5
				c0-0.5,0.1-0.6,0.4-1.1C5,3.7,3.8,2.8,3.3,3z M8,0C3.6,0,0,3.6,0,8c0,4.4,3.6,8,8,8c4.4,0,8-3.6,8-8C16,3.6,12.4,0,8,0z M8,15
				c-3.9,0-7-3.1-7-7c0-3.5,2.7-6.5,6.1-6.9C7,1.1,7,1.1,7,1.2c0,0.2-0.2,0.9,0.1,1c0.4,0.1,0.1,0.3,0.3,0.5
				c0.1,0.1,0.1-0.6,0.4-0.3c0.1,0,0.3-0.4,0.4,0c0,0,0,0,0,0c0,0.2-0.8,0.6-0.9,1c-0.1,0.5,0,0.2-0.4,0.4C6.8,3.9,6.6,4.4,6.7,4.5
				c0,0-0.3,0.1-0.2,0.3C6.5,5.2,6.8,5.6,7,5.6c0.3-0.1,0.2-0.7,0.5-0.7c0,0,0.5,0.4,0.5,0.4c0.1,0-0.2-0.4,0-0.5
				C8.3,4.7,8.8,5,8.9,5.1c0.2,0.1,0.2,0.5-0.6,0.7C8,5.6,7.4,5.7,7.2,5.9C6.8,6.2,6.8,7,6.9,7.5c0,0.4,0.5,0.5,0.8,0.6
				c0.2,0.1,0.4,0,0.6,0C8.5,8.3,9,8.2,9,9.5c0,0.5,0.5,0.7,0.5,1.2c0,0.6,1,0.2,1.2-0.1c0.4-0.6,0.2-1.2,0.2-1.8
				c0-0.3,0.3-0.3,0.2-0.8c-0.1-0.6-0.1-1,0.1-1.6c0.1-0.3-0.4-0.4-0.6-0.3c-0.6,0.4-0.4,0.2-1,0C9.6,6,9.4,6,9.3,5.9
				c0.3,0.1,0.8,0.2,0.8,0.2C10.3,6,10.8,6,10.9,5.8C9.7,5,10.1,4.8,10.1,4.8c0.1,0,0.1,0.5,0.6,0.3c0.7-0.4,0.8-0.3,1,0.4
				c0.1,0.4,0.6,0.3,0.9,0.5c0.2,0.1,0.6,0.5,0.7,0.5c0.2,0-0.1-0.7,0-1c0.1-0.1,0.1-0.5,0.1-0.8c0.1-0.3,0.2-0.5,0.3-0.7
				c0,0,0-0.1,0.1-0.1C14.5,5.1,15,6.5,15,8C15,11.8,11.8,15,8,15z M11.5,12c-0.3-0.4-1.2,0.1-1.5,0.3c-0.2,0.2-1.1,0.2-1.1,0.5
				c0,0.7-0.8,0.4-0.5,1.1c0,0.1,0,0.1,0,0.1c0.3,0,0.6,0.1,0.9,0.1c0.5,0,1.2-0.4,1.5-0.6c0.3-0.3,1.6-0.9,1.5-1.3
				C12.4,11.5,11.8,12.3,11.5,12z"/>
		</g>
	</g>
	<g>
		<g>
			<path fill="#C8C8C8" d="M24.3,3c-2.3,1.4-2.9,5-2,6.9c0.1,0.2,2.3,2.4,2.5,1.8c0.1-0.3-0.6-1.8-0.7-2c-0.3-0.6,0.4-0.6,0.4-1.4
				c0-0.1-0.6-0.6-0.6-0.6c-0.2-0.1-1-0.2-0.8-0.4c0.1-0.1,1-0.2,1-0.3c0.3-0.2,0.3-0.6,0.5-0.7c0.4-0.1,0.7-0.9,0.7-1.2
				c0-0.5,0.1-0.6,0.4-1.1C26,3.7,24.8,2.8,24.3,3z M29,0c-4.4,0-8,3.6-8,8c0,4.4,3.6,8,8,8c4.4,0,8-3.6,8-8C37,3.6,33.4,0,29,0z
				 M29,15c-3.9,0-7-3.1-7-7c0-3.5,2.7-6.5,6.1-6.9c0,0-0.1,0.1-0.1,0.1c0,0.2-0.2,0.9,0.1,1c0.4,0.1,0.1,0.3,0.3,0.5
				c0.1,0.1,0.1-0.6,0.4-0.3c0.1,0,0.3-0.4,0.4,0c0,0,0,0,0,0c0,0.2-0.8,0.6-0.9,1c-0.1,0.5,0,0.2-0.4,0.4c-0.1,0.1-0.2,0.5-0.2,0.7
				c0,0-0.3,0.1-0.2,0.3c0.1,0.4,0.4,0.8,0.5,0.7c0.3-0.1,0.2-0.7,0.5-0.7c0,0,0.5,0.4,0.5,0.4c0.1,0-0.2-0.4,0-0.5
				c0.2-0.1,0.8,0.2,0.9,0.3c0.2,0.1,0.2,0.5-0.6,0.7c-0.3-0.1-0.8-0.1-1.1,0.2c-0.4,0.3-0.3,1.1-0.3,1.5c0,0.4,0.5,0.5,0.8,0.6
				c0.2,0.1,0.4,0,0.6,0C29.5,8.3,30,8.2,30,9.5c0,0.5,0.5,0.7,0.5,1.2c0,0.6,1,0.2,1.2-0.1c0.4-0.6,0.2-1.2,0.2-1.8
				c0-0.3,0.3-0.3,0.2-0.8c-0.1-0.6-0.1-1,0.1-1.6c0.1-0.3-0.4-0.4-0.6-0.3c-0.6,0.4-0.4,0.2-1,0C30.6,6,30.4,6,30.3,5.9
				c0.3,0.1,0.8,0.2,0.8,0.2C31.3,6,31.8,6,31.9,5.8c-1.2-0.8-0.8-0.9-0.8-0.9c0.1,0,0.1,0.5,0.6,0.3c0.7-0.4,0.8-0.3,1,0.4
				c0.1,0.4,0.6,0.3,0.9,0.5c0.2,0.1,0.6,0.5,0.7,0.5c0.2,0-0.1-0.7,0-1c0.1-0.1,0.1-0.5,0.1-0.8c0.1-0.3,0.2-0.5,0.3-0.7
				c0,0,0-0.1,0.1-0.1C35.5,5.1,36,6.5,36,8C36,11.8,32.8,15,29,15z M32.5,12c-0.3-0.4-1.2,0.1-1.5,0.3c-0.2,0.2-1.1,0.2-1.1,0.5
				c0,0.7-0.8,0.4-0.5,1.1c0,0.1,0,0.1,0,0.1c0.3,0,0.6,0.1,0.9,0.1c0.5,0,1.2-0.4,1.5-0.6c0.3-0.3,1.6-0.9,1.5-1.3
				C33.4,11.5,32.8,12.3,32.5,12z"/>
		</g>
	</g>
	<g>
		<g>
			<path fill="#39A6E6" d="M50,0c-4.4,0-8,3.6-8,8c0,4.4,3.6,8,8,8c4.4,0,8-3.6,8-8C58,3.6,54.4,0,50,0z M50,15c-3.9,0-7-3.1-7-7
				c0-3.5,2.7-6.5,6.1-6.9c0,0-0.1,0.1-0.1,0.1c0,0.2-0.2,0.9,0.1,1c0.4,0.1,0.1,0.3,0.3,0.5c0.1,0.1,0.1-0.6,0.4-0.3
				c0.1,0,0.3-0.4,0.4,0c0,0,0,0,0,0c0,0.2-0.8,0.6-0.9,1c-0.1,0.5,0,0.2-0.4,0.4c-0.1,0.1-0.2,0.5-0.2,0.7c0,0-0.3,0.1-0.2,0.3
				c0.1,0.4,0.4,0.8,0.5,0.7c0.3-0.1,0.2-0.7,0.5-0.7c0,0,0.5,0.4,0.5,0.4c0.1,0-0.2-0.4,0-0.5c0.2-0.1,0.8,0.2,0.9,0.3
				c0.2,0.1,0.2,0.5-0.6,0.7c-0.3-0.1-0.8-0.1-1.1,0.2c-0.4,0.3-0.3,1.1-0.3,1.5c0,0.4,0.5,0.5,0.8,0.6c0.2,0.1,0.4,0,0.6,0
				C50.5,8.3,51,8.2,51,9.5c0,0.5,0.5,0.7,0.5,1.2c0,0.6,1,0.2,1.2-0.1c0.4-0.6,0.2-1.2,0.2-1.8c0-0.3,0.3-0.3,0.2-0.8
				c-0.1-0.6-0.1-1,0.1-1.6c0.1-0.3-0.4-0.4-0.6-0.3c-0.6,0.4-0.4,0.2-1,0C51.6,6,51.4,6,51.3,5.9c0.3,0.1,0.8,0.2,0.8,0.2
				C52.3,6,52.8,6,52.9,5.8c-1.2-0.8-0.8-0.9-0.8-0.9c0.1,0,0.1,0.5,0.6,0.3c0.7-0.4,0.8-0.3,1,0.4c0.1,0.4,0.6,0.3,0.9,0.5
				c0.2,0.1,0.6,0.5,0.7,0.5c0.2,0-0.1-0.7,0-1c0.1-0.1,0.1-0.5,0.1-0.8c0.1-0.3,0.2-0.5,0.3-0.7c0,0,0-0.1,0.1-0.1
				C56.5,5.1,57,6.5,57,8C57,11.8,53.8,15,50,15z M45.3,3c-2.3,1.4-2.9,5-2,6.9c0.1,0.2,2.3,2.4,2.5,1.8c0.1-0.3-0.6-1.8-0.7-2
				c-0.3-0.6,0.4-0.6,0.4-1.4c0-0.1-0.6-0.6-0.6-0.6c-0.2-0.1-1-0.2-0.8-0.4c0.1-0.1,1-0.2,1-0.3c0.3-0.2,0.3-0.6,0.5-0.7
				c0.4-0.1,0.7-0.9,0.7-1.2c0-0.5,0.1-0.6,0.4-1.1C47,3.7,45.8,2.8,45.3,3z M53.5,12c-0.3-0.4-1.2,0.1-1.5,0.3
				c-0.2,0.2-1.1,0.2-1.1,0.5c0,0.7-0.8,0.4-0.5,1.1c0,0.1,0,0.1,0,0.1c0.3,0,0.6,0.1,0.9,0.1c0.5,0,1.2-0.4,1.5-0.6
				c0.3-0.3,1.6-0.9,1.5-1.3C54.4,11.5,53.8,12.3,53.5,12z"/>
		</g>
	</g>
</g>
<g id="Unlock">
</g>
<g id="Lock">
</g>
<g id="Phone">
</g>
<g id="Email">
</g>
<g id="Graph">
</g>
<g id="Note">
</g>
<g id="Search">
</g>
<g id="Alarm">
</g>
<g id="Time">
</g>
<g id="Users">
</g>
<g id="User">
</g>
<g id="Refresh">
</g>
<g id="Home">
</g>
<g id="Report">
</g>
<g id="Paste">
</g>
<g id="Copy">
</g>
<g id="Cut">
</g>
<g id="Flag">
</g>
<g id="Redo">
</g>
<g id="Undo">
</g>
<g id="Zoom_Out">
</g>
<g id="Zoom_In">
</g>
<g id="Add_Comment">
</g>
<g id="Unread_Comment">
</g>
<g id="Comment">
</g>
<g id="New">
</g>
<g id="Attach">
</g>
<g id="Delete">
</g>
<g id="Save">
</g>
<g id="Edit">
</g>
<g id="Print">
</g>
<g id="Guides" display="none" opacity="0.2">
	<rect x="0" display="inline" fill="#0089D9" width="16" height="16"/>
	<rect x="21" display="inline" fill="#0089D9" width="16" height="16"/>
	<rect x="42" display="inline" fill="#0089D9" width="16" height="16"/>
</g>
</svg>
