<?xml version="1.0" encoding="utf-8"?>
<!-- Generator: Adobe Illustrator 19.1.0, SVG Export Plug-In . SVG Version: 6.00 Build 0)  -->
<!DOCTYPE svg PUBLIC "-//W3C//DTD SVG 1.1//EN" "http://www.w3.org/Graphics/SVG/1.1/DTD/svg11.dtd">
<svg version="1.1" xmlns="http://www.w3.org/2000/svg" xmlns:xlink="http://www.w3.org/1999/xlink" x="0px" y="0px" width="58px"
	 height="16px" viewBox="0 0 58 16" enable-background="new 0 0 58 16" xml:space="preserve">
<g id="Changelog">
</g>
<g id="Export">
</g>
<g id="PDF">
</g>
<g id="Office_Excel">
</g>
<g id="PowerPoint">
</g>
<g id="Office_Word">
</g>
<g id="Filter">
</g>
<g id="Dislike">
</g>
<g id="Like">
</g>
<g id="Favourite">
</g>
<g id="Preview">
</g>
<g id="Download">
</g>
<g id="Upload">
</g>
<g id="Open">
</g>
<g id="Web">
</g>
<g id="Unlock">
</g>
<g id="Lock">
</g>
<g id="Phone">
</g>
<g id="Email">
</g>
<g id="Graph">
</g>
<g id="Note">
</g>
<g id="Search">
</g>
<g id="Alarm">
</g>
<g id="Time">
</g>
<g id="Users">
</g>
<g id="User">
</g>
<g id="Refresh">
</g>
<g id="Home">
</g>
<g id="Report">
</g>
<g id="Paste">
</g>
<g id="Copy">
</g>
<g id="Cut">
</g>
<g id="Flag">
</g>
<g id="Redo">
</g>
<g id="Undo">
</g>
<g id="Zoom_Out">
	<g>
		<g>
			<path fill-rule="evenodd" clip-rule="evenodd" fill="#0089D9" d="M15.8,14.8l-2.5-2.5C14.4,11,15,9.3,15,7.5C15,3.4,11.6,0,7.5,0
				C3.4,0,0,3.4,0,7.5C0,11.6,3.4,15,7.5,15c1.8,0,3.5-0.7,4.8-1.7l2.6,2.6c0.3,0.3,0.7,0.2,1-0.1C16.1,15.5,16.1,15,15.8,14.8z
				 M12.2,12c-0.1,0.1-0.1,0.1-0.2,0.2C10.8,13.3,9.2,14,7.5,14C3.9,14,1,11.1,1,7.5C1,3.9,3.9,1,7.5,1C11.1,1,14,3.9,14,7.5
				C14,9.2,13.3,10.8,12.2,12z M9.5,7h-4C5.2,7,5,7.2,5,7.5C5,7.8,5.2,8,5.5,8h4C9.8,8,10,7.8,10,7.5C10,7.2,9.8,7,9.5,7z"/>
		</g>
	</g>
	<g>
		<g>
			<path fill-rule="evenodd" clip-rule="evenodd" fill="#C8C8C8" d="M36.8,14.8l-2.5-2.5C35.3,11,36,9.3,36,7.5
				C36,3.4,32.6,0,28.5,0C24.3,0,21,3.4,21,7.5c0,4.1,3.4,7.5,7.5,7.5c1.8,0,3.5-0.7,4.8-1.7l2.6,2.6c0.3,0.3,0.7,0.2,1-0.1
				C37.1,15.5,37.1,15,36.8,14.8z M33.2,12C33.1,12,33,12.1,33,12.2c-1.2,1.1-2.8,1.8-4.5,1.8c-3.6,0-6.5-2.9-6.5-6.5
				c0-3.6,2.9-6.5,6.5-6.5C32.1,1,35,3.9,35,7.5C35,9.2,34.3,10.8,33.2,12z M30.5,7h-4C26.2,7,26,7.2,26,7.5C26,7.8,26.2,8,26.5,8h4
				C30.8,8,31,7.8,31,7.5C31,7.2,30.8,7,30.5,7z"/>
		</g>
	</g>
	<g>
		<g>
			<path fill-rule="evenodd" clip-rule="evenodd" fill="#39A6E6" d="M57.8,14.8l-2.5-2.5C56.3,11,57,9.3,57,7.5
				C57,3.4,53.6,0,49.5,0C45.3,0,42,3.4,42,7.5c0,4.1,3.4,7.5,7.5,7.5c1.8,0,3.5-0.7,4.8-1.7l2.6,2.6c0.3,0.3,0.7,0.2,1-0.1
				C58.1,15.5,58.1,15,57.8,14.8z M54.2,12C54.1,12,54,12.1,54,12.2c-1.2,1.1-2.8,1.8-4.5,1.8c-3.6,0-6.5-2.9-6.5-6.5
				c0-3.6,2.9-6.5,6.5-6.5C53.1,1,56,3.9,56,7.5C56,9.2,55.3,10.8,54.2,12z M51.5,7h-4C47.2,7,47,7.2,47,7.5C47,7.8,47.2,8,47.5,8h4
				C51.8,8,52,7.8,52,7.5C52,7.2,51.8,7,51.5,7z"/>
		</g>
	</g>
</g>
<g id="Zoom_In">
</g>
<g id="Add_Comment">
</g>
<g id="Unread_Comment">
</g>
<g id="Comment">
</g>
<g id="New">
</g>
<g id="Attach">
</g>
<g id="Delete">
</g>
<g id="Save">
</g>
<g id="Edit">
</g>
<g id="Print">
</g>
<g id="Guides" display="none" opacity="0.2">
	<rect x="0" display="inline" fill="#0089D9" width="16" height="16"/>
	<rect x="21" display="inline" fill="#0089D9" width="16" height="16"/>
	<rect x="42" display="inline" fill="#0089D9" width="16" height="16"/>
</g>
</svg>
