<?xml version="1.0" encoding="utf-8"?>
<!-- Generator: Adobe Illustrator 19.1.0, SVG Export Plug-In . SVG Version: 6.00 Build 0)  -->
<!DOCTYPE svg PUBLIC "-//W3C//DTD SVG 1.1//EN" "http://www.w3.org/Graphics/SVG/1.1/DTD/svg11.dtd">
<svg version="1.1" xmlns="http://www.w3.org/2000/svg" xmlns:xlink="http://www.w3.org/1999/xlink" x="0px" y="0px" width="82px"
	 height="24px" viewBox="0 0 82 24" enable-background="new 0 0 82 24" xml:space="preserve">
<g id="Layer_2">
</g>
<g id="Changelog">
</g>
<g id="Export">
</g>
<g id="PDF">
</g>
<g id="Office_Excel">
</g>
<g id="Office_PowerPoint">
</g>
<g id="Office_Word">
</g>
<g id="Filter">
</g>
<g id="Dislike">
</g>
<g id="Like">
</g>
<g id="Favourite">
</g>
<g id="Preview">
</g>
<g id="Download">
</g>
<g id="Upload">
</g>
<g id="Open">
</g>
<g id="Web">
</g>
<g id="Unlocked">
</g>
<g id="Locked">
</g>
<g id="Phone">
</g>
<g id="Email">
</g>
<g id="Graphs">
</g>
<g id="Note">
</g>
<g id="Search">
</g>
<g id="Alarm">
</g>
<g id="Time">
</g>
<g id="Users">
</g>
<g id="User">
</g>
<g id="Refresh">
</g>
<g id="Home">
</g>
<g id="Report">
</g>
<g id="Paste">
</g>
<g id="Copy">
</g>
<g id="Cut">
</g>
<g id="Flag">
</g>
<g id="Redo">
</g>
<g id="Undo">
</g>
<g id="Zoom_Out">
</g>
<g id="Zoom_In">
</g>
<g id="Add_comment">
</g>
<g id="Unread_comment">
</g>
<g id="Comment">
</g>
<g id="New">
</g>
<g id="Attach">
	<path fill-rule="evenodd" clip-rule="evenodd" fill="#39A6E6" d="M79.5,1.5c-2.4-2.4-4.3-1.8-6.7,0.6c-1.2,1.2-9.7,9.6-10.9,10.8
		c-3.6,3.6-3.6,6-0.6,8.9c3.1,3,5.5,3,9.2-0.6c2.4-2.4,9.7-9.6,9.7-9.6l-1.5-1.5c0,0-8.3,8.3-9.5,9.5c-3,2.8-4.1,3.1-6.4,0.6
		c-2.4-2.6-1.8-3.8,0.6-6.2c2.4-2.4,9.7-9.5,10.9-10.7c1.2-1.2,2.1-2,3.8-0.4c1.5,1.4,0.4,2.6-0.8,3.8c-1.2,1.2-8.6,8.4-9.4,9.3
		c-1.2,1.2-2.1,0.3-0.9-0.9c1.2-1.2,9.7-9.4,9.7-9.4L75,4.4c0,0-8.5,8.4-9.7,9.6c-1.2,1.2-1.7,3.1-0.4,4.3c1.2,1.2,3,0.6,4.3-0.6
		c1.2-1.2,8.5-8.4,9.7-9.6C81.3,5.7,81.9,3.9,79.5,1.5z"/>
	<path fill-rule="evenodd" clip-rule="evenodd" fill="#C8C8C8" d="M50.5,1.5c-2.4-2.4-4.3-1.8-6.7,0.6c-1.2,1.2-9.7,9.6-10.9,10.8
		c-3.6,3.6-3.6,6-0.6,8.9c3.1,3,5.5,3,9.2-0.6c2.4-2.4,9.7-9.6,9.7-9.6l-1.5-1.5c0,0-8.3,8.3-9.5,9.5c-3,2.8-4.1,3.1-6.4,0.6
		c-2.4-2.6-1.8-3.8,0.6-6.2c2.4-2.4,9.7-9.5,10.9-10.7c1.2-1.2,2.1-2,3.8-0.4c1.5,1.4,0.4,2.6-0.8,3.8c-1.2,1.2-8.6,8.4-9.4,9.3
		c-1.2,1.2-2.1,0.3-0.9-0.9c1.2-1.2,9.7-9.4,9.7-9.4L46,4.4c0,0-8.5,8.4-9.7,9.6c-1.2,1.2-1.7,3.1-0.4,4.3c1.2,1.2,3,0.6,4.3-0.6
		c1.2-1.2,8.5-8.4,9.7-9.6C52.3,5.7,52.9,3.9,50.5,1.5z"/>
	<path fill-rule="evenodd" clip-rule="evenodd" fill="#0089D9" d="M21.4,1.5c-2.4-2.4-4.3-1.8-6.7,0.6C13.5,3.3,5,11.7,3.8,12.9
		c-3.6,3.6-3.6,6-0.6,8.9c3.1,3,5.5,3,9.2-0.6c2.4-2.4,9.7-9.6,9.7-9.6l-1.5-1.5c0,0-8.3,8.3-9.5,9.5c-3,2.8-4.1,3.1-6.4,0.6
		c-2.4-2.6-1.8-3.8,0.6-6.2c2.4-2.4,9.7-9.5,10.9-10.7c1.2-1.2,2.1-2,3.8-0.4c1.5,1.4,0.4,2.6-0.8,3.8c-1.2,1.2-8.6,8.4-9.4,9.3
		c-1.2,1.2-2.1,0.3-0.9-0.9c1.2-1.2,9.7-9.4,9.7-9.4L17,4.4c0,0-8.5,8.4-9.7,9.6C6,15.1,5.6,17,6.8,18.2c1.2,1.2,3,0.6,4.3-0.6
		c1.2-1.2,8.5-8.4,9.7-9.6C23.2,5.7,23.9,3.9,21.4,1.5z"/>
</g>
<g id="Delete">
</g>
<g id="Save">
</g>
<g id="Edit">
</g>
<g id="Print">
</g>
<g id="Guides" display="none" opacity="0.2">
	<rect display="inline" fill-rule="evenodd" clip-rule="evenodd" fill="#0089D9" width="24" height="24"/>
	<rect x="29" display="inline" fill-rule="evenodd" clip-rule="evenodd" fill="#0089D9" width="24" height="24"/>
	<rect x="58" display="inline" fill-rule="evenodd" clip-rule="evenodd" fill="#0089D9" width="24" height="24"/>
</g>
</svg>
