<?xml version="1.0" encoding="utf-8"?>
<!-- Generator: Adobe Illustrator 19.1.0, SVG Export Plug-In . SVG Version: 6.00 Build 0)  -->
<!DOCTYPE svg PUBLIC "-//W3C//DTD SVG 1.1//EN" "http://www.w3.org/Graphics/SVG/1.1/DTD/svg11.dtd">
<svg version="1.1" xmlns="http://www.w3.org/2000/svg" xmlns:xlink="http://www.w3.org/1999/xlink" x="0px" y="0px" width="82px"
	 height="24px" viewBox="0 0 82 24" enable-background="new 0 0 82 24" xml:space="preserve">
<g id="Layer_2">
</g>
<g id="Changelog">
</g>
<g id="Export">
</g>
<g id="PDF">
</g>
<g id="Office_Excel">
</g>
<g id="Office_PowerPoint">
</g>
<g id="Office_Word">
</g>
<g id="Filter">
</g>
<g id="Dislike">
</g>
<g id="Like">
</g>
<g id="Favourite">
</g>
<g id="Preview">
</g>
<g id="Download">
</g>
<g id="Upload">
</g>
<g id="Open">
</g>
<g id="Web">
</g>
<g id="Unlocked">
</g>
<g id="Locked">
</g>
<g id="Phone">
</g>
<g id="Email">
</g>
<g id="Graphs">
</g>
<g id="Note">
</g>
<g id="Search">
</g>
<g id="Alarm">
</g>
<g id="Time">
</g>
<g id="Users">
</g>
<g id="User">
</g>
<g id="Refresh">
</g>
<g id="Home">
</g>
<g id="Report">
</g>
<g id="Paste">
</g>
<g id="Copy">
</g>
<g id="Cut">
	<g>
		<g>
			<path fill-rule="evenodd" clip-rule="evenodd" fill="#0089D9" d="M19.4,18.4c-1-1.7-2.8-2.6-4.2-2.3L13,14h1c5-4,5-14,5-14h-1
				c0,0-1.7,8.3-6.5,12.8C6.7,8.3,5,0,5,0H4c0,0,0,10,5,14c0.4,0,0.7,0,1,0l0,0l-2.1,2.1c-1.5-0.4-3.2,0.5-4.2,2.3
				c-1.2,2-0.8,4.4,0.7,5.3c1.6,0.9,3.8,0,4.9-2c0.8-1.4,0.9-3.1,0.3-4.2l1.3-1.3l0.6-0.3l0.6,0.3l1.3,1.3c-0.6,1.1-0.6,2.8,0.3,4.2
				c1.2,2,3.4,2.9,4.9,2C20.2,22.7,20.5,20.4,19.4,18.4z M7.6,20.9c-0.5,1-1.4,1.4-2,1c-0.6-0.4-0.8-1.5-0.3-2.5
				c0.5-1,1.5-1.7,2.2-1.3C8.1,18.6,8.1,20,7.6,20.9z M12,15h-1v-1h1V15z M17.4,21.9c-0.6,0.4-1.6,0-2-1c-0.5-1-0.5-2.4,0.2-2.8
				c0.6-0.4,1.7,0.3,2.2,1.3C18.2,20.3,18.1,21.4,17.4,21.9z"/>
		</g>
	</g>
	<g>
		<g>
			<path fill-rule="evenodd" clip-rule="evenodd" fill="#C8C8C8" d="M48.6,18.4c-1-1.7-2.8-2.6-4.2-2.3L42.3,14c0.4,0,0.7,0,1,0
				c5-4,5-14,5-14h-1c0,0-1.7,8.3-6.5,12.8C35.9,8.3,34.3,0,34.3,0h-1c0,0,0,10,5,14c0.4,0,0.7,0,1,0l0,0l-2.1,2.1
				c-1.5-0.4-3.2,0.5-4.2,2.3c-1.2,2-0.8,4.4,0.7,5.3c1.6,0.9,3.8,0,4.9-2c0.8-1.4,0.9-3.1,0.3-4.2l1.3-1.3l0.6-0.3l0.6,0.3l1.3,1.3
				c-0.6,1.1-0.6,2.8,0.3,4.2c1.2,2,3.4,2.9,4.9,2C49.4,22.7,49.8,20.4,48.6,18.4z M36.9,20.9c-0.5,1-1.4,1.4-2,1
				c-0.6-0.4-0.8-1.5-0.3-2.5c0.5-1,1.5-1.7,2.2-1.3C37.4,18.6,37.4,20,36.9,20.9z M41.3,15h-1v-1h1V15z M46.7,21.9
				c-0.6,0.4-1.6,0-2-1c-0.5-1-0.5-2.4,0.2-2.8c0.6-0.4,1.7,0.3,2.2,1.3C47.5,20.3,47.3,21.4,46.7,21.9z"/>
		</g>
	</g>
	<g>
		<g>
			<path fill-rule="evenodd" clip-rule="evenodd" fill="#39A6E6" d="M77.7,18.4c-1-1.7-2.8-2.6-4.2-2.3L71.4,14h1c5-4,5-14,5-14h-1
				c0,0-1.7,8.3-6.5,12.8C65.1,8.3,63.4,0,63.4,0h-1c0,0,0,10,5,14c0.4,0,0.7,0,1,0l0,0l-2.1,2.1c-1.5-0.4-3.2,0.5-4.2,2.3
				c-1.2,2-0.8,4.4,0.7,5.3c1.6,0.9,3.8,0,4.9-2c0.8-1.4,0.9-3.1,0.3-4.2l1.3-1.3l0.6-0.3l0.6,0.3l1.3,1.3c-0.6,1.1-0.6,2.8,0.3,4.2
				c1.2,2,3.4,2.9,4.9,2C78.6,22.7,78.9,20.4,77.7,18.4z M66,20.9c-0.5,1-1.4,1.4-2,1c-0.6-0.4-0.8-1.5-0.3-2.5
				c0.5-1,1.5-1.7,2.2-1.3C66.5,18.6,66.5,20,66,20.9z M70.4,15h-1v-1h1V15z M75.8,21.9c-0.6,0.4-1.6,0-2-1c-0.5-1-0.5-2.4,0.2-2.8
				c0.6-0.4,1.7,0.3,2.2,1.3C76.6,20.3,76.5,21.4,75.8,21.9z"/>
		</g>
	</g>
</g>
<g id="Flag">
</g>
<g id="Redo">
</g>
<g id="Undo">
</g>
<g id="Zoom_Out">
</g>
<g id="Zoom_In">
</g>
<g id="Add_comment">
</g>
<g id="Unread_comment">
</g>
<g id="Comment">
</g>
<g id="New">
</g>
<g id="Attach">
</g>
<g id="Delete">
</g>
<g id="Save">
</g>
<g id="Edit">
</g>
<g id="Print">
</g>
<g id="Guides" display="none" opacity="0.2">
	<rect display="inline" fill-rule="evenodd" clip-rule="evenodd" fill="#0089D9" width="24" height="24"/>
	<rect x="29" display="inline" fill-rule="evenodd" clip-rule="evenodd" fill="#0089D9" width="24" height="24"/>
	<rect x="58" display="inline" fill-rule="evenodd" clip-rule="evenodd" fill="#0089D9" width="24" height="24"/>
</g>
</svg>
