<?xml version="1.0" encoding="utf-8"?>
<!-- Generator: Adobe Illustrator 19.1.0, SVG Export Plug-In . SVG Version: 6.00 Build 0)  -->
<!DOCTYPE svg PUBLIC "-//W3C//DTD SVG 1.1//EN" "http://www.w3.org/Graphics/SVG/1.1/DTD/svg11.dtd">
<svg version="1.1" xmlns="http://www.w3.org/2000/svg" xmlns:xlink="http://www.w3.org/1999/xlink" x="0px" y="0px" width="82px"
	 height="24px" viewBox="0 0 82 24" enable-background="new 0 0 82 24" xml:space="preserve">
<g id="Layer_2">
</g>
<g id="Changelog">
	<g>
		<g>
			<path fill-rule="evenodd" clip-rule="evenodd" fill="#0089D9" d="M20.5,3.5c-4.7-4.7-12.3-4.7-17,0C1.2,5.9,0,8.9,0,12l2,0
				c0-2.5,1-5.1,2.9-7C8.8,1,15.1,1,19,4.9c3.9,3.9,3.9,10.2,0,14.2C15.1,23,8.8,23,4.9,19.1c-0.2-0.2-0.3-0.3-0.5-0.5L7,16l-6,0
				l0,6L3.1,20c0.2,0.2,0.3,0.3,0.5,0.5c4.7,4.7,12.3,4.7,17,0C25.2,15.8,25.2,8.2,20.5,3.5z M12.6,13.5l5.3-0.4v-1l-5.1-0.5L12,3
				h-1l-1,10c0,0,0.7,1,1.5,1C11.9,14,12.3,13.7,12.6,13.5z"/>
		</g>
	</g>
	<g>
		<g>
			<path fill-rule="evenodd" clip-rule="evenodd" fill="#C8C8C8" d="M49.5,3.5c-4.7-4.7-12.3-4.7-17,0C30.2,5.9,29,8.9,29,12l2,0
				c0-2.5,1-5.1,2.9-7C37.8,1,44.1,1,48,4.9c3.9,3.9,3.9,10.2,0,14.2c-3.9,3.9-10.2,3.9-14.2,0c-0.2-0.2-0.3-0.3-0.5-0.5L36,16l-6,0
				l0,6l2.1-2.1c0.2,0.2,0.3,0.3,0.5,0.5c4.7,4.7,12.3,4.7,17,0C54.2,15.8,54.2,8.2,49.5,3.5z M41.6,13.5l5.3-0.4v-1l-5.1-0.5L41,3
				h-1l-1,10c0,0,0.7,1,1.5,1C40.9,14,41.3,13.7,41.6,13.5z"/>
		</g>
	</g>
	<g>
		<g>
			<path fill-rule="evenodd" clip-rule="evenodd" fill="#39A6E6" d="M70.6,13.5l5.3-0.4v-1l-5.1-0.5L70,3h-1l-1,10c0,0,0.7,1,1.5,1
				C69.9,14,70.3,13.7,70.6,13.5z M78.5,3.5c-4.7-4.7-12.3-4.7-17,0C59.2,5.9,58,8.9,58,12l2,0c0-2.5,1-5.1,2.9-7
				C66.8,1,73.1,1,77,4.9c3.9,3.9,3.9,10.2,0,14.2c-3.9,3.9-10.2,3.9-14.2,0c-0.2-0.2-0.3-0.3-0.5-0.5L65,16l-6,0l0,6l2.1-2.1
				c0.2,0.2,0.3,0.3,0.5,0.5c4.7,4.7,12.3,4.7,17,0C83.2,15.8,83.2,8.2,78.5,3.5z"/>
		</g>
	</g>
</g>
<g id="Export">
</g>
<g id="PDF">
</g>
<g id="Office_Excel">
</g>
<g id="Office_PowerPoint">
</g>
<g id="Office_Word">
</g>
<g id="Filter">
</g>
<g id="Dislike">
</g>
<g id="Like">
</g>
<g id="Favourite">
</g>
<g id="Preview">
</g>
<g id="Download">
</g>
<g id="Upload">
</g>
<g id="Open">
</g>
<g id="Web">
</g>
<g id="Unlocked">
</g>
<g id="Locked">
</g>
<g id="Phone">
</g>
<g id="Email">
</g>
<g id="Graphs">
</g>
<g id="Note">
</g>
<g id="Search">
</g>
<g id="Alarm">
</g>
<g id="Time">
</g>
<g id="Users">
</g>
<g id="User">
</g>
<g id="Refresh">
</g>
<g id="Home">
</g>
<g id="Report">
</g>
<g id="Paste">
</g>
<g id="Copy">
</g>
<g id="Cut">
</g>
<g id="Flag">
</g>
<g id="Redo">
</g>
<g id="Undo">
</g>
<g id="Zoom_Out">
</g>
<g id="Zoom_In">
</g>
<g id="Add_comment">
</g>
<g id="Unread_comment">
</g>
<g id="Comment">
</g>
<g id="New">
</g>
<g id="Attach">
</g>
<g id="Delete">
</g>
<g id="Save">
</g>
<g id="Edit">
</g>
<g id="Print">
</g>
<g id="Guides" display="none" opacity="0.2">
	<rect display="inline" fill-rule="evenodd" clip-rule="evenodd" fill="#0089D9" width="24" height="24"/>
	<rect x="29" display="inline" fill-rule="evenodd" clip-rule="evenodd" fill="#0089D9" width="24" height="24"/>
	<rect x="58" display="inline" fill-rule="evenodd" clip-rule="evenodd" fill="#0089D9" width="24" height="24"/>
</g>
</svg>
