<?xml version="1.0" encoding="utf-8"?>
<!-- Generator: Adobe Illustrator 19.1.0, SVG Export Plug-In . SVG Version: 6.00 Build 0)  -->
<!DOCTYPE svg PUBLIC "-//W3C//DTD SVG 1.1//EN" "http://www.w3.org/Graphics/SVG/1.1/DTD/svg11.dtd">
<svg version="1.1" xmlns="http://www.w3.org/2000/svg" xmlns:xlink="http://www.w3.org/1999/xlink" x="0px" y="0px" width="82px"
	 height="24px" viewBox="0 0 82 24" enable-background="new 0 0 82 24" xml:space="preserve">
<g id="Layer_2">
</g>
<g id="Changelog">
</g>
<g id="Export">
</g>
<g id="PDF">
</g>
<g id="Office_Excel">
</g>
<g id="Office_PowerPoint">
</g>
<g id="Office_Word">
</g>
<g id="Filter">
</g>
<g id="Dislike">
</g>
<g id="Like">
</g>
<g id="Favourite">
</g>
<g id="Preview">
</g>
<g id="Download">
</g>
<g id="Upload">
</g>
<g id="Open">
</g>
<g id="Web">
</g>
<g id="Unlocked">
</g>
<g id="Locked">
</g>
<g id="Phone">
</g>
<g id="Email">
</g>
<g id="Graphs">
</g>
<g id="Note">
</g>
<g id="Search">
</g>
<g id="Alarm">
</g>
<g id="Time">
</g>
<g id="Users">
</g>
<g id="User">
</g>
<g id="Refresh">
</g>
<g id="Home">
</g>
<g id="Report">
</g>
<g id="Paste">
</g>
<g id="Copy">
</g>
<g id="Cut">
</g>
<g id="Flag">
</g>
<g id="Redo">
</g>
<g id="Undo">
</g>
<g id="Zoom_Out">
</g>
<g id="Zoom_In">
</g>
<g id="Add_comment">
</g>
<g id="Unread_comment">
</g>
<g id="Comment">
	<g>
		<g>
			<path fill-rule="evenodd" clip-rule="evenodd" fill="#39A6E6" d="M76,0H64c-3.3,0-6,2.7-6,6v6c0,3.3,2.7,6,6,6c1,0,2,3,2,5
				c1,0,0,0,1,0c0-3,3.6-5,4.9-5c3.6,0,4.1,0,4.1,0c3.3,0,6-2.7,6-6V6C82,2.7,79.3,0,76,0z M80,12c0,2.5-1.5,4-4,4h-4
				c-2,0-4.4,1.2-5.2,3.2c-0.1-2-1-3.2-2.8-3.2c-2.5,0-4-1.5-4-4V6c0-2.5,1.5-4,4-4h12c2.5,0,4,1.5,4,4V12z M65,7c-1.1,0-2,0.9-2,2
				c0,1.1,0.9,2,2,2c1.1,0,2-0.9,2-2C67,7.9,66.1,7,65,7z M65,10c-0.6,0-1-0.4-1-1c0-0.6,0.4-1,1-1s1,0.4,1,1C66,9.6,65.6,10,65,10z
				 M70,7c-1.1,0-2,0.9-2,2c0,1.1,0.9,2,2,2c1.1,0,2-0.9,2-2C72,7.9,71.1,7,70,7z M70,10c-0.6,0-1-0.4-1-1c0-0.6,0.4-1,1-1
				c0.6,0,1,0.4,1,1C71,9.6,70.6,10,70,10z M75,7c-1.1,0-2,0.9-2,2c0,1.1,0.9,2,2,2s2-0.9,2-2C77,7.9,76.1,7,75,7z M75,10
				c-0.6,0-1-0.4-1-1c0-0.6,0.4-1,1-1s1,0.4,1,1C76,9.6,75.6,10,75,10z"/>
		</g>
	</g>
	<g>
		<g>
			<path fill-rule="evenodd" clip-rule="evenodd" fill="#C8C8C8" d="M36,7c-1.1,0-2,0.9-2,2c0,1.1,0.9,2,2,2c1.1,0,2-0.9,2-2
				C38,7.9,37.1,7,36,7z M36,10c-0.6,0-1-0.4-1-1c0-0.6,0.4-1,1-1c0.6,0,1,0.4,1,1C37,9.6,36.6,10,36,10z M46,7c-1.1,0-2,0.9-2,2
				c0,1.1,0.9,2,2,2c1.1,0,2-0.9,2-2C48,7.9,47.1,7,46,7z M46,10c-0.6,0-1-0.4-1-1c0-0.6,0.4-1,1-1c0.6,0,1,0.4,1,1
				C47,9.6,46.6,10,46,10z M41,7c-1.1,0-2,0.9-2,2c0,1.1,0.9,2,2,2c1.1,0,2-0.9,2-2C43,7.9,42.1,7,41,7z M41,10c-0.6,0-1-0.4-1-1
				c0-0.6,0.4-1,1-1c0.6,0,1,0.4,1,1C42,9.6,41.6,10,41,10z M47,0H35c-3.3,0-6,2.7-6,6v6c0,3.3,2.7,6,6,6c1,0,2,3,2,5c1,0,0,0,1,0
				c0-3,3.6-5,4.9-5c3.6,0,4.1,0,4.1,0c3.3,0,6-2.7,6-6V6C53,2.7,50.3,0,47,0z M51,12c0,2.5-1.5,4-4,4h-4c-2,0-4.4,1.2-5.2,3.2
				c-0.1-2-1-3.2-2.8-3.2c-2.5,0-4-1.5-4-4V6c0-2.5,1.5-4,4-4h12c2.5,0,4,1.5,4,4V12z"/>
		</g>
	</g>
	<g>
		<g>
			<path fill-rule="evenodd" clip-rule="evenodd" fill="#0089D9" d="M7,7C5.9,7,5,7.9,5,9c0,1.1,0.9,2,2,2c1.1,0,2-0.9,2-2
				C9,7.9,8.1,7,7,7z M7,10c-0.6,0-1-0.4-1-1c0-0.6,0.4-1,1-1c0.6,0,1,0.4,1,1C8,9.6,7.6,10,7,10z M12,7c-1.1,0-2,0.9-2,2
				c0,1.1,0.9,2,2,2c1.1,0,2-0.9,2-2C14,7.9,13.1,7,12,7z M12,10c-0.6,0-1-0.4-1-1c0-0.6,0.4-1,1-1c0.6,0,1,0.4,1,1
				C13,9.6,12.6,10,12,10z M17,7c-1.1,0-2,0.9-2,2c0,1.1,0.9,2,2,2c1.1,0,2-0.9,2-2C19,7.9,18.1,7,17,7z M17,10c-0.6,0-1-0.4-1-1
				c0-0.6,0.4-1,1-1c0.6,0,1,0.4,1,1C18,9.6,17.6,10,17,10z M18,0H6C2.7,0,0,2.7,0,6v6c0,3.3,2.7,6,6,6c1,0,2,3,2,5c1,0,0,0,1,0
				c0-3,3.6-5,4.9-5c3.6,0,4.1,0,4.1,0c3.3,0,6-2.7,6-6V6C24,2.7,21.3,0,18,0z M22,12c0,2.5-1.5,4-4,4h-4c-2,0-4.4,1.2-5.2,3.2
				c-0.1-2-1-3.2-2.8-3.2c-2.5,0-4-1.5-4-4V6c0-2.5,1.5-4,4-4h12c2.5,0,4,1.5,4,4V12z"/>
		</g>
	</g>
</g>
<g id="New">
</g>
<g id="Attach">
</g>
<g id="Delete">
</g>
<g id="Save">
</g>
<g id="Edit">
</g>
<g id="Print">
</g>
<g id="Guides" display="none" opacity="0.2">
	<rect display="inline" fill-rule="evenodd" clip-rule="evenodd" fill="#0089D9" width="24" height="24"/>
	<rect x="29" display="inline" fill-rule="evenodd" clip-rule="evenodd" fill="#0089D9" width="24" height="24"/>
	<rect x="58" display="inline" fill-rule="evenodd" clip-rule="evenodd" fill="#0089D9" width="24" height="24"/>
</g>
</svg>
