<?xml version="1.0" encoding="utf-8"?>
<!-- Generator: Adobe Illustrator 19.1.0, SVG Export Plug-In . SVG Version: 6.00 Build 0)  -->
<!DOCTYPE svg PUBLIC "-//W3C//DTD SVG 1.1//EN" "http://www.w3.org/Graphics/SVG/1.1/DTD/svg11.dtd">
<svg version="1.1" xmlns="http://www.w3.org/2000/svg" xmlns:xlink="http://www.w3.org/1999/xlink" x="0px" y="0px" width="82px"
	 height="24px" viewBox="0 0 82 24" enable-background="new 0 0 82 24" xml:space="preserve">
<g id="Layer_2">
</g>
<g id="Changelog">
</g>
<g id="Export">
</g>
<g id="PDF">
</g>
<g id="Office_Excel">
</g>
<g id="Office_PowerPoint">
</g>
<g id="Office_Word">
</g>
<g id="Filter">
</g>
<g id="Dislike">
</g>
<g id="Like">
</g>
<g id="Favourite">
</g>
<g id="Preview">
</g>
<g id="Download">
	<g>
		<g>
			<path fill-rule="evenodd" clip-rule="evenodd" fill="#0089D9" d="M24,22v-5c0-0.6-0.4-1-1-1c-0.6,0-1,0.4-1,1v4L2,21v-4
				c0-0.6-0.4-1-1-1s-1,0.4-1,1v5c0,0,0,0,0,0s0,0,0,0c0,0.6,0.4,1,1,1l22,0c0,0,0,0,0,0c0.3,0,0.5-0.1,0.7-0.3
				C23.9,22.5,24,22.3,24,22C24,22,24,22,24,22z M11.2,17.9c0.3,0.3,0.6,0.4,0.9,0.3c0.3,0,0.6-0.1,0.9-0.3l4.4-4.4
				c0.4-0.4,0.5-0.9,0.1-1.3c-0.4-0.4-0.9-0.3-1.3,0.1L13,15.3V2c0-0.6-0.4-1-1-1c-0.6,0-1,0.4-1,1v13.3l-3-3
				c-0.4-0.4-0.9-0.5-1.3-0.1c-0.4,0.4-0.3,0.9,0.1,1.3L11.2,17.9z"/>
		</g>
	</g>
	<g>
		<g>
			<path fill-rule="evenodd" clip-rule="evenodd" fill="#C8C8C8" d="M53,22v-5c0-0.6-0.4-1-1-1c-0.6,0-1,0.4-1,1v4l-20,0v-4
				c0-0.6-0.4-1-1-1c-0.6,0-1,0.4-1,1v5c0,0,0,0,0,0s0,0,0,0c0,0.6,0.4,1,1,1l22,0c0,0,0,0,0,0c0.3,0,0.5-0.1,0.7-0.3
				C52.9,22.5,53,22.3,53,22C53,22,53,22,53,22z M40.2,17.9c0.3,0.3,0.6,0.4,0.9,0.3c0.3,0,0.6-0.1,0.9-0.3l4.4-4.4
				c0.4-0.4,0.5-0.9,0.1-1.3c-0.4-0.4-0.9-0.3-1.3,0.1L42,15.3V2c0-0.6-0.4-1-1-1c-0.6,0-1,0.4-1,1v13.3l-3-3
				c-0.4-0.4-0.9-0.5-1.3-0.1c-0.4,0.4-0.3,0.9,0.1,1.3L40.2,17.9z"/>
		</g>
	</g>
	<g>
		<g>
			<path fill-rule="evenodd" clip-rule="evenodd" fill="#39A6E6" d="M82,22v-5c0-0.6-0.4-1-1-1c-0.6,0-1,0.4-1,1v4l-20,0v-4
				c0-0.6-0.4-1-1-1c-0.6,0-1,0.4-1,1v5c0,0,0,0,0,0s0,0,0,0c0,0.6,0.4,1,1,1l22,0c0,0,0,0,0,0c0.3,0,0.5-0.1,0.7-0.3
				C81.9,22.5,82,22.3,82,22C82,22,82,22,82,22z M69.2,17.9c0.3,0.3,0.6,0.4,0.9,0.3c0.3,0,0.6-0.1,0.9-0.3l4.4-4.4
				c0.4-0.4,0.5-0.9,0.1-1.3c-0.4-0.4-0.9-0.3-1.3,0.1L71,15.3V2c0-0.6-0.4-1-1-1c-0.6,0-1,0.4-1,1v13.3l-3-3
				c-0.4-0.4-0.9-0.5-1.3-0.1c-0.4,0.4-0.3,0.9,0.1,1.3L69.2,17.9z"/>
		</g>
	</g>
</g>
<g id="Upload">
</g>
<g id="Open">
</g>
<g id="Web">
</g>
<g id="Unlocked">
</g>
<g id="Locked">
</g>
<g id="Phone">
</g>
<g id="Email">
</g>
<g id="Graphs">
</g>
<g id="Note">
</g>
<g id="Search">
</g>
<g id="Alarm">
</g>
<g id="Time">
</g>
<g id="Users">
</g>
<g id="User">
</g>
<g id="Refresh">
</g>
<g id="Home">
</g>
<g id="Report">
</g>
<g id="Paste">
</g>
<g id="Copy">
</g>
<g id="Cut">
</g>
<g id="Flag">
</g>
<g id="Redo">
</g>
<g id="Undo">
</g>
<g id="Zoom_Out">
</g>
<g id="Zoom_In">
</g>
<g id="Add_comment">
</g>
<g id="Unread_comment">
</g>
<g id="Comment">
</g>
<g id="New">
</g>
<g id="Attach">
</g>
<g id="Delete">
</g>
<g id="Save">
</g>
<g id="Edit">
</g>
<g id="Print">
</g>
<g id="Guides" display="none" opacity="0.2">
	<rect display="inline" fill-rule="evenodd" clip-rule="evenodd" fill="#0089D9" width="24" height="24"/>
	<rect x="29" display="inline" fill-rule="evenodd" clip-rule="evenodd" fill="#0089D9" width="24" height="24"/>
	<rect x="58" display="inline" fill-rule="evenodd" clip-rule="evenodd" fill="#0089D9" width="24" height="24"/>
</g>
</svg>
