<?xml version="1.0" encoding="utf-8"?>
<!-- Generator: Adobe Illustrator 19.1.0, SVG Export Plug-In . SVG Version: 6.00 Build 0)  -->
<!DOCTYPE svg PUBLIC "-//W3C//DTD SVG 1.1//EN" "http://www.w3.org/Graphics/SVG/1.1/DTD/svg11.dtd">
<svg version="1.1" xmlns="http://www.w3.org/2000/svg" xmlns:xlink="http://www.w3.org/1999/xlink" x="0px" y="0px" width="82px"
	 height="24px" viewBox="0 0 82 24" enable-background="new 0 0 82 24" xml:space="preserve">
<g id="Layer_2">
</g>
<g id="Changelog">
</g>
<g id="Export">
</g>
<g id="PDF">
</g>
<g id="Office_Excel">
</g>
<g id="Office_PowerPoint">
</g>
<g id="Office_Word">
</g>
<g id="Filter">
</g>
<g id="Dislike">
	<g>
		<g>
			<path fill-rule="evenodd" clip-rule="evenodd" fill="#0089D9" d="M4.4,1C2.7,1.4,3.2,2.7,2.8,3.4C2.4,4,1.7,3.9,1.4,4.9
				C1.1,5.8,1.9,6,1.9,6.7c0,0.9-1,1-1,2.2c0,1.1,0.9,1.1,1,1.8c0.1,0.8-0.8,1.3-0.5,2.4C1.5,13.7,2.2,14,3,14.1
				c0.9,0.2,4.5-0.2,5.4,0.7c1.2,1.2-0.5,2.4-0.5,5.1c0,3.1,2.1,5.2,4.9,3.4c-0.6-1.5-0.3-3,0.7-4.8c1.4-4.5,4.3-6.1,6.4-7.4v-10
				c-3.7,0-6.1-0.8-8.6-0.9C7.9,0,4.9,0.9,4.4,1z M17.8,10.3c-2,0.9-5.5,3.3-6,7.5c-0.8,1-1.1,2.4-0.7,3.6c-1.6,0.6-1.6-1.6-0.9-3.2
				c0.8-1.9,1.6-4,0.6-4.9C10,12.5,5.7,12.4,5,12.4c-0.6,0-1.3-0.2-1.4-0.4c-0.2-0.6,0.2-1.2,0.1-1.7C3.6,9.7,2.8,9.5,2.8,8.9
				c0-0.7,1-0.8,1.1-1.5C4,6.6,3.4,6.2,3.6,5.7c0.2-0.6,0.8-0.5,1.1-1.2C5,3.8,4.6,2.9,6,2.5c0.4-0.1,2.4-0.6,5-0.5
				c2,0.1,3.9,1,6.8,1V10.3z M22.8,0.1c-1,0-1,0-2,0v12c1,0,1,0,2,0C24.3,11.1,23.8,1.1,22.8,0.1z"/>
		</g>
	</g>
	<g>
		<g>
			<path fill-rule="evenodd" clip-rule="evenodd" fill="#C8C8C8" d="M33.6,1C32,1.4,32.5,2.7,32,3.4c-0.4,0.7-1.1,0.5-1.4,1.5
				c-0.2,0.9,0.5,1.1,0.5,1.7c0,0.9-1,1-1,2.2c0,1.1,0.9,1.1,1,1.8c0.1,0.8-0.8,1.3-0.5,2.4c0.1,0.6,0.9,0.9,1.6,1.1
				c0.9,0.2,4.5-0.2,5.4,0.7c1.2,1.2-0.5,2.4-0.5,5.1c0,3.1,2.1,5.2,4.9,3.4c-0.6-1.5-0.3-3,0.7-4.8c1.4-4.5,4.3-6.1,6.4-7.4v-10
				c-3.7,0-6.1-0.8-8.6-0.9C37.1,0,34.1,0.9,33.6,1z M47.1,10.3c-2,0.9-5.5,3.3-6,7.5c-0.8,1-1.1,2.4-0.7,3.6
				c-1.6,0.6-1.6-1.6-0.9-3.2c0.8-1.9,1.6-4,0.6-4.9c-0.8-0.8-5.1-0.9-5.8-0.9c-0.6,0-1.3-0.2-1.4-0.4c-0.2-0.6,0.2-1.2,0.1-1.7
				C32.8,9.7,32,9.5,32,8.9c0-0.7,1-0.8,1.1-1.5c0.1-0.7-0.4-1.1-0.3-1.7c0.2-0.6,0.8-0.5,1.1-1.2c0.3-0.7-0.1-1.6,1.3-1.9
				c0.4-0.1,2.4-0.6,5-0.5c2,0.1,3.9,1,6.8,1V10.3z M52.1,0.1c-1,0-1,0-2,0v12c1,0,1,0,2,0C53.6,11.1,53.1,1.1,52.1,0.1z"/>
		</g>
	</g>
	<g>
		<g>
			<path fill-rule="evenodd" clip-rule="evenodd" fill="#39A6E6" d="M62.6,1C61,1.4,61.5,2.7,61,3.4c-0.4,0.7-1.1,0.5-1.4,1.5
				c-0.2,0.9,0.5,1.1,0.5,1.7c0,0.9-1,1-1,2.2c0,1.1,0.9,1.1,1,1.8c0.1,0.8-0.8,1.3-0.5,2.4c0.1,0.6,0.9,0.9,1.6,1.1
				c0.9,0.2,4.5-0.2,5.4,0.7c1.2,1.2-0.5,2.4-0.5,5.1c0,3.1,2.1,5.2,4.9,3.4c-0.6-1.5-0.3-3,0.7-4.8c1.4-4.5,4.3-6.1,6.4-7.4v-10
				c-3.7,0-6.1-0.8-8.6-0.9C66.1,0,63.1,0.9,62.6,1z M76.1,10.3c-2,0.9-5.5,3.3-6,7.5c-0.8,1-1.1,2.4-0.7,3.6
				c-1.6,0.6-1.6-1.6-0.9-3.2c0.8-1.9,1.6-4,0.6-4.9c-0.8-0.8-5.1-0.9-5.8-0.9c-0.6,0-1.3-0.2-1.4-0.4c-0.2-0.6,0.2-1.2,0.1-1.7
				C61.8,9.7,61,9.5,61,8.9c0-0.7,1-0.8,1.1-1.5c0.1-0.7-0.4-1.1-0.3-1.7c0.2-0.6,0.8-0.5,1.1-1.2c0.3-0.7-0.1-1.6,1.3-1.9
				c0.4-0.1,2.4-0.6,5-0.5c2,0.1,3.9,1,6.8,1V10.3z M81.1,0.1c-1,0-1,0-2,0v12c1,0,1,0,2,0C82.6,11.1,82.1,1.1,81.1,0.1z"/>
		</g>
	</g>
</g>
<g id="Like">
</g>
<g id="Favourite">
</g>
<g id="Preview">
</g>
<g id="Download">
</g>
<g id="Upload">
</g>
<g id="Open">
</g>
<g id="Web">
</g>
<g id="Unlocked">
</g>
<g id="Locked">
</g>
<g id="Phone">
</g>
<g id="Email">
</g>
<g id="Graphs">
</g>
<g id="Note">
</g>
<g id="Search">
</g>
<g id="Alarm">
</g>
<g id="Time">
</g>
<g id="Users">
</g>
<g id="User">
</g>
<g id="Refresh">
</g>
<g id="Home">
</g>
<g id="Report">
</g>
<g id="Paste">
</g>
<g id="Copy">
</g>
<g id="Cut">
</g>
<g id="Flag">
</g>
<g id="Redo">
</g>
<g id="Undo">
</g>
<g id="Zoom_Out">
</g>
<g id="Zoom_In">
</g>
<g id="Add_comment">
</g>
<g id="Unread_comment">
</g>
<g id="Comment">
</g>
<g id="New">
</g>
<g id="Attach">
</g>
<g id="Delete">
</g>
<g id="Save">
</g>
<g id="Edit">
</g>
<g id="Print">
</g>
<g id="Guides" display="none" opacity="0.2">
	<rect display="inline" fill-rule="evenodd" clip-rule="evenodd" fill="#0089D9" width="24" height="24"/>
	<rect x="29" display="inline" fill-rule="evenodd" clip-rule="evenodd" fill="#0089D9" width="24" height="24"/>
	<rect x="58" display="inline" fill-rule="evenodd" clip-rule="evenodd" fill="#0089D9" width="24" height="24"/>
</g>
</svg>
