<?xml version="1.0" encoding="utf-8"?>
<!-- Generator: Adobe Illustrator 19.1.0, SVG Export Plug-In . SVG Version: 6.00 Build 0)  -->
<!DOCTYPE svg PUBLIC "-//W3C//DTD SVG 1.1//EN" "http://www.w3.org/Graphics/SVG/1.1/DTD/svg11.dtd">
<svg version="1.1" xmlns="http://www.w3.org/2000/svg" xmlns:xlink="http://www.w3.org/1999/xlink" x="0px" y="0px" width="82px"
	 height="24px" viewBox="0 0 82 24" enable-background="new 0 0 82 24" xml:space="preserve">
<g id="Layer_2">
</g>
<g id="Changelog">
</g>
<g id="Export">
</g>
<g id="PDF">
</g>
<g id="Office_Excel">
</g>
<g id="Office_PowerPoint">
</g>
<g id="Office_Word">
</g>
<g id="Filter">
</g>
<g id="Dislike">
</g>
<g id="Like">
</g>
<g id="Favourite">
</g>
<g id="Preview">
</g>
<g id="Download">
</g>
<g id="Upload">
</g>
<g id="Open">
</g>
<g id="Web">
</g>
<g id="Unlocked">
</g>
<g id="Locked">
</g>
<g id="Phone">
</g>
<g id="Email">
</g>
<g id="Graphs">
</g>
<g id="Note">
</g>
<g id="Search">
</g>
<g id="Alarm">
</g>
<g id="Time">
</g>
<g id="Users">
</g>
<g id="User">
</g>
<g id="Refresh">
</g>
<g id="Home">
</g>
<g id="Report">
</g>
<g id="Paste">
</g>
<g id="Copy">
</g>
<g id="Cut">
</g>
<g id="Flag">
</g>
<g id="Redo">
</g>
<g id="Undo">
</g>
<g id="Zoom_Out">
</g>
<g id="Zoom_In">
</g>
<g id="Add_comment">
</g>
<g id="Unread_comment">
</g>
<g id="Comment">
</g>
<g id="New">
</g>
<g id="Attach">
</g>
<g id="Delete">
	<g>
		<g>
			<path fill-rule="evenodd" clip-rule="evenodd" fill="#39A6E6" d="M68,17V9c0-0.6-0.4-1-1-1s-1,0.4-1,1v8c0,0.6,0.4,1,1,1
				S68,17.6,68,17z M71,17V9c0-0.6-0.4-1-1-1c-0.6,0-1,0.4-1,1v8c0,0.6,0.4,1,1,1C70.6,18,71,17.6,71,17z M74,17V9c0-0.6-0.4-1-1-1
				s-1,0.4-1,1v8c0,0.6,0.4,1,1,1S74,17.6,74,17z M80,4h-6c0-2-1-4-3-4c-0.3,0-1,0-1,0s-0.7,0-1,0c-2,0-3,2-3,4h-6c-1,0-2,1-2,2
				c0,0.8,0,1,0,1c0,0.6,0.4,1,1,1s1-0.4,1-1c0-0.6,0.5-1,1-1c6.2,0,9,0,9,0s2.8,0,9,0c0.5,0,1,0.4,1,1c0,0.6,0.4,1,1,1
				c0.6,0,1-0.4,1-1c0,0,0-0.2,0-1C82,5,81,4,80,4z M72,4h-4V3c0-0.1,0.3-1,1-1c1,0,1,0,1,0s0,0,1,0c0.7,0,1,0.9,1,1V4z M78.1,7
				c-0.6,0-1,0.4-1.1,0.9c0,0-0.5,8.1-0.8,12.6c0,0.7-0.4,1.5-1.8,1.5h-8.8c-1.4,0-1.8-0.8-1.8-1.5C63.5,16,63,7.9,63,7.9
				c0-0.5-0.5-1-1.1-0.9c-0.5,0-1,0.5-0.9,1.1L61.9,22c0.2,1,1.2,2,2.1,2c2,0,6,0,6,0s4,0,6,0c1-0.1,2-1,2.1-2L79,8.1
				C79,7.5,78.6,7.1,78.1,7z"/>
		</g>
	</g>
	<g>
		<g>
			<path fill-rule="evenodd" clip-rule="evenodd" fill="#C8C8C8" d="M39,17V9c0-0.6-0.4-1-1-1s-1,0.4-1,1v8c0,0.6,0.4,1,1,1
				S39,17.6,39,17z M42,17V9c0-0.6-0.4-1-1-1c-0.6,0-1,0.4-1,1v8c0,0.6,0.4,1,1,1C41.6,18,42,17.6,42,17z M45,17V9c0-0.6-0.4-1-1-1
				s-1,0.4-1,1v8c0,0.6,0.4,1,1,1S45,17.6,45,17z M51,4h-6c0-2-1-4-3-4c-0.3,0-1,0-1,0s-0.7,0-1,0c-2,0-3,2-3,4h-6c-1,0-2,1-2,2
				c0,0.8,0,1,0,1c0,0.6,0.4,1,1,1s1-0.4,1-1c0-0.6,0.5-1,1-1c6.2,0,9,0,9,0s2.8,0,9,0c0.5,0,1,0.4,1,1c0,0.6,0.4,1,1,1
				c0.6,0,1-0.4,1-1c0,0,0-0.2,0-1C53,5,52,4,51,4z M43,4h-4V3c0-0.1,0.3-1,1-1c1,0,1,0,1,0s0,0,1,0c0.7,0,1,0.9,1,1V4z M49.1,7
				c-0.6,0-1,0.4-1.1,0.9c0,0-0.5,8.1-0.8,12.6c0,0.7-0.4,1.5-1.8,1.5h-8.8c-1.4,0-1.8-0.8-1.8-1.5C34.5,16,34,7.9,34,7.9
				c0-0.5-0.5-1-1.1-0.9c-0.5,0-1,0.5-0.9,1.1L32.9,22c0.2,1,1.2,2,2.1,2c2,0,6,0,6,0s4,0,6,0c1-0.1,2-1,2.1-2L50,8.1
				C50,7.5,49.6,7.1,49.1,7z"/>
		</g>
	</g>
	<g>
		<g>
			<path fill-rule="evenodd" clip-rule="evenodd" fill="#0089D9" d="M10,17V9c0-0.6-0.4-1-1-1S8,8.4,8,9v8c0,0.6,0.4,1,1,1
				S10,17.6,10,17z M13,17V9c0-0.6-0.4-1-1-1c-0.6,0-1,0.4-1,1v8c0,0.6,0.4,1,1,1C12.6,18,13,17.6,13,17z M16,17V9c0-0.6-0.4-1-1-1
				s-1,0.4-1,1v8c0,0.6,0.4,1,1,1S16,17.6,16,17z M22,4h-6c0-2-1-4-3-4c-0.3,0-1,0-1,0s-0.7,0-1,0C9,0,8,2,8,4H2C1,4,0,5,0,6
				c0,0.8,0,1,0,1c0,0.6,0.4,1,1,1s1-0.4,1-1c0-0.6,0.5-1,1-1c6.2,0,9,0,9,0s2.8,0,9,0c0.5,0,1,0.4,1,1c0,0.6,0.4,1,1,1
				c0.6,0,1-0.4,1-1c0,0,0-0.2,0-1C24,5,23,4,22,4z M14,4h-2h-2V3c0-0.1,0.3-1,1-1c1,0,1,0,1,0s0,0,1,0c0.7,0,1,0.9,1,1V4z M20.1,7
				c-0.6,0-1,0.4-1.1,0.9c0,0-0.5,8.1-0.8,12.6c0,0.7-0.4,1.5-1.8,1.5H12H7.6c-1.4,0-1.8-0.8-1.8-1.5C5.5,16,5,7.9,5,7.9
				c0-0.5-0.5-1-1.1-0.9C3.4,7.1,3,7.5,3,8.1L3.9,22C4,23,5,23.9,6,24c2,0,6,0,6,0s4,0,6,0c1-0.1,2-1,2.1-2L21,8.1
				C21,7.5,20.6,7.1,20.1,7z"/>
		</g>
	</g>
</g>
<g id="Save">
</g>
<g id="Edit">
</g>
<g id="Print">
</g>
<g id="Guides" display="none" opacity="0.2">
	<rect display="inline" fill-rule="evenodd" clip-rule="evenodd" fill="#0089D9" width="24" height="24"/>
	<rect x="29" display="inline" fill-rule="evenodd" clip-rule="evenodd" fill="#0089D9" width="24" height="24"/>
	<rect x="58" display="inline" fill-rule="evenodd" clip-rule="evenodd" fill="#0089D9" width="24" height="24"/>
</g>
</svg>
