<?xml version="1.0" encoding="utf-8"?>
<!-- Generator: Adobe Illustrator 19.1.0, SVG Export Plug-In . SVG Version: 6.00 Build 0)  -->
<!DOCTYPE svg PUBLIC "-//W3C//DTD SVG 1.1//EN" "http://www.w3.org/Graphics/SVG/1.1/DTD/svg11.dtd">
<svg version="1.1" xmlns="http://www.w3.org/2000/svg" xmlns:xlink="http://www.w3.org/1999/xlink" x="0px" y="0px" width="82px"
	 height="24px" viewBox="0 0 82 24" enable-background="new 0 0 82 24" xml:space="preserve">
<g id="Layer_2">
</g>
<g id="Changelog">
</g>
<g id="Export">
</g>
<g id="PDF">
</g>
<g id="Office_Excel">
</g>
<g id="Office_PowerPoint">
</g>
<g id="Office_Word">
</g>
<g id="Filter">
</g>
<g id="Dislike">
</g>
<g id="Like">
</g>
<g id="Favourite">
</g>
<g id="Preview">
</g>
<g id="Download">
</g>
<g id="Upload">
</g>
<g id="Open">
</g>
<g id="Web">
</g>
<g id="Unlocked">
</g>
<g id="Locked">
</g>
<g id="Phone">
</g>
<g id="Email">
	<g>
		<g>
			<path fill-rule="evenodd" clip-rule="evenodd" fill="#0089D9" d="M22,3H2C0.9,3,0,3.9,0,5v14c0,1.1,0.9,2,2,2h20c1.1,0,2-0.9,2-2
				V5C24,3.9,23.1,3,22,3z M20.4,5L12,13L3.6,5H20.4z M7.9,11.7L2,18.8V6.4C3.5,7.7,5.9,9.9,7.9,11.7z M2.2,19l7.2-5.9
				c1,0.9,1.8,1.7,2,1.9c0.3,0.3,0.8,0.3,1.1,0c0.2-0.2,1-0.9,2-1.9l7.2,5.9H2.2z M22,18.8l-5.8-7.1c2-1.8,4.4-4,5.8-5.3V18.8z"/>
		</g>
	</g>
	<g>
		<g>
			<path fill-rule="evenodd" clip-rule="evenodd" fill="#C8C8C8" d="M51,3H31c-1.1,0-2,0.9-2,2v14c0,1.1,0.9,2,2,2h20
				c1.1,0,2-0.9,2-2V5C53,3.9,52.1,3,51,3z M49.4,5L41,13l-8.4-8H49.4z M36.9,11.7L31,18.8V6.4C32.5,7.7,34.9,9.9,36.9,11.7z
				 M31.2,19l7.2-5.9c1,0.9,1.8,1.7,2,1.9c0.3,0.3,0.8,0.3,1.1,0c0.2-0.2,1-0.9,2-1.9l7.2,5.9H31.2z M51,18.8l-5.8-7.1
				c2-1.8,4.4-4,5.8-5.3V18.8z"/>
		</g>
	</g>
	<g>
		<g>
			<path fill-rule="evenodd" clip-rule="evenodd" fill="#39A6E6" d="M80,3H60c-1.1,0-2,0.9-2,2v14c0,1.1,0.9,2,2,2h20
				c1.1,0,2-0.9,2-2V5C82,3.9,81.1,3,80,3z M78.4,5L70,13l-8.4-8H78.4z M65.9,11.7L60,18.8V6.4C61.5,7.7,63.9,9.9,65.9,11.7z
				 M60.2,19l7.2-5.9c1,0.9,1.8,1.7,2,1.9c0.3,0.3,0.8,0.3,1.1,0c0.2-0.2,1-0.9,2-1.9l7.2,5.9H60.2z M80,18.8l-5.8-7.1
				c2-1.8,4.4-4,5.8-5.3V18.8z"/>
		</g>
	</g>
</g>
<g id="Graphs">
</g>
<g id="Note">
</g>
<g id="Search">
</g>
<g id="Alarm">
</g>
<g id="Time">
</g>
<g id="Users">
</g>
<g id="User">
</g>
<g id="Refresh">
</g>
<g id="Home">
</g>
<g id="Report">
</g>
<g id="Paste">
</g>
<g id="Copy">
</g>
<g id="Cut">
</g>
<g id="Flag">
</g>
<g id="Redo">
</g>
<g id="Undo">
</g>
<g id="Zoom_Out">
</g>
<g id="Zoom_In">
</g>
<g id="Add_comment">
</g>
<g id="Unread_comment">
</g>
<g id="Comment">
</g>
<g id="New">
</g>
<g id="Attach">
</g>
<g id="Delete">
</g>
<g id="Save">
</g>
<g id="Edit">
</g>
<g id="Print">
</g>
<g id="Guides" display="none" opacity="0.2">
	<rect display="inline" fill-rule="evenodd" clip-rule="evenodd" fill="#0089D9" width="24" height="24"/>
	<rect x="29" display="inline" fill-rule="evenodd" clip-rule="evenodd" fill="#0089D9" width="24" height="24"/>
	<rect x="58" display="inline" fill-rule="evenodd" clip-rule="evenodd" fill="#0089D9" width="24" height="24"/>
</g>
</svg>
