<?xml version="1.0" encoding="utf-8"?>
<!-- Generator: Adobe Illustrator 19.1.0, SVG Export Plug-In . SVG Version: 6.00 Build 0)  -->
<!DOCTYPE svg PUBLIC "-//W3C//DTD SVG 1.1//EN" "http://www.w3.org/Graphics/SVG/1.1/DTD/svg11.dtd">
<svg version="1.1" xmlns="http://www.w3.org/2000/svg" xmlns:xlink="http://www.w3.org/1999/xlink" x="0px" y="0px" width="82px"
	 height="24px" viewBox="0 0 82 24" enable-background="new 0 0 82 24" xml:space="preserve">
<g id="Layer_2">
</g>
<g id="Changelog">
</g>
<g id="Export">
	<g>
		<g>
			<path fill-rule="evenodd" clip-rule="evenodd" fill="#0089D9" d="M18,21c0,0.6-0.4,1-1,1H3c-0.6,0-1-0.4-1-1V7c0-0.6,0.4-1,1-1
				h10l2-2H2C0.9,4,0,4.9,0,6v16c0,1.1,0.9,2,2,2h16c1.1,0,2-0.9,2-2V9l-2,2V21z M23,0h-7c-0.6,0-1,0.4-1,1s0.4,1,1,1h4.5L9.4,13.1
				c-0.4,0.4-0.4,1,0,1.4c0.4,0.4,1,0.4,1.4,0L22,3.3V8c0,0.6,0.4,1,1,1c0.6,0,1-0.4,1-1V1C24,0.4,23.6,0,23,0z"/>
		</g>
	</g>
	<g>
		<g>
			<path fill-rule="evenodd" clip-rule="evenodd" fill="#C8C8C8" d="M47,21c0,0.6-0.4,1-1,1H32c-0.6,0-1-0.4-1-1V7c0-0.6,0.4-1,1-1
				h10l2-2H31c-1.1,0-2,0.9-2,2v16c0,1.1,0.9,2,2,2h16c1.1,0,2-0.9,2-2V9l-2,2V21z M52,0h-7c-0.6,0-1,0.4-1,1c0,0.6,0.4,1,1,1h4.5
				L38.4,13.1c-0.4,0.4-0.4,1,0,1.4c0.4,0.4,1,0.4,1.4,0L51,3.3V8c0,0.6,0.4,1,1,1c0.6,0,1-0.4,1-1V1C53,0.4,52.6,0,52,0z"/>
		</g>
	</g>
	<g>
		<g>
			<path fill-rule="evenodd" clip-rule="evenodd" fill="#39A6E6" d="M76,21c0,0.6-0.4,1-1,1H61c-0.6,0-1-0.4-1-1V7c0-0.6,0.4-1,1-1
				h10l2-2H60c-1.1,0-2,0.9-2,2v16c0,1.1,0.9,2,2,2h16c1.1,0,2-0.9,2-2V9l-2,2V21z M81,0h-7c-0.6,0-1,0.4-1,1c0,0.6,0.4,1,1,1h4.5
				L67.4,13.1c-0.4,0.4-0.4,1,0,1.4c0.4,0.4,1,0.4,1.4,0L80,3.3V8c0,0.6,0.4,1,1,1c0.6,0,1-0.4,1-1V1C82,0.4,81.6,0,81,0z"/>
		</g>
	</g>
</g>
<g id="PDF">
</g>
<g id="Office_Excel">
</g>
<g id="Office_PowerPoint">
</g>
<g id="Office_Word">
</g>
<g id="Filter">
</g>
<g id="Dislike">
</g>
<g id="Like">
</g>
<g id="Favourite">
</g>
<g id="Preview">
</g>
<g id="Download">
</g>
<g id="Upload">
</g>
<g id="Open">
</g>
<g id="Web">
</g>
<g id="Unlocked">
</g>
<g id="Locked">
</g>
<g id="Phone">
</g>
<g id="Email">
</g>
<g id="Graphs">
</g>
<g id="Note">
</g>
<g id="Search">
</g>
<g id="Alarm">
</g>
<g id="Time">
</g>
<g id="Users">
</g>
<g id="User">
</g>
<g id="Refresh">
</g>
<g id="Home">
</g>
<g id="Report">
</g>
<g id="Paste">
</g>
<g id="Copy">
</g>
<g id="Cut">
</g>
<g id="Flag">
</g>
<g id="Redo">
</g>
<g id="Undo">
</g>
<g id="Zoom_Out">
</g>
<g id="Zoom_In">
</g>
<g id="Add_comment">
</g>
<g id="Unread_comment">
</g>
<g id="Comment">
</g>
<g id="New">
</g>
<g id="Attach">
</g>
<g id="Delete">
</g>
<g id="Save">
</g>
<g id="Edit">
</g>
<g id="Print">
</g>
<g id="Guides" display="none" opacity="0.2">
	<rect display="inline" fill-rule="evenodd" clip-rule="evenodd" fill="#0089D9" width="24" height="24"/>
	<rect x="29" display="inline" fill-rule="evenodd" clip-rule="evenodd" fill="#0089D9" width="24" height="24"/>
	<rect x="58" display="inline" fill-rule="evenodd" clip-rule="evenodd" fill="#0089D9" width="24" height="24"/>
</g>
</svg>
