<?xml version="1.0" encoding="utf-8"?>
<!-- Generator: Adobe Illustrator 19.1.0, SVG Export Plug-In . SVG Version: 6.00 Build 0)  -->
<!DOCTYPE svg PUBLIC "-//W3C//DTD SVG 1.1//EN" "http://www.w3.org/Graphics/SVG/1.1/DTD/svg11.dtd">
<svg version="1.1" xmlns="http://www.w3.org/2000/svg" xmlns:xlink="http://www.w3.org/1999/xlink" x="0px" y="0px" width="82px"
	 height="24px" viewBox="0 0 82 24" enable-background="new 0 0 82 24" xml:space="preserve">
<g id="Layer_2">
</g>
<g id="Changelog">
</g>
<g id="Export">
</g>
<g id="PDF">
</g>
<g id="Office_Excel">
</g>
<g id="Office_PowerPoint">
</g>
<g id="Office_Word">
</g>
<g id="Filter">
</g>
<g id="Dislike">
</g>
<g id="Like">
</g>
<g id="Favourite">
</g>
<g id="Preview">
</g>
<g id="Download">
</g>
<g id="Upload">
</g>
<g id="Open">
</g>
<g id="Web">
</g>
<g id="Unlocked">
</g>
<g id="Locked">
</g>
<g id="Phone">
</g>
<g id="Email">
</g>
<g id="Graphs">
</g>
<g id="Note">
</g>
<g id="Search">
</g>
<g id="Alarm">
</g>
<g id="Time">
</g>
<g id="Users">
</g>
<g id="User">
</g>
<g id="Refresh">
</g>
<g id="Home">
</g>
<g id="Report">
</g>
<g id="Paste">
</g>
<g id="Copy">
</g>
<g id="Cut">
</g>
<g id="Flag">
</g>
<g id="Redo">
</g>
<g id="Undo">
</g>
<g id="Zoom_Out">
</g>
<g id="Zoom_In">
</g>
<g id="Add_comment">
</g>
<g id="Unread_comment">
</g>
<g id="Comment">
</g>
<g id="New">
</g>
<g id="Attach">
</g>
<g id="Delete">
</g>
<g id="Save">
</g>
<g id="Edit">
	<g>
		<g>
			<path fill-rule="evenodd" clip-rule="evenodd" fill="#39A6E6" d="M62.5,16c0,0,0.4,0.4,0.7,0.7c0.3,0.3,0.3,1.7,0.3,1.7
				s1.4,0,1.8,0.4l-3.2,1.1l1.1-3.2L62.5,16L60,22l6-2.5L78.7,6.9l-3.5-3.5L62.5,16z M80,3.4C79,2.3,79.7,3.1,78.7,2
				c-1.1-1.1-2.8,0.7-2.8,0.7l3.5,3.5C79.4,6.2,81.1,4.4,80,3.4z"/>
		</g>
	</g>
	<g>
		<g>
			<path fill-rule="evenodd" clip-rule="evenodd" fill="#C8C8C8" d="M33.5,16c0,0,0.4,0.4,0.7,0.7c0.3,0.3,0.3,1.7,0.3,1.7
				s1.4,0,1.8,0.4l-3.2,1.1l1.1-3.2L33.5,16L31,22l6-2.5L49.7,6.9l-3.5-3.5L33.5,16z M51,3.4C50,2.3,50.7,3.1,49.7,2
				c-1.1-1.1-2.8,0.7-2.8,0.7l3.5,3.5C50.4,6.2,52.1,4.4,51,3.4z"/>
		</g>
	</g>
	<g>
		<g>
			<path fill-rule="evenodd" clip-rule="evenodd" fill="#0089D9" d="M4.5,16c0,0,0.4,0.4,0.7,0.7c0.3,0.3,0.3,1.7,0.3,1.7
				s1.4,0,1.8,0.4l-3.2,1.1l1.1-3.2L4.5,16L2,22l6-2.5L20.7,6.9l-3.5-3.5L4.5,16z M22,3.4C21,2.3,21.7,3.1,20.7,2
				c-1.1-1.1-2.8,0.7-2.8,0.7l3.5,3.5C21.4,6.2,23.1,4.4,22,3.4z"/>
		</g>
	</g>
</g>
<g id="Print">
</g>
<g id="Guides" display="none" opacity="0.2">
	<rect display="inline" fill-rule="evenodd" clip-rule="evenodd" fill="#0089D9" width="24" height="24"/>
	<rect x="29" display="inline" fill-rule="evenodd" clip-rule="evenodd" fill="#0089D9" width="24" height="24"/>
	<rect x="58" display="inline" fill-rule="evenodd" clip-rule="evenodd" fill="#0089D9" width="24" height="24"/>
</g>
</svg>
