<?xml version="1.0" encoding="utf-8"?>
<!-- Generator: Adobe Illustrator 19.1.0, SVG Export Plug-In . SVG Version: 6.00 Build 0)  -->
<!DOCTYPE svg PUBLIC "-//W3C//DTD SVG 1.1//EN" "http://www.w3.org/Graphics/SVG/1.1/DTD/svg11.dtd">
<svg version="1.1" xmlns="http://www.w3.org/2000/svg" xmlns:xlink="http://www.w3.org/1999/xlink" x="0px" y="0px" width="82px"
	 height="24px" viewBox="0 0 82 24" enable-background="new 0 0 82 24" xml:space="preserve">
<g id="Layer_2">
</g>
<g id="Changelog">
</g>
<g id="Export">
</g>
<g id="PDF">
</g>
<g id="Office_Excel">
</g>
<g id="Office_PowerPoint">
</g>
<g id="Office_Word">
</g>
<g id="Filter">
</g>
<g id="Dislike">
</g>
<g id="Like">
</g>
<g id="Favourite">
</g>
<g id="Preview">
</g>
<g id="Download">
</g>
<g id="Upload">
</g>
<g id="Open">
</g>
<g id="Web">
</g>
<g id="Unlocked">
</g>
<g id="Locked">
</g>
<g id="Phone">
</g>
<g id="Email">
</g>
<g id="Graphs">
</g>
<g id="Note">
</g>
<g id="Search">
</g>
<g id="Alarm">
</g>
<g id="Time">
</g>
<g id="Users">
</g>
<g id="User">
</g>
<g id="Refresh">
</g>
<g id="Home">
</g>
<g id="Report">
</g>
<g id="Paste">
</g>
<g id="Copy">
</g>
<g id="Cut">
</g>
<g id="Flag">
	<g>
		<g>
			<path fill-rule="evenodd" clip-rule="evenodd" fill="#0089D9" d="M2,0C1.4,0,1,0.5,1,1v22c0,0.6,0.4,1,1,1c0.6,0,1-0.4,1-1V1
				C3,0.5,2.6,0,2,0z M13.5,1.4C11-0.7,6-0.4,4,2v15c2.8-2.1,6-2.9,9-0.7c3.4,2.4,6.6,2.4,9-0.2V1C18.8,3,16.5,4,13.5,1.4z M20,14.8
				c-2.4,2.2-3.6,1.2-6.5-0.6c-2.4-1.5-5.4-1.4-7.5-0.7c0-2,0-8.6,0-10.6c2.3-1.5,4.8-1,7,0.6c2.7,2,5.1,1.8,7,1V14.8z"/>
		</g>
	</g>
	<g>
		<g>
			<path fill-rule="evenodd" clip-rule="evenodd" fill="#C8C8C8" d="M31.1,0c-0.6,0-1,0.4-1,1v22c0,0.6,0.4,1,1,1c0.6,0,1-0.4,1-1V1
				C32.1,0.5,31.7,0,31.1,0z M42.6,1.4c-2.5-2.1-7.5-1.8-9.5,0.6v15c2.8-2.1,6-2.9,9-0.7c3.4,2.4,6.6,2.4,9-0.2V1
				C47.9,3,45.7,4,42.6,1.4z M49.1,14.8c-2.4,2.2-3.6,1.2-6.5-0.6c-2.4-1.5-5.4-1.4-7.5-0.7c0-2,0-8.6,0-10.6c2.3-1.5,4.8-1,7,0.6
				c2.7,2,5.1,1.8,7,1V14.8z"/>
		</g>
	</g>
	<g>
		<g>
			<path fill-rule="evenodd" clip-rule="evenodd" fill="#39A6E6" d="M71.6,1.4c-2.5-2.1-7.5-1.8-9.5,0.6v15c2.8-2.1,6-2.9,9-0.7
				c3.4,2.4,6.6,2.4,9-0.2V1C76.9,3,74.7,4,71.6,1.4z M78.1,14.8c-2.4,2.2-3.6,1.2-6.5-0.6c-2.4-1.5-5.4-1.4-7.5-0.7
				c0-2,0-8.6,0-10.6c2.3-1.5,4.8-1,7,0.6c2.7,2,5.1,1.8,7,1V14.8z M60.1,0c-0.6,0-1,0.4-1,1v22c0,0.6,0.4,1,1,1c0.6,0,1-0.4,1-1V1
				C61.1,0.5,60.7,0,60.1,0z"/>
		</g>
	</g>
</g>
<g id="Redo">
</g>
<g id="Undo">
</g>
<g id="Zoom_Out">
</g>
<g id="Zoom_In">
</g>
<g id="Add_comment">
</g>
<g id="Unread_comment">
</g>
<g id="Comment">
</g>
<g id="New">
</g>
<g id="Attach">
</g>
<g id="Delete">
</g>
<g id="Save">
</g>
<g id="Edit">
</g>
<g id="Print">
</g>
<g id="Guides" display="none" opacity="0.2">
	<rect display="inline" fill-rule="evenodd" clip-rule="evenodd" fill="#0089D9" width="24" height="24"/>
	<rect x="29" display="inline" fill-rule="evenodd" clip-rule="evenodd" fill="#0089D9" width="24" height="24"/>
	<rect x="58" display="inline" fill-rule="evenodd" clip-rule="evenodd" fill="#0089D9" width="24" height="24"/>
</g>
</svg>
