<?xml version="1.0" encoding="utf-8"?>
<!-- Generator: Adobe Illustrator 19.1.0, SVG Export Plug-In . SVG Version: 6.00 Build 0)  -->
<!DOCTYPE svg PUBLIC "-//W3C//DTD SVG 1.1//EN" "http://www.w3.org/Graphics/SVG/1.1/DTD/svg11.dtd">
<svg version="1.1" xmlns="http://www.w3.org/2000/svg" xmlns:xlink="http://www.w3.org/1999/xlink" x="0px" y="0px" width="82px"
	 height="24px" viewBox="0 0 82 24" enable-background="new 0 0 82 24" xml:space="preserve">
<g id="Layer_2">
</g>
<g id="Changelog">
</g>
<g id="Export">
</g>
<g id="PDF">
</g>
<g id="Office_Excel">
</g>
<g id="Office_PowerPoint">
</g>
<g id="Office_Word">
</g>
<g id="Filter">
</g>
<g id="Dislike">
</g>
<g id="Like">
</g>
<g id="Favourite">
	<g>
		<g>
			<path fill-rule="evenodd" clip-rule="evenodd" fill="#0089D9" d="M23.6,10.9c0.8-0.7,0.4-2.1-0.7-2.2c-0.1,0-6.9-0.6-7-0.7
				c-0.1-0.1-2.7-6.2-2.8-6.4C12.9,1.2,12.5,1,12,1c-0.5,0-0.9,0.2-1.1,0.7c0,0.1-2.7,6.3-2.8,6.4C8,8.2,1.2,8.7,1.1,8.7
				c-1.1,0.1-1.5,1.5-0.7,2.2c0.1,0.1,5.2,4.5,5.2,4.6c0,0.1-1.5,6.6-1.5,6.8c-0.2,1,0.9,1.9,1.9,1.3c0.1-0.1,5.9-3.5,6-3.5
				c0.1,0,5.9,3.5,6,3.5c0.9,0.6,2.1-0.3,1.9-1.3c0-0.1-1.6-6.6-1.5-6.8C18.4,15.4,23.5,11,23.6,10.9z M18.1,21.7
				c-5.5-3.3-5.7-3.3-6.1-3.3c-0.4,0-0.6,0-6.1,3.3c1.5-6.3,1.5-6.3,1.3-6.8c-0.1-0.4-0.2-0.5-5-4.7C8.5,9.8,8.7,9.6,9,9.4
				c0.2-0.1,0.5-0.5,3-6.5l0,0.3c2.5,5.9,2.6,6,3,6.3c0.3,0.2,0.5,0.4,6.9,0.8c-4.9,4.1-4.9,4.3-5.1,4.7
				C16.6,15.4,16.6,15.4,18.1,21.7z M7.7,11.9c-0.2-0.2-0.5-0.2-0.7,0c-0.2,0.2-0.2,0.5,0,0.7L8.4,14c0.2,0.2,0.5,0.2,0.7,0
				c0.2-0.2,0.2-0.5,0-0.7L7.7,11.9z"/>
		</g>
	</g>
	<g>
		<g>
			<path fill-rule="evenodd" clip-rule="evenodd" fill="#C8C8C8" d="M52.6,10.9c0.8-0.7,0.4-2.1-0.7-2.2c-0.1,0-6.9-0.6-7-0.7
				c-0.1-0.1-2.7-6.2-2.8-6.4C41.9,1.2,41.5,1,41,1c-0.5,0-0.9,0.2-1.1,0.7c0,0.1-2.7,6.3-2.8,6.4c-0.1,0.1-6.8,0.6-7,0.7
				c-1.1,0.1-1.5,1.5-0.7,2.2c0.1,0.1,5.2,4.5,5.2,4.6c0,0.1-1.5,6.6-1.5,6.8c-0.2,1,0.9,1.9,1.9,1.3c0.1-0.1,5.9-3.5,6-3.5
				c0.1,0,5.9,3.5,6,3.5c0.9,0.6,2.1-0.3,1.9-1.3c0-0.1-1.6-6.6-1.5-6.8C47.4,15.4,52.5,11,52.6,10.9z M47.1,21.7
				c-5.5-3.3-5.7-3.3-6.1-3.3c-0.4,0-0.6,0-6.1,3.3c1.5-6.3,1.5-6.3,1.3-6.8c-0.1-0.4-0.2-0.5-5-4.7c6.4-0.5,6.6-0.6,6.9-0.9
				c0.2-0.1,0.5-0.5,3-6.5l0,0.3c2.5,5.9,2.6,6,3,6.3c0.3,0.2,0.5,0.4,6.9,0.8c-4.9,4.1-4.9,4.3-5.1,4.7
				C45.6,15.4,45.6,15.4,47.1,21.7z M36.7,11.9c-0.2-0.2-0.5-0.2-0.7,0c-0.2,0.2-0.2,0.5,0,0.7l1.4,1.4c0.2,0.2,0.5,0.2,0.7,0
				c0.2-0.2,0.2-0.5,0-0.7L36.7,11.9z"/>
		</g>
	</g>
	<g>
		<g>
			<path fill-rule="evenodd" clip-rule="evenodd" fill="#39A6E6" d="M81.6,10.9c0.8-0.7,0.4-2.1-0.7-2.2c-0.1,0-6.9-0.6-7-0.7
				c-0.1-0.1-2.7-6.2-2.8-6.4C70.9,1.2,70.5,1,70,1c-0.5,0-0.9,0.2-1.1,0.7c0,0.1-2.7,6.3-2.8,6.4c-0.1,0.1-6.8,0.6-7,0.7
				c-1.1,0.1-1.5,1.5-0.7,2.2c0.1,0.1,5.2,4.5,5.2,4.6c0,0.1-1.5,6.6-1.5,6.8c-0.2,1,0.9,1.9,1.9,1.3c0.1-0.1,5.9-3.5,6-3.5
				c0.1,0,5.9,3.5,6,3.5c0.9,0.6,2.1-0.3,1.9-1.3c0-0.1-1.6-6.6-1.5-6.8C76.4,15.4,81.5,11,81.6,10.9z M76.1,21.7
				c-5.5-3.3-5.7-3.3-6.1-3.3c-0.4,0-0.6,0-6.1,3.3c1.5-6.3,1.5-6.3,1.3-6.8c-0.1-0.4-0.2-0.5-5-4.7c6.4-0.5,6.6-0.6,6.9-0.9
				c0.2-0.1,0.5-0.5,3-6.5l0,0.3c2.5,5.9,2.6,6,3,6.3c0.3,0.2,0.5,0.4,6.9,0.8c-4.9,4.1-4.9,4.3-5.1,4.7
				C74.6,15.4,74.6,15.4,76.1,21.7z M65.7,11.9c-0.2-0.2-0.5-0.2-0.7,0c-0.2,0.2-0.2,0.5,0,0.7l1.4,1.4c0.2,0.2,0.5,0.2,0.7,0
				c0.2-0.2,0.2-0.5,0-0.7L65.7,11.9z"/>
		</g>
	</g>
</g>
<g id="Preview">
</g>
<g id="Download">
</g>
<g id="Upload">
</g>
<g id="Open">
</g>
<g id="Web">
</g>
<g id="Unlocked">
</g>
<g id="Locked">
</g>
<g id="Phone">
</g>
<g id="Email">
</g>
<g id="Graphs">
</g>
<g id="Note">
</g>
<g id="Search">
</g>
<g id="Alarm">
</g>
<g id="Time">
</g>
<g id="Users">
</g>
<g id="User">
</g>
<g id="Refresh">
</g>
<g id="Home">
</g>
<g id="Report">
</g>
<g id="Paste">
</g>
<g id="Copy">
</g>
<g id="Cut">
</g>
<g id="Flag">
</g>
<g id="Redo">
</g>
<g id="Undo">
</g>
<g id="Zoom_Out">
</g>
<g id="Zoom_In">
</g>
<g id="Add_comment">
</g>
<g id="Unread_comment">
</g>
<g id="Comment">
</g>
<g id="New">
</g>
<g id="Attach">
</g>
<g id="Delete">
</g>
<g id="Save">
</g>
<g id="Edit">
</g>
<g id="Print">
</g>
<g id="Guides" display="none" opacity="0.2">
	<rect display="inline" fill-rule="evenodd" clip-rule="evenodd" fill="#0089D9" width="24" height="24"/>
	<rect x="29" display="inline" fill-rule="evenodd" clip-rule="evenodd" fill="#0089D9" width="24" height="24"/>
	<rect x="58" display="inline" fill-rule="evenodd" clip-rule="evenodd" fill="#0089D9" width="24" height="24"/>
</g>
</svg>
