<?xml version="1.0" encoding="utf-8"?>
<!-- Generator: Adobe Illustrator 19.1.0, SVG Export Plug-In . SVG Version: 6.00 Build 0)  -->
<!DOCTYPE svg PUBLIC "-//W3C//DTD SVG 1.1//EN" "http://www.w3.org/Graphics/SVG/1.1/DTD/svg11.dtd">
<svg version="1.1" xmlns="http://www.w3.org/2000/svg" xmlns:xlink="http://www.w3.org/1999/xlink" x="0px" y="0px" width="82px"
	 height="24px" viewBox="0 0 82 24" enable-background="new 0 0 82 24" xml:space="preserve">
<g id="Layer_2">
</g>
<g id="Changelog">
</g>
<g id="Export">
</g>
<g id="PDF">
</g>
<g id="Office_Excel">
</g>
<g id="Office_PowerPoint">
</g>
<g id="Office_Word">
</g>
<g id="Filter">
</g>
<g id="Dislike">
</g>
<g id="Like">
</g>
<g id="Favourite">
</g>
<g id="Preview">
</g>
<g id="Download">
</g>
<g id="Upload">
</g>
<g id="Open">
</g>
<g id="Web">
</g>
<g id="Unlocked">
</g>
<g id="Locked">
</g>
<g id="Phone">
</g>
<g id="Email">
</g>
<g id="Graphs">
	<g>
		<g>
			<path fill-rule="evenodd" clip-rule="evenodd" fill="#FFA526" d="M58,13c0,6.1,4.9,11,11,11c6.1,0,11-4.9,11-11H58z M69,22
				c-6,0-8.6-5.3-8.6-7h17.2C77.6,16.7,75,22,69,22z"/>
		</g>
	</g>
	<path fill-rule="evenodd" clip-rule="evenodd" fill="#0089D9" d="M71,0c0,2,0,11,0,11s9.2,0,11,0C82,5,77.1,0,71,0z M73,2.4
		c3,0,6.7,3.6,6.7,6.6C78.3,9,75,9,73,9C73,7,73,3.4,73,2.4z"/>
	<path fill-rule="evenodd" clip-rule="evenodd" fill="#8EC928" d="M58,12c1.8,0,11,0,11,0s0-9,0-11C62.9,1,58,6,58,12z M67,10
		c-2,0-5.3,0-6.7,0c0-3,3.7-6.7,6.7-6.7C67,4.3,67,8,67,10z"/>
	<g>
		<g>
			<path fill-rule="evenodd" clip-rule="evenodd" fill="#FF8B00" d="M0,13c0,6.1,4.9,11,11,11c6.1,0,11-4.9,11-11H0z M11,22
				c-6,0-8.6-5.3-8.6-7h17.2C19.6,16.7,17,22,11,22z"/>
		</g>
	</g>
	<g>
		<g>
			<path fill-rule="evenodd" clip-rule="evenodd" fill="#C8C8C8" d="M53,11c0-6.1-4.9-11-11-11c0,2,0,11,0,11S51.2,11,53,11z
				 M50.7,9c-1.4,0-4.4,0-6.7,0c0-2,0-5.6,0-6.6C47,2.4,50.7,6,50.7,9z M40,24c6.1,0,11-4.9,11-11c-1.8,0-20.2,0-22,0
				C29,19.1,33.9,24,40,24z M40,22c-6,0-8.6-5.3-8.6-7c2.3,0,15.8,0,17.2,0C48.6,16.7,46,22,40,22z M40,1c-6.1,0-11,4.9-11,11
				c1.8,0,11,0,11,0S40,3,40,1z M38,10c-2.3,0-5.3,0-6.7,0c0-3,3.7-6.7,6.7-6.7C38,4.3,38,8,38,10z"/>
		</g>
	</g>
	<path fill-rule="evenodd" clip-rule="evenodd" fill="#0089D9" d="M13,0c0,2,0,11,0,11s9.2,0,11,0C24,5,19.1,0,13,0z M15,2.4
		c3,0,6.7,3.6,6.7,6.6c-1.4,0-4.4,0-6.7,0C15,7,15,3.4,15,2.4z"/>
	<path fill-rule="evenodd" clip-rule="evenodd" fill="#68A611" d="M0,12c1.8,0,11,0,11,0s0-9,0-11C4.9,1,0,6,0,12z M9,10
		c-2.3,0-5.3,0-6.7,0C2.3,7,6,3.3,9,3.3C9,4.3,9,8,9,10z"/>
</g>
<g id="Note">
</g>
<g id="Search">
</g>
<g id="Alarm">
</g>
<g id="Time">
</g>
<g id="Users">
</g>
<g id="User">
</g>
<g id="Refresh">
</g>
<g id="Home">
</g>
<g id="Report">
</g>
<g id="Paste">
</g>
<g id="Copy">
</g>
<g id="Cut">
</g>
<g id="Flag">
</g>
<g id="Redo">
</g>
<g id="Undo">
</g>
<g id="Zoom_Out">
</g>
<g id="Zoom_In">
</g>
<g id="Add_comment">
</g>
<g id="Unread_comment">
</g>
<g id="Comment">
</g>
<g id="New">
</g>
<g id="Attach">
</g>
<g id="Delete">
</g>
<g id="Save">
</g>
<g id="Edit">
</g>
<g id="Print">
</g>
<g id="Guides" display="none" opacity="0.2">
	<rect display="inline" fill-rule="evenodd" clip-rule="evenodd" fill="#0089D9" width="24" height="24"/>
	<rect x="29" display="inline" fill-rule="evenodd" clip-rule="evenodd" fill="#0089D9" width="24" height="24"/>
	<rect x="58" display="inline" fill-rule="evenodd" clip-rule="evenodd" fill="#0089D9" width="24" height="24"/>
</g>
</svg>
