<?xml version="1.0" encoding="utf-8"?>
<!-- Generator: Adobe Illustrator 19.1.0, SVG Export Plug-In . SVG Version: 6.00 Build 0)  -->
<!DOCTYPE svg PUBLIC "-//W3C//DTD SVG 1.1//EN" "http://www.w3.org/Graphics/SVG/1.1/DTD/svg11.dtd">
<svg version="1.1" xmlns="http://www.w3.org/2000/svg" xmlns:xlink="http://www.w3.org/1999/xlink" x="0px" y="0px" width="82px"
	 height="24px" viewBox="0 0 82 24" enable-background="new 0 0 82 24" xml:space="preserve">
<g id="Layer_2">
</g>
<g id="Changelog">
</g>
<g id="Export">
</g>
<g id="PDF">
</g>
<g id="Office_Excel">
</g>
<g id="Office_PowerPoint">
</g>
<g id="Office_Word">
</g>
<g id="Filter">
</g>
<g id="Dislike">
</g>
<g id="Like">
</g>
<g id="Favourite">
</g>
<g id="Preview">
</g>
<g id="Download">
</g>
<g id="Upload">
</g>
<g id="Open">
</g>
<g id="Web">
</g>
<g id="Unlocked">
</g>
<g id="Locked">
</g>
<g id="Phone">
</g>
<g id="Email">
</g>
<g id="Graphs">
</g>
<g id="Note">
</g>
<g id="Search">
</g>
<g id="Alarm">
</g>
<g id="Time">
</g>
<g id="Users">
</g>
<g id="User">
</g>
<g id="Refresh">
</g>
<g id="Home">
	<g>
		<g>
			<path fill-rule="evenodd" clip-rule="evenodd" fill="#0089D9" d="M16,3L16,3l2,1V3h1v3h2V1h-5v1h0L16,3L16,3L16,3z M20,13
				c-0.6,0-1,0.4-1,1v8h-3l0-6c0,0,0,0,0,0c0-0.6-0.4-1-1-1H9c0,0,0,0,0,0c0,0,0,0,0,0c-0.6,0-1,0.4-1,1l0,6H5v-8c0-0.6-0.4-1-1-1
				s-1,0.4-1,1v9c0,0.6,0.4,1,1,1h5c0.6,0,1-0.4,1-1l0-6h4l0,6c0,0.6,0.4,1,1,1h5c0.6,0,1-0.4,1-1v-9C21,13.4,20.6,13,20,13z
				 M23.7,12.3l-11-11C12.5,1.1,12.3,1,12,1c-0.3,0-0.5,0.1-0.7,0.3l-11,11c-0.4,0.4-0.4,1,0,1.4c0.4,0.4,1,0.4,1.4,0L12,3.4
				l10.3,10.3c0.4,0.4,1,0.4,1.4,0C24.1,13.3,24.1,12.7,23.7,12.3z"/>
		</g>
	</g>
	<g>
		<g>
			<path fill-rule="evenodd" clip-rule="evenodd" fill="#C8C8C8" d="M45,3L45,3l2,1V3h1v3h2V1h-1h-1h-3v1h0L45,3L45,3L45,3z M49,13
				c-0.6,0-1,0.4-1,1v8h-3l0-6c0,0,0,0,0,0c0-0.6-0.4-1-1-1h-6c0,0,0,0,0,0c0,0,0,0,0,0c-0.6,0-1,0.4-1,1l0,6h-3v-8c0-0.6-0.4-1-1-1
				s-1,0.4-1,1v9c0,0.6,0.4,1,1,1h5c0.6,0,1-0.4,1-1l0-6h4l0,6c0,0.6,0.4,1,1,1h5c0.6,0,1-0.4,1-1v-9C50,13.4,49.6,13,49,13z
				 M52.7,12.3l-11-11C41.5,1.1,41.3,1,41,1c-0.3,0-0.5,0.1-0.7,0.3l-11,11c-0.4,0.4-0.4,1,0,1.4c0.4,0.4,1,0.4,1.4,0L41,3.4
				l10.3,10.3c0.4,0.4,1,0.4,1.4,0C53.1,13.3,53.1,12.7,52.7,12.3z"/>
		</g>
	</g>
	<g>
		<g>
			<path fill-rule="evenodd" clip-rule="evenodd" fill="#39A6E6" d="M74,3L74,3l2,1V3h1v3h2V1h-5v1h0L74,3L74,3L74,3z M78,13
				c-0.6,0-1,0.4-1,1v8h-3l0-6c0,0,0,0,0,0c0-0.6-0.4-1-1-1h-6c0,0,0,0,0,0c0,0,0,0,0,0c-0.6,0-1,0.4-1,1l0,6h-3v-8c0-0.6-0.4-1-1-1
				s-1,0.4-1,1v9c0,0.6,0.4,1,1,1h5c0.6,0,1-0.4,1-1l0-6h4l0,6c0,0.6,0.4,1,1,1h5c0.6,0,1-0.4,1-1v-9C79,13.4,78.6,13,78,13z
				 M81.7,12.3l-11-11C70.5,1.1,70.3,1,70,1c-0.3,0-0.5,0.1-0.7,0.3l-11,11c-0.4,0.4-0.4,1,0,1.4c0.4,0.4,1,0.4,1.4,0L70,3.4
				l10.3,10.3c0.4,0.4,1,0.4,1.4,0C82.1,13.3,82.1,12.7,81.7,12.3z"/>
		</g>
	</g>
</g>
<g id="Report">
</g>
<g id="Paste">
</g>
<g id="Copy">
</g>
<g id="Cut">
</g>
<g id="Flag">
</g>
<g id="Redo">
</g>
<g id="Undo">
</g>
<g id="Zoom_Out">
</g>
<g id="Zoom_In">
</g>
<g id="Add_comment">
</g>
<g id="Unread_comment">
</g>
<g id="Comment">
</g>
<g id="New">
</g>
<g id="Attach">
</g>
<g id="Delete">
</g>
<g id="Save">
</g>
<g id="Edit">
</g>
<g id="Print">
</g>
<g id="Guides" display="none" opacity="0.2">
	<rect display="inline" fill-rule="evenodd" clip-rule="evenodd" fill="#0089D9" width="24" height="24"/>
	<rect x="29" display="inline" fill-rule="evenodd" clip-rule="evenodd" fill="#0089D9" width="24" height="24"/>
	<rect x="58" display="inline" fill-rule="evenodd" clip-rule="evenodd" fill="#0089D9" width="24" height="24"/>
</g>
</svg>
