<?xml version="1.0" encoding="utf-8"?>
<!-- Generator: Adobe Illustrator 19.1.1, SVG Export Plug-In . SVG Version: 6.00 Build 0)  -->
<!DOCTYPE svg PUBLIC "-//W3C//DTD SVG 1.1//EN" "http://www.w3.org/Graphics/SVG/1.1/DTD/svg11.dtd">
<svg version="1.1" xmlns="http://www.w3.org/2000/svg" xmlns:xlink="http://www.w3.org/1999/xlink" x="0px" y="0px" width="82px"
	 height="24px" viewBox="0 0 82 24" enable-background="new 0 0 82 24" xml:space="preserve">
<g id="Layer_62">
</g>
<g id="Layer_63">
</g>
<g id="Layer_64">
</g>
<g id="Layer_65">
</g>
<g id="Layer_66">
</g>
<g id="Layer_67">
</g>
<g id="Layer_68">
</g>
<g id="Layer_69">
</g>
<g id="Layer_70">
</g>
<g id="Layer_71">
</g>
<g id="Layer_72">
</g>
<g id="Layer_73">
</g>
<g id="Layer_74">
</g>
<g id="Layer_75">
</g>
<g id="Layer_76">
</g>
<g id="Layer_77">
</g>
<g id="Layer_78">
</g>
<g id="Layer_79">
</g>
<g id="Layer_80">
</g>
<g id="Layer_81">
</g>
<g id="Layer_82">
</g>
<g id="Layer_83">
</g>
<g id="Layer_84">
</g>
<g id="Layer_85">
</g>
<g id="Layer_86">
</g>
<g id="Layer_87">
</g>
<g id="Layer_88">
</g>
<g id="Layer_89">
</g>
<g id="Layer_90">
</g>
<g id="Layer_91">
</g>
<g id="Layer_92">
</g>
<g id="Layer_93">
</g>
<g id="Layer_94">
</g>
<g id="Layer_95">
</g>
<g id="Layer_96">
</g>
<g id="Layer_97">
</g>
<g id="Layer_98">
</g>
<g id="Layer_99">
</g>
<g id="Layer_100">
</g>
<g id="Layer_101">
</g>
<g id="Layer_102">
</g>
<g id="Special_Day">
</g>
<g id="Vacation_1_">
</g>
<g id="Parental_Leave_x2F_Toys">
</g>
<g id="Absence_1_">
</g>
<g id="Attendance">
</g>
<g id="Overtime">
</g>
<g id="Working_Day">
</g>
<g id="Adjust_Hours">
</g>
<g id="Roster">
</g>
<g id="Summary">
</g>
<g id="Lodging">
</g>
<g id="Daily_Allowance">
</g>
<g id="Mileage">
</g>
<g id="Birth">
</g>
<g id="Absence">
</g>
<g id="Holiday">
</g>
<g id="Bonus_x2F_Ghift">
</g>
<g id="Vacation">
</g>
<g id="Sickness">
</g>
<g id="Sick_Child">
</g>
<g id="Parental_Leave">
</g>
<g id="Order_Closed">
</g>
<g id="Create_an_Order_1_">
</g>
<g id="Order_Imported">
</g>
<g id="Delivery_Reception_1_">
</g>
<g id="Delivery_Notification_1_">
</g>
<g id="Delivery_Reception">
</g>
<g id="Events">
</g>
<g id="Comment_to_Order">
</g>
<g id="Special_Approved">
</g>
<g id="Narrow">
</g>
<g id="Wide">
</g>
<g id="Content_Edit">
</g>
<g id="Storage_x2F_In_Stock">
</g>
<g id="Environmental">
</g>
<g id="View_Time_Report">
</g>
<g id="Incoming">
</g>
<g id="Shared_User">
</g>
<g id="Add_to_Requisition_Template">
</g>
<g id="Future">
</g>
<g id="History">
</g>
<g id="Managers_Time_Registration">
</g>
<g id="Payroll_Calculations">
</g>
<g id="Comment_Chat">
</g>
<g id="Comment_Web_Reply">
</g>
<g id="Comment_Community">
</g>
<g id="Platform_Mobile">
</g>
<g id="Platform_Cloud">
</g>
<g id="Jira">
</g>
<g id="Change_Owner">
</g>
<g id="Change_Width">
</g>
<g id="Help">
	<g>
		<path fill="#0089D9" d="M157,0c-6.6,0-12,5.4-12,12s5.4,12,12,12s12-5.4,12-12S163.6,0,157,0z"/>
		<rect x="156.1" y="16" fill="#FFFFFF" width="1.8" height="2"/>
		<path fill="#FFFFFF" d="M157,6c-2.3,0.1-3.5,2-3.7,4h1.6c0,0,0.1-2.3,2-2.4c1.3,0,2.1,1.1,2.1,2.2c0,0.7-0.4,1.2-0.9,1.6
			c-1,0.8-2,2-2,3.5l1.7,0c0-1.2,0.6-1.8,1.2-2.3c1-0.8,1.7-1.5,1.7-3.1C160.7,7.5,159,5.9,157,6z"/>
	</g>
	<g>
		<path fill="#39A6E6" d="M70,0c-6.6,0-12,5.4-12,12s5.4,12,12,12s12-5.4,12-12S76.6,0,70,0z M70,22c-5.5,0-10-4.5-10-10
			c0-5.5,4.5-10,10-10s10,4.5,10,10C80,17.5,75.5,22,70,22z"/>
		<rect x="69.1" y="16" fill="#39A6E6" width="1.8" height="2"/>
		<path fill="#39A6E6" d="M70,6c-2.3,0.1-3.5,2-3.7,4H68c0,0,0.1-2.3,2-2.4c1.3,0,2.1,1.1,2.1,2.2c0,0.7-0.4,1.2-0.9,1.6
			c-1,0.8-2,2-2,3.5l1.7,0c0-1.2,0.6-1.8,1.2-2.3c1-0.8,1.7-1.5,1.7-3.1C73.7,7.5,72,5.9,70,6z"/>
	</g>
	<g>
		<path fill="#FFFFFF" d="M99,0c-6.6,0-12,5.4-12,12s5.4,12,12,12s12-5.4,12-12S105.6,0,99,0z M99,22c-5.5,0-10-4.5-10-10
			c0-5.5,4.5-10,10-10s10,4.5,10,10C109,17.5,104.5,22,99,22z"/>
		<rect x="98.1" y="16" fill="#FFFFFF" width="1.8" height="2"/>
		<path fill="#FFFFFF" d="M99,6c-2.3,0.1-3.5,2-3.7,4H97c0,0,0.1-2.3,2-2.4c1.3,0,2.1,1.1,2.1,2.2c0,0.7-0.4,1.2-0.9,1.6
			c-1,0.8-2,2-2,3.5l1.7,0c0-1.2,0.6-1.8,1.2-2.3c1-0.8,1.7-1.5,1.7-3.1C102.7,7.5,101,5.9,99,6z"/>
	</g>
	<g>
		<path fill="#737373" d="M128,0c-6.6,0-12,5.4-12,12s5.4,12,12,12s12-5.4,12-12S134.6,0,128,0z M128,22c-5.5,0-10-4.5-10-10
			c0-5.5,4.5-10,10-10s10,4.5,10,10C138,17.5,133.5,22,128,22z"/>
		<rect x="127.1" y="16" fill="#737373" width="1.8" height="2"/>
		<path fill="#737373" d="M128,6c-2.3,0.1-3.5,2-3.7,4h1.6c0,0,0.1-2.3,2-2.4c1.3,0,2.1,1.1,2.1,2.2c0,0.7-0.4,1.2-0.9,1.6
			c-1,0.8-2,2-2,3.5l1.7,0c0-1.2,0.6-1.8,1.2-2.3c1-0.8,1.7-1.5,1.7-3.1C131.7,7.5,130,5.9,128,6z"/>
	</g>
	<g>
		<path fill="#D7D7D7" d="M41,0c-6.6,0-12,5.4-12,12s5.4,12,12,12s12-5.4,12-12S47.6,0,41,0z M41,22c-5.5,0-10-4.5-10-10
			c0-5.5,4.5-10,10-10s10,4.5,10,10C51,17.5,46.5,22,41,22z"/>
		<rect x="40.1" y="16" fill="#D7D7D7" width="1.8" height="2"/>
		<path fill="#D7D7D7" d="M41,6c-2.3,0.1-3.5,2-3.7,4H39c0,0,0.1-2.3,2-2.4c1.3,0,2.1,1.1,2.1,2.2c0,0.7-0.4,1.2-0.9,1.6
			c-1,0.8-2,2-2,3.5l1.7,0c0-1.2,0.6-1.8,1.2-2.3c1-0.8,1.7-1.5,1.7-3.1C44.7,7.5,43,5.9,41,6z"/>
	</g>
	<g>
		<path fill="#0089D9" d="M12,0C5.4,0,0,5.4,0,12s5.4,12,12,12s12-5.4,12-12S18.6,0,12,0z M12,22C6.5,22,2,17.5,2,12
			C2,6.5,6.5,2,12,2s10,4.5,10,10C22,17.5,17.5,22,12,22z"/>
		<rect x="11.1" y="16" fill="#0089D9" width="1.8" height="2"/>
		<path fill="#0089D9" d="M12,6c-2.3,0.1-3.5,2-3.7,4H10c0,0,0.1-2.3,2-2.4c1.3,0,2.1,1.1,2.1,2.2c0,0.7-0.4,1.2-0.9,1.6
			c-1,0.8-2,2-2,3.5l1.7,0c0-1.2,0.6-1.8,1.2-2.3c1-0.8,1.7-1.5,1.7-3.1C15.7,7.5,14,5.9,12,6z"/>
	</g>
</g>
<g id="Agreement">
</g>
<g id="Storage">
</g>
<g id="Tile_View">
</g>
<g id="List_View">
</g>
<g id="Sort_List">
</g>
<g id="User_List_2">
</g>
<g id="User_List_1">
</g>
<g id="Exclude">
</g>
<g id="Sending_Failed">
</g>
<g id="Send">
</g>
<g id="Logon_Failed">
</g>
<g id="Coffee_Break">
</g>
<g id="Lunch">
</g>
<g id="Add_User">
</g>
<g id="Alert">
</g>
<g id="Detach">
</g>
<g id="Office_Building">
</g>
<g id="User_Placeholder">
</g>
<g id="Education">
</g>
<g id="Folder_Building">
</g>
<g id="User_Folder">
</g>
<g id="Location">
</g>
<g id="Exit_Full_Screen">
</g>
<g id="Enter_Full_Screen">
</g>
<g id="Hourglass">
</g>
<g id="Undefined_Document">
</g>
<g id="Sound">
</g>
<g id="XML">
</g>
<g id="Database">
</g>
<g id="Video">
</g>
<g id="Archive_Document">
</g>
<g id="Text_Files">
</g>
<g id="Breadcrumbs_Folder">
</g>
<g id="Share_with_me">
</g>
<g id="Evaluate">
</g>
<g id="Contract">
</g>
<g id="Price">
</g>
<g id="Secret_Document">
</g>
<g id="Drag">
</g>
<g id="Document_Info">
</g>
<g id="Panel">
</g>
<g id="Rotate_CCW">
</g>
<g id="Rotate_CW">
</g>
<g id="Replace">
</g>
<g id="Link">
</g>
<g id="Note_Filled">
</g>
<g id="Note_Blank">
</g>
<g id="Announcement">
</g>
<g id="Guides" display="none" opacity="0.2">
	<rect display="inline" fill-rule="evenodd" clip-rule="evenodd" fill="#0089D9" width="24" height="24"/>
	<rect x="29" display="inline" fill-rule="evenodd" clip-rule="evenodd" fill="#0089D9" width="24" height="24"/>
	<rect x="58" display="inline" fill-rule="evenodd" clip-rule="evenodd" fill="#0089D9" width="24" height="24"/>
	<rect x="87" display="inline" fill-rule="evenodd" clip-rule="evenodd" fill="#0089D9" width="24" height="24"/>
	<rect x="116" display="inline" fill-rule="evenodd" clip-rule="evenodd" fill="#0089D9" width="24" height="24"/>
	<rect x="145" display="inline" fill-rule="evenodd" clip-rule="evenodd" fill="#0089D9" width="24" height="24"/>
</g>
</svg>
