<?xml version="1.0" encoding="utf-8"?>
<!-- Generator: Adobe Illustrator 19.1.0, SVG Export Plug-In . SVG Version: 6.00 Build 0)  -->
<!DOCTYPE svg PUBLIC "-//W3C//DTD SVG 1.1//EN" "http://www.w3.org/Graphics/SVG/1.1/DTD/svg11.dtd">
<svg version="1.1" xmlns="http://www.w3.org/2000/svg" xmlns:xlink="http://www.w3.org/1999/xlink" x="0px" y="0px" width="82px"
	 height="24px" viewBox="0 0 82 24" enable-background="new 0 0 82 24" xml:space="preserve">
<g id="Layer_2">
</g>
<g id="Changelog">
</g>
<g id="Export">
</g>
<g id="PDF">
</g>
<g id="Office_Excel">
</g>
<g id="Office_PowerPoint">
</g>
<g id="Office_Word">
</g>
<g id="Filter">
</g>
<g id="Dislike">
</g>
<g id="Like">
	<g>
		<g>
			<path fill-rule="evenodd" clip-rule="evenodd" fill="#0089D9" d="M1.9,23.9c1,0,1,0,2,0v-12c-1,0-1,0-2,0
				C0.4,12.9,0.9,22.9,1.9,23.9z M23.9,15.2c0-1.1-0.9-1.1-1-1.8c-0.1-0.8,0.8-1.3,0.5-2.4c-0.1-0.6-0.9-0.9-1.6-1.1
				c-0.9-0.2-4.5,0.2-5.4-0.7c-1.2-1.2,0.5-2.4,0.5-5.1c0-3.1-2.1-5.2-4.9-3.4c0.6,1.5,0.3,3-0.7,4.8C10,10,7.1,11.6,4.9,12.9v10
				c3.7,0,6.1,0.8,8.6,0.9c3.3,0.2,6.3-0.6,6.8-0.8c1.7-0.4,1.2-1.7,1.6-2.4c0.4-0.7,1.1-0.5,1.4-1.5c0.2-0.9-0.5-1.1-0.5-1.7
				C22.9,16.5,23.9,16.4,23.9,15.2z M20.9,16.7c-0.1,0.7,0.4,1.1,0.3,1.7c-0.2,0.6-0.8,0.5-1.1,1.2c-0.3,0.7,0.1,1.6-1.3,1.9
				c-0.4,0.1-2.4,0.6-5,0.5c-2-0.1-3.9-1-6.8-1v-7.2c2-0.9,5.5-3.3,6-7.5c0.8-1,1.1-2.4,0.7-3.6c1.6-0.6,1.6,1.6,0.9,3.2
				c-0.8,1.9-1.6,4-0.6,4.9c0.8,0.8,5.1,0.9,5.8,0.9c0.6,0,1.3,0.2,1.4,0.4c0.2,0.6-0.2,1.2-0.1,1.7c0.1,0.5,0.9,0.8,0.9,1.4
				C22,15.8,21,15.9,20.9,16.7z"/>
		</g>
	</g>
	<g>
		<g>
			<path fill-rule="evenodd" clip-rule="evenodd" fill="#C8C8C8" d="M31.1,23.9c1,0,1,0,2,0c0-2,0-10,0-12c-1,0-1,0-2,0
				C29.6,12.9,30.1,22.9,31.1,23.9z M53,15.2c0-1.1-0.9-1.1-1-1.8c-0.1-0.8,0.8-1.3,0.5-2.4c-0.1-0.6-0.9-0.9-1.6-1.1
				c-0.9-0.2-4.5,0.2-5.4-0.7C44.3,8,46,6.7,46,4.1c0-3.1-2.1-5.2-4.9-3.4c0.6,1.5,0.3,3-0.7,4.8c-1.4,4.5-4.3,6.1-6.4,7.4
				c0,2,0,8,0,10c3.7,0,6.1,0.8,8.6,0.9C46,24,49,23.1,49.5,23c1.7-0.4,1.2-1.7,1.6-2.4c0.4-0.7,1.1-0.5,1.4-1.5
				c0.2-0.9-0.5-1.1-0.5-1.7C52,16.5,53,16.4,53,15.2z M50,16.7c-0.1,0.7,0.4,1.1,0.3,1.7c-0.2,0.6-0.8,0.5-1.1,1.2
				c-0.3,0.7,0.1,1.6-1.3,1.9c-0.4,0.1-2.4,0.6-5,0.5c-2-0.1-3.9-1-6.8-1c0-1.6,0-5.6,0-7.2c2-0.9,5.5-3.3,6-7.5
				c0.8-1,1.1-2.4,0.7-3.6c1.6-0.6,1.6,1.6,0.9,3.2c-0.8,1.9-1.6,4-0.6,4.9c0.8,0.8,5.1,0.9,5.8,0.9c0.6,0,1.3,0.2,1.4,0.4
				c0.2,0.6-0.2,1.2-0.1,1.7c0.1,0.5,0.9,0.8,0.9,1.4C51.1,15.8,50.1,15.9,50,16.7z"/>
		</g>
	</g>
	<g>
		<g>
			<path fill-rule="evenodd" clip-rule="evenodd" fill="#39A6E6" d="M60.1,23.9c1,0,1,0,2,0v-12c-1,0-1,0-2,0
				C58.6,12.9,59.1,22.9,60.1,23.9z M82,15.2c0-1.1-0.9-1.1-1-1.8c-0.1-0.8,0.8-1.3,0.5-2.4c-0.1-0.6-0.9-0.9-1.6-1.1
				c-0.9-0.2-4.5,0.2-5.4-0.7C73.3,8,75,6.7,75,4.1c0-3.1-2.1-5.2-4.9-3.4c0.6,1.5,0.3,3-0.7,4.8c-1.4,4.5-4.3,6.1-6.4,7.4v10
				c3.7,0,6.1,0.8,8.6,0.9C75,24,78,23.1,78.5,23c1.7-0.4,1.2-1.7,1.6-2.4c0.4-0.7,1.1-0.5,1.4-1.5c0.2-0.9-0.5-1.1-0.5-1.7
				C81,16.5,82,16.4,82,15.2z M79,16.7c-0.1,0.7,0.4,1.1,0.3,1.7c-0.2,0.6-0.8,0.5-1.1,1.2c-0.3,0.7,0.1,1.6-1.3,1.9
				c-0.4,0.1-2.4,0.6-5,0.5c-2-0.1-3.9-1-6.8-1v-7.2c2-0.9,5.5-3.3,6-7.5c0.8-1,1.1-2.4,0.7-3.6c1.6-0.6,1.6,1.6,0.9,3.2
				c-0.8,1.9-1.6,4-0.6,4.9c0.8,0.8,5.1,0.9,5.8,0.9c0.6,0,1.3,0.2,1.4,0.4c0.2,0.6-0.2,1.2-0.1,1.7c0.1,0.5,0.9,0.8,0.9,1.4
				C80.1,15.8,79.1,15.9,79,16.7z"/>
		</g>
	</g>
</g>
<g id="Favourite">
</g>
<g id="Preview">
</g>
<g id="Download">
</g>
<g id="Upload">
</g>
<g id="Open">
</g>
<g id="Web">
</g>
<g id="Unlocked">
</g>
<g id="Locked">
</g>
<g id="Phone">
</g>
<g id="Email">
</g>
<g id="Graphs">
</g>
<g id="Note">
</g>
<g id="Search">
</g>
<g id="Alarm">
</g>
<g id="Time">
</g>
<g id="Users">
</g>
<g id="User">
</g>
<g id="Refresh">
</g>
<g id="Home">
</g>
<g id="Report">
</g>
<g id="Paste">
</g>
<g id="Copy">
</g>
<g id="Cut">
</g>
<g id="Flag">
</g>
<g id="Redo">
</g>
<g id="Undo">
</g>
<g id="Zoom_Out">
</g>
<g id="Zoom_In">
</g>
<g id="Add_comment">
</g>
<g id="Unread_comment">
</g>
<g id="Comment">
</g>
<g id="New">
</g>
<g id="Attach">
</g>
<g id="Delete">
</g>
<g id="Save">
</g>
<g id="Edit">
</g>
<g id="Print">
</g>
<g id="Guides" display="none" opacity="0.2">
	<rect display="inline" fill-rule="evenodd" clip-rule="evenodd" fill="#0089D9" width="24" height="24"/>
	<rect x="29" display="inline" fill-rule="evenodd" clip-rule="evenodd" fill="#0089D9" width="24" height="24"/>
	<rect x="58" display="inline" fill-rule="evenodd" clip-rule="evenodd" fill="#0089D9" width="24" height="24"/>
</g>
</svg>
