<?xml version="1.0" encoding="utf-8"?>
<!-- Generator: Adobe Illustrator 19.1.0, SVG Export Plug-In . SVG Version: 6.00 Build 0)  -->
<!DOCTYPE svg PUBLIC "-//W3C//DTD SVG 1.1//EN" "http://www.w3.org/Graphics/SVG/1.1/DTD/svg11.dtd">
<svg version="1.1" xmlns="http://www.w3.org/2000/svg" xmlns:xlink="http://www.w3.org/1999/xlink" x="0px" y="0px" width="82px"
	 height="24px" viewBox="0 0 82 24" enable-background="new 0 0 82 24" xml:space="preserve">
<g id="Layer_2">
</g>
<g id="Changelog">
</g>
<g id="Export">
</g>
<g id="PDF">
</g>
<g id="Office_Excel">
</g>
<g id="Office_PowerPoint">
</g>
<g id="Office_Word">
</g>
<g id="Filter">
</g>
<g id="Dislike">
</g>
<g id="Like">
</g>
<g id="Favourite">
</g>
<g id="Preview">
</g>
<g id="Download">
</g>
<g id="Upload">
</g>
<g id="Open">
</g>
<g id="Web">
</g>
<g id="Unlocked">
</g>
<g id="Locked">
</g>
<g id="Phone">
</g>
<g id="Email">
</g>
<g id="Graphs">
</g>
<g id="Note">
	<g>
		<g>
			<path fill-rule="evenodd" clip-rule="evenodd" fill="#0089D9" d="M17.6,5.4L17.6,5.4l-0.1,0.1l-0.4,0.4l0,0l-3.5,3.5v1h1l3.5-3.5
				L19,7.8l-7.7,7.7l2.1,2.1L24.2,7L22,4.8l-2,2l-2-1.9L17.6,5.4z M10.5,16.4l-1.7,3.8l3.8-1.7l0.1-0.1l-2.1-2.1L10.5,16.4z M18,22
				H2V8h6V2h10v1l2,2V0H6.3l0,0H6v0.3l-6,6V24h20V13l-2,2V22z M6,2.5V6H2.4L6,2.5z"/>
		</g>
	</g>
	<g>
		<g>
			<path fill-rule="evenodd" clip-rule="evenodd" fill="#C8C8C8" d="M46.6,5.4L46.6,5.4l-0.1,0.1l-0.4,0.4l0,0l-3.5,3.5v1h1l3.5-3.5
				L48,7.8l-7.7,7.7l2.1,2.1L53.2,7L51,4.8l-2,2l-2-1.9L46.6,5.4z M39.5,16.4l-1.7,3.8l3.8-1.7l0.1-0.1l-2.1-2.1L39.5,16.4z M47,22
				H31V8h4h2V6V2h10v1l2,2V0H35.3l0,0H35v0.3l-6,6V24h20V13l-2,2V22z M35,2.5V6h-3.6L35,2.5z"/>
		</g>
	</g>
	<g>
		<g>
			<path fill-rule="evenodd" clip-rule="evenodd" fill="#39A6E6" d="M75.6,5.4L75.6,5.4l-0.1,0.1l-0.4,0.4l0,0l-3.5,3.5v1h1l3.5-3.5
				L77,7.8l-7.7,7.7l2.1,2.1L82.2,7L80,4.8l-2,2l-2-1.9L75.6,5.4z M76,22H60V8h4h2V6V2h10v1l2,2V0H64.3l0,0H64v0.3l-6,6V24h20V13
				l-2,2V22z M64,2.5V6h-3.6L64,2.5z M68.5,16.4l-1.7,3.8l3.8-1.7l0.1-0.1l-2.1-2.1L68.5,16.4z"/>
		</g>
	</g>
</g>
<g id="Search">
</g>
<g id="Alarm">
</g>
<g id="Time">
</g>
<g id="Users">
</g>
<g id="User">
</g>
<g id="Refresh">
</g>
<g id="Home">
</g>
<g id="Report">
</g>
<g id="Paste">
</g>
<g id="Copy">
</g>
<g id="Cut">
</g>
<g id="Flag">
</g>
<g id="Redo">
</g>
<g id="Undo">
</g>
<g id="Zoom_Out">
</g>
<g id="Zoom_In">
</g>
<g id="Add_comment">
</g>
<g id="Unread_comment">
</g>
<g id="Comment">
</g>
<g id="New">
</g>
<g id="Attach">
</g>
<g id="Delete">
</g>
<g id="Save">
</g>
<g id="Edit">
</g>
<g id="Print">
</g>
<g id="Guides" display="none" opacity="0.2">
	<rect display="inline" fill-rule="evenodd" clip-rule="evenodd" fill="#0089D9" width="24" height="24"/>
	<rect x="29" display="inline" fill-rule="evenodd" clip-rule="evenodd" fill="#0089D9" width="24" height="24"/>
	<rect x="58" display="inline" fill-rule="evenodd" clip-rule="evenodd" fill="#0089D9" width="24" height="24"/>
</g>
</svg>
