<?xml version="1.0" encoding="utf-8"?>
<!-- Generator: Adobe Illustrator 19.1.0, SVG Export Plug-In . SVG Version: 6.00 Build 0)  -->
<!DOCTYPE svg PUBLIC "-//W3C//DTD SVG 1.1//EN" "http://www.w3.org/Graphics/SVG/1.1/DTD/svg11.dtd">
<svg version="1.1" xmlns="http://www.w3.org/2000/svg" xmlns:xlink="http://www.w3.org/1999/xlink" x="0px" y="0px" width="82px"
	 height="24px" viewBox="0 0 82 24" enable-background="new 0 0 82 24" xml:space="preserve">
<g id="Layer_2">
</g>
<g id="Changelog">
</g>
<g id="Export">
</g>
<g id="PDF">
</g>
<g id="Office_Excel">
</g>
<g id="Office_PowerPoint">
</g>
<g id="Office_Word">
</g>
<g id="Filter">
</g>
<g id="Dislike">
</g>
<g id="Like">
</g>
<g id="Favourite">
</g>
<g id="Preview">
</g>
<g id="Download">
</g>
<g id="Upload">
</g>
<g id="Open">
	<g>
		<g>
			<path fill-rule="evenodd" clip-rule="evenodd" fill="#0089D9" d="M23,8V6c0-1-1-2-2-2h-8.5l-1.6-1.9C10.3,1.3,9.7,1,8.5,1h-5
				C1.9,1,1,1.9,1,3.6V8C0.4,8,0,8.4,0,9l1,10c0,1.7,1.3,3,3,3h16c1.7,0,3-1.3,3-3l1-10C24,8.4,23.6,8,23,8z M3,4c0-0.6,0.4-1,1-1h4
				c1,0,1.8,0.7,2,1l2,2h8c0.6,0,1,0.4,1,1v1H3V4z M21,19c0,1.1-0.9,1-2,1H5c-1.1,0-2,0.1-2-1l-1-9c0-0.6,0.4-1,1-1h18
				c0.6,0,1,0.4,1,1L21,19z"/>
		</g>
	</g>
	<g>
		<g>
			<path fill-rule="evenodd" clip-rule="evenodd" fill="#C8C8C8" d="M52,8V6c0-1-1-2-2-2h-8.5l-1.6-1.9C39.3,1.3,38.7,1,37.5,1h-5
				C30.9,1,30,1.9,30,3.6V8c-0.6,0-1,0.4-1,1l1,10c0,1.7,1.3,3,3,3h16c1.7,0,3-1.3,3-3l1-10C53,8.4,52.6,8,52,8z M32,4
				c0-0.6,0.4-1,1-1h4c1,0,1.8,0.7,2,1l2,2h8c0.6,0,1,0.4,1,1v1H32V4z M50,19c0,1.1-0.9,1-2,1H34c-1.1,0-2,0.1-2-1l-1-9
				c0-0.6,0.4-1,1-1h18c0.6,0,1,0.4,1,1L50,19z"/>
		</g>
	</g>
	<g>
		<g>
			<path fill-rule="evenodd" clip-rule="evenodd" fill="#39A6E6" d="M81,8V6c0-1-1-2-2-2h-8.5l-1.6-1.9C68.3,1.3,67.7,1,66.5,1h-5
				C59.9,1,59,1.9,59,3.6V8c-0.6,0-1,0.4-1,1l1,10c0,1.7,1.3,3,3,3h16c1.7,0,3-1.3,3-3l1-10C82,8.4,81.6,8,81,8z M61,4
				c0-0.6,0.4-1,1-1h4c1,0,1.8,0.7,2,1l2,2h8c0.6,0,1,0.4,1,1v1H61V4z M79,19c0,1.1-0.9,1-2,1H63c-1.1,0-2,0.1-2-1l-1-9
				c0-0.6,0.4-1,1-1h18c0.6,0,1,0.4,1,1L79,19z"/>
		</g>
	</g>
</g>
<g id="Web">
</g>
<g id="Unlocked">
</g>
<g id="Locked">
</g>
<g id="Phone">
</g>
<g id="Email">
</g>
<g id="Graphs">
</g>
<g id="Note">
</g>
<g id="Search">
</g>
<g id="Alarm">
</g>
<g id="Time">
</g>
<g id="Users">
</g>
<g id="User">
</g>
<g id="Refresh">
</g>
<g id="Home">
</g>
<g id="Report">
</g>
<g id="Paste">
</g>
<g id="Copy">
</g>
<g id="Cut">
</g>
<g id="Flag">
</g>
<g id="Redo">
</g>
<g id="Undo">
</g>
<g id="Zoom_Out">
</g>
<g id="Zoom_In">
</g>
<g id="Add_comment">
</g>
<g id="Unread_comment">
</g>
<g id="Comment">
</g>
<g id="New">
</g>
<g id="Attach">
</g>
<g id="Delete">
</g>
<g id="Save">
</g>
<g id="Edit">
</g>
<g id="Print">
</g>
<g id="Guides" display="none" opacity="0.2">
	<rect display="inline" fill-rule="evenodd" clip-rule="evenodd" fill="#0089D9" width="24" height="24"/>
	<rect x="29" display="inline" fill-rule="evenodd" clip-rule="evenodd" fill="#0089D9" width="24" height="24"/>
	<rect x="58" display="inline" fill-rule="evenodd" clip-rule="evenodd" fill="#0089D9" width="24" height="24"/>
</g>
</svg>
