<?xml version="1.0" encoding="utf-8"?>
<!-- Generator: Adobe Illustrator 19.1.0, SVG Export Plug-In . SVG Version: 6.00 Build 0)  -->
<!DOCTYPE svg PUBLIC "-//W3C//DTD SVG 1.1//EN" "http://www.w3.org/Graphics/SVG/1.1/DTD/svg11.dtd">
<svg version="1.1" xmlns="http://www.w3.org/2000/svg" xmlns:xlink="http://www.w3.org/1999/xlink" x="0px" y="0px" width="82px"
	 height="24px" viewBox="0 0 82 24" enable-background="new 0 0 82 24" xml:space="preserve">
<g id="Layer_2">
</g>
<g id="Changelog">
</g>
<g id="Export">
</g>
<g id="PDF">
	<g>
		<g>
			<path fill-rule="evenodd" clip-rule="evenodd" fill="#0089D9" d="M16,0.3V0h-0.3l0,0L2,0v24h20l0-17.7L16,0.3z M19.6,6H16V2.5
				L19.6,6z M4,22V2h10v6h6v14H4z"/>
		</g>
	</g>
	<path fill="#D6565A" d="M5.9,20.2c-0.2,0-0.3,0-0.5-0.1l-0.3-0.2c-0.2-0.1-0.3-0.4-0.2-0.6c0.1-0.7,0.8-1.2,2-1.9
		c0.1-0.1,0.8-0.4,0.8-0.4l0.1,0.2c0.4-0.7,0.9-1.5,1.4-2.5l0.1-0.1c0.4-0.8,0.8-1.7,1.2-2.5l0.1-0.3c-0.5-1.9-0.8-3.4-0.5-4.4
		c0.1-0.3,0.4-0.6,0.9-0.6l0.2,0c0.6,0,0.7,0.6,0.7,0.9c0,0.4-0.1,1.1-0.1,1.1l-0.2-0.1c0-0.3,0-0.6-0.1-0.9
		c-0.1-0.3-0.2-0.4-0.3-0.5c0,0,0,0.1,0,0.1C11,7.6,11,8,11,8.1c0,0.5,0.1,1.1,0.2,1.7c0.1-0.5,0.3-1.2,0.3-1.2l0.2,0.1
		c0,0.1,0.1,1.8-0.1,2.3c0,0.1,0,0.2-0.1,0.3c0.4,1.1,1.1,2.1,1.9,2.9c0.3,0.3,0.7,0.5,1,0.7c0.8,0.2,1.3,0.3,2.1,0.1l0.1,0
		c1,0,1.4,0.1,1.9,0.2c0.2,0,0.2,0.3,0.3,0.6c0,0.1,0,0.3,0,0.3L18.6,16l0.3,0.1c0,0.1-0.1,0.4-0.2,0.5c-0.1,0.2-0.3,0.3-0.5,0.3
		c-0.1,0-0.3,0-0.4,0c-1,0-2.5-0.5-3.7-1.2c-1.6,0.2-3.5,0.8-5,1.2C7.7,19.4,6.8,20.2,5.9,20.2z M7.3,17.8C6.5,18.5,6,19,5.8,19.4
		c0.4-0.2,0.8-0.4,1.7-1.7C7.4,17.7,7.4,17.8,7.3,17.8z M16,15.6c0.8,0.3,1.6,0.6,2.1,0.6c0.2,0,0.2,0,0.3,0c0,0,0.1-0.1,0.1-0.2
		l0,0c0,0,0,0,0,0c0,0-0.1-0.1-0.5-0.3c-0.3-0.1-0.6-0.1-1.2-0.1C16.5,15.6,16.3,15.6,16,15.6z M11.1,12.8c-0.2,0.6-0.6,1.3-1,2.3
		c-0.2,0.4-0.4,0.7-0.6,1c1.1-0.5,2.2-0.9,3.5-1C13,15.1,12.9,15,12.9,15C12.2,14.4,11.6,13.7,11.1,12.8z"/>
	<path fill="#D6565A" d="M6.1,20c-0.2,0-0.3,0-0.5-0.1l-0.3-0.2C5,19.6,5,19.3,5,19.1c0.1-0.7,0.8-1.2,2-1.9
		c0.1-0.1,0.8-0.4,0.8-0.4L8,17c0.4-0.7,0.9-1.5,1.4-2.5l0.1-0.1c0.4-0.8,0.8-1.7,1.2-2.5l0.1-0.3c-0.5-1.9-0.8-3.4-0.5-4.4
		c0.1-0.3,0.4-0.6,0.9-0.6l0.2,0c0.6,0,0.7,0.6,0.7,0.9c0,0.4-0.1,1.1-0.1,1.1l-0.2-0.1c0-0.3,0-0.6-0.1-0.9
		c-0.1-0.3-0.2-0.4-0.3-0.5c0,0,0,0.1,0,0.1c-0.1,0.3-0.1,0.7-0.1,0.8c0,0.5,0.1,1.1,0.2,1.7c0.1-0.5,0.3-1.2,0.3-1.2l0.2,0.1
		c0,0.1,0.1,1.8-0.1,2.3c0,0.1,0,0.2-0.1,0.3c0.4,1.1,1.1,2.1,1.9,2.9c0.3,0.3,0.7,0.5,1,0.7c0.8,0.2,1.3,0.3,2.1,0.1l0.1,0
		c1,0,1.4,0.1,1.9,0.2c0.2,0,0.2,0.3,0.3,0.6c0,0.1,0,0.3,0,0.3l-0.3-0.1L19,16c0,0.1-0.1,0.4-0.2,0.5c-0.1,0.2-0.3,0.3-0.5,0.3
		c-0.1,0-0.3,0-0.4,0c-1,0-2.5-0.5-3.7-1.2c-1.6,0.2-3.5,0.8-5,1.2C7.8,19.3,7,20,6.1,20z M7.5,17.7c-0.9,0.7-1.3,1.2-1.5,1.6
		c0.4-0.2,0.8-0.4,1.7-1.7C7.6,17.6,7.5,17.6,7.5,17.7z M16.1,15.5c0.8,0.3,1.6,0.6,2.1,0.6c0.2,0,0.2,0,0.3,0c0,0,0.1-0.1,0.1-0.2
		l0,0c0,0,0,0,0,0c0,0-0.1-0.1-0.5-0.3c-0.3-0.1-0.6-0.1-1.2-0.1C16.7,15.4,16.4,15.4,16.1,15.5z M11.3,12.7c-0.2,0.6-0.6,1.3-1,2.3
		c-0.2,0.4-0.4,0.7-0.6,1c1.1-0.5,2.2-0.9,3.5-1c-0.1-0.1-0.1-0.1-0.2-0.2C12.3,14.2,11.8,13.5,11.3,12.7z"/>
	<g>
		<g>
			<path fill-rule="evenodd" clip-rule="evenodd" fill="#C8C8C8" d="M45,0.3V0h-0.3l0,0L31,0v24h20l0-17.7L45,0.3z M48.6,6H45V2.5
				L48.6,6z M33,22V2h10v4v2h2h4v14H33z"/>
		</g>
	</g>
	<path fill="#C8C8C8" d="M34.9,20.2c-0.2,0-0.3,0-0.5-0.1l-0.3-0.2c-0.2-0.1-0.3-0.4-0.2-0.6c0.1-0.7,0.8-1.2,2-1.9
		c0.1-0.1,0.8-0.4,0.8-0.4l0.1,0.2c0.4-0.7,0.9-1.5,1.4-2.5l0.1-0.1c0.4-0.8,0.8-1.7,1.2-2.5l0.1-0.3c-0.5-1.9-0.8-3.4-0.5-4.4
		c0.1-0.3,0.4-0.6,0.9-0.6l0.2,0c0.6,0,0.7,0.6,0.7,0.9c0,0.4-0.1,1.1-0.1,1.1l-0.2-0.1c0-0.3,0-0.6-0.1-0.9
		c-0.1-0.3-0.2-0.4-0.3-0.5c0,0,0,0.1,0,0.1C40,7.6,40,8,40,8.1c0,0.5,0.1,1.1,0.2,1.7c0.1-0.5,0.3-1.2,0.3-1.2l0.2,0.1
		c0,0.1,0.1,1.8-0.1,2.3c0,0.1,0,0.2-0.1,0.3c0.4,1.1,1.1,2.1,1.9,2.9c0.3,0.3,0.7,0.5,1,0.7c0.8,0.2,1.3,0.3,2.1,0.1l0.1,0
		c1,0,1.4,0.1,1.9,0.2c0.2,0,0.2,0.3,0.3,0.6c0,0.1,0,0.3,0,0.3L47.6,16l0.3,0.1c0,0.1-0.1,0.4-0.2,0.5c-0.1,0.2-0.3,0.3-0.5,0.3
		c-0.1,0-0.3,0-0.4,0c-1,0-2.5-0.5-3.7-1.2c-1.6,0.2-3.5,0.8-5,1.2C36.7,19.4,35.8,20.2,34.9,20.2z M36.3,17.8
		c-0.9,0.7-1.3,1.2-1.5,1.6c0.4-0.2,0.8-0.4,1.7-1.7C36.4,17.7,36.4,17.8,36.3,17.8z M45,15.6c0.8,0.3,1.6,0.6,2.1,0.6
		c0.2,0,0.2,0,0.3,0c0,0,0.1-0.1,0.1-0.2l0,0c0,0,0,0,0,0c0,0-0.1-0.1-0.5-0.3c-0.3-0.1-0.6-0.1-1.2-0.1
		C45.5,15.6,45.3,15.6,45,15.6z M40.1,12.8c-0.2,0.6-0.6,1.3-1,2.3c-0.2,0.4-0.4,0.7-0.6,1c1.1-0.5,2.2-0.9,3.5-1
		C42,15.1,41.9,15,41.9,15C41.2,14.4,40.6,13.7,40.1,12.8z"/>
	<path fill="#C8C8C8" d="M35.1,20c-0.2,0-0.3,0-0.5-0.1l-0.3-0.2C34,19.6,34,19.3,34,19.1c0.1-0.7,0.8-1.2,2-1.9
		c0.1-0.1,0.8-0.4,0.8-0.4L37,17c0.4-0.7,0.9-1.5,1.4-2.5l0.1-0.1c0.4-0.8,0.8-1.7,1.2-2.5l0.1-0.3c-0.5-1.9-0.8-3.4-0.5-4.4
		c0.1-0.3,0.4-0.6,0.9-0.6l0.2,0c0.6,0,0.7,0.6,0.7,0.9c0,0.4-0.1,1.1-0.1,1.1l-0.2-0.1c0-0.3,0-0.6-0.1-0.9
		c-0.1-0.3-0.2-0.4-0.3-0.5c0,0,0,0.1,0,0.1c-0.1,0.3-0.1,0.7-0.1,0.8c0,0.5,0.1,1.1,0.2,1.7c0.1-0.5,0.3-1.2,0.3-1.2l0.2,0.1
		c0,0.1,0.1,1.8-0.1,2.3c0,0.1,0,0.2-0.1,0.3c0.4,1.1,1.1,2.1,1.9,2.9c0.3,0.3,0.7,0.5,1,0.7c0.8,0.2,1.3,0.3,2.1,0.1l0.1,0
		c1,0,1.4,0.1,1.9,0.2c0.2,0,0.2,0.3,0.3,0.6c0,0.1,0,0.3,0,0.3l-0.3-0.1L48,16c0,0.1-0.1,0.4-0.2,0.5c-0.1,0.2-0.3,0.3-0.5,0.3
		c-0.1,0-0.3,0-0.4,0c-1,0-2.5-0.5-3.7-1.2c-1.6,0.2-3.5,0.8-5,1.2C36.8,19.3,36,20,35.1,20z M36.5,17.7c-0.9,0.7-1.3,1.2-1.5,1.6
		c0.4-0.2,0.8-0.4,1.7-1.7C36.6,17.6,36.5,17.6,36.5,17.7z M45.1,15.5c0.8,0.3,1.6,0.6,2.1,0.6c0.2,0,0.2,0,0.3,0
		c0,0,0.1-0.1,0.1-0.2l0,0c0,0,0,0,0,0c0,0-0.1-0.1-0.5-0.3c-0.3-0.1-0.6-0.1-1.2-0.1C45.7,15.4,45.4,15.4,45.1,15.5z M40.3,12.7
		c-0.2,0.6-0.6,1.3-1,2.3c-0.2,0.4-0.4,0.7-0.6,1c1.1-0.5,2.2-0.9,3.5-1c-0.1-0.1-0.1-0.1-0.2-0.2C41.3,14.2,40.8,13.5,40.3,12.7z"
		/>
	<g>
		<g>
			<path fill-rule="evenodd" clip-rule="evenodd" fill="#39A6E6" d="M74,0.3V0h-0.3l0,0L60,0v24h20l0-17.7L74,0.3z M77.6,6H74V2.5
				L77.6,6z M62,22V2h10v6h6v14H62z"/>
		</g>
	</g>
	<path fill="#E57377" d="M63.9,20.2c-0.2,0-0.3,0-0.5-0.1l-0.3-0.2c-0.2-0.1-0.3-0.4-0.2-0.6c0.1-0.7,0.8-1.2,2-1.9
		c0.1-0.1,0.8-0.4,0.8-0.4l0.1,0.2c0.4-0.7,0.9-1.5,1.4-2.5l0.1-0.1c0.4-0.8,0.8-1.7,1.2-2.5l0.1-0.3c-0.5-1.9-0.8-3.4-0.5-4.4
		c0.1-0.3,0.4-0.6,0.9-0.6l0.2,0c0.6,0,0.7,0.6,0.7,0.9c0,0.4-0.1,1.1-0.1,1.1l-0.2-0.1c0-0.3,0-0.6-0.1-0.9
		c-0.1-0.3-0.2-0.4-0.3-0.5c0,0,0,0.1,0,0.1C69,7.6,69,8,69,8.1c0,0.5,0.1,1.1,0.2,1.7c0.1-0.5,0.3-1.2,0.3-1.2l0.2,0.1
		c0,0.1,0.1,1.8-0.1,2.3c0,0.1,0,0.2-0.1,0.3c0.4,1.1,1.1,2.1,1.9,2.9c0.3,0.3,0.7,0.5,1,0.7c0.8,0.2,1.3,0.3,2.1,0.1l0.1,0
		c1,0,1.4,0.1,1.9,0.2c0.2,0,0.2,0.3,0.3,0.6c0,0.1,0,0.3,0,0.3L76.6,16l0.3,0.1c0,0.1-0.1,0.4-0.2,0.5c-0.1,0.2-0.3,0.3-0.5,0.3
		c-0.1,0-0.3,0-0.4,0c-1,0-2.5-0.5-3.7-1.2c-1.6,0.2-3.5,0.8-5,1.2C65.7,19.4,64.8,20.2,63.9,20.2z M65.3,17.8
		c-0.9,0.7-1.3,1.2-1.5,1.6c0.4-0.2,0.8-0.4,1.7-1.7C65.4,17.7,65.4,17.8,65.3,17.8z M74,15.6c0.8,0.3,1.6,0.6,2.1,0.6
		c0.2,0,0.2,0,0.3,0c0,0,0.1-0.1,0.1-0.2l0,0c0,0,0,0,0,0c0,0-0.1-0.1-0.5-0.3c-0.3-0.1-0.6-0.1-1.2-0.1
		C74.5,15.6,74.3,15.6,74,15.6z M69.1,12.8c-0.2,0.6-0.6,1.3-1,2.3c-0.2,0.4-0.4,0.7-0.6,1c1.1-0.5,2.2-0.9,3.5-1
		C71,15.1,70.9,15,70.9,15C70.2,14.4,69.6,13.7,69.1,12.8z"/>
	<path fill="#E57377" d="M64.1,20c-0.2,0-0.3,0-0.5-0.1l-0.3-0.2C63,19.6,63,19.3,63,19.1c0.1-0.7,0.8-1.2,2-1.9
		c0.1-0.1,0.8-0.4,0.8-0.4L66,17c0.4-0.7,0.9-1.5,1.4-2.5l0.1-0.1c0.4-0.8,0.8-1.7,1.2-2.5l0.1-0.3c-0.5-1.9-0.8-3.4-0.5-4.4
		c0.1-0.3,0.4-0.6,0.9-0.6l0.2,0c0.6,0,0.7,0.6,0.7,0.9c0,0.4-0.1,1.1-0.1,1.1l-0.2-0.1c0-0.3,0-0.6-0.1-0.9
		c-0.1-0.3-0.2-0.4-0.3-0.5c0,0,0,0.1,0,0.1c-0.1,0.3-0.1,0.7-0.1,0.8c0,0.5,0.1,1.1,0.2,1.7c0.1-0.5,0.3-1.2,0.3-1.2l0.2,0.1
		c0,0.1,0.1,1.8-0.1,2.3c0,0.1,0,0.2-0.1,0.3c0.4,1.1,1.1,2.1,1.9,2.9c0.3,0.3,0.7,0.5,1,0.7c0.8,0.2,1.3,0.3,2.1,0.1l0.1,0
		c1,0,1.4,0.1,1.9,0.2c0.2,0,0.2,0.3,0.3,0.6c0,0.1,0,0.3,0,0.3l-0.3-0.1L77,16c0,0.1-0.1,0.4-0.2,0.5c-0.1,0.2-0.3,0.3-0.5,0.3
		c-0.1,0-0.3,0-0.4,0c-1,0-2.5-0.5-3.7-1.2c-1.6,0.2-3.5,0.8-5,1.2C65.8,19.3,65,20,64.1,20z M65.5,17.7c-0.9,0.7-1.3,1.2-1.5,1.6
		c0.4-0.2,0.8-0.4,1.7-1.7C65.6,17.6,65.5,17.6,65.5,17.7z M74.1,15.5c0.8,0.3,1.6,0.6,2.1,0.6c0.2,0,0.2,0,0.3,0
		c0,0,0.1-0.1,0.1-0.2l0,0c0,0,0,0,0,0c0,0-0.1-0.1-0.5-0.3c-0.3-0.1-0.6-0.1-1.2-0.1C74.7,15.4,74.4,15.4,74.1,15.5z M69.3,12.7
		c-0.2,0.6-0.6,1.3-1,2.3c-0.2,0.4-0.4,0.7-0.6,1c1.1-0.5,2.2-0.9,3.5-1c-0.1-0.1-0.1-0.1-0.2-0.2C70.3,14.2,69.8,13.5,69.3,12.7z"
		/>
</g>
<g id="Office_Excel">
</g>
<g id="Office_PowerPoint">
</g>
<g id="Office_Word">
</g>
<g id="Filter">
</g>
<g id="Dislike">
</g>
<g id="Like">
</g>
<g id="Favourite">
</g>
<g id="Preview">
</g>
<g id="Download">
</g>
<g id="Upload">
</g>
<g id="Open">
</g>
<g id="Web">
</g>
<g id="Unlocked">
</g>
<g id="Locked">
</g>
<g id="Phone">
</g>
<g id="Email">
</g>
<g id="Graphs">
</g>
<g id="Note">
</g>
<g id="Search">
</g>
<g id="Alarm">
</g>
<g id="Time">
</g>
<g id="Users">
</g>
<g id="User">
</g>
<g id="Refresh">
</g>
<g id="Home">
</g>
<g id="Report">
</g>
<g id="Paste">
</g>
<g id="Copy">
</g>
<g id="Cut">
</g>
<g id="Flag">
</g>
<g id="Redo">
</g>
<g id="Undo">
</g>
<g id="Zoom_Out">
</g>
<g id="Zoom_In">
</g>
<g id="Add_comment">
</g>
<g id="Unread_comment">
</g>
<g id="Comment">
</g>
<g id="New">
</g>
<g id="Attach">
</g>
<g id="Delete">
</g>
<g id="Save">
</g>
<g id="Edit">
</g>
<g id="Print">
</g>
<g id="Guides" display="none" opacity="0.2">
	<rect display="inline" fill-rule="evenodd" clip-rule="evenodd" fill="#0089D9" width="24" height="24"/>
	<rect x="29" display="inline" fill-rule="evenodd" clip-rule="evenodd" fill="#0089D9" width="24" height="24"/>
	<rect x="58" display="inline" fill-rule="evenodd" clip-rule="evenodd" fill="#0089D9" width="24" height="24"/>
</g>
</svg>
