<?xml version="1.0" encoding="utf-8"?>
<!-- Generator: Adobe Illustrator 19.1.0, SVG Export Plug-In . SVG Version: 6.00 Build 0)  -->
<!DOCTYPE svg PUBLIC "-//W3C//DTD SVG 1.1//EN" "http://www.w3.org/Graphics/SVG/1.1/DTD/svg11.dtd">
<svg version="1.1" xmlns="http://www.w3.org/2000/svg" xmlns:xlink="http://www.w3.org/1999/xlink" x="0px" y="0px" width="82px"
	 height="24px" viewBox="0 0 82 24" enable-background="new 0 0 82 24" xml:space="preserve">
<g id="Layer_2">
</g>
<g id="Changelog">
</g>
<g id="Export">
</g>
<g id="PDF">
</g>
<g id="Office_Excel">
</g>
<g id="Office_PowerPoint">
</g>
<g id="Office_Word">
</g>
<g id="Filter">
</g>
<g id="Dislike">
</g>
<g id="Like">
</g>
<g id="Favourite">
</g>
<g id="Preview">
</g>
<g id="Download">
</g>
<g id="Upload">
</g>
<g id="Open">
</g>
<g id="Web">
</g>
<g id="Unlocked">
</g>
<g id="Locked">
</g>
<g id="Phone">
</g>
<g id="Email">
</g>
<g id="Graphs">
</g>
<g id="Note">
</g>
<g id="Search">
</g>
<g id="Alarm">
</g>
<g id="Time">
</g>
<g id="Users">
</g>
<g id="User">
</g>
<g id="Refresh">
</g>
<g id="Home">
</g>
<g id="Report">
</g>
<g id="Paste">
	<g>
		<g>
			<path fill-rule="evenodd" clip-rule="evenodd" fill="#0089D9" d="M5,15.5C5,15.8,5.2,16,5.5,16H10v-1H5.5C5.2,15,5,15.2,5,15.5z
				 M5,13.5C5,13.8,5.2,14,5.5,14H10v-1H5.5C5.2,13,5,13.2,5,13.5z M19,7l-8,0v17h13V12L19,7z M20,10l1,1h-1V10z M22,22h-9V9h5v4
				l2,0v0h2V22z M2,5h1V3h1l0,3h9l0-3h1v2h1v1h2V3h-4l0-1h-2.1c-0.2-1.1-1.2-2-2.4-2C7.3,0,6.3,0.9,6.1,2H4l0,1H0v19h10v-2H2V5z
				 M8.5,1C9.3,1,10,1.5,10,2H7C7,1.5,7.6,1,8.5,1z M5,11.5C5,11.8,5.2,12,5.5,12H10v-1H5.5C5.2,11,5,11.2,5,11.5z M5,9.5
				C5,9.8,5.2,10,5.5,10H10V9H5.5C5.2,9,5,9.2,5,9.5z"/>
		</g>
	</g>
	<g>
		<g>
			<path fill-rule="evenodd" clip-rule="evenodd" fill="#C8C8C8" d="M34,13.5c0,0.3,0.2,0.5,0.5,0.5H39v-1h-4.5
				C34.2,13,34,13.2,34,13.5z M48,7l-8,0v17h13V12L48,7z M49,10l1,1h-1V10z M51,22h-9V9h5v4l2,0v0h2V22z M31,5h1V3h1l0,3h9l0-3h1v2
				h1v1h2V3h-4l0-1h-2.1c-0.2-1.1-1.2-2-2.4-2c-1.2,0-2.2,0.9-2.4,2H33l0,1h-4v19h10v-2h-8V5z M37.5,1C38.3,1,39,1.5,39,2
				c-1,0-2,0-3,0C36,1.5,36.6,1,37.5,1z M34,15.5c0,0.3,0.2,0.5,0.5,0.5H39v-1h-4.5C34.2,15,34,15.2,34,15.5z M34,11.5
				c0,0.3,0.2,0.5,0.5,0.5H39v-1h-4.5C34.2,11,34,11.2,34,11.5z M34,9.5c0,0.3,0.2,0.5,0.5,0.5H39V9h-4.5C34.2,9,34,9.2,34,9.5z"/>
		</g>
	</g>
	<g>
		<g>
			<path fill-rule="evenodd" clip-rule="evenodd" fill="#39A6E6" d="M63,13.5c0,0.3,0.2,0.5,0.5,0.5H68v-1h-4.5
				C63.2,13,63,13.2,63,13.5z M63,15.5c0,0.3,0.2,0.5,0.5,0.5H68v-1h-4.5C63.2,15,63,15.2,63,15.5z M60,5h1V3h1l0,3h9l0-3h1v2h1v1h2
				V3h-4l0-1h-2.1c-0.2-1.1-1.2-2-2.4-2c-1.2,0-2.2,0.9-2.4,2H62l0,1h-4v19h10v-2h-8V5z M66.5,1C67.3,1,68,1.5,68,2h-3
				C65,1.5,65.6,1,66.5,1z M63,9.5c0,0.3,0.2,0.5,0.5,0.5H68V9h-4.5C63.2,9,63,9.2,63,9.5z M77,7l-8,0v17h13V12L77,7z M78,10l1,1h-1
				V10z M80,22h-9V9h5v4l2,0v0h2V22z M63,11.5c0,0.3,0.2,0.5,0.5,0.5H68v-1h-4.5C63.2,11,63,11.2,63,11.5z"/>
		</g>
	</g>
</g>
<g id="Copy">
</g>
<g id="Cut">
</g>
<g id="Flag">
</g>
<g id="Redo">
</g>
<g id="Undo">
</g>
<g id="Zoom_Out">
</g>
<g id="Zoom_In">
</g>
<g id="Add_comment">
</g>
<g id="Unread_comment">
</g>
<g id="Comment">
</g>
<g id="New">
</g>
<g id="Attach">
</g>
<g id="Delete">
</g>
<g id="Save">
</g>
<g id="Edit">
</g>
<g id="Print">
</g>
<g id="Guides" display="none" opacity="0.2">
	<rect display="inline" fill-rule="evenodd" clip-rule="evenodd" fill="#0089D9" width="24" height="24"/>
	<rect x="29" display="inline" fill-rule="evenodd" clip-rule="evenodd" fill="#0089D9" width="24" height="24"/>
	<rect x="58" display="inline" fill-rule="evenodd" clip-rule="evenodd" fill="#0089D9" width="24" height="24"/>
</g>
</svg>
