<?xml version="1.0" encoding="utf-8"?>
<!-- Generator: Adobe Illustrator 19.1.0, SVG Export Plug-In . SVG Version: 6.00 Build 0)  -->
<!DOCTYPE svg PUBLIC "-//W3C//DTD SVG 1.1//EN" "http://www.w3.org/Graphics/SVG/1.1/DTD/svg11.dtd">
<svg version="1.1" xmlns="http://www.w3.org/2000/svg" xmlns:xlink="http://www.w3.org/1999/xlink" x="0px" y="0px" width="82px"
	 height="24px" viewBox="0 0 82 24" enable-background="new 0 0 82 24" xml:space="preserve">
<g id="Layer_2">
</g>
<g id="Changelog">
</g>
<g id="Export">
</g>
<g id="PDF">
</g>
<g id="Office_Excel">
</g>
<g id="Office_PowerPoint">
	<g>
		<g>
			<path fill-rule="evenodd" clip-rule="evenodd" fill="#0089D9" d="M17,0.3V0h-0.3l0,0L3,0v24h20V6.3L17,0.3z M20.6,6H17V2.5
				L20.6,6z M5,22V2h10v6h6v14H5z"/>
		</g>
	</g>
	<path fill="#F28D00" d="M13,9.9C13,9.9,12.9,9.9,13,9.9c-2.8,0-5.1,2.3-5.1,5c0,2.8,2.3,5,5,5c2.8,0,5-2.2,5-5h-5V9.9z"/>
	<path fill="#F28D00" d="M14,14h5c0-3-2.2-5-5-5V14z"/>
	<g>
		<g>
			<path fill-rule="evenodd" clip-rule="evenodd" fill="#C8C8C8" d="M46,0.3V0h-0.3l0,0L32,0v24h20V6.3L46,0.3z M49.6,6H46V2.5
				L49.6,6z M34,22V2h10v4v2h2h4v14H34z"/>
		</g>
	</g>
	<path fill="#C8C8C8" d="M42,9.9C42,9.9,41.9,9.9,42,9.9c-2.8,0-5.1,2.3-5.1,5c0,2.8,2.3,5,5,5c2.8,0,5-2.2,5-5h-5V9.9z"/>
	<path fill="#C8C8C8" d="M43,14h5c0-3-2.2-5-5-5V14z"/>
	<g>
		<g>
			<path fill-rule="evenodd" clip-rule="evenodd" fill="#39A6E6" d="M75,0.3V0h-0.3l0,0L61,0v24h20V6.3L75,0.3z M78.6,6H75V2.5
				L78.6,6z M63,22V2h10v6h6v14H63z"/>
		</g>
	</g>
	<path fill="#F28D00" d="M71,9.9C71,9.9,70.9,9.9,71,9.9c-2.8,0-5.1,2.3-5.1,5c0,2.8,2.3,5,5,5c2.8,0,5-2.2,5-5h-5V9.9z"/>
	<path fill="#F28D00" d="M72,14h5c0-3-2.2-5-5-5V14z"/>
</g>
<g id="Office_Word">
</g>
<g id="Filter">
</g>
<g id="Dislike">
</g>
<g id="Like">
</g>
<g id="Favourite">
</g>
<g id="Preview">
</g>
<g id="Download">
</g>
<g id="Upload">
</g>
<g id="Open">
</g>
<g id="Web">
</g>
<g id="Unlocked">
</g>
<g id="Locked">
</g>
<g id="Phone">
</g>
<g id="Email">
</g>
<g id="Graphs">
</g>
<g id="Note">
</g>
<g id="Search">
</g>
<g id="Alarm">
</g>
<g id="Time">
</g>
<g id="Users">
</g>
<g id="User">
</g>
<g id="Refresh">
</g>
<g id="Home">
</g>
<g id="Report">
</g>
<g id="Paste">
</g>
<g id="Copy">
</g>
<g id="Cut">
</g>
<g id="Flag">
</g>
<g id="Redo">
</g>
<g id="Undo">
</g>
<g id="Zoom_Out">
</g>
<g id="Zoom_In">
</g>
<g id="Add_comment">
</g>
<g id="Unread_comment">
</g>
<g id="Comment">
</g>
<g id="New">
</g>
<g id="Attach">
</g>
<g id="Delete">
</g>
<g id="Save">
</g>
<g id="Edit">
</g>
<g id="Print">
</g>
<g id="Guides" display="none" opacity="0.2">
	<rect x="1" display="inline" fill-rule="evenodd" clip-rule="evenodd" fill="#0089D9" width="24" height="24"/>
	<rect x="30" display="inline" fill-rule="evenodd" clip-rule="evenodd" fill="#0089D9" width="24" height="24"/>
	<rect x="59" display="inline" fill-rule="evenodd" clip-rule="evenodd" fill="#0089D9" width="24" height="24"/>
</g>
</svg>
