<?xml version="1.0" encoding="utf-8"?>
<!-- Generator: Adobe Illustrator 19.1.0, SVG Export Plug-In . SVG Version: 6.00 Build 0)  -->
<!DOCTYPE svg PUBLIC "-//W3C//DTD SVG 1.1//EN" "http://www.w3.org/Graphics/SVG/1.1/DTD/svg11.dtd">
<svg version="1.1" xmlns="http://www.w3.org/2000/svg" xmlns:xlink="http://www.w3.org/1999/xlink" x="0px" y="0px" width="82px"
	 height="24px" viewBox="0 0 82 24" enable-background="new 0 0 82 24" xml:space="preserve">
<g id="Layer_2">
</g>
<g id="Changelog">
</g>
<g id="Export">
</g>
<g id="PDF">
</g>
<g id="Office_Excel">
</g>
<g id="Office_PowerPoint">
</g>
<g id="Office_Word">
</g>
<g id="Filter">
</g>
<g id="Dislike">
</g>
<g id="Like">
</g>
<g id="Favourite">
</g>
<g id="Preview">
	<g>
		<g>
			<path fill-rule="evenodd" clip-rule="evenodd" fill="#0089D9" d="M12,4C5.5,4,0.2,11.2,0,11.5v0.9C0.2,12.8,5.5,20,12,20
				c6.5,0,11.8-7.2,12-7.5v-0.9C23.8,11.2,18.5,4,12,4z M2,12C2.5,11.4,4.1,9.5,6.3,8C5.5,9.1,5,10.5,5,12c0,1.4,0.4,2.8,1.2,3.9
				C4,14.4,2.5,12.5,2,12z M12,18c-3.3,0-6-2.7-6-6c0-3.3,2.7-6,6-6c3.3,0,6,2.7,6,6C18,15.3,15.3,18,12,18z M17.8,16
				c0.8-1.1,1.2-2.5,1.2-3.9c0-1.5-0.5-2.9-1.3-4.1c2.2,1.5,3.8,3.4,4.3,4C21.5,12.5,20,14.4,17.8,16z M12,7.9
				c-0.6,0-1.1,0.1-1.6,0.3C10.8,8.5,11,9,11,9.5c0,0.9-0.7,1.5-1.5,1.5c-0.5,0-0.9-0.2-1.2-0.6C8.1,10.9,8,11.4,8,12
				c0,2.2,1.8,4,4,4c2.2,0,4-1.8,4-4C16,9.7,14.2,7.9,12,7.9z"/>
		</g>
	</g>
	<g>
		<g>
			<path fill-rule="evenodd" clip-rule="evenodd" fill="#C8C8C8" d="M41,4c-6.5,0-11.8,7.2-12,7.5v0.9c0.2,0.3,5.5,7.5,12,7.5
				c6.5,0,11.8-7.2,12-7.5v-0.9C52.8,11.2,47.5,4,41,4z M31,12c0.5-0.6,2.1-2.5,4.3-3.9c-0.8,1.1-1.3,2.5-1.3,4
				c0,1.4,0.4,2.8,1.2,3.9C33,14.4,31.5,12.5,31,12z M41,18c-3.3,0-6-2.7-6-6c0-3.3,2.7-6,6-6c3.3,0,6,2.7,6,6
				C47,15.3,44.3,18,41,18z M46.8,16c0.8-1.1,1.2-2.5,1.2-3.9c0-1.5-0.5-2.9-1.3-4.1c2.2,1.5,3.8,3.4,4.3,4
				C50.5,12.5,49,14.4,46.8,16z M41,7.9c-0.6,0-1.1,0.1-1.6,0.3C39.8,8.5,40,9,40,9.5c0,0.9-0.7,1.5-1.5,1.5c-0.5,0-0.9-0.2-1.2-0.6
				c-0.2,0.5-0.3,1-0.3,1.6c0,2.2,1.8,4,4,4c2.2,0,4-1.8,4-4C45,9.7,43.2,7.9,41,7.9z"/>
		</g>
	</g>
	<g>
		<g>
			<path fill-rule="evenodd" clip-rule="evenodd" fill="#39A6E6" d="M70,4c-6.5,0-11.8,7.2-12,7.5v0.9c0.2,0.3,5.5,7.5,12,7.5
				c6.5,0,11.8-7.2,12-7.5v-0.9C81.8,11.2,76.5,4,70,4z M60,12c0.5-0.6,2.1-2.5,4.3-3.9c-0.8,1.1-1.3,2.5-1.3,4
				c0,1.4,0.4,2.8,1.2,3.9C62,14.4,60.5,12.5,60,12z M70,18c-3.3,0-6-2.7-6-6c0-3.3,2.7-6,6-6c3.3,0,6,2.7,6,6
				C76,15.3,73.3,18,70,18z M75.8,16c0.8-1.1,1.2-2.5,1.2-3.9c0-1.5-0.5-2.9-1.3-4.1c2.2,1.5,3.8,3.4,4.3,4
				C79.5,12.5,78,14.4,75.8,16z M70,7.9c-0.6,0-1.1,0.1-1.6,0.3C68.8,8.5,69,9,69,9.5c0,0.9-0.7,1.5-1.5,1.5c-0.5,0-0.9-0.2-1.2-0.6
				c-0.2,0.5-0.3,1-0.3,1.6c0,2.2,1.8,4,4,4c2.2,0,4-1.8,4-4C74,9.7,72.2,7.9,70,7.9z"/>
		</g>
	</g>
</g>
<g id="Download">
</g>
<g id="Upload">
</g>
<g id="Open">
</g>
<g id="Web">
</g>
<g id="Unlocked">
</g>
<g id="Locked">
</g>
<g id="Phone">
</g>
<g id="Email">
</g>
<g id="Graphs">
</g>
<g id="Note">
</g>
<g id="Search">
</g>
<g id="Alarm">
</g>
<g id="Time">
</g>
<g id="Users">
</g>
<g id="User">
</g>
<g id="Refresh">
</g>
<g id="Home">
</g>
<g id="Report">
</g>
<g id="Paste">
</g>
<g id="Copy">
</g>
<g id="Cut">
</g>
<g id="Flag">
</g>
<g id="Redo">
</g>
<g id="Undo">
</g>
<g id="Zoom_Out">
</g>
<g id="Zoom_In">
</g>
<g id="Add_comment">
</g>
<g id="Unread_comment">
</g>
<g id="Comment">
</g>
<g id="New">
</g>
<g id="Attach">
</g>
<g id="Delete">
</g>
<g id="Save">
</g>
<g id="Edit">
</g>
<g id="Print">
</g>
<g id="Guides" display="none" opacity="0.2">
	<rect display="inline" fill-rule="evenodd" clip-rule="evenodd" fill="#0089D9" width="24" height="24"/>
	<rect x="29" display="inline" fill-rule="evenodd" clip-rule="evenodd" fill="#0089D9" width="24" height="24"/>
	<rect x="58" display="inline" fill-rule="evenodd" clip-rule="evenodd" fill="#0089D9" width="24" height="24"/>
</g>
</svg>
