<?xml version="1.0" encoding="utf-8"?>
<!-- Generator: Adobe Illustrator 19.1.0, SVG Export Plug-In . SVG Version: 6.00 Build 0)  -->
<!DOCTYPE svg PUBLIC "-//W3C//DTD SVG 1.1//EN" "http://www.w3.org/Graphics/SVG/1.1/DTD/svg11.dtd">
<svg version="1.1" xmlns="http://www.w3.org/2000/svg" xmlns:xlink="http://www.w3.org/1999/xlink" x="0px" y="0px" width="82px"
	 height="24px" viewBox="0 0 82 24" enable-background="new 0 0 82 24" xml:space="preserve">
<g id="Layer_2">
</g>
<g id="Changelog">
</g>
<g id="Export">
</g>
<g id="PDF">
</g>
<g id="Office_Excel">
</g>
<g id="Office_PowerPoint">
</g>
<g id="Office_Word">
</g>
<g id="Filter">
</g>
<g id="Dislike">
</g>
<g id="Like">
</g>
<g id="Favourite">
</g>
<g id="Preview">
</g>
<g id="Download">
</g>
<g id="Upload">
</g>
<g id="Open">
</g>
<g id="Web">
</g>
<g id="Unlocked">
</g>
<g id="Locked">
</g>
<g id="Phone">
</g>
<g id="Email">
</g>
<g id="Graphs">
</g>
<g id="Note">
</g>
<g id="Search">
</g>
<g id="Alarm">
</g>
<g id="Time">
</g>
<g id="Users">
</g>
<g id="User">
</g>
<g id="Refresh">
</g>
<g id="Home">
</g>
<g id="Report">
</g>
<g id="Paste">
</g>
<g id="Copy">
</g>
<g id="Cut">
</g>
<g id="Flag">
</g>
<g id="Redo">
</g>
<g id="Undo">
</g>
<g id="Zoom_Out">
</g>
<g id="Zoom_In">
</g>
<g id="Add_comment">
</g>
<g id="Unread_comment">
</g>
<g id="Comment">
</g>
<g id="New">
</g>
<g id="Attach">
</g>
<g id="Delete">
</g>
<g id="Save">
</g>
<g id="Edit">
</g>
<g id="Print">
	<g>
		<g>
			<path fill-rule="evenodd" clip-rule="evenodd" fill="#39A6E6" d="M78,8c-0.6,0-1,0.4-1,1c0,0.6,0.4,1,1,1c0.6,0,1-0.4,1-1
				C79,8.4,78.6,8,78,8z M80,5h-2V0H62v5h-2c-1.1,0-2,0.9-2,2v8c0,1.1,0.9,2,2,2h2v7h12l4-4v-3h2c1.1,0,2-0.9,2-2V7
				C82,5.9,81.1,5,80,5z M64,2l12,0v3H64V2z M76,19h-3v3h-9V12h12V19z M80,14c0,0.6-0.4,1-1,1h-1v-4H62v4h-1c-0.6,0-1-0.4-1-1V8
				c0-0.6,0.4-1,1-1h18c0.6,0,1,0.4,1,1V14z"/>
		</g>
	</g>
	<g>
		<g>
			<path fill-rule="evenodd" clip-rule="evenodd" fill="#C8C8C8" d="M49,8c-0.6,0-1,0.4-1,1c0,0.6,0.4,1,1,1c0.6,0,1-0.4,1-1
				C50,8.4,49.6,8,49,8z M51,5h-2V0H33v5h-2c-1.1,0-2,0.9-2,2v8c0,1.1,0.9,2,2,2h2v7h12l4-4v-3h2c1.1,0,2-0.9,2-2V7
				C53,5.9,52.1,5,51,5z M35,2l12,0v3H35V2z M47,19h-3v3h-9V12h12V19z M51,14c0,0.6-0.4,1-1,1h-1v-4H33v4h-1c-0.6,0-1-0.4-1-1V8
				c0-0.6,0.4-1,1-1h18c0.6,0,1,0.4,1,1V14z"/>
		</g>
	</g>
	<g>
		<g>
			<path fill-rule="evenodd" clip-rule="evenodd" fill="#0089D9" d="M20,8c-0.6,0-1,0.4-1,1c0,0.6,0.4,1,1,1c0.6,0,1-0.4,1-1
				C21,8.4,20.6,8,20,8z M22,5h-2V0H4v5H2C0.9,5,0,5.9,0,7v8c0,1.1,0.9,2,2,2h2v7h12l4-4v-3h2c1.1,0,2-0.9,2-2V7C24,5.9,23.1,5,22,5
				z M6,2l12,0v3H6V2z M18,19h-3v3H6V12h12V19z M22,14c0,0.6-0.4,1-1,1h-1v-4H4v4H3c-0.6,0-1-0.4-1-1V8c0-0.6,0.4-1,1-1h18
				c0.6,0,1,0.4,1,1V14z"/>
		</g>
	</g>
</g>
<g id="Guides" display="none" opacity="0.2">
	<rect display="inline" fill-rule="evenodd" clip-rule="evenodd" fill="#0089D9" width="24" height="24"/>
	<rect x="29" display="inline" fill-rule="evenodd" clip-rule="evenodd" fill="#0089D9" width="24" height="24"/>
	<rect x="58" display="inline" fill-rule="evenodd" clip-rule="evenodd" fill="#0089D9" width="24" height="24"/>
</g>
</svg>
