<?xml version="1.0" encoding="utf-8"?>
<!-- Generator: Adobe Illustrator 19.1.0, SVG Export Plug-In . SVG Version: 6.00 Build 0)  -->
<!DOCTYPE svg PUBLIC "-//W3C//DTD SVG 1.1//EN" "http://www.w3.org/Graphics/SVG/1.1/DTD/svg11.dtd">
<svg version="1.1" xmlns="http://www.w3.org/2000/svg" xmlns:xlink="http://www.w3.org/1999/xlink" x="0px" y="0px" width="82px"
	 height="24px" viewBox="0 0 82 24" enable-background="new 0 0 82 24" xml:space="preserve">
<g id="Layer_2">
</g>
<g id="Changelog">
</g>
<g id="Export">
</g>
<g id="PDF">
</g>
<g id="Office_Excel">
</g>
<g id="Office_PowerPoint">
</g>
<g id="Office_Word">
</g>
<g id="Filter">
</g>
<g id="Dislike">
</g>
<g id="Like">
</g>
<g id="Favourite">
</g>
<g id="Preview">
</g>
<g id="Download">
</g>
<g id="Upload">
</g>
<g id="Open">
</g>
<g id="Web">
</g>
<g id="Unlocked">
</g>
<g id="Locked">
</g>
<g id="Phone">
	<path fill-rule="evenodd" clip-rule="evenodd" fill="#0089D9" d="M23.5,22.3c-0.4,0.1-0.7,0.1-1.1,0.1c0.4-0.4,0.6-0.9,0.6-1.4
		c0-1.1-0.9-2-2.1-2c-1.1,0-2.1,0.9-2.1,2c0,0.4,0.1,0.8,0.4,1.2c-0.6,0.4-1.2,0.4-1.7,0.1c0.3-0.2,0.5-0.4,0.8-0.7
		c-0.4-2.4-2.9-5.3-5.3-6.5c-1.1,0.5-1.9,1.5-2.8,2.8C8.8,17.4,8,15.7,7,14c0,0,0,0,0,0c-1-1.6-2-3.4-1.7-5c1.5-0.2,2.8-0.5,3.8-1.2
		C9.2,5.2,8,1.5,6,0c-4.5,1.2-9,6.9-3.7,16.4c0,0,0,0,0,0c4.5,7.7,10.1,8.5,13.8,6.8c1.2,1.1,3,1.2,4-0.3c0.6,1.2,2.9,1.4,3.8,0.3
		C24.1,23.1,23.9,22.5,23.5,22.3z M4,15.4C4,15.4,4,15.4,4,15.4C1.1,10.3,1,4.4,5.3,2.2c1,0.9,1.9,3,1.9,4.2c-0.7,0.7-2.7,0.9-4,0.7
		c-0.4,2.8,0.4,5.6,1.9,7.7c0,0,0,0,0,0c1.1,2.4,3,4.6,5.7,5.6c0.5-1.2,1.7-2.9,2.7-3.1c1.1,0.6,2.4,2.5,2.7,3.8
		C12.1,23.8,7,20.6,4,15.4z M21,21.6c-0.3,0-0.6-0.3-0.6-0.6s0.3-0.6,0.6-0.6s0.6,0.3,0.6,0.6S21.3,21.6,21,21.6z"/>
	<path fill-rule="evenodd" clip-rule="evenodd" fill="#C8C8C8" d="M52.6,22.3c-0.4,0.1-0.7,0.1-1.1,0.1c0.4-0.4,0.6-0.9,0.6-1.4
		c0-1.1-0.9-2-2.1-2c-1.1,0-2.1,0.9-2.1,2c0,0.4,0.1,0.8,0.4,1.2c-0.6,0.4-1.2,0.4-1.7,0.1c0.3-0.2,0.5-0.4,0.8-0.7
		c-0.4-2.4-2.9-5.3-5.3-6.5c-1.1,0.5-1.9,1.5-2.8,2.8C37.8,17.4,37,15.7,36,14c0,0,0,0,0,0c-1-1.6-2-3.4-1.7-5
		c1.5-0.2,2.8-0.5,3.8-1.2c0.2-2.7-1.1-6.3-3-7.8c-4.5,1.2-8.9,6.9-3.7,16.4c0,0,0,0,0,0c4.5,7.7,10.1,8.5,13.8,6.8
		c1.2,1.1,3,1.2,4-0.3c0.6,1.2,2.9,1.4,3.8,0.3C53.2,23.1,53,22.5,52.6,22.3z M33.1,15.4C33.1,15.4,33.1,15.4,33.1,15.4
		c-2.9-5.1-3-11.1,1.3-13.3c1,0.9,1.9,3,1.9,4.2c-0.7,0.7-2.7,0.9-4,0.7c-0.4,2.8,0.4,5.6,1.9,7.7c0,0,0,0,0,0
		c1.1,2.4,3,4.6,5.7,5.6c0.5-1.2,1.7-2.9,2.7-3.1c1.1,0.6,2.4,2.5,2.7,3.8C41.2,23.8,36,20.6,33.1,15.4z M50.1,21.6
		c-0.3,0-0.6-0.3-0.6-0.6s0.3-0.6,0.6-0.6s0.6,0.3,0.6,0.6S50.4,21.6,50.1,21.6z"/>
	<path fill-rule="evenodd" clip-rule="evenodd" fill="#39A6E6" d="M81.5,22.3c-0.4,0.1-0.7,0.1-1.1,0.1c0.4-0.4,0.6-0.9,0.6-1.4
		c0-1.1-0.9-2-2.1-2c-1.1,0-2.1,0.9-2.1,2c0,0.4,0.1,0.8,0.4,1.2c-0.6,0.4-1.2,0.4-1.7,0.1c0.3-0.2,0.5-0.4,0.8-0.7
		c-0.4-2.4-2.9-5.3-5.3-6.5c-1.1,0.5-1.9,1.5-2.8,2.8C66.8,17.4,66,15.7,65,14c0,0,0,0,0,0c-1-1.6-2-3.4-1.7-5
		c1.5-0.2,2.8-0.5,3.8-1.2c0.2-2.7-1.1-6.3-3-7.8c-4.5,1.2-8.9,6.9-3.7,16.4c0,0,0,0,0,0c4.5,7.7,10.1,8.5,13.8,6.8
		c1.2,1.1,3,1.2,4-0.3c0.6,1.2,2.9,1.4,3.8,0.3C82.2,23.1,81.9,22.5,81.5,22.3z M62,15.4C62,15.4,62,15.4,62,15.4
		c-2.9-5.1-3-11.1,1.3-13.3c1,0.9,1.9,3,1.9,4.2c-0.7,0.7-2.7,0.9-4,0.7c-0.4,2.8,0.4,5.6,1.9,7.7c0,0,0,0,0,0
		c1.1,2.4,3,4.6,5.7,5.6c0.5-1.2,1.7-2.9,2.7-3.1c1.1,0.6,2.4,2.5,2.7,3.8C70.1,23.8,65,20.6,62,15.4z M79,21.6
		c-0.3,0-0.6-0.3-0.6-0.6s0.3-0.6,0.6-0.6s0.6,0.3,0.6,0.6S79.4,21.6,79,21.6z"/>
</g>
<g id="Email">
</g>
<g id="Graphs">
</g>
<g id="Note">
</g>
<g id="Search">
</g>
<g id="Alarm">
</g>
<g id="Time">
</g>
<g id="Users">
</g>
<g id="User">
</g>
<g id="Refresh">
</g>
<g id="Home">
</g>
<g id="Report">
</g>
<g id="Paste">
</g>
<g id="Copy">
</g>
<g id="Cut">
</g>
<g id="Flag">
</g>
<g id="Redo">
</g>
<g id="Undo">
</g>
<g id="Zoom_Out">
</g>
<g id="Zoom_In">
</g>
<g id="Add_comment">
</g>
<g id="Unread_comment">
</g>
<g id="Comment">
</g>
<g id="New">
</g>
<g id="Attach">
</g>
<g id="Delete">
</g>
<g id="Save">
</g>
<g id="Edit">
</g>
<g id="Print">
</g>
<g id="Guides" display="none" opacity="0.2">
	<rect display="inline" fill-rule="evenodd" clip-rule="evenodd" fill="#0089D9" width="24" height="24"/>
	<rect x="29" display="inline" fill-rule="evenodd" clip-rule="evenodd" fill="#0089D9" width="24" height="24"/>
	<rect x="58" display="inline" fill-rule="evenodd" clip-rule="evenodd" fill="#0089D9" width="24" height="24"/>
</g>
</svg>
