<?xml version="1.0" encoding="utf-8"?>
<!-- Generator: Adobe Illustrator 19.1.0, SVG Export Plug-In . SVG Version: 6.00 Build 0)  -->
<!DOCTYPE svg PUBLIC "-//W3C//DTD SVG 1.1//EN" "http://www.w3.org/Graphics/SVG/1.1/DTD/svg11.dtd">
<svg version="1.1" xmlns="http://www.w3.org/2000/svg" xmlns:xlink="http://www.w3.org/1999/xlink" x="0px" y="0px" width="82px"
	 height="24px" viewBox="0 0 82 24" enable-background="new 0 0 82 24" xml:space="preserve">
<g id="Layer_2">
</g>
<g id="Changelog">
</g>
<g id="Export">
</g>
<g id="PDF">
</g>
<g id="Office_Excel">
</g>
<g id="Office_PowerPoint">
</g>
<g id="Office_Word">
</g>
<g id="Filter">
</g>
<g id="Dislike">
</g>
<g id="Like">
</g>
<g id="Favourite">
</g>
<g id="Preview">
</g>
<g id="Download">
</g>
<g id="Upload">
</g>
<g id="Open">
</g>
<g id="Web">
</g>
<g id="Unlocked">
</g>
<g id="Locked">
</g>
<g id="Phone">
</g>
<g id="Email">
</g>
<g id="Graphs">
</g>
<g id="Note">
</g>
<g id="Search">
</g>
<g id="Alarm">
	<g>
		<g>
			<path fill-rule="evenodd" clip-rule="evenodd" fill="#0089D9" d="M16,8l-3.2,3.2C12.5,11.1,12.3,11,12,11c-1.1,0-2,0.9-2,2
				c0,1.1,0.9,2,2,2c1.1,0,2-0.9,2-2c0-0.3-0.1-0.6-0.2-0.8L17,9C17.7,8.3,16.7,7.3,16,8z M12,2C5.9,2,1,6.9,1,13
				c0,6.1,4.9,11,11,11c6.1,0,11-4.9,11-11C23,6.9,18,2,12,2z M12,22c-5,0-9-4-9-9c0-5,4-9,9-9c5,0,9,4,9,9C21,18,16.9,22,12,22z
				 M23,2c-1.8-1.8-4-1-5,0l5,5C23.8,5.9,24.8,3.8,23,2z M1,2c-1.8,1.8-0.7,4,0,5l5-5C5,1,2.8,0.2,1,2z"/>
		</g>
	</g>
	<g>
		<g>
			<path fill-rule="evenodd" clip-rule="evenodd" fill="#C8C8C8" d="M45,8l-3.2,3.2C41.5,11.1,41.3,11,41,11c-1.1,0-2,0.9-2,2
				c0,1.1,0.9,2,2,2c1.1,0,2-0.9,2-2c0-0.3-0.1-0.6-0.2-0.8L46,9C46.7,8.3,45.7,7.3,45,8z M52,2c-1.8-1.8-4-1-5,0l5,5
				C52.8,5.9,53.8,3.8,52,2z M41,2c-6.1,0-11,4.9-11,11c0,6.1,4.9,11,11,11c6.1,0,11-4.9,11-11C52,6.9,47,2,41,2z M41,22
				c-5,0-9-4-9-9c0-5,4-9,9-9c5,0,9,4,9,9C50,18,45.9,22,41,22z M30,2c-1.8,1.8-0.7,4,0,5l5-5C34,1,31.8,0.2,30,2z"/>
		</g>
	</g>
	<g>
		<g>
			<path fill-rule="evenodd" clip-rule="evenodd" fill="#39A6E6" d="M74,8l-3.2,3.2C70.6,11.1,70.3,11,70,11c-1.1,0-2,0.9-2,2
				c0,1.1,0.9,2,2,2c1.1,0,2-0.9,2-2c0-0.3-0.1-0.6-0.2-0.8L75,9C75.7,8.3,74.7,7.3,74,8z M81,2c-1.8-1.8-4-1-5,0l5,5
				C81.8,5.9,82.8,3.8,81,2z M70,2c-6.1,0-11,4.9-11,11c0,6.1,4.9,11,11,11c6.1,0,11-4.9,11-11C81,6.9,76.1,2,70,2z M70,22
				c-5,0-9-4-9-9c0-5,4-9,9-9c5,0,9,4,9,9C79,18,75,22,70,22z M59,2c-1.8,1.8-0.7,4,0,5l5-5C63,1,60.8,0.2,59,2z"/>
		</g>
	</g>
</g>
<g id="Time">
</g>
<g id="Users">
</g>
<g id="User">
</g>
<g id="Refresh">
</g>
<g id="Home">
</g>
<g id="Report">
</g>
<g id="Paste">
</g>
<g id="Copy">
</g>
<g id="Cut">
</g>
<g id="Flag">
</g>
<g id="Redo">
</g>
<g id="Undo">
</g>
<g id="Zoom_Out">
</g>
<g id="Zoom_In">
</g>
<g id="Add_comment">
</g>
<g id="Unread_comment">
</g>
<g id="Comment">
</g>
<g id="New">
</g>
<g id="Attach">
</g>
<g id="Delete">
</g>
<g id="Save">
</g>
<g id="Edit">
</g>
<g id="Print">
</g>
<g id="Guides" display="none" opacity="0.2">
	<rect display="inline" fill-rule="evenodd" clip-rule="evenodd" fill="#0089D9" width="24" height="24"/>
	<rect x="29" display="inline" fill-rule="evenodd" clip-rule="evenodd" fill="#0089D9" width="24" height="24"/>
	<rect x="58" display="inline" fill-rule="evenodd" clip-rule="evenodd" fill="#0089D9" width="24" height="24"/>
</g>
</svg>
