<?xml version="1.0" encoding="utf-8"?>
<!-- Generator: Adobe Illustrator 19.1.0, SVG Export Plug-In . SVG Version: 6.00 Build 0)  -->
<!DOCTYPE svg PUBLIC "-//W3C//DTD SVG 1.1//EN" "http://www.w3.org/Graphics/SVG/1.1/DTD/svg11.dtd">
<svg version="1.1" xmlns="http://www.w3.org/2000/svg" xmlns:xlink="http://www.w3.org/1999/xlink" x="0px" y="0px" width="82px"
	 height="24px" viewBox="0 0 82 24" enable-background="new 0 0 82 24" xml:space="preserve">
<g id="Layer_2">
</g>
<g id="Changelog">
</g>
<g id="Export">
</g>
<g id="PDF">
</g>
<g id="Office_Excel">
</g>
<g id="Office_PowerPoint">
</g>
<g id="Office_Word">
</g>
<g id="Filter">
</g>
<g id="Dislike">
</g>
<g id="Like">
</g>
<g id="Favourite">
</g>
<g id="Preview">
</g>
<g id="Download">
</g>
<g id="Upload">
</g>
<g id="Open">
</g>
<g id="Web">
</g>
<g id="Unlocked">
</g>
<g id="Locked">
</g>
<g id="Phone">
</g>
<g id="Email">
</g>
<g id="Graphs">
</g>
<g id="Note">
</g>
<g id="Search">
</g>
<g id="Alarm">
</g>
<g id="Time">
</g>
<g id="Users">
</g>
<g id="User">
</g>
<g id="Refresh">
	<g>
		<g>
			<path fill-rule="evenodd" clip-rule="evenodd" fill="#0089D9" d="M23.4,9.1l0.6-6l-2.3,1.9c-0.1-0.2-0.3-0.4-0.4-0.5
				C17.1-0.7,9.5-1.5,4.4,2.7c-5.1,4.2-5.9,11.8-1.7,16.9c4.2,5.1,11.8,5.9,16.9,1.7c1.5-1.2,2.6-2.8,3.4-4.4l-1.8-0.8
				c-0.6,1.4-1.5,2.6-2.8,3.7c-4.3,3.5-10.6,2.9-14.1-1.4C0.8,14,1.4,7.7,5.7,4.2C10,0.7,16.3,1.4,19.8,5.6c0.1,0.2,0.3,0.4,0.4,0.6
				l-2.8,2.3L23.4,9.1z"/>
		</g>
	</g>
	<g>
		<g>
			<path fill-rule="evenodd" clip-rule="evenodd" fill="#C8C8C8" d="M52.4,9.1l0.6-6l-2.3,1.9c-0.1-0.2-0.3-0.4-0.4-0.5
				c-4.2-5.1-11.8-5.9-16.9-1.7c-5.1,4.2-5.9,11.8-1.7,16.9c4.2,5.1,11.8,5.9,16.9,1.7c1.5-1.2,2.6-2.8,3.4-4.4l-1.8-0.8
				c-0.6,1.4-1.5,2.6-2.8,3.7c-4.3,3.5-10.6,2.9-14.1-1.4C29.8,14,30.4,7.7,34.7,4.2C39,0.7,45.3,1.4,48.8,5.6
				c0.1,0.2,0.3,0.4,0.4,0.6l-2.8,2.3L52.4,9.1z"/>
		</g>
	</g>
	<g>
		<g>
			<path fill-rule="evenodd" clip-rule="evenodd" fill="#39A6E6" d="M81.4,9.1l0.6-6l-2.3,1.9c-0.1-0.2-0.3-0.4-0.4-0.5
				c-4.2-5.1-11.8-5.9-16.9-1.7c-5.1,4.2-5.9,11.8-1.7,16.9c4.2,5.1,11.8,5.9,16.9,1.7c1.5-1.2,2.6-2.8,3.4-4.4l-1.8-0.8
				c-0.6,1.4-1.5,2.6-2.8,3.7c-4.3,3.5-10.6,2.9-14.1-1.4C58.8,14,59.4,7.7,63.7,4.2C68,0.7,74.3,1.4,77.8,5.6
				c0.1,0.2,0.3,0.4,0.4,0.6l-2.8,2.3L81.4,9.1z"/>
		</g>
	</g>
</g>
<g id="Home">
</g>
<g id="Report">
</g>
<g id="Paste">
</g>
<g id="Copy">
</g>
<g id="Cut">
</g>
<g id="Flag">
</g>
<g id="Redo">
</g>
<g id="Undo">
</g>
<g id="Zoom_Out">
</g>
<g id="Zoom_In">
</g>
<g id="Add_comment">
</g>
<g id="Unread_comment">
</g>
<g id="Comment">
</g>
<g id="New">
</g>
<g id="Attach">
</g>
<g id="Delete">
</g>
<g id="Save">
</g>
<g id="Edit">
</g>
<g id="Print">
</g>
<g id="Guides" display="none" opacity="0.2">
	<rect display="inline" fill-rule="evenodd" clip-rule="evenodd" fill="#0089D9" width="24" height="24"/>
	<rect x="29" display="inline" fill-rule="evenodd" clip-rule="evenodd" fill="#0089D9" width="24" height="24"/>
	<rect x="58" display="inline" fill-rule="evenodd" clip-rule="evenodd" fill="#0089D9" width="24" height="24"/>
</g>
</svg>
