<?xml version="1.0" encoding="utf-8"?>
<!-- Generator: Adobe Illustrator 19.1.0, SVG Export Plug-In . SVG Version: 6.00 Build 0)  -->
<!DOCTYPE svg PUBLIC "-//W3C//DTD SVG 1.1//EN" "http://www.w3.org/Graphics/SVG/1.1/DTD/svg11.dtd">
<svg version="1.1" xmlns="http://www.w3.org/2000/svg" xmlns:xlink="http://www.w3.org/1999/xlink" x="0px" y="0px" width="82px"
	 height="24px" viewBox="0 0 82 24" enable-background="new 0 0 82 24" xml:space="preserve">
<g id="Layer_2">
</g>
<g id="Changelog">
</g>
<g id="Export">
</g>
<g id="PDF">
</g>
<g id="Office_Excel">
</g>
<g id="Office_PowerPoint">
</g>
<g id="Office_Word">
</g>
<g id="Filter">
</g>
<g id="Dislike">
</g>
<g id="Like">
</g>
<g id="Favourite">
</g>
<g id="Preview">
</g>
<g id="Download">
</g>
<g id="Upload">
</g>
<g id="Open">
</g>
<g id="Web">
</g>
<g id="Unlocked">
</g>
<g id="Locked">
</g>
<g id="Phone">
</g>
<g id="Email">
</g>
<g id="Graphs">
</g>
<g id="Note">
</g>
<g id="Search">
</g>
<g id="Alarm">
</g>
<g id="Time">
</g>
<g id="Users">
</g>
<g id="User">
</g>
<g id="Refresh">
</g>
<g id="Home">
</g>
<g id="Report">
	<g>
		<g>
			<path fill-rule="evenodd" clip-rule="evenodd" fill="#0089D9" d="M80,21H61V2c0-0.6-0.4-1-1-1c-0.6,0-1,0.4-1,1v20
				c0,0.6,0.4,1,1,1h20c0.6,0,1-0.4,1-1C81,21.4,80.6,21,80,21z"/>
		</g>
	</g>
	<path fill-rule="evenodd" clip-rule="evenodd" fill="#FFA526" d="M65,11c0.6,0,1,0.4,1,1v6c0,0.6-0.4,1-1,1c-0.6,0-1-0.4-1-1v-6
		C64,11.4,64.4,11,65,11z"/>
	<path fill-rule="evenodd" clip-rule="evenodd" fill="#FFA526" d="M73,9c0.6,0,1,0.4,1,1v8c0,0.6-0.4,1-1,1s-1-0.4-1-1v-8
		C72,9.4,72.4,9,73,9z"/>
	<path fill-rule="evenodd" clip-rule="evenodd" fill="#8EC928" d="M69,7c0.6,0,1,0.4,1,1v10c0,0.6-0.4,1-1,1c-0.6,0-1-0.4-1-1V8
		C68,7.4,68.4,7,69,7z"/>
	<path fill-rule="evenodd" clip-rule="evenodd" fill="#8EC928" d="M77,3c0.6,0,1,0.4,1,1v14c0,0.6-0.4,1-1,1c-0.6,0-1-0.4-1-1V4
		C76,3.4,76.4,3,77,3z"/>
	<g>
		<g>
			<path fill-rule="evenodd" clip-rule="evenodd" fill="#0089D9" d="M22,21H3V2c0-0.6-0.4-1-1-1C1.4,1,1,1.4,1,2v20c0,0.6,0.4,1,1,1
				h20c0.6,0,1-0.4,1-1C23,21.4,22.6,21,22,21z"/>
		</g>
	</g>
	<g>
		<g>
			<path fill-rule="evenodd" clip-rule="evenodd" fill="#C8C8C8" d="M36,19c0.6,0,1-0.4,1-1v-6c0-0.6-0.4-1-1-1c-0.6,0-1,0.4-1,1v6
				C35,18.6,35.4,19,36,19z M44,19c0.6,0,1-0.4,1-1v-8c0-0.6-0.4-1-1-1c-0.6,0-1,0.4-1,1v8C43,18.6,43.4,19,44,19z M40,19
				c0.6,0,1-0.4,1-1V8c0-0.6-0.4-1-1-1c-0.6,0-1,0.4-1,1v10C39,18.6,39.4,19,40,19z M48,19c0.6,0,1-0.4,1-1V4c0-0.6-0.4-1-1-1
				c-0.6,0-1,0.4-1,1v14C47,18.6,47.4,19,48,19z M51,21H32V2c0-0.6-0.4-1-1-1c-0.6,0-1,0.4-1,1v20c0,0.6,0.4,1,1,1h20
				c0.6,0,1-0.4,1-1C52,21.4,51.6,21,51,21z"/>
		</g>
	</g>
	<path fill-rule="evenodd" clip-rule="evenodd" fill="#FF8B00" d="M7,11c0.6,0,1,0.4,1,1v6c0,0.6-0.4,1-1,1c-0.6,0-1-0.4-1-1v-6
		C6,11.4,6.4,11,7,11z"/>
	<path fill-rule="evenodd" clip-rule="evenodd" fill="#FF8B00" d="M15,9c0.6,0,1,0.4,1,1v8c0,0.6-0.4,1-1,1s-1-0.4-1-1v-8
		C14,9.4,14.4,9,15,9z"/>
	<path fill-rule="evenodd" clip-rule="evenodd" fill="#68A611" d="M11,7c0.6,0,1,0.4,1,1v10c0,0.6-0.4,1-1,1c-0.6,0-1-0.4-1-1V8
		C10,7.4,10.4,7,11,7z"/>
	<path fill-rule="evenodd" clip-rule="evenodd" fill="#68A611" d="M19,3c0.6,0,1,0.4,1,1v14c0,0.6-0.4,1-1,1c-0.6,0-1-0.4-1-1V4
		C18,3.4,18.4,3,19,3z"/>
</g>
<g id="Paste">
</g>
<g id="Copy">
</g>
<g id="Cut">
</g>
<g id="Flag">
</g>
<g id="Redo">
</g>
<g id="Undo">
</g>
<g id="Zoom_Out">
</g>
<g id="Zoom_In">
</g>
<g id="Add_comment">
</g>
<g id="Unread_comment">
</g>
<g id="Comment">
</g>
<g id="New">
</g>
<g id="Attach">
</g>
<g id="Delete">
</g>
<g id="Save">
</g>
<g id="Edit">
</g>
<g id="Print">
</g>
<g id="Guides" display="none" opacity="0.2">
	<rect display="inline" fill-rule="evenodd" clip-rule="evenodd" fill="#0089D9" width="24" height="24"/>
	<rect x="29" display="inline" fill-rule="evenodd" clip-rule="evenodd" fill="#0089D9" width="24" height="24"/>
	<rect x="58" display="inline" fill-rule="evenodd" clip-rule="evenodd" fill="#0089D9" width="24" height="24"/>
</g>
</svg>
