<?xml version="1.0" encoding="utf-8"?>
<!-- Generator: Adobe Illustrator 19.1.0, SVG Export Plug-In . SVG Version: 6.00 Build 0)  -->
<!DOCTYPE svg PUBLIC "-//W3C//DTD SVG 1.1//EN" "http://www.w3.org/Graphics/SVG/1.1/DTD/svg11.dtd">
<svg version="1.1" xmlns="http://www.w3.org/2000/svg" xmlns:xlink="http://www.w3.org/1999/xlink" x="0px" y="0px" width="82px"
	 height="24px" viewBox="0 0 82 24" enable-background="new 0 0 82 24" xml:space="preserve">
<g id="Layer_2">
</g>
<g id="Changelog">
</g>
<g id="Export">
</g>
<g id="PDF">
</g>
<g id="Office_Excel">
</g>
<g id="Office_PowerPoint">
</g>
<g id="Office_Word">
</g>
<g id="Filter">
</g>
<g id="Dislike">
</g>
<g id="Like">
</g>
<g id="Favourite">
</g>
<g id="Preview">
</g>
<g id="Download">
</g>
<g id="Upload">
</g>
<g id="Open">
</g>
<g id="Web">
</g>
<g id="Unlocked">
</g>
<g id="Locked">
</g>
<g id="Phone">
</g>
<g id="Email">
</g>
<g id="Graphs">
</g>
<g id="Note">
</g>
<g id="Search">
</g>
<g id="Alarm">
</g>
<g id="Time">
</g>
<g id="Users">
</g>
<g id="User">
</g>
<g id="Refresh">
</g>
<g id="Home">
</g>
<g id="Report">
</g>
<g id="Paste">
</g>
<g id="Copy">
</g>
<g id="Cut">
</g>
<g id="Flag">
</g>
<g id="Redo">
</g>
<g id="Undo">
</g>
<g id="Zoom_Out">
</g>
<g id="Zoom_In">
</g>
<g id="Add_comment">
</g>
<g id="Unread_comment">
</g>
<g id="Comment">
</g>
<g id="New">
</g>
<g id="Attach">
</g>
<g id="Delete">
</g>
<g id="Save">
	<g>
		<g>
			<path fill-rule="evenodd" clip-rule="evenodd" fill="#39A6E6" d="M77.5,0H61c-1.1,0-2,0.9-2,2v19c0,1.1,0.9,2,2,2h19
				c1.1,0,2-0.9,2-2V4.6L77.5,0z M65,1h9v7h-9V1z M80,20c0,0,0,1-1,1H62c-1,0-1-1-1-1V3c0-0.5,0.5-1,1-1h1v8h13V2h1.5L80,4.6V20z
				 M71,2l0,5h2l0-5H71z"/>
		</g>
	</g>
	<g>
		<g>
			<path fill-rule="evenodd" clip-rule="evenodd" fill="#C8C8C8" d="M48.5,0H32c-1.1,0-2,0.9-2,2v19c0,1.1,0.9,2,2,2h19
				c1.1,0,2-0.9,2-2V4.6L48.5,0z M36,1h9v7h-9V1z M51,20c0,0,0,1-1,1H33c-1,0-1-1-1-1V3c0-0.5,0.5-1,1-1h1v8h13V2h1.5L51,4.6V20z
				 M42,2l0,5h2l0-5H42z"/>
		</g>
	</g>
	<g>
		<g>
			<path fill-rule="evenodd" clip-rule="evenodd" fill="#0089D9" d="M19.5,0H3C1.9,0,1,0.9,1,2v19c0,1.1,0.9,2,2,2h19
				c1.1,0,2-0.9,2-2V4.6L19.5,0z M7,1h9v7H7V1z M22,20c0,0,0,1-1,1c-3.9,0-13.5,0-17,0c-1,0-1-1-1-1V3c0-0.5,0.5-1,1-1h1v8h13V2h1.5
				L22,4.6V20z M13,2l0,5h2l0-5H13z"/>
		</g>
	</g>
</g>
<g id="Edit">
</g>
<g id="Print">
</g>
<g id="Guides" display="none" opacity="0.2">
	<rect display="inline" fill-rule="evenodd" clip-rule="evenodd" fill="#0089D9" width="24" height="24"/>
	<rect x="29" display="inline" fill-rule="evenodd" clip-rule="evenodd" fill="#0089D9" width="24" height="24"/>
	<rect x="58" display="inline" fill-rule="evenodd" clip-rule="evenodd" fill="#0089D9" width="24" height="24"/>
</g>
</svg>
