<?xml version="1.0" encoding="utf-8"?>
<!-- Generator: Adobe Illustrator 19.1.0, SVG Export Plug-In . SVG Version: 6.00 Build 0)  -->
<!DOCTYPE svg PUBLIC "-//W3C//DTD SVG 1.1//EN" "http://www.w3.org/Graphics/SVG/1.1/DTD/svg11.dtd">
<svg version="1.1" xmlns="http://www.w3.org/2000/svg" xmlns:xlink="http://www.w3.org/1999/xlink" x="0px" y="0px" width="82px"
	 height="24px" viewBox="0 0 82 24" enable-background="new 0 0 82 24" xml:space="preserve">
<g id="Layer_2">
</g>
<g id="Changelog">
</g>
<g id="Export">
</g>
<g id="PDF">
</g>
<g id="Office_Excel">
</g>
<g id="Office_PowerPoint">
</g>
<g id="Office_Word">
</g>
<g id="Filter">
</g>
<g id="Dislike">
</g>
<g id="Like">
</g>
<g id="Favourite">
</g>
<g id="Preview">
</g>
<g id="Download">
</g>
<g id="Upload">
</g>
<g id="Open">
</g>
<g id="Web">
</g>
<g id="Unlocked">
</g>
<g id="Locked">
</g>
<g id="Phone">
</g>
<g id="Email">
</g>
<g id="Graphs">
</g>
<g id="Note">
</g>
<g id="Search">
	<g>
		<g>
			<path fill-rule="evenodd" clip-rule="evenodd" fill="#0089D9" d="M23.7,22.2l-3.1-3.1c-0.3-0.3-0.7-0.3-1-0.2l-0.5-0.5
				c1.8-2,2.9-4.5,2.9-7.4c0-6.1-4.9-11-11-11C4.9,0,0,4.9,0,11s4.9,11,11,11c2.9,0,5.4-1.1,7.4-2.9l0.6,0.6c-0.1,0.4,0,0.7,0.2,1
				l3.1,3.1c0.4,0.4,1.1,0.3,1.4-0.1C24.1,23.3,24.1,22.6,23.7,22.2z M11,20c-5,0-9-4-9-9c0-5,4-9,9-9c5,0,9,4,9,9
				C20,16,16,20,11,20z M5,15C4.3,10.9,6,6.2,7.9,4.5C4,5.9,2.9,12,5,15z"/>
		</g>
	</g>
	<g>
		<g>
			<path fill-rule="evenodd" clip-rule="evenodd" fill="#C8C8C8" d="M52.7,22.2l-3.1-3.1c-0.3-0.3-0.7-0.3-1-0.2l-0.5-0.5
				c1.8-2,2.9-4.5,2.9-7.4C51,4.9,46,0,40,0c-6.1,0-11,4.9-11,11s4.9,11,11,11c2.9,0,5.4-1.1,7.4-2.9l0.6,0.6c-0.1,0.4,0,0.7,0.2,1
				l3.1,3.1c0.4,0.4,1.1,0.3,1.4-0.1C53.1,23.3,53.1,22.6,52.7,22.2z M40,20c-5,0-9-4-9-9c0-5,4-9,9-9c5,0,9,4,9,9
				C49,16,44.9,20,40,20z M34,15c-0.7-4.1,0.9-8.8,2.8-10.5C33,5.9,31.9,12,34,15z"/>
		</g>
	</g>
	<g>
		<g>
			<path fill-rule="evenodd" clip-rule="evenodd" fill="#39A6E6" d="M81.7,22.2l-3.1-3.1c-0.3-0.3-0.7-0.3-1-0.2l-0.5-0.5
				c1.8-2,2.9-4.5,2.9-7.4C80,4.9,75,0,69,0c-6.1,0-11,4.9-11,11s4.9,11,11,11c2.9,0,5.4-1.1,7.4-2.9l0.6,0.6c-0.1,0.4,0,0.7,0.2,1
				l3.1,3.1c0.4,0.4,1.1,0.3,1.4-0.1C82.1,23.3,82.1,22.6,81.7,22.2z M69,20c-5,0-9-4-9-9c0-5,4-9,9-9c5,0,9,4,9,9
				C78,16,73.9,20,69,20z M63,15c-0.7-4.1,0.9-8.8,2.8-10.5C62,5.9,60.9,12,63,15z"/>
		</g>
	</g>
</g>
<g id="Alarm">
</g>
<g id="Time">
</g>
<g id="Users">
</g>
<g id="User">
</g>
<g id="Refresh">
</g>
<g id="Home">
</g>
<g id="Report">
</g>
<g id="Paste">
</g>
<g id="Copy">
</g>
<g id="Cut">
</g>
<g id="Flag">
</g>
<g id="Redo">
</g>
<g id="Undo">
</g>
<g id="Zoom_Out">
</g>
<g id="Zoom_In">
</g>
<g id="Add_comment">
</g>
<g id="Unread_comment">
</g>
<g id="Comment">
</g>
<g id="New">
</g>
<g id="Attach">
</g>
<g id="Delete">
</g>
<g id="Save">
</g>
<g id="Edit">
</g>
<g id="Print">
</g>
<g id="Guides" display="none" opacity="0.2">
	<rect display="inline" fill-rule="evenodd" clip-rule="evenodd" fill="#0089D9" width="24" height="24"/>
	<rect x="29" display="inline" fill-rule="evenodd" clip-rule="evenodd" fill="#0089D9" width="24" height="24"/>
	<rect x="58" display="inline" fill-rule="evenodd" clip-rule="evenodd" fill="#0089D9" width="24" height="24"/>
</g>
</svg>
