<?xml version="1.0" encoding="utf-8"?>
<!-- Generator: Adobe Illustrator 19.1.1, SVG Export Plug-In . SVG Version: 6.00 Build 0)  -->
<svg version="1.1" xmlns="http://www.w3.org/2000/svg" xmlns:xlink="http://www.w3.org/1999/xlink" x="0px" y="0px" width="140px"
	 height="24px" viewBox="0 0 140 24" enable-background="new 0 0 140 24" xml:space="preserve">
<g id="Burger_Menu">
</g>
<g id="Reminder">
</g>
<g id="Phone">
</g>
<g id="Tool">
</g>
<g id="Document_Production">
</g>
<g id="Location">
</g>
<g id="Calendar">
</g>
<g id="Library">
</g>
<g id="Home">
</g>
<g id="Message">
</g>
<g id="Shopping_Cart">
</g>
<g id="Logout">
</g>
<g id="Search">
</g>
<g id="Information">
</g>
<g id="Help">
</g>
<g id="Settings">
	<path opacity="0.65" fill="#FFFFFF" d="M128,15c-1.7,0-3-1.3-3-3s1.3-3,3-3c1.7,0,3,1.3,3,3S129.6,15,128,15 M129.4,1l-2.5,0.2
		l-1.3,3.2l-1.7,0.5l-2.4-1.5l-2.3,1.9l1.5,2.9L120,9.8l-3.3,1.1l0.3,2.7l3.6,0.8l0.4,1.6l-1.6,2.5l1.8,2.3l3.4-1.5l1.1,0.5l0.9,3.3
		l2.8,0l1-3.4l1.4-0.5l2.6,1.6l2.3-1.8l-1.6-3.1l0.6-1.6l3.4-1l-0.2-2.1l-3.3-1.5l-0.6-1.4l1.9-2.9l-2.1-2l-3,1.4l-1.6-0.5L129.4,1"
		/>
	<path opacity="0.65" fill="#FFFFFF" d="M11.9,15c-1.7,0-3-1.3-3-3s1.3-3,3-3c1.7,0,3,1.3,3,3S13.5,15,11.9,15 M13.4,1l-2.5,0.2
		L9.6,4.3L7.9,4.8L5.5,3.3L3.2,5.2l1.5,2.9L3.9,9.8l-3.3,1.1l0.3,2.7l3.6,0.8l0.4,1.6l-1.6,2.5L5,20.7l3.4-1.5l1.1,0.5l0.9,3.3
		l2.8,0l1-3.4l1.4-0.5l2.6,1.6l2.3-1.8L19,15.8l0.6-1.6l3.4-1l-0.2-2.1l-3.3-1.5l-0.6-1.4l1.9-2.9l-2.1-2l-3,1.4L14,4.4L13.4,1"/>
	<g>
		<g>
			<path fill="#0089D9" d="M9.1,9.2c-1.5,1.6-1.5,4.1,0.1,5.7c1.6,1.5,4.1,1.5,5.7-0.1c1.5-1.6,1.5-4.1-0.1-5.7
				C13.2,7.6,10.6,7.6,9.1,9.2z M13.9,13.8c-1,1.1-2.7,1.1-3.8,0.1c-1.1-1-1.1-2.7-0.1-3.8c1-1.1,2.7-1.1,3.8-0.1
				C14.9,11.1,14.9,12.8,13.9,13.8z M22.5,9.4l-2-0.4c-0.1-0.3-0.3-0.7-0.4-1l1.1-1.7c0.6-0.6,0.6-1.5,0-2.1l-1.5-1.5
				c-0.6-0.6-1.5-0.6-2.1,0l-1.7,1.2c-0.3-0.1-0.6-0.3-0.9-0.4l-0.4-2.1C14.5,0.6,13.9,0,13,0h-2.1c-0.8,0-1.5,0.6-1.5,1.5L9,3.5
				C8.7,3.6,8.4,3.7,8.1,3.9L6.4,2.7c-0.6-0.6-1.5-0.6-2.1,0L2.7,4.2c-0.6,0.6-0.6,1.5,0,2.1l1.1,1.7C3.7,8.4,3.6,8.7,3.5,9l-2,0.4
				C0.6,9.4,0,10.1,0,10.9V13c0,0.8,0.6,1.5,1.5,1.5l2,0.4c0.1,0.3,0.2,0.6,0.4,1l-1.1,1.7c-0.6,0.6-0.6,1.5,0,2.1l1.5,1.5
				c0.6,0.6,1.5,0.6,2.1,0l1.7-1.1c0.3,0.1,0.6,0.3,1,0.4l0.4,2c0,0.8,0.7,1.5,1.5,1.5H13c0.8,0,1.5-0.7,1.5-1.5l0.4-2
				c0.3-0.1,0.7-0.3,1-0.4l1.7,1.1c0.6,0.6,1.5,0.6,2.1,0l1.5-1.5c0.6-0.6,0.6-1.5,0-2.1l-1.1-1.7c0.2-0.3,0.3-0.6,0.4-1l2-0.4
				c0.8,0,1.5-0.7,1.5-1.5v-2.1C24,10.1,23.3,9.4,22.5,9.4z M22,12.3c0,0.4-0.3,0.7-0.7,0.7l-2.2,0.4c-0.1,0-0.2,0-0.3-0.1
				c-0.2,0.9-0.5,1.7-1.1,2.5c0.1,0,0.2,0.1,0.3,0.2l1.3,1.8c0.3,0.3,0.3,0.7,0,1l-0.5,0.5c-0.3,0.3-0.7,0.3-1,0l-1.8-1.3
				c-0.1-0.1-0.1-0.2-0.2-0.3c-0.8,0.5-1.7,0.9-2.6,1c0.1,0.1,0.1,0.2,0.1,0.3l-0.4,2.2c0,0.4-0.3,0.7-0.7,0.7h-0.7
				c-0.4,0-0.7-0.3-0.7-0.7l-0.3-2.2c0-0.1,0-0.2,0.1-0.4c-0.9-0.2-1.8-0.5-2.6-1.1c0,0.1-0.1,0.2-0.2,0.3l-1.8,1.3
				c-0.3,0.3-0.7,0.3-1,0l-0.5-0.5c-0.3-0.3-0.3-0.7,0-1L5.9,16C6,16,6.1,15.9,6.2,15.9c-0.5-0.8-0.9-1.6-1.1-2.5
				c-0.1,0.1-0.2,0.1-0.3,0.1l-2.2-0.4c-0.4,0-0.7-0.3-0.7-0.7v-0.7c0-0.4,0.3-0.7,0.7-0.7l2.2-0.3c0.1,0,0.2,0,0.3,0.1
				c0.2-0.9,0.5-1.8,1-2.5C6,8,6,8,5.9,7.9L4.6,6.1c-0.3-0.3-0.3-0.7,0-1l0.5-0.5c0.3-0.3,0.7-0.3,1,0l1.8,1.3C8,5.9,8,6,8.1,6.1
				c0.8-0.5,1.6-0.9,2.5-1c0-0.1-0.1-0.2-0.1-0.3l0.3-2.2c0-0.4,0.3-0.7,0.7-0.7h0.7c0.4,0,0.7,0.3,0.7,0.7l0.4,2.2
				c0,0.1,0,0.2-0.1,0.3c0.9,0.2,1.7,0.5,2.5,1C15.9,6,16,5.9,16,5.9l1.8-1.3c0.3-0.3,0.7-0.3,1,0l0.5,0.5c0.3,0.3,0.3,0.7,0,1
				l-1.3,1.8C18,8,17.9,8,17.9,8.1c0.5,0.8,0.9,1.6,1,2.5c0.1,0,0.2-0.1,0.3-0.1l2.2,0.3c0.4,0,0.7,0.3,0.7,0.7V12.3z"/>
		</g>
	</g>
	<g>
		<g>
			<path fill="#C8C8C8" d="M38.1,9.2c-1.5,1.6-1.5,4.1,0.1,5.7c1.6,1.5,4.1,1.5,5.7-0.1c1.5-1.6,1.5-4.1-0.1-5.7
				C42.2,7.6,39.6,7.6,38.1,9.2z M42.9,13.8c-1,1.1-2.7,1.1-3.8,0.1c-1.1-1-1.1-2.7-0.1-3.8c1-1.1,2.7-1.1,3.8-0.1
				C43.9,11.1,43.9,12.8,42.9,13.8z M51.5,9.4l-2-0.4c-0.1-0.3-0.3-0.7-0.4-1l1.1-1.7c0.6-0.6,0.6-1.5,0-2.1l-1.5-1.5
				c-0.6-0.6-1.5-0.6-2.1,0l-1.7,1.2c-0.3-0.1-0.6-0.3-0.9-0.4l-0.4-2.1C43.5,0.6,42.9,0,42,0h-2.1c-0.8,0-1.5,0.6-1.5,1.5L38,3.5
				c-0.3,0.1-0.6,0.2-0.9,0.4l-1.7-1.2c-0.6-0.6-1.5-0.6-2.1,0l-1.5,1.5c-0.6,0.6-0.6,1.5,0,2.1l1.1,1.7c-0.2,0.3-0.3,0.6-0.4,1
				l-2,0.4c-0.8,0-1.5,0.7-1.5,1.5V13c0,0.8,0.6,1.5,1.5,1.5l2,0.4c0.1,0.3,0.2,0.6,0.4,1l-1.1,1.7c-0.6,0.6-0.6,1.5,0,2.1l1.5,1.5
				c0.6,0.6,1.5,0.6,2.1,0l1.7-1.1c0.3,0.1,0.6,0.3,1,0.4l0.4,2c0,0.8,0.7,1.5,1.5,1.5H42c0.8,0,1.5-0.7,1.5-1.5l0.4-2
				c0.3-0.1,0.7-0.3,1-0.4l1.7,1.1c0.6,0.6,1.5,0.6,2.1,0l1.5-1.5c0.6-0.6,0.6-1.5,0-2.1l-1.1-1.7c0.2-0.3,0.3-0.6,0.4-1l2-0.4
				c0.8,0,1.5-0.7,1.5-1.5v-2.1C53,10.1,52.3,9.4,51.5,9.4z M51,12.3c0,0.4-0.3,0.7-0.7,0.7l-2.2,0.4c-0.1,0-0.2,0-0.3-0.1
				c-0.2,0.9-0.5,1.7-1.1,2.5c0.1,0,0.2,0.1,0.3,0.2l1.3,1.8c0.3,0.3,0.3,0.7,0,1l-0.5,0.5c-0.3,0.3-0.7,0.3-1,0l-1.8-1.3
				c-0.1-0.1-0.1-0.2-0.2-0.3c-0.8,0.5-1.7,0.9-2.6,1c0.1,0.1,0.1,0.2,0.1,0.3l-0.4,2.2c0,0.4-0.3,0.7-0.7,0.7h-0.7
				c-0.4,0-0.7-0.3-0.7-0.7l-0.3-2.2c0-0.1,0-0.2,0.1-0.4c-0.9-0.2-1.8-0.5-2.6-1.1c0,0.1-0.1,0.2-0.2,0.3l-1.8,1.3
				c-0.3,0.3-0.7,0.3-1,0l-0.5-0.5c-0.3-0.3-0.3-0.7,0-1l1.3-1.8c0.1-0.1,0.2-0.1,0.3-0.2c-0.5-0.8-0.9-1.6-1.1-2.5
				c-0.1,0.1-0.2,0.1-0.3,0.1l-2.2-0.4c-0.4,0-0.7-0.3-0.7-0.7v-0.7c0-0.4,0.3-0.7,0.7-0.7l2.2-0.3c0.1,0,0.2,0,0.3,0.1
				c0.2-0.9,0.5-1.8,1-2.5C35,8,35,8,34.9,7.9l-1.3-1.8c-0.3-0.3-0.3-0.7,0-1l0.5-0.5c0.3-0.3,0.7-0.3,1,0l1.8,1.3
				C37,5.9,37,6,37.1,6.1c0.8-0.5,1.6-0.9,2.5-1c0-0.1-0.1-0.2-0.1-0.3l0.3-2.2c0-0.4,0.3-0.7,0.7-0.7h0.7c0.4,0,0.7,0.3,0.7,0.7
				l0.4,2.2c0,0.1,0,0.2-0.1,0.3c0.9,0.2,1.7,0.5,2.5,1C44.9,6,45,5.9,45,5.9l1.8-1.3c0.3-0.3,0.7-0.3,1,0l0.5,0.5
				c0.3,0.3,0.3,0.7,0,1l-1.3,1.8C47,8,46.9,8,46.9,8.1c0.5,0.8,0.9,1.6,1,2.5c0.1,0,0.2-0.1,0.3-0.1l2.2,0.3c0.4,0,0.7,0.3,0.7,0.7
				V12.3z"/>
		</g>
	</g>
	<g>
		<g>
			<path fill="#39A6E6" d="M67.1,9.2c-1.5,1.6-1.5,4.1,0.1,5.7c1.6,1.5,4.1,1.5,5.7-0.1c1.5-1.6,1.5-4.1-0.1-5.7
				C71.2,7.6,68.6,7.6,67.1,9.2z M71.9,13.8c-1,1.1-2.7,1.1-3.8,0.1c-1.1-1-1.1-2.7-0.1-3.8c1-1.1,2.7-1.1,3.8-0.1
				C72.9,11.1,72.9,12.8,71.9,13.8z M80.5,9.4l-2-0.4c-0.1-0.3-0.3-0.7-0.4-1l1.1-1.7c0.6-0.6,0.6-1.5,0-2.1l-1.5-1.5
				c-0.6-0.6-1.5-0.6-2.1,0l-1.7,1.2c-0.3-0.1-0.6-0.3-0.9-0.4l-0.4-2.1C72.5,0.6,71.9,0,71,0h-2.1c-0.8,0-1.5,0.6-1.5,1.5L67,3.5
				c-0.3,0.1-0.6,0.2-0.9,0.4l-1.7-1.2c-0.6-0.6-1.5-0.6-2.1,0l-1.5,1.5c-0.6,0.6-0.6,1.5,0,2.1l1.1,1.7c-0.2,0.3-0.3,0.6-0.4,1
				l-2,0.4c-0.8,0-1.5,0.7-1.5,1.5V13c0,0.8,0.6,1.5,1.5,1.5l2,0.4c0.1,0.3,0.2,0.6,0.4,1l-1.1,1.7c-0.6,0.6-0.6,1.5,0,2.1l1.5,1.5
				c0.6,0.6,1.5,0.6,2.1,0l1.7-1.1c0.3,0.1,0.6,0.3,1,0.4l0.4,2c0,0.8,0.7,1.5,1.5,1.5H71c0.8,0,1.5-0.7,1.5-1.5l0.4-2
				c0.3-0.1,0.7-0.3,1-0.4l1.7,1.1c0.6,0.6,1.5,0.6,2.1,0l1.5-1.5c0.6-0.6,0.6-1.5,0-2.1l-1.1-1.7c0.2-0.3,0.3-0.6,0.4-1l2-0.4
				c0.8,0,1.5-0.7,1.5-1.5v-2.1C82,10.1,81.3,9.4,80.5,9.4z M80,12.3c0,0.4-0.3,0.7-0.7,0.7l-2.2,0.4c-0.1,0-0.2,0-0.3-0.1
				c-0.2,0.9-0.5,1.7-1.1,2.5c0.1,0,0.2,0.1,0.3,0.2l1.3,1.8c0.3,0.3,0.3,0.7,0,1l-0.5,0.5c-0.3,0.3-0.7,0.3-1,0l-1.8-1.3
				c-0.1-0.1-0.1-0.2-0.2-0.3c-0.8,0.5-1.7,0.9-2.6,1c0.1,0.1,0.1,0.2,0.1,0.3l-0.4,2.2c0,0.4-0.3,0.7-0.7,0.7h-0.7
				c-0.4,0-0.7-0.3-0.7-0.7l-0.3-2.2c0-0.1,0-0.2,0.1-0.4c-0.9-0.2-1.8-0.5-2.6-1.1c0,0.1-0.1,0.2-0.2,0.3l-1.8,1.3
				c-0.3,0.3-0.7,0.3-1,0l-0.5-0.5c-0.3-0.3-0.3-0.7,0-1l1.3-1.8c0.1-0.1,0.2-0.1,0.3-0.2c-0.5-0.8-0.9-1.6-1.1-2.5
				c-0.1,0.1-0.2,0.1-0.3,0.1l-2.2-0.4c-0.4,0-0.7-0.3-0.7-0.7v-0.7c0-0.4,0.3-0.7,0.7-0.7l2.2-0.3c0.1,0,0.2,0,0.3,0.1
				c0.2-0.9,0.5-1.8,1-2.5C64,8,64,8,63.9,7.9l-1.3-1.8c-0.3-0.3-0.3-0.7,0-1l0.5-0.5c0.3-0.3,0.7-0.3,1,0l1.8,1.3
				C66,5.9,66,6,66.1,6.1c0.8-0.5,1.6-0.9,2.5-1c0-0.1-0.1-0.2-0.1-0.3l0.3-2.2c0-0.4,0.3-0.7,0.7-0.7h0.7c0.4,0,0.7,0.3,0.7,0.7
				l0.4,2.2c0,0.1,0,0.2-0.1,0.3c0.9,0.2,1.7,0.5,2.5,1C73.9,6,74,5.9,74,5.9l1.8-1.3c0.3-0.3,0.7-0.3,1,0l0.5,0.5
				c0.3,0.3,0.3,0.7,0,1l-1.3,1.8C76,8,75.9,8,75.9,8.1c0.5,0.8,0.9,1.6,1,2.5c0.1,0,0.2-0.1,0.3-0.1l2.2,0.3c0.4,0,0.7,0.3,0.7,0.7
				V12.3z"/>
		</g>
	</g>
	<g>
		<g>
			<path fill="#FFFFFF" d="M96.1,9.2c-1.5,1.6-1.5,4.1,0.1,5.7c1.6,1.5,4.1,1.5,5.7-0.1c1.5-1.6,1.5-4.1-0.1-5.7
				C100.2,7.6,97.6,7.6,96.1,9.2z M100.9,13.8c-1,1.1-2.7,1.1-3.8,0.1c-1.1-1-1.1-2.7-0.1-3.8c1-1.1,2.7-1.1,3.8-0.1
				C101.9,11.1,101.9,12.8,100.9,13.8z M109.5,9.4l-2-0.4c-0.1-0.3-0.3-0.7-0.4-1l1.1-1.7c0.6-0.6,0.6-1.5,0-2.1l-1.5-1.5
				c-0.6-0.6-1.5-0.6-2.1,0l-1.7,1.2c-0.3-0.1-0.6-0.3-0.9-0.4l-0.4-2.1c0-0.8-0.7-1.5-1.5-1.5h-2.1c-0.8,0-1.5,0.6-1.5,1.5L96,3.5
				c-0.3,0.1-0.6,0.2-0.9,0.4l-1.7-1.2c-0.6-0.6-1.5-0.6-2.1,0l-1.5,1.5c-0.6,0.6-0.6,1.5,0,2.1l1.1,1.7c-0.2,0.3-0.3,0.6-0.4,1
				l-2,0.4c-0.8,0-1.5,0.7-1.5,1.5V13c0,0.8,0.6,1.5,1.5,1.5l2,0.4c0.1,0.3,0.2,0.6,0.4,1l-1.1,1.7c-0.6,0.6-0.6,1.5,0,2.1l1.5,1.5
				c0.6,0.6,1.5,0.6,2.1,0l1.7-1.1c0.3,0.1,0.6,0.3,1,0.4l0.4,2c0,0.8,0.7,1.5,1.5,1.5h2.1c0.8,0,1.5-0.7,1.5-1.5l0.4-2
				c0.3-0.1,0.7-0.3,1-0.4l1.7,1.1c0.6,0.6,1.5,0.6,2.1,0l1.5-1.5c0.6-0.6,0.6-1.5,0-2.1l-1.1-1.7c0.2-0.3,0.3-0.6,0.4-1l2-0.4
				c0.8,0,1.5-0.7,1.5-1.5v-2.1C111,10.1,110.3,9.4,109.5,9.4z M109,12.3c0,0.4-0.3,0.7-0.7,0.7l-2.2,0.4c-0.1,0-0.2,0-0.3-0.1
				c-0.2,0.9-0.5,1.7-1.1,2.5c0.1,0,0.2,0.1,0.3,0.2l1.3,1.8c0.3,0.3,0.3,0.7,0,1l-0.5,0.5c-0.3,0.3-0.7,0.3-1,0l-1.8-1.3
				c-0.1-0.1-0.1-0.2-0.2-0.3c-0.8,0.5-1.7,0.9-2.6,1c0.1,0.1,0.1,0.2,0.1,0.3l-0.4,2.2c0,0.4-0.3,0.7-0.7,0.7h-0.7
				c-0.4,0-0.7-0.3-0.7-0.7l-0.3-2.2c0-0.1,0-0.2,0.1-0.4c-0.9-0.2-1.8-0.5-2.6-1.1c0,0.1-0.1,0.2-0.2,0.3l-1.8,1.3
				c-0.3,0.3-0.7,0.3-1,0l-0.5-0.5c-0.3-0.3-0.3-0.7,0-1l1.3-1.8c0.1-0.1,0.2-0.1,0.3-0.2c-0.5-0.8-0.9-1.6-1.1-2.5
				c-0.1,0.1-0.2,0.1-0.3,0.1l-2.2-0.4c-0.4,0-0.7-0.3-0.7-0.7v-0.7c0-0.4,0.3-0.7,0.7-0.7l2.2-0.3c0.1,0,0.2,0,0.3,0.1
				c0.2-0.9,0.5-1.8,1-2.5C93,8,93,8,92.9,7.9l-1.3-1.8c-0.3-0.3-0.3-0.7,0-1l0.5-0.5c0.3-0.3,0.7-0.3,1,0l1.8,1.3
				C95,5.9,95,6,95.1,6.1c0.8-0.5,1.6-0.9,2.5-1c0-0.1-0.1-0.2-0.1-0.3l0.3-2.2c0-0.4,0.3-0.7,0.7-0.7h0.7c0.4,0,0.7,0.3,0.7,0.7
				l0.4,2.2c0,0.1,0,0.2-0.1,0.3c0.9,0.2,1.7,0.5,2.5,1c0-0.1,0.1-0.2,0.1-0.2l1.8-1.3c0.3-0.3,0.7-0.3,1,0l0.5,0.5
				c0.3,0.3,0.3,0.7,0,1l-1.3,1.8C105,8,104.9,8,104.9,8.1c0.5,0.8,0.9,1.6,1,2.5c0.1,0,0.2-0.1,0.3-0.1l2.2,0.3
				c0.4,0,0.7,0.3,0.7,0.7V12.3z"/>
		</g>
	</g>
	<g>
		<g>
			<path fill="#646464" d="M125.1,9.2c-1.5,1.6-1.5,4.1,0.1,5.7c1.6,1.5,4.1,1.5,5.7-0.1c1.5-1.6,1.5-4.1-0.1-5.7
				C129.2,7.6,126.6,7.6,125.1,9.2z M129.9,13.8c-1,1.1-2.7,1.1-3.8,0.1c-1.1-1-1.1-2.7-0.1-3.8c1-1.1,2.7-1.1,3.8-0.1
				C130.9,11.1,130.9,12.8,129.9,13.8z M138.5,9.4l-2-0.4c-0.1-0.3-0.3-0.7-0.4-1l1.1-1.7c0.6-0.6,0.6-1.5,0-2.1l-1.5-1.5
				c-0.6-0.6-1.5-0.6-2.1,0l-1.7,1.2c-0.3-0.1-0.6-0.3-0.9-0.4l-0.4-2.1c0-0.8-0.7-1.5-1.5-1.5h-2.1c-0.8,0-1.5,0.6-1.5,1.5L125,3.5
				c-0.3,0.1-0.6,0.2-0.9,0.4l-1.7-1.2c-0.6-0.6-1.5-0.6-2.1,0l-1.5,1.5c-0.6,0.6-0.6,1.5,0,2.1l1.1,1.7c-0.2,0.3-0.3,0.6-0.4,1
				l-2,0.4c-0.8,0-1.5,0.7-1.5,1.5V13c0,0.8,0.6,1.5,1.5,1.5l2,0.4c0.1,0.3,0.2,0.6,0.4,1l-1.1,1.7c-0.6,0.6-0.6,1.5,0,2.1l1.5,1.5
				c0.6,0.6,1.5,0.6,2.1,0l1.7-1.1c0.3,0.1,0.6,0.3,1,0.4l0.4,2c0,0.8,0.7,1.5,1.5,1.5h2.1c0.8,0,1.5-0.7,1.5-1.5l0.4-2
				c0.3-0.1,0.7-0.3,1-0.4l1.7,1.1c0.6,0.6,1.5,0.6,2.1,0l1.5-1.5c0.6-0.6,0.6-1.5,0-2.1l-1.1-1.7c0.2-0.3,0.3-0.6,0.4-1l2-0.4
				c0.8,0,1.5-0.7,1.5-1.5v-2.1C140,10.1,139.3,9.4,138.5,9.4z M138,12.3c0,0.4-0.3,0.7-0.7,0.7l-2.2,0.4c-0.1,0-0.2,0-0.3-0.1
				c-0.2,0.9-0.5,1.7-1.1,2.5c0.1,0,0.2,0.1,0.3,0.2l1.3,1.8c0.3,0.3,0.3,0.7,0,1l-0.5,0.5c-0.3,0.3-0.7,0.3-1,0l-1.8-1.3
				c-0.1-0.1-0.1-0.2-0.2-0.3c-0.8,0.5-1.7,0.9-2.6,1c0.1,0.1,0.1,0.2,0.1,0.3l-0.4,2.2c0,0.4-0.3,0.7-0.7,0.7h-0.7
				c-0.4,0-0.7-0.3-0.7-0.7l-0.3-2.2c0-0.1,0-0.2,0.1-0.4c-0.9-0.2-1.8-0.5-2.6-1.1c0,0.1-0.1,0.2-0.2,0.3l-1.8,1.3
				c-0.3,0.3-0.7,0.3-1,0l-0.5-0.5c-0.3-0.3-0.3-0.7,0-1l1.3-1.8c0.1-0.1,0.2-0.1,0.3-0.2c-0.5-0.8-0.9-1.6-1.1-2.5
				c-0.1,0.1-0.2,0.1-0.3,0.1l-2.2-0.4c-0.4,0-0.7-0.3-0.7-0.7v-0.7c0-0.4,0.3-0.7,0.7-0.7l2.2-0.3c0.1,0,0.2,0,0.3,0.1
				c0.2-0.9,0.5-1.8,1-2.5C122,8,122,8,121.9,7.9l-1.3-1.8c-0.3-0.3-0.3-0.7,0-1l0.5-0.5c0.3-0.3,0.7-0.3,1,0l1.8,1.3
				c0.1,0.1,0.1,0.1,0.1,0.2c0.8-0.5,1.6-0.9,2.5-1c0-0.1-0.1-0.2-0.1-0.3l0.3-2.2c0-0.4,0.3-0.7,0.7-0.7h0.7c0.4,0,0.7,0.3,0.7,0.7
				l0.4,2.2c0,0.1,0,0.2-0.1,0.3c0.9,0.2,1.7,0.5,2.5,1c0-0.1,0.1-0.2,0.1-0.2l1.8-1.3c0.3-0.3,0.7-0.3,1,0l0.5,0.5
				c0.3,0.3,0.3,0.7,0,1l-1.3,1.8C134,8,133.9,8,133.9,8.1c0.5,0.8,0.9,1.6,1,2.5c0.1,0,0.2-0.1,0.3-0.1l2.2,0.3
				c0.4,0,0.7,0.3,0.7,0.7V12.3z"/>
		</g>
	</g>
</g>
<g id="User_Setting">
</g>
<g id="User">
</g>
<g id="Guides" display="none" opacity="0.2">
	<rect display="inline" fill-rule="evenodd" clip-rule="evenodd" fill="#0089D9" width="24" height="24"/>
	<rect x="29" display="inline" fill-rule="evenodd" clip-rule="evenodd" fill="#0089D9" width="24" height="24"/>
	<rect x="58" display="inline" fill-rule="evenodd" clip-rule="evenodd" fill="#0089D9" width="24" height="24"/>
	<rect x="87" display="inline" fill-rule="evenodd" clip-rule="evenodd" fill="#0089D9" width="24" height="24"/>
	<rect x="116" display="inline" fill-rule="evenodd" clip-rule="evenodd" fill="#0089D9" width="24" height="24"/>
</g>
</svg>
