<?xml version="1.0" encoding="utf-8"?>
<!-- Generator: Adobe Illustrator 19.1.0, SVG Export Plug-In . SVG Version: 6.00 Build 0)  -->
<!DOCTYPE svg PUBLIC "-//W3C//DTD SVG 1.1//EN" "http://www.w3.org/Graphics/SVG/1.1/DTD/svg11.dtd">
<svg version="1.1" xmlns="http://www.w3.org/2000/svg" xmlns:xlink="http://www.w3.org/1999/xlink" x="0px" y="0px" width="82px"
	 height="24px" viewBox="0 0 82 24" enable-background="new 0 0 82 24" xml:space="preserve">
<g id="Layer_2">
</g>
<g id="Changelog">
</g>
<g id="Export">
</g>
<g id="PDF">
</g>
<g id="Office_Excel">
</g>
<g id="Office_PowerPoint">
</g>
<g id="Office_Word">
</g>
<g id="Filter">
</g>
<g id="Dislike">
</g>
<g id="Like">
</g>
<g id="Favourite">
</g>
<g id="Preview">
</g>
<g id="Download">
</g>
<g id="Upload">
</g>
<g id="Open">
</g>
<g id="Web">
</g>
<g id="Unlocked">
</g>
<g id="Locked">
</g>
<g id="Phone">
</g>
<g id="Email">
</g>
<g id="Graphs">
</g>
<g id="Note">
</g>
<g id="Search">
</g>
<g id="Alarm">
</g>
<g id="Time">
</g>
<g id="Users">
	<g>
		<g>
			<path fill-rule="evenodd" clip-rule="evenodd" fill="#0089D9" d="M24,14c-0.9-0.6-2.2-1.4-2.9-2c-0.1-0.1-0.7-0.2-1-0.2
				c0-0.2,0.1-0.7,0.1-0.8c0.6-0.2,0.8-1.1,0.8-1.8c0.8-0.2,1.4-1.5,1.3-2.3c0-0.4-0.4-0.9-0.8-1c0.3-0.7,0.6-0.8,0.6-1.9
				c0-0.8-0.4-1.9-1.8-1.8C19.9,1.6,18.8,1,17.7,1c-1.8,0-3.9,1.1-3.9,3.3c0,0.9,0.3,1.1,0.6,1.8c-0.4,0.1-0.7,0.6-0.7,1
				c0,0.7,0.5,2.1,1.3,2.3c0,0.7,0.2,1.4,0.9,1.7c0.1,0.1,0.1,0.5,0,0.7c-0.2,0-0.8,0.3-1,0.4c-0.6,0.5-1.8,1.2-2.9,1.9
				c-0.1,0.1-0.1,0.3,0,0.4c0,0.2,0,0.4,0,0.6c0.1,2.7,12.1,2.7,12,0c0-0.2,0-0.4-0.1-0.6C24,14.3,24,14.2,24,14z M13.7,14.8
				c0.9-0.5,2-1.2,2.6-1.7c0,0,0.7-0.3,0.8-0.9c0.1-0.6,0.1-1.5-0.1-2c-0.4-0.8-0.7-0.5-0.8-1.5c0-0.4-0.4-1.1-0.8-1.1
				c0,0-0.1-0.2,0-0.3c0.5-0.1,0.8-1,0.6-1.5c-1.5-3.5,2.8-4.3,3.7-2.3c1-0.6,1.2,2,0.6,2.3c-0.4,0.8,0,1.6,0.4,1.6
				c0,0,0.1,0.2,0,0.4c-0.4,0.2-0.8,0.5-0.8,1c-0.1,0.5-0.6,1-0.8,1.4c-0.2,0.4,0,1.5,0.1,2c0.1,0.5,1.1,0.9,1.1,0.9
				c0.8,0.5,1.6,1.1,2.5,1.7C20.6,16,16,15.9,13.7,14.8z M9.1,6.6c0.2,0.8,1,0.7,1.5,1.1c-0.3-1.5-1.2-1.5-1.3-2.2
				C7.9,6.6,5,5.5,5.4,8C6.6,6.6,8.6,8.1,9.1,6.6z M14.6,19.5c-1.1-0.8-2.7-2.4-3.6-3.2c-0.2-0.2-0.4-0.2-0.7-0.2
				c-0.1-0.3-0.1-0.7,0-0.8c0.6-0.7,0.9-1.4,1-2.3c1-0.2,1.8-2,1.7-3c-0.1-0.6-0.5-1.1-1-1.3c0.3-0.9,0.6-0.7,0.6-2.2
				c0-1-0.6-2.7-2.2-2.8C9.7,2.7,8.6,2,7.2,2C4.9,2,2.5,3.7,2.5,6.5c0,1.2,0.2,1.3,0.5,2.2C2.5,8.8,2,9.4,2,10c0,1,0.7,2.7,1.7,3
				c0,0.9,0.4,1.6,1,2.2c0.1,0.2,0.1,0.6,0,0.9c-0.3,0-0.5,0-0.7,0.2c-0.7,0.7-2.4,2.3-3.7,3.2c-0.1,0.1-0.1,0.2,0,0.3
				C0.1,20,0,20.2,0,20.4c0,3.5,15,3.5,15,0c0-0.2-0.1-0.5-0.2-0.7C14.8,19.6,14.8,19.5,14.6,19.5z M2.2,20.1
				c1.3-0.9,3.1-2.2,3.9-2.8c0,0,0.9-1.2,0.2-2.6c-0.2-0.4-0.9-0.9-0.9-1.8c0-0.5-0.7-1.3-1.2-1.4c-0.2-0.2-0.4-0.9-0.3-1.3
				c0.9-0.2,1-1,0.8-1.6c-2-4.9,3.8-6.1,5-3.1c1.3-0.6,2.1,2,0.8,3.2c-0.5,1,0.7,1.5,0.7,1.5c0.1,0.5-0.1,1.4-0.4,1.6
				c-0.6,0.1-1,0.6-1,1.2c0,1.3-0.4,1.4-0.7,1.8c-0.5,1.3,0.5,2.7,0.5,2.7c0.9,0.7,2.1,2.1,3.2,2.9C10.2,22.1,4.4,21.9,2.2,20.1z
				 M19.9,5.5c-0.2-1.1-0.9-1.1-1-1.6c-1,0.7-2.4,0-3,1.7c0.9-1,2.5,0.2,2.8-0.9C19,5.2,19.5,5.1,19.9,5.5z"/>
		</g>
	</g>
	<g>
		<g>
			<path fill-rule="evenodd" clip-rule="evenodd" fill="#C8C8C8" d="M53,14c-0.9-0.6-2.2-1.4-2.9-2c-0.1-0.1-0.7-0.2-1-0.2
				c0-0.2,0.1-0.7,0.1-0.8c0.6-0.2,0.8-1.1,0.8-1.8c0.8-0.2,1.4-1.5,1.3-2.3c0-0.4-0.4-0.9-0.8-1c0.3-0.7,0.6-0.8,0.6-1.9
				c0-0.8-0.4-1.9-1.8-1.8C48.9,1.6,47.8,1,46.7,1c-1.8,0-3.9,1.1-3.9,3.3c0,0.9,0.3,1.1,0.6,1.8c-0.4,0.1-0.7,0.6-0.7,1
				c0,0.7,0.5,2.1,1.3,2.3c0,0.7,0.2,1.4,0.9,1.7c0.1,0.1,0.1,0.5,0,0.7c-0.2,0-0.8,0.3-1,0.4c-0.6,0.5-1.8,1.2-2.9,1.9
				c-0.1,0.1-0.1,0.3,0,0.4c0,0.2,0,0.4,0,0.6c0.1,2.7,12.1,2.7,12,0c0-0.2,0-0.4-0.1-0.6C53,14.3,53,14.2,53,14z M42.7,14.8
				c0.9-0.5,2-1.2,2.6-1.7c0,0,0.7-0.3,0.8-0.9c0.1-0.6,0.1-1.5-0.1-2c-0.4-0.8-0.7-0.5-0.8-1.5c0-0.4-0.4-1.1-0.8-1.1
				c0,0-0.1-0.2,0-0.3c0.5-0.1,0.8-1,0.6-1.5c-1.5-3.5,2.8-4.3,3.7-2.3c1-0.6,1.2,2,0.6,2.3c-0.4,0.8,0,1.6,0.4,1.6
				c0,0,0.1,0.2,0,0.4c-0.4,0.2-0.8,0.5-0.8,1c-0.1,0.5-0.6,1-0.8,1.4c-0.2,0.4,0,1.5,0.1,2c0.1,0.5,1.1,0.9,1.1,0.9
				c0.8,0.5,1.6,1.1,2.5,1.7C49.6,16,45,15.9,42.7,14.8z M38.1,6.6c0.2,0.8,1,0.7,1.5,1.1c-0.3-1.5-1.2-1.5-1.3-2.2
				c-1.4,1-4.3,0-3.9,2.4C35.6,6.6,37.6,8.1,38.1,6.6z M43.6,19.5c-1.1-0.8-2.7-2.4-3.6-3.2c-0.2-0.2-0.4-0.2-0.7-0.2
				c-0.1-0.3-0.1-0.7,0-0.8c0.6-0.7,0.9-1.4,1-2.3c1-0.2,1.8-2,1.7-3c-0.1-0.6-0.5-1.1-1-1.3c0.3-0.9,0.6-0.7,0.6-2.2
				c0-1-0.6-2.7-2.2-2.8C38.7,2.7,37.6,2,36.2,2c-2.3,0-4.6,1.7-4.6,4.5c0,1.2,0.2,1.3,0.5,2.2C31.5,8.8,31,9.4,31,10
				c0,1,0.7,2.7,1.7,3c0,0.9,0.4,1.6,1,2.2c0.1,0.2,0.1,0.6,0,0.9c-0.3,0-0.5,0-0.7,0.2c-0.7,0.7-2.4,2.3-3.7,3.2
				c-0.1,0.1-0.1,0.2,0,0.3C29.1,20,29,20.2,29,20.4c0,3.5,15,3.5,15,0c0-0.2-0.1-0.5-0.2-0.7C43.8,19.6,43.7,19.5,43.6,19.5z
				 M31.2,20.1c1.3-0.9,3.1-2.2,3.9-2.8c0,0,0.9-1.2,0.2-2.6c-0.2-0.4-0.9-0.9-0.9-1.8c0-0.5-0.7-1.3-1.2-1.4
				c-0.2-0.2-0.4-0.9-0.3-1.3c0.9-0.2,1-1,0.8-1.6c-2-4.9,3.8-6.1,5-3.1c1.3-0.6,2.1,2,0.8,3.2c-0.5,1,0.7,1.5,0.7,1.5
				c0.1,0.5-0.1,1.4-0.4,1.6c-0.6,0.1-1,0.6-1,1.2c0,1.3-0.4,1.4-0.7,1.8c-0.5,1.3,0.5,2.7,0.5,2.7c0.9,0.7,2.1,2.1,3.2,2.9
				C39.2,22.1,33.4,21.9,31.2,20.1z M48.9,5.5c-0.2-1.1-0.9-1.1-1-1.6c-1,0.7-2.4,0-3,1.7c0.9-1,2.5,0.2,2.8-0.9
				C48,5.2,48.5,5.1,48.9,5.5z"/>
		</g>
	</g>
	<g>
		<g>
			<path fill-rule="evenodd" clip-rule="evenodd" fill="#39A6E6" d="M82,14c-0.9-0.6-2.2-1.4-2.9-2c-0.1-0.1-0.7-0.2-1-0.2
				c0-0.2,0.1-0.7,0.1-0.8c0.6-0.2,0.8-1.1,0.8-1.8c0.8-0.2,1.4-1.5,1.3-2.3c0-0.4-0.4-0.9-0.8-1c0.3-0.7,0.6-0.8,0.6-1.9
				c0-0.8-0.4-1.9-1.8-1.8C77.9,1.6,76.8,1,75.7,1c-1.8,0-3.9,1.1-3.9,3.3c0,0.9,0.3,1.1,0.6,1.8c-0.4,0.1-0.7,0.6-0.7,1
				c0,0.7,0.5,2.1,1.3,2.3c0,0.7,0.2,1.4,0.9,1.7c0.1,0.1,0.1,0.5,0,0.7c-0.2,0-0.8,0.3-1,0.4c-0.6,0.5-1.8,1.2-2.9,1.9
				c-0.1,0.1-0.1,0.3,0,0.4c0,0.2,0,0.4,0,0.6c0.1,2.7,12.1,2.7,12,0c0-0.2,0-0.4-0.1-0.6C82,14.3,82,14.2,82,14z M71.7,14.8
				c0.9-0.5,2-1.2,2.6-1.7c0,0,0.7-0.3,0.8-0.9c0.1-0.6,0.1-1.5-0.1-2c-0.4-0.8-0.7-0.5-0.8-1.5c0-0.4-0.4-1.1-0.8-1.1
				c0,0-0.1-0.2,0-0.3c0.5-0.1,0.8-1,0.6-1.5c-1.5-3.5,2.8-4.3,3.7-2.3c1-0.6,1.2,2,0.6,2.3c-0.4,0.8,0,1.6,0.4,1.6
				c0,0,0.1,0.2,0,0.4c-0.4,0.2-0.8,0.5-0.8,1c-0.1,0.5-0.6,1-0.8,1.4c-0.2,0.4,0,1.5,0.1,2c0.1,0.5,1.1,0.9,1.1,0.9
				c0.8,0.5,1.6,1.1,2.5,1.7C78.6,16,74,15.9,71.7,14.8z M67.1,6.6c0.2,0.8,1,0.7,1.5,1.1c-0.3-1.5-1.2-1.5-1.3-2.2
				c-1.4,1-4.3,0-3.9,2.4C64.6,6.6,66.6,8.1,67.1,6.6z M72.6,19.5c-1.1-0.8-2.7-2.4-3.6-3.2c-0.2-0.2-0.4-0.2-0.7-0.2
				c-0.1-0.3-0.1-0.7,0-0.8c0.6-0.7,0.9-1.4,1-2.3c1-0.2,1.8-2,1.7-3c-0.1-0.6-0.5-1.1-1-1.3c0.3-0.9,0.6-0.7,0.6-2.2
				c0-1-0.6-2.7-2.2-2.8C67.7,2.7,66.6,2,65.2,2c-2.3,0-4.6,1.7-4.6,4.5c0,1.2,0.2,1.3,0.5,2.2C60.5,8.8,60,9.4,60,10
				c0,1,0.7,2.7,1.7,3c0,0.9,0.4,1.6,1,2.2c0.1,0.2,0.1,0.6,0,0.9c-0.3,0-0.5,0-0.7,0.2c-0.7,0.7-2.4,2.3-3.7,3.2
				c-0.1,0.1-0.1,0.2,0,0.3C58.1,20,58,20.2,58,20.4c0,3.5,15,3.5,15,0c0-0.2-0.1-0.5-0.2-0.7C72.8,19.6,72.7,19.5,72.6,19.5z
				 M60.2,20.1c1.3-0.9,3.1-2.2,3.9-2.8c0,0,0.9-1.2,0.2-2.6c-0.2-0.4-0.9-0.9-0.9-1.8c0-0.5-0.7-1.3-1.2-1.4
				c-0.2-0.2-0.4-0.9-0.3-1.3c0.9-0.2,1-1,0.8-1.6c-2-4.9,3.8-6.1,5-3.1c1.3-0.6,2.1,2,0.8,3.2c-0.5,1,0.7,1.5,0.7,1.5
				c0.1,0.5-0.1,1.4-0.4,1.6c-0.6,0.1-1,0.6-1,1.2c0,1.3-0.4,1.4-0.7,1.8c-0.5,1.3,0.5,2.7,0.5,2.7c0.9,0.7,2.1,2.1,3.2,2.9
				C68.2,22.1,62.4,21.9,60.2,20.1z M77.9,5.5c-0.2-1.1-0.9-1.1-1-1.6c-1,0.7-2.4,0-3,1.7c0.9-1,2.5,0.2,2.8-0.9
				C77,5.2,77.5,5.1,77.9,5.5z"/>
		</g>
	</g>
</g>
<g id="User">
</g>
<g id="Refresh">
</g>
<g id="Home">
</g>
<g id="Report">
</g>
<g id="Paste">
</g>
<g id="Copy">
</g>
<g id="Cut">
</g>
<g id="Flag">
</g>
<g id="Redo">
</g>
<g id="Undo">
</g>
<g id="Zoom_Out">
</g>
<g id="Zoom_In">
</g>
<g id="Add_comment">
</g>
<g id="Unread_comment">
</g>
<g id="Comment">
</g>
<g id="New">
</g>
<g id="Attach">
</g>
<g id="Delete">
</g>
<g id="Save">
</g>
<g id="Edit">
</g>
<g id="Print">
</g>
<g id="Guides" display="none" opacity="0.2">
	<rect display="inline" fill-rule="evenodd" clip-rule="evenodd" fill="#0089D9" width="24" height="24"/>
	<rect x="29" display="inline" fill-rule="evenodd" clip-rule="evenodd" fill="#0089D9" width="24" height="24"/>
	<rect x="58" display="inline" fill-rule="evenodd" clip-rule="evenodd" fill="#0089D9" width="24" height="24"/>
</g>
</svg>
