<?xml version="1.0" encoding="utf-8"?>
<!-- Generator: Adobe Illustrator 19.1.0, SVG Export Plug-In . SVG Version: 6.00 Build 0)  -->
<!DOCTYPE svg PUBLIC "-//W3C//DTD SVG 1.1//EN" "http://www.w3.org/Graphics/SVG/1.1/DTD/svg11.dtd">
<svg version="1.1" xmlns="http://www.w3.org/2000/svg" xmlns:xlink="http://www.w3.org/1999/xlink" x="0px" y="0px" width="82px"
	 height="24px" viewBox="0 0 82 24" enable-background="new 0 0 82 24" xml:space="preserve">
<g id="Layer_2">
</g>
<g id="Changelog">
</g>
<g id="Export">
</g>
<g id="PDF">
</g>
<g id="Office_Excel">
</g>
<g id="Office_PowerPoint">
</g>
<g id="Office_Word">
</g>
<g id="Filter">
</g>
<g id="Dislike">
</g>
<g id="Like">
</g>
<g id="Favourite">
</g>
<g id="Preview">
</g>
<g id="Download">
</g>
<g id="Upload">
</g>
<g id="Open">
</g>
<g id="Web">
</g>
<g id="Unlocked">
</g>
<g id="Locked">
</g>
<g id="Phone">
</g>
<g id="Email">
</g>
<g id="Graphs">
</g>
<g id="Note">
</g>
<g id="Search">
</g>
<g id="Alarm">
</g>
<g id="Time">
</g>
<g id="Users">
</g>
<g id="User">
</g>
<g id="Refresh">
</g>
<g id="Home">
</g>
<g id="Report">
</g>
<g id="Paste">
</g>
<g id="Copy">
</g>
<g id="Cut">
</g>
<g id="Flag">
</g>
<g id="Redo">
</g>
<g id="Undo">
</g>
<g id="Zoom_Out">
</g>
<g id="Zoom_In">
</g>
<g id="Add_comment">
</g>
<g id="Unread_comment">
	<g>
		<g>
			<path fill-rule="evenodd" clip-rule="evenodd" fill="#39A6E6" d="M81.9,5.8c-0.5,0.5-1.2,0.9-1.9,1.1c0,0,0,0.1,0,0.1v6
				c0,2.5-1.5,4-4,4h-4c-2,0-4.4,1.2-5.2,3.2c-0.1-2-1-3.2-2.8-3.2c-2.5,0-4-1.5-4-4V7c0-2.5,1.5-4,4-4h11c0-0.7,0.2-1.4,0.6-2H64
				c-3.3,0-6,2.7-6,6v6c0,3.3,2.7,6,6,6c1,0,2,3,2,5c1,0,0,0,1,0c0-3,3.6-5,4.9-5c3.6,0,4.1,0,4.1,0c3.3,0,6-2.7,6-6V7
				C82,6.6,82,6.2,81.9,5.8z M73,10c0,1.1,0.9,2,2,2c1.1,0,2-0.9,2-2c0-1.1-0.9-2-2-2C73.9,8,73,8.9,73,10z M76,10c0,0.6-0.4,1-1,1
				c-0.6,0-1-0.4-1-1c0-0.6,0.4-1,1-1C75.6,9,76,9.4,76,10z M63,10c0,1.1,0.9,2,2,2c1.1,0,2-0.9,2-2c0-1.1-0.9-2-2-2
				C63.9,8,63,8.9,63,10z M66,10c0,0.6-0.4,1-1,1c-0.6,0-1-0.4-1-1c0-0.6,0.4-1,1-1C65.6,9,66,9.4,66,10z M68,10c0,1.1,0.9,2,2,2
				c1.1,0,2-0.9,2-2c0-1.1-0.9-2-2-2C68.9,8,68,8.9,68,10z M71,10c0,0.6-0.4,1-1,1c-0.6,0-1-0.4-1-1c0-0.6,0.4-1,1-1
				C70.6,9,71,9.4,71,10z"/>
		</g>
	</g>
	<path fill-rule="evenodd" clip-rule="evenodd" fill="#E57377" d="M79,0c1.7,0,3,1.3,3,3c0,1.7-1.3,3-3,3c-1.7,0-3-1.3-3-3
		C76,1.3,77.3,0,79,0z"/>
	<g>
		<g>
			<path fill-rule="evenodd" clip-rule="evenodd" fill="#C8C8C8" d="M44,10c0,1.1,0.9,2,2,2c1.1,0,2-0.9,2-2c0-1.1-0.9-2-2-2
				C44.9,8,44,8.9,44,10z M47,10c0,0.6-0.4,1-1,1c-0.6,0-1-0.4-1-1c0-0.6,0.4-1,1-1C46.6,9,47,9.4,47,10z M34,10c0,1.1,0.9,2,2,2
				c1.1,0,2-0.9,2-2c0-1.1-0.9-2-2-2C34.9,8,34,8.9,34,10z M37,10c0,0.6-0.4,1-1,1c-0.6,0-1-0.4-1-1c0-0.6,0.4-1,1-1
				C36.6,9,37,9.4,37,10z M52.9,5.8c-0.5,0.5-1.2,0.9-1.9,1.1c0,0,0,0.1,0,0.1v6c0,2.5-1.5,4-4,4h-4c-2,0-4.4,1.2-5.2,3.2
				c-0.1-2-1-3.2-2.8-3.2c-2.5,0-4-1.5-4-4V7c0-2.5,1.5-4,4-4h11c0-0.7,0.2-1.4,0.6-2H35c-3.3,0-6,2.7-6,6v6c0,3.3,2.7,6,6,6
				c1,0,2,3,2,5c1,0,0,0,1,0c0-3,3.6-5,4.9-5c3.6,0,4.1,0,4.1,0c3.3,0,6-2.7,6-6V7C53,6.6,53,6.2,52.9,5.8z M39,10c0,1.1,0.9,2,2,2
				c1.1,0,2-0.9,2-2c0-1.1-0.9-2-2-2C39.9,8,39,8.9,39,10z M42,10c0,0.6-0.4,1-1,1c-0.6,0-1-0.4-1-1c0-0.6,0.4-1,1-1
				C41.6,9,42,9.4,42,10z"/>
		</g>
	</g>
	<path fill-rule="evenodd" clip-rule="evenodd" fill="#C8C8C8" d="M50,0c1.7,0,3,1.3,3,3c0,1.7-1.3,3-3,3c-1.7,0-3-1.3-3-3
		C47,1.3,48.3,0,50,0z"/>
	<g>
		<g>
			<path fill-rule="evenodd" clip-rule="evenodd" fill="#0089D9" d="M10,10c0,1.1,0.9,2,2,2c1.1,0,2-0.9,2-2c0-1.1-0.9-2-2-2
				C10.9,8,10,8.9,10,10z M13,10c0,0.6-0.4,1-1,1c-0.6,0-1-0.4-1-1c0-0.6,0.4-1,1-1C12.6,9,13,9.4,13,10z M15,10c0,1.1,0.9,2,2,2
				c1.1,0,2-0.9,2-2c0-1.1-0.9-2-2-2C15.9,8,15,8.9,15,10z M18,10c0,0.6-0.4,1-1,1c-0.6,0-1-0.4-1-1c0-0.6,0.4-1,1-1
				C17.6,9,18,9.4,18,10z M5,10c0,1.1,0.9,2,2,2c1.1,0,2-0.9,2-2c0-1.1-0.9-2-2-2C5.9,8,5,8.9,5,10z M8,10c0,0.6-0.4,1-1,1
				c-0.6,0-1-0.4-1-1c0-0.6,0.4-1,1-1C7.6,9,8,9.4,8,10z M23.9,5.8c-0.5,0.5-1.2,0.9-1.9,1.1c0,0,0,0.1,0,0.1v6c0,2.5-1.5,4-4,4h-4
				c-2,0-4.4,1.2-5.2,3.2c-0.1-2-1-3.2-2.8-3.2c-2.5,0-4-1.5-4-4V7c0-2.5,1.5-4,4-4h11c0-0.7,0.2-1.4,0.6-2H6C2.7,1,0,3.7,0,7v6
				c0,3.3,2.7,6,6,6c1,0,2,3,2,5c1,0,0,0,1,0c0-3,3.6-5,4.9-5c3.6,0,4.1,0,4.1,0c3.3,0,6-2.7,6-6V7C24,6.6,24,6.2,23.9,5.8z"/>
		</g>
	</g>
	<path fill-rule="evenodd" clip-rule="evenodd" fill="#D6565A" d="M21,0c1.7,0,3,1.3,3,3c0,1.7-1.3,3-3,3c-1.7,0-3-1.3-3-3
		C18,1.3,19.3,0,21,0z"/>
</g>
<g id="Comment">
</g>
<g id="New">
</g>
<g id="Attach">
</g>
<g id="Delete">
</g>
<g id="Save">
</g>
<g id="Edit">
</g>
<g id="Print">
</g>
<g id="Guides" display="none" opacity="0.2">
	<rect display="inline" fill-rule="evenodd" clip-rule="evenodd" fill="#0089D9" width="24" height="24"/>
	<rect x="29" display="inline" fill-rule="evenodd" clip-rule="evenodd" fill="#0089D9" width="24" height="24"/>
	<rect x="58" display="inline" fill-rule="evenodd" clip-rule="evenodd" fill="#0089D9" width="24" height="24"/>
</g>
</svg>
