<?xml version="1.0" encoding="utf-8"?>
<!-- Generator: Adobe Illustrator 19.1.0, SVG Export Plug-In . SVG Version: 6.00 Build 0)  -->
<!DOCTYPE svg PUBLIC "-//W3C//DTD SVG 1.1//EN" "http://www.w3.org/Graphics/SVG/1.1/DTD/svg11.dtd">
<svg version="1.1" xmlns="http://www.w3.org/2000/svg" xmlns:xlink="http://www.w3.org/1999/xlink" x="0px" y="0px" width="82px"
	 height="24px" viewBox="0 0 82 24" enable-background="new 0 0 82 24" xml:space="preserve">
<g id="Layer_2">
</g>
<g id="Changelog">
</g>
<g id="Export">
</g>
<g id="PDF">
</g>
<g id="Office_Excel">
</g>
<g id="Office_PowerPoint">
</g>
<g id="Office_Word">
</g>
<g id="Filter">
</g>
<g id="Dislike">
</g>
<g id="Like">
</g>
<g id="Favourite">
</g>
<g id="Preview">
</g>
<g id="Download">
</g>
<g id="Upload">
</g>
<g id="Open">
</g>
<g id="Web">
</g>
<g id="Unlocked">
	<g>
		<g>
			<path fill-rule="evenodd" clip-rule="evenodd" fill="#0089D9" d="M12,13c-0.6,0-1,0.4-1,1v2c0,0.6,0.4,1,1,1c0.6,0,1-0.4,1-1v-2
				C13,13.4,12.6,13,12,13z M18,10H8V6c0-2.2,1.8-4,4-4c2.2,0,4,1.8,4,4v1h2V6c0-3.3-2.7-6-6-6C8.7,0,6,2.7,6,6v4c-1.1,0-2,0.9-2,2
				v10c0,1.1,0.9,2,2,2h12c1.1,0,2-0.9,2-2V12C20,10.9,19.1,10,18,10z M18,21c0,0.6-0.4,1-1,1H7c-0.6,0-1-0.4-1-1v-8
				c0-0.6,0.4-1,1-1h10c0.6,0,1,0.4,1,1V21z"/>
		</g>
	</g>
	<g>
		<g>
			<path fill-rule="evenodd" clip-rule="evenodd" fill="#C8C8C8" d="M41,13c-0.6,0-1,0.4-1,1v2c0,0.6,0.4,1,1,1c0.6,0,1-0.4,1-1v-2
				C42,13.4,41.6,13,41,13z M47,10h-2h-1h-7V6c0-2.2,1.8-4,4-4c2.2,0,4,1.8,4,4v1h2V6c0-3.3-2.7-6-6-6c-3.3,0-6,2.7-6,6v4
				c-1.1,0-2,0.9-2,2v10c0,1.1,0.9,2,2,2h12c1.1,0,2-0.9,2-2V12C49,10.9,48.1,10,47,10z M47,21c0,0.6-0.4,1-1,1H36c-0.6,0-1-0.4-1-1
				v-8c0-0.6,0.4-1,1-1h10c0.6,0,1,0.4,1,1V21z"/>
		</g>
	</g>
	<g>
		<g>
			<path fill-rule="evenodd" clip-rule="evenodd" fill="#39A6E6" d="M76,10h-2h-1h-7V6c0-2.2,1.8-4,4-4c2.2,0,4,1.8,4,4v1h2V6
				c0-3.3-2.7-6-6-6c-3.3,0-6,2.7-6,6v4c-1.1,0-2,0.9-2,2v10c0,1.1,0.9,2,2,2h12c1.1,0,2-0.9,2-2V12C78,10.9,77.1,10,76,10z M76,21
				c0,0.6-0.4,1-1,1H65c-0.6,0-1-0.4-1-1v-8c0-0.6,0.4-1,1-1h10c0.6,0,1,0.4,1,1V21z M70,13c-0.6,0-1,0.4-1,1v2c0,0.6,0.4,1,1,1
				c0.6,0,1-0.4,1-1v-2C71,13.4,70.6,13,70,13z"/>
		</g>
	</g>
</g>
<g id="Locked">
</g>
<g id="Phone">
</g>
<g id="Email">
</g>
<g id="Graphs">
</g>
<g id="Note">
</g>
<g id="Search">
</g>
<g id="Alarm">
</g>
<g id="Time">
</g>
<g id="Users">
</g>
<g id="User">
</g>
<g id="Refresh">
</g>
<g id="Home">
</g>
<g id="Report">
</g>
<g id="Paste">
</g>
<g id="Copy">
</g>
<g id="Cut">
</g>
<g id="Flag">
</g>
<g id="Redo">
</g>
<g id="Undo">
</g>
<g id="Zoom_Out">
</g>
<g id="Zoom_In">
</g>
<g id="Add_comment">
</g>
<g id="Unread_comment">
</g>
<g id="Comment">
</g>
<g id="New">
</g>
<g id="Attach">
</g>
<g id="Delete">
</g>
<g id="Save">
</g>
<g id="Edit">
</g>
<g id="Print">
</g>
<g id="Guides" display="none" opacity="0.2">
	<rect display="inline" fill-rule="evenodd" clip-rule="evenodd" fill="#0089D9" width="24" height="24"/>
	<rect x="29" display="inline" fill-rule="evenodd" clip-rule="evenodd" fill="#0089D9" width="24" height="24"/>
	<rect x="58" display="inline" fill-rule="evenodd" clip-rule="evenodd" fill="#0089D9" width="24" height="24"/>
</g>
</svg>
