<?xml version="1.0" encoding="utf-8"?>
<!-- Generator: Adobe Illustrator 19.1.0, SVG Export Plug-In . SVG Version: 6.00 Build 0)  -->
<!DOCTYPE svg PUBLIC "-//W3C//DTD SVG 1.1//EN" "http://www.w3.org/Graphics/SVG/1.1/DTD/svg11.dtd">
<svg version="1.1" xmlns="http://www.w3.org/2000/svg" xmlns:xlink="http://www.w3.org/1999/xlink" x="0px" y="0px" width="82px"
	 height="24px" viewBox="0 0 82 24" enable-background="new 0 0 82 24" xml:space="preserve">
<g id="Layer_2">
</g>
<g id="Changelog">
</g>
<g id="Export">
</g>
<g id="PDF">
</g>
<g id="Office_Excel">
</g>
<g id="Office_PowerPoint">
</g>
<g id="Office_Word">
</g>
<g id="Filter">
</g>
<g id="Dislike">
</g>
<g id="Like">
</g>
<g id="Favourite">
</g>
<g id="Preview">
</g>
<g id="Download">
</g>
<g id="Upload">
</g>
<g id="Open">
</g>
<g id="Web">
</g>
<g id="Unlocked">
</g>
<g id="Locked">
</g>
<g id="Phone">
</g>
<g id="Email">
</g>
<g id="Graphs">
</g>
<g id="Note">
</g>
<g id="Search">
</g>
<g id="Alarm">
</g>
<g id="Time">
</g>
<g id="Users">
</g>
<g id="User">
	<g>
		<g>
			<path fill-rule="evenodd" clip-rule="evenodd" fill="#0089D9" d="M15.6,6.9c-0.3-1.7-1.5-1.8-1.6-2.6C12.2,5.4,10,4.3,8.9,7
				c1.5-1.7,4.2,0.3,4.8-1.5C14,6.5,15,6.3,15.6,6.9z M21.7,20.5c-1.5-1-4.2-2.7-5.2-3.4c-0.2-0.2-0.5-0.3-0.9-0.2
				c-0.1-0.3-0.1-0.9,0-1c0.8-0.8,1.2-1.7,1.2-2.8c1.3-0.3,2.3-2.4,2.1-3.6c-0.1-0.7-0.6-1.4-1.3-1.5c0.4-1.1,0.7-0.9,0.7-2.6
				c0-1.3-0.8-3.2-2.8-3.3c-0.7-1.3-2.2-2.1-4-2.1C8.6,0,5.7,2,5.7,5.4c0,1.4,0.3,1.5,0.7,2.6C5.7,8.1,5,8.8,5,9.5
				c-0.1,1.2,0.9,3.3,2.2,3.6c0.1,1.1,0.4,2,1.2,2.7c0.1,0.2,0.1,0.8,0,1.1c-0.3,0-0.6,0-0.9,0.3c-0.9,0.8-4.2,2.7-5.9,3.8
				c0,0,0,0.1-0.1,0.1C1.2,21.3,1,21.7,1,22c0,2.7,22,2.6,22,0C23,21.4,22.7,20.8,21.7,20.5z M4.1,21.6c1.8-1.1,4.4-2.5,5.5-3.3
				c0,0,1.1-1.5,0.1-3.2c-0.3-0.5-0.8-1-0.8-2.1c0-0.7-0.5-1.2-1.1-1.3c-0.3-0.2-0.9-1.8-0.8-2.3c1,0.1,1.5-1,1.2-1.7
				c-2.9-6.1,5.1-7.6,6.5-4c1.7-0.7,2.9,2.6,1.2,4C15.2,8.8,17,9.3,17,9.3c0.1,0.6-0.4,1.9-0.8,2.1c-0.7,0.1-1.2,0.8-1.2,1.5
				c0,1.5-0.4,1.7-0.8,2.3c-0.7,1.6,0.4,2.9,0.4,2.9c1.1,0.8,3.8,2.5,5.4,3.5C16.6,22.8,7.5,22.7,4.1,21.6z"/>
		</g>
	</g>
	<g>
		<g>
			<path fill-rule="evenodd" clip-rule="evenodd" fill="#C8C8C8" d="M44.6,6.9c-0.3-1.7-1.5-1.8-1.6-2.6c-1.8,1.2-4,0.1-5.1,2.7
				c1.5-1.7,4.2,0.3,4.8-1.5C43,6.5,44,6.3,44.6,6.9z M50.7,20.5c-1.5-1-4.2-2.7-5.2-3.4c-0.2-0.2-0.5-0.3-0.9-0.2
				c-0.1-0.3-0.1-0.9,0-1c0.8-0.8,1.2-1.7,1.2-2.8c1.3-0.3,2.3-2.4,2.1-3.6c-0.1-0.7-0.6-1.4-1.3-1.5c0.4-1.1,0.7-0.9,0.7-2.6
				c0-1.3-0.8-3.2-2.8-3.3c-0.7-1.3-2.2-2.1-4-2.1c-2.9,0-5.8,2-5.8,5.4c0,1.4,0.3,1.5,0.7,2.6C34.7,8.1,34,8.8,34,9.5
				c-0.1,1.2,0.9,3.3,2.2,3.6c0.1,1.1,0.4,2,1.2,2.7c0.1,0.2,0.1,0.8,0,1.1c-0.3,0-0.6,0-0.9,0.3c-0.9,0.8-4.2,2.7-5.9,3.8
				c0,0,0,0.1-0.1,0.1C30.2,21.3,30,21.7,30,22c0,2.7,22,2.6,22,0C52,21.4,51.7,20.8,50.7,20.5z M33.1,21.6c1.8-1.1,4.4-2.5,5.5-3.3
				c0,0,1.1-1.5,0.1-3.2c-0.3-0.5-0.8-1-0.8-2.1c0-0.7-0.5-1.2-1.1-1.3c-0.3-0.2-0.9-1.8-0.8-2.3c1,0.1,1.5-1,1.2-1.7
				c-2.9-6.1,5.1-7.6,6.5-4c1.7-0.7,2.9,2.6,1.2,4C44.2,8.8,46,9.3,46,9.3c0.1,0.6-0.4,1.9-0.8,2.1c-0.7,0.1-1.2,0.8-1.2,1.5
				c0,1.5-0.4,1.7-0.8,2.3c-0.7,1.6,0.4,2.9,0.4,2.9c1.1,0.8,3.8,2.5,5.4,3.5C45.6,22.8,36.5,22.7,33.1,21.6z"/>
		</g>
	</g>
	<g>
		<g>
			<path fill-rule="evenodd" clip-rule="evenodd" fill="#39A6E6" d="M73.6,6.9c-0.3-1.7-1.5-1.8-1.6-2.6c-1.8,1.2-4,0.1-5.1,2.7
				c1.5-1.7,4.2,0.3,4.8-1.5C72,6.5,73,6.3,73.6,6.9z M79.7,20.5c-1.5-1-4.2-2.7-5.2-3.4c-0.2-0.2-0.5-0.3-0.9-0.2
				c-0.1-0.3-0.1-0.9,0-1c0.8-0.8,1.2-1.7,1.2-2.8c1.3-0.3,2.3-2.4,2.1-3.6c-0.1-0.7-0.6-1.4-1.3-1.5c0.4-1.1,0.7-0.9,0.7-2.6
				c0-1.3-0.8-3.2-2.8-3.3c-0.7-1.3-2.2-2.1-4-2.1c-2.9,0-5.8,2-5.8,5.4c0,1.4,0.3,1.5,0.7,2.6C63.7,8.1,63,8.8,63,9.5
				c-0.1,1.2,0.9,3.3,2.2,3.6c0.1,1.1,0.4,2,1.2,2.7c0.1,0.2,0.1,0.8,0,1.1c-0.3,0-0.6,0-0.9,0.3c-0.9,0.8-4.2,2.7-5.9,3.8
				c0,0,0,0.1-0.1,0.1C59.2,21.3,59,21.7,59,22c0,2.7,22,2.6,22,0C81,21.4,80.7,20.8,79.7,20.5z M62.1,21.6c1.8-1.1,4.4-2.5,5.5-3.3
				c0,0,1.1-1.5,0.1-3.2c-0.3-0.5-0.8-1-0.8-2.1c0-0.7-0.5-1.2-1.1-1.3c-0.3-0.2-0.9-1.8-0.8-2.3c1,0.1,1.5-1,1.2-1.7
				c-2.9-6.1,5.1-7.6,6.5-4c1.7-0.7,2.9,2.6,1.2,4C73.2,8.8,75,9.3,75,9.3c0.1,0.6-0.4,1.9-0.8,2.1c-0.7,0.1-1.2,0.8-1.2,1.5
				c0,1.5-0.4,1.7-0.8,2.3c-0.7,1.6,0.4,2.9,0.4,2.9c1.1,0.8,3.8,2.5,5.4,3.5C74.6,22.8,65.5,22.7,62.1,21.6z"/>
		</g>
	</g>
</g>
<g id="Refresh">
</g>
<g id="Home">
</g>
<g id="Report">
</g>
<g id="Paste">
</g>
<g id="Copy">
</g>
<g id="Cut">
</g>
<g id="Flag">
</g>
<g id="Redo">
</g>
<g id="Undo">
</g>
<g id="Zoom_Out">
</g>
<g id="Zoom_In">
</g>
<g id="Add_comment">
</g>
<g id="Unread_comment">
</g>
<g id="Comment">
</g>
<g id="New">
</g>
<g id="Attach">
</g>
<g id="Delete">
</g>
<g id="Save">
</g>
<g id="Edit">
</g>
<g id="Print">
</g>
<g id="Guides" display="none" opacity="0.2">
	<rect display="inline" fill-rule="evenodd" clip-rule="evenodd" fill="#0089D9" width="24" height="24"/>
	<rect x="29" display="inline" fill-rule="evenodd" clip-rule="evenodd" fill="#0089D9" width="24" height="24"/>
	<rect x="58" display="inline" fill-rule="evenodd" clip-rule="evenodd" fill="#0089D9" width="24" height="24"/>
</g>
</svg>
