<?xml version="1.0" encoding="utf-8"?>
<!-- Generator: Adobe Illustrator 19.1.0, SVG Export Plug-In . SVG Version: 6.00 Build 0)  -->
<!DOCTYPE svg PUBLIC "-//W3C//DTD SVG 1.1//EN" "http://www.w3.org/Graphics/SVG/1.1/DTD/svg11.dtd">
<svg version="1.1" xmlns="http://www.w3.org/2000/svg" xmlns:xlink="http://www.w3.org/1999/xlink" x="0px" y="0px" width="82px"
	 height="24px" viewBox="0 0 82 24" enable-background="new 0 0 82 24" xml:space="preserve">
<g id="Layer_2">
</g>
<g id="Changelog">
</g>
<g id="Export">
</g>
<g id="PDF">
</g>
<g id="Office_Excel">
</g>
<g id="Office_PowerPoint">
</g>
<g id="Office_Word">
</g>
<g id="Filter">
</g>
<g id="Dislike">
</g>
<g id="Like">
</g>
<g id="Favourite">
</g>
<g id="Preview">
</g>
<g id="Download">
</g>
<g id="Upload">
	<g>
		<g>
			<path fill-rule="evenodd" clip-rule="evenodd" fill="#0089D9" d="M23.6,1.2C23.5,1.1,23.2,1,23,1L1.1,1C1.1,1,1,1,1,1
				C0.4,1,0,1.4,0,2v0c0,0,0,0,0,0s0,0,0,0v14c0,0.3,0.1,0.5,0.3,0.7C0.5,16.9,0.7,17,1,17l6,0c0.6,0,1-0.4,1-1c0-0.6-0.4-1-1-1
				l-5,0V3l20,0v12l-5,0c-0.6,0-1,0.4-1,1c0,0.6,0.4,1,1,1l6,0c0.6,0,1-0.4,1-1V2C24,1.7,23.8,1.4,23.6,1.2z M17.4,11.9
				c0.4-0.4,0.3-0.9-0.1-1.3l-3.9-4c-0.2-0.2-0.4-0.3-0.7-0.3C12.5,6.1,12.3,6,12,6c-0.3,0-0.5,0.1-0.7,0.3c-0.2,0-0.4,0.1-0.6,0.3
				l-3.9,4c-0.4,0.4-0.5,0.9-0.1,1.3C7,12.3,7.6,12.2,8,11.8l3-3V22c0,0.6,0.4,1,1,1c0.6,0,1-0.4,1-1V8.7l3.1,3.1
				C16.4,12.2,17,12.3,17.4,11.9z"/>
		</g>
	</g>
	<g>
		<g>
			<path fill-rule="evenodd" clip-rule="evenodd" fill="#C8C8C8" d="M52.6,1.2C52.5,1.1,52.2,1,52,1L30.1,1c0,0-0.1,0-0.1,0
				c-0.6,0-1,0.4-1,1v0c0,0,0,0,0,0s0,0,0,0v14c0,0.3,0.1,0.5,0.3,0.7c0.2,0.2,0.4,0.3,0.7,0.3l6,0c0.6,0,1-0.4,1-1c0-0.6-0.4-1-1-1
				l-5,0V3l20,0v12l-5,0c-0.6,0-1,0.4-1,1c0,0.6,0.4,1,1,1l6,0c0.6,0,1-0.4,1-1V2C53,1.7,52.8,1.4,52.6,1.2z M46.4,11.9
				c0.4-0.4,0.3-0.9-0.1-1.3l-3.9-4c-0.2-0.2-0.4-0.3-0.7-0.3C41.5,6.1,41.3,6,41,6c-0.3,0-0.5,0.1-0.7,0.3c-0.2,0-0.4,0.1-0.6,0.3
				l-3.9,4c-0.4,0.4-0.5,0.9-0.1,1.3c0.4,0.4,0.9,0.3,1.3-0.1l3-3V22c0,0.6,0.4,1,1,1c0.6,0,1-0.4,1-1V8.7l3.1,3.1
				C45.4,12.2,46,12.3,46.4,11.9z"/>
		</g>
	</g>
	<g>
		<g>
			<path fill-rule="evenodd" clip-rule="evenodd" fill="#39A6E6" d="M81.6,1.2C81.5,1.1,81.2,1,81,1L59.1,1c0,0-0.1,0-0.1,0
				c-0.6,0-1,0.4-1,1v0c0,0,0,0,0,0s0,0,0,0v14c0,0.3,0.1,0.5,0.3,0.7c0.2,0.2,0.4,0.3,0.7,0.3l6,0c0.6,0,1-0.4,1-1c0-0.6-0.4-1-1-1
				l-5,0V3l20,0v12l-5,0c-0.6,0-1,0.4-1,1c0,0.6,0.4,1,1,1l6,0c0.6,0,1-0.4,1-1V2C82,1.7,81.8,1.4,81.6,1.2z M75.4,11.9
				c0.4-0.4,0.3-0.9-0.1-1.3l-3.9-4c-0.2-0.2-0.4-0.3-0.7-0.3C70.5,6.1,70.3,6,70,6c-0.3,0-0.5,0.1-0.7,0.3c-0.2,0-0.4,0.1-0.6,0.3
				l-3.9,4c-0.4,0.4-0.5,0.9-0.1,1.3c0.4,0.4,0.9,0.3,1.3-0.1l3-3V22c0,0.6,0.4,1,1,1c0.6,0,1-0.4,1-1V8.7l3.1,3.1
				C74.4,12.2,75,12.3,75.4,11.9z"/>
		</g>
	</g>
</g>
<g id="Open">
</g>
<g id="Web">
</g>
<g id="Unlocked">
</g>
<g id="Locked">
</g>
<g id="Phone">
</g>
<g id="Email">
</g>
<g id="Graphs">
</g>
<g id="Note">
</g>
<g id="Search">
</g>
<g id="Alarm">
</g>
<g id="Time">
</g>
<g id="Users">
</g>
<g id="User">
</g>
<g id="Refresh">
</g>
<g id="Home">
</g>
<g id="Report">
</g>
<g id="Paste">
</g>
<g id="Copy">
</g>
<g id="Cut">
</g>
<g id="Flag">
</g>
<g id="Redo">
</g>
<g id="Undo">
</g>
<g id="Zoom_Out">
</g>
<g id="Zoom_In">
</g>
<g id="Add_comment">
</g>
<g id="Unread_comment">
</g>
<g id="Comment">
</g>
<g id="New">
</g>
<g id="Attach">
</g>
<g id="Delete">
</g>
<g id="Save">
</g>
<g id="Edit">
</g>
<g id="Print">
</g>
<g id="Guides" display="none" opacity="0.2">
	<rect display="inline" fill-rule="evenodd" clip-rule="evenodd" fill="#0089D9" width="24" height="24"/>
	<rect x="29" display="inline" fill-rule="evenodd" clip-rule="evenodd" fill="#0089D9" width="24" height="24"/>
	<rect x="58" display="inline" fill-rule="evenodd" clip-rule="evenodd" fill="#0089D9" width="24" height="24"/>
</g>
</svg>
