<?xml version="1.0" encoding="utf-8"?>
<!-- Generator: Adobe Illustrator 19.1.0, SVG Export Plug-In . SVG Version: 6.00 Build 0)  -->
<!DOCTYPE svg PUBLIC "-//W3C//DTD SVG 1.1//EN" "http://www.w3.org/Graphics/SVG/1.1/DTD/svg11.dtd">
<svg version="1.1" xmlns="http://www.w3.org/2000/svg" xmlns:xlink="http://www.w3.org/1999/xlink" x="0px" y="0px" width="82px"
	 height="24px" viewBox="0 0 82 24" enable-background="new 0 0 82 24" xml:space="preserve">
<g id="Layer_2">
</g>
<g id="Changelog">
</g>
<g id="Export">
</g>
<g id="PDF">
</g>
<g id="Office_Excel">
</g>
<g id="Office_PowerPoint">
</g>
<g id="Office_Word">
</g>
<g id="Filter">
</g>
<g id="Dislike">
</g>
<g id="Like">
</g>
<g id="Favourite">
</g>
<g id="Preview">
</g>
<g id="Download">
</g>
<g id="Upload">
</g>
<g id="Open">
</g>
<g id="Web">
	<g>
		<g>
			<path fill="#0089D9" d="M12,0C5.4,0,0,5.4,0,12c0,6.6,5.4,12,12,12c6.6,0,12-5.4,12-12C24.1,5.4,18.7,0,12,0z M12,22
				c-4.3,0-8-2.7-9.4-6.5c1,1,3.1,2.8,3.3,2.1c0.1-0.4-0.8-2.7-1-3.1c-0.4-0.9,0.6-0.9,0.6-2.1c0-0.2-0.9-0.8-0.9-0.9
				C4.2,11.3,3,11.2,3.3,11c0.2-0.1,1.4-0.3,1.6-0.5c0.5-0.3,0.4-1,0.8-1.1c0.6-0.2,1.1-1.3,1.1-1.9c0-0.8,0.2-1,0.6-1.6
				c0.2-0.3-1.1-1.3-1.9-1.4c1.4-1.2,3.1-2.1,5-2.4c-0.1,0.4-0.1,1,0.1,1.1c0.6,0.1,0.1,0.5,0.5,0.7c0.2,0.1,0.2-0.9,0.6-0.4
				c0.1,0.1,0.5-0.6,0.6,0.1c0,0,0,0,0,0.1c0,0.3-1.2,0.9-1.3,1.5c-0.2,0.7-0.1,0.3-0.6,0.6c-0.2,0.1-0.3,0.8-0.3,1
				c0,0-0.4,0.2-0.3,0.5c0.1,0.6,0.5,1.2,0.8,1.1c0.4-0.1,0.3-1,0.8-1c0.1,0,0.8,0.6,0.8,0.6c0.2-0.1-0.2-0.7,0-0.8
				c0.3-0.1,1.1,0.3,1.3,0.4c0.3,0.2,0.3,0.8-0.9,1.1c-0.4-0.2-1.3-0.1-1.7,0.2c-0.6,0.5-0.5,1.6-0.4,2.3c0.1,0.6,0.7,0.8,1.3,1
				c0.3,0.1,0.6,0,0.9,0.1c0.4,0.3,1.1,0.1,1.1,2.1c-0.1,0.8,0.8,1,0.8,1.8c0,0.9,1.5,0.3,1.8-0.1c0.6-0.8,0.2-1.8,0.3-2.7
				c0.1-0.5,0.4-0.4,0.3-1.2c-0.1-0.9-0.1-1.5,0.1-2.3C17,9.3,16.3,9,16.1,9.2c-0.9,0.6-0.5,0.4-1.5-0.1c-0.2-0.1-0.4-0.2-0.6-0.3
				c0.4,0.1,1.2,0.3,1.2,0.3c0.3-0.1,1-0.2,1.2-0.4c-1.8-1.2-1.2-1.4-1.2-1.4c0.2,0,0.1,0.8,0.8,0.4c1-0.6,1.2-0.5,1.5,0.6
				c0.2,0.5,1,0.4,1.3,0.8c0.2,0.2,0.9,0.8,1,0.7c0.2,0-0.2-1.1,0-1.4C20,8.2,20,7.6,20.1,7.2c0.1-0.3,0.2-0.5,0.3-0.7
				C21.4,8.1,22,10,22,12C22,17.5,17.5,22,12,22z M17.3,18c-0.5-0.6-1.7,0.1-2.3,0.5c-0.4,0.2-1.6,0.3-1.6,0.7
				c0,1.1-1.2,0.6-0.7,1.6c0,0.2,0,0.2,0,0.2c0.5,0,0.8,0.2,1.3,0.1c0.7,0,1.7-0.5,2.3-1c0.5-0.4,2.3-1.3,2.3-2
				C18.7,17.3,17.7,18.4,17.3,18z"/>
		</g>
	</g>
	<g>
		<g>
			<path fill="#C8C8C8" d="M41,0c-6.6,0-12,5.4-12,12c0,6.6,5.4,12,12,12c6.6,0,12-5.4,12-12C53,5.4,47.6,0,41,0z M41,22
				c-4.3,0-8-2.7-9.4-6.5c1,1,3.1,2.8,3.3,2.1c0.1-0.4-0.8-2.7-1-3.1c-0.4-0.9,0.6-0.9,0.6-2.1c0-0.2-0.9-0.8-0.9-0.9
				c-0.3-0.2-1.5-0.4-1.2-0.6c0.2-0.1,1.4-0.3,1.6-0.5c0.5-0.3,0.4-1,0.8-1.1c0.6-0.2,1.1-1.3,1.1-1.9c0-0.8,0.2-1,0.6-1.6
				c0.2-0.3-1.1-1.3-1.9-1.4c1.4-1.2,3.1-2.1,5-2.4c-0.1,0.4-0.1,1,0.1,1.1c0.6,0.1,0.1,0.5,0.5,0.7c0.2,0.1,0.2-0.9,0.6-0.4
				c0.1,0.1,0.5-0.6,0.6,0.1c0,0,0,0,0,0.1c0,0.3-1.2,0.9-1.3,1.5c-0.2,0.7-0.1,0.3-0.6,0.6c-0.2,0.1-0.3,0.8-0.3,1
				c0,0-0.4,0.2-0.3,0.5c0.1,0.6,0.5,1.2,0.8,1.1c0.4-0.1,0.3-1,0.8-1C40.3,7.4,41,8,41,8c0.2-0.1-0.2-0.7,0-0.8
				c0.3-0.1,1.1,0.3,1.3,0.4c0.3,0.2,0.3,0.8-0.9,1.1c-0.4-0.2-1.3-0.1-1.7,0.2c-0.6,0.5-0.5,1.6-0.4,2.3c0.1,0.6,0.7,0.8,1.3,1
				c0.3,0.1,0.6,0,0.9,0.1c0.4,0.3,1.1,0.1,1.1,2.1c-0.1,0.8,0.8,1,0.8,1.8c0,0.9,1.5,0.3,1.8-0.1c0.6-0.8,0.2-1.8,0.3-2.7
				c0.1-0.5,0.4-0.4,0.3-1.2c-0.1-0.9-0.1-1.5,0.1-2.3C46,9.3,45.3,9,45,9.2c-0.9,0.6-0.5,0.4-1.5-0.1c-0.2-0.1-0.4-0.2-0.6-0.3
				c0.4,0.1,1.2,0.3,1.2,0.3c0.3-0.1,1-0.2,1.2-0.4c-1.8-1.2-1.2-1.4-1.2-1.4c0.2,0,0.1,0.8,0.8,0.4c1-0.6,1.2-0.5,1.5,0.6
				c0.2,0.5,1,0.4,1.3,0.8c0.2,0.2,0.9,0.8,1,0.7c0.2,0-0.2-1.1,0-1.4C48.9,8.2,49,7.6,49,7.2c0.1-0.3,0.2-0.5,0.3-0.7
				C50.4,8.1,51,10,51,12C51,17.5,46.5,22,41,22z M46.3,18c-0.5-0.6-1.7,0.1-2.3,0.5c-0.4,0.2-1.6,0.3-1.6,0.7
				c0,1.1-1.2,0.6-0.7,1.6c0,0.2,0,0.2,0,0.2c0.5,0,0.8,0.2,1.3,0.1c0.7,0,1.7-0.5,2.3-1c0.5-0.4,2.3-1.3,2.3-2
				C47.6,17.3,46.7,18.4,46.3,18z"/>
		</g>
	</g>
	<g>
		<g>
			<path fill="#39A6E6" d="M70,0c-6.6,0-12,5.4-12,12c0,6.6,5.4,12,12,12c6.6,0,12-5.4,12-12C82,5.4,76.6,0,70,0z M70,22
				c-4.3,0-8-2.7-9.4-6.5c1,1,3.1,2.8,3.3,2.1c0.1-0.4-0.8-2.7-1-3.1c-0.4-0.9,0.6-0.9,0.6-2.1c0-0.2-0.9-0.8-0.9-0.9
				c-0.3-0.2-1.5-0.4-1.2-0.6c0.2-0.1,1.4-0.3,1.6-0.5c0.5-0.3,0.4-1,0.8-1.1c0.6-0.2,1.1-1.3,1.1-1.9c0-0.8,0.2-1,0.6-1.6
				c0.2-0.3-1.1-1.3-1.9-1.4c1.4-1.2,3.1-2.1,5-2.4c-0.1,0.4-0.1,1,0.1,1.1c0.6,0.1,0.1,0.5,0.5,0.7c0.2,0.1,0.2-0.9,0.6-0.4
				c0.1,0.1,0.5-0.6,0.6,0.1c0,0,0,0,0,0.1c0,0.3-1.2,0.9-1.3,1.5c-0.2,0.7-0.1,0.3-0.6,0.6c-0.2,0.1-0.3,0.8-0.3,1
				c0,0-0.4,0.2-0.3,0.5c0.1,0.6,0.5,1.2,0.8,1.1c0.4-0.1,0.3-1,0.8-1C69.3,7.4,70,8,70,8c0.2-0.1-0.2-0.7,0-0.8
				c0.3-0.1,1.1,0.3,1.3,0.4c0.3,0.2,0.3,0.8-0.9,1.1c-0.4-0.2-1.3-0.1-1.7,0.2c-0.6,0.5-0.5,1.6-0.4,2.3c0.1,0.6,0.7,0.8,1.3,1
				c0.3,0.1,0.6,0,0.9,0.1c0.4,0.3,1.1,0.1,1.1,2.1c-0.1,0.8,0.8,1,0.8,1.8c0,0.9,1.5,0.3,1.8-0.1c0.6-0.8,0.2-1.8,0.3-2.7
				c0.1-0.5,0.4-0.4,0.3-1.2c-0.1-0.9-0.1-1.5,0.1-2.3C75,9.3,74.3,9,74,9.2c-0.9,0.6-0.5,0.4-1.5-0.1c-0.2-0.1-0.4-0.2-0.6-0.3
				c0.4,0.1,1.2,0.3,1.2,0.3c0.3-0.1,1-0.2,1.2-0.4c-1.8-1.2-1.2-1.4-1.2-1.4c0.2,0,0.1,0.8,0.8,0.4c1-0.6,1.2-0.5,1.5,0.6
				c0.2,0.5,1,0.4,1.3,0.8c0.2,0.2,0.9,0.8,1,0.7c0.2,0-0.2-1.1,0-1.4C77.9,8.2,78,7.6,78,7.2c0.1-0.3,0.2-0.5,0.3-0.7
				C79.4,8.1,80,10,80,12C80,17.5,75.5,22,70,22z M75.3,18c-0.5-0.6-1.7,0.1-2.3,0.5c-0.4,0.2-1.6,0.3-1.6,0.7
				c0,1.1-1.2,0.6-0.7,1.6c0,0.2,0,0.2,0,0.2c0.5,0,0.8,0.2,1.3,0.1c0.7,0,1.7-0.5,2.3-1c0.5-0.4,2.3-1.3,2.3-2
				C76.6,17.3,75.7,18.4,75.3,18z"/>
		</g>
	</g>
</g>
<g id="Unlocked">
</g>
<g id="Locked">
</g>
<g id="Phone">
</g>
<g id="Email">
</g>
<g id="Graphs">
</g>
<g id="Note">
</g>
<g id="Search">
</g>
<g id="Alarm">
</g>
<g id="Time">
</g>
<g id="Users">
</g>
<g id="User">
</g>
<g id="Refresh">
</g>
<g id="Home">
</g>
<g id="Report">
</g>
<g id="Paste">
</g>
<g id="Copy">
</g>
<g id="Cut">
</g>
<g id="Flag">
</g>
<g id="Redo">
</g>
<g id="Undo">
</g>
<g id="Zoom_Out">
</g>
<g id="Zoom_In">
</g>
<g id="Add_comment">
</g>
<g id="Unread_comment">
</g>
<g id="Comment">
</g>
<g id="New">
</g>
<g id="Attach">
</g>
<g id="Delete">
</g>
<g id="Save">
</g>
<g id="Edit">
</g>
<g id="Print">
</g>
<g id="Guides" display="none" opacity="0.2">
	<rect display="inline" fill-rule="evenodd" clip-rule="evenodd" fill="#0089D9" width="24" height="24"/>
	<rect x="29" display="inline" fill-rule="evenodd" clip-rule="evenodd" fill="#0089D9" width="24" height="24"/>
	<rect x="58" display="inline" fill-rule="evenodd" clip-rule="evenodd" fill="#0089D9" width="24" height="24"/>
</g>
</svg>
