<?xml version="1.0" encoding="utf-8"?>
<!-- Generator: Adobe Illustrator 19.1.0, SVG Export Plug-In . SVG Version: 6.00 Build 0)  -->
<!DOCTYPE svg PUBLIC "-//W3C//DTD SVG 1.1//EN" "http://www.w3.org/Graphics/SVG/1.1/DTD/svg11.dtd">
<svg version="1.1" xmlns="http://www.w3.org/2000/svg" xmlns:xlink="http://www.w3.org/1999/xlink" x="0px" y="0px" width="82px"
	 height="24px" viewBox="0 0 82 24" enable-background="new 0 0 82 24" xml:space="preserve">
<g id="Layer_3">
	<g>
		<path fill="#0063DC" d="M5.4,6.4c-3,0-5.4,2.4-5.4,5.3c0,2.9,2.4,5.3,5.4,5.3c3,0,5.4-2.4,5.4-5.3C10.8,8.7,8.4,6.4,5.4,6.4z"/>
	</g>
	<ellipse fill="#FF0084" cx="18.6" cy="11.7" rx="5.4" ry="5.3"/>
	<g>
		<path fill="#C8C8C8" d="M34.4,6.4c-3,0-5.4,2.4-5.4,5.3c0,2.9,2.4,5.3,5.4,5.3c3,0,5.4-2.4,5.4-5.3C39.8,8.7,37.4,6.4,34.4,6.4z"
			/>
	</g>
	<ellipse fill="#C8C8C8" cx="47.6" cy="11.7" rx="5.4" ry="5.3"/>
	<g>
		<path fill="#006EF5" d="M63.4,6.4c-3,0-5.4,2.4-5.4,5.3c0,2.9,2.4,5.3,5.4,5.3c3,0,5.4-2.4,5.4-5.3C68.8,8.7,66.4,6.4,63.4,6.4z"
			/>
	</g>
	<ellipse fill="#FF1990" cx="76.6" cy="11.7" rx="5.4" ry="5.3"/>
</g>
<g id="Tumblr">
</g>
<g id="Vimeo">
</g>
<g id="Skype">
</g>
<g id="Google">
</g>
<g id="Pinterest">
</g>
<g id="Linkedin">
</g>
<g id="Twitter">
</g>
<g id="Youtube">
</g>
<g id="Facebook">
</g>
<g id="Guides" display="none" opacity="0.2">
	<rect display="inline" fill-rule="evenodd" clip-rule="evenodd" fill="#0089D9" width="24" height="24"/>
	<rect x="29" display="inline" fill-rule="evenodd" clip-rule="evenodd" fill="#0089D9" width="24" height="24"/>
	<rect x="58" display="inline" fill-rule="evenodd" clip-rule="evenodd" fill="#0089D9" width="24" height="24"/>
</g>
</svg>
