<?xml version="1.0" encoding="utf-8"?>
<!-- Generator: Adobe Illustrator 19.1.0, SVG Export Plug-In . SVG Version: 6.00 Build 0)  -->
<!DOCTYPE svg PUBLIC "-//W3C//DTD SVG 1.1//EN" "http://www.w3.org/Graphics/SVG/1.1/DTD/svg11.dtd">
<svg version="1.1" xmlns="http://www.w3.org/2000/svg" xmlns:xlink="http://www.w3.org/1999/xlink" x="0px" y="0px" width="82px"
	 height="24px" viewBox="0 0 82 24" enable-background="new 0 0 82 24" xml:space="preserve">
<g id="Layer_3">
</g>
<g id="Tumblr">
	<path fill="#35465C" d="M13.7,19.6c-0.4-0.2-0.8-0.6-0.9-1c-0.1-0.4-0.1-1.2-0.1-2.6V9.8h5.6V5.5h-5.6V0H9.2C9,1.2,8.8,2.2,8.3,3
		c-0.4,0.8-1,1.5-1.6,2.1C6,5.7,4.9,6.1,4,6.4v3.4h3.3v8.4c0,1.1,0.1,1.9,0.3,2.5c0.2,0.6,0.6,1.1,1.2,1.6c0.6,0.5,1.3,0.9,2.2,1.2
		c0.8,0.3,1.5,0.4,2.6,0.4c1,0,1.9-0.1,2.7-0.3c0.8-0.2,1.8-0.5,2.8-1v-3.8c-1.2,0.8-2.4,1.2-3.6,1.2C14.8,20,14.2,19.9,13.7,19.6z"
		/>
	<path fill="#C8C8C8" d="M42.5,19.6c-0.4-0.2-0.8-0.6-0.9-1c-0.1-0.4-0.1-1.2-0.1-2.6V9.8h5.6V5.5h-5.6V0H38c-0.2,1.2-0.4,2.2-0.8,3
		c-0.4,0.8-1,1.5-1.6,2.1c-0.7,0.6-1.8,1-2.7,1.3v3.4h3.3v8.4c0,1.1,0.1,1.9,0.3,2.5c0.2,0.6,0.6,1.1,1.2,1.6
		c0.6,0.5,1.3,0.9,2.2,1.2c0.8,0.3,1.5,0.4,2.6,0.4c1,0,1.9-0.1,2.7-0.3c0.8-0.2,1.8-0.5,2.8-1v-3.8c-1.2,0.8-2.4,1.2-3.6,1.2
		C43.7,20,43.1,19.9,42.5,19.6z"/>
	<path fill="#445975" d="M71.7,19.6c-0.4-0.2-0.8-0.6-0.9-1c-0.1-0.4-0.1-1.2-0.1-2.6V9.8h5.6V5.5h-5.6V0h-3.4
		c-0.2,1.2-0.4,2.2-0.8,3c-0.4,0.8-1,1.5-1.6,2.1c-0.7,0.6-1.8,1-2.7,1.3v3.4h3.3v8.4c0,1.1,0.1,1.9,0.3,2.5
		c0.2,0.6,0.6,1.1,1.2,1.6c0.6,0.5,1.3,0.9,2.2,1.2c0.8,0.3,1.5,0.4,2.6,0.4c1,0,1.9-0.1,2.7-0.3c0.8-0.2,1.8-0.5,2.8-1v-3.8
		c-1.2,0.8-2.4,1.2-3.6,1.2C72.8,20,72.2,19.9,71.7,19.6z"/>
</g>
<g id="Vimeo">
</g>
<g id="Skype">
</g>
<g id="Google">
</g>
<g id="Pinterest">
</g>
<g id="Linkedin">
</g>
<g id="Twitter">
</g>
<g id="Youtube">
</g>
<g id="Facebook">
</g>
<g id="Guides" display="none" opacity="0.2">
	<rect display="inline" fill-rule="evenodd" clip-rule="evenodd" fill="#0089D9" width="24" height="24"/>
	<rect x="29" display="inline" fill-rule="evenodd" clip-rule="evenodd" fill="#0089D9" width="24" height="24"/>
	<rect x="58" display="inline" fill-rule="evenodd" clip-rule="evenodd" fill="#0089D9" width="24" height="24"/>
</g>
</svg>
