<?xml version="1.0" encoding="utf-8"?>
<!-- Generator: Adobe Illustrator 19.1.0, SVG Export Plug-In . SVG Version: 6.00 Build 0)  -->
<!DOCTYPE svg PUBLIC "-//W3C//DTD SVG 1.1//EN" "http://www.w3.org/Graphics/SVG/1.1/DTD/svg11.dtd">
<svg version="1.1" xmlns="http://www.w3.org/2000/svg" xmlns:xlink="http://www.w3.org/1999/xlink" x="0px" y="0px" width="82px"
	 height="24px" viewBox="0 0 82 24" enable-background="new 0 0 82 24" xml:space="preserve">
<g id="Layer_3">
</g>
<g id="Tumblr">
</g>
<g id="Vimeo">
</g>
<g id="Skype">
</g>
<g id="Google">
</g>
<g id="Pinterest">
</g>
<g id="Linkedin">
</g>
<g id="Twitter">
</g>
<g id="Youtube">
	<g>
		<g>
			<path fill="#CD201F" d="M19,4.3c0,0-3.5-0.3-7-0.3C8.5,4,5,4.3,5,4.3c-2.8,0-5,2.2-5,5v6.4c0,2.8,2.2,5,5,5c0,0,3.5,0.3,7,0.3
				c3.5,0,7-0.3,7-0.3c2.8,0,5-2.2,5-5V9.3C24,6.6,21.8,4.3,19,4.3z M9.6,16.6v-9l6.9,4.5L9.6,16.6z"/>
		</g>
	</g>
	<g>
		<g>
			<path fill="#C8C8C8" d="M48,4.3c0,0-3.5-0.3-7-0.3c-3.5,0-7,0.3-7,0.3c-2.8,0-5,2.2-5,5v6.4c0,2.8,2.2,5,5,5c0,0,3.5,0.3,7,0.3
				c3.5,0,7-0.3,7-0.3c2.8,0,5-2.2,5-5V9.3C53,6.6,50.8,4.3,48,4.3z M38.6,16.6v-9l6.9,4.5L38.6,16.6z"/>
		</g>
	</g>
	<g>
		<g>
			<path fill="#E52222" d="M77,4.3c0,0-3.5-0.3-7-0.3c-3.5,0-7,0.3-7,0.3c-2.8,0-5,2.2-5,5v6.4c0,2.8,2.2,5,5,5c0,0,3.5,0.3,7,0.3
				c3.5,0,7-0.3,7-0.3c2.8,0,5-2.2,5-5V9.3C82,6.6,79.8,4.3,77,4.3z M67.6,16.6v-9l6.9,4.5L67.6,16.6z"/>
		</g>
	</g>
</g>
<g id="Facebook">
</g>
<g id="Guides" display="none" opacity="0.2">
	<rect display="inline" fill-rule="evenodd" clip-rule="evenodd" fill="#0089D9" width="24" height="24"/>
	<rect x="29" display="inline" fill-rule="evenodd" clip-rule="evenodd" fill="#0089D9" width="24" height="24"/>
	<rect x="58" display="inline" fill-rule="evenodd" clip-rule="evenodd" fill="#0089D9" width="24" height="24"/>
</g>
</svg>
