<?xml version="1.0" encoding="utf-8"?>
<!-- Generator: Adobe Illustrator 19.1.0, SVG Export Plug-In . SVG Version: 6.00 Build 0)  -->
<!DOCTYPE svg PUBLIC "-//W3C//DTD SVG 1.1//EN" "http://www.w3.org/Graphics/SVG/1.1/DTD/svg11.dtd">
<svg version="1.1" xmlns="http://www.w3.org/2000/svg" xmlns:xlink="http://www.w3.org/1999/xlink" x="0px" y="0px" width="82px"
	 height="24px" viewBox="0 0 82 24" enable-background="new 0 0 82 24" xml:space="preserve">
<g id="Layer_3">
</g>
<g id="Tumblr">
</g>
<g id="Vimeo">
</g>
<g id="Skype">
</g>
<g id="Google">
</g>
<g id="Pinterest">
</g>
<g id="Linkedin">
</g>
<g id="Twitter">
</g>
<g id="Youtube">
</g>
<g id="Facebook">
	<path fill="#3B5998" d="M24,4c0-2.1-1.9-4-4-4H4C1.9,0,0,1.9,0,4v16c0,2.1,1.9,4,4,4h8v-9.1H9.1v-4H12V9.4c0-2.7,2-5.1,4.5-5.1h3.2
		v4h-3.2c-0.4,0-0.8,0.4-0.8,1.1v1.6h4v4h-4V24H20c2.1,0,4-1.9,4-4V4z"/>
	<path fill="#C8C8C8" d="M53,4c0-2.1-1.9-4-4-4H33c-2.1,0-4,1.9-4,4v16c0,2.1,1.9,4,4,4h8v-9.1h-2.9v-4H41V9.4c0-2.7,2-5.1,4.5-5.1
		h3.2v4h-3.2c-0.4,0-0.8,0.4-0.8,1.1v1.6h4v4h-4V24H49c2.1,0,4-1.9,4-4V4z"/>
	<path fill="#4668B2" d="M82,4c0-2.1-1.9-4-4-4H62c-2.1,0-4,1.9-4,4v16c0,2.1,1.9,4,4,4h8v-9.1h-2.9v-4H70V9.4c0-2.7,2-5.1,4.5-5.1
		h3.2v4h-3.2c-0.4,0-0.8,0.4-0.8,1.1v1.6h4v4h-4V24H78c2.1,0,4-1.9,4-4V4z"/>
</g>
<g id="Guides" display="none" opacity="0.2">
	<rect display="inline" fill-rule="evenodd" clip-rule="evenodd" fill="#0089D9" width="24" height="24"/>
	<rect x="29" display="inline" fill-rule="evenodd" clip-rule="evenodd" fill="#0089D9" width="24" height="24"/>
	<rect x="58" display="inline" fill-rule="evenodd" clip-rule="evenodd" fill="#0089D9" width="24" height="24"/>
</g>
</svg>
