<?xml version="1.0" encoding="utf-8"?>
<!-- Generator: Adobe Illustrator 19.1.0, SVG Export Plug-In . SVG Version: 6.00 Build 0)  -->
<!DOCTYPE svg PUBLIC "-//W3C//DTD SVG 1.1//EN" "http://www.w3.org/Graphics/SVG/1.1/DTD/svg11.dtd">
<svg version="1.1" xmlns="http://www.w3.org/2000/svg" xmlns:xlink="http://www.w3.org/1999/xlink" x="0px" y="0px" width="82px"
	 height="24px" viewBox="0 0 82 24" enable-background="new 0 0 82 24" xml:space="preserve">
<g id="Layer_3">
</g>
<g id="Tumblr">
</g>
<g id="Vimeo">
</g>
<g id="Skype">
</g>
<g id="Google">
	<g>
		<g>
			<g>
				<path fill="#EA4335" d="M16.2,0.7c-2.6-1-5.5-1-8.1-0.1c-2.9,1-5.4,3.2-6.8,6c1.3,1,2.6,2,3.9,3.1c0.4-1.1,1-2,1.7-2.8
					c1-1,2.2-1.7,3.6-2c1.2-0.2,2.4-0.2,3.5,0.1c1,0.3,1.9,0.8,2.6,1.5c0.7-0.7,1.5-1.5,2.2-2.2c0.4-0.4,0.8-0.8,1.2-1.2
					C18.9,2.1,17.6,1.2,16.2,0.7z"/>
			</g>
		</g>
		<path fill="#4285F4" d="M20,21.1c1.5-1.3,2.5-3.1,3-5c0.6-2.1,0.7-4.3,0.3-6.4c-3.8,0-7.5,0-11.3,0c0,1.6,0,3.1,0,4.7
			c2.2,0,4.4,0,6.5,0c-0.3,1.5-1.1,2.9-2.4,3.7C17,19,18.8,20.5,20,21.1z"/>
		<path fill="#34A853" d="M1.3,17.4c1.3-1,2.6-2,3.9-3.1C5.7,15.8,6.7,17.1,8,18c0.8,0.6,1.7,1,2.7,1.2c0.9,0.2,1.9,0.2,2.9,0
			c0.9-0.2,1.9-0.5,2.6-1c1.3,1,2.5,2,3.8,3c-1.4,1.3-3.1,2.1-4.9,2.6c-2,0.5-4.1,0.5-6.1-0.1c-1.6-0.4-3.1-1.2-4.4-2.2
			C3.2,20.3,2.1,18.9,1.3,17.4z"/>
		<path fill="#FBBC05" d="M0.2,9.6c0.2-1,0.6-2.1,1-3c1.3,1,2.6,2,3.9,3.1c-0.5,1.5-0.5,3.2,0,4.7c-1.3,1-2.6,2-3.9,3.1
			C0.1,15-0.3,12.2,0.2,9.6z"/>
	</g>
	<g>
		<g>
			<g>
				<path fill="#C8C8C8" d="M45.2,0.7c-2.6-1-5.5-1-8.1-0.1c-2.9,1-5.4,3.2-6.8,6c1.3,1,2.6,2,3.9,3.1c0.4-1.1,1-2,1.7-2.8
					c1-1,2.2-1.7,3.6-2c1.2-0.2,2.4-0.2,3.5,0.1c1,0.3,1.9,0.8,2.6,1.5c0.7-0.7,1.5-1.5,2.2-2.2c0.4-0.4,0.8-0.8,1.2-1.2
					C47.9,2.1,46.6,1.2,45.2,0.7z"/>
			</g>
		</g>
		<path fill="#C8C8C8" d="M49,21.1c1.5-1.3,2.5-3.1,3-5c0.6-2.1,0.7-4.3,0.3-6.4c-3.8,0-7.5,0-11.3,0c0,1.6,0,3.1,0,4.7
			c2.2,0,4.4,0,6.5,0c-0.3,1.5-1.1,2.9-2.4,3.7C46,19,47.8,20.5,49,21.1z"/>
		<path fill="#C8C8C8" d="M30.3,17.4c1.3-1,2.6-2,3.9-3.1c0.5,1.5,1.5,2.8,2.8,3.7c0.8,0.6,1.7,1,2.7,1.2c0.9,0.2,1.9,0.2,2.9,0
			c0.9-0.2,1.9-0.5,2.6-1c1.3,1,2.5,2,3.8,3c-1.4,1.3-3.1,2.1-4.9,2.6c-2,0.5-4.1,0.5-6.1-0.1c-1.6-0.4-3.1-1.2-4.4-2.2
			C32.2,20.3,31.1,18.9,30.3,17.4z"/>
		<path fill="#C8C8C8" d="M29.2,9.6c0.2-1,0.6-2.1,1-3c1.3,1,2.6,2,3.9,3.1c-0.5,1.5-0.5,3.2,0,4.7c-1.3,1-2.6,2-3.9,3.1
			C29.1,15,28.7,12.2,29.2,9.6z"/>
	</g>
	<g>
		<g>
			<g>
				<path fill="#FF4B3B" d="M74.2,0.7c-2.6-1-5.5-1-8.1-0.1c-2.9,1-5.4,3.2-6.8,6c1.3,1,2.6,2,3.9,3.1c0.4-1.1,1-2,1.7-2.8
					c1-1,2.2-1.7,3.6-2c1.2-0.2,2.4-0.2,3.5,0.1c1,0.3,1.9,0.8,2.6,1.5c0.7-0.7,1.5-1.5,2.2-2.2c0.4-0.4,0.8-0.8,1.2-1.2
					C76.9,2.1,75.6,1.3,74.2,0.7z"/>
			</g>
		</g>
		<path fill="#4F92FF" d="M78,21.1c1.5-1.3,2.5-3.1,3-5c0.6-2.1,0.7-4.3,0.3-6.4c-3.8,0-7.5,0-11.3,0c0,1.6,0,3.1,0,4.7
			c2.2,0,4.4,0,6.5,0c-0.3,1.5-1.1,2.9-2.4,3.7C75,19,76.8,20.6,78,21.1z"/>
		<path fill="#3CC260" d="M59.3,17.4c1.3-1,2.6-2,3.9-3.1c0.5,1.5,1.5,2.8,2.8,3.7c0.8,0.6,1.7,1,2.7,1.2c0.9,0.2,1.9,0.2,2.9,0
			c0.9-0.2,1.9-0.5,2.6-1c1.3,1,2.5,2,3.8,3c-1.4,1.3-3.1,2.1-4.9,2.6c-2,0.5-4.1,0.5-6.1-0.1c-1.6-0.4-3.1-1.2-4.4-2.2
			C61.2,20.3,60.1,19,59.3,17.4z"/>
		<path fill="#FFC619" d="M58.2,9.6c0.2-1,0.6-2.1,1-3c1.3,1,2.6,2,3.9,3.1c-0.5,1.5-0.5,3.2,0,4.7c-1.3,1-2.6,2-3.9,3.1
			C58.1,15,57.7,12.3,58.2,9.6z"/>
	</g>
</g>
<g id="Pinterest">
</g>
<g id="Linkedin">
</g>
<g id="Twitter">
</g>
<g id="Youtube">
</g>
<g id="Facebook">
</g>
<g id="Guides" display="none" opacity="0.2">
	<rect display="inline" fill-rule="evenodd" clip-rule="evenodd" fill="#0089D9" width="24" height="24"/>
	<rect x="29" display="inline" fill-rule="evenodd" clip-rule="evenodd" fill="#0089D9" width="24" height="24"/>
	<rect x="58" display="inline" fill-rule="evenodd" clip-rule="evenodd" fill="#0089D9" width="24" height="24"/>
</g>
</svg>
