<?xml version="1.0" encoding="utf-8"?>
<!-- Generator: Adobe Illustrator 19.1.0, SVG Export Plug-In . SVG Version: 6.00 Build 0)  -->
<!DOCTYPE svg PUBLIC "-//W3C//DTD SVG 1.1//EN" "http://www.w3.org/Graphics/SVG/1.1/DTD/svg11.dtd">
<svg version="1.1" xmlns="http://www.w3.org/2000/svg" xmlns:xlink="http://www.w3.org/1999/xlink" x="0px" y="0px" width="82px"
	 height="24px" viewBox="0 0 82 24" enable-background="new 0 0 82 24" xml:space="preserve">
<g id="Layer_3">
</g>
<g id="Tumblr">
</g>
<g id="Vimeo">
</g>
<g id="Skype">
</g>
<g id="Google">
</g>
<g id="Pinterest">
</g>
<g id="Linkedin">
</g>
<g id="Twitter">
	<path fill="#00ACED" d="M21.3,10.8c1.4-0.1,2.3-0.7,2.6-1.6c-0.5,0.3-2,0.6-2.8,0.3C21.1,9.4,21,9.2,21,9c-0.6-2.3-2.8-4.2-5.1-4
		c0.2-0.1,0.4-0.1,0.6-0.2c0.3-0.1,1.7-0.3,1.5-0.8c-0.2-0.5-2,0.3-2.3,0.5c0.4-0.2,1.2-0.5,1.3-1c-0.7,0.1-1.4,0.4-1.9,0.9
		c0.2-0.2,0.3-0.4,0.4-0.7c-1.8,1.2-2.9,3.5-3.8,5.8C10.9,8.8,10.3,8.3,9.8,8C8.2,7.2,6.4,6.3,3.6,5.3c-0.1,0.9,0.5,2.2,2.1,3
		c-0.3,0-1,0.1-1.5,0.2c0.2,1.1,0.9,2,2.7,2.4c-0.8,0.1-1.3,0.2-1.6,0.7c0.4,0.7,1.3,1.6,3,1.4c-1.8,0.8-0.8,2.3,0.7,2
		c-2.6,2.6-6.6,2.4-8.9,0.2c6.1,8.2,19.2,4.9,21.2-3.1c1.5,0,2.3-0.5,2.9-1.1C23.2,11.2,22,11.1,21.3,10.8z"/>
	<path fill="#C8C8C8" d="M50.3,10.8c1.4-0.1,2.3-0.7,2.6-1.6c-0.5,0.3-2,0.6-2.8,0.3C50,9.4,50,9.2,49.9,9c-0.6-2.3-2.8-4.2-5.1-4
		c0.2-0.1,0.4-0.1,0.6-0.2c0.3-0.1,1.7-0.3,1.5-0.8c-0.2-0.5-2,0.3-2.3,0.5c0.4-0.2,1.2-0.5,1.3-1c-0.7,0.1-1.4,0.4-1.9,0.9
		c0.2-0.2,0.3-0.4,0.4-0.7c-1.8,1.2-2.9,3.5-3.8,5.8c-0.7-0.7-1.3-1.2-1.8-1.5c-1.5-0.8-3.3-1.7-6.2-2.7c-0.1,0.9,0.5,2.2,2.1,3
		c-0.3,0-1,0.1-1.5,0.2c0.2,1.1,0.9,2,2.7,2.4c-0.8,0.1-1.3,0.2-1.6,0.7c0.4,0.7,1.3,1.6,3,1.4c-1.8,0.8-0.8,2.3,0.7,2
		c-2.6,2.6-6.6,2.4-8.9,0.2c6.1,8.2,19.2,4.9,21.2-3.1c1.5,0,2.3-0.5,2.9-1.1C52.2,11.2,50.9,11.1,50.3,10.8z"/>
	<path fill="#00BBFF" d="M79.3,10.8c1.4-0.1,2.3-0.7,2.6-1.6c-0.5,0.3-2,0.6-2.8,0.3C79,9.4,79,9.2,78.9,9c-0.6-2.3-2.8-4.2-5.1-4
		c0.2-0.1,0.4-0.1,0.6-0.2c0.3-0.1,1.7-0.3,1.5-0.8c-0.2-0.5-2,0.3-2.3,0.5c0.4-0.2,1.2-0.5,1.3-1c-0.7,0.1-1.4,0.4-1.9,0.9
		c0.2-0.2,0.3-0.4,0.4-0.7c-1.8,1.2-2.9,3.5-3.8,5.8c-0.7-0.7-1.3-1.2-1.8-1.5c-1.5-0.8-3.3-1.7-6.2-2.7c-0.1,0.9,0.5,2.2,2.1,3
		c-0.3,0-1,0.1-1.5,0.2c0.2,1.1,0.9,2,2.7,2.4c-0.8,0.1-1.3,0.2-1.6,0.7c0.4,0.7,1.3,1.6,3,1.4c-1.8,0.8-0.8,2.3,0.7,2
		c-2.6,2.6-6.6,2.4-8.9,0.2c6.1,8.2,19.2,4.9,21.2-3.1c1.5,0,2.3-0.5,2.9-1.1C81.2,11.2,79.9,11.1,79.3,10.8z"/>
</g>
<g id="Youtube">
</g>
<g id="Facebook">
</g>
<g id="Guides" display="none" opacity="0.2">
	<rect display="inline" fill-rule="evenodd" clip-rule="evenodd" fill="#0089D9" width="24" height="24"/>
	<rect x="29" display="inline" fill-rule="evenodd" clip-rule="evenodd" fill="#0089D9" width="24" height="24"/>
	<rect x="58" display="inline" fill-rule="evenodd" clip-rule="evenodd" fill="#0089D9" width="24" height="24"/>
</g>
</svg>
