<?xml version="1.0" encoding="utf-8"?>
<!-- Generator: Adobe Illustrator 19.1.0, SVG Export Plug-In . SVG Version: 6.00 Build 0)  -->
<!DOCTYPE svg PUBLIC "-//W3C//DTD SVG 1.1//EN" "http://www.w3.org/Graphics/SVG/1.1/DTD/svg11.dtd">
<svg version="1.1" xmlns="http://www.w3.org/2000/svg" xmlns:xlink="http://www.w3.org/1999/xlink" x="0px" y="0px" width="82px"
	 height="24px" viewBox="0 0 82 24" enable-background="new 0 0 82 24" xml:space="preserve">
<g id="Layer_3">
</g>
<g id="Tumblr">
</g>
<g id="Vimeo">
</g>
<g id="Skype">
</g>
<g id="Google">
</g>
<g id="Pinterest">
</g>
<g id="Linkedin">
	<path fill="#0077B5" d="M22.2,0H1.7C0.8,0,0,0.8,0,1.7v20.6C0,23.2,0.8,24,1.7,24h20.5c1,0,1.8-0.8,1.8-1.7V1.7
		C24,0.8,23.2,0,22.2,0z M7.3,20.1H3.6V9.3h3.6V20.1z M5.4,7.8L5.4,7.8c-1.2,0-2-0.8-2-1.9C3.4,4.8,4.2,4,5.5,4s2,0.8,2,1.9
		C7.5,6.9,6.7,7.8,5.4,7.8z M20.3,20.1h-3.6v-5.8c0-1.5-0.5-2.5-1.8-2.5c-1,0-1.6,0.7-1.9,1.3c-0.1,0.2-0.1,0.6-0.1,0.9v6.1H9.3
		c0,0,0-9.8,0-10.8h3.6v1.5c0.5-0.7,1.3-1.8,3.3-1.8c2.4,0,4.2,1.5,4.2,4.9V20.1z M12.9,10.8C12.9,10.8,12.9,10.8,12.9,10.8
		L12.9,10.8L12.9,10.8z"/>
	<path fill="#C8C8C8" d="M51.3,0H30.8c-1,0-1.8,0.8-1.8,1.7v20.6c0,0.9,0.8,1.7,1.8,1.7h20.5c1,0,1.8-0.8,1.8-1.7V1.7
		C53,0.8,52.2,0,51.3,0z M36.3,20.1h-3.6V9.3h3.6V20.1z M34.5,7.8L34.5,7.8c-1.2,0-2-0.8-2-1.9c0-1.1,0.8-1.9,2.1-1.9s2,0.8,2,1.9
		C36.5,6.9,35.7,7.8,34.5,7.8z M49.4,20.1h-3.6v-5.8c0-1.5-0.5-2.5-1.8-2.5c-1,0-1.6,0.7-1.9,1.3c-0.1,0.2-0.1,0.6-0.1,0.9v6.1h-3.6
		c0,0,0-9.8,0-10.8h3.6v1.5c0.5-0.7,1.3-1.8,3.3-1.8c2.4,0,4.2,1.5,4.2,4.9V20.1z M41.9,10.8C41.9,10.8,41.9,10.8,41.9,10.8
		L41.9,10.8L41.9,10.8z"/>
	<path fill="#0086CF" d="M80.2,0H59.7c-1,0-1.8,0.8-1.8,1.7v20.6c0,0.9,0.8,1.7,1.8,1.7h20.5c1,0,1.8-0.8,1.8-1.7V1.7
		C82,0.8,81.2,0,80.2,0z M65.3,20.1h-3.6V9.3h3.6V20.1z M63.4,7.8L63.4,7.8c-1.2,0-2-0.8-2-1.9c0-1.1,0.8-1.9,2.1-1.9s2,0.8,2,1.9
		C65.5,6.9,64.7,7.8,63.4,7.8z M78.3,20.1h-3.6v-5.8c0-1.5-0.5-2.5-1.8-2.5c-1,0-1.6,0.7-1.9,1.3c-0.1,0.2-0.1,0.6-0.1,0.9v6.1h-3.6
		c0,0,0-9.8,0-10.8h3.6v1.5c0.5-0.7,1.3-1.8,3.3-1.8c2.4,0,4.2,1.5,4.2,4.9V20.1z M70.9,10.8C70.9,10.8,70.9,10.8,70.9,10.8
		L70.9,10.8L70.9,10.8z"/>
</g>
<g id="Twitter">
</g>
<g id="Youtube">
</g>
<g id="Facebook">
</g>
<g id="Guides" display="none" opacity="0.2">
	<rect display="inline" fill-rule="evenodd" clip-rule="evenodd" fill="#0089D9" width="24" height="24"/>
	<rect x="29" display="inline" fill-rule="evenodd" clip-rule="evenodd" fill="#0089D9" width="24" height="24"/>
	<rect x="58" display="inline" fill-rule="evenodd" clip-rule="evenodd" fill="#0089D9" width="24" height="24"/>
</g>
</svg>
