<?xml version="1.0" encoding="utf-8"?>
<!-- Generator: Adobe Illustrator 19.1.0, SVG Export Plug-In . SVG Version: 6.00 Build 0)  -->
<!DOCTYPE svg PUBLIC "-//W3C//DTD SVG 1.1//EN" "http://www.w3.org/Graphics/SVG/1.1/DTD/svg11.dtd">
<svg version="1.1" xmlns="http://www.w3.org/2000/svg" xmlns:xlink="http://www.w3.org/1999/xlink" x="0px" y="0px" width="82px"
	 height="24px" viewBox="0 0 82 24" enable-background="new 0 0 82 24" xml:space="preserve">
<g id="Layer_3">
</g>
<g id="Tumblr">
</g>
<g id="Vimeo">
</g>
<g id="Skype">
	<path fill="#00AFF0" d="M23,13.7c0.1-0.6,0.1-1.1,0.1-1.7c0-6.2-5-11.1-11.1-11.1c-0.6,0-1.2,0-1.7,0.1C9.2,0.3,8,0,6.7,0
		C3,0,0,3,0,6.7C0,8,0.4,9.2,1,10.2c-0.1,0.6-0.1,1.1-0.1,1.7c0,6.2,5,11.1,11.1,11.1c0.6,0,1.2,0,1.7-0.1c1,0.6,2.2,1,3.5,1
		c3.7,0,6.7-3,6.7-6.7C24,16,23.7,14.8,23,13.7z M17.3,17.1c-0.5,0.7-1.2,1.2-2.1,1.6c-0.9,0.4-2,0.6-3.2,0.6
		c-1.5,0-2.7-0.3-3.7-0.8c-0.7-0.4-1.2-0.9-1.7-1.5C6.2,16.3,6,15.7,6,15.1c0-0.4,0.1-0.7,0.4-0.9c0.3-0.3,0.6-0.4,1-0.4
		c0.3,0,0.6,0.1,0.8,0.3c0.2,0.2,0.4,0.5,0.6,0.9C9,15.4,9.2,15.8,9.5,16c0.2,0.3,0.5,0.5,0.9,0.7c0.4,0.2,0.9,0.3,1.6,0.3
		c0.9,0,1.6-0.2,2.2-0.6c0.6-0.4,0.8-0.9,0.8-1.4c0-0.4-0.1-0.8-0.4-1.1c-0.3-0.3-0.7-0.5-1.2-0.6c-0.5-0.2-1.1-0.3-1.9-0.5
		c-1.1-0.2-2-0.5-2.7-0.8c-0.7-0.3-1.3-0.7-1.7-1.3c-0.4-0.6-0.6-1.2-0.6-2c0-0.8,0.2-1.5,0.7-2.1C7.4,6,8.1,5.6,9,5.2
		c0.9-0.3,1.9-0.5,3-0.5c0.9,0,1.7,0.1,2.4,0.3c0.7,0.2,1.2,0.5,1.7,0.9c0.4,0.4,0.8,0.7,1,1.1c0.2,0.4,0.3,0.8,0.3,1.2
		c0,0.3-0.1,0.7-0.4,0.9c-0.3,0.3-0.6,0.4-1,0.4c-0.4,0-0.6-0.1-0.8-0.3c-0.2-0.2-0.4-0.4-0.6-0.8c-0.3-0.5-0.6-0.9-1-1.2
		c-0.4-0.3-1-0.4-1.8-0.4C11,6.9,10.4,7,9.9,7.3C9.4,7.6,9.2,8,9.2,8.4c0,0.3,0.1,0.5,0.2,0.7c0.2,0.2,0.4,0.4,0.7,0.5
		c0.3,0.1,0.6,0.3,0.9,0.3c0.3,0.1,0.8,0.2,1.4,0.4c0.8,0.2,1.6,0.4,2.3,0.6c0.7,0.2,1.3,0.5,1.8,0.8c0.5,0.3,0.9,0.7,1.1,1.2
		c0.3,0.5,0.4,1.1,0.4,1.8C18,15.6,17.8,16.4,17.3,17.1z"/>
	<path fill="#C8C8C8" d="M52,13.7c0.1-0.6,0.1-1.1,0.1-1.7c0-6.2-5-11.1-11.1-11.1c-0.6,0-1.2,0-1.7,0.1c-1-0.6-2.2-1-3.5-1
		C32,0,29,3,29,6.7c0,1.3,0.4,2.5,1,3.5c-0.1,0.6-0.1,1.1-0.1,1.7c0,6.2,5,11.1,11.1,11.1c0.6,0,1.2,0,1.7-0.1c1,0.6,2.2,1,3.5,1
		c3.7,0,6.7-3,6.7-6.7C53,16,52.7,14.8,52,13.7z M46.3,17.1c-0.5,0.7-1.2,1.2-2.1,1.6c-0.9,0.4-2,0.6-3.2,0.6
		c-1.5,0-2.7-0.3-3.7-0.8c-0.7-0.4-1.2-0.9-1.7-1.5c-0.4-0.6-0.6-1.2-0.6-1.8c0-0.4,0.1-0.7,0.4-0.9c0.3-0.3,0.6-0.4,1-0.4
		c0.3,0,0.6,0.1,0.8,0.3c0.2,0.2,0.4,0.5,0.6,0.9c0.2,0.4,0.4,0.8,0.6,1.1c0.2,0.3,0.5,0.5,0.9,0.7c0.4,0.2,0.9,0.3,1.6,0.3
		c0.9,0,1.6-0.2,2.2-0.6c0.6-0.4,0.8-0.9,0.8-1.4c0-0.4-0.1-0.8-0.4-1.1c-0.3-0.3-0.7-0.5-1.2-0.6c-0.5-0.2-1.1-0.3-1.9-0.5
		c-1.1-0.2-2-0.5-2.7-0.8c-0.7-0.3-1.3-0.7-1.7-1.3c-0.4-0.6-0.6-1.2-0.6-2c0-0.8,0.2-1.5,0.7-2.1c0.5-0.6,1.1-1.1,2-1.4
		c0.9-0.3,1.9-0.5,3-0.5c0.9,0,1.7,0.1,2.4,0.3c0.7,0.2,1.2,0.5,1.7,0.9c0.4,0.4,0.8,0.7,1,1.1c0.2,0.4,0.3,0.8,0.3,1.2
		c0,0.3-0.1,0.7-0.4,0.9c-0.3,0.3-0.6,0.4-1,0.4c-0.4,0-0.6-0.1-0.8-0.3c-0.2-0.2-0.4-0.4-0.6-0.8c-0.3-0.5-0.6-0.9-1-1.2
		c-0.4-0.3-1-0.4-1.8-0.4c-0.8,0-1.4,0.2-1.9,0.5c-0.5,0.3-0.7,0.7-0.7,1.1c0,0.3,0.1,0.5,0.2,0.7c0.2,0.2,0.4,0.4,0.7,0.5
		c0.3,0.1,0.6,0.3,0.9,0.3c0.3,0.1,0.8,0.2,1.4,0.4c0.8,0.2,1.6,0.4,2.3,0.6c0.7,0.2,1.3,0.5,1.8,0.8c0.5,0.3,0.9,0.7,1.1,1.2
		c0.3,0.5,0.4,1.1,0.4,1.8C47,15.6,46.8,16.4,46.3,17.1z"/>
	<path fill="#08BDFF" d="M81,13.7c0.1-0.6,0.1-1.1,0.1-1.7c0-6.2-5-11.1-11.1-11.1c-0.6,0-1.2,0-1.7,0.1c-1-0.6-2.2-1-3.5-1
		C61,0,58,3,58,6.7c0,1.3,0.4,2.5,1,3.5c-0.1,0.6-0.1,1.1-0.1,1.7c0,6.2,5,11.1,11.1,11.1c0.6,0,1.2,0,1.7-0.1c1,0.6,2.2,1,3.5,1
		c3.7,0,6.7-3,6.7-6.7C82,16,81.6,14.8,81,13.7z M75.3,17.1c-0.5,0.7-1.2,1.2-2.1,1.6c-0.9,0.4-2,0.6-3.2,0.6
		c-1.5,0-2.7-0.3-3.7-0.8c-0.7-0.4-1.2-0.9-1.7-1.5c-0.4-0.6-0.6-1.2-0.6-1.8c0-0.4,0.1-0.7,0.4-0.9c0.3-0.3,0.6-0.4,1-0.4
		c0.3,0,0.6,0.1,0.8,0.3c0.2,0.2,0.4,0.5,0.6,0.9c0.2,0.4,0.4,0.8,0.6,1.1c0.2,0.3,0.5,0.5,0.9,0.7c0.4,0.2,0.9,0.3,1.6,0.3
		c0.9,0,1.6-0.2,2.2-0.6c0.6-0.4,0.8-0.9,0.8-1.4c0-0.4-0.1-0.8-0.4-1.1c-0.3-0.3-0.7-0.5-1.2-0.6c-0.5-0.2-1.1-0.3-1.9-0.5
		c-1.1-0.2-2-0.5-2.7-0.8c-0.7-0.3-1.3-0.7-1.7-1.3c-0.4-0.6-0.6-1.2-0.6-2c0-0.8,0.2-1.5,0.7-2.1c0.5-0.6,1.1-1.1,2-1.4
		c0.9-0.3,1.9-0.5,3-0.5c0.9,0,1.7,0.1,2.4,0.3C73,5.3,73.6,5.6,74,5.9c0.4,0.4,0.8,0.7,1,1.1c0.2,0.4,0.3,0.8,0.3,1.2
		c0,0.3-0.1,0.7-0.4,0.9c-0.3,0.3-0.6,0.4-1,0.4c-0.4,0-0.6-0.1-0.8-0.3c-0.2-0.2-0.4-0.4-0.6-0.8c-0.3-0.5-0.6-0.9-1-1.2
		c-0.4-0.3-1-0.4-1.8-0.4c-0.8,0-1.4,0.2-1.9,0.5c-0.5,0.3-0.7,0.7-0.7,1.1c0,0.3,0.1,0.5,0.2,0.7c0.2,0.2,0.4,0.4,0.7,0.5
		c0.3,0.1,0.6,0.3,0.9,0.3c0.3,0.1,0.8,0.2,1.4,0.4c0.8,0.2,1.6,0.4,2.3,0.6c0.7,0.2,1.3,0.5,1.8,0.8c0.5,0.3,0.9,0.7,1.1,1.2
		c0.3,0.5,0.4,1.1,0.4,1.8C76,15.6,75.8,16.4,75.3,17.1z"/>
</g>
<g id="Google">
</g>
<g id="Pinterest">
</g>
<g id="Linkedin">
</g>
<g id="Twitter">
</g>
<g id="Youtube">
</g>
<g id="Facebook">
</g>
<g id="Guides" display="none" opacity="0.2">
	<rect display="inline" fill-rule="evenodd" clip-rule="evenodd" fill="#0089D9" width="24" height="24"/>
	<rect x="29" display="inline" fill-rule="evenodd" clip-rule="evenodd" fill="#0089D9" width="24" height="24"/>
	<rect x="58" display="inline" fill-rule="evenodd" clip-rule="evenodd" fill="#0089D9" width="24" height="24"/>
</g>
</svg>
