<?xml version="1.0" encoding="utf-8"?>
<!-- Generator: Adobe Illustrator 19.1.0, SVG Export Plug-In . SVG Version: 6.00 Build 0)  -->
<!DOCTYPE svg PUBLIC "-//W3C//DTD SVG 1.1//EN" "http://www.w3.org/Graphics/SVG/1.1/DTD/svg11.dtd">
<svg version="1.1" xmlns="http://www.w3.org/2000/svg" xmlns:xlink="http://www.w3.org/1999/xlink" x="0px" y="0px" width="82px"
	 height="24px" viewBox="0 0 82 24" enable-background="new 0 0 82 24" xml:space="preserve">
<g id="Layer_3">
</g>
<g id="Tumblr">
</g>
<g id="Vimeo">
	<path fill="#1AB7EA" d="M20.5,1.2c-3.3-0.1-5.6,1.8-6.8,5.6c0.6-0.3,1.2-0.4,1.8-0.4c1.2,0,1.8,0.7,1.6,2.1c-0.1,0.8-0.6,2-1.6,3.6
		c-1,1.6-1.8,2.4-2.3,2.4c-0.6,0-1.2-1.2-1.8-3.7c-0.2-0.7-0.5-2.6-1-5.5c-0.4-2.7-1.6-4-3.5-3.8c-0.8,0.1-2,0.8-3.6,2.2
		C2.4,4.6,1.2,5.7,0,6.7l1.1,1.5C2.2,7.4,2.8,7.1,3,7.1c0.8,0,1.6,1.3,2.3,3.9c0.6,2.4,1.3,4.8,1.9,7.1c1,2.6,2.2,3.9,3.6,3.9
		c2.3,0,5-2.1,8.3-6.4c3.2-4.1,4.8-7.3,4.9-9.6C24.2,2.8,23,1.2,20.5,1.2z"/>
	<path fill="#C8C8C8" d="M49.5,1.2c-3.3-0.1-5.6,1.8-6.8,5.6c0.6-0.3,1.2-0.4,1.8-0.4c1.2,0,1.8,0.7,1.6,2.1c-0.1,0.8-0.6,2-1.6,3.6
		c-1,1.6-1.8,2.4-2.3,2.4c-0.6,0-1.2-1.2-1.8-3.7c-0.2-0.7-0.5-2.6-1-5.5c-0.4-2.7-1.6-4-3.5-3.8c-0.8,0.1-2,0.8-3.6,2.2
		c-1.2,1-2.3,2.1-3.5,3.1l1.1,1.5c1.1-0.8,1.7-1.1,1.9-1.1c0.8,0,1.6,1.3,2.3,3.9c0.6,2.4,1.3,4.8,1.9,7.1c1,2.6,2.2,3.9,3.6,3.9
		c2.3,0,5-2.1,8.3-6.4c3.2-4.1,4.8-7.3,4.9-9.6C53.1,2.8,51.9,1.2,49.5,1.2z"/>
	<path fill="#21C8FF" d="M78.5,1.2c-3.3-0.1-5.6,1.8-6.8,5.6c0.6-0.3,1.2-0.4,1.8-0.4c1.2,0,1.8,0.7,1.6,2.1c-0.1,0.8-0.6,2-1.6,3.6
		c-1,1.6-1.8,2.4-2.3,2.4c-0.6,0-1.2-1.2-1.8-3.7c-0.2-0.7-0.5-2.6-1-5.5c-0.4-2.7-1.6-4-3.5-3.8c-0.8,0.1-2,0.8-3.6,2.2
		c-1.2,1-2.3,2.1-3.5,3.1l1.1,1.5c1.1-0.8,1.7-1.1,1.9-1.1c0.8,0,1.6,1.3,2.3,3.9c0.6,2.4,1.3,4.8,1.9,7.1c1,2.6,2.2,3.9,3.6,3.9
		c2.3,0,5-2.1,8.3-6.4c3.2-4.1,4.8-7.3,4.9-9.6C82.1,2.8,81,1.2,78.5,1.2z"/>
</g>
<g id="Skype">
</g>
<g id="Google">
</g>
<g id="Pinterest">
</g>
<g id="Linkedin">
</g>
<g id="Twitter">
</g>
<g id="Youtube">
</g>
<g id="Facebook">
</g>
<g id="Guides" display="none" opacity="0.2">
	<rect display="inline" fill-rule="evenodd" clip-rule="evenodd" fill="#0089D9" width="24" height="24"/>
	<rect x="29" display="inline" fill-rule="evenodd" clip-rule="evenodd" fill="#0089D9" width="24" height="24"/>
	<rect x="58" display="inline" fill-rule="evenodd" clip-rule="evenodd" fill="#0089D9" width="24" height="24"/>
</g>
</svg>
