<?xml version="1.0" encoding="utf-8"?>
<!-- Generator: Adobe Illustrator 19.1.0, SVG Export Plug-In . SVG Version: 6.00 Build 0)  -->
<!DOCTYPE svg PUBLIC "-//W3C//DTD SVG 1.1//EN" "http://www.w3.org/Graphics/SVG/1.1/DTD/svg11.dtd">
<svg version="1.1" xmlns="http://www.w3.org/2000/svg" xmlns:xlink="http://www.w3.org/1999/xlink" x="0px" y="0px" width="82px"
	 height="24px" viewBox="0 0 82 24" enable-background="new 0 0 82 24" xml:space="preserve">
<g id="Layer_3">
</g>
<g id="Tumblr">
</g>
<g id="Vimeo">
</g>
<g id="Skype">
</g>
<g id="Google">
</g>
<g id="Pinterest">
	<path fill="#CC2127" d="M12,0C5.4,0,0,5.4,0,12c0,4.9,3,9.1,7.2,11c0-0.8,0-1.8,0.2-2.8c0.2-1,1.5-6.5,1.5-6.5s-0.4-0.8-0.4-1.9
		c0-1.8,1-3.1,2.3-3.1c1.1,0,1.6,0.8,1.6,1.8c0,1.1-0.7,2.7-1.1,4.3c-0.3,1.3,0.6,2.3,1.9,2.3c2.3,0,3.8-2.9,3.8-6.4
		c0-2.6-1.8-4.6-5-4.6c-3.6,0-5.9,2.7-5.9,5.8c0,1,0.3,1.8,0.8,2.4c0.2,0.3,0.3,0.4,0.2,0.7c-0.1,0.2-0.2,0.8-0.2,1
		c-0.1,0.3-0.3,0.4-0.6,0.3c-1.7-0.7-2.5-2.5-2.5-4.6C3.9,8.1,6.8,4,12.5,4c4.6,0,7.6,3.3,7.6,6.9c0,4.7-2.6,8.2-6.5,8.2
		c-1.3,0-2.5-0.7-2.9-1.5c0,0-0.7,2.8-0.8,3.3c-0.3,0.9-0.8,1.9-1.2,2.6C9.7,23.9,10.8,24,12,24c6.6,0,12-5.4,12-12
		C24,5.4,18.7,0,12,0z"/>
	<path fill="#C8C8C8" d="M41,0c-6.6,0-12,5.4-12,12c0,4.9,3,9.1,7.2,11c0-0.8,0-1.8,0.2-2.8c0.2-1,1.5-6.5,1.5-6.5s-0.4-0.8-0.4-1.9
		c0-1.8,1-3.1,2.3-3.1c1.1,0,1.6,0.8,1.6,1.8c0,1.1-0.7,2.7-1.1,4.3c-0.3,1.3,0.6,2.3,1.9,2.3c2.3,0,3.8-2.9,3.8-6.4
		c0-2.6-1.8-4.6-5-4.6c-3.6,0-5.9,2.7-5.9,5.8c0,1,0.3,1.8,0.8,2.4c0.2,0.3,0.3,0.4,0.2,0.7c-0.1,0.2-0.2,0.8-0.2,1
		c-0.1,0.3-0.3,0.4-0.6,0.3c-1.7-0.7-2.5-2.5-2.5-4.6c0-3.4,2.9-7.5,8.6-7.5c4.6,0,7.6,3.3,7.6,6.9c0,4.7-2.6,8.2-6.5,8.2
		c-1.3,0-2.5-0.7-2.9-1.5c0,0-0.7,2.8-0.8,3.3c-0.3,0.9-0.8,1.9-1.2,2.6c1.1,0.3,2.2,0.5,3.4,0.5c6.6,0,12-5.4,12-12
		C53,5.4,47.7,0,41,0z"/>
	<path fill="#E6252B" d="M70,0c-6.6,0-12,5.4-12,12c0,4.9,3,9.1,7.2,11c0-0.8,0-1.8,0.2-2.8c0.2-1,1.5-6.5,1.5-6.5s-0.4-0.8-0.4-1.9
		c0-1.8,1-3.1,2.3-3.1c1.1,0,1.6,0.8,1.6,1.8c0,1.1-0.7,2.7-1.1,4.3c-0.3,1.3,0.6,2.3,1.9,2.3c2.3,0,3.8-2.9,3.8-6.4
		c0-2.6-1.8-4.6-5-4.6c-3.6,0-5.9,2.7-5.9,5.8c0,1,0.3,1.8,0.8,2.4c0.2,0.3,0.3,0.4,0.2,0.7c-0.1,0.2-0.2,0.8-0.2,1
		c-0.1,0.3-0.3,0.4-0.6,0.3c-1.7-0.7-2.5-2.5-2.5-4.6c0-3.4,2.9-7.5,8.6-7.5c4.6,0,7.6,3.3,7.6,6.9c0,4.7-2.6,8.2-6.5,8.2
		c-1.3,0-2.5-0.7-2.9-1.5c0,0-0.7,2.8-0.8,3.3c-0.3,0.9-0.8,1.9-1.2,2.6c1.1,0.3,2.2,0.5,3.4,0.5c6.6,0,12-5.4,12-12
		C82,5.4,76.6,0,70,0z"/>
</g>
<g id="Linkedin">
</g>
<g id="Twitter">
</g>
<g id="Youtube">
</g>
<g id="Facebook">
</g>
<g id="Guides" display="none" opacity="0.2">
	<rect display="inline" fill-rule="evenodd" clip-rule="evenodd" fill="#0089D9" width="24" height="24"/>
	<rect x="29" display="inline" fill-rule="evenodd" clip-rule="evenodd" fill="#0089D9" width="24" height="24"/>
	<rect x="58" display="inline" fill-rule="evenodd" clip-rule="evenodd" fill="#0089D9" width="24" height="24"/>
</g>
</svg>
