<?xml version="1.0" encoding="utf-8"?>
<!-- Generator: Adobe Illustrator 19.1.0, SVG Export Plug-In . SVG Version: 6.00 Build 0)  -->
<!DOCTYPE svg PUBLIC "-//W3C//DTD SVG 1.1//EN" "http://www.w3.org/Graphics/SVG/1.1/DTD/svg11.dtd">
<svg version="1.1" xmlns="http://www.w3.org/2000/svg" xmlns:xlink="http://www.w3.org/1999/xlink" x="0px" y="0px" width="100px"
	 height="16px" viewBox="0 0 100 16" enable-background="new 0 0 100 16" xml:space="preserve">
<g id="Help">
	<g>
		<g>
			<path fill="#0089D9" d="M92,0c-4.4,0-8,3.6-8,8c0,4.4,3.6,8,8,8c4.4,0,8-3.6,8-8C100,3.6,96.4,0,92,0z M93,12h-2v-1.2h2V12z
				 M93.4,8.5C93,8.8,92.8,9.2,92.8,10l-1.7,0c0-1,0.6-1.9,1.3-2.5c0.4-0.3,0.8-0.7,0.8-1.1c0-0.6-0.5-1-1.1-0.9
				c-1.2,0-1.3,1.3-1.3,1.3s-1.3-0.1-1.2-1C89.9,4.8,90.8,4,92,4c1.3-0.1,2.5,1,2.5,2.4C94.5,7.5,94,7.9,93.4,8.5z"/>
		</g>
	</g>
</g>
<g id="Information">
	<g>
		<g>
			<path fill-rule="evenodd" clip-rule="evenodd" fill="#0089D9" d="M71,0c-4.4,0-8,3.6-8,8c0,4.4,3.6,8,8,8c4.4,0,8-3.6,8-8
				C79,3.6,75.4,0,71,0z M72.5,10.9c-0.5,0.7-1,1.1-1.8,1.1c-0.6,0-1.2-0.6-1.1-1.1L70.6,8c0-0.1,0-0.2-0.1-0.2
				c-0.6,0.1-1.2,0.4-1.2,0.4c0-0.1,0-0.1,0-0.2c0.5-0.7,1.5-1.4,2.2-1.3C72,6.8,72,7.3,71.9,7.8l-0.8,3c0,0.2,0.1,0.3,0.4,0.3
				c0.3,0,1-0.7,1-0.7C72.6,10.5,72.5,10.8,72.5,10.9z M71.5,6c-0.6,0-1.1-0.5-1.1-1c0-0.6,0.5-1,1.1-1c0.6,0,1.1,0.5,1.1,1
				C72.6,5.6,72.1,6,71.5,6z"/>
		</g>
	</g>
</g>
<g id="Warning">
	<g>
		<g>
			<path fill-rule="evenodd" clip-rule="evenodd" fill="#FF8B00" d="M57.7,13.6C57.3,12.8,52,2.8,51.3,1.4c0,0-0.2-0.8-1.3-0.8
				c-1.1,0-1.3,0.8-1.3,0.8c-0.7,1.4-6,11.4-6.4,12.1c-0.6,1.2-0.2,2.4,1.4,2.4h12.6C57.9,16,58.3,14.7,57.7,13.6z M51,14h-2v-2h2
				V14z M50.8,9.6c0,0.4-0.3,1.4-0.8,1.4c-0.6,0-0.8-1.1-0.8-1.5L49,6c0-0.4,0-1,1-1s1,0.6,1,1L50.8,9.6z"/>
		</g>
	</g>
</g>
<g id="Error">
	<g>
		<g>
			<path fill-rule="evenodd" clip-rule="evenodd" fill="#D6565A" d="M29,0c-4.4,0-8,3.6-8,8c0,4.4,3.6,8,8,8c4.4,0,8-3.6,8-8
				C37,3.6,33.4,0,29,0z M29,4c1,0,1,0.6,1,1l-0.2,2.6C29.8,7.9,29.6,9,29,9c-0.6,0-0.8-1.1-0.8-1.5L28,5C28,4.6,28,4,29,4z M30,12
				h-2v-2h2V12z"/>
		</g>
	</g>
</g>
<g id="Success">
	<g>
		<g>
			<path fill-rule="evenodd" clip-rule="evenodd" fill="#68A611" d="M8,0C3.6,0,0,3.6,0,8c0,4.4,3.6,8,8,8c4.4,0,8-3.6,8-8
				C16,3.6,12.4,0,8,0z M7,11.3C6,9.9,4.6,8.6,4.6,8.6L5.2,8c0,0,0.9,0.4,1.9,1.2c2-2.2,4.5-4,4.5-4l0.4,0.4
				C11.9,5.5,9.8,7.9,7,11.3z"/>
		</g>
	</g>
</g>
<g id="Guides" display="none" opacity="0.2">
	<rect x="0" display="inline" fill="#0089D9" width="16" height="16"/>
	<rect x="21" display="inline" fill="#0089D9" width="16" height="16"/>
	<rect x="42" display="inline" fill="#0089D9" width="16" height="16"/>
	<rect x="63" display="inline" fill="#0089D9" width="16" height="16"/>
	<rect x="84" display="inline" fill="#0089D9" width="16" height="16"/>
</g>
</svg>
