<?xml version="1.0" encoding="utf-8"?>
<!-- Generator: Adobe Illustrator 19.1.0, SVG Export Plug-In . SVG Version: 6.00 Build 0)  -->
<!DOCTYPE svg PUBLIC "-//W3C//DTD SVG 1.1//EN" "http://www.w3.org/Graphics/SVG/1.1/DTD/svg11.dtd">
<svg version="1.1" xmlns="http://www.w3.org/2000/svg" xmlns:xlink="http://www.w3.org/1999/xlink" x="0px" y="0px" width="140px"
	 height="24px" viewBox="0 0 140 24" enable-background="new 0 0 140 24" xml:space="preserve">
<g id="Help">
	<g>
		<g>
			<path fill="#0089D9" d="M128,0c-6.6,0-12,5.4-12,12c0,6.6,5.4,12,12,12c6.6,0,12-5.4,12-12C140,5.4,134.6,0,128,0z M129,18h-2v-2
				h2V18z M130.1,12.7c-0.6,0.5-1.4,1.1-1.4,2.3l-1.4,0c0-1.5,0.7-2.7,1.8-3.5c0.6-0.4,0.7-1,0.7-1.6c0-0.8-0.8-1.6-1.8-1.6
				c-1.8,0-2.4,1.6-2.4,1.6s-1.8,0.7-1.3-1c0.5-1.5,1.9-2.7,3.7-2.8c2-0.1,3.7,1.5,3.8,3.6C131.8,11.2,131,11.9,130.1,12.7z"/>
		</g>
	</g>
</g>
<g id="Information">
	<g>
		<g>
			<path fill-rule="evenodd" clip-rule="evenodd" fill="#0089D9" d="M99,0c-6.6,0-12,5.4-12,12c0,6.6,5.4,12,12,12s12-5.4,12-12
				C111,5.4,105.6,0,99,0z M99.4,6c0.8,0,1.5,0.7,1.5,1.5c0,0.8-0.7,1.5-1.5,1.5c-0.8,0-1.5-0.7-1.5-1.5C97.9,6.7,98.5,6,99.4,6z
				 M101,16.3c-0.7,1.1-1.5,1.6-2.7,1.6c-1,0-1.9-1-1.7-1.6L98,12c0-0.1,0-0.3-0.1-0.3c-0.9,0.1-1.8,0.6-1.8,0.6c0-0.2,0-0.1,0-0.3
				c0.7-1.1,2.2-2.1,3.4-2c0.7,0.1,0.8,0.9,0.7,1.6l-1.2,4.4c0,0.3,0.2,0.5,0.5,0.5c0.5,0,1.5-1.1,1.5-1.1
				C101,15.7,101,16.2,101,16.3z"/>
		</g>
	</g>
</g>
<g id="Warning">
	<g>
		<g>
			<path fill="#FF8B00" d="M81.5,20.9c-0.6-1.1-9-16.8-10-18.9c0,0-0.4-1.1-1.6-1.1c-1.2,0-1.6,1.1-1.6,1.1c-1,2-9.4,17.8-10,18.9
				C57.5,22.7,58.1,24,60,24h20C81.9,24,82.5,22.7,81.5,20.9z M70,8c0.6,0,1.3,0.4,1.3,1l-0.5,6.2c0,0.5-0.3,0.8-0.8,0.8
				c-0.6,0-0.9-0.3-0.9-0.8L68.7,9C68.7,8.5,69.4,8,70,8z M70,20c-0.8,0-1.5-0.7-1.5-1.5c0-0.8,0.7-1.5,1.5-1.5
				c0.8,0,1.5,0.7,1.5,1.5C71.5,19.3,70.8,20,70,20z"/>
		</g>
	</g>
</g>
<g id="Error">
	<g>
		<g>
			<path fill="#D6565A" d="M41,0c-6.6,0-12,5.4-12,12c0,6.6,5.4,12,12,12s12-5.4,12-12C53,5.4,47.6,0,41,0z M41,6
				c0.6,0,1.3,0.4,1.3,1l-0.4,6.2c0,0.5-0.3,0.8-0.8,0.8c-0.6,0-0.9-0.3-0.9-0.8L39.7,7C39.7,6.5,40.4,6,41,6z M41,18
				c-0.8,0-1.5-0.7-1.5-1.5c0-0.8,0.7-1.5,1.5-1.5c0.8,0,1.5,0.7,1.5,1.5C42.5,17.3,41.8,18,41,18z"/>
		</g>
	</g>
</g>
<g id="Success">
	<g>
		<g>
			<path fill-rule="evenodd" clip-rule="evenodd" fill="#68A611" d="M12,0C5.4,0,0,5.4,0,12c0,6.6,5.4,12,12,12c6.6,0,12-5.4,12-12
				C24,5.4,18.7,0,12,0z M10.2,16.8c-1.6-2-3.3-4-3.3-4l0.9-0.9c0,0,1.3,1.1,2.5,2.5c3.8-4.5,7.1-6.7,7.1-6.7l0.5,0.6
				C17.9,8.3,14.3,11.8,10.2,16.8z"/>
		</g>
	</g>
</g>
<g id="Guides" display="none" opacity="0.2">
	<rect x="0" display="inline" fill="#0089D9" width="24" height="24"/>
	<rect x="29" display="inline" fill="#0089D9" width="24" height="24"/>
	<rect x="58" display="inline" fill="#0089D9" width="24" height="24"/>
	<rect x="87" display="inline" fill="#0089D9" width="24" height="24"/>
	<rect x="116" display="inline" fill="#0089D9" width="24" height="24"/>
</g>
</svg>
