<?xml version="1.0" encoding="utf-8"?>
<!-- Generator: Adobe Illustrator 19.1.0, SVG Export Plug-In . SVG Version: 6.00 Build 0)  -->
<!DOCTYPE svg PUBLIC "-//W3C//DTD SVG 1.1//EN" "http://www.w3.org/Graphics/SVG/1.1/DTD/svg11.dtd">
<svg version="1.1" xmlns="http://www.w3.org/2000/svg" xmlns:xlink="http://www.w3.org/1999/xlink" x="0px" y="0px" width="270px"
	 height="50px" viewBox="0 0 270 50" enable-background="new 0 0 270 50" xml:space="preserve">
<g id="Help">
	<g>
		<g>
			<path fill-rule="evenodd" clip-rule="evenodd" fill="#0089D9" d="M245,0c-13.8,0-25,11.2-25,25c0,13.8,11.2,25,25,25
				c13.8,0,25-11.2,25-25C270,11.2,258.8,0,245,0z M245,35.7c-0.9,0-1.7-0.8-1.7-1.7c0-0.9,0.8-1.7,1.7-1.7c0.9,0,1.7,0.8,1.7,1.7
				C246.7,34.9,245.9,35.7,245,35.7z M248.6,25.2c-1,1.1-2.6,2.4-2.6,4.2c0,0.2,0,0.4,0,0.7c0,0.6-0.4,1-1,1c-0.5,0-1-0.4-1-1
				c0-0.2,0-0.4,0-0.5h0c0-0.1,0-0.3,0-0.4c0,0,0-0.1,0-0.1c0,0,0,0,0,0c0.2-1.9,1.5-3.6,2.9-5c0.9-0.9,1.5-2.8,1.5-4
				c0-1.9-1.1-3.4-3.6-3.4c-3.7,0-3.9,2.8-3.9,2.8s0.3,1.6-1,1.6c-1.3,0-1-1.6-1-1.6c0-2.5,2.1-5.3,6-5.3c3.6,0,6,2.8,6,5.9
				C251,21.8,249.8,24,248.6,25.2z"/>
		</g>
	</g>
</g>
<g id="Information">
	<g>
		<g>
			<path fill-rule="evenodd" clip-rule="evenodd" fill="#0089D9" d="M190,0c-13.8,0-25,11.2-25,25c0,13.8,11.2,25,25,25
				c13.8,0,25-11.2,25-25C215,11.2,203.8,0,190,0z M193,31.7c-0.6,1.1-2.3,2.3-4,2.3c-2,0-2.2-1.6-1.9-2.9L189,25
				c0.1-0.3-0.1-0.6-0.3-0.7c-1.5,0-2.6,0.9-2.6,0.9c-0.1-0.4,0-1.1,0-1.4c1.9-1.9,2.9-2.8,4-2.8c1.3,0,2,1.3,1.7,3.2l-1.8,6.7
				c-0.1,0.7,0.2,0.9,0.7,0.9c1,0,2.4-1.9,2.4-1.9S193,31.4,193,31.7z M191,19c-1.1,0-2-0.9-2-2c0-1.1,0.9-2,2-2c1.1,0,2,0.9,2,2
				C193,18.1,192.1,19,191,19z"/>
		</g>
	</g>
</g>
<g id="Warning">
	<g>
		<g>
			<path fill-rule="evenodd" clip-rule="evenodd" fill="#FF8B00" d="M159.2,43.4c-1.2-2.3-20-37.8-22.1-42c0,0-0.5-1.4-2.1-1.4
				c-1.6,0-2.1,1.4-2.1,1.4c-2.1,4.3-20.9,39.7-22.1,42c-1.9,3.6,0.3,4.6,2.3,4.6h44C159,48,161.2,47.1,159.2,43.4z M135,18
				c0.6,0,1.6,0.4,1.6,1L136,31c0,0.6-0.4,1-1,1c-0.6,0-1-0.4-1-1l-0.6-12C133.4,18.4,134.4,18,135,18z M135,39c-1.1,0-2-0.9-2-2
				c0-1.1,0.9-2,2-2c1.1,0,2,0.9,2,2C137,38.1,136.1,39,135,39z"/>
		</g>
	</g>
</g>
<g id="Error">
	<g>
		<g>
			<path fill-rule="evenodd" clip-rule="evenodd" fill="#D6565A" d="M80,0C66.2,0,55,11.2,55,25c0,13.8,11.2,25,25,25
				c13.8,0,25-11.2,25-25C105,11.2,93.8,0,80,0z M80,15c0.6,0,1.6,0.4,1.6,1L81,28c0,0.6-0.4,1-1,1c-0.6,0-1-0.4-1-1l-0.6-12
				C78.4,15.5,79.4,15,80,15z M80,36c-1.1,0-2-0.9-2-2c0-1.1,0.9-2,2-2c1.1,0,2,0.9,2,2C82,35.1,81.1,36,80,36z"/>
		</g>
	</g>
</g>
<g id="Success">
	<g>
		<g>
			<path fill-rule="evenodd" clip-rule="evenodd" fill="#68A611" d="M25,0C11.2,0,0,11.2,0,25c0,13.8,11.2,25,25,25
				c13.8,0,25-11.2,25-25C50,11.2,38.8,0,25,0z M21.2,34c-3.3-4.2-6.2-7.4-6.2-7.4l1.1-1.2c0,0,2.6,2,5.1,4.9
				C29.3,21,36.2,16,36.2,16l0.8,0.9C37,16.9,29.8,23.6,21.2,34z"/>
		</g>
	</g>
</g>
<g id="Guides" display="none" opacity="0.2">
	<rect display="inline" fill="#0089D9" width="50" height="50"/>
	<rect x="55" display="inline" fill="#0089D9" width="50" height="50"/>
	<rect x="110" display="inline" fill="#0089D9" width="50" height="50"/>
	<rect x="165" display="inline" fill="#0089D9" width="50" height="50"/>
	<rect x="220" display="inline" fill="#0089D9" width="50" height="50"/>
</g>
</svg>
