<?xml version="1.0" encoding="utf-8"?>
<!-- Generator: Adobe Illustrator 19.1.1, SVG Export Plug-In . SVG Version: 6.00 Build 0)  -->
<svg version="1.1" xmlns="http://www.w3.org/2000/svg" xmlns:xlink="http://www.w3.org/1999/xlink" x="0px" y="0px" width="140px"
	 height="24px" viewBox="0 0 140 24" enable-background="new 0 0 140 24" xml:space="preserve">
<g id="Layer_62" display="none">
</g>
<g id="Layer_63" display="none">
</g>
<g id="Layer_64" display="none">
</g>
<g id="Layer_65" display="none">
</g>
<g id="Layer_66" display="none">
</g>
<g id="Layer_67" display="none">
</g>
<g id="Layer_68" display="none">
</g>
<g id="Layer_69" display="none">
</g>
<g id="Layer_70" display="none">
</g>
<g id="Document_Information">
</g>
<g id="Cost_Request">
</g>
<g id="Time_Sheet">
</g>
<g id="Leave_Request">
</g>
<g id="Expense_2_">
</g>
<g id="Invoice">
</g>
<g id="Tags">
</g>
<g id="Tag">
</g>
<g id="Person_Carry">
</g>
<g id="Shipping_Fast">
</g>
<g id="Barcode_Scanner">
</g>
<g id="Hand-Holding_Box">
</g>
<g id="Forklift">
</g>
<g id="Barcode">
</g>
<g id="Box">
</g>
<g id="Laptop">
</g>
<g id="Battery_x5F_4">
</g>
<g id="Battery_x5F_3">
</g>
<g id="Battery_x5F_2">
</g>
<g id="Battery_x5F_1">
</g>
<g id="Trend_Steep_Down_2">
</g>
<g id="Trend_Normal_Down_2">
</g>
<g id="Trend_Normal_Up_2">
</g>
<g id="Trend_Steep_Up_2">
</g>
<g id="Trend_Steep_Down">
</g>
<g id="Trend_Normal_Down">
</g>
<g id="Trend_Normal_Up">
</g>
<g id="Trend_Steep_Up">
</g>
<g id="_x30__21_">
</g>
<g id="_x30__20_">
</g>
<g id="_x30__19_">
</g>
<g id="_x30__18_">
</g>
<g id="_x30_00">
</g>
<g id="_x30__17_">
</g>
<g id="_x30__16_">
</g>
<g id="_x30__15_">
</g>
<g id="_x30__14_">
</g>
<g id="_x30__13_">
</g>
<g id="_x30__12_">
</g>
<g id="_x30__11_">
</g>
<g id="_x30__10_">
</g>
<g id="_x30__9_">
</g>
<g id="_x30__8_">
</g>
<g id="_x30__7_">
</g>
<g id="_x30__6_">
</g>
<g id="_x30__5_">
</g>
<g id="_x30__4_">
</g>
<g id="_x30__3_">
</g>
<g id="_x30__2_">
</g>
<g id="_x30__1_">
</g>
<g id="_x30_">
</g>
<g id="New">
</g>
<g id="Summing_up_of_Assignments">
</g>
<g id="Export_to_Salary">
</g>
<g id="Book_Equipment">
</g>
<g id="Contractor_Schedule">
</g>
<g id="Substitute_Management">
</g>
<g id="Shortage_x2F_Surplus">
</g>
<g id="Shift_Market">
</g>
<g id="Key_Figures_x2F_Key_Performance_Indicator">
</g>
<g id="Search_User">
</g>
<g id="Adapt_x2F_Change_Schedule">
</g>
<g id="Add_Schedule">
	<g>
		<g>
			<path fill="#0089D9" d="M10,8H8v2h2V8z M12,10h0.2c0.5-0.3,1.1-0.5,1.8-0.7V8h-2V10z M16,9c0.3,0,0.7,0,1,0c0.3,0,0.7,0,1,0V8h-2
				V9z M10,12.2V12l-2,0v2h1.3C9.5,13.3,9.7,12.7,10,12.2z M6,12H4v2h2V12z M4,18h2v-2H4V18z M20,2h-2V1c0-0.6-0.4-1-1-1
				c-0.6,0-1,0.4-1,1v1H6V1c0-0.6-0.4-1-1-1C4.4,0,4,0.4,4,1v1H2C0.9,2,0,2.9,0,4v16c0,1.1,0.9,2,2,2h8.1c-0.4-0.6-0.6-1.3-0.8-2H3
				c-0.6,0-1-0.4-1-1L2,5c0-0.6,0.4-1,1-1h1v1c0,0.6,0.4,1,1,1c0.6,0,1-0.4,1-1V4h10v1c0,0.6,0.4,1,1,1c0.6,0,1-0.4,1-1V4h1
				c0.6,0,1,0.4,1,1v4.4c0.8,0.2,1.4,0.6,2,1V4C22,2.9,21.1,2,20,2z M8,16v2h1c0-0.3,0-0.7,0-1c0-0.3,0-0.7,0-1H8z"/>
		</g>
	</g>
	<g>
		<g>
			<path fill-rule="evenodd" clip-rule="evenodd" fill="#68A611" d="M17,10c-3.9,0-7,3.1-7,7c0,3.9,3.1,7,7,7c3.9,0,7-3.1,7-7
				C24,13.1,20.9,10,17,10z M20,18h-2v2c0,0.6-0.4,1-1,1c-0.6,0-1-0.4-1-1v-2h-2c-0.6,0-1-0.4-1-1c0-0.6,0.4-1,1-1h2v-2
				c0-0.6,0.4-1,1-1c0.6,0,1,0.4,1,1v2h2c0.6,0,1,0.4,1,1C21,17.6,20.6,18,20,18z"/>
		</g>
	</g>
	<g>
		<g>
			<path fill="#D7D7D7" d="M39,8h-2v2h2V8z M41,10h0.2c0.5-0.3,1.1-0.5,1.8-0.7V8h-2V10z M45,9c0.3,0,0.7,0,1,0c0.3,0,0.7,0,1,0V8
				h-2V9z M39,12.2V12l-2,0v2h1.3C38.5,13.3,38.7,12.7,39,12.2z M35,12h-2v2h2V12z M33,18h2v-2h-2V18z M37,16v2h1c0-0.3,0-0.7,0-1
				c0-0.3,0-0.7,0-1H37z M49,2h-2V1c0-0.6-0.4-1-1-1c-0.6,0-1,0.4-1,1v1H35V1c0-0.6-0.4-1-1-1c-0.6,0-1,0.4-1,1v1h-2
				c-1.1,0-2,0.9-2,2v16c0,1.1,0.9,2,2,2h8.1c-0.4-0.6-0.6-1.3-0.8-2H32c-0.6,0-1-0.4-1-1l0-14c0-0.6,0.4-1,1-1h1v1c0,0.6,0.4,1,1,1
				c0.6,0,1-0.4,1-1V4h10v1c0,0.6,0.4,1,1,1c0.6,0,1-0.4,1-1V4h1c0.6,0,1,0.4,1,1v4.4c0.8,0.2,1.4,0.6,2,1V4C51,2.9,50.1,2,49,2z"/>
		</g>
	</g>
	<g>
		<g>
			<path fill-rule="evenodd" clip-rule="evenodd" fill="#D7D7D7" d="M46,10c-3.9,0-7,3.1-7,7c0,3.9,3.1,7,7,7c3.9,0,7-3.1,7-7
				C53,13.1,49.9,10,46,10z M49,18h-2v2c0,0.6-0.4,1-1,1c-0.6,0-1-0.4-1-1v-2h-2c-0.6,0-1-0.4-1-1c0-0.6,0.4-1,1-1h2v-2
				c0-0.6,0.4-1,1-1c0.6,0,1,0.4,1,1v2h2c0.6,0,1,0.4,1,1C50,17.6,49.6,18,49,18z"/>
		</g>
	</g>
	<g>
		<g>
			<path fill="#39A6E6" d="M68,8h-2v2h2V8z M68,12.2V12l-2,0v2h1.3C67.5,13.3,67.7,12.7,68,12.2z M70,10h0.2
				c0.5-0.3,1.1-0.5,1.8-0.7V8h-2V10z M74,9c0.3,0,0.7,0,1,0c0.3,0,0.7,0,1,0V8h-2V9z M66,16v2h1c0-0.3,0-0.7,0-1c0-0.3,0-0.7,0-1
				H66z M62,18h2v-2h-2V18z M78,2h-2V1c0-0.6-0.4-1-1-1c-0.6,0-1,0.4-1,1v1H64V1c0-0.6-0.4-1-1-1c-0.6,0-1,0.4-1,1v1h-2
				c-1.1,0-2,0.9-2,2v16c0,1.1,0.9,2,2,2h8.1c-0.4-0.6-0.6-1.3-0.8-2H61c-0.6,0-1-0.4-1-1l0-14c0-0.6,0.4-1,1-1h1v1c0,0.6,0.4,1,1,1
				c0.6,0,1-0.4,1-1V4h10v1c0,0.6,0.4,1,1,1c0.6,0,1-0.4,1-1V4h1c0.6,0,1,0.4,1,1v4.4c0.8,0.2,1.4,0.6,2,1V4C80,2.9,79.1,2,78,2z
				 M64,12h-2v2h2V12z"/>
		</g>
	</g>
	<g>
		<g>
			<path fill-rule="evenodd" clip-rule="evenodd" fill="#8EC928" d="M75,10c-3.9,0-7,3.1-7,7c0,3.9,3.1,7,7,7c3.9,0,7-3.1,7-7
				C82,13.1,78.9,10,75,10z M78,18h-2v2c0,0.6-0.4,1-1,1c-0.6,0-1-0.4-1-1v-2h-2c-0.6,0-1-0.4-1-1c0-0.6,0.4-1,1-1h2v-2
				c0-0.6,0.4-1,1-1c0.6,0,1,0.4,1,1v2h2c0.6,0,1,0.4,1,1C79,17.6,78.6,18,78,18z"/>
		</g>
	</g>
	<g>
		<g>
			<path fill="#FFFFFF" d="M103,9c0.3,0,0.7,0,1,0c0.3,0,0.7,0,1,0V8h-2V9z M97,8h-2v2h2V8z M99,10h0.2c0.5-0.3,1.1-0.5,1.8-0.7V8
				h-2V10z M97,12.2V12l-2,0v2h1.3C96.5,13.3,96.7,12.7,97,12.2z M91,18h2v-2h-2V18z M95,16v2h1c0-0.3,0-0.7,0-1c0-0.3,0-0.7,0-1H95
				z M93,12h-2v2h2V12z M107,2h-2V1c0-0.6-0.4-1-1-1c-0.6,0-1,0.4-1,1v1H93V1c0-0.6-0.4-1-1-1c-0.6,0-1,0.4-1,1v1h-2
				c-1.1,0-2,0.9-2,2v16c0,1.1,0.9,2,2,2h8.1c-0.4-0.6-0.6-1.3-0.8-2H90c-0.6,0-1-0.4-1-1l0-14c0-0.6,0.4-1,1-1h1v1c0,0.6,0.4,1,1,1
				c0.6,0,1-0.4,1-1V4h10v1c0,0.6,0.4,1,1,1c0.6,0,1-0.4,1-1V4h1c0.6,0,1,0.4,1,1v4.4c0.8,0.2,1.4,0.6,2,1V4C109,2.9,108.1,2,107,2z
				"/>
		</g>
	</g>
	<g>
		<g>
			<path fill-rule="evenodd" clip-rule="evenodd" fill="#FFFFFF" d="M104,10c-3.9,0-7,3.1-7,7c0,3.9,3.1,7,7,7c3.9,0,7-3.1,7-7
				C111,13.1,107.9,10,104,10z M107,18h-2v2c0,0.6-0.4,1-1,1c-0.6,0-1-0.4-1-1v-2h-2c-0.6,0-1-0.4-1-1c0-0.6,0.4-1,1-1h2v-2
				c0-0.6,0.4-1,1-1c0.6,0,1,0.4,1,1v2h2c0.6,0,1,0.4,1,1C108,17.6,107.6,18,107,18z"/>
		</g>
	</g>
	<g>
		<g>
			<path fill="#737373" d="M126,12.2V12l-2,0v2h1.3C125.5,13.3,125.7,12.7,126,12.2z M126,8h-2v2h2V8z M120,18h2v-2h-2V18z M128,10
				h0.2c0.5-0.3,1.1-0.5,1.8-0.7V8h-2V10z M132,9c0.3,0,0.7,0,1,0c0.3,0,0.7,0,1,0V8h-2V9z M124,16v2h1c0-0.3,0-0.7,0-1
				c0-0.3,0-0.7,0-1H124z M122,12h-2v2h2V12z M136,2h-2V1c0-0.6-0.4-1-1-1c-0.6,0-1,0.4-1,1v1h-10V1c0-0.6-0.4-1-1-1
				c-0.6,0-1,0.4-1,1v1h-2c-1.1,0-2,0.9-2,2v16c0,1.1,0.9,2,2,2h8.1c-0.4-0.6-0.6-1.3-0.8-2H119c-0.6,0-1-0.4-1-1l0-14
				c0-0.6,0.4-1,1-1h1v1c0,0.6,0.4,1,1,1c0.6,0,1-0.4,1-1V4h10v1c0,0.6,0.4,1,1,1c0.6,0,1-0.4,1-1V4h1c0.6,0,1,0.4,1,1v4.4
				c0.8,0.2,1.4,0.6,2,1V4C138,2.9,137.1,2,136,2z"/>
		</g>
	</g>
	<g>
		<g>
			<path fill-rule="evenodd" clip-rule="evenodd" fill="#737373" d="M133,10c-3.9,0-7,3.1-7,7c0,3.9,3.1,7,7,7c3.9,0,7-3.1,7-7
				C140,13.1,136.9,10,133,10z M136,18h-2v2c0,0.6-0.4,1-1,1c-0.6,0-1-0.4-1-1v-2h-2c-0.6,0-1-0.4-1-1c0-0.6,0.4-1,1-1h2v-2
				c0-0.6,0.4-1,1-1c0.6,0,1,0.4,1,1v2h2c0.6,0,1,0.4,1,1C137,17.6,136.6,18,136,18z"/>
		</g>
	</g>
</g>
<g id="Organisation">
</g>
<g id="Manager">
</g>
<g id="Guides" display="none" opacity="0.2">
	<rect display="inline" fill-rule="evenodd" clip-rule="evenodd" fill="#0089D9" width="24" height="24"/>
	<rect x="29" display="inline" fill-rule="evenodd" clip-rule="evenodd" fill="#0089D9" width="24" height="24"/>
	<rect x="58" display="inline" fill-rule="evenodd" clip-rule="evenodd" fill="#0089D9" width="24" height="24"/>
	<rect x="87" display="inline" fill-rule="evenodd" clip-rule="evenodd" fill="#0089D9" width="24" height="24"/>
	<rect x="116" display="inline" fill-rule="evenodd" clip-rule="evenodd" fill="#0089D9" width="24" height="24"/>
</g>
</svg>
