<?xml version="1.0" encoding="utf-8"?>
<!-- Generator: Adobe Illustrator 19.1.1, SVG Export Plug-In . SVG Version: 6.00 Build 0)  -->
<svg version="1.1" xmlns="http://www.w3.org/2000/svg" xmlns:xlink="http://www.w3.org/1999/xlink" x="0px" y="0px" width="140px"
	 height="24px" viewBox="0 0 140 24" enable-background="new 0 0 140 24" xml:space="preserve">
<g id="Combo_Grid">
</g>
<g id="Compare">
</g>
<g id="Paid">
</g>
<g id="Forbidden">
</g>
<g id="Minus_Blue">
</g>
<g id="Cancel_Grey">
</g>
<g id="Move_Down">
</g>
<g id="Move_Up">
</g>
<g id="Move_Right">
</g>
<g id="Move_Left">
</g>
<g id="Last">
</g>
<g id="First">
</g>
<g id="Play">
</g>
<g id="Pause">
</g>
<g id="Rewind">
</g>
<g id="Forward">
</g>
<g id="More">
</g>
<g id="Collapse">
</g>
<g id="Expand">
</g>
<g id="Arrow_Right">
</g>
<g id="Arrow_Left">
</g>
<g id="Arrow_Down">
</g>
<g id="Arrow_Up">
	<g>
		<g>
			<path fill-rule="evenodd" clip-rule="evenodd" fill="#0089D9" d="M12,0C5.4,0,0,5.4,0,12c0,6.6,5.4,12,12,12c6.6,0,12-5.4,12-12
				C24,5.4,18.6,0,12,0z M12,22C6.5,22,2,17.5,2,12C2,6.5,6.5,2,12,2c5.5,0,10,4.5,10,10C22,17.5,17.5,22,12,22z M12.9,8.5
				c0-0.1-0.1-0.2-0.2-0.2C12.5,8.1,12.3,8,12,8c-0.3,0-0.5,0.1-0.7,0.3c-0.1,0.1-0.1,0.2-0.2,0.2l-4,4c-0.4,0.4-0.4,1,0,1.4
				c0.4,0.4,1,0.4,1.4,0l3.5-3.5l3.6,3.6c0.4,0.4,1,0.4,1.4,0c0.4-0.4,0.4-1,0-1.4L12.9,8.5z"/>
		</g>
	</g>
	<g>
		<g>
			<path fill-rule="evenodd" clip-rule="evenodd" fill="#D7D7D7" d="M41.9,8.5c0-0.1-0.1-0.2-0.2-0.2C41.5,8.1,41.3,8,41,8
				c-0.3,0-0.5,0.1-0.7,0.3c-0.1,0.1-0.1,0.2-0.2,0.2l-4,4c-0.4,0.4-0.4,1,0,1.4c0.4,0.4,1,0.4,1.4,0l3.5-3.5l3.6,3.6
				c0.4,0.4,1,0.4,1.4,0c0.4-0.4,0.4-1,0-1.4L41.9,8.5z M41,0c-6.6,0-12,5.4-12,12c0,6.6,5.4,12,12,12c6.6,0,12-5.4,12-12
				C53,5.4,47.6,0,41,0z M41,22c-5.5,0-10-4.5-10-10c0-5.5,4.5-10,10-10c5.5,0,10,4.5,10,10C51,17.5,46.5,22,41,22z"/>
		</g>
	</g>
	<g>
		<g>
			<path fill-rule="evenodd" clip-rule="evenodd" fill="#39A6E6" d="M70.9,8.5c0-0.1-0.1-0.2-0.2-0.2C70.5,8.1,70.3,8,70,8
				c-0.3,0-0.5,0.1-0.7,0.3c-0.1,0.1-0.1,0.2-0.2,0.2l-4,4c-0.4,0.4-0.4,1,0,1.4c0.4,0.4,1,0.4,1.4,0l3.5-3.5l3.6,3.6
				c0.4,0.4,1,0.4,1.4,0c0.4-0.4,0.4-1,0-1.4L70.9,8.5z M70,0c-6.6,0-12,5.4-12,12c0,6.6,5.4,12,12,12c6.6,0,12-5.4,12-12
				C82,5.4,76.6,0,70,0z M70,22c-5.5,0-10-4.5-10-10c0-5.5,4.5-10,10-10c5.5,0,10,4.5,10,10C80,17.5,75.5,22,70,22z"/>
		</g>
	</g>
	<g>
		<g>
			<path fill-rule="evenodd" clip-rule="evenodd" fill="#FFFFFF" d="M99,0c-6.6,0-12,5.4-12,12c0,6.6,5.4,12,12,12
				c6.6,0,12-5.4,12-12C111,5.4,105.6,0,99,0z M99,22c-5.5,0-10-4.5-10-10c0-5.5,4.5-10,10-10c5.5,0,10,4.5,10,10
				C109,17.5,104.5,22,99,22z M99.9,8.5c0-0.1-0.1-0.2-0.2-0.2C99.5,8.1,99.3,8,99,8c-0.3,0-0.5,0.1-0.7,0.3
				c-0.1,0.1-0.1,0.2-0.2,0.2l-4,4c-0.4,0.4-0.4,1,0,1.4c0.4,0.4,1,0.4,1.4,0l3.5-3.5l3.6,3.6c0.4,0.4,1,0.4,1.4,0
				c0.4-0.4,0.4-1,0-1.4L99.9,8.5z"/>
		</g>
	</g>
	<g>
		<g>
			<path fill-rule="evenodd" clip-rule="evenodd" fill="#737373" d="M128,0c-6.6,0-12,5.4-12,12c0,6.6,5.4,12,12,12
				c6.6,0,12-5.4,12-12C140,5.4,134.6,0,128,0z M128,22c-5.5,0-10-4.5-10-10c0-5.5,4.5-10,10-10c5.5,0,10,4.5,10,10
				C138,17.5,133.5,22,128,22z M128.9,8.5c0-0.1-0.1-0.2-0.2-0.2C128.5,8.1,128.3,8,128,8c-0.3,0-0.5,0.1-0.7,0.3
				c-0.1,0.1-0.1,0.2-0.2,0.2l-4,4c-0.4,0.4-0.4,1,0,1.4c0.4,0.4,1,0.4,1.4,0l3.5-3.5l3.6,3.6c0.4,0.4,1,0.4,1.4,0
				c0.4-0.4,0.4-1,0-1.4L128.9,8.5z"/>
		</g>
	</g>
</g>
<g id="Cancel">
</g>
<g id="OK">
</g>
<g id="Remove">
</g>
<g id="Add_1_">
</g>
<g id="Add">
</g>
<g id="Burger">
</g>
<g id="Guides" display="none" opacity="0.2">
	<rect display="inline" fill-rule="evenodd" clip-rule="evenodd" fill="#0089D9" width="24" height="24"/>
	<rect x="29" display="inline" fill-rule="evenodd" clip-rule="evenodd" fill="#0089D9" width="24" height="24"/>
	<rect x="58" display="inline" fill-rule="evenodd" clip-rule="evenodd" fill="#0089D9" width="24" height="24"/>
	<rect x="87" display="inline" fill-rule="evenodd" clip-rule="evenodd" fill="#0089D9" width="24" height="24"/>
	<rect x="116" display="inline" fill-rule="evenodd" clip-rule="evenodd" fill="#0089D9" width="24" height="24"/>
</g>
</svg>
