<?xml version="1.0" encoding="utf-8"?>
<!-- Generator: Adobe Illustrator 19.1.1, SVG Export Plug-In . SVG Version: 6.00 Build 0)  -->
<svg version="1.1" xmlns="http://www.w3.org/2000/svg" xmlns:xlink="http://www.w3.org/1999/xlink" x="0px" y="0px" width="140px"
	 height="24px" viewBox="0 0 140 24" style="enable-background:new 0 0 140 24;" xml:space="preserve">
<style type="text/css">
	.st0{fill-rule:evenodd;clip-rule:evenodd;fill:#0089D9;}
	.st1{fill-rule:evenodd;clip-rule:evenodd;fill:#D7D7D7;}
	.st2{fill-rule:evenodd;clip-rule:evenodd;fill:#39A6E6;}
	.st3{fill-rule:evenodd;clip-rule:evenodd;fill:#FFFFFF;}
	.st4{fill-rule:evenodd;clip-rule:evenodd;fill:#737373;}
	.st5{fill:#0089D9;}
	.st6{fill:#D7D7D7;}
	.st7{fill:#39A6E6;}
	.st8{fill:#FFFFFF;}
	.st9{fill:#737373;}
	.st10{fill-rule:evenodd;clip-rule:evenodd;fill:#68A611;}
	.st11{fill-rule:evenodd;clip-rule:evenodd;fill:#8EC928;}
	.st12{display:none;}
	.st13{display:inline;}
	.st14{display:inline;fill-rule:evenodd;clip-rule:evenodd;fill:#39A6E6;}
	.st15{display:inline;fill-rule:evenodd;clip-rule:evenodd;fill:#FFFFFF;}
	.st16{display:inline;fill-rule:evenodd;clip-rule:evenodd;fill:#737373;}
	.st17{display:inline;fill-rule:evenodd;clip-rule:evenodd;fill:#0089D9;}
	.st18{fill-rule:evenodd;clip-rule:evenodd;fill:#D6565A;}
	.st19{fill-rule:evenodd;clip-rule:evenodd;fill:#E57377;}
	.st20{fill:#D6565A;}
	.st21{fill:#E57377;}
	.st22{fill:#F28D00;}
	.st23{fill:#FFA526;}
	.st24{fill-rule:evenodd;clip-rule:evenodd;fill:#FF8B00;}
	.st25{fill-rule:evenodd;clip-rule:evenodd;fill:#FFA526;}
	.st26{display:none;opacity:0.2;}
</style>
<g id="Calculator">
</g>
<g id="Mileage">
</g>
<g id="Expense6">
</g>
<g id="Expense5">
</g>
<g id="Travel2">
</g>
<g id="Briefcase">
</g>
<g id="Travel1">
</g>
<g id="Working_Day">
</g>
<g id="Absence">
</g>
<g id="Paper_Plane">
</g>
<g id="Documents_Area">
</g>
<g id="Help_3_">
</g>
<g id="Add_attachement">
</g>
<g id="Date_Picker">
</g>
<g id="Encrypted_PDF">
</g>
<g id="Report_Blue">
</g>
<g id="XML_Document">
</g>
<g id="Image_Document">
</g>
<g id="Changelog">
</g>
<g id="Export">
</g>
<g id="PDF">
</g>
<g id="Office_Excel">
</g>
<g id="Office_PowerPoint">
</g>
<g id="Office_Word">
</g>
<g id="Filter">
</g>
<g id="Dislike">
</g>
<g id="Like">
</g>
<g id="Favorite">
</g>
<g id="Preview">
</g>
<g id="Download">
	<g>
		<g>
			<path class="st0" d="M24,17c0-0.6-0.4-1-1-1c-0.6,0-1,0.4-1,1v4H2v-4c0-0.6-0.4-1-1-1s-1,0.4-1,1v5c0,0,0,0,0,0l0,0
				c0,0.6,0.4,1,1,1h22c0.6,0,1-0.4,1-1l0,0l0,0V17z M11.2,17.9c0.3,0.3,0.6,0.4,0.9,0.3c0.3,0,0.6-0.1,0.9-0.3l4.4-4.4
				c0.4-0.4,0.5-0.9,0.1-1.3c-0.4-0.4-0.9-0.3-1.3,0.1L13,15.3V2c0-0.6-0.4-1-1-1c-0.6,0-1,0.4-1,1v13.3l-3-3
				c-0.4-0.4-0.9-0.5-1.3-0.1c-0.4,0.4-0.3,0.9,0.1,1.3L11.2,17.9z"/>
		</g>
	</g>
	<g>
		<g>
			<path class="st1" d="M53,17c0-0.6-0.4-1-1-1c-0.6,0-1,0.4-1,1v4H31v-4c0-0.6-0.4-1-1-1s-1,0.4-1,1v5c0,0,0,0,0,0l0,0
				c0,0.6,0.4,1,1,1h22c0.6,0,1-0.4,1-1l0,0l0,0V17z M40.2,17.9c0.3,0.3,0.6,0.4,0.9,0.3c0.3,0,0.6-0.1,0.9-0.3l4.4-4.4
				c0.4-0.4,0.5-0.9,0.1-1.3c-0.4-0.4-0.9-0.3-1.3,0.1L42,15.3V2c0-0.6-0.4-1-1-1c-0.6,0-1,0.4-1,1v13.3l-3-3
				c-0.4-0.4-0.9-0.5-1.3-0.1c-0.4,0.4-0.3,0.9,0.1,1.3L40.2,17.9z"/>
		</g>
	</g>
	<g>
		<g>
			<path class="st2" d="M82,17c0-0.6-0.4-1-1-1c-0.6,0-1,0.4-1,1v4H60v-4c0-0.6-0.4-1-1-1s-1,0.4-1,1v5c0,0,0,0,0,0l0,0
				c0,0.6,0.4,1,1,1h22c0.6,0,1-0.4,1-1l0,0l0,0V17z M69.2,17.9c0.3,0.3,0.6,0.4,0.9,0.3c0.3,0,0.6-0.1,0.9-0.3l4.4-4.4
				c0.4-0.4,0.5-0.9,0.1-1.3c-0.4-0.4-0.9-0.3-1.3,0.1L71,15.3V2c0-0.6-0.4-1-1-1c-0.6,0-1,0.4-1,1v13.3l-3-3
				c-0.4-0.4-0.9-0.5-1.3-0.1c-0.4,0.4-0.3,0.9,0.1,1.3L69.2,17.9z"/>
		</g>
	</g>
	<g>
		<g>
			<path class="st3" d="M111,17c0-0.6-0.4-1-1-1c-0.6,0-1,0.4-1,1v4H89v-4c0-0.6-0.4-1-1-1s-1,0.4-1,1v5c0,0,0,0,0,0l0,0
				c0,0.6,0.4,1,1,1h22c0.6,0,1-0.4,1-1l0,0l0,0V17z M98.2,17.9c0.3,0.3,0.6,0.4,0.9,0.3c0.3,0,0.6-0.1,0.9-0.3l4.4-4.4
				c0.4-0.4,0.5-0.9,0.1-1.3c-0.4-0.4-0.9-0.3-1.3,0.1l-3.1,3.1V2c0-0.6-0.4-1-1-1c-0.6,0-1,0.4-1,1v13.3l-3-3
				c-0.4-0.4-0.9-0.5-1.3-0.1c-0.4,0.4-0.3,0.9,0.1,1.3L98.2,17.9z"/>
		</g>
	</g>
	<g>
		<g>
			<path class="st4" d="M140,17c0-0.6-0.4-1-1-1c-0.6,0-1,0.4-1,1v4h-20v-4c0-0.6-0.4-1-1-1s-1,0.4-1,1v5c0,0,0,0,0,0l0,0
				c0,0.6,0.4,1,1,1h22c0.6,0,1-0.4,1-1l0,0l0,0V17z M127.2,17.9c0.3,0.3,0.6,0.4,0.9,0.3c0.3,0,0.6-0.1,0.9-0.3l4.4-4.4
				c0.4-0.4,0.5-0.9,0.1-1.3c-0.4-0.4-0.9-0.3-1.3,0.1l-3.1,3.1V2c0-0.6-0.4-1-1-1c-0.6,0-1,0.4-1,1v13.3l-3-3
				c-0.4-0.4-0.9-0.5-1.3-0.1c-0.4,0.4-0.3,0.9,0.1,1.3L127.2,17.9z"/>
		</g>
	</g>
</g>
<g id="Upload">
</g>
<g id="Open">
</g>
<g id="Web">
</g>
<g id="Unlocked">
</g>
<g id="Locked">
</g>
<g id="Phone">
</g>
<g id="Email">
</g>
<g id="Graphs">
</g>
<g id="Note">
</g>
<g id="Search">
</g>
<g id="Alarm">
</g>
<g id="Time">
</g>
<g id="Users">
</g>
<g id="User">
</g>
<g id="Refresh">
</g>
<g id="Home">
</g>
<g id="Report">
</g>
<g id="Paste">
</g>
<g id="Copy">
</g>
<g id="Cut">
</g>
<g id="Flag">
</g>
<g id="Redo">
</g>
<g id="Undo">
</g>
<g id="Zoom_Out">
</g>
<g id="Zoom_In">
</g>
<g id="Add_comment">
</g>
<g id="Unread_comment">
</g>
<g id="Comment">
</g>
<g id="New">
</g>
<g id="Attach">
</g>
<g id="Delete">
</g>
<g id="Save">
</g>
<g id="Edit">
</g>
<g id="Print">
</g>
<g id="Guides" class="st26">
	<rect class="st17" width="24" height="24"/>
	<rect x="29" class="st17" width="24" height="24"/>
	<rect x="58" class="st17" width="24" height="24"/>
	<rect x="87" class="st17" width="24" height="24"/>
	<rect x="116" class="st17" width="24" height="24"/>
</g>
</svg>
