<svg width="140" height="24" xmlns="http://www.w3.org/2000/svg">

 <g>
  <title>background</title>
  <rect fill="none" id="canvas_background" height="402" width="582" y="-1" x="-1"/>
 </g>
 <g>
  <title>Layer 1</title>
  <g id="Layer_2"/>
  <g id="Changelog"/>
  <g id="Export"/>
  <g id="PDF"/>
  <g id="Office_Excel"/>
  <g id="Office_PowerPoint"/>
  <g id="Office_Word"/>
  <g id="Filter"/>
  <g id="Dislike"/>
  <g id="Like"/>
  <g id="Favourite"/>
  <g id="Preview"/>
  <g id="Download"/>
  <g id="Upload"/>
  <g id="Open"/>
  <g id="Web"/>
  <g id="Unlocked"/>
  <g id="Locked"/>
  <g id="Phone"/>
  <g id="Email"/>
  <g id="Graphs"/>
  <g id="Note"/>
  <g id="Search"/>
  <g id="Alarm"/>
  <g id="Time"/>
  <g id="Users"/>
  <g id="User"/>
  <g id="Refresh"/>
  <g id="Home"/>
  <g id="Report"/>
  <g id="Paste"/>
  <g id="Copy"/>
  <g id="Cut"/>
  <g id="Flag"/>
  <g id="Redo"/>
  <g id="Undo"/>
  <g id="Zoom_Out"/>
  <g id="Zoom_In"/>
  <g id="Add_comment"/>
  <g id="Unread_comment"/>
  <g id="Comment"/>
  <g id="New"/>
  <g id="Attach"/>
  <g id="Delete"/>
  <g id="Save"/>
  <g id="Edit">
   <g id="svg_1">
    <g id="svg_2">
     <path id="svg_3" d="m62.5,16c0,0 0.4,0.4 0.7,0.7c0.3,0.3 0.3,1.7 0.3,1.7s1.4,0 1.8,0.4l-3.2,1.1l1.1,-3.2l-0.7,-0.7l-2.5,6l6,-2.5l12.7,-12.6l-3.5,-3.5l-12.7,12.6zm17.5,-12.6c-1,-1.1 -0.3,-0.3 -1.3,-1.4c-1.1,-1.1 -2.8,0.7 -2.8,0.7l3.5,3.5c0,0 1.7,-1.8 0.6,-2.8z" fill="#39A6E6" clip-rule="evenodd" fill-rule="evenodd"/>
    </g>
   </g>
   <g id="svg_4">
    <g id="svg_5">
     <path id="svg_6" d="m33.5,16c0,0 0.4,0.4 0.7,0.7c0.3,0.3 0.3,1.7 0.3,1.7s1.4,0 1.8,0.4l-3.2,1.1l1.1,-3.2l-0.7,-0.7l-2.5,6l6,-2.5l12.7,-12.6l-3.5,-3.5l-12.7,12.6zm17.5,-12.6c-1,-1.1 -0.3,-0.3 -1.3,-1.4c-1.1,-1.1 -2.8,0.7 -2.8,0.7l3.5,3.5c0,0 1.7,-1.8 0.6,-2.8z" fill="#C8C8C8" clip-rule="evenodd" fill-rule="evenodd"/>
    </g>
   </g>
   <g id="svg_7">
    <g id="svg_8">
     <path id="svg_9" d="m4.5,16c0,0 0.4,0.4 0.7,0.7c0.3,0.3 0.3,1.7 0.3,1.7s1.4,0 1.8,0.4l-3.2,1.1l1.1,-3.2l-0.7,-0.7l-2.5,6l6,-2.5l12.7,-12.6l-3.5,-3.5l-12.7,12.6zm17.5,-12.6c-1,-1.1 -0.3,-0.3 -1.3,-1.4c-1.1,-1.1 -2.8,0.7 -2.8,0.7l3.5,3.5c0,0 1.7,-1.8 0.6,-2.8z" fill="#0089D9" clip-rule="evenodd" fill-rule="evenodd"/>
    </g>
   </g>
   <g id="svg_27">
    <g id="svg_26">
     <path id="svg_25" d="m91.500003,16c0,0 0.4,0.4 0.7,0.7c0.3,0.3 0.3,1.7 0.3,1.7s1.4,0 1.8,0.4l-3.2,1.1l1.1,-3.2l-0.7,-0.7l-2.5,6l6,-2.5l12.7,-12.6l-3.5,-3.5l-12.7,12.6zm17.5,-12.6c-1,-1.1 -0.3,-0.3 -1.3,-1.4c-1.1,-1.1 -2.8,0.7 -2.8,0.7l3.5,3.5c0,0 1.7,-1.8 0.6,-2.8z" fill="#FFFFFF" clip-rule="evenodd" fill-rule="evenodd"/>
    </g>
   </g>
   <g id="svg_30">
    <g id="svg_29">
     <path id="svg_28" d="m120.5,16c0,0 0.4,0.4 0.7,0.7c0.3,0.3 0.3,1.7 0.3,1.7s1.4,0 1.8,0.4l-3.2,1.1l1.1,-3.2l-0.7,-0.7l-2.5,6l6,-2.5l12.7,-12.6l-3.5,-3.5l-12.7,12.6zm17.5,-12.6c-1,-1.1 -0.3,-0.3 -1.3,-1.4c-1.1,-1.1 -2.8,0.7 -2.8,0.7l3.5,3.5c0,0 1.7,-1.8 0.6,-2.8z" fill="#CCEBFF" clip-rule="evenodd" fill-rule="evenodd"/>
    </g>
   </g>
  </g>
  <g id="Print"/>
  <g opacity="0.2" display="none" id="Guides">
   <rect id="svg_16" height="24" width="24" fill="#0089D9" clip-rule="evenodd" fill-rule="evenodd"/>
   <rect id="svg_17" height="24" width="24" fill="#0089D9" clip-rule="evenodd" fill-rule="evenodd" x="29"/>
   <rect id="svg_18" height="24" width="24" fill="#0089D9" clip-rule="evenodd" fill-rule="evenodd" x="58"/>
  </g>
 </g>
</svg>