<?xml version="1.0" encoding="utf-8"?>
<!-- Generator: Adobe Illustrator 19.1.1, SVG Export Plug-In . SVG Version: 6.00 Build 0)  -->
<svg version="1.1" xmlns="http://www.w3.org/2000/svg" xmlns:xlink="http://www.w3.org/1999/xlink" x="0px" y="0px" width="140px"
	 height="24px" viewBox="0 0 140 24" enable-background="new 0 0 140 24" xml:space="preserve">
<g id="Burger_Menu">
</g>
<g id="Reminder">
</g>
<g id="Phone">
</g>
<g id="Tool">
</g>
<g id="Document_Production">
</g>
<g id="Location">
	<g>
		<g>
			<path fill-rule="evenodd" clip-rule="evenodd" fill="#FFFFFF" d="M109.8,7.3c-0.8-0.8-5.3-5.3-6.1-6.1c-0.8-0.8-2.3-0.8-3,0
				c2.7,7.5-8,7.3-8,7.2c-0.8,0.8-0.8,2.3,0,3c0.3,0.3,1.3,1.3,2.4,2.4L88,23l9.2-7.1c1.1,1.1,2.1,2.1,2.4,2.4c0.7,0.7,2.3,0.7,3,0
				c0,0-0.3-10.8,7.2-8C110.6,9.5,110.6,8.1,109.8,7.3z M102.3,10.7c-0.8,1.3-1.4,3-1.7,5.1c0,0.2,0,0.4-0.1,0.5l-5.8-5.8
				c0.2,0,0.3,0,0.5-0.1c2-0.3,3.7-0.8,5-1.7c1.9-1.2,2.9-2.9,3-5l4,4C105.2,7.8,103.5,8.8,102.3,10.7z"/>
		</g>
	</g>
	<path opacity="0.65" fill-rule="evenodd" clip-rule="evenodd" fill="#FFFFFF" d="M138,9c0.7-0.7,0.9-0.8,0.2-1.5
		c-0.7-0.7-5-5-5.7-5.7c-0.7-0.7-0.8-0.5-1.6,0.2c2.5,7-8.7,6.6-8.6,6.5c-0.7,0.7-0.7,2.1,0,2.8c0.7,0.7,5.7,5.7,6.3,6.3
		c0.7,0.7,2.1,0.7,2.8,0C131.5,17.7,131,6.4,138,9z"/>
	<g>
		<g>
			<path fill-rule="evenodd" clip-rule="evenodd" fill="#646464" d="M138.9,7.3c-0.8-0.8-5.3-5.3-6.1-6.1c-0.8-0.8-2.3-0.8-3,0
				c2.7,7.5-8,7.3-8,7.2c-0.8,0.8-0.8,2.3,0,3c0.3,0.3,1.3,1.3,2.4,2.4L117,23l9.2-7.1c1.1,1.1,2.1,2.1,2.4,2.4c0.7,0.7,2.3,0.7,3,0
				c0,0-0.3-10.8,7.2-8C139.7,9.5,139.6,8.1,138.9,7.3z M131.3,10.7c-0.8,1.3-1.4,3-1.7,5.1c0,0.2,0,0.4-0.1,0.5l-5.8-5.8
				c0.2,0,0.3,0,0.5-0.1c2-0.3,3.7-0.8,5-1.7c1.9-1.2,2.9-2.9,3-5l4,4C134.2,7.8,132.5,8.8,131.3,10.7z"/>
		</g>
	</g>
	<g>
		<g>
			<path fill-rule="evenodd" clip-rule="evenodd" fill="#0089D9" d="M22.8,7.3c-0.8-0.8-5.3-5.3-6.1-6.1c-0.8-0.8-2.3-0.8-3,0
				c2.7,7.5-8,7.3-8,7.2c-0.8,0.8-0.8,2.3,0,3C6,11.8,7,12.7,8.1,13.9L1,23l9.2-7.1c1.1,1.1,2.1,2.1,2.4,2.4c0.7,0.7,2.3,0.7,3,0
				c0,0-0.3-10.8,7.2-8C23.6,9.5,23.6,8.1,22.8,7.3z M15.3,10.7c-0.8,1.3-1.4,3-1.7,5.1c0,0.2,0,0.4-0.1,0.5l-5.8-5.8
				c0.2,0,0.3,0,0.5-0.1c2-0.3,3.7-0.8,5-1.7c1.9-1.2,2.9-2.9,3-5l4,4C18.2,7.8,16.5,8.8,15.3,10.7z"/>
		</g>
	</g>
	<g>
		<g>
			<path fill-rule="evenodd" clip-rule="evenodd" fill="#C8C8C8" d="M51.8,7.3c-0.8-0.8-5.3-5.3-6.1-6.1c-0.8-0.8-2.3-0.8-3,0
				c2.7,7.5-8,7.3-8,7.2c-0.8,0.8-0.8,2.3,0,3c0.3,0.3,1.3,1.3,2.4,2.4L30,23l9.2-7.1c1.1,1.1,2.1,2.1,2.4,2.4c0.7,0.7,2.3,0.7,3,0
				c0,0-0.3-10.8,7.2-8C52.6,9.5,52.6,8.1,51.8,7.3z M44.3,10.7c-0.8,1.3-1.4,3-1.7,5.1c0,0.2,0,0.4-0.1,0.5l-5.8-5.8
				c0.2,0,0.3,0,0.5-0.1c2-0.3,3.7-0.8,5-1.7c1.9-1.2,2.9-2.9,3-5l4,4C47.2,7.8,45.5,8.8,44.3,10.7z"/>
		</g>
	</g>
	<g>
		<g>
			<path fill-rule="evenodd" clip-rule="evenodd" fill="#39A6E6" d="M80.8,7.3c-0.8-0.8-5.3-5.3-6.1-6.1c-0.8-0.8-2.3-0.8-3,0
				c2.7,7.5-8,7.3-8,7.2c-0.8,0.8-0.8,2.3,0,3c0.3,0.3,1.3,1.3,2.4,2.4L59,23l9.2-7.1c1.1,1.1,2.1,2.1,2.4,2.4c0.7,0.7,2.3,0.7,3,0
				c0,0-0.3-10.8,7.2-8C81.6,9.5,81.6,8.1,80.8,7.3z M73.3,10.7c-0.8,1.3-1.4,3-1.7,5.1c0,0.2,0,0.4-0.1,0.5l-5.8-5.8
				c0.2,0,0.3,0,0.5-0.1c2-0.3,3.7-0.8,5-1.7c1.9-1.2,2.9-2.9,3-5l4,4C76.2,7.8,74.5,8.8,73.3,10.7z"/>
		</g>
	</g>
</g>
<g id="Calendar">
</g>
<g id="Library">
</g>
<g id="Home">
</g>
<g id="Message">
</g>
<g id="Shopping_Cart">
</g>
<g id="Logout">
</g>
<g id="Search">
</g>
<g id="Information">
</g>
<g id="Help">
</g>
<g id="Settings">
</g>
<g id="User_Setting">
</g>
<g id="User">
</g>
<g id="Guides" display="none" opacity="0.2">
	<rect display="inline" fill-rule="evenodd" clip-rule="evenodd" fill="#0089D9" width="24" height="24"/>
	<rect x="29" display="inline" fill-rule="evenodd" clip-rule="evenodd" fill="#0089D9" width="24" height="24"/>
	<rect x="58" display="inline" fill-rule="evenodd" clip-rule="evenodd" fill="#0089D9" width="24" height="24"/>
	<rect x="87" display="inline" fill-rule="evenodd" clip-rule="evenodd" fill="#0089D9" width="24" height="24"/>
	<rect x="116" display="inline" fill-rule="evenodd" clip-rule="evenodd" fill="#0089D9" width="24" height="24"/>
</g>
</svg>
