<?xml version="1.0" encoding="utf-8"?>
<!-- Generator: Adobe Illustrator 19.1.1, SVG Export Plug-In . SVG Version: 6.00 Build 0)  -->
<svg version="1.1" xmlns="http://www.w3.org/2000/svg" xmlns:xlink="http://www.w3.org/1999/xlink" x="0px" y="0px" width="140px"
	 height="24px" viewBox="0 0 140 24" enable-background="new 0 0 140 24" xml:space="preserve">
<g id="Layer_62" display="none">
</g>
<g id="Layer_63" display="none">
</g>
<g id="Layer_64" display="none">
</g>
<g id="Layer_65" display="none">
</g>
<g id="Layer_66" display="none">
</g>
<g id="Layer_67" display="none">
</g>
<g id="Layer_68" display="none">
</g>
<g id="Layer_69" display="none">
</g>
<g id="Layer_70" display="none">
</g>
<g id="Layer_71" display="none">
</g>
<g id="Layer_72" display="none">
</g>
<g id="Layer_73" display="none">
</g>
<g id="Layer_74" display="none">
</g>
<g id="Layer_75" display="none">
</g>
<g id="Layer_76" display="none">
</g>
<g id="Layer_77" display="none">
</g>
<g id="Layer_78" display="none">
</g>
<g id="Layer_79" display="none">
</g>
<g id="Layer_80" display="none">
</g>
<g id="Layer_81" display="none">
</g>
<g id="Layer_82" display="none">
</g>
<g id="Layer_83" display="none">
</g>
<g id="Layer_84" display="none">
</g>
<g id="Layer_85" display="none">
</g>
<g id="Layer_86" display="none">
</g>
<g id="Layer_87" display="none">
</g>
<g id="Layer_88" display="none">
</g>
<g id="Layer_89" display="none">
</g>
<g id="Layer_90" display="none">
</g>
<g id="Layer_91" display="none">
</g>
<g id="Layer_92" display="none">
</g>
<g id="Layer_93" display="none">
</g>
<g id="Layer_94" display="none">
</g>
<g id="Layer_95" display="none">
</g>
<g id="Layer_96" display="none">
</g>
<g id="Layer_97" display="none">
</g>
<g id="Layer_98" display="none">
</g>
<g id="Layer_99" display="none">
</g>
<g id="Layer_100" display="none">
</g>
<g id="Layer_101" display="none">
</g>
<g id="Layer_102" display="none">
</g>
<g id="Special_Day" display="none">
</g>
<g id="Vacation_1_" display="none">
</g>
<g id="Parental_Leave_x2F_Toys" display="none">
</g>
<g id="Absence_1_" display="none">
</g>
<g id="Attendance" display="none">
</g>
<g id="Overtime" display="none">
</g>
<g id="Working_Day" display="none">
</g>
<g id="Adjust_Hours" display="none">
</g>
<g id="Roster" display="none">
</g>
<g id="Summary" display="none">
</g>
<g id="Lodging" display="none">
</g>
<g id="Daily_Allowance" display="none">
</g>
<g id="Mileage" display="none">
</g>
<g id="Birth" display="none">
</g>
<g id="Absence" display="none">
</g>
<g id="Holiday" display="none">
</g>
<g id="Bonus_x2F_Ghift" display="none">
</g>
<g id="Vacation" display="none">
</g>
<g id="Sickness" display="none">
</g>
<g id="Sick_Child" display="none">
</g>
<g id="Parental_Leave" display="none">
</g>
<g id="Order_Closed" display="none">
</g>
<g id="Create_an_Order_1_" display="none">
</g>
<g id="Order_Imported" display="none">
</g>
<g id="Delivery_Reception_1_" display="none">
</g>
<g id="Delivery_Notification_1_" display="none">
</g>
<g id="Delivery_Reception" display="none">
</g>
<g id="Events" display="none">
</g>
<g id="Comment_to_Order" display="none">
</g>
<g id="Special_Approved" display="none">
</g>
<g id="Narrow" display="none">
</g>
<g id="Wide" display="none">
</g>
<g id="Content_Edit" display="none">
</g>
<g id="Storage_x2F_In_Stock" display="none">
</g>
<g id="Environmental" display="none">
</g>
<g id="View_Time_Report" display="none">
</g>
<g id="Incoming" display="none">
</g>
<g id="Shared_User" display="none">
</g>
<g id="Add_to_Requisition_Template" display="none">
</g>
<g id="Future" display="none">
</g>
<g id="History" display="none">
</g>
<g id="Managers_Time_Registration" display="none">
</g>
<g id="Payroll_Calculations" display="none">
</g>
<g id="Comment_Chat" display="none">
</g>
<g id="Comment_Web_Reply" display="none">
</g>
<g id="Comment_Community" display="none">
</g>
<g id="Platform_Mobile" display="none">
</g>
<g id="Platform_Cloud" display="none">
</g>
<g id="Jira" display="none">
</g>
<g id="Change_Owner" display="none">
</g>
<g id="Change_Width" display="none">
</g>
<g id="Help" display="none">
</g>
<g id="Agreement" display="none">
</g>
<g id="Storage" display="none">
</g>
<g id="Tile_View" display="none">
</g>
<g id="List_View" display="none">
</g>
<g id="Sort_List" display="none">
</g>
<g id="User_List_2" display="none">
</g>
<g id="User_List_1" display="none">
</g>
<g id="Exclude" display="none">
</g>
<g id="Sending_Failed" display="none">
</g>
<g id="Send" display="none">
</g>
<g id="Logon_Failed" display="none">
</g>
<g id="Coffee_Break" display="none">
</g>
<g id="Lunch" display="none">
</g>
<g id="Add_User" display="none">
</g>
<g id="layer_4_" display="none">
</g>
<g id="layer_3_" display="none">
</g>
<g id="layer_2_" display="none">
</g>
<g id="Unpin">
	<g>
		<g>
			<path fill-rule="evenodd" clip-rule="evenodd" fill="#0089D9" d="M13.6,8.6c0.9-1,1.4-2.3,1.5-3.7l4,4c-1.4,0.1-2.7,0.6-3.7,1.5
				l1.5,1.5c1.1-0.9,2.6-1.2,4.8-0.4c0.8-0.8,0.8-2.3,0-3c-0.8-0.8-5.3-5.3-6.1-6.1c-0.8-0.8-2.3-0.8-3,0C13.3,4.5,12.9,6,12,7
				L13.6,8.6z M13,14c-0.3,0.8-0.5,1.8-0.6,2.8c0,0.2,0,0.4-0.1,0.5l-5.8-5.8c0.2,0,0.3,0,0.5-0.1c1-0.1,2-0.3,2.8-0.6L8.1,9.1
				C6.2,9.6,4.5,9.5,4.5,9.5c-0.8,0.8-0.8,2.3,0,3c0.3,0.3,1.3,1.3,2.4,2.4L0,24l9-7c1.1,1.1,2.1,2.1,2.4,2.4c0.7,0.7,2.3,0.7,3,0
				c0,0-0.1-1.7,0.4-3.6L13,14z M23.2,19.8l-19-19c-0.4-0.4-1-0.4-1.4,0c-0.4,0.4-0.4,1,0,1.4l19,19c0.4,0.4,1,0.4,1.4,0
				C23.6,20.8,23.6,20.2,23.2,19.8z"/>
		</g>
	</g>
	<g>
		<g>
			<path fill-rule="evenodd" clip-rule="evenodd" fill="#D7D7D7" d="M42.6,8.6c0.9-1,1.4-2.3,1.5-3.7l4,4c-1.4,0.1-2.7,0.6-3.7,1.5
				l1.5,1.5c1.1-0.9,2.6-1.2,4.8-0.4c0.8-0.8,0.8-2.3,0-3c-0.8-0.8-5.3-5.3-6.1-6.1c-0.8-0.8-2.3-0.8-3,0C42.3,4.5,41.9,6,41,7
				L42.6,8.6z M42,14c-0.3,0.8-0.5,1.8-0.6,2.8c0,0.2,0,0.4-0.1,0.5l-5.8-5.8c0.2,0,0.3,0,0.5-0.1c1-0.1,2-0.3,2.8-0.6l-1.7-1.7
				c-1.9,0.4-3.6,0.4-3.6,0.4c-0.8,0.8-0.8,2.3,0,3c0.3,0.3,1.3,1.3,2.4,2.4L29,24l9-7c1.1,1.1,2.1,2.1,2.4,2.4c0.7,0.7,2.3,0.7,3,0
				c0,0-0.1-1.7,0.4-3.6L42,14z M52.2,19.8l-19-19c-0.4-0.4-1-0.4-1.4,0c-0.4,0.4-0.4,1,0,1.4l19,19c0.4,0.4,1,0.4,1.4,0
				C52.6,20.8,52.6,20.2,52.2,19.8z"/>
		</g>
	</g>
	<g>
		<g>
			<path fill-rule="evenodd" clip-rule="evenodd" fill="#39A6E6" d="M71.6,8.6c0.9-1,1.4-2.3,1.5-3.7l4,4c-1.4,0.1-2.7,0.6-3.7,1.5
				l1.5,1.5c1.1-0.9,2.6-1.2,4.8-0.4c0.8-0.8,0.8-2.3,0-3c-0.8-0.8-5.3-5.3-6.1-6.1c-0.8-0.8-2.3-0.8-3,0C71.3,4.5,70.9,6,70,7
				L71.6,8.6z M71,14c-0.3,0.8-0.5,1.8-0.6,2.8c0,0.2,0,0.4-0.1,0.5l-5.8-5.8c0.2,0,0.3,0,0.5-0.1c1-0.1,2-0.3,2.8-0.6l-1.7-1.7
				c-1.9,0.4-3.6,0.4-3.6,0.4c-0.8,0.8-0.8,2.3,0,3c0.3,0.3,1.3,1.3,2.4,2.4L58,24l9-7c1.1,1.1,2.1,2.1,2.4,2.4c0.7,0.7,2.3,0.7,3,0
				c0,0-0.1-1.7,0.4-3.6L71,14z M81.2,19.8l-19-19c-0.4-0.4-1-0.4-1.4,0c-0.4,0.4-0.4,1,0,1.4l19,19c0.4,0.4,1,0.4,1.4,0
				C81.6,20.8,81.6,20.2,81.2,19.8z"/>
		</g>
	</g>
	<g>
		<g>
			<path fill-rule="evenodd" clip-rule="evenodd" fill="#FFFFFF" d="M100,14c-0.3,0.8-0.5,1.8-0.6,2.8c0,0.2,0,0.4-0.1,0.5l-5.8-5.8
				c0.2,0,0.3,0,0.5-0.1c1-0.1,2-0.3,2.8-0.6l-1.7-1.7c-1.9,0.4-3.6,0.4-3.6,0.4c-0.8,0.8-0.8,2.3,0,3c0.3,0.3,1.3,1.3,2.4,2.4
				L87,24l9-7c1.1,1.1,2.1,2.1,2.4,2.4c0.7,0.7,2.3,0.7,3,0c0,0-0.1-1.7,0.4-3.6L100,14z M100.6,8.6c0.9-1,1.4-2.3,1.5-3.7l4,4
				c-1.4,0.1-2.7,0.6-3.7,1.5l1.5,1.5c1.1-0.9,2.6-1.2,4.8-0.4c0.8-0.8,0.8-2.3,0-3c-0.8-0.8-5.3-5.3-6.1-6.1c-0.8-0.8-2.3-0.8-3,0
				C100.3,4.5,99.9,6,99,7L100.6,8.6z M110.2,19.8l-19-19c-0.4-0.4-1-0.4-1.4,0c-0.4,0.4-0.4,1,0,1.4l19,19c0.4,0.4,1,0.4,1.4,0
				C110.6,20.8,110.6,20.2,110.2,19.8z"/>
		</g>
	</g>
	<g>
		<g>
			<path fill-rule="evenodd" clip-rule="evenodd" fill="#737373" d="M129.6,8.6c0.9-1,1.4-2.3,1.5-3.7l4,4c-1.4,0.1-2.7,0.6-3.7,1.5
				l1.5,1.5c1.1-0.9,2.6-1.2,4.8-0.4c0.8-0.8,0.8-2.3,0-3c-0.8-0.8-5.3-5.3-6.1-6.1c-0.8-0.8-2.3-0.8-3,0c0.8,2.2,0.4,3.7-0.4,4.8
				L129.6,8.6z M129,14c-0.3,0.8-0.5,1.8-0.6,2.8c0,0.2,0,0.4-0.1,0.5l-5.8-5.8c0.2,0,0.3,0,0.5-0.1c1-0.1,2-0.3,2.8-0.6l-1.7-1.7
				c-1.9,0.4-3.6,0.4-3.6,0.4c-0.8,0.8-0.8,2.3,0,3c0.3,0.3,1.3,1.3,2.4,2.4l-6.9,9l9-7c1.1,1.1,2.1,2.1,2.4,2.4
				c0.7,0.7,2.3,0.7,3,0c0,0-0.1-1.7,0.4-3.6L129,14z M139.2,19.8l-19-19c-0.4-0.4-1-0.4-1.4,0c-0.4,0.4-0.4,1,0,1.4l19,19
				c0.4,0.4,1,0.4,1.4,0C139.6,20.8,139.6,20.2,139.2,19.8z"/>
		</g>
	</g>
</g>
<g id="User_Folder__x28_Projects_x29_">
</g>
<g id="Autoadjust_Columns">
</g>
<g id="Split">
</g>
<g id="Merge">
</g>
<g id="Layout_Templates">
</g>
<g id="Row_Level_Security">
</g>
<g id="System_Management">
</g>
<g id="Integration_1_">
</g>
<g id="User_Security">
</g>
<g id="Contract_Management">
</g>
<g id="Taxes__x28_Percentage_Sign_x29_">
</g>
<g id="Purchase__x28_Truck_x29_">
</g>
<g id="Banking">
</g>
<g id="Finance">
</g>
<g id="Custom_Views">
</g>
<g id="Tie">
</g>
<g id="Task_Overview">
</g>
<g id="List_View_1_">
</g>
<g id="Distribution">
</g>
<g id="Multiple_Selection">
</g>
<g id="Single_Selection">
</g>
<g id="Expense_1_">
</g>
<g id="Lodging_1_">
</g>
<g id="Mileage_1_">
</g>
<g id="Expense">
</g>
<g id="Travel">
</g>
<g id="Special_Day_1_">
</g>
<g id="Adoption_Leave">
</g>
<g id="Holiday_1_">
</g>
<g id="Working_Days">
</g>
<g id="Guides" display="none" opacity="0.2">
	<rect display="inline" fill-rule="evenodd" clip-rule="evenodd" fill="#0089D9" width="24" height="24"/>
	<rect x="29" display="inline" fill-rule="evenodd" clip-rule="evenodd" fill="#0089D9" width="24" height="24"/>
	<rect x="58" display="inline" fill-rule="evenodd" clip-rule="evenodd" fill="#0089D9" width="24" height="24"/>
	<rect x="87" display="inline" fill-rule="evenodd" clip-rule="evenodd" fill="#0089D9" width="24" height="24"/>
	<rect x="116" display="inline" fill-rule="evenodd" clip-rule="evenodd" fill="#0089D9" width="24" height="24"/>
</g>
</svg>
