<svg width="112" height="24" xmlns="http://www.w3.org/2000/svg">
 <defs>
  <style>.cls-1 {
                fill: #ffffff;
            }

            .cls-1,
            .cls-2,
            .cls-3 {
                fill-rule: evenodd;
            }

            .cls-2 {
                fill: #646464;
            }

            .cls-3 {
                fill: #0089d9;
            }</style>
 </defs>
 <title>24</title>
 <g>
  <title>background</title>
  <rect fill="none" id="canvas_background" height="26" width="114" y="-1" x="-1"/>
 </g>
 <g>
  <title>Layer 1</title>
  <path id="svg_1" d="m22.6,8.9l0.87,-0.5a1,1 0 0 0 -1,-1.73l-0.87,0.5a1,1 0 0 0 1,1.73zm-4.6,-7.2c-2.7,2.07 -5.55,5.36 -9,5.36l-5,0c-5.41,0 -5.34,9 0,9l1.08,0a4.47,4.47 0 0 0 8.28,1.83c1.67,1.3 3.21,3.05 4.7,4.35c1.64,1.68 2,0 2,0l0,-20.65s-0.57,-1.21 -2.06,0.11zm-8.47,16.36a2.5,2.5 0 0 1 -2.45,-2l1.92,0a5.71,5.71 0 0 1 2.67,0.73a2.49,2.49 0 0 1 -2.14,1.27zm8.47,1.63s-4,-5.62 -9,-5.62l-5,0c-2.81,0 -2.69,-5 0,-5l5,0c5,0 9,-4.75 9,-4.75l0,15.37zm4,-6.62l1,0a1,1 0 0 0 0,-2l-1,0a1,1 0 0 0 0,1.99l0,0.01zm1.43,2.66l-0.87,-0.5a1,1 0 0 0 -1,1.73l0.87,0.5a1,1 0 0 0 1.03,-1.73l-0.03,0z" class="cls-1"/>
  <path id="svg_2" d="m66.015646,13.06l1,0a1,1 0 0 0 0,-2l-1,0a1,1 0 0 0 0,2zm0.6,-4.16l0.87,-0.5a1,1 0 0 0 -1,-1.73l-0.87,0.5a1,1 0 0 0 1,1.73zm-4.6,-7.2c-2.7,2.07 -5.55,5.36 -9,5.36l-5,0c-5.41,0 -5.34,9 0,9l1.05,0a4.47,4.47 0 0 0 8.28,1.83c1.67,1.3 3.21,3.05 4.7,4.35c1.64,1.68 2,0 2,0l0,-20.65s-0.54,-1.21 -2.03,0.11zm-8.47,16.36a2.5,2.5 0 0 1 -2.45,-2l1.92,0a5.71,5.71 0 0 1 2.67,0.73a2.49,2.49 0 0 1 -2.14,1.27zm8.47,1.63s-4,-5.63 -9,-5.63l-5,0c-2.81,0 -2.69,-5 0,-5l5,0c5,0 9,-4.75 9,-4.75l0,15.38zm5.43,-4l-0.87,-0.5a1,1 0 0 0 -1,1.73l0.87,0.5a1,1 0 0 0 1.03,-1.69l-0.03,-0.04z" class="cls-2"/>
  <path id="svg_3" d="m110.57,8.9l0.87,-0.5a1,1 0 0 0 -1,-1.73l-0.87,0.5a1,1 0 0 0 1,1.73zm-4.57,-7.2c-2.7,2.07 -5.55,5.36 -9,5.36l-5,0c-5.41,0 -5.34,9 0,9l1.05,0a4.47,4.47 0 0 0 8.28,1.83c1.67,1.3 3.21,3.05 4.7,4.35c1.64,1.68 2,0 2,0l0,-20.65s-0.57,-1.21 -2.03,0.11zm-8.5,16.36a2.5,2.5 0 0 1 -2.45,-2l1.95,0a5.71,5.71 0 0 1 2.67,0.73a2.49,2.49 0 0 1 -2.17,1.27zm8.5,1.63s-4,-5.63 -9,-5.63l-5,0c-2.81,0 -2.69,-5 0,-5l5,0c5,0 9,-4.75 9,-4.75l0,15.38zm4,-6.62l1,0a1,1 0 0 0 0,-2l-1,0a1,1 0 0 0 0,1.99l0,0.01zm1.43,2.66l-0.87,-0.5a1,1 0 0 0 -1,1.73l0.87,0.5a1,1 0 0 0 1,-1.73z" class="cls-3"/>
 </g>
</svg>