<svg xmlns="http://www.w3.org/2000/svg" xmlns:xlink="http://www.w3.org/1999/xlink" version="1.1" style="" xml:space="preserve" width="512" height="512"><rect id="backgroundrect" width="100%" height="100%" x="0" y="0" fill="none" stroke="none"/>

<g class="currentLayer" style=""><title>Layer 1</title><g id="svg_1" class="selected" fill="#ffffff" fill-opacity="1">
	<path style="fill-rule:evenodd;clip-rule:evenodd;" d="M509.071,174.09c3.905-3.905,3.905-10.236,0-14.142l-29.391-29.392   c-1.875-1.875-4.419-2.929-7.071-2.929c-2.652,0-5.196,1.054-7.071,2.93c-4.241,4.241-9.879,6.576-15.877,6.576   c-5.998,0-11.637-2.335-15.878-6.577c-4.241-4.241-6.577-9.88-6.577-15.878c0-5.998,2.336-11.637,6.577-15.878   c1.876-1.876,2.929-4.419,2.929-7.071c0-2.652-1.054-5.195-2.929-7.071L404.39,55.268c-3.904-3.902-10.235-3.904-14.142,0   c-4.241,4.241-9.88,6.577-15.878,6.577c-5.998,0-11.637-2.336-15.878-6.577c-3.905-3.904-10.237-3.904-14.142,0l-25.14,25.14   l-22.32-22.32c-1.875-1.875-4.418-2.929-7.071-2.929c-2.652,0-5.196,1.054-7.071,2.929c-4.242,4.242-9.88,6.577-15.878,6.577   c-5.998,0-11.637-2.335-15.878-6.577c-1.875-1.875-4.418-2.929-7.071-2.929c-2.652,0-5.196,1.054-7.071,2.929l-88.676,88.677   c-3.905,3.905-3.905,10.237,0,14.143c1.953,1.952,4.512,2.929,7.071,2.929s5.119-0.977,7.071-2.929l82.446-82.447   c13.521,8.246,30.694,8.246,44.216,0l16.09,16.091L110.429,289.19c-1.876,1.876-2.929,4.419-2.929,7.071   c0,2.652,1.054,5.196,2.929,7.071c4.241,4.241,6.577,9.88,6.577,15.878c0,5.998-2.336,11.637-6.577,15.878   c-1.876,1.876-2.929,4.419-2.929,7.071c0,2.652,1.054,5.195,2.929,7.071l29.392,29.391c3.905,3.904,10.236,3.904,14.142,0   c4.241-4.241,9.88-6.577,15.877-6.577c5.998,0,11.637,2.336,15.879,6.577c8.754,8.754,8.754,22.998,0.002,31.754l-0.002,0.002   l-25.982,25.98c-13.521-8.246-30.694-8.247-44.215,0.001L98.59,419.426c9.964-16.34,7.888-38.009-6.23-52.128   c-14.117-14.117-35.788-16.192-52.128-6.229l-16.932-16.932c8.246-13.521,8.246-30.694,0-44.216l82.446-82.446   c3.905-3.905,3.905-10.237,0-14.143c-3.905-3.904-10.237-3.904-14.142,0L2.929,292.009c-3.905,3.905-3.905,10.237,0,14.143   c8.755,8.755,8.754,23.001,0,31.757c-3.905,3.905-3.905,10.236,0,14.142l29.392,29.391c3.905,3.904,10.237,3.904,14.142,0   c4.241-4.241,9.88-6.577,15.878-6.577c5.998,0,11.637,2.336,15.877,6.576c8.755,8.756,8.755,23.002,0.001,31.756   c-3.905,3.905-3.905,10.237-0.001,14.143l29.392,29.393c1.876,1.875,4.419,2.929,7.071,2.929c2.652,0,5.196-1.054,7.071-2.93   c8.755-8.755,23-8.754,31.755,0c3.905,3.904,10.236,3.904,14.142,0l25.14-25.139l22.321,22.32c1.875,1.875,4.419,2.929,7.071,2.929   c2.652,0,5.196-1.054,7.071-2.93c4.241-4.241,9.88-6.576,15.877-6.576c5.998,0,11.637,2.335,15.878,6.576   c3.905,3.904,10.237,3.904,14.142,0l233.922-233.922c3.905-3.905,3.905-10.237,0-14.143   C500.316,197.092,500.316,182.846,509.071,174.09z M488.699,212.077l-31.391,31.391l-10.031-10.031   c-3.904-3.903-10.236-3.903-14.142,0c-3.905,3.905-3.905,10.236,0,14.142l10.031,10.032L267.245,433.53   c-6.593-4.038-14.188-6.195-22.116-6.195c-7.927,0-15.523,2.158-22.116,6.196l-16.923-16.924c9.964-16.34,7.888-38.01-6.23-52.128   c-8.019-8.019-18.68-12.434-30.02-12.434c-7.927,0-15.523,2.158-22.116,6.195l-16.915-16.914   c4.038-6.593,6.196-14.188,6.196-22.116c0-7.928-2.158-15.523-6.196-22.116l175.92-175.921l10.032,10.031   c1.953,1.952,4.512,2.929,7.071,2.929c2.559,0,5.119-0.977,7.071-2.929c3.905-3.906,3.905-10.237,0-14.143l-10.031-10.03   l5.406-5.407c0.001-0.001,0.003-0.002,0.004-0.003c0.002-0.001,0.003-0.003,0.004-0.004l25.969-25.969   c6.593,4.038,14.189,6.195,22.116,6.195c7.928,0,15.523-2.157,22.116-6.196l16.915,16.915c-4.039,6.594-6.196,14.188-6.196,22.116   c0,11.341,4.416,22.002,12.435,30.021c8.019,8.019,18.68,12.435,30.02,12.435c7.927,0,15.523-2.158,22.116-6.196l16.923,16.923   C480.453,181.383,480.453,198.555,488.699,212.077z" id="svg_2" fill="#ffffff" fill-opacity="1"/>
	<path style="fill-rule:evenodd;clip-rule:evenodd;" d="M358.293,144.453c-3.905-3.905-10.236-3.905-14.142-0.001   c-3.905,3.905-3.905,10.236,0,14.142l17.102,17.102c1.953,1.953,4.512,2.93,7.071,2.93c2.559,0,5.118-0.977,7.071-2.929   c3.905-3.905,3.905-10.236,0.001-14.142L358.293,144.453z" id="svg_3" fill="#ffffff" fill-opacity="1"/>
	<path style="fill-rule:evenodd;clip-rule:evenodd;" d="M402.784,188.944c-3.905-3.904-10.237-3.904-14.142,0   c-3.905,3.905-3.905,10.237,0,14.143l17.103,17.103c1.952,1.952,4.512,2.929,7.071,2.929c2.559,0,5.118-0.977,7.071-2.929   c3.905-3.905,3.905-10.237,0-14.143L402.784,188.944z" id="svg_4" fill="#ffffff" fill-opacity="1"/>
	<path style="fill-rule:evenodd;clip-rule:evenodd;" d="M286.152,216.449c-3.905-3.903-10.237-3.904-14.142,0l-73.806,73.805   c-3.905,3.905-3.905,10.237-0.001,14.143c1.953,1.952,4.512,2.929,7.071,2.929c2.559,0,5.119-0.977,7.071-2.929l73.806-73.805   C290.057,226.686,290.057,220.354,286.152,216.449z" id="svg_5" fill="#ffffff" fill-opacity="1"/>
	<path style="fill-rule:evenodd;clip-rule:evenodd;" d="M352.267,259.668l-92.324,92.323c-3.905,3.905-3.905,10.237,0,14.143   c1.953,1.952,4.511,2.929,7.071,2.929c2.559,0,5.119-0.977,7.071-2.929l92.324-92.323c3.905-3.905,3.905-10.237,0-14.143   C362.503,255.765,356.172,255.764,352.267,259.668z" id="svg_6" fill="#ffffff" fill-opacity="1"/>
	<path style="fill-rule:evenodd;clip-rule:evenodd;" d="M348.424,215.914c-3.905-3.904-10.237-3.904-14.142,0L229.074,321.123   c-3.905,3.905-3.905,10.237,0,14.143c1.953,1.952,4.512,2.929,7.071,2.929s5.119-0.977,7.071-2.929l105.209-105.209   C352.329,226.151,352.329,219.819,348.424,215.914z" id="svg_7" fill="#ffffff" fill-opacity="1"/>
	<path style="fill-rule:evenodd;clip-rule:evenodd;" d="M126.961,192.12c5.508,0,10-4.492,10-10c0-5.508-4.492-10-10-10   c-5.508,0-10,4.492-10,10C116.961,187.627,121.453,192.12,126.961,192.12z" id="svg_8" fill="#ffffff" fill-opacity="1"/>
</g></g></svg>